<svg width="56" height="48" viewBox="0 0 56 48" fill="none" xmlns="http://www.w3.org/2000/svg">
<path d="M28 27.6088C27.8714 27.6087 27.7445 27.5803 27.6281 27.5256L0.503131 14.7638C0.352809 14.6931 0.225705 14.5811 0.136675 14.4409C0.0476443 14.3007 0.000366211 14.138 0.000366211 13.9719C0.000366211 13.8058 0.0476443 13.6431 0.136675 13.5029C0.225705 13.3627 0.352809 13.2507 0.503131 13.18L27.6281 0.413766C27.7445 0.359134 27.8715 0.330811 28 0.330811C28.1286 0.330811 28.2555 0.359134 28.3719 0.413766L55.4969 13.18C55.6472 13.2507 55.7743 13.3627 55.8633 13.5029C55.9524 13.6431 55.9996 13.8058 55.9996 13.9719C55.9996 14.138 55.9524 14.3007 55.8633 14.4409C55.7743 14.5811 55.6472 14.6931 55.4969 14.7638L28.3719 27.5256C28.2555 27.5803 28.1286 27.6087 28 27.6088ZM2.93126 13.9719L28 25.7844L53.0688 13.9719L28 2.17252L2.93126 13.9719Z" fill="#2F2F2F"/>
<path d="M10.5 29C10.2679 29 10.0454 28.9078 9.88128 28.7437C9.71719 28.5796 9.625 28.3571 9.625 28.125V18.9375C9.625 18.7054 9.71719 18.4829 9.88128 18.3188C10.0454 18.1547 10.2679 18.0625 10.5 18.0625C10.7321 18.0625 10.9546 18.1547 11.1187 18.3188C11.2828 18.4829 11.375 18.7054 11.375 18.9375V28.125C11.375 28.3571 11.2828 28.5796 11.1187 28.7437C10.9546 28.9078 10.7321 29 10.5 29Z" fill="#2F2F2F"/>
<path d="M45.5 29C45.2679 29 45.0454 28.9078 44.8813 28.7437C44.7172 28.5796 44.625 28.3571 44.625 28.125V18.9375C44.625 18.7054 44.7172 18.4829 44.8813 18.3188C45.0454 18.1547 45.2679 18.0625 45.5 18.0625C45.7321 18.0625 45.9546 18.1547 46.1187 18.3188C46.2828 18.4829 46.375 18.7054 46.375 18.9375V28.125C46.375 28.3571 46.2828 28.5796 46.1187 28.7437C45.9546 28.9078 45.7321 29 45.5 29Z" fill="#2F2F2F"/>
<path d="M28 37.9819C18.1037 37.9819 9.625 32.5613 9.625 28.125C9.625 27.8929 9.71719 27.6704 9.88128 27.5063C10.0454 27.3422 10.2679 27.25 10.5 27.25C10.7321 27.25 10.9546 27.3422 11.1187 27.5063C11.2828 27.6704 11.375 27.8929 11.375 28.125C11.375 30.8988 18.375 36.2319 28 36.2319C37.625 36.2319 44.625 30.8988 44.625 28.125C44.625 27.8929 44.7172 27.6704 44.8813 27.5063C45.0454 27.3422 45.2679 27.25 45.5 27.25C45.7321 27.25 45.9546 27.3422 46.1187 27.5063C46.2828 27.6704 46.375 27.8929 46.375 28.125C46.375 32.5613 37.8962 37.9819 28 37.9819Z" fill="#2F2F2F"/>
<path d="M41.125 38.1875C40.8929 38.1875 40.6704 38.0954 40.5063 37.9313C40.3422 37.7672 40.25 37.5446 40.25 37.3125V20.7925L27.6106 14.4707C27.5042 14.4218 27.4086 14.352 27.3296 14.2654C27.2506 14.1789 27.1898 14.0773 27.1508 13.9668C27.1118 13.8564 27.0953 13.7391 27.1025 13.6222C27.1096 13.5052 27.1402 13.3909 27.1924 13.286C27.2445 13.1811 27.3172 13.0877 27.4062 13.0114C27.4951 12.9351 27.5985 12.8775 27.7101 12.8419C27.8218 12.8063 27.9394 12.7935 28.0561 12.8042C28.1728 12.815 28.2861 12.849 28.3894 12.9044L41.5144 19.4669C41.6602 19.5394 41.7828 19.651 41.8686 19.7894C41.9544 19.9277 41.9999 20.0873 42 20.25V37.3125C42 37.5446 41.9078 37.7672 41.7437 37.9313C41.5796 38.0954 41.3571 38.1875 41.125 38.1875Z" fill="#2F2F2F"/>
<path d="M41.125 42.125C40.6058 42.125 40.0983 41.971 39.6666 41.6826C39.235 41.3942 38.8985 40.9842 38.6998 40.5045C38.5011 40.0249 38.4492 39.4971 38.5504 38.9879C38.6517 38.4787 38.9017 38.011 39.2689 37.6438C39.636 37.2767 40.1037 37.0267 40.6129 36.9254C41.1221 36.8242 41.6499 36.8761 42.1296 37.0748C42.6092 37.2735 43.0192 37.61 43.3076 38.0416C43.5961 38.4733 43.75 38.9808 43.75 39.5C43.75 40.1962 43.4734 40.8639 42.9812 41.3562C42.4889 41.8484 41.8212 42.125 41.125 42.125ZM41.125 38.625C40.952 38.625 40.7828 38.6763 40.6389 38.7725C40.495 38.8686 40.3828 39.0053 40.3166 39.1652C40.2504 39.325 40.2331 39.501 40.2668 39.6707C40.3006 39.8404 40.3839 39.9963 40.5063 40.1187C40.6287 40.2411 40.7846 40.3244 40.9543 40.3582C41.124 40.392 41.3 40.3746 41.4599 40.3084C41.6197 40.2422 41.7564 40.13 41.8525 39.9861C41.9487 39.8422 42 39.6731 42 39.5C42 39.2679 41.9078 39.0454 41.7437 38.8813C41.5796 38.7172 41.3571 38.625 41.125 38.625Z" fill="#2F2F2F"/>
<path d="M42.4375 47.3749H39.8125C39.6911 47.3754 39.5709 47.3505 39.4595 47.302C39.3482 47.2534 39.2482 47.1823 39.1659 47.0929C39.0836 47.0037 39.0208 46.8982 38.9815 46.7833C38.9422 46.6684 38.9272 46.5466 38.9375 46.4256L39.375 41.1756C39.3837 40.9435 39.4842 40.7244 39.6545 40.5665C39.8247 40.4085 40.0508 40.3247 40.2828 40.3334C40.5149 40.3421 40.734 40.4426 40.8919 40.6129C41.0499 40.7831 41.1337 41.0091 41.125 41.2412C41.1163 41.0091 41.2001 40.7831 41.3581 40.6129C41.516 40.4426 41.7351 40.3421 41.9672 40.3334C42.1993 40.3247 42.4253 40.4085 42.5955 40.5665C42.7658 40.7244 42.8663 40.9435 42.875 41.1756L43.3125 46.4256C43.3228 46.5466 43.3079 46.6684 43.2685 46.7833C43.2292 46.8982 43.1664 47.0037 43.0841 47.0929C43.0018 47.1823 42.9018 47.2534 42.7905 47.302C42.6792 47.3505 42.559 47.3754 42.4375 47.3749ZM40.7619 45.6249H41.4881L41.125 41.3243C41.1228 41.3025 41.1228 41.2805 41.125 41.2587C41.1272 41.2805 41.1272 41.3025 41.125 41.3243L40.7619 45.6249Z" fill="#2F2F2F"/>
</svg>
