<svg width="36" height="46" viewBox="0 0 36 46" fill="none" xmlns="http://www.w3.org/2000/svg">
<path d="M2.25624 41.4001H4.50596V43.6999C4.50596 44.9703 5.51309 46 6.75534 46H33.7506C34.9929 46 36 44.9703 36 43.6999V6.90007C36 5.62962 34.9929 4.59993 33.7506 4.59993H31.5009V2.30014C31.5009 1.02969 30.4938 0 29.2512 0H8.25539C8.24097 0 8.22758 0.00772095 8.21316 0.00842285C8.14451 0.0122833 8.07655 0.0259704 8.01167 0.0498352C7.98936 0.0575561 7.96739 0.0663299 7.94611 0.0765075C7.8627 0.113358 7.78649 0.165298 7.72127 0.229874L0.222775 7.89677C0.159959 7.9617 0.109156 8.03786 0.072771 8.12138C0.0621299 8.1449 0.0562945 8.16876 0.0480563 8.19333C0.0264309 8.25685 0.0133871 8.32318 0.00961126 8.39056C0.00961126 8.40741 0 8.4218 0 8.43864V39.0999C0 39.7113 0.237879 40.2974 0.661117 40.7287C1.0847 41.1604 1.65863 41.4018 2.25624 41.4001ZM33.7506 6.13324C34.1646 6.13324 34.5003 6.47647 34.5003 6.90007V43.6999C34.5003 44.1235 34.1646 44.4667 33.7506 44.4667H6.75534C6.34137 44.4667 6.00566 44.1235 6.00566 43.6999V41.4001H29.2512C30.4938 41.4001 31.5009 40.3704 31.5009 39.0999V6.13324H33.7506ZM30.0012 2.30014V39.0999C30.0012 39.5235 29.6655 39.8668 29.2512 39.8668H2.25624C1.84227 39.8668 1.50656 39.5235 1.50656 39.0999V9.19986H6.75534C7.99794 9.19986 9.00506 8.17017 9.00506 6.90007V1.53331H29.2512C29.6655 1.53331 30.0012 1.87654 30.0012 2.30014ZM7.50536 2.6174V6.90007C7.50536 7.32332 7.16966 7.66655 6.75534 7.66655H2.56689L7.50536 2.6174Z" fill="black"/>
<path fill-rule="evenodd" clip-rule="evenodd" d="M23.3923 15.0373C23.5376 15.224 23.7608 15.3332 23.9974 15.3332C24.2336 15.3332 24.4568 15.224 24.6021 15.0373L28.18 10.4374C28.4288 10.1029 28.3646 9.63091 28.0358 9.37507C27.7069 9.11887 27.2335 9.17292 26.9703 9.49615L23.9974 13.318L23.5801 12.7811C23.32 12.447 22.8382 12.3873 22.5041 12.6473C22.17 12.9078 22.1103 13.3893 22.3704 13.7234L23.3923 15.0373Z" fill="black"/>
<path fill-rule="evenodd" clip-rule="evenodd" d="M6.10866 12.2666H5.34183C4.91858 12.2666 4.57535 12.6098 4.57535 13.0331C4.57535 13.4567 4.91858 13.7999 5.34183 13.7999H6.10866C6.53191 13.7999 6.87514 13.4567 6.87514 13.0331C6.87514 12.6098 6.53191 12.2666 6.10866 12.2666Z" fill="black"/>
<path fill-rule="evenodd" clip-rule="evenodd" d="M9.17526 12.2666C8.75201 12.2666 8.40878 12.6098 8.40878 13.0331C8.40878 13.4567 8.75201 13.7999 9.17526 13.7999H18.3751C18.7987 13.7999 19.142 13.4567 19.142 13.0331C19.142 12.6098 18.7987 12.2666 18.3751 12.2666H9.17526Z" fill="black"/>
<path fill-rule="evenodd" clip-rule="evenodd" d="M23.3923 21.9375C23.5376 22.1242 23.7608 22.2333 23.9974 22.2333C24.2336 22.2333 24.4568 22.1242 24.6021 21.9375L28.18 17.3376C28.3555 17.1221 28.4008 16.8283 28.298 16.57C28.1955 16.3121 27.961 16.1296 27.6852 16.0934C27.4097 16.0573 27.1363 16.1731 26.9703 16.396L23.9974 20.2178L23.5801 19.6812C23.412 19.465 23.1411 19.3552 22.8698 19.3931C22.5985 19.4306 22.3679 19.6103 22.2647 19.8641C22.1619 20.1178 22.2019 20.4073 22.3704 20.6235L23.3923 21.9375Z" fill="black"/>
<path fill-rule="evenodd" clip-rule="evenodd" d="M6.10866 19.1667H5.34183C4.91858 19.1667 4.57535 19.51 4.57535 19.9336C4.57535 20.3568 4.91858 20.7001 5.34183 20.7001H6.10866C6.53191 20.7001 6.87514 20.3568 6.87514 19.9336C6.87514 19.51 6.53191 19.1667 6.10866 19.1667Z" fill="black"/>
<path fill-rule="evenodd" clip-rule="evenodd" d="M18.3751 19.1667H9.17526C8.75201 19.1667 8.40878 19.51 8.40878 19.9336C8.40878 20.3568 8.75201 20.7001 9.17526 20.7001H18.3751C18.7987 20.7001 19.142 20.3568 19.142 19.9336C19.142 19.51 18.7987 19.1667 18.3751 19.1667Z" fill="black"/>
<path fill-rule="evenodd" clip-rule="evenodd" d="M23.3923 28.8374C23.5376 29.0241 23.7608 29.1329 23.9974 29.1329C24.2336 29.1329 24.4568 29.0241 24.6021 28.8374L28.18 24.2375C28.3555 24.022 28.4008 23.7282 28.2979 23.4699C28.1955 23.2116 27.961 23.0295 27.6852 22.9933C27.4097 22.9572 27.1363 23.073 26.9703 23.2959L23.9974 27.1177L23.5801 26.5811C23.32 26.247 22.8382 26.187 22.5041 26.4474C22.17 26.7075 22.1103 27.1893 22.3704 27.5234L23.3923 28.8374Z" fill="black"/>
<path fill-rule="evenodd" clip-rule="evenodd" d="M6.10866 26.0667H5.34183C4.91858 26.0667 4.57535 26.4099 4.57535 26.8335C4.57535 27.2567 4.91858 27.6 5.34183 27.6H6.10866C6.53191 27.6 6.87514 27.2567 6.87514 26.8335C6.87514 26.4099 6.53191 26.0667 6.10866 26.0667Z" fill="black"/>
<path fill-rule="evenodd" clip-rule="evenodd" d="M18.3751 26.0667H9.17526C8.75201 26.0667 8.40878 26.4099 8.40878 26.8335C8.40878 27.2567 8.75201 27.6 9.17526 27.6H18.3751C18.7987 27.6 19.142 27.2567 19.142 26.8335C19.142 26.4099 18.7987 26.0667 18.3751 26.0667Z" fill="black"/>
<path fill-rule="evenodd" clip-rule="evenodd" d="M23.3923 35.7379C23.5376 35.9242 23.7608 36.0334 23.9974 36.0334C24.2336 36.0334 24.4568 35.9242 24.6021 35.7379L28.18 31.138C28.3555 30.9225 28.4008 30.6287 28.2979 30.3704C28.1955 30.1121 27.961 29.9296 27.6852 29.8935C27.4097 29.8573 27.1363 29.9735 26.9703 30.1963L23.9974 34.0182L23.5801 33.4816C23.32 33.1475 22.8382 33.0875 22.5041 33.3479C22.17 33.608 22.1103 34.0898 22.3704 34.4239L23.3923 35.7379Z" fill="black"/>
<path fill-rule="evenodd" clip-rule="evenodd" d="M6.10866 32.9668H5.34183C4.91858 32.9668 4.57535 33.31 4.57535 33.7333C4.57535 34.1569 4.91858 34.5001 5.34183 34.5001H6.10866C6.53191 34.5001 6.87514 34.1569 6.87514 33.7333C6.87514 33.31 6.53191 32.9668 6.10866 32.9668Z" fill="black"/>
<path fill-rule="evenodd" clip-rule="evenodd" d="M18.3751 32.9668H9.17526C8.75201 32.9668 8.40878 33.31 8.40878 33.7333C8.40878 34.1569 8.75201 34.5001 9.17526 34.5001H18.3751C18.7987 34.5001 19.142 34.1569 19.142 33.7333C19.142 33.31 18.7987 32.9668 18.3751 32.9668Z" fill="black"/>
</svg>
