<svg width="272" height="272" viewBox="0 0 272 272" fill="none" xmlns="http://www.w3.org/2000/svg">
<path d="M129.683 1.8383C128.693 0.848349 126.996 0.848357 126.006 1.8383L126.996 2.82825C127.491 2.33328 128.198 2.33328 128.693 2.82825L129.683 1.8383ZM1.83848 126.006C0.848528 126.996 0.848528 128.693 1.83848 129.683L2.82843 128.693C2.40416 128.269 2.40416 127.42 2.82843 126.996L1.83848 126.006ZM144.674 268.842C144.179 269.337 143.472 269.337 142.977 268.842L141.987 269.832C142.977 270.822 144.674 270.822 145.664 269.832L144.674 268.842ZM142.977 268.842L2.82843 128.693L1.83848 129.683L141.987 269.832L142.977 268.842ZM173.029 240.487L144.745 268.771L145.735 269.761L174.019 241.477L173.029 240.487ZM2.82843 126.996L126.996 2.82825L126.006 1.8383L1.83848 126.006L2.82843 126.996ZM128.693 2.82825L151.109 25.2435L152.099 24.2536L129.683 1.8383L128.693 2.82825Z" fill="#D7D7D7"/>
<path d="M269.832 145.664C270.822 144.674 270.822 142.977 269.832 141.987L268.842 142.977C269.337 143.472 269.337 144.179 268.842 144.674L269.832 145.664ZM269.832 141.987L249.75 121.905L248.76 122.895L268.842 142.977L269.832 141.987ZM196.151 219.344L269.832 145.664L268.842 144.674L195.161 218.354L196.151 219.344Z" fill="#D7D7D7"/>
<path d="M174.231 46.386L173.241 47.376L225.709 99.8433L226.699 98.8533L174.231 46.386Z" fill="#D7D7D7"/>
<path d="M61.0234 67.8116L60.0335 68.8015L131.239 140.007L132.229 139.017L61.0234 67.8116Z" fill="#D7D7D7"/>
<path d="M212.132 159.523L211.142 160.513L232.567 181.938L233.557 180.948L212.132 159.523Z" fill="#D7D7D7"/>
<path d="M91.9947 178.262L71.4886 198.768L72.4785 199.758L92.9846 179.252L91.9947 178.262Z" fill="#D7D7D7"/>
<path d="M60.9524 147.219L40.4463 167.726L41.4362 168.716L61.9423 148.209L60.9524 147.219Z" fill="#D7D7D7"/>
<path d="M141.704 128.552L121.198 149.058L122.188 150.048L142.694 129.542L141.704 128.552Z" fill="#D7D7D7"/>
<path d="M198.344 71.9129L160.938 109.319L161.928 110.309L199.333 72.9028L198.344 71.9129Z" fill="#D7D7D7"/>
<path d="M100.197 107.975L79.6907 128.481L80.6807 129.471L101.187 108.965L100.197 107.975Z" fill="#D7D7D7"/>
</svg>
