<svg width="52" height="48" viewBox="0 0 52 48" fill="none" xmlns="http://www.w3.org/2000/svg">
<path d="M49.625 31.875H39.125V9.125C39.125 8.42881 38.8485 7.76113 38.3562 7.26884C37.8639 6.77656 37.1962 6.5 36.5 6.5C35.8747 6.49091 35.2666 6.70539 34.7854 7.10483C34.3041 7.50427 33.9813 8.06242 33.875 8.67875L23.2875 17.6737C23.3484 17.4995 23.3781 17.3158 23.375 17.1313V2.125C23.375 1.66087 23.1906 1.21575 22.8625 0.887563C22.5343 0.559374 22.0892 0.375 21.625 0.375H2.37502C1.9109 0.375 1.46578 0.559374 1.13759 0.887563C0.809399 1.21575 0.625024 1.66087 0.625024 2.125V14.375C0.625024 14.8391 0.809399 15.2842 1.13759 15.6124C1.46578 15.9406 1.9109 16.125 2.37502 16.125H18.58L19.98 17.875H10.25C10.018 17.875 9.7954 17.9672 9.63131 18.1313C9.46721 18.2954 9.37502 18.5179 9.37502 18.75V19.7825C8.97968 19.6427 8.5566 19.5997 8.14121 19.657C7.72582 19.7143 7.3302 19.8703 6.98748 20.1119C6.64477 20.3536 6.36492 20.6738 6.17137 21.0457C5.97782 21.4177 5.8762 21.8307 5.87502 22.25V24.875C5.8762 25.2943 5.97782 25.7073 6.17137 26.0793C6.36492 26.4512 6.64477 26.7714 6.98748 27.0131C7.3302 27.2547 7.72582 27.4107 8.14121 27.468C8.5566 27.5253 8.97968 27.4823 9.37502 27.3425V28.375C9.37502 28.6071 9.46721 28.8296 9.63131 28.9937C9.7954 29.1578 10.018 29.25 10.25 29.25H14.1875V32.4263C13.7605 32.4594 13.3526 32.6176 13.015 32.8813L11.4663 34.1237H5.87502C5.82513 33.4276 5.50072 32.7797 4.97315 32.3227C4.44559 31.8657 3.75809 31.637 3.0619 31.6869C2.36571 31.7368 1.71785 32.0612 1.26084 32.5887C0.803842 33.1163 0.57513 33.8038 0.625024 34.5V45C0.625024 45.6962 0.901586 46.3639 1.39387 46.8562C1.88615 47.3484 2.55383 47.625 3.25002 47.625C3.94622 47.625 4.6139 47.3484 5.10618 46.8562C5.59846 46.3639 5.87502 45.6962 5.87502 45H9.37502C9.85627 45 9.87377 45 10.005 45.28C10.005 45.3675 10.0925 45.455 10.1625 45.5775C10.3651 45.8801 10.6382 46.129 10.9583 46.3028C11.2784 46.4765 11.6359 46.57 12 46.575H17.9675C18.5746 46.578 19.1632 46.3662 19.6291 45.9771C20.0951 45.588 20.4085 45.0466 20.5138 44.4487L21.625 39.12C22.0162 38.2369 22.0722 37.2414 21.7825 36.32C21.6125 35.8157 21.3416 35.3512 20.9863 34.955L20.6275 33.8875C20.5339 33.6039 20.382 33.3429 20.1816 33.1214C19.9811 32.8999 19.7367 32.7227 19.4638 32.6012V29.25H23.0775L28.625 33.9575V45.875C28.625 46.3391 28.8094 46.7842 29.1376 47.1124C29.4658 47.4406 29.9109 47.625 30.375 47.625H49.625C50.0892 47.625 50.5343 47.4406 50.8625 47.1124C51.1907 46.7842 51.375 46.3391 51.375 45.875V33.625C51.375 33.1609 51.1907 32.7158 50.8625 32.3876C50.5343 32.0594 50.0892 31.875 49.625 31.875ZM9.37502 24.875C9.37502 25.1071 9.28284 25.3296 9.11874 25.4937C8.95465 25.6578 8.73209 25.75 8.50002 25.75C8.26796 25.75 8.0454 25.6578 7.88131 25.4937C7.71721 25.3296 7.62502 25.1071 7.62502 24.875V22.25C7.62502 22.0179 7.71721 21.7954 7.88131 21.6313C8.0454 21.4672 8.26796 21.375 8.50002 21.375C8.73209 21.375 8.95465 21.4672 9.11874 21.6313C9.28284 21.7954 9.37502 22.0179 9.37502 22.25V24.875ZM4.12502 34.99V45C4.12502 45.2321 4.03284 45.4546 3.86874 45.6187C3.70465 45.7828 3.48209 45.875 3.25002 45.875C3.01796 45.875 2.7954 45.7828 2.63131 45.6187C2.46721 45.4546 2.37502 45.2321 2.37502 45V34.5C2.37502 34.2679 2.46721 34.0454 2.63131 33.8813C2.7954 33.7172 3.01796 33.625 3.25002 33.625C3.48209 33.625 3.70465 33.7172 3.86874 33.8813C4.03284 34.0454 4.12502 34.2679 4.12502 34.5V34.99ZM19.945 15.0312C19.7812 14.8266 19.5735 14.6614 19.3372 14.5478C19.1009 14.4342 18.8422 14.3752 18.58 14.375H2.37502V2.125H21.625V17.1313L19.945 15.0312ZM19.5775 36.0312C19.8181 36.2767 19.9952 36.577 20.0938 36.9062C20.2537 37.4396 20.21 38.0133 19.9713 38.5163C19.9417 38.5802 19.9211 38.6479 19.91 38.7175L18.8163 44.125C18.7773 44.3169 18.675 44.4901 18.5259 44.617C18.3768 44.744 18.1894 44.8172 17.9938 44.825H12C11.9262 44.8254 11.8531 44.809 11.7865 44.7772C11.7198 44.7454 11.6612 44.6989 11.615 44.6413L11.5363 44.4925C11.356 44.0817 11.0489 43.7394 10.66 43.5159C10.271 43.2923 9.82074 43.1991 9.37502 43.25H5.87502V35.865H11.7725C11.9699 35.8639 12.1611 35.796 12.315 35.6725L14.1088 34.2375C14.1824 34.183 14.271 34.1524 14.3625 34.15H18.5538C18.6402 34.1505 18.7245 34.1776 18.7949 34.2277C18.8654 34.2778 18.9187 34.3485 18.9475 34.43L19.3588 35.69C19.405 35.8214 19.4797 35.9409 19.5775 36.04V36.0312ZM15.9375 32.3125V29.25H17.6875V32.3125H15.9375ZM22.5 27.5H11.125V19.625H22.5V27.5ZM35.625 9.125C35.625 8.89294 35.7172 8.67038 35.8813 8.50628C36.0454 8.34219 36.268 8.25 36.5 8.25C36.6164 8.25162 36.7313 8.27644 36.838 8.32302C36.9447 8.3696 37.041 8.43699 37.1213 8.52125C37.2031 8.59882 37.2679 8.69254 37.3116 8.79647C37.3553 8.9004 37.3769 9.01228 37.375 9.125V31.875H35.625V9.125ZM29.7975 29.25C29.4602 29.3678 29.167 29.5861 28.9574 29.8755C28.7478 30.1649 28.6318 30.5115 28.625 30.8687V31.665L24.25 27.9725V19.1525L33.875 11.015V31.875H33.42L31.74 29.775C31.5096 29.4983 31.1994 29.2993 30.8518 29.2054C30.5041 29.1114 30.136 29.127 29.7975 29.25ZM30.375 45.875V30.8687L32.055 32.9688C32.2189 33.1734 32.4266 33.3386 32.6629 33.4522C32.8991 33.5658 33.1579 33.6248 33.42 33.625H49.625V45.875H30.375Z" fill="#2F2F2F"/>
<path d="M17.25 4.75H5.875C5.64294 4.75 5.42038 4.84219 5.25628 5.00628C5.09219 5.17038 5 5.39294 5 5.625C5 5.85706 5.09219 6.07962 5.25628 6.24372C5.42038 6.40781 5.64294 6.5 5.875 6.5H17.25C17.4821 6.5 17.7046 6.40781 17.8687 6.24372C18.0328 6.07962 18.125 5.85706 18.125 5.625C18.125 5.39294 18.0328 5.17038 17.8687 5.00628C17.7046 4.84219 17.4821 4.75 17.25 4.75Z" fill="#2F2F2F"/>
<path d="M17.25 9.125H5.875C5.64294 9.125 5.42038 9.21719 5.25628 9.38128C5.09219 9.54538 5 9.76794 5 10C5 10.2321 5.09219 10.4546 5.25628 10.6187C5.42038 10.7828 5.64294 10.875 5.875 10.875H17.25C17.4821 10.875 17.7046 10.7828 17.8687 10.6187C18.0328 10.4546 18.125 10.2321 18.125 10C18.125 9.76794 18.0328 9.54538 17.8687 9.38128C17.7046 9.21719 17.4821 9.125 17.25 9.125Z" fill="#2F2F2F"/>
<path d="M46.125 37.125H34.75C34.518 37.125 34.2954 37.2172 34.1313 37.3813C33.9672 37.5454 33.875 37.7679 33.875 38C33.875 38.2321 33.9672 38.4546 34.1313 38.6187C34.2954 38.7828 34.518 38.875 34.75 38.875H46.125C46.3571 38.875 46.5797 38.7828 46.7437 38.6187C46.9078 38.4546 47 38.2321 47 38C47 37.7679 46.9078 37.5454 46.7437 37.3813C46.5797 37.2172 46.3571 37.125 46.125 37.125Z" fill="#2F2F2F"/>
<path d="M46.125 41.5H34.75C34.518 41.5 34.2954 41.5922 34.1313 41.7563C33.9672 41.9204 33.875 42.1429 33.875 42.375C33.875 42.6071 33.9672 42.8296 34.1313 42.9937C34.2954 43.1578 34.518 43.25 34.75 43.25H46.125C46.3571 43.25 46.5797 43.1578 46.7437 42.9937C46.9078 42.8296 47 42.6071 47 42.375C47 42.1429 46.9078 41.9204 46.7437 41.7563C46.5797 41.5922 46.3571 41.5 46.125 41.5Z" fill="#2F2F2F"/>
<path d="M41.75 27.5C41.9821 27.5 42.2047 27.4078 42.3687 27.2437C42.5328 27.0796 42.625 26.8571 42.625 26.625V20.5C42.625 20.2679 42.5328 20.0454 42.3687 19.8813C42.2047 19.7172 41.9821 19.625 41.75 19.625C41.518 19.625 41.2954 19.7172 41.1313 19.8813C40.9672 20.0454 40.875 20.2679 40.875 20.5V26.625C40.875 26.8571 40.9672 27.0796 41.1313 27.2437C41.2954 27.4078 41.518 27.5 41.75 27.5Z" fill="#2F2F2F"/>
<path d="M45.25 29.6875C45.4821 29.6875 45.7047 29.5953 45.8687 29.4312C46.0328 29.2671 46.125 29.0446 46.125 28.8125V18.3125C46.125 18.0804 46.0328 17.8579 45.8687 17.6938C45.7047 17.5297 45.4821 17.4375 45.25 17.4375C45.018 17.4375 44.7954 17.5297 44.6313 17.6938C44.4672 17.8579 44.375 18.0804 44.375 18.3125V28.8125C44.375 29.0446 44.4672 29.2671 44.6313 29.4312C44.7954 29.5953 45.018 29.6875 45.25 29.6875Z" fill="#2F2F2F"/>
</svg>
