<svg width="38" height="38" viewBox="0 0 38 38" fill="none" xmlns="http://www.w3.org/2000/svg">
<path d="M23.4082 5.77539H32.2245V8.71417H23.4082V5.77539Z" fill="white"/>
<path d="M23.4082 10.6733H32.2245V12.6325H23.4082V10.6733Z" fill="white"/>
<path d="M35.069 2.98269C33.0333 1.02931 28.6282 0.877441 27.3266 0.877441C26.0249 0.877441 21.6198 1.02931 19.5841 2.98269C16.8461 5.60979 16.8461 12.849 19.5841 15.4763C19.9079 15.7868 20.3146 16.0683 20.7984 16.3168V20.4693L25.906 17.5287C26.7378 17.5867 27.419 17.581 27.4116 17.581C30.8329 17.581 33.6955 16.7941 35.069 15.4762C37.8069 12.849 37.8069 5.60979 35.069 2.98269V2.98269ZM33.5304 13.9998C32.5849 14.9069 30.1831 15.4931 27.4113 15.493C26.3435 15.493 25.6045 15.4056 25.3905 15.3905L22.9746 16.7814V14.9606L22.3051 14.6929C21.7895 14.4868 21.3807 14.2471 21.1228 13.9997C20.2649 13.1764 19.7104 11.304 19.7104 9.22938C19.7104 7.15469 20.2649 5.28225 21.1228 4.45903C22.0539 3.56558 24.547 2.96536 27.3266 2.96536C30.1062 2.96536 32.5992 3.56558 33.5304 4.45903C34.3883 5.28225 34.9427 7.15476 34.9427 9.22938C34.9426 11.3041 34.3883 13.1765 33.5304 13.9998Z" fill="white"/>
<path d="M26.6334 21.9372C26.5372 22.0335 27.4341 21.1366 21.6382 26.9325C20.0834 26.8134 17.2705 24.6547 15.3081 22.6923C13.3455 20.7297 11.1868 17.9167 11.068 16.362L16.0632 11.3668L8.51292 3.81641L3.98275 8.34664L2.23888 10.0905C1.68478 10.6447 1.29078 11.3268 1.09943 12.0633C0.515368 14.312 1.08164 16.766 2.83064 19.5655C4.23489 21.8132 6.45306 24.4076 10.023 27.9775C13.5928 31.5475 16.1872 33.7657 18.4348 35.1699C20.7244 36.6005 23.3122 37.583 25.9368 36.9012C26.6732 36.7099 27.3555 36.3159 27.9097 35.7617C27.9231 35.7483 34.1727 29.4985 34.1837 29.4876L26.6334 21.9372ZM26.6334 24.9573L31.1636 29.4876L29.6535 30.9976L25.1233 26.4675L26.6334 24.9573ZM8.51292 6.83652L13.0431 11.3668L11.5331 12.8769L7.00296 8.34664L8.51292 6.83652ZM26.3997 34.2516C26.1142 34.537 25.7686 34.7385 25.4 34.8342C23.7267 35.2689 21.8731 34.7999 19.5663 33.3588C17.4614 32.0436 14.9839 29.9183 11.533 26.4674C8.08211 23.0164 5.95684 20.5388 4.64178 18.4339C3.20058 16.1271 2.73176 14.2733 3.16634 12.6002C3.26208 12.2316 3.46354 11.8858 3.74891 11.6005L5.49278 9.85663L10.023 14.3869L9.54538 14.8644C9.11756 15.2923 8.89546 15.884 8.93604 16.4878C9.12646 19.3249 12.7056 23.1098 13.798 24.2023C14.8904 25.2947 18.6751 28.8739 21.5124 29.0645C22.1161 29.1047 22.7076 28.8833 23.1357 28.4551L23.6133 27.9776L28.1435 32.5077L26.3997 34.2516Z" fill="white"/>
</svg>
