<svg width="48" height="39" viewBox="0 0 48 39" fill="none" xmlns="http://www.w3.org/2000/svg">
<path d="M42.51 17.21C42.54 17.24 42.53 17.23 42.51 17.21V17.21Z" fill="white"/>
<path d="M42.51 17.2099C42.53 17.2299 42.54 17.2399 42.51 17.2099V17.2099ZM22.49 35.3299C22.71 35.1399 22.84 34.8599 22.84 34.5699C22.84 34.0199 22.39 33.5699 21.84 33.5699C21.39 33.5699 21.41 33.6299 19.67 35.0899V35.1199C19.25 35.4899 19.2 36.1299 19.57 36.5499C19.94 36.9699 20.58 37.0199 21 36.6499L22.49 35.3299ZM26.99 35.2199C22.52 31.6699 25.8 33.2599 24.59 35.8399L25.67 36.7399L25.63 36.7699C26.06 37.1499 26.71 37.0999 27.08 36.6699C27.46 36.2499 27.42 35.5999 26.99 35.2199V35.2199ZM45.64 14.6699L36 3.17994L32.9 5.71995C40.01 14.1999 41.95 16.5299 42.41 17.0799C42.41 17.0899 42.42 17.0899 42.43 17.0999C42.45 17.1099 42.48 17.1499 42.54 17.2099L45.64 14.6699ZM36.44 24.9999C37.08 24.5599 37.52 23.8799 37.67 23.1199C38.69 18.6699 38.22 19.5599 40.35 17.7999L32 7.79995C29.84 9.60995 30.78 9.26995 26.21 9.51995C25.59 9.55995 25 9.78994 24.51 10.1699C17.66 15.9199 17.66 15.6199 17.66 16.6199C17.67 17.3899 18.25 18.0299 19.02 18.1099C19.85 18.1799 19.58 18.2199 25.1 13.5799C25.53 13.2299 26.16 13.2799 26.51 13.7099C26.86 14.1399 26.81 14.7699 26.38 15.1199L25.55 15.8199C29 18.7299 33 21.9999 36.44 24.9999V24.9999ZM15.11 5.74995L12.05 3.17994L2.41 14.6699L5.47 17.2399C5.5 17.1999 5.53 17.1699 5.55 17.1599C5.58 17.1299 5.59 17.1199 5.59 17.1199C6.02 16.6099 7.91 14.3399 15.11 5.74995V5.74995ZM13.23 27.4499C13.45 27.2599 13.58 26.9899 13.58 26.6999C13.59 26.1499 13.14 25.6999 12.59 25.6899C12.08 25.6899 11.89 25.9699 10.42 27.2099C10.18 27.3899 10.04 27.6699 10.03 27.9699C10.02 28.5199 10.45 28.9799 11 28.9999C11.5 28.9999 11.58 28.8499 13.23 27.4499ZM17.34 36.4299C15.76 36.6399 14.29 35.5699 14 33.9999C13.87 34.0099 13.74 34.0199 13.61 34.0099C11.96 33.9699 10.65 32.5899 10.7 30.9299C9.89 30.8199 9.16 30.3699 8.68 29.7099C7.71 28.3599 8.02 26.4799 9.37 25.5199C8.47 24.3699 8.4 23.4299 7.69 20.3699L6.41 19.2899C6.05 19.7199 5.42 19.7699 5 19.4199L0.360002 15.5599C-0.0699981 15.1999 -0.119998 14.5699 0.230002 14.1499L11.16 1.12995C11.52 0.699945 12.15 0.649945 12.57 0.999945L17.17 4.85994C17.59 5.21994 17.65 5.84995 17.29 6.26995L18.56 7.34995C22.1 7.52995 22.78 7.44995 24.01 8.11995C25.32 7.40995 26.44 7.50995 29.44 7.33995L30.71 6.26995C30.35 5.84995 30.41 5.21994 30.83 4.85994L35.43 0.999945C35.86 0.649945 36.49 0.719945 36.84 1.14995L47.77 14.1499C48.14 14.5599 48.1 15.1899 47.69 15.5599C42.81 19.6499 42.93 19.6999 42.37 19.6499C41.21 19.5499 42.37 18.6699 40.37 20.3699C39.63 23.5399 39.56 24.9299 38 26.2599C38.4 26.5399 38.73 26.9199 38.95 27.3599C39.7 28.8399 39.11 30.6399 37.63 31.3899C38.34 32.4699 38.28 33.8899 37.47 34.8999C36.45 36.1999 34.56 36.4199 33.26 35.3899C32.94 35.1599 33.29 35.3399 32.6 36.1599C31.73 37.1799 30.28 37.4999 29.06 36.9399C28.65 38.1799 27.49 39.0099 26.18 38.9999C24.9 38.9999 24.18 38.2099 23.18 37.3599C22.03 38.3199 21.49 38.8799 20.27 38.8799C18.83 38.8699 17.6 37.8399 17.34 36.4299V36.4299ZM15.81 30.5299C16.17 30.1799 16.22 29.6299 15.93 29.2299C15.73 28.9599 15.42 28.8099 15.11 28.8099C14.91 28.8099 14.71 28.8699 14.53 28.9999L13 30.2699C12.82 30.4299 12.71 30.6499 12.68 30.8799C12.61 31.4299 13 31.9299 13.55 31.9999C14.1 32.0899 14.3 31.7899 15.81 30.5299V30.5299ZM15.56 26.7899C16.84 26.9599 17.86 27.9399 18.07 29.2099C19.65 28.9999 21.12 30.0599 21.41 31.6299C21.86 31.5699 22.31 31.6099 22.74 31.7499C21.35 30.5899 22.89 29.2699 23.82 30.0499C30.32 35.4999 29.9 35.2699 30.43 35.2199C30.7 35.1999 30.94 35.0699 31.12 34.8699C31.47 34.4499 31.42 33.8199 31 33.4599L24.78 28.1599C24.42 27.8099 24.37 27.2599 24.66 26.8599C24.99 26.4099 25.61 26.3099 26.06 26.6299C34.76 33.9299 32.24 31.8199 34.64 33.8199C34.68 33.8599 34.73 33.8999 34.78 33.9299C35.25 34.2199 35.87 34.0799 36.16 33.6099C36.45 33.1399 36.31 32.5199 35.84 32.2299L27.67 25.3599C27.31 25.0099 27.26 24.4599 27.55 24.0599C27.88 23.6099 28.5 23.5099 28.95 23.8299L35.67 29.4699L35.64 29.4999C35.66 29.5199 35.69 29.5399 35.71 29.5499C36.16 29.8699 36.79 29.7599 37.1 29.2999C37.42 28.8499 37.3 28.2199 36.85 27.9099C27.28 19.8599 35.83 26.9999 23.99 17.0999C21.54 19.1799 20.71 20.2699 18.84 20.0999C17.04 19.9299 15.67 18.4299 15.66 16.6199C15.66 14.4499 16.93 13.9099 22.12 9.55995C21.76 9.49995 21.99 9.52994 18.46 9.33994C17.66 9.29994 17.4 8.97995 16 7.79995L7.65 17.7599L8.89 18.8399C10.04 19.7799 9.84 22.8399 10.84 24.2599C11.36 23.8899 11.99 23.6999 12.63 23.7199C14.29 23.7599 15.6 25.1299 15.56 26.7899V26.7899ZM17.1 32.0199L16.33 32.6699C16.13 32.8399 16 33.0799 15.98 33.3499C15.93 33.8999 16.34 34.3799 16.89 34.4299V34.4599C16.93 34.4599 16.97 34.4699 17.01 34.4699C17.46 34.4699 17.68 34.1599 19.15 32.9099C19.57 32.5499 19.63 31.9199 19.27 31.4999C18.91 31.0799 18.28 31.0199 17.86 31.3799L17.1 32.0199Z" fill="white"/>
</svg>
