<svg width="48" height="34" viewBox="0 0 48 34" fill="none" xmlns="http://www.w3.org/2000/svg">
<path d="M14.7969 5.09912C19.396 5.09912 23.0952 8.79835 23.0952 13.3974C23.0952 17.8965 19.396 21.6957 14.7969 21.6957C10.1979 21.6957 6.49866 17.8965 6.49866 13.3974C6.49866 8.79835 10.1979 5.09912 14.7969 5.09912ZM14.7969 7.99852C11.7976 7.99852 9.39805 10.398 9.39805 13.3974C9.39805 16.3968 11.7976 18.7963 14.7969 18.7963C17.7963 18.7963 20.1958 16.3968 20.1958 13.3974C20.1958 10.398 17.7963 7.99852 14.7969 7.99852Z" fill="white"/>
<path d="M2.59948 32.7929C2.19956 33.4928 1.29975 33.6927 0.699875 33.1928C2.11758e-05 32.7929 -0.199937 31.8931 0.199979 31.1933C3.49929 26.2943 8.89816 23.2949 14.7969 23.2949C20.6957 23.2949 26.1946 26.2943 29.3939 31.1933C29.7938 31.8931 29.5938 32.7929 28.994 33.1928C28.2941 33.6927 27.3943 33.4928 26.9944 32.7929C24.295 28.6938 19.6959 26.1943 14.7969 26.1943C9.89796 26.1943 5.29892 28.6938 2.59948 32.7929Z" fill="white"/>
<path d="M33.1931 0C37.7921 0 41.4914 3.69923 41.4914 8.29827C41.4914 12.8973 37.7921 16.5965 33.1931 16.5965C28.5941 16.5965 24.8948 12.7973 24.8948 8.29827C24.8948 3.69923 28.5941 0 33.1931 0ZM33.1931 2.8994C30.1937 2.8994 27.7942 5.2989 27.7942 8.29827C27.7942 11.2976 30.1937 13.6971 33.1931 13.6971C36.1925 13.6971 38.592 11.2976 38.592 8.29827C38.592 5.2989 36.1925 2.8994 33.1931 2.8994Z" fill="white"/>
<path d="M25.3947 23.3952C24.7948 23.7951 23.895 23.5952 23.4951 22.8953C22.9952 22.2954 23.1952 21.3956 23.895 20.8957C26.6944 19.1961 29.8938 18.1963 33.1931 18.1963C39.0919 18.1963 44.5907 21.1957 47.79 26.0946C48.19 26.7945 47.99 27.6943 47.3901 28.0942C46.6903 28.5941 45.7905 28.3942 45.3905 27.6943C42.6911 23.5952 38.0921 21.0957 33.1931 21.0957C30.3937 21.0957 27.7942 21.8955 25.3947 23.3952Z" fill="white"/>
</svg>
