<svg width="170" height="38" viewBox="0 0 170 38" fill="none" xmlns="http://www.w3.org/2000/svg">
<g clip-path="url(#clip0_69_819)">
<path d="M5.31356 32.4229H32.4567V5.31356H5.31356V32.4229ZM37.8041 37.8041H0V0H37.8041V37.8041Z" fill="white"/>
<path d="M21.525 14.2146C20.9496 13.707 20.1374 13.4701 19.0205 13.4701H16.0084V19.0882H19.0205C20.1374 19.0882 20.9835 18.8513 21.525 18.3775C21.8296 18.1067 22.0326 17.8021 22.2019 17.4298C22.3711 17.0576 22.4049 16.6853 22.4049 16.313C22.4388 15.9068 22.3711 15.5346 22.2019 15.1623C22.0326 14.79 21.7957 14.4854 21.525 14.2146ZM18.9528 23.2511H16.0084V28.3277H10.5933V9.20567H19.3251C20.8819 9.17183 22.4049 9.47643 23.8264 10.0518C25.0448 10.5594 26.094 11.4394 26.8047 12.5563C27.5154 13.6731 27.8877 14.993 27.82 16.313C27.8539 17.5991 27.5154 18.8513 26.8385 19.9343C26.1616 20.9835 25.214 21.8296 24.0633 22.3711L28.1923 28.3616H22.4388L18.9528 23.2511Z" fill="white"/>
<path d="M57.4676 24.0634V28.1924H42.2715V9.27344H57.1292V13.4024H47.6189V16.5838H56.0462V20.6451H47.5513V24.0972L57.4676 24.0634Z" fill="white"/>
<path d="M77.5711 28.1924V18.1406L72.6637 26.331H70.2946L65.4549 18.4452V28.1924H60.4459V9.27344H64.8795L71.513 20.2052L78.0111 9.27344H82.4447V28.1924H77.5711Z" fill="white"/>
<path d="M97.4039 20.6451L94.9671 14.5532L92.598 20.6113H97.4039V20.6451ZM98.9608 24.5372H90.9397L89.4505 28.2263H84.0016L92.3273 9.27344H97.607L106 28.2263H100.484L98.9608 24.5372Z" fill="white"/>
<path d="M118.387 14.2145C117.677 13.673 116.797 13.4361 115.917 13.5037H112.939V19.0542H115.917C116.797 19.1219 117.677 18.8511 118.387 18.3435C118.658 18.0727 118.895 17.7681 119.03 17.4297C119.166 17.0912 119.234 16.6851 119.2 16.3128C119.234 15.9405 119.166 15.5344 119.03 15.196C118.895 14.7898 118.658 14.4514 118.387 14.2145ZM115.815 23.1494H112.905V28.1922H107.557V9.23936H116.221C117.744 9.20552 119.267 9.51012 120.689 10.0855C121.907 10.5931 122.923 11.4392 123.633 12.5561C124.344 13.673 124.682 14.9591 124.649 16.2451C124.682 17.4974 124.378 18.7158 123.701 19.7649C123.024 20.8141 122.076 21.6602 120.96 22.1679L125.055 28.1245H119.335L115.815 23.1494Z" fill="white"/>
<path d="M134.903 21.322L132.873 23.4542V28.2263H127.559V9.27344H132.873V17.1253L140.217 9.27344H146.174L138.389 17.633L146.512 28.1924H140.319L134.903 21.322Z" fill="white"/>
<path d="M161.437 20.6451L159.068 14.5532L156.699 20.6113H161.437V20.6451ZM163.062 24.5372H155.041L153.518 28.2263H148.035L156.361 9.27344H161.64L169.966 28.2263H164.483L163.062 24.5372Z" fill="white"/>
<path d="M130.808 35.4349C131.045 35.4349 131.248 35.3672 131.417 35.2657C131.587 35.1641 131.722 34.9949 131.79 34.7918V34.318H130.842C130.301 34.318 130.03 34.4872 130.03 34.8595C130.03 35.0287 130.098 35.1641 130.233 35.2657C130.368 35.3672 130.571 35.4349 130.808 35.4349ZM130.91 32.0166C131.485 32.0166 131.959 32.152 132.264 32.4566C132.568 32.7273 132.737 33.1673 132.737 33.7427V36.0779H131.857V35.6041C131.756 35.7733 131.587 35.9087 131.35 36.0102C131.147 36.1118 130.876 36.1456 130.571 36.1456C130.267 36.1456 129.996 36.1118 129.793 36.0102C129.556 35.9087 129.387 35.7733 129.285 35.5703C129.15 35.401 129.116 35.1641 129.116 34.9611C129.116 34.5888 129.251 34.318 129.522 34.115C129.793 33.9119 130.199 33.7765 130.774 33.7765H131.79V33.7088C131.79 33.4381 131.688 33.2012 131.519 33.0658C131.35 32.9304 131.113 32.8289 130.774 32.8289C130.538 32.8289 130.334 32.8627 130.098 32.9304C129.894 32.9981 129.691 33.0996 129.556 33.235L129.184 32.5581C129.387 32.3889 129.658 32.2874 129.928 32.1858C130.199 32.0843 130.605 32.0166 130.91 32.0166ZM128.168 32.0504V36.0441H127.255V32.8289H125.765L125.732 33.6073C125.698 34.1488 125.664 34.5888 125.596 34.9272C125.529 35.2657 125.393 35.5703 125.224 35.7733C125.055 35.9764 124.818 36.0779 124.513 36.0779C124.378 36.0779 124.209 36.0441 124.006 36.0102L124.039 35.2318C124.107 35.2318 124.175 35.2657 124.209 35.2657C124.412 35.2657 124.547 35.198 124.649 35.0287C124.75 34.8595 124.818 34.6903 124.818 34.4872C124.852 34.2842 124.886 33.9796 124.886 33.5734L124.953 32.0504H128.168ZM121.603 34.4534H120.892V36.0441H119.944V32.0504H120.892V33.675H121.636L122.821 32.0504H123.836L122.381 33.9796L123.938 36.0441H122.855L121.603 34.4534ZM114.698 32.0504H115.646V34.6903L117.846 32.0504H118.692V36.0441H117.744V33.4042L115.544 36.0441H114.698V32.0504ZM113.852 35.2657V36.9917H112.972V36.0779H109.453V32.0504H110.4V35.2657H112.295V32.0504H113.243V35.2657H113.852ZM104.376 35.2995C104.714 35.2995 105.019 35.198 105.222 34.9611C105.459 34.7241 105.56 34.4195 105.56 34.0473C105.56 33.675 105.459 33.3704 105.222 33.1335C104.985 32.8966 104.714 32.795 104.376 32.795C104.037 32.795 103.733 32.8966 103.53 33.1335C103.327 33.3704 103.191 33.675 103.191 34.0473C103.191 34.4195 103.293 34.7241 103.53 34.9611C103.733 35.198 104.037 35.2995 104.376 35.2995ZM104.376 36.1118C103.97 36.1118 103.597 36.0102 103.293 35.841C102.954 35.6718 102.717 35.4349 102.514 35.1303C102.345 34.8257 102.244 34.4534 102.244 34.0811C102.244 33.675 102.345 33.3365 102.514 33.0319C102.684 32.7273 102.954 32.4904 103.293 32.3212C103.631 32.152 103.97 32.0504 104.376 32.0504C104.782 32.0504 105.154 32.152 105.459 32.3212C105.797 32.4904 106.034 32.7273 106.203 33.0319C106.373 33.3365 106.474 33.7088 106.474 34.0811C106.474 34.4872 106.373 34.8257 106.203 35.1303C106.034 35.4349 105.763 35.6718 105.459 35.841C105.154 36.0102 104.782 36.1118 104.376 36.1118ZM102.074 32.8627H99.9423V36.0779H98.9946V32.0504H102.074V32.8627ZM95.9486 35.2995C96.2871 35.2995 96.5917 35.198 96.7947 34.9611C96.9978 34.7241 97.1332 34.4195 97.1332 34.0473C97.1332 33.675 97.0316 33.3704 96.7947 33.1335C96.5578 32.8966 96.2871 32.795 95.9486 32.795C95.6102 32.795 95.3056 32.8966 95.1025 33.1335C94.8995 33.3704 94.7641 33.675 94.7641 34.0473C94.7641 34.4195 94.8656 34.7241 95.1025 34.9611C95.3394 35.198 95.6102 35.2995 95.9486 35.2995ZM95.9486 36.1118C95.5425 36.1118 95.1702 36.0102 94.8656 35.841C94.5272 35.6718 94.2903 35.4349 94.0872 35.1303C93.918 34.8257 93.8164 34.4534 93.8164 34.0811C93.8164 33.675 93.918 33.3365 94.0872 33.0319C94.2564 32.7273 94.5272 32.4904 94.8656 32.3212C95.204 32.152 95.5425 32.0504 95.9486 32.0504C96.3548 32.0504 96.7271 32.152 97.0317 32.3212C97.3701 32.4904 97.607 32.7273 97.7762 33.0319C97.9454 33.3365 98.047 33.7088 98.047 34.0811C98.047 34.4872 97.9454 34.8257 97.7762 35.1303C97.607 35.4349 97.3362 35.6718 97.0317 35.841C96.7271 36.0102 96.3886 36.1118 95.9486 36.1118ZM89.0444 32.0504H89.992V33.675H91.9888V32.0504H92.9365V36.0441H91.9888V34.4534H89.992V36.0441H89.0444V32.0504ZM87.7921 32.0504V36.0441H86.8445V32.8289H85.3554L85.3215 33.6073C85.2877 34.1488 85.2538 34.5888 85.1861 34.9272C85.1184 35.2657 84.9831 35.5703 84.8139 35.7733C84.6446 35.9764 84.4077 36.0779 84.1031 36.0779C83.9677 36.0779 83.7985 36.0441 83.5955 36.0102L83.6293 35.2318C83.697 35.2318 83.7647 35.2657 83.7985 35.2657C84.0016 35.2657 84.137 35.198 84.2385 35.0287C84.34 34.8595 84.4077 34.6903 84.4077 34.4872C84.4416 34.2842 84.4754 33.9796 84.4754 33.5734L84.5431 32.0504H87.7921ZM81.1587 35.2995C81.4971 35.2995 81.8017 35.198 82.0048 34.9611C82.2078 34.7241 82.3432 34.4195 82.3432 34.0473C82.3432 33.675 82.2417 33.3704 82.0048 33.1335C81.7679 32.8966 81.4971 32.795 81.1587 32.795C80.8202 32.795 80.5156 32.8966 80.3126 33.1335C80.1095 33.3704 79.9741 33.675 79.9741 34.0473C79.9741 34.4195 80.0756 34.7241 80.3126 34.9611C80.5495 35.198 80.8202 35.2995 81.1587 35.2995ZM81.1587 36.1118C80.7525 36.1118 80.3802 36.0102 80.0756 35.841C79.771 35.6718 79.5003 35.4349 79.2972 35.1303C79.128 34.8257 79.0265 34.4534 79.0265 34.0811C79.0265 33.675 79.128 33.3365 79.2972 33.0319C79.4664 32.7273 79.7372 32.4904 80.0756 32.3212C80.4141 32.152 80.7525 32.0504 81.1587 32.0504C81.5648 32.0504 81.9371 32.152 82.2417 32.3212C82.5463 32.4904 82.817 32.7273 82.9863 33.0319C83.1555 33.3365 83.257 33.7088 83.257 34.0811C83.257 34.4872 83.1555 34.8257 82.9863 35.1303C82.817 35.4349 82.5463 35.6718 82.2417 35.841C81.9371 36.0102 81.5648 36.1118 81.1587 36.1118ZM78.1465 32.0504V36.0441H77.2327V32.8289H75.2697V36.0441H74.3221V32.0504H78.1465ZM71.5807 32.8627H70.1931V36.0779H69.2455V32.8627H67.824V32.0843H71.5469V32.8627H71.5807ZM63.2889 32.0504H64.2365V33.675H66.2333V32.0504H67.181V36.0441H66.2333V34.4534H64.2365V36.0441H63.2889V32.0504ZM60.209 35.2995C60.5475 35.2995 60.8521 35.198 61.0551 34.9611C61.2582 34.7241 61.3936 34.4195 61.3936 34.0473C61.3936 33.675 61.292 33.3704 61.0551 33.1335C60.8182 32.8966 60.5475 32.795 60.209 32.795C59.8706 32.795 59.566 32.8966 59.3629 33.1335C59.1599 33.3704 59.0245 33.675 59.0245 34.0473C59.0245 34.4195 59.126 34.7241 59.3629 34.9611C59.5998 35.198 59.8706 35.2995 60.209 35.2995ZM60.209 36.1118C59.8029 36.1118 59.4306 36.0102 59.126 35.841C58.8214 35.6718 58.5507 35.4349 58.3476 35.1303C58.1784 34.8257 58.0768 34.4534 58.0768 34.0811C58.0768 33.675 58.1784 33.3365 58.3476 33.0319C58.5168 32.7273 58.7876 32.4904 59.126 32.3212C59.4645 32.152 59.8029 32.0504 60.209 32.0504C60.6152 32.0504 60.9875 32.152 61.2921 32.3212C61.5966 32.4904 61.8674 32.7273 62.0366 33.0319C62.2058 33.3365 62.3074 33.7088 62.3074 34.0811C62.3074 34.4872 62.2058 34.8257 62.0366 35.1303C61.8674 35.4349 61.5966 35.6718 61.2921 35.841C60.9875 36.0102 60.6152 36.1118 60.209 36.1118ZM56.3508 36.0441V33.4042L54.997 35.6379H54.5909L53.2709 33.4042V36.0441H52.4248V32.0504H53.4063L54.8278 34.5549L56.3169 32.0504H57.1969V36.0441H56.3508ZM49.3788 32.7612C49.0742 32.7612 48.8373 32.8627 48.6004 33.0319C48.3974 33.2012 48.262 33.4381 48.2281 33.7427H50.4957C50.4619 33.4381 50.3265 33.235 50.1234 33.0319C49.9542 32.8627 49.6834 32.7612 49.3788 32.7612ZM51.4095 34.0811C51.4095 34.1488 51.4095 34.2503 51.4095 34.3519H48.262C48.3297 34.6565 48.4651 34.8934 48.702 35.0626C48.9389 35.2318 49.2096 35.3333 49.5819 35.3333C50.0219 35.3333 50.3942 35.198 50.6649 34.8934L51.1726 35.4687C51.0034 35.6718 50.7665 35.841 50.4957 35.9425C50.225 36.0441 49.9204 36.1118 49.5819 36.1118C49.1419 36.1118 48.7697 36.0102 48.4312 35.841C48.0928 35.6718 47.822 35.4349 47.6528 35.1303C47.4836 34.8257 47.382 34.4534 47.382 34.0811C47.382 33.7088 47.4836 33.3365 47.6528 33.0319C47.822 32.7273 48.0928 32.4904 48.3974 32.2874C48.702 32.0843 49.0743 32.0166 49.4465 32.0166C49.8188 32.0166 50.1911 32.1181 50.4957 32.2874C50.8003 32.4566 51.0372 32.6935 51.2064 32.9981C51.308 33.3027 51.4095 33.675 51.4095 34.0811ZM44.6068 35.2995C44.9452 35.2995 45.216 35.198 45.4529 34.9611C45.6898 34.7241 45.7914 34.4195 45.7914 34.0473C45.7914 33.675 45.6898 33.3704 45.4529 33.1335C45.2498 32.8966 44.9452 32.795 44.6068 32.795C44.3699 32.795 44.1668 32.8627 43.9976 32.9642C43.8284 33.0658 43.693 33.2012 43.5576 33.4042C43.4561 33.6073 43.3884 33.8104 43.3884 34.0473C43.3884 34.2842 43.4561 34.5211 43.5576 34.6903C43.6592 34.8595 43.7945 35.0287 43.9976 35.1303C44.1668 35.2657 44.3699 35.2995 44.6068 35.2995ZM44.7083 32.0166C45.0806 32.0166 45.4529 32.1181 45.7575 32.2874C46.0621 32.4566 46.299 32.6935 46.4682 32.9981C46.6375 33.3027 46.739 33.675 46.739 34.0811C46.739 34.4872 46.6375 34.8595 46.4682 35.1641C46.299 35.4687 46.0621 35.7056 45.7575 35.8749C45.4529 36.0441 45.1145 36.1456 44.7083 36.1456C44.1668 36.1456 43.7607 35.9764 43.4223 35.6041V37.5332H42.4746V32.0504H43.3546V32.5581C43.5238 32.355 43.693 32.2197 43.9299 32.1181C44.1668 32.0504 44.4376 32.0166 44.7083 32.0166Z" fill="white"/>
</g>
<defs>
<clipPath id="clip0_69_819">
<rect width="170" height="37.8041" fill="white"/>
</clipPath>
</defs>
</svg>
