<svg width="289" height="313" viewBox="0 0 289 313" fill="none" xmlns="http://www.w3.org/2000/svg">
<path d="M14.9526 147.193C13.2799 145.521 13.28 142.813 14.9526 141.14L13.6782 139.866C11.2887 142.255 11.2887 146.078 13.6782 148.468L14.9526 147.193ZM52.7067 184.948L14.9526 147.193L13.6782 148.468L51.4324 186.222L52.7067 184.948ZM58.7602 184.948C57.0875 186.62 54.3794 186.62 52.7067 184.948L51.4324 186.222C53.8219 188.612 57.6451 188.612 60.0346 186.222L58.7602 184.948ZM183.333 60.3747L58.7602 184.948L60.0346 186.222L184.607 61.6491L183.333 60.3747ZM183.333 54.3214C185.006 55.9941 185.006 58.7021 183.333 60.3747L184.607 61.6491C186.997 59.2597 186.997 55.4365 184.607 53.047L183.333 54.3214ZM145.579 16.5672L183.333 54.3214L184.607 53.047L146.853 15.2928L145.579 16.5672ZM139.525 16.5672C141.198 14.8945 143.906 14.8946 145.579 16.5672L146.853 15.2928C144.464 12.9033 140.641 12.9033 138.251 15.2928L139.525 16.5672ZM14.9526 141.14L139.525 16.5672L138.251 15.2928L13.6782 139.866L14.9526 141.14Z" fill="#D7D7D7"/>
<path d="M149.402 159.619L169.872 180.089L171.146 178.815L150.676 158.344L149.402 159.619ZM147.65 155.796C147.809 157.229 148.367 158.583 149.402 159.619L150.676 158.344C149.96 157.628 149.482 156.672 149.402 155.636L147.65 155.796ZM148.765 151.813C147.889 153.008 147.57 154.442 147.57 155.875L149.402 155.796C149.322 154.76 149.641 153.804 150.198 152.928L148.765 151.813ZM211.21 65.3131L148.765 151.813L150.278 152.849L212.724 66.3485L211.21 65.3131ZM212.007 62.4457C212.087 63.4811 211.768 64.437 211.21 65.3131L212.724 66.3485C213.6 65.1538 213.919 63.72 213.919 62.2863L212.007 62.4457ZM210.733 59.7375C211.449 60.4544 211.927 61.4102 212.007 62.4457L213.759 62.2864C213.6 60.8527 213.042 59.4986 212.007 58.4632L210.733 59.7375ZM180.864 29.8687L210.733 59.7375L212.007 58.4632L182.138 28.5943L180.864 29.8687ZM177.837 28.5943C178.952 28.5943 180.067 29.0722 180.864 29.8687L182.138 28.5943C181.023 27.4792 179.43 26.842 177.837 26.842L177.837 28.5943ZM174.81 29.8688C175.607 29.0723 176.722 28.5943 177.837 28.5943L177.837 26.842C176.244 26.842 174.651 27.4793 173.536 28.5944L174.81 29.8688ZM167.483 37.1965L174.81 29.8688L173.536 28.5944L166.208 35.9221L167.483 37.1965ZM169.872 180.089C170.191 180.408 170.828 180.408 171.146 180.089C171.465 179.77 171.465 179.133 171.146 178.815L169.872 180.089ZM150.039 158.982L150.676 158.344L150.039 158.982ZM149.561 152.291L150.278 152.849L149.561 152.291ZM211.927 65.8706L211.21 65.3131L211.927 65.8706ZM211.37 59.1004L210.733 59.7375L211.37 59.1004ZM166.208 35.9221C165.89 36.2407 165.89 36.878 166.208 37.1966C166.527 37.5152 167.164 37.5151 167.483 37.1965L166.208 35.9221Z" fill="#D7D7D7"/>
<path d="M171.146 193.948C167.323 190.125 167.323 183.912 171.146 180.089L169.872 178.815C165.332 183.355 165.332 190.682 169.872 195.223L171.146 193.948ZM216.706 239.508L171.146 193.948L169.872 195.223L215.432 240.782L216.706 239.508ZM230.565 239.508C226.742 243.331 220.53 243.331 216.706 239.508L215.432 240.782C219.972 245.322 227.3 245.322 231.84 240.782L230.565 239.508ZM230.565 225.649C234.389 229.472 234.389 235.685 230.565 239.508L231.84 240.782C236.38 236.242 236.38 228.915 231.84 224.374L230.565 225.649ZM185.006 180.089L230.565 225.649L231.84 224.374L186.28 178.815L185.006 180.089ZM171.146 180.089C174.97 176.266 181.182 176.266 185.006 180.089L186.28 178.815C181.74 174.275 174.412 174.275 169.872 178.815L171.146 180.089Z" fill="#D7D7D7"/>
<path d="M17.5811 165.911C17.5811 164.796 18.059 163.681 18.8555 162.884L17.5811 161.61C16.466 162.725 15.8288 164.318 15.8288 165.911L17.5811 165.911ZM18.8555 168.938C18.059 168.141 17.5811 167.026 17.5811 165.911L15.8288 165.911C15.8288 167.504 16.466 169.097 17.5811 170.212L18.8555 168.938ZM30.9623 181.045L18.8555 168.938L17.5811 170.212L29.6879 182.319L30.9623 181.045ZM33.989 182.319C32.8739 182.319 31.7588 181.841 30.9623 181.045L29.6879 182.319C30.803 183.434 32.396 184.071 33.989 184.071L33.989 182.319ZM35.582 182.001C35.0245 182.239 34.4669 182.319 33.989 182.319L33.989 184.071C34.7855 184.071 35.582 183.912 36.3785 183.594L35.582 182.001ZM37.0157 181.045C36.6175 181.443 36.1396 181.762 35.6617 181.921L36.3785 183.594C37.175 183.275 37.8122 182.797 38.3698 182.239L37.0954 180.965L37.0157 181.045ZM42.2726 175.788L37.0157 181.045L38.2901 182.319L43.547 177.062L42.2726 175.788ZM22.7584 157.707L42.2727 177.221L43.547 175.947L24.0327 156.433L22.7584 157.707ZM18.8555 162.884L24.1124 157.628L22.838 156.353L17.5811 161.61L18.8555 162.884ZM37.6529 181.682L38.2901 182.319L37.6529 181.682ZM42.9098 176.425L43.547 177.062C43.8656 176.744 43.8656 176.106 43.547 175.788L42.9098 176.425ZM23.4752 156.99L24.1124 156.353C23.7938 156.035 23.1566 156.035 22.838 156.353L23.4752 156.99ZM17.5014 161.53C17.1828 161.849 17.1829 162.486 17.5015 162.805C17.8201 163.123 18.4572 163.123 18.7758 162.805L17.5014 161.53Z" fill="#D7D7D7"/>
</svg>
