<?xml version="1.0" encoding="utf-8"?><svg viewBox="0 0 32 32" xmlns="http://www.w3.org/2000/svg" xmlns:xlink="http://www.w3.org/1999/xlink"><style>:root>svg{display:none}:root>svg:target{display:block}</style><svg viewBox="0 0 10 16" id="arrow" xmlns="http://www.w3.org/2000/svg"><path d="M8.108 14.977a.9.9 0 101.184-1.355L2.867 8l6.426-5.622a.9.9 0 10-1.185-1.356l-7.2 6.3a.9.9 0 000 1.356l7.2 6.3z"/></svg><svg viewBox="0 0 24 24" id="check-circle" xmlns="http://www.w3.org/2000/svg"><path d="M22 11.08V12a10 10 0 11-5.93-9.14"/><path d="M22 4L12 14.01l-3-3"/></svg><svg viewBox="0 0 14 14" id="close" xmlns="http://www.w3.org/2000/svg"><path d="M13 1L1 13M1 1l12 12"/></svg><svg viewBox="0 0 32 32" id="fb" xmlns="http://www.w3.org/2000/svg"><path fill-rule="evenodd" clip-rule="evenodd" d="M0 16C0 7.163 7.163 0 16 0s16 7.163 16 16-7.163 16-16 16S0 24.837 0 16zm16-8c4.4 0 8 3.6 8 8 0 4-2.9 7.4-6.9 8v-5.7H19l.4-2.3h-2.2v-1.5c0-.6.3-1.2 1.3-1.2h1v-2s-.9-.2-1.8-.2c-1.8 0-3 1.1-3 3.1V16h-2v2.3h2v5.6C10.9 23.3 8 20 8 16c0-4.4 3.6-8 8-8z"/></svg><svg viewBox="0 0 32 32" id="inst" xmlns="http://www.w3.org/2000/svg"><path d="M16 18.8c-1.5 0-2.8-1.2-2.8-2.8 0-1.5 1.2-2.8 2.8-2.8 1.5 0 2.8 1.2 2.8 2.8 0 1.5-1.3 2.8-2.8 2.8z"/><path fill-rule="evenodd" clip-rule="evenodd" d="M19.4 9.2h-6.8c-.8.1-1.2.2-1.5.3-.4.1-.7.3-1 .6-.237.237-.35.475-.485.762-.036.075-.073.155-.115.238a5.48 5.48 0 01-.052.148A3.53 3.53 0 009.2 12.6v6.8c.1.8.2 1.2.3 1.5.1.4.3.7.6 1 .237.237.475.35.762.485.075.036.155.073.238.115.046.015.095.033.148.052a3.53 3.53 0 001.352.248h6.8c.8-.1 1.2-.2 1.5-.3.4-.1.7-.3 1-.6.237-.237.35-.475.485-.762.036-.075.073-.155.115-.238.015-.046.033-.095.052-.147A3.53 3.53 0 0022.8 19.4v-6.8c-.1-.8-.2-1.2-.3-1.5-.1-.4-.3-.7-.6-1-.237-.237-.475-.35-.762-.485A11.461 11.461 0 0120.9 9.5c-.046-.015-.095-.033-.147-.052A3.53 3.53 0 0019.4 9.2zM16 11.7c-2.4 0-4.3 1.9-4.3 4.3s1.9 4.3 4.3 4.3 4.3-1.9 4.3-4.3-1.9-4.3-4.3-4.3zm5.4-.1a1 1 0 11-2 0 1 1 0 012 0z"/><path fill-rule="evenodd" clip-rule="evenodd" d="M0 16C0 7.163 7.163 0 16 0s16 7.163 16 16-7.163 16-16 16S0 24.837 0 16zm12.6-8.3h6.8c.9.1 1.5.2 2 .4.6.3 1 .5 1.5 1s.8 1 1 1.5c.2.5.4 1.1.4 2v6.8c-.1.9-.2 1.5-.4 2-.3.6-.5 1-1 1.5s-1 .8-1.5 1c-.5.2-1.1.4-2 .4h-6.8c-.9-.1-1.5-.2-2-.4-.6-.3-1-.5-1.5-1s-.8-1-1-1.5c-.2-.5-.4-1.1-.4-2v-6.8c.1-.9.2-1.5.4-2 .3-.6.5-1 1-1.5s1-.8 1.5-1c.5-.2 1.1-.4 2-.4z"/></svg><svg viewBox="0 0 16 17" id="mail" xmlns="http://www.w3.org/2000/svg"><path d="M2.667 3.167h10.666c.734 0 1.334.6 1.334 1.333v8c0 .733-.6 1.333-1.334 1.333H2.667c-.734 0-1.334-.6-1.334-1.333v-8c0-.733.6-1.333 1.334-1.333z"/><path d="M14.667 4.5L8 9.167 1.333 4.5"/></svg><svg viewBox="0 0 32 32" id="ok" xmlns="http://www.w3.org/2000/svg"><path d="M16.03 9.468c1.104 0 2.003.9 2.003 2.002 0 1.103-.9 2.002-2.002 2.002-1.102 0-2.002-.9-2.002-2.002-.029-1.102.87-2.002 2.002-2.002z"/><path fill-rule="evenodd" clip-rule="evenodd" d="M16 0C7.163 0 0 7.163 0 16s7.163 16 16 16 16-7.163 16-16S24.837 0 16 0zm.03 16.316a4.854 4.854 0 004.846-4.846 4.854 4.854 0 00-4.845-4.845c-2.698 0-4.874 2.176-4.874 4.845 0 2.67 2.176 4.845 4.874 4.845zm1.945 3.974a9.17 9.17 0 002.814-1.16c.667-.406.87-1.306.435-1.973a1.413 1.413 0 00-1.973-.435 6.16 6.16 0 01-6.528 0 1.445 1.445 0 00-1.972.435c-.378.667-.175 1.538.493 1.944a9.17 9.17 0 002.814 1.16L11.36 22.96a1.418 1.418 0 000 2.002c.29.29.638.406 1.015.406.377 0 .726-.145 1.016-.406l2.669-2.67 2.67 2.67c.55.55 1.45.55 2.001 0a1.419 1.419 0 000-2.002l-2.756-2.67z"/></svg><svg viewBox="0 0 18 19" id="tel" xmlns="http://www.w3.org/2000/svg"><path d="M17 13.48v2.408a1.604 1.604 0 01-1.094 1.527 1.613 1.613 0 01-.66.079 15.94 15.94 0 01-6.943-2.465 15.672 15.672 0 01-4.827-4.818 15.868 15.868 0 01-2.47-6.96 1.603 1.603 0 01.953-1.614c.204-.09.425-.137.648-.137h2.414A1.61 1.61 0 016.63 2.881c.102.77.29 1.528.563 2.256a1.603 1.603 0 01-.362 1.694l-1.022 1.02a12.86 12.86 0 004.827 4.817l1.022-1.02a1.61 1.61 0 011.697-.36c.73.271 1.489.46 2.26.561A1.61 1.61 0 0117 13.48z"/></svg><svg viewBox="0 0 32 32" id="tg" xmlns="http://www.w3.org/2000/svg"><path fill-rule="evenodd" clip-rule="evenodd" d="M16 32C7.163 32 0 24.837 0 16S7.163 0 16 0s16 7.163 16 16-7.163 16-16 16zm.692-19.993c-1.433.596-4.297 1.83-8.592 3.701-.698.278-1.063.549-1.096.814-.056.449.505.625 1.27.866.104.032.212.066.322.102.752.245 1.764.53 2.29.542.477.01 1.01-.186 1.598-.59 4.013-2.709 6.084-4.078 6.214-4.108.092-.02.22-.047.305.03.087.076.078.221.069.26-.056.237-2.26 2.287-3.4 3.347-.356.33-.608.565-.66.619-.115.12-.233.233-.346.342-.699.674-1.223 1.179.029 2.004.602.396 1.083.724 1.563 1.051.525.358 1.048.714 1.725 1.158.172.113.337.23.497.344.61.436 1.16.826 1.837.764.393-.036.8-.406 1.007-1.51.488-2.61 1.447-8.263 1.669-10.592a2.602 2.602 0 00-.025-.58.621.621 0 00-.21-.4c-.176-.143-.448-.173-.57-.17-.554.009-1.405.305-5.496 2.006z"/></svg><svg viewBox="0 0 27 32" id="trigon" xmlns="http://www.w3.org/2000/svg"><path d="M27 16L0 31.588V.413L27 16z"/></svg><svg viewBox="0 0 32 32" id="vk" xmlns="http://www.w3.org/2000/svg"><path d="M10.699 12.87c.085 4.16 2.165 6.655 5.813 6.655h.213v-2.378c1.339.133 2.352 1.114 2.758 2.378h1.893a5.265 5.265 0 00-2.736-3.338 5.08 5.08 0 002.336-3.323h-1.717c-.374 1.323-1.483 2.523-2.534 2.635v-2.63h-1.722v4.608c-1.067-.266-2.411-1.557-2.47-4.608H10.7z"/><path fill-rule="evenodd" clip-rule="evenodd" d="M16 0c8.837 0 16 7.163 16 16s-7.163 16-16 16S0 24.837 0 16 7.163 0 16 0zM8 15.68c0-3.621 0-5.43 1.12-6.56C10.256 8 12.064 8 15.68 8h.64c3.621 0 5.43 0 6.56 1.12C24 10.256 24 12.064 24 15.68v.64c0 3.621 0 5.43-1.12 6.56C21.744 24 19.936 24 16.32 24h-.64c-3.621 0-5.43 0-6.56-1.12C8 21.744 8 19.936 8 16.32v-.64z"/></svg><svg viewBox="0 0 32 32" id="yt" xmlns="http://www.w3.org/2000/svg"><path d="M18.6 16l-4.2-2.4v4.8l4.2-2.4z"/><path fill-rule="evenodd" clip-rule="evenodd" d="M0 16C0 7.163 7.163 0 16 0s16 7.163 16 16-7.163 16-16 16S0 24.837 0 16zm22.2-5.3c.7.2 1.2.7 1.4 1.4.4 1.3.4 3.9.4 3.9s0 2.6-.3 3.9c-.2.7-.7 1.2-1.4 1.4-1.3.3-6.3.3-6.3.3s-5.1 0-6.3-.3c-.7-.2-1.2-.7-1.4-1.4C8 18.6 8 16 8 16s0-2.6.2-3.9c.2-.7.7-1.2 1.4-1.4 1.3-.3 6.3-.3 6.3-.3s5.1 0 6.3.3z"/></svg></svg>