<svg width="48" height="47" viewBox="0 0 48 47" fill="none" xmlns="http://www.w3.org/2000/svg">
<path d="M3.87089 41.8131H24V40.2644H3.87089C2.58823 40.2644 1.54832 39.2244 1.54832 37.9418V3.87724C1.54832 2.59419 2.58823 1.55467 3.87089 1.55467H37.9354C39.2187 1.55467 40.258 2.59419 40.258 3.87724V21.6836H41.8067V3.87724C41.8042 1.74037 40.0725 0.00887028 37.9354 0.00634766H3.87089C1.73441 0.00887028 0.00271669 1.74037 0 3.87724V37.9418C0.00271669 40.0786 1.73441 41.8101 3.87089 41.8131Z" fill="#2F2F2F"/>
<path d="M3.09703 3.10352H4.64515V4.65164H3.09703V3.10352Z" fill="#2F2F2F"/>
<path d="M6.19347 3.10352H7.74217V4.65164H6.19347V3.10352Z" fill="#2F2F2F"/>
<path d="M9.2903 3.10352H10.8388V4.65164H9.2903V3.10352Z" fill="#2F2F2F"/>
<path d="M3.09703 6.19971H38.7097V7.74841H3.09703V6.19971Z" fill="#2F2F2F"/>
<path d="M11.0656 9.52344L9.09916 11.4899C7.43693 10.3895 5.21099 10.7271 3.94948 12.271C2.68816 13.8146 2.80129 16.0633 4.21087 17.4727C5.62024 18.8826 7.86908 18.9957 9.41293 17.7342C10.9566 16.4729 11.2944 14.2466 10.1938 12.5848L12.1601 10.6183L11.0656 9.52344ZM6.96753 17.0384C5.68506 17.0384 4.64515 15.9987 4.64515 14.716C4.64515 13.4331 5.68506 12.3936 6.96753 12.3936C7.31293 12.3948 7.65271 12.474 7.96261 12.6255L6.4205 14.1678L7.51494 15.2626L9.05821 13.7213C9.20976 14.031 9.28913 14.3708 9.29029 14.716C9.29029 15.9987 8.25077 17.0384 6.96753 17.0384Z" fill="#2F2F2F"/>
<path d="M13.1614 12.3936H26.3224V13.9417H13.1614V12.3936Z" fill="#2F2F2F"/>
<path d="M13.1614 15.4902H18.5806V17.0384H13.1614V15.4902Z" fill="#2F2F2F"/>
<path d="M20.1291 15.4902H30.9675V17.0384H20.1291V15.4902Z" fill="#2F2F2F"/>
<path d="M27.8709 12.3936H35.6129V13.9417H27.8709V12.3936Z" fill="#2F2F2F"/>
<path d="M11.0656 18.814L9.09916 20.7805C7.43693 19.68 5.21099 20.0177 3.94948 21.5615C2.68816 23.1054 2.80129 25.3538 4.21087 26.7636C5.62024 28.1731 7.86908 28.2863 9.41293 27.0248C10.9566 25.7633 11.2944 23.5377 10.1938 21.8753L12.1601 19.9088L11.0656 18.814ZM6.96753 26.3291C5.68506 26.3291 4.64515 25.2892 4.64515 24.0065C4.64515 22.7237 5.68506 21.6838 6.96753 21.6838C7.31293 21.6851 7.65271 21.7645 7.96261 21.916L6.4205 23.4587L7.51494 24.5532L9.05821 23.0116C9.20976 23.3215 9.28913 23.6613 9.29029 24.0065C9.29029 25.2892 8.25077 26.3291 6.96753 26.3291Z" fill="#2F2F2F"/>
<path d="M13.1614 21.6836H26.3224V23.2321H13.1614V21.6836Z" fill="#2F2F2F"/>
<path d="M13.1614 24.7808H18.5806V26.3291H13.1614V24.7808Z" fill="#2F2F2F"/>
<path d="M20.1291 24.7808H26.3224V26.3291H20.1291V24.7808Z" fill="#2F2F2F"/>
<path d="M27.8709 21.6836H30.9675V23.2321H27.8709V21.6836Z" fill="#2F2F2F"/>
<path d="M11.0656 28.104L9.09916 30.0705C7.43693 28.97 5.21099 29.3077 3.94948 30.8515C2.68816 32.3954 2.80129 34.6438 4.21087 36.0536C5.62024 37.4634 7.86908 37.5761 9.41293 36.3148C10.9566 35.0533 11.2944 32.8275 10.1938 31.1651L12.1601 29.1988L11.0656 28.104ZM6.96753 35.6191C5.68506 35.6191 4.64515 34.5792 4.64515 33.2966C4.64515 32.0137 5.68506 30.974 6.96753 30.974C7.31293 30.9752 7.65271 31.0543 7.96261 31.2061L6.4205 32.7488L7.51494 33.8432L9.05821 32.3017C9.20976 32.6116 9.28913 32.9515 9.29029 33.2966C9.29029 34.5792 8.25077 35.6191 6.96753 35.6191Z" fill="#2F2F2F"/>
<path d="M13.1614 30.9741H23.2257V32.5228H13.1614V30.9741Z" fill="#2F2F2F"/>
<path d="M13.1614 34.0708H18.5806V35.6191H13.1614V34.0708Z" fill="#2F2F2F"/>
<path d="M20.1291 34.0708H23.2257V35.6191H20.1291V34.0708Z" fill="#2F2F2F"/>
<path d="M36.3873 46.4581C42.8012 46.4581 48 41.2583 48 34.845C48 28.4311 42.8012 23.2319 36.3873 23.2319C29.9734 23.2319 24.7742 28.4311 24.7742 34.845C24.7818 41.2554 29.9765 46.4503 36.3873 46.4581ZM36.3873 24.7804C41.9455 24.7804 46.4519 29.2865 46.4519 34.845C46.4519 40.4035 41.9455 44.9093 36.3873 44.9093C30.8286 44.9093 26.3224 40.4035 26.3224 34.845C26.329 29.2892 30.8311 24.7867 36.3873 24.7804Z" fill="#2F2F2F"/>
<path d="M31.6647 35.2731L30.2788 35.9651L31.8274 39.0619C31.9383 39.2847 32.1502 39.4405 32.3961 39.4803C32.4361 39.4865 32.4761 39.4898 32.5162 39.4904C32.7213 39.4904 32.9183 39.4087 33.0638 39.2635L42.3537 29.9732L41.2593 28.8784L32.7281 37.4092L31.6647 35.2731Z" fill="#2F2F2F"/>
</svg>
