<svg width="347" height="229" viewBox="0 0 347 229" fill="none" xmlns="http://www.w3.org/2000/svg">
<path d="M109.089 3.08893C107.432 1.43176 104.591 1.43176 102.934 3.08894L104.591 4.7461C105.419 3.91753 106.603 3.91752 107.432 4.7461L109.089 3.08893ZM-104.922 210.945C-106.58 212.602 -106.58 215.443 -104.922 217.1L-103.265 215.443C-103.975 214.733 -103.975 213.312 -103.265 212.602L-104.922 210.945ZM134.183 450.05C133.354 450.879 132.171 450.879 131.342 450.05L129.685 451.707C131.342 453.365 134.183 453.365 135.84 451.707L134.183 450.05ZM131.342 450.05L-103.265 215.443L-104.922 217.1L129.685 451.707L131.342 450.05ZM181.649 402.584L134.301 449.932L135.958 451.589L183.306 404.241L181.649 402.584ZM-103.265 212.602L104.591 4.7461L102.934 3.08894L-104.922 210.945L-103.265 212.602ZM107.432 4.7461L144.955 42.2691L146.612 40.6119L109.089 3.08893L107.432 4.7461Z" fill="#2F2F2F"/>
<path d="M343.696 243.851C345.353 242.194 345.353 239.353 343.696 237.696L342.039 239.353C342.867 240.182 342.867 241.366 342.039 242.194L343.696 243.851ZM343.696 237.696L310.079 204.079L308.422 205.737L342.039 239.353L343.696 237.696ZM220.355 367.192L343.696 243.851L342.039 242.194L218.698 365.535L220.355 367.192Z" fill="#2F2F2F"/>
<path d="M183.661 77.6612L182.004 79.3184L269.834 167.148L271.491 165.491L183.661 77.6612Z" fill="#2F2F2F"/>
<path d="M-5.84742 113.527L-7.50459 115.185L111.693 234.382L113.35 232.725L-5.84742 113.527Z" fill="#2F2F2F"/>
<path d="M129.212 215.206L94.8846 249.533L96.5418 251.19L130.869 216.863L129.212 215.206Z" fill="#2F2F2F"/>
<path d="M224.025 120.393L161.408 183.01L163.065 184.667L225.682 122.05L224.025 120.393Z" fill="#2F2F2F"/>
<path d="M59.7285 180.761L25.4015 215.088L27.0586 216.745L61.3856 182.418L59.7285 180.761Z" fill="#2F2F2F"/>
</svg>
