<svg width="48" height="48" viewBox="0 0 48 48" fill="none" xmlns="http://www.w3.org/2000/svg">
<path d="M6.1264 9.39752C5.94745 9.28344 5.73049 9.24514 5.52329 9.29105C5.31609 9.33696 5.13562 9.46332 5.0216 9.64232C4.34834 10.7063 3.99383 11.9408 4 13.1999C4 16.9555 7.04447 19.9999 10.8 19.9999C14.5555 19.9999 17.6 16.9555 17.6 13.1999C17.6 9.44439 14.5555 6.39992 10.8 6.39992C10.2296 6.39848 9.66145 6.47245 9.1104 6.61992C8.83162 6.6922 8.61321 6.90873 8.53853 7.18688C8.46385 7.46502 8.54444 7.76184 8.74953 7.96403C8.95462 8.16621 9.25255 8.24256 9.5296 8.16392C9.94398 8.05344 10.3712 7.99829 10.8 7.99992C13.6719 7.99992 16 10.328 16 13.1999C16 16.0718 13.6719 18.3999 10.8 18.3999C7.92812 18.3999 5.6 16.0718 5.6 13.1999C5.59435 12.2454 5.86165 11.3092 6.3704 10.5015C6.60758 10.1292 6.49839 9.63518 6.1264 9.39752Z" fill="#2F2F2F"/>
<path d="M28.4 0C23.319 0 19.2 4.11898 19.2 9.2C19.2 14.281 23.319 18.4 28.4 18.4C33.481 18.4 37.6 14.281 37.6 9.2C37.5943 4.12136 33.4786 0.00573136 28.4 0ZM28.4 16.8C24.2026 16.8 20.8 13.3974 20.8 9.2C20.8 5.00264 24.2026 1.6 28.4 1.6C32.5974 1.6 36 5.00264 36 9.2C35.9951 13.3954 32.5954 16.7952 28.4 16.8Z" fill="#2F2F2F"/>
<path d="M2.4 37.6H12.8V38.4C12.8 39.7255 13.8745 40.8 15.2 40.8H18.4C19.7255 40.8 20.8 39.7255 20.8 38.4V28.8C20.8 28.3582 20.4418 28 20 28C19.5582 28 19.2 28.3582 19.2 28.8V38.4C19.2 38.8418 18.8418 39.2 18.4 39.2H15.2C14.7582 39.2 14.4 38.8418 14.4 38.4V29.6C14.4049 25.1837 17.9837 21.6049 22.4 21.6H27.2C27.6418 21.6 28 21.2418 28 20.8C28 20.3582 27.6418 20 27.2 20H22.4C20.2168 19.9994 18.0992 20.7467 16.4 22.1176C15.5059 21.7762 14.5571 21.6008 13.6 21.6H8C3.58373 21.6049 0.0048499 25.1837 0 29.6V35.2C0 36.5255 1.07452 37.6 2.4 37.6ZM1.6 29.6C1.60397 26.067 4.46702 23.204 8 23.2H13.6C14.1049 23.2013 14.6079 23.2625 15.0984 23.3824C13.6148 25.1142 12.7996 27.3196 12.8 29.6V36H6.4V29.6C6.4 29.1582 6.04183 28.8 5.6 28.8C5.15817 28.8 4.8 29.1582 4.8 29.6V36H2.4C1.95817 36 1.6 35.6418 1.6 35.2V29.6Z" fill="#2F2F2F"/>
<path d="M18.544 44.7038C18.5467 45.5816 18.8954 46.423 19.5144 47.0454C20.8127 48.3415 22.9153 48.3415 24.2136 47.0454L31.6928 39.5654C36.6211 42.0949 42.6581 40.6431 45.8975 36.1495C49.1368 31.6558 48.606 25.4694 44.6485 21.5933C40.6909 17.7172 34.4948 17.3151 30.0695 20.6472C25.6442 23.9792 24.3182 30.0452 26.9496 34.9198L19.5144 42.3542C18.8901 42.9764 18.5407 43.8224 18.544 44.7038ZM30.012 22.8118C32.7575 20.0661 36.8867 19.2446 40.4741 20.7305C44.0614 22.2163 46.4004 25.7169 46.4004 29.5998C46.4004 33.4827 44.0614 36.9832 40.4741 38.4691C36.8867 39.955 32.7575 39.1335 30.012 36.3878C28.1953 34.5962 27.1726 32.1512 27.1726 29.5998C27.1726 27.0483 28.1953 24.6033 30.012 22.8118ZM20.6456 43.4854L27.8376 36.2942C28.155 36.7274 28.5034 37.137 28.88 37.5198C29.3176 37.9525 29.7899 38.3487 30.292 38.7046L23.0816 45.915C22.3992 46.5645 21.3272 46.5645 20.6448 45.915C19.976 45.2435 19.976 44.1577 20.6448 43.4862L20.6456 43.4854Z" fill="#2F2F2F"/>
</svg>
