<svg width="46" height="46" viewBox="0 0 46 46" fill="none" xmlns="http://www.w3.org/2000/svg">
<path d="M0.65015 36.9501L2.64014 39.6033L0.560795 44.4545C0.434817 44.7489 0.50879 45.0906 0.746097 45.3056C0.88745 45.4337 1.06836 45.5 1.25 45.5C1.37378 45.5 1.49829 45.4696 1.61109 45.407L16.6111 37.157C16.8513 37.0255 17 36.7736 17 36.5C17 36.2265 16.8513 35.9745 16.6111 35.843L1.61109 27.593C1.33277 27.4389 0.983405 27.4788 0.746097 27.6945C0.50879 27.9094 0.434817 28.2511 0.560795 28.5455L2.64014 33.3967L0.65015 36.0499C0.450192 36.3165 0.450192 36.6835 0.65015 36.9501ZM4.04002 40.1437L11.0808 38.487L2.79761 43.0427L4.04002 40.1437ZM11.0808 34.513L4.04002 32.8564L2.7976 29.9573L11.0808 34.513ZM3.80547 34.3426L12.9744 36.5L3.80547 38.6574L2.1875 36.5L3.80547 34.3426Z" fill="#2F2F2F"/>
<path d="M33.5 0.5C27.1364 0.5 21.9283 5.48308 21.538 11.75H19.5605L17.5303 9.71973L16.4697 10.7803L17.4395 11.75H14.375C10.0325 11.75 6.5 15.2828 6.5 19.625C6.5 23.9672 10.0325 27.5 14.375 27.5H22.6895L24.7197 29.5303L25.7803 28.4697L24.8105 27.5H39.125C41.3992 27.5 43.25 29.3505 43.25 31.625C43.25 33.8995 41.3992 35.75 39.125 35.75H32.3105L30.2803 33.7197L29.2197 34.7803L30.1895 35.75H18.5V37.25H30.1895L29.2197 38.2197L30.2803 39.2803L32.3105 37.25H39.125C42.2268 37.25 44.75 34.7268 44.75 31.625C44.75 28.5232 42.2268 26 39.125 26H24.8105L25.7803 25.0303L24.7197 23.9697L22.6895 26H14.375C10.8601 26 8 23.1403 8 19.625C8 16.1097 10.8601 13.25 14.375 13.25H17.4395L16.4697 14.2197L17.5303 15.2803L19.5605 13.25H21.538C21.9283 19.5169 27.1364 24.5 33.5 24.5C40.1167 24.5 45.5 19.1167 45.5 12.5C45.5 5.8833 40.1167 0.5 33.5 0.5ZM33.5 23C27.9634 23 23.4252 18.6897 23.038 13.25H25.288C25.6686 17.4484 29.2041 20.75 33.5 20.75C38.0491 20.75 41.75 17.0491 41.75 12.5C41.75 7.95093 38.0491 4.25 33.5 4.25C29.2041 4.25 25.6686 7.55158 25.288 11.75H23.038C23.4252 6.3103 27.9634 2 33.5 2C39.2898 2 44 6.7102 44 12.5C44 18.2898 39.2898 23 33.5 23ZM31.7803 15.2803L34.0303 13.0303C34.3232 12.7373 34.3232 12.2627 34.0303 11.9697L31.7803 9.71973L30.7197 10.7803L31.6895 11.75H26.7943C27.1689 8.38027 30.0316 5.75 33.5 5.75C37.2222 5.75 40.25 8.7782 40.25 12.5C40.25 16.2218 37.2222 19.25 33.5 19.25C30.0316 19.25 27.1689 16.6197 26.7943 13.25H31.6895L30.7197 14.2197L31.7803 15.2803Z" fill="#2F2F2F"/>
<path d="M38 12.5C38 10.0186 35.9814 8 33.5 8V9.5C35.1545 9.5 36.5 10.8458 36.5 12.5C36.5 14.1542 35.1545 15.5 33.5 15.5V17C35.9814 17 38 14.9814 38 12.5Z" fill="#2F2F2F"/>
</svg>
