<svg width="48" height="48" viewBox="0 0 48 48" fill="none" xmlns="http://www.w3.org/2000/svg">
<path d="M24 47.5C21.7 47.5 19.6 46.6 18 45C16.8 43.8 15.1 43.1 13.4 43.1C8.7 43.1 4.9 39.3 4.9 34.6C4.9 32.9 4.2 31.2 3 30C-0.299999 26.7 -0.299999 21.3 3 18C4.2 16.8 4.9 15.1 4.9 13.4C4.9 8.7 8.7 4.9 13.4 4.9C15.1 4.9 16.8 4.2 18 3C19.6 1.4 21.7 0.5 24 0.5C26.3 0.5 28.4 1.4 30 3C31.2 4.2 32.9 4.9 34.6 4.9C39.3 4.9 43.1 8.7 43.1 13.4C43.1 15.1 43.8 16.8 45 18C48.3 21.3 48.3 26.7 45 30C43.8 31.2 43.1 32.9 43.1 34.6C43.1 39.3 39.3 43.1 34.6 43.1C32.9 43.1 31.2 43.8 30 45C28.4 46.6 26.3 47.5 24 47.5ZM24 2.5C22.3 2.5 20.6 3.2 19.4 4.4C17.8 6 15.7 6.9 13.4 6.9C9.8 6.9 6.9 9.8 6.9 13.4C6.9 15.7 6 17.8 4.4 19.4C1.9 21.9 1.9 26.1 4.4 28.6C6 30.2 6.9 32.3 6.9 34.6C6.9 38.2 9.8 41.1 13.4 41.1C15.7 41.1 17.8 42 19.4 43.6C20.6 44.8 22.3 45.5 24 45.5C25.7 45.5 27.4 44.8 28.6 43.6C30.2 42 32.3 41.1 34.6 41.1C38.2 41.1 41.1 38.2 41.1 34.6C41.1 32.3 42 30.2 43.6 28.6C46.1 26.1 46.1 21.9 43.6 19.4C42 17.8 41.1 15.7 41.1 13.4C41.1 9.8 38.2 6.9 34.6 6.9C32.3 6.9 30.2 6 28.6 4.4C27.4 3.2 25.7 2.5 24 2.5Z" fill="#2F2F2F"/>
<path d="M11.4 33.8001L8 24.7001L9.8 24.0001L15.8 28.8001L13.6 22.7001L15.3 22.1001L18.6 31.3001L16.7 32.0001L10.8 27.4001L13 33.4001L11.4 33.8001Z" fill="#2F2F2F"/>
<path d="M20.6 30.5003L17.3 21.3003L24.1 18.8003L24.7 20.3003L19.8 22.1003L20.5 24.1003L25.1 22.4003L25.7 23.9003L21 25.8003L21.9 28.3003L27 26.4003L27.6 27.9003L20.6 30.5003Z" fill="#2F2F2F"/>
<path d="M30.4 26.9001L24.9 18.5001L26.8 17.8001L30.5 23.6001L29.9 16.7001L32.1 15.9001L36 21.7001L35 14.8001L36.9 14.1001L38 24.1001L36 24.8001L31.7 18.6001L32.4 26.1001L30.4 26.9001Z" fill="#2F2F2F"/>
</svg>
