<svg width="18" height="18" fill="none" xmlns="http://www.w3.org/2000/svg"><g clip-path="url(#clip0)" fill="#F2C317"><path d="M2.25 8.25a.75.75 0 01-.53-1.28L6.9 1.79a.75.75 0 111.06 1.06L2.78 8.03a.748.748 0 01-.53.22z"/><path d="M8.438 4.5a.56.56 0 01-.398-.165L5.415 1.71a.562.562 0 01.398-.96h2.625c.31 0 .562.252.562.563v2.625a.563.563 0 01-.562.562zM5.25 11.438v4.312H.75v-4.313c0-.517.42-.937.937-.937h2.625c.518 0 .938.42.938.938zM11.25 8.438v7.312h-4.5V8.437c0-.517.42-.937.938-.937h2.625c.517 0 .937.42.937.938zM17.25 5.438V15.75h-4.5V5.437c0-.517.42-.937.938-.937h2.624c.518 0 .938.42.938.938zM17.438 18H.563a.563.563 0 010-1.125h16.875a.563.563 0 010 1.125z"/></g><defs><clipPath id="clip0"><path fill="#fff" d="M0 0h18v18H0z"/></clipPath></defs></svg>