<svg width="18" height="18" fill="none" xmlns="http://www.w3.org/2000/svg"><path d="M4.68 5.24H.2a.2.2 0 00-.2.2v11.12a.6.6 0 00.6.6h4.08a.2.2 0 00.2-.2V5.44a.2.2 0 00-.2-.2zm-1.52 9.48H1.72a.6.6 0 010-1.2h1.44a.6.6 0 010 1.2zm0-2.92H1.72a.6.6 0 010-1.2h1.44a.6.6 0 010 1.2zm0-2.92H1.72a.6.6 0 010-1.2h1.44a.6.6 0 010 1.2zM17.4.84H.6a.6.6 0 00-.6.6v2.4c0 .11.09.2.2.2h17.6a.2.2 0 00.2-.2v-2.4a.6.6 0 00-.6-.6zm-15.12 2a.4.4 0 110-.8.4.4 0 010 .8zm1.6 0a.4.4 0 110-.8.4.4 0 010 .8zm1.6 0a.4.4 0 110-.8.4.4 0 010 .8zM17.8 5.24H6.28a.2.2 0 00-.2.2v11.52c0 .11.09.2.2.2H17.4a.6.6 0 00.6-.6V5.44a.2.2 0 00-.2-.2zm-3.56 7.56v1.6a.6.6 0 01-.6.6h-3.2a.6.6 0 01-.6-.6v-1.6c0-.63.267-1.199.692-1.6-1.448-1.365-.473-3.8 1.508-3.8 1.983 0 2.954 2.436 1.508 3.8.425.401.692.97.692 1.6z" fill="#F2C317"/></svg>