<svg width="18" height="18" fill="none" xmlns="http://www.w3.org/2000/svg"><path d="M3.582 18h10.547c.872 0 1.582-.71 1.582-1.582V5.273H12.02c-.873 0-1.582-.71-1.582-1.582V0H3.582C2.71 0 2 .71 2 1.582v14.836C2 17.29 2.71 18 3.582 18zm2.11-10.582h6.328a.527.527 0 110 1.055H5.69a.527.527 0 110-1.055zm0 2.11h6.328a.527.527 0 110 1.054H5.69a.527.527 0 110-1.055zm0 2.109h6.328a.527.527 0 110 1.054H5.69a.527.527 0 110-1.054zm0 2.11H9.91a.527.527 0 110 1.054H5.691a.527.527 0 110-1.055z" fill="#F2C317"/><path d="M12.164 4.219h3.383l-3.91-3.91v3.382c0 .291.236.528.527.528z" fill="#F2C317"/></svg>