<svg width="370" height="207" fill="none" xmlns="http://www.w3.org/2000/svg"><g clip-path="url(#clip0)"><path d="M369.398 167.319c-1.169-2.891-3.814-4.773-6.903-4.912-.1-.004-.2-.006-.301-.007l-8.843-20.34a2.445 2.445 0 00-1.409-1.324 2.443 2.443 0 00-1.929.11l-20.882 10.422a2.449 2.449 0 00-1.355 2.19v4.303h-2.749a6.649 6.649 0 00-6.642 6.642v7.491h-2.715a2.445 2.445 0 00-2.423-2.118h-6.208c-1.24 0-2.262.922-2.423 2.118h-1.152a2.448 2.448 0 00-2.448 2.448v10.655a2.448 2.448 0 002.448 2.447h24.312v2.24h-20.912a6.872 6.872 0 00-6.864 6.864 6.872 6.872 0 006.864 6.864h39.018c3.785 0 6.865-3.079 6.865-6.864 0-3.785-3.08-6.864-6.865-6.864h-13.21v-2.24h9.064a2.448 2.448 0 002.448-2.448v-14.721c0-6.563-5.079-11.958-11.512-12.471v-2.832l17.218-8.594 6.965 16.02h-1.024a2.448 2.448 0 00-2.448 2.448v20.103a2.448 2.448 0 004.227 1.681l10.197-10.792c2.175-2.303 2.785-5.567 1.591-8.519zm-23.515 27.26c1.085 0 1.968.884 1.968 1.969a1.972 1.972 0 01-1.969 1.969h-39.018a1.971 1.971 0 01-1.968-1.969c0-1.085.883-1.969 1.968-1.969h39.019zm-6.595-12.031h-33.376v-5.759h33.376v5.759zm0-12.273v1.619H323.28v-7.491a1.75 1.75 0 011.747-1.747h6.642c4.201 0 7.619 3.418 7.619 7.619zm24.96 2.2l-5.969 6.319v-11.5h2.293l.018.001.012-.001h1.483c.064 0 .128.001.19.004 1.17.053 2.136.747 2.585 1.857.474 1.172.245 2.413-.612 3.32z" fill="#F2C317"/></g><path stroke="#D4D4D4" stroke-dasharray="6 6 6 6" d="M148.083.5H100M270.083 137.5H222"/><path d="M45.938 2.188c-11.664 0-24.063 3.832-24.063 10.937v8.75a2.188 2.188 0 004.375 0v-2.28c4.642 2.928 12.307 4.468 19.688 4.468 7.38 0 15.045-1.54 19.687-4.467v2.279c0 2.14-5.381 5.552-15.496 6.396a2.187 2.187 0 00.18 4.367c.065 0 .122-.005.187-.01 5.697-.476 11.37-1.95 15.129-4.344v2.341c0 1.868-3.964 4.554-11.318 5.854a2.19 2.19 0 00-1.772 2.533 2.19 2.19 0 002.533 1.772c4.45-.783 8.01-2.065 10.557-3.693v2.284c0 1.868-3.964 4.554-11.318 5.854a2.19 2.19 0 00-1.772 2.533 2.19 2.19 0 002.533 1.772c4.45-.783 8.01-2.07 10.557-3.693v2.284c0 1.868-3.964 4.554-11.318 5.854a2.19 2.19 0 00-1.772 2.533 2.19 2.19 0 002.533 1.772c4.45-.783 8.01-2.07 10.557-3.693v2.284c0 2.14-5.381 5.552-15.496 6.396a2.187 2.187 0 00.18 4.367c.065 0 .122-.005.187-.01C60.204 66.816 70 63.18 70 56.876v-43.75C70 6.02 57.601 2.187 45.937 2.187zm0 17.5c-12.019 0-19.688-3.89-19.688-6.563 0-2.673 7.67-6.563 19.688-6.563 12.018 0 19.687 3.89 19.687 6.563 0 2.673-7.67 6.563-19.688 6.563z" fill="#ECECEC"/><path d="M24.063 28.438C12.399 28.438 0 32.27 0 39.374v17.5c0 7.105 12.399 10.938 24.063 10.938 11.663 0 24.062-3.833 24.062-10.938v-17.5c0-7.105-12.399-10.938-24.063-10.938zM43.75 56.874c0 2.673-7.67 6.563-19.688 6.563-12.018 0-19.687-3.89-19.687-6.563v-2.28c4.642 2.928 12.307 4.468 19.688 4.468 7.38 0 15.045-1.54 19.687-4.467v2.279zm0-8.75c0 2.673-7.67 6.563-19.688 6.563-12.018 0-19.687-3.89-19.687-6.563v-2.28c4.642 2.928 12.307 4.468 19.688 4.468 7.38 0 15.045-1.54 19.687-4.467v2.279zm-19.688-2.188c-12.018 0-19.687-3.889-19.687-6.562 0-2.673 7.67-6.563 19.688-6.563 12.018 0 19.687 3.89 19.687 6.563 0 2.673-7.67 6.563-19.688 6.563z" fill="#ECECEC"/><g clip-path="url(#clip1)"><path d="M170.106 74.999c.067-8.283 6.836-14.945 15.12-14.878 8.284.067 14.945 6.837 14.878 15.12-.066 8.283-6.836 14.945-15.12 14.878-8.283-.067-14.944-6.836-14.878-15.12zm15.774 6.255l5.346-5.26a.919.919 0 00.249-.823.923.923 0 00-.236-.826L185.979 69a.937.937 0 10-1.336 1.315l3.832 3.896-9.924-.08a.937.937 0 10-.015 1.874l9.923.08-3.894 3.832a.937.937 0 001.315 1.338z" fill="#ECECEC"/></g><defs><clipPath id="clip0"><path fill="#fff" transform="translate(300 137)" d="M0 0h70v70H0z"/></clipPath><clipPath id="clip1"><path fill="#fff" transform="scale(-1 1) rotate(89.538 -115.356 -55.802)" d="M0 0h29.999v29.999H0z"/></clipPath></defs></svg>