<svg width="371" height="208" fill="none" xmlns="http://www.w3.org/2000/svg"><path stroke="#D4D4D4" stroke-dasharray="6 6 6 6" d="M148.083 1.5H100M270.083 138.5H222"/><path d="M67.261 19.285a2.734 2.734 0 002.734-2.734v-2.87C69.995 6.136 63.858 0 56.315 0c0 0-42.856.006-42.962.019a13.957 13.957 0 00-9.57 4.291c-2.56 2.683-3.895 6.172-3.77 9.843-.005.07-.007 39.433-.007 39.433C.006 62.636 7.369 70 16.42 70h39.895c7.543 0 13.68-6.137 13.68-13.68V35.562c0-7.543-6.137-13.68-13.68-13.68h-42.64a8.186 8.186 0 01-8.193-7.81c-.104-2.228.698-4.354 2.256-5.987a8.46 8.46 0 016.093-2.607l42.484-.01c4.528 0 8.212 3.684 8.212 8.212v2.87a2.734 2.734 0 002.734 2.735zM13.675 27.35h42.64c4.528 0 8.212 3.684 8.212 8.212V56.32c0 4.528-3.684 8.212-8.212 8.212H16.42c-6.036 0-10.947-4.91-10.947-10.946V24.627a13.634 13.634 0 008.202 2.723zM59.06 45.941a3.417 3.417 0 01-3.417 3.417c-4.533-.18-4.532-6.655 0-6.834a3.418 3.418 0 013.417 3.417zm0-32.26a2.734 2.734 0 00-2.734-2.735h-42.65c-3.627.145-3.624 5.325 0 5.468h42.65a2.734 2.734 0 002.734-2.734z" fill="#ECECEC"/><g clip-path="url(#clip0)" fill="#F2C317"><path d="M346.021 140.188c-11.664 0-24.063 3.832-24.063 10.937v8.75a2.188 2.188 0 004.375 0v-2.279c4.642 2.927 12.307 4.466 19.688 4.466 7.38 0 15.045-1.539 19.687-4.466v2.279c0 2.139-5.381 5.552-15.496 6.396a2.188 2.188 0 00.179 4.367c.066 0 .123-.005.189-.009 5.696-.477 11.37-1.952 15.128-4.345v2.341c0 1.868-3.963 4.554-11.318 5.854a2.19 2.19 0 00-1.772 2.533 2.19 2.19 0 002.533 1.772c4.45-.783 8.011-2.065 10.557-3.693v2.284c0 1.868-3.963 4.554-11.318 5.854a2.19 2.19 0 00-1.772 2.533 2.19 2.19 0 002.533 1.772c4.45-.783 8.011-2.07 10.557-3.693v2.284c0 1.868-3.963 4.554-11.318 5.854a2.19 2.19 0 00-1.772 2.533 2.19 2.19 0 002.533 1.772c4.45-.783 8.011-2.07 10.557-3.693v2.284c0 2.139-5.381 5.552-15.496 6.396a2.188 2.188 0 00.179 4.366c.066 0 .123-.004.189-.008 9.708-.814 19.503-4.45 19.503-10.754v-43.75c0-7.105-12.398-10.937-24.062-10.937zm0 17.5c-12.018 0-19.688-3.89-19.688-6.563 0-2.673 7.67-6.563 19.688-6.563 12.018 0 19.687 3.89 19.687 6.563 0 2.673-7.669 6.563-19.687 6.563z"/><path d="M324.146 166.438c-11.664 0-24.063 3.832-24.063 10.937v17.5c0 7.105 12.399 10.937 24.063 10.937s24.062-3.832 24.062-10.937v-17.5c0-7.105-12.398-10.937-24.062-10.937zm19.687 28.437c0 2.673-7.669 6.563-19.687 6.563s-19.688-3.89-19.688-6.563v-2.279c4.642 2.927 12.307 4.466 19.688 4.466 7.38 0 15.045-1.539 19.687-4.466v2.279zm0-8.75c0 2.673-7.669 6.563-19.687 6.563s-19.688-3.89-19.688-6.563v-2.279c4.642 2.927 12.307 4.466 19.688 4.466 7.38 0 15.045-1.539 19.687-4.466v2.279zm-19.687-2.187c-12.018 0-19.688-3.89-19.688-6.563 0-2.673 7.67-6.563 19.688-6.563 12.018 0 19.687 3.89 19.687 6.563 0 2.673-7.669 6.563-19.687 6.563z"/></g><g clip-path="url(#clip1)"><path d="M170.106 75.999c.067-8.283 6.836-14.945 15.12-14.878 8.284.067 14.945 6.837 14.878 15.12-.066 8.283-6.836 14.945-15.12 14.878-8.283-.067-14.944-6.836-14.878-15.12zm15.774 6.255l5.346-5.26a.919.919 0 00.249-.823.923.923 0 00-.236-.826L185.979 70a.937.937 0 10-1.336 1.315l3.832 3.896-9.924-.08a.937.937 0 10-.015 1.874l9.923.08-3.894 3.832a.937.937 0 001.315 1.338z" fill="#ECECEC"/></g><defs><clipPath id="clip0"><path fill="#fff" transform="translate(300.083 138)" d="M0 0h70v70H0z"/></clipPath><clipPath id="clip1"><path fill="#fff" transform="scale(-1 1) rotate(89.538 -115.86 -55.302)" d="M0 0h29.999v29.999H0z"/></clipPath></defs></svg>