<svg width="54" height="14" fill="none" xmlns="http://www.w3.org/2000/svg"><g clip-path="url(#clip0_603_4)"><path d="M53.696 6.372a.998.998 0 00.254-1.03.998.998 0 00-.81-.683l-3.39-.492a.443.443 0 01-.334-.243L47.9.853a.998.998 0 00-.9-.56.998.998 0 00-.9.56l-1.516 3.072a.443.443 0 01-.334.242l-3.39.493a.998.998 0 00-.81.683.998.998 0 00.254 1.03l2.452 2.39a.444.444 0 01.128.392l-.578 3.376a.983.983 0 00.218.814c.3.355.821.464 1.238.244l3.032-1.594a.454.454 0 01.412 0l3.032 1.595a.993.993 0 00.467.116 1.007 1.007 0 00.99-1.175l-.58-3.376a.444.444 0 01.128-.392l2.453-2.391z" fill="#F2C317"/></g><path d="M33.696 6.372a.998.998 0 00.254-1.03.998.998 0 00-.81-.683l-3.39-.492a.443.443 0 01-.334-.243L27.9.853a.998.998 0 00-.9-.56.998.998 0 00-.9.56l-1.516 3.072a.443.443 0 01-.334.242l-3.39.493a.998.998 0 00-.81.683.998.998 0 00.254 1.03l2.452 2.39a.444.444 0 01.128.392l-.579 3.376a.983.983 0 00.22.814c.298.355.82.464 1.237.244l3.032-1.594a.454.454 0 01.412 0l3.032 1.595a.993.993 0 00.467.116 1.007 1.007 0 00.99-1.175l-.58-3.376a.444.444 0 01.129-.392l2.452-2.391z" fill="#F2C317"/><g clip-path="url(#clip1_603_4)"><path d="M13.696 6.372a.998.998 0 00.254-1.03.998.998 0 00-.81-.683l-3.39-.492a.443.443 0 01-.334-.243L7.9.853a.998.998 0 00-.9-.56.998.998 0 00-.9.56L4.584 3.925a.443.443 0 01-.334.242L.86 4.66a.998.998 0 00-.81.683.998.998 0 00.254 1.03l2.452 2.39a.444.444 0 01.128.392l-.579 3.376a.983.983 0 00.22.814c.298.355.82.464 1.237.244l3.032-1.594a.454.454 0 01.412 0l3.032 1.595a.993.993 0 00.467.116 1.007 1.007 0 00.99-1.175l-.58-3.376a.444.444 0 01.128-.392l2.453-2.391z" fill="#ECECEC"/></g><defs><clipPath id="clip0_603_4"><path fill="#fff" transform="translate(40)" d="M0 0h14v14H0z"/></clipPath><clipPath id="clip1_603_4"><path fill="#fff" d="M0 0h14v14H0z"/></clipPath></defs></svg>