<?xml version="1.0" encoding="utf-8"?><svg viewBox="0 0 26 22" xmlns="http://www.w3.org/2000/svg" xmlns:xlink="http://www.w3.org/1999/xlink"><style>:root>svg{display:none}:root>svg:target{display:block}</style><svg fill="none" viewBox="0 0 14 14" id="arrow" xmlns="http://www.w3.org/2000/svg"><path d="M7.222 12.333L12.555 7 7.223 1.667M1.889 7h10.667" stroke="#1E73BE" stroke-width="2" stroke-linecap="round" stroke-linejoin="round"/></svg><svg fill="none" viewBox="0 0 26 22" id="cloud" xmlns="http://www.w3.org/2000/svg"><path d="M8.432 16.17l4.242 4.331 4.241-4.33M12.674 10.757v9.745" stroke="#fff" stroke-width="2" stroke-linecap="round" stroke-linejoin="round"/><path d="M22.09 17.35a5.405 5.405 0 001.974-2.696c.36-1.09.37-2.27.03-3.367a5.41 5.41 0 00-1.924-2.734 5.229 5.229 0 00-3.134-1.044H17.7a8.727 8.727 0 00-1.745-3.447 8.5 8.5 0 00-3.045-2.324 8.33 8.33 0 00-7.403.272 8.537 8.537 0 00-2.873 2.54 8.757 8.757 0 00-1.498 3.567 8.838 8.838 0 00.177 3.876 8.717 8.717 0 001.817 3.409" stroke="#fff" stroke-width="2" stroke-linecap="round" stroke-linejoin="round"/></svg></svg>