<svg width="18" height="18" fill="none" xmlns="http://www.w3.org/2000/svg"><path d="M15.363 2.635a9 9 0 10-12.726 12.73 9 9 0 0012.726-12.73zm-1.733 9.901l-.001.002v-.003l-.456.453a2.4 2.4 0 01-2.265.648 7.973 7.973 0 01-2.316-1.038 10.7 10.7 0 01-1.827-1.473A10.782 10.782 0 015.4 9.469a8.399 8.399 0 01-1.026-2.076 2.4 2.4 0 01.6-2.451l.534-.534c.148-.15.39-.15.538-.002l.002.002 1.686 1.686c.149.148.15.39 0 .538v.002l-.99.99a.807.807 0 00-.084 1.05c.358.491.754.953 1.185 1.383.48.482 1.002.92 1.56 1.31a.813.813 0 001.038-.09l.957-.971c.148-.15.39-.15.538-.001h.002l1.689 1.693c.149.148.15.39 0 .538z" fill="#F2C317"/></svg>