<svg width="48" height="46" viewBox="0 0 48 46" fill="none" xmlns="http://www.w3.org/2000/svg">
<path d="M15.0568 8.52568L13.0682 6.53687L8.4375 11.1676L6.61931 9.34937L4.63069 11.3382L8.4375 15.145L15.0568 8.52568Z" fill="#4D8230"/>
<path d="M31.125 17.375V8.9375H19.5866C18.9022 4.17341 14.7941 0.5 9.84375 0.5C4.41591 0.5 0 4.91591 0 10.3438C0 13.0197 1.07381 15.4492 2.8125 17.2254V37.0625H8.4375V42.6875H14.3044C14.8849 44.3243 16.448 45.5 18.2812 45.5C20.1145 45.5 21.6776 44.3243 22.2581 42.6875H34.1794C34.7599 44.3243 36.323 45.5 38.1562 45.5C39.9895 45.5 41.5526 44.3243 42.1331 42.6875H48V23.8238L41.5512 17.375H31.125ZM9.84375 3.3125C13.7208 3.3125 16.875 6.46672 16.875 10.3438C16.875 14.2208 13.7208 17.375 9.84375 17.375C5.96672 17.375 2.8125 14.2208 2.8125 10.3438C2.8125 6.46672 5.96672 3.3125 9.84375 3.3125ZM5.625 19.2364C6.90441 19.8458 8.33484 20.1875 9.84375 20.1875C14.7941 20.1875 18.9022 16.5141 19.5866 11.75H28.3125V34.25H5.625V19.2364ZM18.2812 42.6875C17.5058 42.6875 16.875 42.0567 16.875 41.2812C16.875 40.5058 17.5058 39.875 18.2812 39.875C19.0567 39.875 19.6875 40.5058 19.6875 41.2812C19.6875 42.0567 19.0567 42.6875 18.2812 42.6875ZM38.1562 42.6875C37.3808 42.6875 36.75 42.0567 36.75 41.2812C36.75 40.5058 37.3808 39.875 38.1562 39.875C38.9317 39.875 39.5625 40.5058 39.5625 41.2812C39.5625 42.0567 38.9317 42.6875 38.1562 42.6875ZM42.1331 39.875C41.5526 38.2382 39.9895 37.0625 38.1562 37.0625C36.323 37.0625 34.7599 38.2382 34.1794 39.875H22.2581C21.6776 38.2382 20.1145 37.0625 18.2812 37.0625C16.448 37.0625 14.8849 38.2382 14.3044 39.875H11.25V37.0625H31.125V20.1875H33.9375V31.4375H45.1875V34.25H42.375V37.0625H45.1875V39.875H42.1331ZM45.1875 28.625H36.75V20.1875H40.3863L45.1875 24.9887V28.625Z" fill="#4D8230"/>
</svg>
