<svg width="40" height="46" viewBox="0 0 40 46" fill="none" xmlns="http://www.w3.org/2000/svg">
<path d="M35.651 3.5H29V2C29 1.60218 28.842 1.22064 28.5607 0.93934C28.2794 0.658035 27.8978 0.5 27.5 0.5H12.5C12.1022 0.5 11.7206 0.658035 11.4393 0.93934C11.158 1.22064 11 1.60218 11 2V3.5H4.349C3.32855 3.50119 2.35023 3.90709 1.62866 4.62866C0.907092 5.35023 0.501191 6.32855 0.5 7.349V41.651C0.501191 42.6715 0.907092 43.6498 1.62866 44.3713C2.35023 45.0929 3.32855 45.4988 4.349 45.5H35.651C36.6715 45.4988 37.6498 45.0929 38.3713 44.3713C39.0929 43.6498 39.4988 42.6715 39.5 41.651V7.349C39.4988 6.32855 39.0929 5.35023 38.3713 4.62866C37.6498 3.90709 36.6715 3.50119 35.651 3.5ZM14 3.5H26V6.5H14V3.5ZM36.5 41.651C36.4996 41.876 36.41 42.0918 36.2509 42.2509C36.0918 42.41 35.876 42.4996 35.651 42.5H4.349C4.12395 42.4996 3.90824 42.41 3.7491 42.2509C3.58997 42.0918 3.5004 41.876 3.5 41.651V7.349C3.5004 7.12395 3.58997 6.90824 3.7491 6.7491C3.90824 6.58997 4.12395 6.5004 4.349 6.5H11V8C11 8.39782 11.158 8.77936 11.4393 9.06066C11.7206 9.34196 12.1022 9.5 12.5 9.5H27.5C27.8978 9.5 28.2794 9.34196 28.5607 9.06066C28.842 8.77936 29 8.39782 29 8V6.5H35.651C35.876 6.5004 36.0918 6.58997 36.2509 6.7491C36.41 6.90824 36.4996 7.12395 36.5 7.349V41.651Z" fill="#4D8230"/>
<path d="M14.4395 12.9396L11 16.3791L9.0605 14.4396C8.92213 14.2964 8.75661 14.1821 8.57361 14.1035C8.3906 14.0249 8.19377 13.9835 7.9946 13.9817C7.79543 13.98 7.59791 14.018 7.41357 14.0934C7.22922 14.1688 7.06175 14.2802 6.92091 14.421C6.78007 14.5619 6.66869 14.7293 6.59327 14.9137C6.51785 15.098 6.47989 15.2956 6.48162 15.4947C6.48335 15.6939 6.52473 15.8907 6.60335 16.0737C6.68196 16.2567 6.79623 16.4223 6.9395 16.5606L9.9395 19.5606C10.2208 19.8418 10.6023 19.9998 11 19.9998C11.3977 19.9998 11.7792 19.8418 12.0605 19.5606L16.5605 15.0606C16.8337 14.7777 16.9849 14.3988 16.9815 14.0055C16.9781 13.6122 16.8203 13.236 16.5422 12.9579C16.2641 12.6798 15.8879 12.522 15.4946 12.5186C15.1013 12.5152 14.7224 12.6664 14.4395 12.9396Z" fill="#4D8230"/>
<path d="M32 15.5H21.5C21.1022 15.5 20.7206 15.658 20.4393 15.9393C20.158 16.2206 20 16.6022 20 17C20 17.3978 20.158 17.7794 20.4393 18.0607C20.7206 18.342 21.1022 18.5 21.5 18.5H32C32.3978 18.5 32.7794 18.342 33.0607 18.0607C33.342 17.7794 33.5 17.3978 33.5 17C33.5 16.6022 33.342 16.2206 33.0607 15.9393C32.7794 15.658 32.3978 15.5 32 15.5Z" fill="#4D8230"/>
<path d="M14.4395 21.9396L11 25.3791L9.0605 23.4396C8.92213 23.2964 8.75661 23.1821 8.57361 23.1035C8.3906 23.0249 8.19377 22.9835 7.9946 22.9817C7.79543 22.98 7.59791 23.018 7.41357 23.0934C7.22922 23.1688 7.06175 23.2802 6.92091 23.421C6.78007 23.5619 6.66869 23.7293 6.59327 23.9137C6.51785 24.098 6.47989 24.2956 6.48162 24.4947C6.48335 24.6939 6.52473 24.8907 6.60335 25.0737C6.68196 25.2567 6.79623 25.4223 6.9395 25.5606L9.9395 28.5606C10.2208 28.8418 10.6023 28.9998 11 28.9998C11.3977 28.9998 11.7792 28.8418 12.0605 28.5606L16.5605 24.0606C16.8337 23.7777 16.9849 23.3988 16.9815 23.0055C16.9781 22.6122 16.8203 22.236 16.5422 21.9579C16.2641 21.6798 15.8879 21.522 15.4946 21.5186C15.1013 21.5152 14.7224 21.6664 14.4395 21.9396Z" fill="#4D8230"/>
<path d="M32 24.5H21.5C21.1022 24.5 20.7206 24.658 20.4393 24.9393C20.158 25.2206 20 25.6022 20 26C20 26.3978 20.158 26.7794 20.4393 27.0607C20.7206 27.342 21.1022 27.5 21.5 27.5H32C32.3978 27.5 32.7794 27.342 33.0607 27.0607C33.342 26.7794 33.5 26.3978 33.5 26C33.5 25.6022 33.342 25.2206 33.0607 24.9393C32.7794 24.658 32.3978 24.5 32 24.5Z" fill="#4D8230"/>
<path d="M14.4395 30.9394L11 34.3789L9.0605 32.4394C8.92213 32.2961 8.75661 32.1818 8.57361 32.1032C8.3906 32.0246 8.19377 31.9832 7.9946 31.9815C7.79543 31.9798 7.59791 32.0177 7.41357 32.0931C7.22922 32.1686 7.06175 32.2799 6.92091 32.4208C6.78007 32.5616 6.66869 32.7291 6.59327 32.9134C6.51785 33.0978 6.47989 33.2953 6.48162 33.4945C6.48335 33.6936 6.52473 33.8905 6.60335 34.0735C6.68196 34.2565 6.79623 34.422 6.9395 34.5604L9.9395 37.5604C10.2208 37.8416 10.6023 37.9996 11 37.9996C11.3977 37.9996 11.7792 37.8416 12.0605 37.5604L16.5605 33.0604C16.8337 32.7775 16.9849 32.3986 16.9815 32.0053C16.9781 31.612 16.8203 31.2358 16.5422 30.9577C16.2641 30.6795 15.8879 30.5218 15.4946 30.5184C15.1013 30.5149 14.7224 30.6661 14.4395 30.9394Z" fill="#4D8230"/>
<path d="M32 33.5H21.5C21.1022 33.5 20.7206 33.658 20.4393 33.9393C20.158 34.2206 20 34.6022 20 35C20 35.3978 20.158 35.7794 20.4393 36.0607C20.7206 36.342 21.1022 36.5 21.5 36.5H32C32.3978 36.5 32.7794 36.342 33.0607 36.0607C33.342 35.7794 33.5 35.3978 33.5 35C33.5 34.6022 33.342 34.2206 33.0607 33.9393C32.7794 33.658 32.3978 33.5 32 33.5Z" fill="#4D8230"/>
</svg>
