<svg width="48" height="48" viewBox="0 0 48 48" fill="none" xmlns="http://www.w3.org/2000/svg">
<path d="M45.341 19.9837C44.3827 19.3915 43.3159 19.271 42.375 19.3636V18.375C42.375 8.26884 34.1049 0 24 0C13.8938 0 5.625 8.27006 5.625 18.375V19.3636C4.68412 19.2709 3.61725 19.3915 2.65903 19.9837C0.894563 21.0743 0 23.3718 0 26.8125C0 30.2589 0.89625 32.5687 2.66391 33.6776C3.54197 34.2285 4.56741 34.4198 5.625 34.3289V35.3438C5.625 36.1204 6.25462 36.75 7.03125 36.75H12.6562C13.4329 36.75 14.0625 36.1204 14.0625 35.3438V18.375C14.0625 17.5984 13.4329 16.9688 12.6562 16.9688H8.50172C9.21497 9.04416 15.8929 2.8125 24 2.8125C32.1071 2.8125 38.785 9.04416 39.4983 16.9688H35.3438C34.5671 16.9688 33.9375 17.5984 33.9375 18.375V35.3438C33.9375 36.1204 34.5671 36.75 35.3438 36.75H39.5625V38.1562C39.5625 40.4825 37.67 42.375 35.3438 42.375H30.7894C30.2089 40.7383 28.6458 39.5625 26.8125 39.5625H24C21.6738 39.5625 19.7812 41.455 19.7812 43.7812C19.7812 46.1075 21.6738 48 24 48H26.8125C28.6458 48 30.2089 46.8242 30.7894 45.1875H35.3438C39.2208 45.1875 42.375 42.0333 42.375 38.1562C42.375 36.4433 42.375 35.4404 42.375 34.3288C43.4327 34.4198 44.4582 34.2283 45.3361 33.6775C47.1037 32.5687 48 30.2589 48 26.8125C48 23.3718 47.1054 21.0743 45.341 19.9837ZM5.625 31.4982C5.17631 31.5763 4.6155 31.5817 4.15856 31.2951C3.29053 30.7506 2.8125 29.1586 2.8125 26.8125C2.8125 24.4889 3.27984 22.9154 4.12838 22.382C4.58719 22.0935 5.16525 22.114 5.625 22.2048V31.4982ZM11.25 19.7812V33.9375H8.4375V19.7812H11.25ZM26.8125 45.1875H24C23.2246 45.1875 22.5938 44.5567 22.5938 43.7812C22.5938 43.0058 23.2246 42.375 24 42.375H26.8125C27.5879 42.375 28.2188 43.0058 28.2188 43.7812C28.2188 44.5567 27.5879 45.1875 26.8125 45.1875ZM39.5625 33.9375H36.75V19.7812H39.5625V33.9375ZM43.8515 31.2888C43.397 31.5789 42.83 31.5733 42.375 31.4945V22.2049C42.8348 22.1141 43.4127 22.0936 43.8716 22.3821C44.7202 22.9154 45.1875 24.4889 45.1875 26.8125C45.1875 29.149 44.7129 30.7388 43.8515 31.2888Z" fill="#4D8230"/>
</svg>
