<svg width="24" height="24" viewBox="0 0 24 24" fill="none" xmlns="http://www.w3.org/2000/svg">
<g clip-path="url(#clip0_30_552)">
<path d="M15.1188 3.8183L16.444 2.49316L18.7864 4.83563L22.6749 0.947021L24 2.27216L18.7864 7.48572L15.1188 3.8183ZM22.5648 6.3576C23.4935 8.08191 23.9866 10.0195 23.9866 12.0331C23.9866 15.2368 22.7391 18.2485 20.4739 20.5139C18.2087 22.7791 15.1968 24.0103 11.9934 24.0103C8.78979 24.0103 5.77808 22.7791 3.5127 20.5139C1.2475 18.2485 0 15.2368 0 12.0331C0 8.82971 1.2475 5.81781 3.5127 3.55261C5.77808 1.28741 8.78979 0.0234375 11.9934 0.0234375C13.2618 0.0234375 14.4999 0.236206 15.6738 0.613037L14.1427 2.14435C13.4496 1.99384 12.7308 1.91382 11.9934 1.91382C6.41345 1.91382 1.8739 6.45337 1.8739 12.0331C1.8739 14.5858 2.82458 16.9206 4.38959 18.7028C4.93414 16.2662 6.62274 14.257 8.86029 13.2702C7.92609 12.4184 7.33887 11.1921 7.33887 9.8313C7.33887 7.26489 9.42682 5.17676 11.9934 5.17676C14.5598 5.17676 16.6478 7.26471 16.6478 9.8313C16.6478 11.1921 16.0607 12.4184 15.1265 13.2702C17.3639 14.257 19.0527 16.2662 19.597 18.7028C21.1622 16.9204 22.1127 14.5858 22.1127 12.0331C22.1127 10.5064 21.7722 9.05768 21.1641 7.75836L22.5648 6.3576ZM11.9934 12.6118C13.5266 12.6118 14.7739 11.3644 14.7739 9.8313C14.7739 8.29797 13.5266 7.05066 11.9934 7.05066C10.4601 7.05066 9.21277 8.29797 9.21277 9.8313C9.21277 11.3644 10.4601 12.6118 11.9934 12.6118ZM11.9934 22.1526C14.1998 22.1526 16.2433 21.4422 17.9081 20.2388C17.8209 17.0517 15.2012 14.4857 11.9934 14.4857C8.78558 14.4857 6.16571 17.0517 6.07874 20.2388C7.74353 21.4422 9.7868 22.1526 11.9934 22.1526Z" fill="#4D8230"/>
</g>
<defs>
<clipPath id="clip0_30_552">
<rect width="24" height="23.9531" fill="white"/>
</clipPath>
</defs>
</svg>
