<svg width="24" height="24" viewBox="0 0 24 24" fill="none" xmlns="http://www.w3.org/2000/svg">
<path d="M12.0438 24C10.493 24 9.23132 22.7383 9.23132 21.1875C9.37275 17.4615 14.7155 17.4625 14.8563 21.1875C14.8563 22.7383 13.5946 24 12.0438 24ZM12.0438 20.25C11.5269 20.25 11.1063 20.6706 11.1063 21.1875C11.1535 22.4295 12.9344 22.4292 12.9813 21.1875C12.9813 20.6706 12.5608 20.25 12.0438 20.25ZM23.0594 22.125H17.6688C16.428 22.0798 16.4256 20.2963 17.6688 20.25H23.0594C23.5772 20.25 23.9969 20.6697 23.9969 21.1875C23.9969 21.7053 23.5772 22.125 23.0594 22.125ZM6.32507 22.125H0.934448C-0.306334 22.0798 -0.308818 20.2963 0.934448 20.25H6.32507C6.84285 20.25 7.26257 20.6697 7.26257 21.1875C7.26257 21.7053 6.84285 22.125 6.32507 22.125ZM19.5441 19.1252C19.171 19.1252 18.8182 18.901 18.6723 18.5331C18.4814 18.0518 18.7169 17.5068 19.1982 17.316L21.917 16.2379C23.0877 15.8227 23.7464 17.4799 22.6081 17.9809L19.8894 19.059C19.776 19.104 19.6591 19.1252 19.5441 19.1252ZM4.44979 19.1252C4.33476 19.1252 4.2179 19.104 4.10446 19.059L1.38571 17.9808C0.248666 17.481 0.904635 15.8227 2.07693 16.2379L4.79568 17.316C5.27699 17.5069 5.51245 18.0518 5.32157 18.5331C5.1757 18.901 4.82287 19.1252 4.44979 19.1252ZM7.9657 18.1406C7.72575 18.1406 7.48584 18.0491 7.30279 17.866L3.50592 14.0692C2.66067 13.1601 3.91968 11.8968 4.83173 12.7433L8.6286 16.5402C9.21937 17.1271 8.78911 18.1459 7.9657 18.1406ZM12.0438 16.5C11.526 16.5 11.1063 16.0803 11.1063 15.5625V0.9375C11.1063 0.419719 11.526 0 12.0438 0C12.5616 0 12.9813 0.419719 12.9813 0.9375V15.5625C12.9813 16.0803 12.5616 16.5 12.0438 16.5ZM15.0435 14.5784C14.3964 14.5899 13.9174 13.8891 14.1744 13.2898L15.2526 10.6179C15.7592 9.48384 17.4136 10.1498 16.9913 11.3196L15.9132 13.9914C15.7658 14.3566 15.4145 14.5784 15.0435 14.5784ZM16.0282 18.1406C15.2057 18.1455 14.7738 17.1283 15.3653 16.5402L19.1622 12.7433C20.0713 11.8981 21.3345 13.1571 20.488 14.0692L16.6911 17.866C16.5081 18.0491 16.2682 18.1406 16.0282 18.1406ZM8.9505 14.5784C8.58586 14.5784 8.23921 14.3644 8.08739 14.0077L6.21239 9.60145C5.76825 8.44214 7.40821 7.74136 7.93771 8.8673L9.81271 13.2735C10.0842 13.8736 9.6044 14.5912 8.9505 14.5784ZM4.91882 6C4.91882 6.51778 5.33854 6.9375 5.85632 6.9375C7.09856 6.89156 7.09823 5.10825 5.85632 5.0625C5.33854 5.0625 4.91882 5.48222 4.91882 6ZM21.4188 10.6875C21.4188 11.2053 21.8385 11.625 22.3563 11.625C23.5986 11.5791 23.5982 9.79575 22.3563 9.75C21.8385 9.75 21.4188 10.1697 21.4188 10.6875Z" fill="#4D8230"/>
</svg>
