<svg width="270" height="262" viewBox="0 0 270 262" fill="none" xmlns="http://www.w3.org/2000/svg">
<path fill-rule="evenodd" clip-rule="evenodd" d="M270 124.132C269.794 120.42 269.588 116.709 269.381 113.203C269.381 112.378 269.175 111.347 269.175 110.523C268.969 109.698 268.969 108.873 268.763 108.048C268.557 106.399 268.35 104.749 268.144 103.1C267.319 101.862 267.526 96.9136 265.876 95.8826C265.876 94.0268 265.67 93.202 264.845 91.5524C266.082 91.9648 264.433 89.4904 265.257 89.6966C264.433 88.2532 264.845 86.1912 264.02 85.7788C264.433 87.8408 265.257 89.078 264.639 89.9028C264.226 87.8408 263.402 85.985 263.608 84.5416C262.989 83.0982 261.34 80.4176 261.546 79.1804C260.721 79.3866 261.133 77.3247 260.309 76.7061C259.896 76.7061 260.102 77.3247 259.896 76.9123C259.071 75.8813 259.278 74.0255 258.453 72.9945C258.659 73.4069 258.659 73.8193 258.453 73.8193C258.04 72.9945 258.453 72.7883 257.834 71.7573C257.216 71.9635 258.04 73.2007 258.04 73.8193C258.865 74.2317 260.309 77.9432 260.102 78.5618C259.484 77.5308 258.865 77.3246 259.071 76.0875C258.453 76.0875 259.071 76.9123 258.659 76.9123C259.071 77.9432 259.69 77.737 259.896 78.9742C259.484 78.9742 258.865 78.3556 258.453 78.1494C258.865 79.3866 259.484 78.768 259.896 79.799C259.69 80.2114 259.071 78.9742 259.278 80.0052C259.484 80.0052 259.484 80.2114 259.69 80.4176C259.484 80.4176 259.484 80.4176 259.278 80.4176C259.071 80.6238 258.865 80.6238 258.659 80.83C258.659 80.6238 258.865 80.6238 258.865 80.6238C258.247 79.799 258.453 79.5928 258.247 78.768C257.834 78.9742 258.247 80.4176 258.453 81.0362C258.04 81.2424 257.628 81.4486 257.009 81.6548C257.009 81.6548 256.803 81.6548 256.803 81.4486C256.803 81.2424 256.597 80.83 256.597 80.6238C256.597 80.2114 256.597 80.0052 256.185 79.5928C255.772 78.5618 255.566 77.737 255.978 77.1184C254.947 76.4998 253.71 72.3759 253.71 71.1387C253.298 71.1387 252.885 70.7263 252.473 69.9015C252.473 69.6953 252.473 69.4891 252.473 69.0767C252.473 68.6643 252.267 68.6643 251.854 68.6643C251.648 68.0457 251.442 67.6333 251.648 67.4271C251.236 67.0147 250.617 66.3961 250.205 65.9837C249.999 65.5713 249.792 65.1589 249.792 64.7465C249.792 64.7465 249.792 64.7465 249.999 64.7465C249.38 63.3031 248.761 62.0659 247.937 60.8287C246.493 57.9419 244.638 55.2613 242.782 52.787C242.163 51.5498 241.338 50.5188 240.72 49.0754C240.514 49.2816 240.307 49.0754 239.895 48.8692C239.689 47.632 238.452 46.1886 237.214 44.9514C237.008 44.1266 236.596 43.0956 235.977 42.2708C235.977 42.2708 235.977 42.0646 236.183 42.0646C235.771 41.6522 235.565 41.446 235.565 41.446C235.359 41.2398 235.152 41.0336 234.946 40.8274C234.121 40.0026 233.297 38.9716 232.678 38.1468C231.853 37.322 231.028 36.4972 230.616 35.4662C228.76 32.5795 226.904 29.4865 224.842 26.8059C222.574 24.1253 220.306 21.4447 217.007 19.7951C216.388 19.1765 216.388 20.2075 215.77 19.7951C213.914 17.9393 211.439 16.4959 208.759 14.6401C206.078 12.9905 203.398 11.3409 200.923 9.89756C197.418 7.62937 194.325 4.94878 190.407 3.50538C188.139 2.68059 186.077 2.26819 184.015 2.06199C181.953 1.85579 180.303 2.06199 178.448 2.68059C174.942 1.23719 170.2 2.88679 167.107 0.412398C166.282 0.412398 166.282 1.2372 165.045 0.824797C164.22 0.618598 164.22 0.206199 163.807 0C162.776 1.031 163.189 1.031 162.57 1.64959C165.251 1.85579 166.282 2.26819 168.756 2.06199C169.375 2.26819 169.581 2.68059 170.406 2.88679C175.767 2.88679 182.159 3.50538 188.964 5.77357C195.356 8.04176 200.923 12.7843 205.666 14.0215C206.491 14.6401 205.666 15.2587 206.078 15.8773C208.759 16.4959 209.79 18.9703 212.264 20.4137C214.12 21.6509 216.182 21.8571 218.244 23.3005C220.1 24.9501 221.543 26.3935 222.78 28.0431C224.018 29.6927 225.461 31.5485 227.317 33.6104C227.317 33.8166 227.317 33.8166 227.317 34.0228C226.286 33.1981 225.667 32.5795 224.224 31.3423C224.43 30.9299 225.049 31.9609 225.255 31.7547C224.224 30.7237 223.193 29.8989 222.368 29.2803C221.543 28.4555 220.925 27.8369 220.306 26.5997C219.894 27.2183 218.656 25.9811 218.038 26.1873C219.275 27.4245 220.925 28.8679 220.925 30.3113C219.687 29.6927 219.894 28.4555 219.069 28.4555C219.894 29.8989 220.718 30.7237 221.956 31.5485C222.987 32.3733 224.224 33.198 225.461 34.6414C225.255 34.8476 225.049 34.8476 224.842 34.8476C225.461 36.0848 226.698 36.7034 227.729 37.5282C227.935 37.9406 228.142 38.1468 228.348 38.5592C228.142 38.5592 227.935 38.353 227.729 38.353C227.935 38.7654 228.142 39.1778 228.348 39.5902C228.142 39.384 227.935 39.384 227.935 39.384C228.142 39.5902 228.348 39.7964 228.554 40.0026C228.554 40.2088 228.554 40.415 228.554 40.6212C226.904 39.7964 225.461 39.384 223.811 38.9716C223.605 38.5592 223.399 38.353 223.399 37.9406L222.987 38.353C223.193 38.5592 223.399 38.7654 223.399 38.7654C223.193 38.7654 222.987 38.7654 222.78 38.5592C222.78 38.5592 222.574 38.353 222.574 38.1468C222.78 37.9406 222.368 37.1158 222.162 37.7344C222.368 37.9406 222.574 38.1468 222.368 38.353C221.956 38.1468 221.337 37.9406 220.925 37.5282C220.512 37.1158 220.306 36.291 219.894 35.8786C219.275 35.26 217.832 35.26 217.419 35.8786C217.213 36.0848 217.213 36.291 217.007 36.7034C216.594 36.4972 215.976 36.0848 215.563 35.8786C215.77 35.0538 215.563 34.0228 215.151 33.198C215.151 32.9918 214.739 32.9919 214.532 32.9919L214.326 33.198C214.326 33.198 214.326 33.1981 214.326 33.4043C213.708 33.1981 212.883 32.5795 212.677 31.7547C212.47 31.9609 212.47 32.1671 212.47 32.5795C213.089 32.9919 213.501 33.1981 214.12 33.8167V34.0228C214.326 34.4352 214.532 34.6414 214.739 35.0538C213.295 33.6104 211.852 32.5795 210.615 31.5485C210.202 31.3423 209.996 31.1361 209.79 30.9299C209.79 30.9299 209.79 30.9299 209.996 30.7237C209.996 30.5175 209.79 30.5175 209.79 30.3113L209.584 30.5175C208.553 29.8989 207.728 29.4865 206.697 29.0741C206.284 28.6617 206.078 28.4555 205.872 28.0431C205.46 27.8369 205.253 27.6307 204.841 27.4245C199.48 22.4757 192.263 17.7331 184.427 14.0215C175.973 10.1038 166.694 7.62937 159.065 6.80457C157.415 5.97977 155.766 5.36118 153.91 4.94878C152.054 4.53638 150.198 4.33018 147.93 4.33018C145.456 2.26819 140.919 1.85579 136.383 2.06199C135.352 2.06199 134.115 2.26819 133.084 2.26819C132.053 2.26819 131.022 2.47439 129.991 2.47439C127.929 2.47439 126.279 2.47439 125.042 2.06199C122.774 4.74258 115.557 4.12398 113.083 3.29919C112.67 4.33018 111.639 4.74258 110.402 4.94878C109.165 5.15498 107.721 5.15498 106.484 4.94878C106.484 4.53638 108.134 3.71158 106.278 4.12398C105.453 4.12398 105.453 4.74258 105.041 4.94878C104.216 4.53638 102.979 4.33018 102.36 3.71158C100.711 3.91778 100.504 4.53638 98.8548 4.74258C99.2672 4.12398 99.2672 3.50538 100.298 3.09299C102.566 2.06199 103.185 2.88679 104.422 2.88679C104.216 2.26819 103.391 2.26819 104.628 1.85579C105.453 3.29919 107.515 0.824796 108.959 2.06199C108.134 2.26819 107.515 2.47439 107.309 2.88679C108.959 2.26819 111.021 1.64959 112.464 1.2372C112.051 1.2372 111.227 1.23719 112.052 1.031C103.804 0.618597 96.1742 2.26819 88.9572 4.74258C81.7402 7.21697 74.9357 10.9286 68.1311 15.0525C67.1001 14.8463 65.4505 15.6711 64.0071 16.2897C60.5017 19.3827 57.6149 21.2385 58.2335 24.1253C62.5637 21.0323 65.8629 17.9393 73.9047 14.0215C75.7605 13.8153 77.6163 14.0215 78.441 15.2587C72.6675 18.9703 65.4505 21.2385 60.5017 25.7749C59.8831 26.3935 59.6769 27.0121 59.0583 27.4245C54.7282 30.7237 52.2538 32.1671 49.367 34.4352C43.5934 38.7654 38.6446 44.9514 33.9021 50.3126C32.8711 51.5498 30.8091 51.9622 30.8091 54.0242C32.2525 52.5808 33.6959 51.1374 34.9331 49.694C36.1702 48.2506 37.4074 46.8072 38.026 45.57C39.6756 44.3328 41.7376 42.477 43.7996 40.6212C46.0678 38.7654 48.1298 36.7034 49.9856 35.26C51.0166 34.6414 52.0476 34.0228 53.0786 33.4043C54.1096 32.7857 54.9344 32.1671 55.9654 31.5485C57.8212 30.3113 59.4707 29.0741 61.3265 27.8369C64.8319 25.1563 68.7497 22.4757 74.1109 20.2075C75.3481 21.2385 76.3791 20.2075 78.2349 19.5889C78.8535 21.0323 80.2968 21.0323 82.3588 20.2075C83.1836 19.3827 81.3278 19.5889 82.1526 18.7641C83.3898 18.7641 84.627 18.7641 85.2456 19.5889C84.2146 20.0013 83.1836 20.6199 82.565 20.6199C83.3898 21.6509 85.658 20.4137 86.2766 21.8571C84.4208 22.8881 82.7712 23.9191 81.1217 24.9501C79.4721 26.1873 78.0287 27.2183 76.5853 28.4555C73.6985 30.9299 70.8117 33.198 67.3063 35.0538C66.0691 35.0538 65.0381 34.4352 63.5947 34.8476C63.5947 36.291 66.2753 35.0538 67.3063 35.6724C66.6877 36.7034 65.4505 37.7344 64.4195 38.7654C64.2133 39.1778 63.8009 39.384 63.5947 39.7964H63.3885C62.1513 40.0026 60.7079 40.6212 60.0893 41.8584C60.0893 42.0646 59.8831 42.2708 59.6769 42.477C58.6459 43.3018 57.8212 43.9204 56.9964 44.7452C56.9964 44.7452 56.9964 44.7452 56.7902 44.7452C56.7902 44.9514 56.584 44.9514 56.584 45.1576C56.3778 45.3638 56.1716 45.3638 56.1716 45.57C55.1406 46.3948 53.9034 46.3948 52.46 46.3948C52.0476 46.3948 51.8414 46.601 51.6352 47.0134C51.6352 47.2196 51.429 47.632 51.2228 47.632C50.8104 48.0444 50.398 48.8692 49.5732 48.0444C48.7484 48.2506 48.5422 48.663 48.1298 49.2816C47.7174 50.3126 47.0988 51.1374 45.6554 51.1374C45.4492 51.1374 45.0368 51.1374 44.8306 51.3436C44.0058 52.3746 42.5624 52.9932 42.15 54.4365C41.9438 55.2613 41.119 55.0551 40.5004 55.2613C40.5004 55.4675 40.2942 55.8799 40.088 55.8799C38.026 56.4985 36.5826 57.7357 35.1393 59.1791C34.3145 60.0039 33.6959 60.6225 32.6649 61.2411C31.2215 61.8597 29.5719 62.4783 29.7781 64.5403C29.7781 64.7465 29.3657 65.1589 28.9533 65.5713C28.5409 65.9837 27.9223 66.6023 27.5099 67.0147C27.3037 67.2209 27.0975 67.8395 26.4789 67.2209C26.2727 66.8085 25.4479 66.6023 26.0665 65.9837C26.2727 65.7775 26.2727 65.5713 26.2727 65.1589C26.2727 64.9527 26.0665 64.7465 26.0665 64.3341C25.8603 64.3341 25.8603 64.5403 25.6541 64.5403C24.8293 65.1589 24.2107 66.1899 24.2107 67.2209C24.2107 67.8395 24.4169 68.0457 24.0045 68.4581C23.3859 69.0767 22.7673 69.9015 21.5301 69.9015C20.2929 69.9015 21.1177 70.7263 21.1177 71.1387C20.9115 71.9635 20.4991 73.2007 19.6743 73.4069C18.8495 74.8503 18.4371 75.2627 18.0247 75.8813C18.2309 75.0565 18.4371 74.2317 18.6433 73.6131C20.2929 68.8705 24.4169 63.9217 26.0665 59.3853C28.1285 58.7667 26.4789 57.9419 28.7471 56.2923C28.5409 55.6737 28.1285 54.6427 27.5099 54.8489C27.3037 54.8489 26.8913 55.0551 26.4789 55.2613C25.4479 57.9419 24.0045 59.3853 23.1797 61.8597C18.2309 66.8085 15.5503 72.7883 13.4883 79.1804C13.2822 79.1804 13.076 79.1804 12.8698 79.1804C12.8698 79.3866 13.076 79.5928 13.2822 79.799C13.2822 80.0052 13.2822 80.0052 13.076 80.2114C12.8698 80.83 12.6636 81.4486 12.4574 82.0672C12.045 82.2734 11.8388 82.4796 11.4264 82.6858C10.8078 83.0982 10.1892 83.7168 10.1892 84.5416C10.1892 87.2222 10.1892 87.2222 7.50858 88.8718C7.30238 89.078 7.09618 89.078 6.88998 89.078C6.88998 89.4904 6.47758 89.9028 6.06518 89.9028C6.06518 90.5214 7.09618 91.14 6.06518 91.9648C5.44659 92.3772 5.03419 92.7896 4.62179 93.4082C4.41559 93.6144 4.41559 93.8206 4.20939 94.0268V93.8206C4.20939 94.0268 4.00319 94.233 4.00319 94.4392C3.79699 94.6454 3.59079 94.8516 3.1784 95.0578C2.3536 95.4702 3.1784 96.295 3.3846 96.7074C2.1474 98.3569 3.3846 100.625 1.9412 102.069C1.9412 103.1 2.1474 104.337 1.9412 105.368C1.9412 106.605 1.3226 107.636 1.5288 108.873C1.735 109.904 1.11641 110.316 0.29161 110.729C0.0854104 110.729 -0.120789 111.348 0.0854105 111.348C0.704008 112.172 0.29161 112.997 0.0854105 113.822C1.11641 115.059 0.910207 116.709 0.910207 118.152C0.910207 119.595 1.3226 121.245 0.0854105 122.482C-0.120789 122.688 0.0854105 123.307 0.497809 123.513C1.11641 123.719 1.5288 123.926 1.5288 124.544C1.5288 125.163 1.5288 125.575 1.5288 126.194C1.735 128.462 1.11641 130.73 2.3536 132.998C2.5598 133.205 2.3536 133.823 2.1474 134.236C1.9412 134.648 1.5288 134.854 1.9412 135.267C2.5598 135.885 2.3536 136.71 2.3536 137.535C2.1474 139.184 2.1474 140.009 2.5598 140.834C3.1784 141.865 3.59079 143.102 4.62179 143.927C5.03419 144.339 5.44659 144.752 5.44659 145.164C5.44659 146.401 5.85898 147.639 6.27138 148.67C6.06518 150.732 7.09618 152.587 7.92098 154.443C8.12717 154.649 8.33337 155.062 8.33337 155.062C10.1892 154.649 10.3954 156.299 11.4264 156.711C12.4574 157.33 13.4883 157.742 14.3131 158.155C14.5193 158.567 14.7255 158.979 14.9317 159.598C14.9317 159.804 14.9317 159.804 15.1379 160.01C15.3441 160.423 15.5503 161.041 15.5503 161.454C14.9317 162.072 14.5193 162.691 15.1379 163.722C15.7565 164.753 15.9627 166.196 16.3751 167.434C16.5813 167.846 16.5813 168.258 16.9937 168.465C17.6123 168.671 17.8185 168.877 17.6123 169.496C17.4061 170.114 17.4061 170.939 16.9937 171.351C15.9627 172.382 17.4061 173.001 17.4061 173.826C17.4061 174.238 18.2309 174.238 18.4371 174.032C19.2619 173.413 19.8805 172.795 20.4991 172.176C21.1177 171.558 20.9115 171.145 20.4991 170.527C20.0867 169.289 20.2929 167.846 20.4991 166.403C20.4991 166.196 20.7053 166.196 20.7053 166.196L20.9115 166.403C20.9115 167.434 21.9425 167.846 22.5611 168.671C22.7673 169.083 21.7363 169.702 22.5611 169.908C23.7983 170.32 24.2107 171.145 24.6231 172.176C25.0355 173.413 25.6541 174.651 26.0665 175.888C26.6851 177.331 27.3037 178.568 28.1285 179.806C28.3347 180.218 28.5409 180.63 28.5409 180.837C28.3347 182.28 28.9533 183.311 29.9843 183.93C31.0153 184.754 31.0153 185.785 31.0153 186.816C31.0153 187.435 30.8091 188.26 31.4277 188.672C32.6649 189.703 32.8711 191.147 33.6959 192.384C34.1083 193.002 34.1083 192.178 34.3145 191.971C34.5207 191.765 34.5207 191.559 34.7269 191.353C34.7269 191.559 34.9331 191.559 34.9331 191.765C34.9331 193.415 35.3454 194.858 34.5207 196.508C33.9021 197.539 34.3145 198.776 34.9331 200.013C36.1702 201.869 36.1702 202.281 38.026 202.9C39.4694 203.518 39.8818 203.725 39.8818 205.168C39.8818 206.405 39.8818 207.642 40.9128 208.467C41.119 208.673 41.3252 208.88 41.3252 209.086C41.3252 210.942 42.7686 211.973 43.7996 213.004C44.6244 213.828 45.4492 214.859 46.6864 215.272C47.305 216.509 48.336 217.334 49.1608 218.365C49.9856 219.602 51.8414 219.602 52.2538 221.252C52.2538 221.458 52.6662 221.458 52.8724 221.045C53.0786 220.839 52.8724 220.427 53.0786 220.221C53.0786 220.221 53.0786 220.014 53.2848 220.014C53.9034 220.427 54.7282 221.045 55.3468 221.458C54.9344 221.045 54.3158 220.014 53.6972 219.396V219.19C53.9034 218.571 53.2848 218.365 52.6662 218.159C52.2538 218.159 51.8414 217.746 51.8414 217.334C51.8414 217.128 51.6352 216.921 51.429 216.715H51.6352C51.429 216.509 51.429 216.509 51.2228 216.303C50.6042 215.272 49.367 214.447 48.7484 213.416C48.336 212.591 47.305 211.766 47.305 210.942C47.305 209.911 47.9236 208.88 48.336 208.055C48.5422 207.642 48.5422 207.23 48.7484 207.024C48.7484 206.818 48.9546 206.818 48.9546 206.818C49.367 206.611 49.1608 206.611 49.1608 207.23C49.367 208.261 49.9856 208.467 50.8104 208.467C51.6352 208.467 51.429 208.88 51.2228 209.498C50.8104 210.323 51.8414 209.911 52.2538 210.323C52.46 210.529 52.6662 210.942 52.2538 210.942C51.0166 210.942 51.2228 211.766 51.6352 212.385C51.0166 213.004 51.0166 213.828 51.2228 214.653C51.2228 214.859 51.429 214.859 51.429 215.066C51.429 215.066 51.6352 215.066 51.8414 214.859C52.0476 214.653 52.46 214.241 52.6662 214.035C53.0786 212.385 53.9034 211.766 55.553 211.766C56.1716 212.179 56.7902 212.179 57.2026 212.179C56.9964 212.591 56.9964 213.004 56.9964 213.21C56.9964 213.416 57.2026 213.622 57.4088 213.828C57.615 214.035 57.615 214.447 57.4088 214.859C57.2026 214.653 56.9964 214.653 56.7902 214.447C57.2026 213.828 55.7592 212.385 55.553 213.21C56.9964 213.416 55.553 214.035 55.7592 214.241C56.1716 214.447 56.584 215.066 56.9964 215.478C56.584 216.303 56.1716 217.128 55.9654 217.952C55.553 219.396 55.553 220.633 56.7902 221.664C58.0274 222.489 58.4397 223.726 58.2335 225.169C58.2335 225.582 58.2335 225.994 58.2335 226.407C58.2335 226.613 58.2335 226.819 58.2335 227.025C58.0273 227.025 57.8212 227.025 57.615 226.819C57.8212 227.025 58.0273 227.231 58.4397 227.438C58.4397 227.644 58.4397 227.644 58.4397 227.85C56.7902 227.025 55.1406 225.788 53.491 224.345C52.2538 223.107 50.8104 222.076 49.5732 220.839C48.336 219.602 47.305 218.571 46.0678 217.746C46.4802 218.159 44.8306 217.334 44.4182 216.509C44.4182 217.952 46.8926 220.427 47.0988 222.489C48.1298 223.314 48.7484 224.138 48.7484 224.963C49.1608 225.376 49.5732 225.582 49.7794 225.582C49.367 227.025 55.3468 230.943 54.1096 231.355C55.1406 231.768 56.1716 231.974 57.615 232.799C58.0273 232.593 57.4088 232.18 57.8212 231.974C58.6459 232.386 59.2645 232.799 59.6769 232.593C58.0274 231.562 57.4088 232.18 55.9654 231.355C56.584 230.943 55.9654 230.324 55.1406 230.118C54.3158 230.324 55.9654 230.737 55.553 231.149C55.1406 230.943 55.1406 231.355 54.522 230.943C55.553 230.531 52.2538 229.5 52.0476 228.262C52.2538 228.056 52.46 227.85 52.8724 228.056C54.522 229.706 54.1096 228.469 54.9344 228.675C55.7592 229.087 55.3468 229.5 55.9654 230.118C56.584 229.5 58.0273 230.324 59.0583 231.149C60.5017 231.562 61.9451 231.768 63.3885 231.974L63.5947 232.18C64.4195 232.799 65.2443 233.417 66.2753 234.036C66.4815 234.242 66.6877 234.036 66.8939 233.624C66.8939 232.799 67.3063 231.974 66.6877 231.149C65.8629 230.324 65.2443 229.087 63.8009 229.087C63.3885 229.087 62.9761 228.881 62.7699 228.675C62.5637 228.262 62.1513 227.85 61.9451 227.438H62.1513C61.9451 227.438 61.7389 227.231 61.5327 227.025C61.1203 226.407 60.7079 225.582 60.2955 224.963C60.7079 223.932 61.1203 222.695 61.5327 221.664C61.7389 221.252 61.7389 220.839 61.7389 220.633C61.7389 220.427 61.5327 220.427 61.5327 220.427C60.0893 221.664 59.8831 219.808 59.0583 219.396C58.4397 218.983 58.4397 218.365 58.4397 217.746C59.2645 217.54 59.6769 219.19 60.7079 218.777L60.9141 218.983C61.5327 219.808 62.3575 220.839 63.5947 221.458C64.6257 222.283 65.8629 222.901 66.2753 223.52C66.2753 223.314 66.6877 223.107 66.8939 223.107C67.5125 223.932 70.3993 224.345 68.9559 224.551C69.7807 225.169 70.1931 224.963 70.8117 224.757C68.5435 223.932 66.8939 222.489 65.2443 222.283C65.0381 221.252 63.5947 220.633 62.5637 220.014C62.1513 219.808 61.7389 219.602 61.5327 219.19C61.7389 219.19 61.9451 218.983 62.1513 218.983V218.777C61.9451 218.571 61.7389 218.365 61.7389 218.159C61.5327 217.746 61.5327 217.334 61.9451 217.128C62.3575 216.921 62.7699 216.921 62.9761 217.128C63.1823 217.334 63.5947 217.54 64.0071 217.746C64.0071 218.159 64.0071 218.571 64.2133 218.983C64.4195 219.19 64.8319 219.396 65.2443 219.396C65.8629 219.396 66.2753 219.396 66.8939 219.602C66.6877 219.602 66.2753 219.602 67.1001 220.014C67.3063 220.014 67.7187 220.014 67.9249 220.221C68.1311 220.221 68.1311 220.221 68.1311 220.221C69.7807 220.839 71.4303 222.076 72.6675 222.283C71.8427 221.87 71.2241 221.458 70.6055 220.839C71.0179 220.839 71.4303 220.839 71.8427 220.839L72.0489 220.633C72.0489 220.633 72.0489 220.427 71.8427 220.427C71.2241 220.014 70.6055 220.014 70.1931 220.427C70.1931 220.427 70.1931 220.633 69.9869 220.633C69.5745 220.427 69.1621 220.221 68.7497 219.808C69.1621 219.602 69.5745 219.19 69.9869 219.396C70.3993 219.396 71.0179 219.396 71.4303 219.396C71.8427 219.808 72.2551 220.221 72.8737 220.427C73.0799 220.014 73.9047 220.839 73.9047 220.221C73.9047 220.014 73.9047 220.014 73.9047 219.808C74.7295 220.221 75.5543 220.221 76.3791 220.221C77.2039 220.221 77.8225 220.427 78.2349 221.458C78.4411 222.076 78.8535 222.489 79.2659 222.695C79.2659 223.107 79.4721 223.314 79.8845 223.726C79.0597 223.726 78.6473 224.551 77.6163 224.138C78.0287 224.345 78.441 224.551 78.441 224.963C78.0286 225.169 77.4101 224.963 76.9977 225.376C78.0287 225.582 79.0597 226.2 80.0907 227.231C80.5031 226.407 81.9464 227.438 82.3588 227.644C81.9464 227.85 81.1216 227.644 80.503 227.231C80.7092 228.262 79.4721 227.025 79.4721 227.644C80.503 228.262 84.0084 227.644 84.627 229.5C82.3588 228.469 81.7402 228.881 80.0907 228.675C79.2659 229.5 79.4721 230.118 80.2969 230.531L80.503 230.118C81.1216 230.324 81.1216 230.531 81.534 230.737C81.3278 230.737 81.1216 230.943 81.3278 231.149C81.1216 231.562 80.9155 230.737 80.2969 230.737C81.1216 231.355 82.3588 231.974 83.1836 232.799C85.658 233.417 88.751 235.686 90.813 235.686C89.9882 235.273 88.1324 234.861 88.1324 233.83C88.9572 233.211 89.5758 234.861 90.1944 234.242C89.1634 233.624 88.5448 233.83 88.1324 233.005C88.5448 233.211 88.5448 232.799 88.751 232.799C89.782 233.417 90.813 234.242 90.6068 234.655C90.6068 234.036 91.2254 235.273 91.4316 234.861C91.0192 234.655 91.2254 234.242 91.2254 233.83C89.9882 233.417 89.1634 232.799 89.1634 232.18C90.813 231.974 92.0502 233.005 93.2874 233.005C93.4936 233.417 93.906 234.036 94.3184 234.242C94.7308 234.655 95.1432 234.448 95.3494 234.448C95.7618 234.242 95.7618 233.83 96.3804 234.036C96.999 234.448 97.8238 234.655 98.4424 235.273C99.6796 236.51 101.123 237.335 102.773 237.954L102.566 238.16C100.917 237.954 99.8858 238.366 98.2362 237.541C98.2362 237.748 98.4424 237.748 98.4424 237.748C97.4114 237.541 96.3804 237.335 95.3494 237.129C94.7308 238.16 96.5866 237.129 96.3804 237.954C95.7618 238.16 93.4936 237.541 93.4936 236.923C93.906 237.129 94.5246 237.335 94.937 237.541C94.7308 237.129 94.1122 236.923 93.4936 236.717C93.0812 236.51 92.875 236.304 92.6688 236.098C92.4626 236.098 91.0192 236.098 91.6378 236.304C91.6378 236.304 91.6378 236.304 91.844 236.304C89.782 235.892 87.9262 235.067 86.0704 234.655C83.8022 233.83 81.534 233.211 79.2659 233.211C78.8535 232.18 77.8225 231.974 76.9977 231.768C74.5233 230.943 72.6675 229.5 71.4303 228.262C70.6055 229.293 69.5745 226.613 68.3373 226.613C68.3373 226.407 68.1311 226.2 68.5435 226.2C66.0691 225.994 65.8629 223.314 63.3885 222.489C64.4195 223.314 61.9451 222.695 64.0071 223.932C64.6257 223.726 63.8009 222.901 64.4195 223.314C63.8009 224.138 66.0691 225.169 66.2753 226.407C68.1311 226.407 69.1621 228.056 71.0179 229.293C71.0179 229.706 71.0179 230.943 72.0489 230.737C71.0179 230.324 72.4613 230.324 72.6675 230.118C73.6985 230.531 74.5233 231.355 75.5543 231.974C74.9357 232.18 74.3171 232.386 74.1109 232.386C74.3171 232.593 74.5233 232.593 74.7295 232.593C74.7295 232.799 74.7295 232.799 74.3171 233.211C75.5543 234.036 75.7605 233.624 76.3791 233.624C75.5543 234.448 79.2659 235.479 80.0907 236.51C80.0907 236.098 80.5031 236.098 81.1217 236.304C80.9155 236.51 80.7092 236.51 80.9154 236.717C86.2766 238.572 91.4316 240.016 96.3804 241.459C98.2362 241.253 103.185 242.078 102.566 243.727C108.546 245.583 115.144 245.995 121.949 246.614C124.217 245.789 127.104 246.202 129.166 246.408C128.96 246.408 129.785 245.995 130.403 246.202C132.465 246.82 128.96 247.645 127.104 247.439C128.754 247.439 127.104 248.676 126.898 249.088C123.392 249.501 120.712 249.295 117.619 249.501C116.794 249.295 116.794 248.882 115.763 248.882C114.32 249.501 113.082 248.264 111.433 248.264C110.608 248.264 109.783 248.882 108.959 248.882C107.928 248.676 107.103 247.851 106.278 247.851C105.866 247.851 104.835 247.851 104.422 247.851C104.422 247.851 104.628 247.439 104.835 247.645C104.01 247.439 103.391 247.851 102.566 247.851C102.36 247.851 102.36 247.233 102.36 247.233C101.329 246.614 99.8858 247.233 98.6486 247.027C97.8238 246.408 99.8858 246.408 98.4424 246.202C98.2362 246.82 96.999 246.408 96.3804 246.614C95.7618 245.377 92.875 245.789 93.4936 244.964C92.4626 244.758 91.0192 244.758 89.5758 244.346C88.1324 243.934 86.8952 243.727 85.8642 243.315C86.2766 243.521 86.0704 243.727 86.0704 243.934C83.8022 243.109 83.1836 242.903 81.9464 242.696C81.9464 242.49 82.1526 242.49 82.3588 242.49C80.7092 241.872 79.0596 241.459 77.8225 240.841C76.5853 240.222 75.3481 239.603 74.3171 239.191C73.9047 239.191 73.6985 239.397 73.2861 239.397C72.6675 238.572 72.4613 238.779 71.8427 238.985C71.4303 238.366 71.8427 237.954 71.0179 237.748C71.8427 238.572 69.5745 237.748 68.9559 237.541C69.1621 237.129 68.3373 236.923 68.7497 236.717C68.7497 236.304 69.5745 236.923 69.7807 236.717C67.9249 235.892 67.7187 236.304 67.1001 236.923C67.7187 237.541 68.7497 237.954 69.3683 238.572C70.3993 237.954 73.0799 240.016 73.6985 240.634C73.2861 240.428 73.2861 240.841 73.0799 240.634C73.0799 240.428 73.2861 240.222 73.0799 240.016C71.0179 240.222 69.3683 238.779 67.3063 237.541C67.7187 238.572 66.4815 237.748 66.2753 238.366C68.5435 239.397 70.8117 240.428 72.8737 241.459C72.0489 240.634 73.9047 241.459 74.3171 241.253C74.7295 241.665 76.1729 242.903 76.7915 242.903C76.3791 242.696 76.5853 242.49 76.7915 242.284C77.6163 243.521 79.6783 243.934 81.3278 244.758C79.4721 243.934 80.2968 244.758 78.6473 244.346C79.8844 244.964 80.5031 245.583 81.7402 245.377L81.534 245.789C82.9774 245.995 84.8332 246.82 86.689 247.645C87.72 248.057 88.5448 248.47 89.5758 248.882C90.6068 249.088 91.6378 249.295 92.4626 249.501C92.4626 249.707 92.2564 249.913 92.6688 250.119C96.1742 250.326 100.711 252.594 102.36 252.181C102.36 252.8 100.711 252.8 100.092 252.181C100.092 253.419 102.154 253.006 102.979 253.006V253.419C104.216 253.419 105.041 252.8 106.278 252.8C107.928 253.006 108.34 253.831 110.608 254.037C109.99 253.212 112.876 254.243 113.907 254.037C112.258 253.831 113.082 253.625 114.526 253.831C115.969 253.831 117.619 254.037 117.619 254.656C116.588 254.45 116.382 255.068 115.763 255.068C117.619 255.068 116.588 255.274 117 256.099C118.444 255.893 118.65 256.512 119.475 256.512C119.268 255.893 118.031 255.893 117.619 255.481C118.031 255.481 118.237 255.481 118.65 255.274C119.475 255.481 119.887 256.512 120.506 255.687C120.506 255.893 120.506 256.305 120.712 256.305C118.031 256.305 116.382 256.512 114.526 256.305C112.876 256.099 111.021 255.687 108.752 255.068C107.309 255.068 105.866 254.656 104.216 254.45C102.773 254.037 101.123 253.831 99.6796 254.037C99.6796 253.625 98.6486 253.625 98.8548 253.212C94.7308 252.8 91.0192 249.913 87.5138 250.326C88.3386 250.738 89.782 250.944 89.5758 251.357C88.5448 251.15 84.0084 250.119 85.4518 249.295C84.627 249.088 84.0084 249.088 82.9774 248.676C82.3588 249.295 84.627 249.295 84.4208 249.707C82.9774 249.295 79.6783 248.47 79.0597 247.233C76.1729 246.202 73.9047 245.171 71.8427 244.14C69.7807 243.109 67.9249 242.078 66.4815 240.634C65.8629 241.253 66.0691 240.016 65.4505 239.81C64.6257 239.603 65.2443 240.634 64.8319 240.428C64.6257 240.222 64.4195 240.428 64.2133 240.222C62.9761 239.81 63.3885 239.191 62.7699 238.779C62.1513 238.985 60.9141 237.954 59.8831 237.335C60.2955 236.098 57.8212 235.686 56.7902 234.861C54.522 233.417 52.2538 231.355 49.9856 229.5C47.7174 227.644 45.4492 225.994 44.0058 224.551C46.274 227.025 47.5112 227.231 49.1608 229.5C51.0166 230.324 52.6662 231.768 54.3158 233.211C56.1716 234.655 58.0274 235.892 59.8831 236.923C59.6769 237.335 60.0893 237.748 60.0893 237.954C59.6769 237.954 58.8521 237.541 58.4397 237.541C59.2645 238.572 62.7699 239.397 64.2133 241.459C64.6257 241.047 65.4505 241.872 66.0691 242.284C67.5125 241.665 72.0489 243.934 73.4923 244.964C73.2861 245.171 70.8117 243.727 71.6365 244.552C72.4613 244.964 73.4923 245.377 73.2861 245.789C72.6675 245.583 71.6365 244.758 71.4303 245.171C72.2551 245.789 74.3171 246.408 73.4923 247.233C74.7295 247.851 73.2861 246.408 74.7295 247.027C74.7295 247.233 74.9357 247.233 75.3481 247.439C75.3481 248.264 74.5233 248.057 73.9047 248.057C75.1419 249.088 75.3481 248.47 75.5543 248.264C76.3791 249.089 74.5233 248.47 75.1419 249.295C76.3791 250.119 77.8224 250.738 78.441 250.944C78.0286 250.738 78.0287 250.532 78.0287 250.326C78.6473 250.532 79.4721 250.326 79.6783 250.944C79.2659 250.738 78.8535 250.532 78.6473 250.738C80.2968 251.769 83.1836 252.388 84.0084 253.625C84.8332 253.625 83.596 253.006 84.627 253.006C86.4828 253.419 86.0704 254.243 87.3076 254.656C87.5138 254.45 87.1014 253.625 87.9262 253.831C88.9572 254.243 91.0192 254.45 90.6068 255.068C90.1944 255.068 88.1324 254.656 88.9572 255.068C90.813 255.274 92.0502 255.893 93.0812 255.481C94.3184 256.099 92.6688 256.305 93.906 256.718C94.3184 256.718 94.1122 256.099 94.7308 256.099C95.1432 256.512 98.4424 258.161 96.999 256.924C98.4424 257.336 98.6486 257.543 100.504 257.955C100.504 257.749 100.504 257.336 100.917 257.336C103.597 258.161 106.278 258.574 108.752 258.78C111.227 258.986 113.701 259.398 116.175 259.811C116.382 259.605 115.763 259.398 116.175 259.192C118.031 259.605 119.475 259.811 120.918 259.192C120.918 259.398 120.712 259.605 120.506 259.605C121.949 259.398 123.599 259.811 124.836 260.223C123.805 260.842 122.155 260.223 121.743 261.254C124.011 261.254 125.042 259.811 127.723 260.223C128.135 259.811 126.898 259.605 127.723 259.605C128.754 259.811 128.96 259.811 129.785 259.398C129.785 260.017 130.816 260.017 131.434 260.223C134.115 259.398 136.795 260.429 139.064 259.192C140.301 259.192 141.95 259.192 143.394 259.192C144.837 258.986 146.487 258.78 148.136 258.574C151.229 257.955 154.116 257.336 156.178 256.512C156.59 256.924 158.034 256.305 158.034 256.924C159.683 255.893 161.127 256.512 162.158 255.481C161.745 255.481 161.333 255.687 161.333 255.274C162.158 254.862 162.158 254.862 163.601 254.45C163.807 254.656 163.807 255.068 164.426 254.862C165.045 253.419 168.138 253.831 169.581 253.625C169.581 253.212 168.962 253.419 168.756 253.212C169.993 252.8 172.262 251.769 172.88 252.594C172.055 253.006 171.437 252.388 171.231 253.006C171.643 252.8 171.643 253.212 172.055 253.212C175.148 250.944 179.891 249.501 182.159 248.882C182.984 248.47 183.19 247.851 183.396 247.645C184.427 247.233 185.458 247.645 186.902 246.614C186.696 246.82 187.314 246.408 188.139 245.995C188.345 245.789 191.438 243.933 192.469 244.14C192.882 244.552 190.201 245.583 191.232 245.377C192.263 244.758 192.469 244.346 193.706 244.14C193.294 243.727 193.706 243.521 194.119 243.109C194.531 242.903 195.15 242.696 195.562 242.696C194.737 243.521 193.5 244.14 193.294 244.964C195.15 243.934 197.83 241.047 198.449 242.49C198.449 242.284 198.861 242.078 199.068 242.078C198.037 243.109 198.861 243.109 198.037 244.14C199.48 242.284 201.336 241.459 202.985 240.634C204.635 239.603 206.491 238.779 207.315 236.717C207.522 236.923 207.315 237.335 207.522 237.541C208.346 236.923 207.934 236.51 209.171 235.892C209.377 236.098 209.79 235.892 209.79 236.304C210.408 235.686 211.233 235.067 211.439 234.655C210.202 235.686 209.584 235.686 208.965 235.479C211.027 234.242 211.233 233.005 213.501 232.386C212.264 233.005 213.089 233.417 211.852 234.036C212.47 234.242 212.677 234.861 213.501 234.036C213.295 233.83 213.089 233.624 213.295 233.211C213.501 234.036 217.419 231.562 218.863 230.118C218.656 229.293 217.832 230.324 217.625 229.706C218.038 229.5 218.656 229.087 219.275 228.469C219.069 229.293 219.069 229.087 219.687 229.5C220.512 228.881 219.687 228.675 220.306 228.262C220.718 228.881 221.956 227.231 222.368 227.438C222.987 225.994 223.811 225.994 223.811 226.613C224.43 225.376 224.842 225.169 225.255 224.138C225.873 223.932 225.461 224.345 225.667 224.551C226.698 223.314 226.492 223.52 227.523 223.107C227.729 222.695 227.729 222.076 227.935 221.664C228.554 221.458 228.966 220.633 228.554 221.87C231.441 219.396 230.616 217.128 232.266 215.89C231.441 214.859 232.884 214.035 234.121 213.416C234.121 212.797 233.09 213.622 233.503 213.004C234.328 212.591 234.946 211.973 235.565 210.735C236.183 210.942 235.771 211.56 235.771 211.766C235.977 210.942 237.008 210.323 236.802 210.117C236.39 210.529 236.183 210.529 235.771 210.529C236.183 209.911 236.183 209.498 236.802 208.88L237.214 209.292C238.245 206.405 241.338 203.725 241.338 202.281C241.751 201.25 242.163 201.869 242.576 201.456C242.369 201.25 242.163 201.456 241.957 201.456C242.163 200.632 245.256 197.951 243.4 199.188C244.225 197.951 245.05 197.745 245.256 196.714C244.844 197.333 244.431 197.126 244.844 196.508C244.844 197.126 245.256 196.92 245.669 196.095C245.669 195.683 245.875 195.064 246.081 194.446C246.081 195.477 247.112 193.209 247.318 192.796C247.112 193.002 246.906 193.415 246.906 193.209C247.112 192.59 247.73 190.94 248.349 190.528C248.555 190.734 247.73 191.765 247.937 191.765C248.761 190.94 248.555 190.322 248.968 189.291C250.205 189.291 249.792 185.992 251.03 186.198C250.205 187.229 249.999 188.466 249.792 189.497C249.586 190.528 249.38 191.353 248.349 191.765C249.174 192.384 248.143 193.002 247.524 194.446C248.143 194.446 247.524 195.064 247.73 195.271C248.761 194.033 248.143 194.24 248.143 193.827C248.555 193.621 248.761 192.796 249.174 193.209C248.968 193.621 248.555 194.033 248.761 194.24C249.38 193.002 249.999 192.384 250.411 192.384C250.617 191.559 251.03 190.94 251.648 189.909C252.061 189.085 252.679 187.847 253.504 186.198C253.504 185.579 252.885 186.404 253.092 185.373C255.772 181.661 256.185 177.331 257.628 174.238C257.422 173.413 256.391 174.444 257.009 173.001C257.628 172.382 257.834 172.589 258.04 173.001C258.453 169.908 260.102 168.258 261.133 164.959C260.102 163.31 262.577 158.979 261.958 156.711C261.752 158.361 261.34 160.217 260.515 160.835C260.309 159.392 260.927 155.68 261.958 156.299C261.752 154.443 263.402 153 262.577 152.175C263.814 151.969 264.433 148.257 264.433 145.989C264.433 146.401 264.639 145.577 264.845 144.752C265.051 142.484 265.464 140.009 265.67 137.535C265.67 135.679 265.67 133.617 265.67 131.967C265.876 131.967 266.082 131.967 266.288 131.967C266.082 129.905 266.082 127.843 265.876 125.781C265.876 125.781 265.876 125.781 266.082 125.781C265.876 124.75 265.876 124.338 265.67 123.513C265.67 122.895 265.464 122.07 265.464 121.451C265.876 120.626 266.082 118.977 266.082 118.152C266.082 118.771 266.495 118.564 266.495 119.389C266.288 120.833 266.288 122.688 266.907 123.719C266.701 124.338 266.701 124.338 266.288 124.132C266.701 128.05 266.082 131.143 266.907 134.648C266.288 133.823 266.288 137.947 266.907 137.122C266.495 139.391 265.876 142.277 265.67 145.164C265.464 146.608 265.464 148.051 265.464 149.494C265.464 150.113 265.464 150.732 265.464 151.556C265.464 152.175 265.464 152.794 265.464 153.206C265.67 151.556 266.701 148.463 266.288 147.02C266.907 147.845 266.701 145.577 266.288 145.37H266.907C269.794 139.391 269.794 131.555 270 124.132ZM220.512 28.6617C221.131 28.4555 221.543 29.2803 221.749 29.6927C221.543 30.1051 220.718 28.8679 220.512 28.6617ZM75.9667 241.047C75.9667 240.222 77.4101 241.459 77.6163 241.253C78.2349 241.872 76.7915 241.459 75.9667 241.047ZM85.8642 246.82C86.2766 245.995 86.8952 247.026 87.9262 247.439C87.9262 247.645 86.689 247.026 85.8642 246.82ZM88.5448 244.14C88.751 243.727 89.9882 244.14 90.4006 244.552C90.1944 244.964 88.9572 244.346 88.5448 244.14ZM109.99 253.006C110.196 253.006 110.814 253.006 111.227 253.006C111.227 253.212 111.021 253.419 111.433 253.625C111.227 254.037 109.577 253.419 109.99 253.006ZM120.093 255.068C119.887 254.656 120.712 254.656 120.712 254.45C118.237 253.831 115.557 254.243 114.732 252.8C117 253.419 117.825 253.006 119.475 252.594C119.887 252.8 120.093 253.006 120.712 253.212C120.299 253.625 119.887 253.419 119.062 253.212C119.268 253.831 120.093 254.243 121.537 254.45C121.949 255.068 121.33 255.068 120.093 255.068ZM256.803 158.155C257.216 158.155 256.597 159.186 256.597 159.804C256.391 159.598 256.391 159.392 256.391 159.186C256.391 158.979 256.391 158.567 256.803 158.155C256.597 158.361 256.597 158.361 256.803 158.155ZM253.916 180.837C253.298 182.074 253.504 181.868 252.885 183.311C252.473 183.723 251.854 183.105 252.473 182.074C252.885 183.311 252.885 180.63 253.916 180.837ZM169.375 245.583C169.375 245.995 167.725 246.202 167.107 246.614C167.313 245.583 168.138 245.995 169.375 245.583ZM152.879 252.8C151.023 253.006 150.198 252.8 148.343 252.594C149.167 251.769 151.023 252.181 152.879 251.563C153.085 251.975 152.673 252.388 152.879 252.8ZM143.188 253.006C142.981 253.625 142.157 253.006 141.95 253.006C141.744 252.594 142.775 252.8 142.775 252.388C144.012 252.181 142.157 253.006 143.188 253.006ZM147.105 252.8C146.899 253.212 146.074 253.419 146.074 253.831C145.662 253.419 143.394 254.243 143.188 253.625C144.425 253.831 145.456 252.594 147.105 252.8ZM144.837 250.326C143.806 250.532 142.981 250.944 141.332 251.15C140.507 250.326 142.157 249.913 143.806 249.501C145.662 249.088 147.93 248.882 148.755 248.47C150.198 248.676 150.405 249.295 148.755 249.913C148.755 249.707 148.961 249.707 148.961 249.501C146.899 249.707 145.662 249.913 144.837 250.326ZM141.744 253.006C139.476 253.625 134.115 253.625 135.352 252.8C137.002 253.419 139.064 252.594 141.744 253.006ZM150.198 249.088C149.992 248.676 150.817 248.47 151.229 248.47C151.436 248.676 150.817 249.295 150.198 249.088ZM152.673 243.727C150.611 244.14 148.343 244.346 146.693 244.552C146.074 244.758 147.105 245.377 147.724 245.171C147.518 245.789 146.487 245.377 145.868 245.377C145.868 245.171 146.074 244.964 146.074 244.552C145.868 244.14 144.631 244.758 144.012 244.758C145.868 243.521 147.93 243.109 150.198 242.903C151.436 242.696 152.467 242.696 153.91 242.49C155.147 242.284 156.59 241.872 158.034 241.459C158.034 241.665 158.034 241.872 158.446 241.872C157.622 242.284 156.797 242.696 155.766 242.903C155.353 243.109 154.735 243.109 154.322 243.315C153.704 243.521 153.085 243.727 152.673 243.727ZM82.565 222.901C82.7712 222.901 82.7712 222.901 82.9774 222.901C82.9774 222.901 82.9774 222.901 82.9774 223.107C82.565 223.107 82.3588 222.901 82.3588 222.901C82.3588 222.901 82.3588 222.901 82.565 222.901ZM65.8629 215.89L65.6567 216.097C65.6567 216.097 65.4505 216.097 65.4505 215.89C65.4505 215.89 65.4505 215.684 65.6567 215.684C65.6567 215.684 65.6567 215.478 65.8629 215.478C65.6567 215.684 65.8629 215.89 65.8629 215.89ZM118.65 23.3005C118.444 23.5067 118.031 23.7129 117.619 23.7129H117.413C117.206 23.7129 116.794 23.7129 116.382 23.7129C117.206 23.3005 117.825 23.3005 118.65 23.3005ZM262.371 92.3772C262.577 93.202 262.371 93.4082 262.164 93.8206C261.958 92.9958 261.752 91.9648 261.546 90.9338C261.546 90.7276 261.546 90.5214 261.546 90.5214C262.371 92.3772 261.546 92.171 262.371 92.3772ZM262.783 94.0268C262.989 94.6454 262.989 95.0578 262.989 95.4702C262.989 95.4702 262.989 95.4702 262.783 95.4702C262.577 95.264 262.577 95.0578 262.371 95.0578C262.577 94.233 262.371 93.8206 262.783 94.0268ZM261.752 137.535C261.752 137.122 261.752 136.71 261.546 136.71C261.546 135.885 261.752 135.267 261.958 134.648C262.164 134.854 262.164 135.06 262.371 135.267C262.371 134.854 262.371 134.442 262.164 134.029V133.823V133.617C262.164 133.411 262.164 133.411 262.371 133.205C262.371 133.823 262.783 133.823 262.577 134.854C261.34 136.298 262.164 135.679 261.752 137.535ZM153.291 24.9501C153.085 24.9501 152.879 24.9501 152.879 24.9501C153.085 24.9501 153.291 24.9501 153.291 24.9501C153.498 24.9501 153.498 24.9501 153.291 24.9501ZM237.421 58.3543C236.802 58.3543 236.39 58.1481 236.39 57.5295C236.802 57.7357 237.214 57.9419 237.421 58.3543ZM261.34 127.637C261.34 127.019 261.34 126.606 261.133 125.988C261.133 125.988 261.133 125.988 261.133 125.781C261.34 125.369 261.546 124.957 261.958 124.75C261.958 125.369 261.958 125.781 261.958 126.4C261.958 127.637 262.164 128.668 262.164 129.905C261.958 129.905 261.546 129.905 261.546 130.524C261.752 130.524 262.164 130.318 262.164 130.936C261.958 131.967 261.752 132.792 261.546 133.411C261.546 131.555 261.546 129.699 261.34 127.637ZM261.958 122.895V123.101C261.958 123.101 261.958 123.101 261.958 122.895ZM244.844 66.3961C244.431 65.9837 244.431 65.3651 245.05 64.9527C245.05 64.9527 245.05 64.9527 245.256 64.9527C245.875 65.5713 246.287 66.3961 246.906 67.4271C246.081 67.6333 245.669 67.4271 244.844 66.3961ZM244.431 64.1279C243.813 63.9217 243.4 63.5093 243.194 62.8907C243.607 63.3031 244.019 63.7155 244.431 64.1279ZM265.464 106.605C265.464 106.399 265.67 106.193 265.876 105.78C265.876 106.399 265.876 106.811 265.67 107.017C265.464 107.017 265.464 106.811 265.464 106.605ZM265.051 103.512C265.051 103.306 265.051 103.306 265.051 103.1C265.257 103.306 265.257 103.512 265.464 103.718C265.257 103.718 265.257 103.512 265.051 103.512ZM264.02 100.007C263.608 101.038 264.226 102.069 264.433 101.862C264.433 102.275 264.226 102.481 264.226 102.481C264.02 102.275 264.02 102.069 263.814 101.862C263.814 101.656 263.814 101.656 263.814 101.45C263.608 101.244 263.402 101.038 263.195 100.831C262.989 100.625 262.989 100.419 262.989 100.419C262.783 100.007 263.195 99.5942 263.608 99.5942C263.608 99.8004 263.814 99.8004 264.02 100.007C264.02 99.8004 264.02 99.8004 264.02 100.007ZM120.712 23.7129C120.506 23.7129 120.299 23.7129 120.093 23.5067C120.299 23.5067 120.506 23.7129 120.712 23.7129ZM162.57 245.995C162.776 246.82 161.745 246.202 160.921 246.614C161.127 245.995 161.745 245.995 162.57 245.995ZM230.204 213.416C230.616 214.035 229.379 214.447 228.554 215.478C228.348 215.272 227.935 215.478 227.729 215.272C228.554 214.653 229.379 213.828 230.204 213.416ZM231.647 211.354C231.853 211.56 232.059 211.766 232.266 211.354C232.678 211.766 231.441 213.004 230.822 213.21C230.822 213.004 231.028 212.179 231.647 211.354ZM257.216 156.505C257.422 156.711 257.422 156.505 257.216 156.505C257.216 157.124 257.216 157.124 257.009 157.124C257.216 156.917 257.216 156.711 257.216 156.505ZM261.133 143.515C261.133 143.308 261.133 142.896 261.133 142.69C261.133 142.69 261.34 142.484 261.546 142.484C261.34 142.896 261.133 143.102 261.133 143.515ZM261.752 141.453C261.752 141.04 261.546 140.422 261.546 140.009C261.752 139.597 261.752 139.184 261.958 138.566C261.958 139.803 261.752 140.215 261.752 141.453ZM265.876 112.791C266.082 111.966 266.082 111.141 265.876 110.11C266.907 110.523 266.495 112.791 265.876 113.616C265.876 113.409 265.876 112.997 265.876 112.791ZM265.67 107.842C265.876 108.255 266.082 108.873 266.288 109.698C265.67 110.11 265.464 108.255 265.67 107.842ZM263.195 91.5524L262.577 91.7586C262.371 91.14 262.783 90.3152 262.164 90.109C261.958 89.078 262.577 90.3152 262.783 90.3152C262.783 89.9028 262.577 89.6966 262.371 89.2842C262.577 89.2842 262.577 89.078 262.783 88.8718C262.989 89.4904 263.195 90.3152 263.195 91.5524ZM261.752 85.7788C261.546 85.7788 261.34 85.1602 261.34 84.7478C261.546 84.7478 261.546 84.5416 261.752 84.5416C262.164 85.3664 261.752 85.3664 261.752 85.7788ZM258.865 82.6858H259.071C259.69 83.0982 260.102 83.5106 260.309 84.3354C260.309 84.7478 260.721 84.7478 260.927 84.7478C260.927 84.954 261.133 85.3664 261.133 85.5726C260.927 85.5726 260.927 85.985 260.927 85.985C260.515 84.5416 259.69 84.954 260.721 85.7788C260.721 85.985 260.721 86.1912 260.927 86.3974C260.309 86.3974 259.896 86.3974 259.278 86.3974C259.071 86.3974 258.865 85.985 258.865 85.7788C259.071 85.3664 259.484 84.7478 259.278 84.3354C259.278 83.923 258.659 83.5106 258.659 82.892L258.865 82.6858ZM253.092 71.7573C252.885 71.7573 252.679 71.5511 252.473 71.7573C252.267 71.5511 252.267 71.1387 252.061 70.9325C252.061 70.7263 252.061 70.5201 252.061 70.3139C252.267 70.7263 252.679 71.1387 253.092 71.7573ZM230.616 40.8274C230.822 41.0336 230.822 41.0336 231.028 41.2398C231.028 41.2398 231.028 41.2398 231.028 41.446C230.204 41.2398 229.997 40.415 229.585 39.384C229.791 40.0026 230.204 40.415 230.616 40.8274ZM218.656 37.1158C218.656 37.322 218.45 37.1158 218.45 37.1158C218.45 37.1158 218.45 37.1158 218.656 37.1158ZM113.907 23.9191C113.907 24.1253 113.907 24.1253 113.907 24.3315C114.32 24.3315 114.526 24.1253 114.526 23.9191C115.144 23.9191 115.557 23.9191 116.175 23.9191C115.969 24.3315 115.557 24.7439 115.145 24.9501C114.526 25.3625 114.113 25.1563 113.701 24.3315C113.495 24.3315 113.289 24.5377 113.083 24.5377C112.052 25.1563 111.639 25.1563 111.021 24.3315C112.052 24.1253 113.082 24.1253 113.907 23.9191ZM105.866 25.3625C106.897 25.1563 107.721 25.1563 108.546 25.1563C108.34 25.3625 108.134 25.3625 107.721 25.3625C107.515 25.3625 107.103 25.3625 106.897 25.5687C106.072 26.8059 104.422 25.7749 103.391 26.5997C102.773 27.2183 102.36 26.8059 101.948 26.3935C103.391 25.7749 104.628 25.5687 105.866 25.3625ZM37.4074 191.147C37.2012 191.147 37.2012 190.734 37.2012 190.528C37.2012 190.322 37.2012 190.322 37.4074 190.322L37.6136 190.116C37.8198 190.322 37.8198 190.528 37.8198 190.734C37.8198 190.94 37.8198 191.353 37.4074 191.147ZM41.119 201.663C41.119 201.869 40.9128 202.075 40.7066 202.075L40.5004 201.869C40.5004 201.456 40.5004 201.044 40.5004 200.838C40.2942 200.838 40.088 200.632 39.8818 200.632V200.426C40.2942 200.426 40.2942 200.632 40.2942 201.044C40.9128 200.632 41.3252 201.044 41.119 201.663ZM43.5934 203.931C43.3872 203.725 43.181 203.725 42.9748 203.518C43.181 203.312 43.3872 203.106 43.5934 203.106C43.7996 203.106 44.0058 203.312 44.212 203.518C44.0058 203.725 43.7996 203.725 43.5934 203.931ZM45.243 205.58C45.243 205.787 45.243 206.199 44.8306 206.199V205.993C44.8306 205.787 45.0368 205.787 45.243 205.58C45.243 204.962 45.243 204.549 45.6554 204.137C45.8616 203.931 46.6864 203.931 46.6864 204.137C46.6864 204.343 46.6864 204.549 46.4802 204.756C46.274 205.168 45.8616 205.58 45.243 205.58C45.4492 205.58 45.4492 205.58 45.243 205.58ZM48.5422 206.405C47.9236 207.642 46.6864 208.673 46.6864 210.323C46.6864 210.323 46.274 210.529 46.0678 210.529C45.8616 210.529 45.4492 210.117 45.6554 210.117C46.0678 208.467 46.6864 207.23 47.7174 205.787C47.7174 205.58 48.1298 205.787 48.5422 205.787L48.7484 205.993C48.5422 206.199 48.5422 206.199 48.5422 206.405ZM60.9141 216.715C60.7079 216.921 60.5017 217.128 60.2955 217.128C60.2955 216.921 60.5017 216.715 60.9141 216.509C61.5327 216.303 61.9451 216.921 61.9451 217.54V217.746C61.5327 217.334 61.3265 217.128 60.9141 216.715ZM66.0691 217.952C66.2753 217.746 66.2753 217.746 66.2753 217.952H66.0691ZM93.906 239.603C91.4316 238.366 88.751 237.335 85.8642 236.717C84.8332 236.304 84.0084 235.686 82.7712 234.861C82.565 234.861 82.565 234.655 82.3588 234.655C82.7712 234.861 83.3898 234.861 83.8022 234.861C85.0394 235.067 86.0704 235.273 87.1014 235.686C88.1324 235.892 89.3696 236.304 90.6068 236.923C92.6688 235.892 95.5556 239.603 97.6176 239.397C96.7928 238.16 100.092 239.191 102.154 239.397C101.948 240.016 102.154 240.634 102.154 241.665C99.2672 241.665 96.5866 240.634 93.906 239.603ZM132.465 246.202C133.084 245.789 133.496 246.614 134.527 246.408C134.527 246.202 134.115 246.202 133.909 246.202C133.909 245.995 134.733 245.995 134.733 245.789C134.321 245.377 132.878 245.789 132.053 245.789C133.29 244.964 136.383 244.964 137.208 244.346C137.62 244.758 137.414 245.377 137.208 245.377C137.62 245.995 137.826 245.377 138.445 245.583C139.27 245.377 137.414 245.377 137.826 244.758C140.095 244.552 140.713 244.758 141.538 244.14C142.569 244.346 141.538 244.346 143.394 244.14C143.806 245.377 141.538 244.758 140.919 245.171C141.95 245.995 144.631 243.934 144.837 245.171C143.806 245.171 142.981 245.377 141.95 245.583C140.919 245.789 139.888 245.789 138.857 245.995C136.795 246.614 134.527 246.614 132.465 246.202ZM133.084 253.212C132.878 253.831 133.702 253.419 134.321 253.419C133.29 253.625 131.64 253.831 129.785 253.831C127.929 253.831 125.867 253.625 124.011 253.831C126.279 252.594 129.785 253.831 133.084 253.212ZM122.98 254.45C124.836 254.656 125.248 254.656 127.104 254.862C125.248 254.037 131.022 254.45 131.64 254.862C130.197 255.274 128.341 255.274 126.692 255.068C125.042 255.068 123.392 254.862 122.361 255.274C122.155 254.656 122.98 254.656 122.98 254.45ZM122.155 255.893C122.361 255.274 123.186 255.687 123.805 255.893C123.599 256.512 122.155 256.099 122.155 255.893ZM143.806 256.924V256.305C143.6 256.305 143.6 256.305 143.394 256.512C142.775 256.718 141.95 256.718 141.126 256.924C139.682 257.13 138.033 257.336 136.383 257.336C133.084 257.543 129.785 257.749 126.485 257.13C126.073 257.13 126.279 257.543 125.867 257.543C125.042 257.543 124.423 257.336 124.011 257.13C124.011 256.512 125.661 256.924 126.692 256.924C126.692 256.718 126.692 256.512 126.279 256.305C129.372 256.305 135.146 256.305 139.682 255.068C140.713 255.274 141.744 255.274 142.363 255.687C143.188 255.481 142.157 255.068 142.157 254.862C142.981 254.656 143.806 255.481 144.012 254.862C145.043 254.862 144.425 255.068 144.425 255.481C146.074 255.068 147.105 254.656 148.136 254.45C148.343 253.831 147.105 254.243 146.487 254.45C147.312 253.625 149.58 253.625 150.611 253.831C151.023 254.45 149.374 255.274 151.229 255.068C149.992 255.893 146.074 255.274 145.456 256.099C147.93 256.099 152.26 254.862 153.704 255.687C150.611 256.718 147.518 256.099 143.806 256.924ZM158.652 252.8C158.652 252.388 158.24 252.594 158.24 252.181C159.477 251.769 159.271 252.388 160.508 251.975C160.096 252.181 159.065 252.388 158.652 252.8ZM167.107 249.501C163.189 250.119 160.096 251.15 156.178 251.769C156.384 251.975 157.209 251.563 157.415 251.769C157.415 252.388 155.56 252.594 155.56 251.975C154.735 252.388 154.735 252.594 155.147 253.212C153.704 252.8 153.498 252.388 153.91 251.975C154.322 251.563 155.766 251.357 157.622 250.944C157.209 250.738 156.59 250.944 155.972 250.944C155.766 250.532 157.415 250.532 157.415 250.119C157.828 250.119 157.828 250.532 157.828 250.738C160.714 249.707 160.921 249.707 164.22 248.676C164.838 249.295 165.869 248.264 166.488 248.676C167.313 248.264 165.457 248.47 166.282 248.057C168.55 247.645 168.344 248.057 170.612 247.027C170.406 246.614 168.756 247.851 168.962 247.027C170.406 246.82 171.437 246.202 172.468 245.583C172.674 245.995 172.674 246.202 172.468 246.408C173.293 246.202 173.293 245.789 173.086 245.377C174.53 244.552 174.942 244.964 175.767 245.171C174.736 247.233 168.756 248.264 167.107 249.501ZM195.768 241.872C195.768 241.047 197.006 240.841 197.83 240.016C197.83 240.634 196.181 241.253 195.768 241.872ZM204.841 240.016C204.222 241.253 204.429 239.81 203.398 240.428C203.398 240.222 204.016 239.81 204.429 239.603C204.635 239.81 204.635 240.016 205.047 239.81C205.047 240.016 204.841 240.016 204.841 240.016ZM203.81 237.335L204.841 236.717L205.047 237.129C204.635 237.335 204.016 237.748 203.81 237.335ZM205.047 236.304C204.841 235.892 205.666 235.273 206.491 234.861L206.903 235.273C206.078 235.686 205.46 236.098 205.047 236.304ZM204.635 235.479C202.985 236.717 201.13 237.748 200.305 238.572C200.511 237.954 201.954 236.717 203.604 235.479C205.46 234.242 207.315 232.799 208.553 231.768C207.934 232.799 206.284 234.036 204.635 235.479ZM216.801 232.799C216.182 232.386 216.182 232.386 216.182 231.562C217.007 231.562 218.038 231.974 216.801 232.799ZM217.832 231.355C217.625 231.355 217.007 231.768 217.007 231.355C217.419 231.149 217.625 231.149 217.625 230.943C217.832 230.737 218.038 231.149 218.45 230.737C218.45 230.943 218.45 231.149 218.45 231.355C218.038 231.562 217.419 231.768 217.832 231.355ZM222.574 228.881C222.574 228.675 223.193 228.262 223.399 227.85C223.193 227.644 222.78 228.262 222.574 228.469C222.162 228.469 222.987 227.438 222.162 228.056C222.162 227.644 223.605 227.438 224.018 227.438C223.193 228.262 223.605 228.262 222.574 228.881ZM228.554 218.777L228.966 219.19L227.935 220.427C227.317 220.014 228.348 219.19 228.554 218.777ZM230.41 220.839C230.616 220.014 229.997 220.633 229.379 221.458C229.173 220.633 230.822 220.014 231.647 219.396C231.853 219.396 230.616 220.221 230.41 220.839ZM231.441 216.303C231.235 217.746 230.822 219.19 228.554 220.427C228.76 219.396 230.822 218.159 230.204 216.921C232.266 215.066 233.503 213.21 234.74 212.385C234.534 213.828 232.678 215.89 231.441 216.303ZM237.421 209.498C236.183 210.735 235.565 211.148 235.152 212.385L234.534 211.766C235.977 210.529 237.008 208.261 238.452 206.818C238.452 207.849 237.008 208.467 237.421 209.498ZM251.03 188.054C250.411 188.054 250.823 187.229 250.205 187.229C250.617 186.816 251.236 185.167 251.648 185.785C251.236 185.167 252.473 183.723 253.092 182.692C252.061 184.548 252.061 186.61 251.03 188.054ZM251.236 193.827C251.03 193.621 250.617 193.827 250.411 194.24C249.999 194.033 250.411 193.415 251.03 192.59C251.03 193.209 251.442 192.59 251.442 193.209C251.854 192.59 252.267 191.353 252.679 191.971C252.267 191.971 251.854 193.002 251.236 193.827ZM253.092 190.116C253.092 189.085 253.504 188.878 254.123 188.054C254.329 189.085 253.71 189.291 253.092 190.116ZM254.329 177.744C254.123 177.331 254.329 176.919 254.535 176.094C255.154 176.094 254.741 177.331 254.329 177.744ZM254.123 173.001C254.123 172.176 254.535 171.764 254.947 170.527C255.36 170.733 254.535 172.589 254.123 173.001ZM255.772 165.99C256.185 166.403 255.36 167.227 255.36 168.258C254.741 168.258 255.772 166.815 255.772 165.99ZM255.772 171.558C255.566 170.32 255.772 169.702 256.185 167.846C256.391 168.465 255.978 170.114 256.803 168.465C257.216 168.877 255.978 170.32 255.772 171.558ZM258.247 157.124C257.628 160.423 257.834 161.454 257.834 163.103C257.628 163.928 257.216 163.31 257.009 163.928C257.834 163.722 257.216 165.99 256.803 167.64C256.185 167.434 255.978 167.434 255.978 167.021C256.185 166.815 256.597 165.578 256.391 165.165C255.772 165.99 256.185 164.134 255.772 163.928C255.978 163.31 256.185 163.31 256.391 163.722C256.597 161.248 257.834 158.567 258.04 156.093C258.247 156.093 258.247 156.711 258.453 156.299C257.628 156.711 258.659 155.268 258.247 155.268C258.04 155.68 257.834 155.474 257.834 155.268C258.04 154.443 258.247 153.825 258.453 153C259.071 152.794 258.04 154.443 258.659 154.443C258.865 153 260.102 150.938 259.484 150.319C259.071 151.763 259.071 152.381 258.453 153C258.453 153 258.453 153 258.453 152.794C258.659 151.556 259.071 150.319 259.071 148.876C259.278 148.876 259.484 148.67 259.69 148.67C260.102 149.288 260.102 150.319 259.896 151.144C259.69 151.969 259.278 153 259.484 153.825C259.071 154.649 258.865 154.443 258.659 154.649C259.071 155.268 258.453 158.361 258.247 158.979C257.834 158.979 258.659 157.33 258.247 157.124ZM258.247 173.413C258.865 172.382 258.453 171.764 259.071 171.145C259.896 170.939 258.865 174.032 258.247 173.413ZM259.071 170.527C259.896 170.114 260.309 168.671 261.133 168.671C260.515 169.908 259.896 170.939 259.071 170.527ZM266.907 112.997C267.113 112.585 267.113 114.44 267.319 115.678C266.495 115.471 266.701 113.822 266.907 112.997Z" fill="#D1D1D1"/>
</svg>
