<svg width="65" height="65" viewBox="0 0 65 65" fill="none" xmlns="http://www.w3.org/2000/svg">
<rect x="0.0135498" y="0.00537109" width="64" height="64" rx="32" fill="#E24755"/>
<path d="M41.0481 41.0397C41.9465 40.1412 42.4515 38.9228 42.4519 37.6522L41.0481 41.0397ZM41.0481 41.0397C40.1496 41.9382 38.9311 42.4431 37.6605 42.4435M41.0481 41.0397L37.6605 42.4435M37.6605 42.4435C37.6605 42.4435 37.6605 42.4435 37.6605 42.4435M37.6605 42.4435H37.6605M37.6605 42.4435H26.3669H37.6605ZM22.9793 41.0397C23.8778 41.9382 25.0963 42.4432 26.3669 42.4435L22.9793 41.0397ZM22.9793 41.0397C22.0809 40.1412 21.5759 38.9228 21.5755 37.6522M22.9793 41.0397L21.5755 37.6522M21.5755 37.6522C21.5755 37.6521 21.5755 37.6521 21.5755 37.6521M21.5755 37.6522L21.5755 37.6521M21.5755 37.6521V26.3585M21.5755 37.6521V26.3585M21.5755 26.3585C21.5755 26.3585 21.5755 26.3585 21.5755 26.3585C21.5759 25.0879 22.0809 23.8694 22.9793 22.971C23.8778 22.0725 25.0963 21.5675 26.3669 21.5671C26.3669 21.5671 26.3669 21.5671 26.3669 21.5671H37.6605L21.5755 26.3585ZM41.0481 22.971C40.1496 22.0725 38.9311 21.5675 37.6605 21.5671L41.0481 22.971ZM41.0481 22.971C41.9465 23.8694 42.4515 25.0879 42.4519 26.3585M41.0481 22.971L42.4519 26.3585M42.4519 26.3585C42.4519 26.3585 42.4519 26.3585 42.4519 26.3585M42.4519 26.3585V26.3585M42.4519 26.3585V37.6521V26.3585ZM26.3667 19.8554H26.3667C24.6421 19.8558 22.9882 20.5412 21.7687 21.7605L21.7687 21.7605C20.5494 22.98 19.864 24.6339 19.8635 26.3585V26.3585V37.6522V37.6522C19.8639 39.3768 20.5494 41.0307 21.7687 42.2502L21.7687 42.2502C22.9882 43.4695 24.6421 44.155 26.3667 44.1554H26.3667H37.6604H37.6604C39.385 44.155 41.0389 43.4695 42.2584 42.2502L42.2584 42.2502C43.4777 41.0307 44.1631 39.3769 44.1635 37.6522V37.6522V26.3585V26.3585C44.1632 24.6339 43.4777 22.98 42.2584 21.7605L42.2584 21.7605C41.0389 20.5412 39.385 19.8558 37.6604 19.8554L37.6604 20.0054V19.8554H26.3667Z" fill="white" stroke="white" stroke-width="0.3"/>
<path d="M32.0136 36.7967C33.2842 36.7963 34.5026 36.2913 35.4011 35.3928C36.2996 34.4944 36.8046 33.2759 36.805 32.0053L32.0136 36.7967ZM32.0136 36.7967V36.796C30.7428 36.796 29.5239 36.291 28.6254 35.3925C27.7268 34.4938 27.222 33.275 27.2222 32.0042V32.0042C27.2222 30.7334 27.7272 29.5147 28.6258 28.6161C29.5245 27.7176 30.7433 27.213 32.0141 27.213L32.0136 36.7967ZM35.4021 28.617L35.4021 28.617C34.5036 27.7182 33.285 27.2132 32.0142 27.213L35.4021 28.617ZM35.4021 28.617C36.3005 29.5156 36.8051 30.7345 36.805 32.0053L35.4021 28.617ZM32.0136 25.5021H32.0136C30.2888 25.5021 28.6347 26.1874 27.4152 27.4069C26.1957 28.6264 25.5104 30.2804 25.5104 32.0053C25.5104 33.7301 26.1957 35.3842 27.4152 36.6037C28.6347 37.8232 30.2887 38.5084 32.0136 38.5084C33.7384 38.5084 35.3925 37.8232 36.612 36.6037C37.8315 35.3842 38.5167 33.7301 38.5167 32.0053V32.0052C38.5161 30.2807 37.8309 28.6268 36.6114 27.4075C35.3921 26.1879 33.7382 25.5027 32.0136 25.5021Z" fill="white" stroke="white" stroke-width="0.3"/>
</svg>
