<?xml version="1.0" encoding="utf-8"?><svg viewBox="0 0 502.66 502.66" xmlns="http://www.w3.org/2000/svg" xmlns:xlink="http://www.w3.org/1999/xlink"><style>:root>svg{display:none}:root>svg:target{display:block}</style><svg viewBox="0 0 18 18" id="arrow" xmlns="http://www.w3.org/2000/svg"><path d="M9.004.744L.748 9l8.256 8.256M17.26 9H.748"/></svg><svg viewBox="0 0 23 24" id="cloud" xmlns="http://www.w3.org/2000/svg"><g clip-path="url(#ba)" stroke-width="2" stroke-linecap="round" stroke-linejoin="round"><path d="M7.488 16.68l3.745 3.744 3.744-3.744M11.232 12v8.424"/><path d="M19.545 17.7a4.68 4.68 0 00-2.696-8.508h-1.18a7.488 7.488 0 10-12.86 6.823"/></g><defs><clipPath id="ba"><path transform="translate(0 .767)" d="M0 0h22.465v22.465H0z"/></clipPath></defs></svg><svg viewBox="0 0 502.664 502.664" id="icon" xmlns="http://www.w3.org/2000/svg"><path d="M153.821 358.226L0 274.337v-46.463l153.821-83.414v54.574L46.636 250.523l107.185 53.431v54.272zm26.273 29.358L282.103 115.08h32.227L212.084 387.584h-31.99zm168.749-29.358v-54.272l107.164-52.999-107.164-52.59v-53.927l153.821 83.522v46.183l-153.821 84.083z"/></svg><svg viewBox="0 0 18 18" id="inst" xmlns="http://www.w3.org/2000/svg"><path d="M5 0C2.243 0 0 2.243 0 5v8c0 2.757 2.243 5 5 5h8c2.757 0 5-2.243 5-5V5c0-2.757-2.243-5-5-5H5zm0 2h8c1.654 0 3 1.346 3 3v8c0 1.654-1.346 3-3 3H5c-1.654 0-3-1.346-3-3V5c0-1.654 1.346-3 3-3zm9 1a1 1 0 100 2 1 1 0 000-2zM9 4C6.243 4 4 6.243 4 9s2.243 5 5 5 5-2.243 5-5-2.243-5-5-5zm0 2c1.654 0 3 1.346 3 3s-1.346 3-3 3-3-1.346-3-3 1.346-3 3-3z"/></svg><svg viewBox="0 0 24 24" id="insta" xmlns="http://www.w3.org/2000/svg"><path d="M8 3C5.243 3 3 5.243 3 8v8c0 2.757 2.243 5 5 5h8c2.757 0 5-2.243 5-5V8c0-2.757-2.243-5-5-5H8zm0 2h8c1.654 0 3 1.346 3 3v8c0 1.654-1.346 3-3 3H8c-1.654 0-3-1.346-3-3V8c0-1.654 1.346-3 3-3zm9 1a1 1 0 00-1 1 1 1 0 001 1 1 1 0 001-1 1 1 0 00-1-1zm-5 1c-2.757 0-5 2.243-5 5s2.243 5 5 5 5-2.243 5-5-2.243-5-5-5zm0 2c1.654 0 3 1.346 3 3s-1.346 3-3 3-3-1.346-3-3 1.346-3 3-3z"/></svg><svg viewBox="0 0 32 42" id="play" xmlns="http://www.w3.org/2000/svg"><path d="M1 1l30 20L1 41V1z"/></svg><svg viewBox="0 0 102 102" id="play-btn" xmlns="http://www.w3.org/2000/svg"><path d="M51 101c27.614 0 50-22.386 50-50S78.614 1 51 1 1 23.386 1 51s22.386 50 50 50z"/><path d="M41 32l30 20-30 20V32z"/></svg><svg viewBox="0 0 16 22" id="tel" xmlns="http://www.w3.org/2000/svg"><path d="M13 1H3a2 2 0 00-2 2v16a2 2 0 002 2h10a2 2 0 002-2V3a2 2 0 00-2-2zM8 17h.01"/></svg><svg viewBox="0 0 24 25" id="wu" xmlns="http://www.w3.org/2000/svg"><path d="M17.507 14.312l-.009.075c-2.199-1.096-2.429-1.242-2.713-.816-.197.295-.77.964-.944 1.162-.175.195-.349.21-.646.075-.3-.15-1.263-.465-2.403-1.485-.888-.795-1.484-1.77-1.66-2.07-.293-.506.32-.578.878-1.634.1-.21.05-.375-.025-.524-.075-.15-.672-1.62-.922-2.206-.24-.584-.487-.51-.672-.51-.576-.05-.997-.042-1.368.344-1.614 1.774-1.207 3.604.174 5.55 2.714 3.552 4.16 4.206 6.804 5.114.714.227 1.365.195 1.88.121.574-.09 1.767-.72 2.016-1.426.255-.705.255-1.29.18-1.425-.074-.135-.27-.21-.57-.345z"/><path d="M20.52 3.454C12.831-3.979.106 1.412.101 11.898c0 2.096.55 4.14 1.595 5.945L0 24.005l6.335-1.652c7.905 4.27 17.661-1.4 17.665-10.449a11.79 11.79 0 00-3.495-8.41l.015-.04zm1.482 8.417c-.006 7.633-8.385 12.4-15.012 8.504l-.36-.214-3.75.975 1.005-3.645-.239-.375c-4.124-6.565.614-15.145 8.426-15.145a9.865 9.865 0 017.021 2.91 9.788 9.788 0 012.91 6.99z"/></svg></svg>