<svg width="48" height="40" viewBox="0 0 48 40" fill="none" xmlns="http://www.w3.org/2000/svg">
<path d="M47.797 15.3344L39.5414 1.67676C39.1761 1.07236 38.4191 0.832826 37.7723 1.1167L32.7267 3.33333L24.9464 1.02895C24.5852 0.921888 24.1961 0.964357 23.8664 1.1467L14.9075 6.10158L9.74522 2.79661C9.42581 2.59214 9.03731 2.5252 8.66803 2.61136C8.29866 2.69733 7.97972 2.92889 7.7835 3.25345L0.202969 15.7943C-0.192 16.4477 0.0065624 17.2969 0.65025 17.7075L3.84 19.7416L3.19528 20.6019C1.89328 22.3393 2.24747 24.8121 3.98484 26.1141C4.67344 26.6301 5.49253 26.9014 6.33787 26.9014C6.41344 26.9014 6.48928 26.8977 6.56522 26.8933C6.76791 27.7649 7.26563 28.5726 8.03606 29.1499C8.74275 29.6795 9.57084 29.9351 10.3925 29.9351C10.4665 29.9351 10.5405 29.9329 10.6144 29.9288C10.8233 30.8313 11.3373 31.6239 12.0873 32.1859C12.7759 32.7019 13.595 32.9732 14.4403 32.9732C14.5159 32.9732 14.5917 32.9695 14.6677 32.9651C14.8703 33.8367 15.3681 34.6443 16.1385 35.2217C16.8452 35.7513 17.6733 36.0069 18.4949 36.0069C19.6935 36.0069 20.8782 35.4629 21.6506 34.4322L21.7777 34.2626L27.4013 38.2655C28.1258 38.7811 28.9626 39.0291 29.7923 39.0291C31.0778 39.029 32.3458 38.4338 33.1498 37.3169C33.4981 36.8331 33.7264 36.2995 33.8397 35.7514C35.3717 36.0442 37.0085 35.4554 37.9749 34.1129C38.493 33.3931 38.7427 32.5594 38.7437 31.7321C39.8519 31.5988 40.9031 31.0218 41.6028 30.0498C42.0294 29.4571 42.2741 28.7866 42.3476 28.1064C43.6661 28.1363 44.98 27.5411 45.8047 26.3954C46.4469 25.5032 46.7018 24.4153 46.5224 23.3321C46.3427 22.2469 45.7491 21.2971 44.8508 20.6579L43.4863 19.6866L47.3444 17.251C47.9919 16.842 48.1933 15.9899 47.797 15.3344ZM7.24641 23.6377C7.06622 23.8782 6.80316 24.0341 6.50578 24.0767C6.20794 24.1192 5.91206 24.0435 5.67159 23.8634C5.17509 23.4914 5.07394 22.785 5.44594 22.2885L7.28991 19.8278C7.66191 19.3314 8.36841 19.2301 8.86481 19.6021C9.36122 19.9741 9.46247 20.6806 9.09047 21.177L7.24641 23.6377ZM11.2976 26.6736C10.9255 27.1699 10.219 27.2713 9.72272 26.8993C9.22631 26.5272 9.12516 25.8207 9.49706 25.3244L11.3411 22.8637C11.3413 22.8634 11.3415 22.8632 11.3417 22.863L12.6389 21.132C12.8191 20.8915 13.0822 20.7356 13.3795 20.6929C13.6773 20.6504 13.9733 20.7261 14.2137 20.9063C14.7101 21.2783 14.8114 21.9848 14.4394 22.4812L11.2976 26.6736ZM15.3488 29.7094C15.1687 29.9499 14.9055 30.1058 14.6081 30.1484C14.3108 30.191 14.0144 30.1154 13.7739 29.9352C13.5335 29.755 13.3776 29.4918 13.3349 29.1945C13.2922 28.8971 13.3681 28.6007 13.5483 28.3603L16.69 24.1679C16.6901 24.1678 16.6901 24.1677 16.6902 24.1676L17.2626 23.4039C17.4427 23.1634 17.7059 23.0075 18.0033 22.9649C18.0574 22.9571 18.1115 22.9532 18.1652 22.9532C18.4067 22.9532 18.6407 23.0308 18.8375 23.1781C19.0779 23.3583 19.2338 23.6215 19.2765 23.9189C19.3192 24.2162 19.2433 24.5126 19.0631 24.753L15.3488 29.7094ZM21.2438 30.2849L19.3999 32.7455C19.0279 33.2418 18.3214 33.3431 17.825 32.9711C17.3287 32.5991 17.2274 31.8926 17.5994 31.3962L19.4434 28.9355C19.6236 28.6951 19.8866 28.5392 20.1841 28.4966C20.4814 28.454 20.7778 28.5298 21.0182 28.7099C21.5146 29.082 21.6158 29.7884 21.2438 30.2849ZM43.7474 23.7918C43.8038 24.1309 43.7236 24.4722 43.5218 24.7523C43.1002 25.3381 42.277 25.4729 41.687 25.0528L40.6688 24.328C40.6686 24.3279 40.6684 24.3278 40.6682 24.3276L40.6681 24.3275L34.9912 20.2917C34.3582 19.8417 33.4804 19.99 33.0303 20.623C32.5803 21.256 32.7286 22.134 33.3616 22.584L39.0277 26.6122C39.6011 27.029 39.7324 27.8339 39.3199 28.4068C38.8982 28.9924 38.0752 29.1272 37.485 28.7071L37.0399 28.3904C37.0398 28.3903 37.0397 28.3903 37.0396 28.3902C37.0394 28.3901 37.0393 28.39 37.0391 28.3898L32.6554 25.2733C32.0224 24.8233 31.1445 24.9715 30.6944 25.6046C30.2444 26.2376 30.3927 27.1155 31.0257 27.5655L35.3992 30.6748C35.9732 31.0914 36.1045 31.8965 35.6919 32.4698C35.2702 33.0555 34.4472 33.1902 33.8571 32.7702L32.2975 31.6602C32.2973 31.66 32.2972 31.6598 32.2969 31.6597L29.9363 29.9815C29.3033 29.5316 28.4253 29.6798 27.9753 30.3128C27.5253 30.9458 27.6736 31.8238 28.3066 32.2738L30.6262 33.9228C31.1597 34.3533 31.2665 35.1189 30.8668 35.6741C30.4451 36.2596 29.6221 36.3945 29.0318 35.9745L23.4643 32.0115L23.4941 31.9718C24.7961 30.2344 24.4418 27.7617 22.7045 26.4597C22.3764 26.2139 22.0222 26.0273 21.6546 25.8976C22.0346 25.1716 22.1785 24.3476 22.06 23.5205C21.9109 22.4794 21.3652 21.5587 20.5236 20.928C19.6819 20.2972 18.6451 20.0321 17.6039 20.1811C17.4538 20.2026 17.3066 20.2334 17.1622 20.271C16.9002 19.6501 16.4768 19.0883 15.8999 18.656C15.0582 18.0252 14.0213 17.7598 12.9802 17.9092C12.4593 17.9838 11.9685 18.1577 11.5291 18.4184C11.2788 18.0163 10.9523 17.6525 10.551 17.3519C9.04069 16.22 6.97509 16.3404 5.60559 17.5323L3.31969 16.0746L9.44353 5.94361L12.1084 7.64967L10.3455 8.62467C9.92728 8.85604 9.65513 9.28392 9.62306 9.76073C9.55566 10.761 9.75956 11.7639 10.2127 12.6612C11.611 15.4297 15.0118 16.5519 17.7932 15.1624L24.3213 11.9023L27.631 11.9509L40.1528 20.7666C40.1528 20.7667 40.153 20.7668 40.1531 20.7669L43.2192 22.9494C43.5035 23.1514 43.691 23.4507 43.7474 23.7918ZM41.0052 17.927L28.8957 9.4012C28.6645 9.23845 28.3896 9.14911 28.1068 9.14498L24.0205 9.08489C24.0136 9.08479 24.0068 9.08479 23.9998 9.08479C23.7818 9.08479 23.5667 9.13551 23.3715 9.23301L16.537 12.6463C15.1365 13.3455 13.4257 12.7836 12.7235 11.3932C12.6062 11.1609 12.5223 10.9146 12.4735 10.6619L24.712 3.8932L32.4214 6.17658C32.74 6.27098 33.0819 6.24942 33.3863 6.11573L37.773 4.1887L44.6765 15.6093L41.0052 17.927Z" fill="#4D8230"/>
</svg>
