<svg width="48" height="42" viewBox="0 0 48 42" fill="none" xmlns="http://www.w3.org/2000/svg">
<path d="M46.5938 30.797H45.1878V1.82807C45.1878 1.05144 44.5582 0.421814 43.7815 0.421814H4.21857C3.44194 0.421814 2.81232 1.05144 2.81232 1.82807V30.797H1.40625C0.629626 30.797 0 31.4266 0 32.2032V37.3594C0 37.7323 0.148219 38.0901 0.411938 38.3538L3.22463 41.1664C3.48835 41.4301 3.84601 41.5782 4.21895 41.5782H43.781C44.1539 41.5782 44.5116 41.4301 44.7753 41.1664L47.5881 38.3538C47.8518 38.0901 47.9999 37.7323 47.9999 37.3594V32.2032C48 31.4266 47.3704 30.797 46.5938 30.797ZM5.62482 3.23432H42.3753V30.797H32.4378C32.0649 30.797 31.7073 30.9451 31.4436 31.2087L30.449 32.2029H17.551L16.5565 31.2087C16.2928 30.9451 15.9352 30.797 15.5622 30.797H5.62473V3.23432H5.62482ZM45.1875 36.7768L43.1985 38.7657H4.80142L2.81251 36.7769V33.6095H14.98L15.9745 34.6037C16.2382 34.8673 16.5958 35.0154 16.9687 35.0154H31.0315C31.4044 35.0154 31.762 34.8673 32.0257 34.6037L33.0203 33.6095H45.1876V36.7768H45.1875Z" fill="#4D8230"/>
<path d="M37.0562 11.9169L24.3995 8.16658C24.1388 8.08933 23.8612 8.08933 23.6005 8.16658L10.9438 11.9169C10.3467 12.0938 9.93714 12.6424 9.93714 13.2652C9.93714 13.888 10.3467 14.4366 10.9438 14.6135L15.5624 15.9821L15.5625 22.255C15.5624 22.2588 15.5624 22.2626 15.5624 22.2663C15.5624 24.965 20.1077 25.9226 24 25.9226C27.8924 25.9226 32.4377 24.965 32.4377 22.2663C32.4377 22.2662 32.4377 22.266 32.4377 22.266C32.4377 22.2659 32.4377 22.2658 32.4377 22.2657V15.982L35.2504 15.1485V24.5163C35.2504 25.293 35.8801 25.9226 36.6567 25.9226C37.4333 25.9226 38.063 25.293 38.063 24.5163V13.2652C38.0629 12.6424 37.6533 12.0939 37.0562 11.9169ZM24 10.9816L31.7069 13.2652L24 15.5488L16.2932 13.2652L24 10.9816ZM29.6251 22.0315C29.1056 22.4403 27.0959 23.1101 24 23.1101C20.9042 23.1101 18.8944 22.4403 18.3749 22.0315V16.8154L23.6005 18.3638C23.7309 18.4024 23.8654 18.4217 24 18.4217C24.1346 18.4217 24.2692 18.4024 24.3996 18.3638L29.6252 16.8154L29.6251 22.0315Z" fill="#4D8230"/>
</svg>
