<svg width="48" height="48" viewBox="0 0 48 48" fill="none" xmlns="http://www.w3.org/2000/svg">
<path d="M24.2988 0C18.5763 0.000107598 13.0471 2.07047 8.73192 5.82887C4.41672 9.58727 1.60692 14.7799 0.82125 20.4482C0.168093 25.2484 0.988704 30.1338 3.17438 34.4572L0.0510936 46.1117C-0.0171703 46.3661 -0.0172428 46.634 0.0508834 46.8884C0.11901 47.1428 0.252932 47.3749 0.439182 47.5611C0.625432 47.7473 0.857441 47.8813 1.11188 47.9494C1.36631 48.0175 1.6342 48.0175 1.88859 47.9492L13.5431 44.8264C17.8665 47.0119 22.7519 47.8325 27.5521 47.1795C33.2204 46.3937 38.4131 43.5838 42.1715 39.2685C45.9298 34.9531 48.0001 29.4238 48 23.7012C47.9999 17.4153 45.5028 11.3868 41.058 6.94201C36.6132 2.49718 30.5847 7.45905e-05 24.2988 0V0ZM38.9367 38.3393C34.9739 42.3022 29.6314 44.3809 24.2438 44.3805C20.8195 44.3857 17.4482 43.5354 14.436 41.9069C14.0985 41.7238 13.7037 41.6771 13.3328 41.7765L3.62128 44.3787L6.2235 34.6672C6.32281 34.2963 6.27614 33.9015 6.09309 33.564C1.7595 25.5725 3.22641 15.4975 9.66066 9.06328C17.732 0.991875 30.8651 0.991407 38.9367 9.06328C47.0083 17.1352 47.0081 30.2678 38.9367 38.3393ZM35.9119 16.5634C35.5969 16.3791 35.2386 16.2819 34.8737 16.2819C34.5088 16.2819 34.1504 16.3791 33.8355 16.5634L31.3435 18.0022C31.122 17.131 30.6168 16.3585 29.9076 15.8063C29.1984 15.2541 28.3256 14.9537 27.4267 14.9525H15.0892C14.0181 14.9537 12.9912 15.3797 12.2339 16.1371C11.4765 16.8945 11.0505 17.9214 11.0493 18.9925V29.0074C11.0505 30.0785 11.4765 31.1054 12.2339 31.8627C12.9913 32.6201 14.0181 33.0462 15.0892 33.0473H27.4267C28.3256 33.0461 29.1984 32.7458 29.9076 32.1936C30.6168 31.6414 31.122 30.8688 31.3435 29.9978L33.8354 31.4364C34.1511 31.6187 34.5092 31.7147 34.8737 31.7147C35.2382 31.7147 35.5963 31.6188 35.912 31.4366C36.2276 31.2543 36.4898 30.9922 36.672 30.6765C36.8543 30.3608 36.9503 30.0027 36.9502 29.6382V18.3617C36.9524 17.9967 36.8573 17.6378 36.6748 17.3218C36.4924 17.0057 36.229 16.744 35.9119 16.5634ZM28.4668 29.0074C28.4665 29.2831 28.3568 29.5474 28.1618 29.7424C27.9668 29.9374 27.7025 30.047 27.4267 30.0473H15.0892C14.8135 30.047 14.5492 29.9373 14.3542 29.7424C14.1593 29.5474 14.0496 29.2831 14.0493 29.0074V18.9926C14.0496 18.7169 14.1593 18.4526 14.3542 18.2576C14.5492 18.0626 14.8135 17.9529 15.0892 17.9526H27.4267C27.7025 17.9529 27.9668 18.0626 28.1618 18.2575C28.3568 18.4525 28.4665 18.7169 28.4668 18.9926V29.0074ZM33.9502 28.0386L31.4668 26.6047V21.3953L33.9502 19.9609V28.0386Z" fill="#4D8230"/>
</svg>
