<svg width="64" height="65" viewBox="0 0 64 65" fill="none" xmlns="http://www.w3.org/2000/svg">
<rect x="0.000244141" y="0.00537109" width="64" height="64" rx="32" fill="#25D366"/>
<g clip-path="url(#clip0_21_67)">
<path d="M37.5073 34.3123L37.4983 34.3873C35.2993 33.2913 35.0693 33.1453 34.7853 33.5713C34.5883 33.8663 34.0143 34.5353 33.8413 34.7333C33.6663 34.9283 33.4923 34.9433 33.1953 34.8083C32.8953 34.6583 31.9323 34.3433 30.7923 33.3233C29.9043 32.5283 29.3083 31.5533 29.1323 31.2533C28.8393 30.7473 29.4523 30.6753 30.0103 29.6193C30.1103 29.4093 30.0593 29.2443 29.9853 29.0953C29.9103 28.9453 29.3133 27.4753 29.0633 26.8893C28.8233 26.3053 28.5763 26.3793 28.3913 26.3793C27.8153 26.3293 27.3943 26.3373 27.0233 26.7233C25.4093 28.4973 25.8163 30.3273 27.1973 32.2733C29.9113 35.8253 31.3573 36.4793 34.0013 37.3873C34.7153 37.6143 35.3663 37.5823 35.8813 37.5083C36.4553 37.4173 37.6483 36.7873 37.8973 36.0823C38.1523 35.3773 38.1523 34.7923 38.0773 34.6573C38.0033 34.5223 37.8073 34.4473 37.5073 34.3123Z" fill="white"/>
<path d="M40.5202 23.4543C32.8312 16.0213 20.1062 21.4123 20.1012 31.8983C20.1012 33.9943 20.6502 36.0383 21.6962 37.8433L20.0002 44.0053L26.3352 42.3533C34.2402 46.6233 43.9962 40.9533 44.0002 31.9043C44.0002 28.7283 42.7602 25.7393 40.5052 23.4933L40.5202 23.4543ZM42.0022 31.8713C41.9962 39.5043 33.6172 44.2713 26.9902 40.3753L26.6302 40.1613L22.8802 41.1363L23.8852 37.4913L23.6462 37.1163C19.5222 30.5513 24.2602 21.9713 32.0722 21.9713C34.7262 21.9713 37.2172 23.0063 39.0932 24.8813C40.9682 26.7403 42.0022 29.2313 42.0022 31.8713Z" fill="white"/>
</g>
<defs>
<clipPath id="clip0_21_67">
<rect width="24" height="24" fill="white" transform="translate(20.0002 20.0054)"/>
</clipPath>
</defs>
</svg>
