<svg width="185" height="185" fill="none" xmlns="http://www.w3.org/2000/svg"><path d="M61.25 109.963a72.375 72.375 0 01-21.633-3.685c-12.545-3.973-22.328-9.908-28.295-17.163-5.81-7.078-7.7-15.115-5.323-22.667 2.385-7.54 8.565-13.035 17.398-15.473 9.057-2.5 20.477-1.72 33.015 2.25 29.022 9.188 37.797 26.625 33.615 39.827-2.388 7.541-8.565 13.038-17.398 15.476a42.974 42.974 0 01-11.38 1.435zM34.801 54.535a37.814 37.814 0 00-10.063 1.25c-7.25 2-12.077 6.205-13.962 12.163-1.888 5.955-.36 12.175 4.415 17.982 5.352 6.5 14.322 11.892 25.94 15.573 11.617 3.68 22.05 4.44 30.175 2.197 7.25-2 12.077-6.207 13.962-12.163 4.123-13.015-8.077-26.5-30.355-33.555a67.537 67.537 0 00-20.112-3.447z" fill="#FFDA00"/><path d="M86.465 97.688a2.501 2.501 0 01-1.965-.938c-6.695-8.412-19.593-13.467-38.33-15.02-19.63-1.625-35.9-17.785-36.583-18.473a2.5 2.5 0 113.545-3.527c.153.155 15.68 15.545 33.45 17.018 20.45 1.695 34.135 7.217 41.828 16.89a2.5 2.5 0 01-1.953 4.057l.008-.007zM122.812 80.088c-12.25 0-20.605-5.463-24.312-13.123-6.03-12.47.155-30.983 27.56-44.238 11.842-5.727 23.027-8.135 32.35-6.96 9.092 1.148 16 5.7 19.44 12.82 6.03 12.468-.155 30.983-27.56 44.25a64.099 64.099 0 01-27.478 7.25zM103 64.788c5.942 12.29 24.072 13.71 45.11 3.535 21.037-10.175 31.182-25.268 25.237-37.558-2.72-5.625-8.1-9.095-15.562-10.035-8.368-1.063-18.578 1.192-29.548 6.5C107.2 37.403 97.057 52.5 103 64.787z" fill="#FFDA00"/><path d="M99.864 62.19c-.53 0-.855 0-.958-.012a2.502 2.502 0 01.155-5c.21 0 22.083.522 36-10.608 16.035-12.818 29.783-18.2 42-16.457a2.498 2.498 0 011.828 3.758 2.493 2.493 0 01-1.548 1.148 2.5 2.5 0 01-.982.044c-10.635-1.5-23.5 3.67-38.18 15.412-13.798 11.042-33.68 11.715-38.315 11.715zM84.284 169.523a41.607 41.607 0 01-9.812-1.103c-8.903-2.16-15.25-7.46-17.873-14.922-2.622-7.463-.987-15.565 4.608-22.823 5.737-7.44 15.33-13.677 27.75-18.04 12.42-4.362 23.795-5.5 32.93-3.282 8.902 2.16 15.25 7.46 17.872 14.92 2.623 7.46 1 15.567-4.607 22.822-5.735 7.44-15.328 13.68-27.75 18.04a70.64 70.64 0 01-23.118 4.388zm27.758-56.273a65.65 65.65 0 00-21.435 4.108c-11.5 4.042-20.295 9.705-25.44 16.377-4.593 5.955-5.925 12.218-3.853 18.11 2.07 5.895 7.03 9.948 14.338 11.72 8.187 1.985 18.592.9 30.09-3.142 11.497-4.043 20.295-9.703 25.442-16.375 4.59-5.955 5.923-12.218 3.85-18.11-2.072-5.893-7.03-9.948-14.337-11.72a36.603 36.603 0 00-8.655-.968z" fill="#FFDA00"/><path d="M66.637 149.335a68.62 68.62 0 01-9.095-.545 2.502 2.502 0 01-1.14-4.478 2.5 2.5 0 011.855-.472c.212.03 21.875 3 36.96-6.5 17.367-10.938 31.625-14.75 43.585-11.638a2.499 2.499 0 011.887 3.068 2.497 2.497 0 01-3.137 1.77c-10.403-2.698-23.75 1-39.668 11.03-10.292 6.482-22.885 7.765-31.247 7.765z" fill="#FFDA00"/></svg>