<svg width="56" height="56" fill="none" xmlns="http://www.w3.org/2000/svg"><path d="M28 56c15.464 0 28-12.536 28-28S43.464 0 28 0 0 12.536 0 28s12.536 28 28 28z" fill="url(#paint0_linear_548_785)"/><path fill-rule="evenodd" clip-rule="evenodd" d="M12.674 27.704c8.163-3.556 13.606-5.9 16.33-7.033 7.775-3.235 9.391-3.796 10.444-3.815.232-.004.75.053 1.085.326.283.23.361.54.399.758.037.218.083.714.046 1.102-.42 4.428-2.244 15.172-3.172 20.13-.392 2.099-1.165 2.803-1.913 2.871-1.626.15-2.861-1.074-4.436-2.106-2.464-1.616-3.857-2.621-6.249-4.198-2.764-1.822-.972-2.823.604-4.46.412-.427 7.576-6.944 7.715-7.535.017-.074.033-.35-.13-.495-.164-.146-.406-.096-.58-.056-.248.056-4.184 2.658-11.81 7.806-1.118.767-2.13 1.141-3.037 1.122-1-.022-2.923-.566-4.353-1.03-1.753-.57-3.147-.872-3.026-1.84.064-.504.758-1.02 2.083-1.547z" fill="#fff"/><defs><linearGradient id="paint0_linear_548_785" x1="28" y1="0" x2="28" y2="55.585" gradientUnits="userSpaceOnUse"><stop stop-color="#2AABEE"/><stop offset="1" stop-color="#229ED9"/></linearGradient></defs></svg>