<svg width="24" height="24" fill="none" xmlns="http://www.w3.org/2000/svg"><path d="M12 22c5.523 0 10-4.477 10-10S17.523 2 12 2 2 6.477 2 12s4.477 10 10 10zm8.4-10c0 4.632-3.768 8.4-8.4 8.4-4.632 0-8.4-3.768-8.4-8.4 0-4.632 3.768-8.4 8.4-8.4 4.632 0 8.4 3.768 8.4 8.4z" fill="#FFDA00"/><path d="M10.258 17.078a1.59 1.59 0 001.734-.347l3.599-3.6a1.6 1.6 0 00-.001-2.262l-3.6-3.6a1.6 1.6 0 00-1.132-.47 1.588 1.588 0 00-1.574 1.6v7.2c0 .648.376 1.232.974 1.48zm.625-8.561V8.4l3.6 3.6-3.6 3.6V8.517z" fill="#FFDA00"/></svg>