<svg width="24" height="24" fill="none" xmlns="http://www.w3.org/2000/svg"><g clip-path="url(#clip0_563_2039)" fill="#FFDA00"><path d="M20.935 5.83L15.31.207A.704.704 0 0014.812 0H4.97c-1.163 0-2.11.946-2.11 2.11v19.78c0 1.164.947 2.11 2.11 2.11H19.03c1.163 0 2.11-.946 2.11-2.11V6.329a.71.71 0 00-.206-.497zm-5.42-3.43l3.225 3.225h-2.521a.704.704 0 01-.703-.703V2.4zm3.516 20.194H4.97a.704.704 0 01-.703-.703V2.109c0-.387.315-.703.703-.703h9.14v3.516c0 1.163.947 2.11 2.11 2.11h3.515V21.89a.704.704 0 01-.703.703z"/><path d="M16.219 9.938H7.78a.703.703 0 000 1.406h8.438a.703.703 0 000-1.406zM16.219 12.75H7.78a.703.703 0 000 1.406h8.438a.703.703 0 000-1.406zM16.219 15.563H7.78a.703.703 0 000 1.406h8.438a.703.703 0 000-1.407zM13.406 18.375H7.781a.703.703 0 000 1.406h5.625a.703.703 0 100-1.406z"/></g><defs><clipPath id="clip0_563_2039"><path fill="#fff" d="M0 0h24v24H0z"/></clipPath></defs></svg>