<svg width="24" height="24" fill="none" xmlns="http://www.w3.org/2000/svg"><g clip-path="url(#clip0_563_2007)" fill="#FFDA00"><path d="M19.089 14.127a3.016 3.016 0 00-3.013 3.012 3.016 3.016 0 003.013 3.013 3.016 3.016 0 003.013-3.013 3.016 3.016 0 00-3.013-3.012zm0 4.506a1.495 1.495 0 010-2.987c.823 0 1.493.67 1.493 1.493 0 .824-.67 1.494-1.493 1.494zM6.151 14.127a3.016 3.016 0 00-3.012 3.012 3.016 3.016 0 003.012 3.013 3.016 3.016 0 003.013-3.013 3.016 3.016 0 00-3.013-3.012zm0 4.506c-.823 0-1.493-.67-1.493-1.494s.67-1.494 1.493-1.494c.824 0 1.494.67 1.494 1.494s-.67 1.494-1.494 1.494z"/><path d="M23.896 10.477l-2.177-3.721a.76.76 0 00-.656-.376h-6.532v1.519h6.096l1.854 3.168v5.313h-1.14v1.519h1.9c.419 0 .759-.34.759-.76v-6.278a.758.758 0 00-.104-.384zM16.862 16.38H8.38v1.519h8.48v-1.52z"/><path d="M14.532 3.848H.76a.76.76 0 00-.76.76v12.531c0 .42.34.76.76.76h2.835v-1.52H1.519V5.368h12.253V17.14h1.52V4.608a.76.76 0 00-.76-.76z"/><path d="M23.24 10.152H14.53v1.519h8.709v-1.52zM11.495 6.86H7.09a.76.76 0 100 1.52h4.405a.76.76 0 100-1.52zM11.495 9.57H3.773a.76.76 0 100 1.519h7.722a.76.76 0 100-1.52zM11.494 12.253H9.418a.76.76 0 100 1.52h2.076a.76.76 0 100-1.52z"/></g><defs><clipPath id="clip0_563_2007"><path fill="#fff" d="M0 0h24v24H0z"/></clipPath></defs></svg>