<svg width="24" height="24" fill="none" xmlns="http://www.w3.org/2000/svg"><path d="M12.703 11.297A3.52 3.52 0 009.188 7.78c-1.944 0-3.563 1.572-3.563 3.516 0 1.943 1.619 3.515 3.563 3.515a3.52 3.52 0 003.515-3.515zm-3.515 2.11c-1.17 0-2.157-.967-2.157-2.11 0-1.144.988-2.11 2.157-2.11 1.163 0 2.109.947 2.109 2.11 0 1.163-.946 2.11-2.11 2.11z" fill="#FFDA00"/><path d="M12.75 4.969H1.406V19.03H0v2.11c0 1.163.946 2.109 2.11 2.109h19.78c1.164 0 2.11-.946 2.11-2.11v-2.109h-1.406V7.781H24V.75H12.75v4.219zm9.844 16.172a.704.704 0 01-.703.703H2.109a.704.704 0 01-.703-.703v-.703h21.188v.703zm-9.844-2.11H5.625v-.703c0-1.143.987-2.11 2.156-2.11h2.813c1.169 0 2.156.967 2.156 2.11v.703zm8.438 0h-7.032v-.703c0-1.943-1.619-3.515-3.562-3.515H7.78c-1.943 0-3.562 1.571-3.562 3.515v.703H2.812V6.375h9.938v3.247l3.682-1.84h4.756v11.25zM14.155 2.156h8.438v4.219H16.1l-1.944.972v-5.19z" fill="#FFDA00"/><path d="M14.86 3.563h1.406v1.406h-1.407V3.562zM17.672 3.563h1.406v1.406h-1.406V3.562zM20.484 3.563h1.407v1.406h-1.407V3.562z" fill="#FFDA00"/></svg>