<svg width="24" height="24" fill="none" xmlns="http://www.w3.org/2000/svg"><g clip-path="url(#clip0_563_1988)" fill="#FFDA00"><path d="M18.133 9.274l.356.474c.119.119.237.237.355.237.119 0 .238 0 .356-.118l2.608-2.37a.573.573 0 000-.83L16.238.622c-.12-.118-.238-.237-.356-.237-.119 0-.356 0-.474.119L12.8 2.874a.573.573 0 000 .83l.356.474-4.267 3.91-.356-.473a.573.573 0 00-.83 0l-2.607 2.37c-.118.119-.237.237-.237.356 0 .118 0 .355.119.474l5.57 6.163c.119.118.237.237.356.237.118 0 .237 0 .355-.119l2.608-2.37c.118-.119.237-.237.237-.356 0-.118 0-.355-.119-.474l-.355-.474.83-.83 6.873 7.467c.119.119.238.237.356.237.119 0 .237 0 .355-.118l1.778-1.66a.573.573 0 000-.83l-6.874-7.466 1.185-.948zM15.882 1.69l4.859 5.215-1.778 1.54-.355-.474-4.03-4.385-.356-.474 1.66-1.422zM11.14 15.674l-4.86-5.215L8.06 8.8l.83.95 3.556 3.91.355.474-1.66 1.541zM9.719 8.918l4.385-4.03 3.2 3.438L16 9.51l-1.778 1.778-1.303 1.185-3.2-3.556zm13.037 9.008l-.83.83-6.4-6.993.83-.83 6.4 6.993z"/><path d="M16.593 23.022v-2.37c0-.356-.237-.593-.593-.593h-1.778v-1.778c0-.355-.237-.592-.592-.592H2.963c-.356 0-.593.237-.593.592v1.778H.593c-.356 0-.593.237-.593.593v2.37c0 .356.237.593.593.593H16c.356 0 .593-.237.593-.593zM3.556 18.874h9.481v1.185H3.556v-1.185zm11.851 3.556H1.185v-1.186h14.222v1.186z"/></g><defs><clipPath id="clip0_563_1988"><path fill="#fff" d="M0 0h24v24H0z"/></clipPath></defs></svg>