<svg width="23" height="24" viewBox="0 0 23 24" fill="none" xmlns="http://www.w3.org/2000/svg">
<g clip-path="url(#clip0_30_506)">
<path d="M7.4884 16.6802L11.2326 20.4244L14.9768 16.6802" stroke="#4D8230" stroke-width="2" stroke-linecap="round" stroke-linejoin="round"/>
<path d="M11.2325 12V20.4244" stroke="#4D8230" stroke-width="2" stroke-linecap="round" stroke-linejoin="round"/>
<path d="M19.5446 17.7003C20.3584 17.128 20.9687 16.3114 21.2869 15.3687C21.605 14.4261 21.6146 13.4067 21.3141 12.4583C21.0136 11.5099 20.4188 10.6819 19.6158 10.0945C18.8129 9.50712 17.8437 9.19086 16.8488 9.19164H15.6694C15.3879 8.09447 14.8611 7.07547 14.1288 6.21134C13.3964 5.34721 12.4776 4.66048 11.4415 4.20284C10.4053 3.7452 9.27884 3.52858 8.14686 3.56929C7.01489 3.61 5.90689 3.90697 4.9063 4.43786C3.9057 4.96874 3.03858 5.7197 2.3702 6.6342C1.70183 7.5487 1.24963 8.60291 1.04764 9.71746C0.845649 10.832 0.899134 11.9779 1.20407 13.0688C1.50901 14.1597 2.05744 15.1672 2.8081 16.0154" stroke="#4D8230" stroke-width="2" stroke-linecap="round" stroke-linejoin="round"/>
</g>
<defs>
<clipPath id="clip0_30_506">
<rect width="22.4651" height="22.4651" fill="white" transform="translate(0 0.767334)"/>
</clipPath>
</defs>
</svg>
