<svg width="24" height="25" viewBox="0 0 24 25" fill="none" xmlns="http://www.w3.org/2000/svg">
<path d="M17.5073 14.3123L17.4983 14.3873C15.2993 13.2913 15.0693 13.1453 14.7853 13.5713C14.5883 13.8663 14.0143 14.5353 13.8413 14.7333C13.6663 14.9283 13.4923 14.9433 13.1953 14.8083C12.8953 14.6583 11.9323 14.3433 10.7923 13.3233C9.90426 12.5283 9.30826 11.5533 9.13226 11.2533C8.83926 10.7473 9.45226 10.6753 10.0103 9.6193C10.1103 9.4093 10.0593 9.2443 9.98526 9.0953C9.91026 8.9453 9.31326 7.4753 9.06326 6.8893C8.82326 6.3053 8.57626 6.3793 8.39126 6.3793C7.81526 6.3293 7.39426 6.3373 7.02326 6.7233C5.40926 8.4973 5.81626 10.3273 7.19726 12.2733C9.91126 15.8253 11.3573 16.4793 14.0013 17.3873C14.7153 17.6143 15.3663 17.5823 15.8813 17.5083C16.4553 17.4173 17.6483 16.7873 17.8973 16.0823C18.1523 15.3773 18.1523 14.7923 18.0773 14.6573C18.0033 14.5223 17.8073 14.4473 17.5073 14.3123Z" fill="white"/>
<path d="M20.5202 3.45432C12.8312 -3.97868 0.106244 1.41231 0.101244 11.8983C0.101244 13.9943 0.650244 16.0383 1.69624 17.8433L0.000244141 24.0053L6.33524 22.3533C14.2402 26.6233 23.9962 20.9533 24.0002 11.9043C24.0002 8.72832 22.7602 5.73932 20.5052 3.49332L20.5202 3.45432ZM22.0022 11.8713C21.9962 19.5043 13.6172 24.2713 6.99024 20.3753L6.63024 20.1613L2.88024 21.1363L3.88524 17.4913L3.64624 17.1163C-0.477756 10.5513 4.26024 1.97132 12.0722 1.97132C14.7262 1.97132 17.2172 3.00632 19.0932 4.88132C20.9682 6.74032 22.0022 9.23131 22.0022 11.8713Z" fill="white"/>
</svg>
