<svg width="18" height="19" viewBox="0 0 18 19" fill="none" xmlns="http://www.w3.org/2000/svg">
<path d="M16.9995 13.4791V15.8877C17.0004 16.1113 16.9545 16.3327 16.8648 16.5375C16.775 16.7424 16.6434 16.9263 16.4783 17.0775C16.3132 17.2286 16.1183 17.3437 15.906 17.4154C15.6938 17.487 15.4689 17.5136 15.2457 17.4935C12.7702 17.225 10.3923 16.3808 8.30312 15.0286C6.35937 13.7959 4.71141 12.1512 3.47627 10.2113C2.11669 8.11679 1.27059 5.73206 1.00653 3.25036C0.986426 3.02834 1.01286 2.80457 1.08416 2.5933C1.15546 2.38203 1.27005 2.1879 1.42065 2.02325C1.57124 1.85861 1.75454 1.72706 1.95886 1.63699C2.16319 1.54691 2.38407 1.50029 2.60744 1.50008H5.02086C5.41128 1.49624 5.78977 1.63422 6.0858 1.8883C6.38182 2.14237 6.57517 2.49521 6.62981 2.88103C6.73168 3.65185 6.92059 4.4087 7.19295 5.13713C7.30118 5.4245 7.32461 5.73682 7.26045 6.03707C7.19629 6.33732 7.04723 6.61292 6.83093 6.83121L5.80925 7.85087C6.95446 9.86092 8.62206 11.5252 10.6361 12.6682L11.6578 11.6485C11.8765 11.4326 12.1527 11.2839 12.4535 11.2198C12.7544 11.1558 13.0673 11.1792 13.3552 11.2872C14.0851 11.559 14.8435 11.7476 15.6158 11.8492C16.0066 11.9042 16.3635 12.1007 16.6186 12.4012C16.8737 12.7017 17.0093 13.0853 16.9995 13.4791Z" stroke="white" stroke-width="2" stroke-linecap="round" stroke-linejoin="round"/>
</svg>
