<svg width="300" height="204" viewBox="0 0 300 204" fill="none" xmlns="http://www.w3.org/2000/svg">
<path d="M139.014 2.07968C139.014 3.22825 139.944 4.15935 141.091 4.15935C142.239 4.15935 143.169 3.22825 143.169 2.07968C143.169 0.931106 142.239 -4.06656e-08 141.091 -9.08292e-08C139.944 -1.40993e-07 139.014 0.931106 139.014 2.07968Z" fill="#ECECEC"/>
<path d="M139.014 21.952C139.014 23.1006 139.944 24.0317 141.092 24.0317C142.239 24.0317 143.169 23.1006 143.169 21.952C143.169 20.8034 142.239 19.8723 141.092 19.8723C139.944 19.8723 139.014 20.8034 139.014 21.952Z" fill="#ECECEC"/>
<path d="M139.014 42.0557C139.014 43.2043 139.944 44.1354 141.092 44.1354C142.239 44.1354 143.169 43.2043 143.169 42.0557C143.169 40.9072 142.239 39.9761 141.092 39.9761C139.944 39.9761 139.014 40.9072 139.014 42.0557Z" fill="#ECECEC"/>
<path d="M139.014 61.9281C139.014 63.0766 139.944 64.0077 141.092 64.0077C142.239 64.0077 143.169 63.0766 143.169 61.9281C143.169 60.7795 142.239 59.8484 141.092 59.8484C139.944 59.8484 139.014 60.7795 139.014 61.9281Z" fill="#ECECEC"/>
<path d="M139.014 82.0318C139.014 83.1804 139.944 84.1115 141.092 84.1115C142.239 84.1115 143.169 83.1804 143.169 82.0318C143.169 80.8833 142.239 79.9521 141.092 79.9521C139.944 79.9521 139.014 80.8833 139.014 82.0318Z" fill="#ECECEC"/>
<path d="M139.014 101.904C139.014 103.053 139.944 103.984 141.092 103.984C142.239 103.984 143.169 103.053 143.169 101.904C143.169 100.756 142.239 99.8245 141.092 99.8245C139.944 99.8245 139.014 100.756 139.014 101.904Z" fill="#ECECEC"/>
<path d="M139.014 121.776C139.014 122.925 139.944 123.856 141.092 123.856C142.239 123.856 143.169 122.925 143.169 121.776C143.169 120.628 142.239 119.697 141.092 119.697C139.944 119.697 139.014 120.628 139.014 121.776Z" fill="#ECECEC"/>
<path d="M139.014 141.88C139.014 143.029 139.944 143.96 141.092 143.96C142.239 143.96 143.169 143.029 143.169 141.88C143.169 140.731 142.239 139.8 141.092 139.8C139.944 139.8 139.014 140.731 139.014 141.88Z" fill="#ECECEC"/>
<path d="M139.014 161.752C139.014 162.901 139.944 163.832 141.092 163.832C142.239 163.832 143.169 162.901 143.169 161.752C143.169 160.603 142.239 159.672 141.092 159.672C139.944 159.672 139.014 160.603 139.014 161.752Z" fill="#ECECEC"/>
<path d="M139.014 181.856C139.014 183.005 139.944 183.936 141.092 183.936C142.239 183.936 143.169 183.005 143.169 181.856C143.169 180.707 142.239 179.776 141.092 179.776C139.944 179.776 139.014 180.707 139.014 181.856Z" fill="#ECECEC"/>
<path d="M139.014 201.728C139.014 202.877 139.944 203.808 141.092 203.808C142.239 203.808 143.169 202.877 143.169 201.728C143.169 200.58 142.239 199.648 141.092 199.648C139.944 199.648 139.014 200.58 139.014 201.728Z" fill="#ECECEC"/>
<path d="M119.154 2.07968C119.154 3.22825 120.085 4.15935 121.232 4.15935C122.38 4.15935 123.31 3.22825 123.31 2.07968C123.31 0.931106 122.38 -4.06656e-08 121.232 -9.08292e-08C120.085 -1.40993e-07 119.154 0.931106 119.154 2.07968Z" fill="#ECECEC"/>
<path d="M119.154 21.952C119.154 23.1006 120.085 24.0317 121.232 24.0317C122.38 24.0317 123.31 23.1006 123.31 21.952C123.31 20.8034 122.38 19.8723 121.232 19.8723C120.085 19.8723 119.154 20.8034 119.154 21.952Z" fill="#ECECEC"/>
<path d="M119.155 42.0557C119.155 43.2043 120.085 44.1354 121.232 44.1354C122.38 44.1354 123.31 43.2043 123.31 42.0557C123.31 40.9072 122.38 39.9761 121.232 39.9761C120.085 39.9761 119.155 40.9072 119.155 42.0557Z" fill="#ECECEC"/>
<path d="M119.154 61.9281C119.154 63.0766 120.085 64.0077 121.232 64.0077C122.38 64.0077 123.31 63.0766 123.31 61.9281C123.31 60.7795 122.38 59.8484 121.232 59.8484C120.085 59.8484 119.154 60.7795 119.154 61.9281Z" fill="#ECECEC"/>
<path d="M119.155 82.0316C119.155 83.1802 120.085 84.1113 121.232 84.1113C122.38 84.1113 123.31 83.1802 123.31 82.0316C123.31 80.883 122.38 79.9519 121.232 79.9519C120.085 79.9519 119.155 80.883 119.155 82.0316Z" fill="#ECECEC"/>
<path d="M119.154 101.904C119.154 103.053 120.085 103.984 121.232 103.984C122.38 103.984 123.31 103.053 123.31 101.904C123.31 100.756 122.38 99.8245 121.232 99.8245C120.085 99.8245 119.154 100.756 119.154 101.904Z" fill="#ECECEC"/>
<path d="M119.155 121.776C119.155 122.925 120.085 123.856 121.232 123.856C122.38 123.856 123.31 122.925 123.31 121.776C123.31 120.628 122.38 119.697 121.232 119.697C120.085 119.697 119.155 120.628 119.155 121.776Z" fill="#ECECEC"/>
<path d="M119.154 141.88C119.154 143.029 120.085 143.96 121.232 143.96C122.38 143.96 123.31 143.029 123.31 141.88C123.31 140.731 122.38 139.8 121.232 139.8C120.085 139.8 119.154 140.731 119.154 141.88Z" fill="#ECECEC"/>
<path d="M119.155 161.752C119.155 162.901 120.085 163.832 121.232 163.832C122.38 163.832 123.31 162.901 123.31 161.752C123.31 160.603 122.38 159.672 121.232 159.672C120.085 159.672 119.155 160.603 119.155 161.752Z" fill="#ECECEC"/>
<path d="M119.154 181.856C119.154 183.005 120.085 183.936 121.232 183.936C122.38 183.936 123.31 183.005 123.31 181.856C123.31 180.707 122.38 179.776 121.232 179.776C120.085 179.776 119.154 180.707 119.154 181.856Z" fill="#ECECEC"/>
<path d="M119.154 201.728C119.154 202.877 120.085 203.808 121.232 203.808C122.38 203.808 123.31 202.877 123.31 201.728C123.31 200.58 122.38 199.648 121.232 199.648C120.085 199.648 119.154 200.58 119.154 201.728Z" fill="#ECECEC"/>
<path d="M99.2954 2.07968C99.2954 3.22825 100.226 4.15935 101.373 4.15935C102.521 4.15935 103.451 3.22825 103.451 2.07968C103.451 0.931106 102.521 -4.06656e-08 101.373 -9.08292e-08C100.226 -1.40993e-07 99.2954 0.931106 99.2954 2.07968Z" fill="#ECECEC"/>
<path d="M99.2954 21.952C99.2954 23.1006 100.226 24.0317 101.373 24.0317C102.521 24.0317 103.451 23.1006 103.451 21.952C103.451 20.8034 102.521 19.8723 101.373 19.8723C100.226 19.8723 99.2954 20.8034 99.2954 21.952Z" fill="#ECECEC"/>
<path d="M99.2954 42.0557C99.2954 43.2043 100.226 44.1354 101.373 44.1354C102.521 44.1354 103.451 43.2043 103.451 42.0557C103.451 40.9072 102.521 39.9761 101.373 39.9761C100.226 39.9761 99.2954 40.9072 99.2954 42.0557Z" fill="#ECECEC"/>
<path d="M99.2954 61.9281C99.2954 63.0766 100.226 64.0077 101.373 64.0077C102.521 64.0077 103.451 63.0766 103.451 61.9281C103.451 60.7795 102.521 59.8484 101.373 59.8484C100.226 59.8484 99.2954 60.7795 99.2954 61.9281Z" fill="#ECECEC"/>
<path d="M99.2954 82.0318C99.2954 83.1804 100.226 84.1115 101.373 84.1115C102.521 84.1115 103.451 83.1804 103.451 82.0318C103.451 80.8833 102.521 79.9521 101.373 79.9521C100.226 79.9521 99.2954 80.8833 99.2954 82.0318Z" fill="#ECECEC"/>
<path d="M99.2954 101.904C99.2954 103.053 100.226 103.984 101.373 103.984C102.521 103.984 103.451 103.053 103.451 101.904C103.451 100.756 102.521 99.8245 101.373 99.8245C100.226 99.8245 99.2954 100.756 99.2954 101.904Z" fill="#ECECEC"/>
<path d="M99.2954 121.776C99.2954 122.925 100.226 123.856 101.373 123.856C102.521 123.856 103.451 122.925 103.451 121.776C103.451 120.628 102.521 119.697 101.373 119.697C100.226 119.697 99.2954 120.628 99.2954 121.776Z" fill="#ECECEC"/>
<path d="M99.2954 141.88C99.2954 143.029 100.226 143.96 101.373 143.96C102.521 143.96 103.451 143.029 103.451 141.88C103.451 140.731 102.521 139.8 101.373 139.8C100.226 139.8 99.2954 140.731 99.2954 141.88Z" fill="#ECECEC"/>
<path d="M99.2954 161.752C99.2954 162.901 100.226 163.832 101.373 163.832C102.521 163.832 103.451 162.901 103.451 161.752C103.451 160.603 102.521 159.672 101.373 159.672C100.226 159.672 99.2954 160.603 99.2954 161.752Z" fill="#ECECEC"/>
<path d="M99.2954 181.856C99.2954 183.005 100.226 183.936 101.373 183.936C102.521 183.936 103.451 183.005 103.451 181.856C103.451 180.707 102.521 179.776 101.373 179.776C100.226 179.776 99.2954 180.707 99.2954 181.856Z" fill="#ECECEC"/>
<path d="M99.2954 201.728C99.2954 202.877 100.226 203.808 101.373 203.808C102.521 203.808 103.451 202.877 103.451 201.728C103.451 200.58 102.521 199.648 101.373 199.648C100.226 199.648 99.2954 200.58 99.2954 201.728Z" fill="#ECECEC"/>
<path d="M79.4363 2.07968C79.4363 3.22825 80.3666 4.15935 81.5142 4.15935C82.6618 4.15935 83.5922 3.22825 83.5922 2.07968C83.5922 0.931106 82.6618 -4.06658e-08 81.5142 -9.08295e-08C80.3666 -1.40993e-07 79.4363 0.931106 79.4363 2.07968Z" fill="#ECECEC"/>
<path d="M79.4363 21.952C79.4363 23.1006 80.3666 24.0317 81.5142 24.0317C82.6618 24.0317 83.5922 23.1006 83.5922 21.952C83.5922 20.8034 82.6618 19.8723 81.5142 19.8723C80.3666 19.8723 79.4363 20.8034 79.4363 21.952Z" fill="#ECECEC"/>
<path d="M79.4363 42.0557C79.4363 43.2043 80.3666 44.1354 81.5142 44.1354C82.6618 44.1354 83.5922 43.2043 83.5922 42.0557C83.5922 40.9072 82.6618 39.9761 81.5142 39.9761C80.3666 39.9761 79.4363 40.9072 79.4363 42.0557Z" fill="#ECECEC"/>
<path d="M79.4364 61.9281C79.4364 63.0766 80.3667 64.0077 81.5143 64.0077C82.6619 64.0077 83.5922 63.0766 83.5922 61.9281C83.5922 60.7795 82.6619 59.8484 81.5143 59.8484C80.3667 59.8484 79.4364 60.7795 79.4364 61.9281Z" fill="#ECECEC"/>
<path d="M79.4364 82.0318C79.4364 83.1804 80.3667 84.1115 81.5143 84.1115C82.6619 84.1115 83.5922 83.1804 83.5922 82.0318C83.5922 80.8833 82.6619 79.9521 81.5143 79.9521C80.3667 79.9521 79.4364 80.8833 79.4364 82.0318Z" fill="#ECECEC"/>
<path d="M79.4363 101.904C79.4363 103.053 80.3666 103.984 81.5142 103.984C82.6618 103.984 83.5922 103.053 83.5922 101.904C83.5922 100.756 82.6618 99.8245 81.5142 99.8245C80.3666 99.8245 79.4363 100.756 79.4363 101.904Z" fill="#ECECEC"/>
<path d="M79.4363 121.776C79.4363 122.925 80.3666 123.856 81.5142 123.856C82.6618 123.856 83.5922 122.925 83.5922 121.776C83.5922 120.628 82.6618 119.697 81.5142 119.697C80.3666 119.697 79.4363 120.628 79.4363 121.776Z" fill="#ECECEC"/>
<path d="M79.4364 141.88C79.4364 143.029 80.3667 143.96 81.5143 143.96C82.6619 143.96 83.5922 143.029 83.5922 141.88C83.5922 140.731 82.6619 139.8 81.5143 139.8C80.3667 139.8 79.4364 140.731 79.4364 141.88Z" fill="#ECECEC"/>
<path d="M79.4364 161.752C79.4364 162.901 80.3667 163.832 81.5143 163.832C82.6619 163.832 83.5922 162.901 83.5922 161.752C83.5922 160.603 82.6619 159.672 81.5143 159.672C80.3667 159.672 79.4364 160.603 79.4364 161.752Z" fill="#ECECEC"/>
<path d="M79.4363 181.856C79.4363 183.005 80.3666 183.936 81.5142 183.936C82.6618 183.936 83.5922 183.005 83.5922 181.856C83.5922 180.707 82.6618 179.776 81.5142 179.776C80.3666 179.776 79.4363 180.707 79.4363 181.856Z" fill="#ECECEC"/>
<path d="M79.4363 201.728C79.4363 202.877 80.3666 203.808 81.5142 203.808C82.6618 203.808 83.5922 202.877 83.5922 201.728C83.5922 200.58 82.6618 199.648 81.5142 199.648C80.3666 199.648 79.4363 200.58 79.4363 201.728Z" fill="#ECECEC"/>
<path d="M59.5772 2.07968C59.5772 3.22825 60.5076 4.15935 61.6552 4.15935C62.8028 4.15935 63.7331 3.22825 63.7331 2.07968C63.7331 0.931106 62.8028 -4.06654e-08 61.6552 -9.08291e-08C60.5076 -1.40993e-07 59.5772 0.931106 59.5772 2.07968Z" fill="#ECECEC"/>
<path d="M59.5772 21.952C59.5772 23.1006 60.5076 24.0317 61.6552 24.0317C62.8028 24.0317 63.7331 23.1006 63.7331 21.952C63.7331 20.8034 62.8028 19.8723 61.6552 19.8723C60.5076 19.8723 59.5772 20.8034 59.5772 21.952Z" fill="#ECECEC"/>
<path d="M59.5772 42.0557C59.5772 43.2043 60.5076 44.1354 61.6552 44.1354C62.8028 44.1354 63.7331 43.2043 63.7331 42.0557C63.7331 40.9072 62.8028 39.9761 61.6552 39.9761C60.5076 39.9761 59.5772 40.9072 59.5772 42.0557Z" fill="#ECECEC"/>
<path d="M59.5772 61.9281C59.5772 63.0766 60.5076 64.0077 61.6552 64.0077C62.8028 64.0077 63.7331 63.0766 63.7331 61.9281C63.7331 60.7795 62.8028 59.8484 61.6552 59.8484C60.5076 59.8484 59.5772 60.7795 59.5772 61.9281Z" fill="#ECECEC"/>
<path d="M59.5772 82.0318C59.5772 83.1804 60.5076 84.1115 61.6552 84.1115C62.8028 84.1115 63.7331 83.1804 63.7331 82.0318C63.7331 80.8833 62.8028 79.9521 61.6552 79.9521C60.5076 79.9521 59.5772 80.8833 59.5772 82.0318Z" fill="#ECECEC"/>
<path d="M59.5773 101.904C59.5773 103.053 60.5076 103.984 61.6552 103.984C62.8028 103.984 63.7332 103.053 63.7332 101.904C63.7332 100.756 62.8028 99.8245 61.6552 99.8245C60.5076 99.8245 59.5773 100.756 59.5773 101.904Z" fill="#ECECEC"/>
<path d="M59.5773 121.776C59.5773 122.925 60.5076 123.856 61.6552 123.856C62.8028 123.856 63.7332 122.925 63.7332 121.776C63.7332 120.628 62.8028 119.697 61.6552 119.697C60.5076 119.697 59.5773 120.628 59.5773 121.776Z" fill="#ECECEC"/>
<path d="M59.5773 141.88C59.5773 143.029 60.5076 143.96 61.6552 143.96C62.8028 143.96 63.7332 143.029 63.7332 141.88C63.7332 140.731 62.8028 139.8 61.6552 139.8C60.5076 139.8 59.5773 140.731 59.5773 141.88Z" fill="#ECECEC"/>
<path d="M59.5773 161.752C59.5773 162.901 60.5076 163.832 61.6552 163.832C62.8028 163.832 63.7332 162.901 63.7332 161.752C63.7332 160.603 62.8028 159.672 61.6552 159.672C60.5076 159.672 59.5773 160.603 59.5773 161.752Z" fill="#ECECEC"/>
<path d="M59.5772 181.856C59.5772 183.005 60.5076 183.936 61.6552 183.936C62.8028 183.936 63.7331 183.005 63.7331 181.856C63.7331 180.707 62.8028 179.776 61.6552 179.776C60.5076 179.776 59.5772 180.707 59.5772 181.856Z" fill="#ECECEC"/>
<path d="M59.5772 201.728C59.5772 202.877 60.5076 203.808 61.6552 203.808C62.8028 203.808 63.7331 202.877 63.7331 201.728C63.7331 200.58 62.8028 199.648 61.6552 199.648C60.5076 199.648 59.5772 200.58 59.5772 201.728Z" fill="#ECECEC"/>
<path d="M39.7181 2.07968C39.7181 3.22825 40.6484 4.15935 41.796 4.15935C42.9436 4.15935 43.874 3.22825 43.874 2.07968C43.874 0.931106 42.9436 -4.06658e-08 41.796 -9.08295e-08C40.6484 -1.40993e-07 39.7181 0.931106 39.7181 2.07968Z" fill="#ECECEC"/>
<path d="M39.7181 21.952C39.7181 23.1006 40.6484 24.0317 41.796 24.0317C42.9436 24.0317 43.874 23.1006 43.874 21.952C43.874 20.8034 42.9436 19.8723 41.796 19.8723C40.6484 19.8723 39.7181 20.8034 39.7181 21.952Z" fill="#ECECEC"/>
<path d="M39.7181 42.0557C39.7181 43.2043 40.6484 44.1354 41.796 44.1354C42.9436 44.1354 43.874 43.2043 43.874 42.0557C43.874 40.9072 42.9436 39.9761 41.796 39.9761C40.6484 39.9761 39.7181 40.9072 39.7181 42.0557Z" fill="#ECECEC"/>
<path d="M39.7181 61.9281C39.7181 63.0766 40.6484 64.0077 41.796 64.0077C42.9436 64.0077 43.874 63.0766 43.874 61.9281C43.874 60.7795 42.9436 59.8484 41.796 59.8484C40.6484 59.8484 39.7181 60.7795 39.7181 61.9281Z" fill="#ECECEC"/>
<path d="M39.7181 82.0318C39.7181 83.1804 40.6484 84.1115 41.796 84.1115C42.9436 84.1115 43.874 83.1804 43.874 82.0318C43.874 80.8833 42.9436 79.9521 41.796 79.9521C40.6484 79.9521 39.7181 80.8833 39.7181 82.0318Z" fill="#ECECEC"/>
<path d="M39.7182 101.904C39.7182 103.053 40.6485 103.984 41.7961 103.984C42.9437 103.984 43.874 103.053 43.874 101.904C43.874 100.756 42.9437 99.8245 41.7961 99.8245C40.6485 99.8245 39.7182 100.756 39.7182 101.904Z" fill="#ECECEC"/>
<path d="M39.7182 121.776C39.7182 122.925 40.6485 123.856 41.7961 123.856C42.9437 123.856 43.874 122.925 43.874 121.776C43.874 120.628 42.9437 119.697 41.7961 119.697C40.6485 119.697 39.7182 120.628 39.7182 121.776Z" fill="#ECECEC"/>
<path d="M39.7182 141.88C39.7182 143.029 40.6485 143.96 41.7961 143.96C42.9437 143.96 43.874 143.029 43.874 141.88C43.874 140.731 42.9437 139.8 41.7961 139.8C40.6485 139.8 39.7182 140.731 39.7182 141.88Z" fill="#ECECEC"/>
<path d="M39.7182 161.752C39.7182 162.901 40.6485 163.832 41.7961 163.832C42.9437 163.832 43.874 162.901 43.874 161.752C43.874 160.603 42.9437 159.672 41.7961 159.672C40.6485 159.672 39.7182 160.603 39.7182 161.752Z" fill="#ECECEC"/>
<path d="M39.7181 181.856C39.7181 183.005 40.6484 183.936 41.796 183.936C42.9436 183.936 43.874 183.005 43.874 181.856C43.874 180.707 42.9436 179.776 41.796 179.776C40.6484 179.776 39.7181 180.707 39.7181 181.856Z" fill="#ECECEC"/>
<path d="M39.7181 201.728C39.7181 202.877 40.6484 203.808 41.796 203.808C42.9436 203.808 43.874 202.877 43.874 201.728C43.874 200.58 42.9436 199.648 41.796 199.648C40.6484 199.648 39.7181 200.58 39.7181 201.728Z" fill="#ECECEC"/>
<path d="M19.859 2.07968C19.859 3.22825 20.7894 4.15935 21.937 4.15935C23.0846 4.15935 24.0149 3.22825 24.0149 2.07968C24.0149 0.931106 23.0846 -4.06654e-08 21.937 -9.08291e-08C20.7894 -1.40993e-07 19.859 0.931106 19.859 2.07968Z" fill="#ECECEC"/>
<path d="M19.859 21.952C19.859 23.1006 20.7894 24.0317 21.937 24.0317C23.0846 24.0317 24.0149 23.1006 24.0149 21.952C24.0149 20.8034 23.0846 19.8723 21.937 19.8723C20.7894 19.8723 19.859 20.8034 19.859 21.952Z" fill="#ECECEC"/>
<path d="M19.8591 42.0557C19.8591 43.2043 20.7894 44.1354 21.937 44.1354C23.0846 44.1354 24.0149 43.2043 24.0149 42.0557C24.0149 40.9072 23.0846 39.9761 21.937 39.9761C20.7894 39.9761 19.8591 40.9072 19.8591 42.0557Z" fill="#ECECEC"/>
<path d="M19.8591 61.9281C19.8591 63.0766 20.7894 64.0077 21.937 64.0077C23.0846 64.0077 24.0149 63.0766 24.0149 61.9281C24.0149 60.7795 23.0846 59.8484 21.937 59.8484C20.7894 59.8484 19.8591 60.7795 19.8591 61.9281Z" fill="#ECECEC"/>
<path d="M19.8591 82.0318C19.8591 83.1804 20.7894 84.1115 21.937 84.1115C23.0846 84.1115 24.0149 83.1804 24.0149 82.0318C24.0149 80.8833 23.0846 79.9521 21.937 79.9521C20.7894 79.9521 19.8591 80.8833 19.8591 82.0318Z" fill="#ECECEC"/>
<path d="M19.8591 101.904C19.8591 103.053 20.7894 103.984 21.937 103.984C23.0846 103.984 24.0149 103.053 24.0149 101.904C24.0149 100.756 23.0846 99.8245 21.937 99.8245C20.7894 99.8245 19.8591 100.756 19.8591 101.904Z" fill="#ECECEC"/>
<path d="M19.8591 121.776C19.8591 122.925 20.7894 123.856 21.937 123.856C23.0846 123.856 24.0149 122.925 24.0149 121.776C24.0149 120.628 23.0846 119.697 21.937 119.697C20.7894 119.697 19.8591 120.628 19.8591 121.776Z" fill="#ECECEC"/>
<path d="M19.8591 141.88C19.8591 143.029 20.7894 143.96 21.937 143.96C23.0846 143.96 24.0149 143.029 24.0149 141.88C24.0149 140.731 23.0846 139.8 21.937 139.8C20.7894 139.8 19.8591 140.731 19.8591 141.88Z" fill="#ECECEC"/>
<path d="M19.8591 161.752C19.8591 162.901 20.7894 163.832 21.937 163.832C23.0846 163.832 24.0149 162.901 24.0149 161.752C24.0149 160.603 23.0846 159.672 21.937 159.672C20.7894 159.672 19.8591 160.603 19.8591 161.752Z" fill="#ECECEC"/>
<path d="M19.859 181.856C19.859 183.005 20.7894 183.936 21.937 183.936C23.0846 183.936 24.0149 183.005 24.0149 181.856C24.0149 180.707 23.0846 179.776 21.937 179.776C20.7894 179.776 19.859 180.707 19.859 181.856Z" fill="#ECECEC"/>
<path d="M19.8591 201.728C19.8591 202.877 20.7894 203.808 21.937 203.808C23.0846 203.808 24.0149 202.877 24.0149 201.728C24.0149 200.58 23.0846 199.648 21.937 199.648C20.7894 199.648 19.8591 200.58 19.8591 201.728Z" fill="#ECECEC"/>
<path d="M-1.05813e-05 2.07968C-1.06315e-05 3.22825 0.930306 4.15935 2.07792 4.15935C3.22553 4.15935 4.15585 3.22825 4.15585 2.07968C4.15585 0.931106 3.22553 -4.06658e-08 2.07792 -9.08295e-08C0.930306 -1.40993e-07 -1.05311e-05 0.931106 -1.05813e-05 2.07968Z" fill="#ECECEC"/>
<path d="M-1.05813e-05 21.952C-1.06315e-05 23.1006 0.930306 24.0317 2.07792 24.0317C3.22553 24.0317 4.15585 23.1006 4.15585 21.952C4.15585 20.8034 3.22553 19.8723 2.07792 19.8723C0.930306 19.8723 -1.05311e-05 20.8034 -1.05813e-05 21.952Z" fill="#ECECEC"/>
<path d="M-1.05813e-05 42.0557C-1.06315e-05 43.2043 0.930306 44.1354 2.07792 44.1354C3.22553 44.1354 4.15585 43.2043 4.15585 42.0557C4.15585 40.9072 3.22553 39.9761 2.07792 39.9761C0.930306 39.9761 -1.05311e-05 40.9072 -1.05813e-05 42.0557Z" fill="#ECECEC"/>
<path d="M-1.05813e-05 61.9281C-1.06315e-05 63.0766 0.930306 64.0077 2.07792 64.0077C3.22553 64.0077 4.15585 63.0766 4.15585 61.9281C4.15585 60.7795 3.22553 59.8484 2.07792 59.8484C0.930306 59.8484 -1.05311e-05 60.7795 -1.05813e-05 61.9281Z" fill="#ECECEC"/>
<path d="M-1.05813e-05 82.0318C-1.06315e-05 83.1804 0.930306 84.1115 2.07792 84.1115C3.22553 84.1115 4.15585 83.1804 4.15585 82.0318C4.15585 80.8833 3.22553 79.9521 2.07792 79.9521C0.930306 79.9521 -1.05311e-05 80.8833 -1.05813e-05 82.0318Z" fill="#ECECEC"/>
<path d="M-1.05813e-05 101.904C-1.06315e-05 103.053 0.930306 103.984 2.07792 103.984C3.22553 103.984 4.15585 103.053 4.15585 101.904C4.15585 100.756 3.22553 99.8245 2.07792 99.8245C0.930306 99.8245 -1.05311e-05 100.756 -1.05813e-05 101.904Z" fill="#ECECEC"/>
<path d="M-1.05813e-05 121.776C-1.06315e-05 122.925 0.930306 123.856 2.07792 123.856C3.22553 123.856 4.15585 122.925 4.15585 121.776C4.15585 120.628 3.22553 119.697 2.07792 119.697C0.930306 119.697 -1.05311e-05 120.628 -1.05813e-05 121.776Z" fill="#ECECEC"/>
<path d="M-1.05813e-05 141.88C-1.06315e-05 143.029 0.930306 143.96 2.07792 143.96C3.22553 143.96 4.15585 143.029 4.15585 141.88C4.15585 140.731 3.22553 139.8 2.07792 139.8C0.930306 139.8 -1.05311e-05 140.731 -1.05813e-05 141.88Z" fill="#ECECEC"/>
<path d="M-1.05813e-05 161.752C-1.06315e-05 162.901 0.930306 163.832 2.07792 163.832C3.22553 163.832 4.15585 162.901 4.15585 161.752C4.15585 160.603 3.22553 159.672 2.07792 159.672C0.930306 159.672 -1.05311e-05 160.603 -1.05813e-05 161.752Z" fill="#ECECEC"/>
<path d="M-1.05813e-05 181.856C-1.06315e-05 183.005 0.930306 183.936 2.07792 183.936C3.22553 183.936 4.15585 183.005 4.15585 181.856C4.15585 180.707 3.22553 179.776 2.07792 179.776C0.930306 179.776 -1.05311e-05 180.707 -1.05813e-05 181.856Z" fill="#ECECEC"/>
<path d="M-1.05813e-05 201.728C-1.06315e-05 202.877 0.930306 203.808 2.07792 203.808C3.22553 203.808 4.15585 202.877 4.15585 201.728C4.15585 200.58 3.22553 199.648 2.07792 199.648C0.930306 199.648 -1.05311e-05 200.58 -1.05813e-05 201.728Z" fill="#ECECEC"/>
<path d="M295.844 2.07968C295.844 3.22825 296.775 4.15935 297.922 4.15935C299.07 4.15935 300 3.22825 300 2.07968C300 0.931106 299.07 -4.06656e-08 297.922 -9.08292e-08C296.775 -1.40993e-07 295.844 0.931106 295.844 2.07968Z" fill="#ECECEC"/>
<path d="M295.844 21.952C295.844 23.1006 296.775 24.0317 297.922 24.0317C299.07 24.0317 300 23.1006 300 21.952C300 20.8034 299.07 19.8723 297.922 19.8723C296.775 19.8723 295.844 20.8034 295.844 21.952Z" fill="#ECECEC"/>
<path d="M295.844 42.0557C295.844 43.2043 296.775 44.1354 297.922 44.1354C299.07 44.1354 300 43.2043 300 42.0557C300 40.9072 299.07 39.9761 297.922 39.9761C296.775 39.9761 295.844 40.9072 295.844 42.0557Z" fill="#ECECEC"/>
<path d="M295.844 61.9281C295.844 63.0766 296.775 64.0077 297.922 64.0077C299.07 64.0077 300 63.0766 300 61.9281C300 60.7795 299.07 59.8484 297.922 59.8484C296.775 59.8484 295.844 60.7795 295.844 61.9281Z" fill="#ECECEC"/>
<path d="M295.844 82.0318C295.844 83.1804 296.775 84.1115 297.922 84.1115C299.07 84.1115 300 83.1804 300 82.0318C300 80.8833 299.07 79.9521 297.922 79.9521C296.775 79.9521 295.844 80.8833 295.844 82.0318Z" fill="#ECECEC"/>
<path d="M295.844 101.904C295.844 103.053 296.775 103.984 297.922 103.984C299.07 103.984 300 103.053 300 101.904C300 100.756 299.07 99.8245 297.922 99.8245C296.775 99.8245 295.844 100.756 295.844 101.904Z" fill="#ECECEC"/>
<path d="M295.844 121.776C295.844 122.925 296.775 123.856 297.922 123.856C299.07 123.856 300 122.925 300 121.776C300 120.628 299.07 119.697 297.922 119.697C296.775 119.697 295.844 120.628 295.844 121.776Z" fill="#ECECEC"/>
<path d="M295.844 141.88C295.844 143.029 296.775 143.96 297.922 143.96C299.07 143.96 300 143.029 300 141.88C300 140.731 299.07 139.8 297.922 139.8C296.775 139.8 295.844 140.731 295.844 141.88Z" fill="#ECECEC"/>
<path d="M295.844 161.752C295.844 162.901 296.775 163.832 297.922 163.832C299.07 163.832 300 162.901 300 161.752C300 160.603 299.07 159.672 297.922 159.672C296.775 159.672 295.844 160.603 295.844 161.752Z" fill="#ECECEC"/>
<path d="M295.844 181.856C295.844 183.005 296.775 183.936 297.922 183.936C299.07 183.936 300 183.005 300 181.856C300 180.707 299.07 179.776 297.922 179.776C296.775 179.776 295.844 180.707 295.844 181.856Z" fill="#ECECEC"/>
<path d="M295.844 201.728C295.844 202.877 296.775 203.808 297.922 203.808C299.07 203.808 300 202.877 300 201.728C300 200.58 299.07 199.648 297.922 199.648C296.775 199.648 295.844 200.58 295.844 201.728Z" fill="#ECECEC"/>
<path d="M275.985 2.07968C275.985 3.22825 276.915 4.15935 278.063 4.15935C279.211 4.15935 280.141 3.22825 280.141 2.07968C280.141 0.931106 279.211 -4.06656e-08 278.063 -9.08292e-08C276.915 -1.40993e-07 275.985 0.931106 275.985 2.07968Z" fill="#ECECEC"/>
<path d="M275.985 21.952C275.985 23.1006 276.916 24.0317 278.063 24.0317C279.211 24.0317 280.141 23.1006 280.141 21.952C280.141 20.8034 279.211 19.8723 278.063 19.8723C276.916 19.8723 275.985 20.8034 275.985 21.952Z" fill="#ECECEC"/>
<path d="M275.985 42.0557C275.985 43.2043 276.916 44.1354 278.063 44.1354C279.211 44.1354 280.141 43.2043 280.141 42.0557C280.141 40.9072 279.211 39.9761 278.063 39.9761C276.916 39.9761 275.985 40.9072 275.985 42.0557Z" fill="#ECECEC"/>
<path d="M275.985 61.9281C275.985 63.0766 276.916 64.0077 278.063 64.0077C279.211 64.0077 280.141 63.0766 280.141 61.9281C280.141 60.7795 279.211 59.8484 278.063 59.8484C276.916 59.8484 275.985 60.7795 275.985 61.9281Z" fill="#ECECEC"/>
<path d="M275.985 82.0316C275.985 83.1802 276.916 84.1113 278.063 84.1113C279.211 84.1113 280.141 83.1802 280.141 82.0316C280.141 80.883 279.211 79.9519 278.063 79.9519C276.916 79.9519 275.985 80.883 275.985 82.0316Z" fill="#ECECEC"/>
<path d="M275.985 101.904C275.985 103.053 276.916 103.984 278.063 103.984C279.211 103.984 280.141 103.053 280.141 101.904C280.141 100.756 279.211 99.8245 278.063 99.8245C276.916 99.8245 275.985 100.756 275.985 101.904Z" fill="#ECECEC"/>
<path d="M275.985 121.776C275.985 122.925 276.916 123.856 278.063 123.856C279.211 123.856 280.141 122.925 280.141 121.776C280.141 120.628 279.211 119.697 278.063 119.697C276.916 119.697 275.985 120.628 275.985 121.776Z" fill="#ECECEC"/>
<path d="M275.985 141.88C275.985 143.029 276.916 143.96 278.063 143.96C279.211 143.96 280.141 143.029 280.141 141.88C280.141 140.731 279.211 139.8 278.063 139.8C276.916 139.8 275.985 140.731 275.985 141.88Z" fill="#ECECEC"/>
<path d="M275.985 161.752C275.985 162.901 276.916 163.832 278.063 163.832C279.211 163.832 280.141 162.901 280.141 161.752C280.141 160.603 279.211 159.672 278.063 159.672C276.916 159.672 275.985 160.603 275.985 161.752Z" fill="#ECECEC"/>
<path d="M275.985 181.856C275.985 183.005 276.915 183.936 278.063 183.936C279.211 183.936 280.141 183.005 280.141 181.856C280.141 180.707 279.211 179.776 278.063 179.776C276.915 179.776 275.985 180.707 275.985 181.856Z" fill="#ECECEC"/>
<path d="M275.985 201.728C275.985 202.877 276.916 203.808 278.063 203.808C279.211 203.808 280.141 202.877 280.141 201.728C280.141 200.58 279.211 199.648 278.063 199.648C276.916 199.648 275.985 200.58 275.985 201.728Z" fill="#ECECEC"/>
<path d="M256.126 2.07968C256.126 3.22825 257.056 4.15935 258.204 4.15935C259.352 4.15935 260.282 3.22825 260.282 2.07968C260.282 0.931106 259.352 -4.06656e-08 258.204 -9.08292e-08C257.056 -1.40993e-07 256.126 0.931106 256.126 2.07968Z" fill="#ECECEC"/>
<path d="M256.126 21.952C256.126 23.1006 257.056 24.0317 258.204 24.0317C259.352 24.0317 260.282 23.1006 260.282 21.952C260.282 20.8034 259.352 19.8723 258.204 19.8723C257.056 19.8723 256.126 20.8034 256.126 21.952Z" fill="#ECECEC"/>
<path d="M256.126 42.0557C256.126 43.2043 257.056 44.1354 258.204 44.1354C259.352 44.1354 260.282 43.2043 260.282 42.0557C260.282 40.9072 259.352 39.9761 258.204 39.9761C257.056 39.9761 256.126 40.9072 256.126 42.0557Z" fill="#ECECEC"/>
<path d="M256.126 61.9281C256.126 63.0766 257.056 64.0077 258.204 64.0077C259.352 64.0077 260.282 63.0766 260.282 61.9281C260.282 60.7795 259.352 59.8484 258.204 59.8484C257.056 59.8484 256.126 60.7795 256.126 61.9281Z" fill="#ECECEC"/>
<path d="M256.126 82.0318C256.126 83.1804 257.056 84.1115 258.204 84.1115C259.352 84.1115 260.282 83.1804 260.282 82.0318C260.282 80.8833 259.352 79.9521 258.204 79.9521C257.056 79.9521 256.126 80.8833 256.126 82.0318Z" fill="#ECECEC"/>
<path d="M256.126 101.904C256.126 103.053 257.056 103.984 258.204 103.984C259.352 103.984 260.282 103.053 260.282 101.904C260.282 100.756 259.352 99.8245 258.204 99.8245C257.056 99.8245 256.126 100.756 256.126 101.904Z" fill="#ECECEC"/>
<path d="M256.126 121.776C256.126 122.925 257.056 123.856 258.204 123.856C259.352 123.856 260.282 122.925 260.282 121.776C260.282 120.628 259.352 119.697 258.204 119.697C257.056 119.697 256.126 120.628 256.126 121.776Z" fill="#ECECEC"/>
<path d="M256.126 141.88C256.126 143.029 257.056 143.96 258.204 143.96C259.352 143.96 260.282 143.029 260.282 141.88C260.282 140.731 259.352 139.8 258.204 139.8C257.056 139.8 256.126 140.731 256.126 141.88Z" fill="#ECECEC"/>
<path d="M256.126 161.752C256.126 162.901 257.056 163.832 258.204 163.832C259.352 163.832 260.282 162.901 260.282 161.752C260.282 160.603 259.352 159.672 258.204 159.672C257.056 159.672 256.126 160.603 256.126 161.752Z" fill="#ECECEC"/>
<path d="M256.126 181.856C256.126 183.005 257.056 183.936 258.204 183.936C259.352 183.936 260.282 183.005 260.282 181.856C260.282 180.707 259.352 179.776 258.204 179.776C257.056 179.776 256.126 180.707 256.126 181.856Z" fill="#ECECEC"/>
<path d="M256.126 201.728C256.126 202.877 257.056 203.808 258.204 203.808C259.352 203.808 260.282 202.877 260.282 201.728C260.282 200.58 259.352 199.648 258.204 199.648C257.056 199.648 256.126 200.58 256.126 201.728Z" fill="#ECECEC"/>
<path d="M236.267 2.07968C236.267 3.22825 237.197 4.15935 238.345 4.15935C239.493 4.15935 240.423 3.22825 240.423 2.07968C240.423 0.931106 239.493 -4.06658e-08 238.345 -9.08295e-08C237.197 -1.40993e-07 236.267 0.931106 236.267 2.07968Z" fill="#ECECEC"/>
<path d="M236.267 21.952C236.267 23.1006 237.197 24.0317 238.345 24.0317C239.493 24.0317 240.423 23.1006 240.423 21.952C240.423 20.8034 239.493 19.8723 238.345 19.8723C237.197 19.8723 236.267 20.8034 236.267 21.952Z" fill="#ECECEC"/>
<path d="M236.267 42.0557C236.267 43.2043 237.197 44.1354 238.345 44.1354C239.493 44.1354 240.423 43.2043 240.423 42.0557C240.423 40.9072 239.493 39.9761 238.345 39.9761C237.197 39.9761 236.267 40.9072 236.267 42.0557Z" fill="#ECECEC"/>
<path d="M236.267 61.9281C236.267 63.0766 237.197 64.0077 238.345 64.0077C239.493 64.0077 240.423 63.0766 240.423 61.9281C240.423 60.7795 239.493 59.8484 238.345 59.8484C237.197 59.8484 236.267 60.7795 236.267 61.9281Z" fill="#ECECEC"/>
<path d="M236.267 82.0318C236.267 83.1804 237.197 84.1115 238.345 84.1115C239.493 84.1115 240.423 83.1804 240.423 82.0318C240.423 80.8833 239.493 79.9521 238.345 79.9521C237.197 79.9521 236.267 80.8833 236.267 82.0318Z" fill="#ECECEC"/>
<path d="M236.267 101.904C236.267 103.053 237.197 103.984 238.345 103.984C239.493 103.984 240.423 103.053 240.423 101.904C240.423 100.756 239.493 99.8245 238.345 99.8245C237.197 99.8245 236.267 100.756 236.267 101.904Z" fill="#ECECEC"/>
<path d="M236.267 121.776C236.267 122.925 237.197 123.856 238.345 123.856C239.493 123.856 240.423 122.925 240.423 121.776C240.423 120.628 239.493 119.697 238.345 119.697C237.197 119.697 236.267 120.628 236.267 121.776Z" fill="#ECECEC"/>
<path d="M236.267 141.88C236.267 143.029 237.197 143.96 238.345 143.96C239.493 143.96 240.423 143.029 240.423 141.88C240.423 140.731 239.493 139.8 238.345 139.8C237.197 139.8 236.267 140.731 236.267 141.88Z" fill="#ECECEC"/>
<path d="M236.267 161.752C236.267 162.901 237.197 163.832 238.345 163.832C239.493 163.832 240.423 162.901 240.423 161.752C240.423 160.603 239.493 159.672 238.345 159.672C237.197 159.672 236.267 160.603 236.267 161.752Z" fill="#ECECEC"/>
<path d="M236.267 181.856C236.267 183.005 237.197 183.936 238.345 183.936C239.493 183.936 240.423 183.005 240.423 181.856C240.423 180.707 239.493 179.776 238.345 179.776C237.197 179.776 236.267 180.707 236.267 181.856Z" fill="#ECECEC"/>
<path d="M236.267 201.728C236.267 202.877 237.197 203.808 238.345 203.808C239.493 203.808 240.423 202.877 240.423 201.728C240.423 200.58 239.493 199.648 238.345 199.648C237.197 199.648 236.267 200.58 236.267 201.728Z" fill="#ECECEC"/>
<path d="M216.408 2.07968C216.408 3.22825 217.338 4.15935 218.486 4.15935C219.633 4.15935 220.564 3.22825 220.564 2.07968C220.564 0.931106 219.633 -4.06654e-08 218.486 -9.08291e-08C217.338 -1.40993e-07 216.408 0.931106 216.408 2.07968Z" fill="#ECECEC"/>
<path d="M216.408 21.952C216.408 23.1006 217.338 24.0317 218.486 24.0317C219.634 24.0317 220.564 23.1006 220.564 21.952C220.564 20.8034 219.634 19.8723 218.486 19.8723C217.338 19.8723 216.408 20.8034 216.408 21.952Z" fill="#ECECEC"/>
<path d="M216.408 42.0557C216.408 43.2043 217.338 44.1354 218.486 44.1354C219.634 44.1354 220.564 43.2043 220.564 42.0557C220.564 40.9072 219.634 39.9761 218.486 39.9761C217.338 39.9761 216.408 40.9072 216.408 42.0557Z" fill="#ECECEC"/>
<path d="M216.408 61.9281C216.408 63.0766 217.338 64.0077 218.486 64.0077C219.634 64.0077 220.564 63.0766 220.564 61.9281C220.564 60.7795 219.634 59.8484 218.486 59.8484C217.338 59.8484 216.408 60.7795 216.408 61.9281Z" fill="#ECECEC"/>
<path d="M216.408 82.0318C216.408 83.1804 217.338 84.1115 218.486 84.1115C219.634 84.1115 220.564 83.1804 220.564 82.0318C220.564 80.8833 219.634 79.9521 218.486 79.9521C217.338 79.9521 216.408 80.8833 216.408 82.0318Z" fill="#ECECEC"/>
<path d="M216.408 101.904C216.408 103.053 217.338 103.984 218.486 103.984C219.634 103.984 220.564 103.053 220.564 101.904C220.564 100.756 219.634 99.8245 218.486 99.8245C217.338 99.8245 216.408 100.756 216.408 101.904Z" fill="#ECECEC"/>
<path d="M216.408 121.776C216.408 122.925 217.338 123.856 218.486 123.856C219.634 123.856 220.564 122.925 220.564 121.776C220.564 120.628 219.634 119.697 218.486 119.697C217.338 119.697 216.408 120.628 216.408 121.776Z" fill="#ECECEC"/>
<path d="M216.408 141.88C216.408 143.029 217.338 143.96 218.486 143.96C219.634 143.96 220.564 143.029 220.564 141.88C220.564 140.731 219.634 139.8 218.486 139.8C217.338 139.8 216.408 140.731 216.408 141.88Z" fill="#ECECEC"/>
<path d="M216.408 161.752C216.408 162.901 217.338 163.832 218.486 163.832C219.634 163.832 220.564 162.901 220.564 161.752C220.564 160.603 219.634 159.672 218.486 159.672C217.338 159.672 216.408 160.603 216.408 161.752Z" fill="#ECECEC"/>
<path d="M216.408 181.856C216.408 183.005 217.338 183.936 218.486 183.936C219.633 183.936 220.564 183.005 220.564 181.856C220.564 180.707 219.633 179.776 218.486 179.776C217.338 179.776 216.408 180.707 216.408 181.856Z" fill="#ECECEC"/>
<path d="M216.408 201.728C216.408 202.877 217.338 203.808 218.486 203.808C219.634 203.808 220.564 202.877 220.564 201.728C220.564 200.58 219.634 199.648 218.486 199.648C217.338 199.648 216.408 200.58 216.408 201.728Z" fill="#ECECEC"/>
<path d="M196.549 2.07968C196.549 3.22825 197.479 4.15935 198.627 4.15935C199.774 4.15935 200.705 3.22825 200.705 2.07968C200.705 0.931106 199.774 -4.06658e-08 198.627 -9.08295e-08C197.479 -1.40993e-07 196.549 0.931106 196.549 2.07968Z" fill="#ECECEC"/>
<path d="M196.549 21.952C196.549 23.1006 197.479 24.0317 198.627 24.0317C199.774 24.0317 200.705 23.1006 200.705 21.952C200.705 20.8034 199.774 19.8723 198.627 19.8723C197.479 19.8723 196.549 20.8034 196.549 21.952Z" fill="#ECECEC"/>
<path d="M196.549 42.0557C196.549 43.2043 197.479 44.1354 198.627 44.1354C199.774 44.1354 200.705 43.2043 200.705 42.0557C200.705 40.9072 199.774 39.9761 198.627 39.9761C197.479 39.9761 196.549 40.9072 196.549 42.0557Z" fill="#ECECEC"/>
<path d="M196.549 61.9281C196.549 63.0766 197.479 64.0077 198.627 64.0077C199.774 64.0077 200.705 63.0766 200.705 61.9281C200.705 60.7795 199.774 59.8484 198.627 59.8484C197.479 59.8484 196.549 60.7795 196.549 61.9281Z" fill="#ECECEC"/>
<path d="M196.549 82.0318C196.549 83.1804 197.479 84.1115 198.627 84.1115C199.774 84.1115 200.705 83.1804 200.705 82.0318C200.705 80.8833 199.774 79.9521 198.627 79.9521C197.479 79.9521 196.549 80.8833 196.549 82.0318Z" fill="#ECECEC"/>
<path d="M196.549 101.904C196.549 103.053 197.479 103.984 198.627 103.984C199.774 103.984 200.705 103.053 200.705 101.904C200.705 100.756 199.774 99.8245 198.627 99.8245C197.479 99.8245 196.549 100.756 196.549 101.904Z" fill="#ECECEC"/>
<path d="M196.549 121.776C196.549 122.925 197.479 123.856 198.627 123.856C199.774 123.856 200.705 122.925 200.705 121.776C200.705 120.628 199.774 119.697 198.627 119.697C197.479 119.697 196.549 120.628 196.549 121.776Z" fill="#ECECEC"/>
<path d="M196.549 141.88C196.549 143.029 197.479 143.96 198.627 143.96C199.774 143.96 200.705 143.029 200.705 141.88C200.705 140.731 199.774 139.8 198.627 139.8C197.479 139.8 196.549 140.731 196.549 141.88Z" fill="#ECECEC"/>
<path d="M196.549 161.752C196.549 162.901 197.479 163.832 198.627 163.832C199.774 163.832 200.705 162.901 200.705 161.752C200.705 160.603 199.774 159.672 198.627 159.672C197.479 159.672 196.549 160.603 196.549 161.752Z" fill="#ECECEC"/>
<path d="M196.549 181.856C196.549 183.005 197.479 183.936 198.627 183.936C199.774 183.936 200.705 183.005 200.705 181.856C200.705 180.707 199.774 179.776 198.627 179.776C197.479 179.776 196.549 180.707 196.549 181.856Z" fill="#ECECEC"/>
<path d="M196.549 201.728C196.549 202.877 197.479 203.808 198.627 203.808C199.774 203.808 200.705 202.877 200.705 201.728C200.705 200.58 199.774 199.648 198.627 199.648C197.479 199.648 196.549 200.58 196.549 201.728Z" fill="#ECECEC"/>
<path d="M176.69 2.07968C176.69 3.22825 177.62 4.15935 178.768 4.15935C179.915 4.15935 180.846 3.22825 180.846 2.07968C180.846 0.931106 179.915 -4.06654e-08 178.768 -9.08291e-08C177.62 -1.40993e-07 176.69 0.931106 176.69 2.07968Z" fill="#ECECEC"/>
<path d="M176.69 21.952C176.69 23.1006 177.62 24.0317 178.768 24.0317C179.915 24.0317 180.846 23.1006 180.846 21.952C180.846 20.8034 179.915 19.8723 178.768 19.8723C177.62 19.8723 176.69 20.8034 176.69 21.952Z" fill="#ECECEC"/>
<path d="M176.69 42.0557C176.69 43.2043 177.62 44.1354 178.768 44.1354C179.915 44.1354 180.846 43.2043 180.846 42.0557C180.846 40.9072 179.915 39.9761 178.768 39.9761C177.62 39.9761 176.69 40.9072 176.69 42.0557Z" fill="#ECECEC"/>
<path d="M176.69 61.9281C176.69 63.0766 177.62 64.0077 178.768 64.0077C179.915 64.0077 180.846 63.0766 180.846 61.9281C180.846 60.7795 179.915 59.8484 178.768 59.8484C177.62 59.8484 176.69 60.7795 176.69 61.9281Z" fill="#ECECEC"/>
<path d="M176.69 82.0318C176.69 83.1804 177.62 84.1115 178.768 84.1115C179.915 84.1115 180.846 83.1804 180.846 82.0318C180.846 80.8833 179.915 79.9521 178.768 79.9521C177.62 79.9521 176.69 80.8833 176.69 82.0318Z" fill="#ECECEC"/>
<path d="M176.69 101.904C176.69 103.053 177.62 103.984 178.768 103.984C179.915 103.984 180.846 103.053 180.846 101.904C180.846 100.756 179.915 99.8245 178.768 99.8245C177.62 99.8245 176.69 100.756 176.69 101.904Z" fill="#ECECEC"/>
<path d="M176.69 121.776C176.69 122.925 177.62 123.856 178.768 123.856C179.915 123.856 180.846 122.925 180.846 121.776C180.846 120.628 179.915 119.697 178.768 119.697C177.62 119.697 176.69 120.628 176.69 121.776Z" fill="#ECECEC"/>
<path d="M176.69 141.88C176.69 143.029 177.62 143.96 178.768 143.96C179.915 143.96 180.846 143.029 180.846 141.88C180.846 140.731 179.915 139.8 178.768 139.8C177.62 139.8 176.69 140.731 176.69 141.88Z" fill="#ECECEC"/>
<path d="M176.69 161.752C176.69 162.901 177.62 163.832 178.768 163.832C179.915 163.832 180.846 162.901 180.846 161.752C180.846 160.603 179.915 159.672 178.768 159.672C177.62 159.672 176.69 160.603 176.69 161.752Z" fill="#ECECEC"/>
<path d="M176.69 181.856C176.69 183.005 177.62 183.936 178.768 183.936C179.915 183.936 180.846 183.005 180.846 181.856C180.846 180.707 179.915 179.776 178.768 179.776C177.62 179.776 176.69 180.707 176.69 181.856Z" fill="#ECECEC"/>
<path d="M176.69 201.728C176.69 202.877 177.62 203.808 178.768 203.808C179.915 203.808 180.846 202.877 180.846 201.728C180.846 200.58 179.915 199.648 178.768 199.648C177.62 199.648 176.69 200.58 176.69 201.728Z" fill="#ECECEC"/>
<path d="M156.831 2.07968C156.831 3.22825 157.761 4.15935 158.909 4.15935C160.056 4.15935 160.987 3.22825 160.987 2.07968C160.987 0.931106 160.056 -4.06658e-08 158.909 -9.08295e-08C157.761 -1.40993e-07 156.831 0.931106 156.831 2.07968Z" fill="#ECECEC"/>
<path d="M156.831 21.952C156.831 23.1006 157.761 24.0317 158.909 24.0317C160.056 24.0317 160.987 23.1006 160.987 21.952C160.987 20.8034 160.056 19.8723 158.909 19.8723C157.761 19.8723 156.831 20.8034 156.831 21.952Z" fill="#ECECEC"/>
<path d="M156.831 42.0557C156.831 43.2043 157.761 44.1354 158.909 44.1354C160.056 44.1354 160.987 43.2043 160.987 42.0557C160.987 40.9072 160.056 39.9761 158.909 39.9761C157.761 39.9761 156.831 40.9072 156.831 42.0557Z" fill="#ECECEC"/>
<path d="M156.831 61.9281C156.831 63.0766 157.761 64.0077 158.909 64.0077C160.056 64.0077 160.987 63.0766 160.987 61.9281C160.987 60.7795 160.056 59.8484 158.909 59.8484C157.761 59.8484 156.831 60.7795 156.831 61.9281Z" fill="#ECECEC"/>
<path d="M156.831 82.0318C156.831 83.1804 157.761 84.1115 158.909 84.1115C160.056 84.1115 160.987 83.1804 160.987 82.0318C160.987 80.8833 160.056 79.9521 158.909 79.9521C157.761 79.9521 156.831 80.8833 156.831 82.0318Z" fill="#ECECEC"/>
<path d="M156.831 101.904C156.831 103.053 157.761 103.984 158.909 103.984C160.056 103.984 160.987 103.053 160.987 101.904C160.987 100.756 160.056 99.8245 158.909 99.8245C157.761 99.8245 156.831 100.756 156.831 101.904Z" fill="#ECECEC"/>
<path d="M156.831 121.776C156.831 122.925 157.761 123.856 158.909 123.856C160.056 123.856 160.987 122.925 160.987 121.776C160.987 120.628 160.056 119.697 158.909 119.697C157.761 119.697 156.831 120.628 156.831 121.776Z" fill="#ECECEC"/>
<path d="M156.831 141.88C156.831 143.029 157.761 143.96 158.909 143.96C160.056 143.96 160.987 143.029 160.987 141.88C160.987 140.731 160.056 139.8 158.909 139.8C157.761 139.8 156.831 140.731 156.831 141.88Z" fill="#ECECEC"/>
<path d="M156.831 161.752C156.831 162.901 157.761 163.832 158.909 163.832C160.056 163.832 160.987 162.901 160.987 161.752C160.987 160.603 160.056 159.672 158.909 159.672C157.761 159.672 156.831 160.603 156.831 161.752Z" fill="#ECECEC"/>
<path d="M156.831 181.856C156.831 183.005 157.761 183.936 158.909 183.936C160.056 183.936 160.987 183.005 160.987 181.856C160.987 180.707 160.056 179.776 158.909 179.776C157.761 179.776 156.831 180.707 156.831 181.856Z" fill="#ECECEC"/>
<path d="M156.831 201.728C156.831 202.877 157.761 203.808 158.909 203.808C160.056 203.808 160.987 202.877 160.987 201.728C160.987 200.58 160.056 199.648 158.909 199.648C157.761 199.648 156.831 200.58 156.831 201.728Z" fill="#ECECEC"/>
</svg>
