<svg width="138" height="138" viewBox="0 0 138 138" fill="none" xmlns="http://www.w3.org/2000/svg">
<path d="M136.235 64.4571C136.319 65.8859 136.403 67.3147 136.403 68.7436C136.403 106.145 106.145 136.403 68.7436 136.403C31.3417 136.403 1 106.061 1 68.6595C1 31.2577 31.2577 1 68.6595 1" stroke="#2B2F2B" stroke-width="2" stroke-miterlimit="10" stroke-linecap="round"/>
<path d="M34.2834 17.8098C35.3761 17.1374 36.3847 16.3809 37.5613 15.7926C66.7264 -1.43747 104.38 8.31223 121.61 37.5613C138.84 66.8104 129.091 104.38 99.8417 121.61C70.5926 138.84 33.0227 129.091 15.7926 99.8417" stroke="#00AAE7" stroke-width="2" stroke-miterlimit="10" stroke-linecap="round"/>
<path d="M119.761 88.9995C119.341 90.0921 118.837 91.1007 118.417 92.1934C105.389 119.677 72.6098 131.444 45.1258 118.417C17.6417 105.389 5.95889 72.6099 18.9025 45.1259C31.846 17.6418 64.7092 5.87497 92.1932 18.9026" stroke="#2B2F2B" stroke-width="2" stroke-miterlimit="10" stroke-linecap="round"/>
<g clip-path="url(#clip0)">
<path d="M47.6369 60.206C48.5411 60.206 49.2737 59.4731 49.2737 58.5691V51.5899L59.8163 62.1303C60.136 62.4498 60.5548 62.6095 60.9737 62.6095C61.3927 62.6095 61.8117 62.4498 62.1312 62.13C62.7705 61.4908 62.7705 60.4543 62.131 59.8153L51.5881 49.2747H58.5688C59.4728 49.2747 60.2056 48.5418 60.2056 47.6378C60.2056 46.7339 59.473 46.001 58.5688 46.001H47.6369C46.7327 46.001 46 46.7339 46 47.6378V58.5693C46 59.4731 46.7327 60.206 47.6369 60.206Z" fill="#ECECEC"/>
<path d="M91.3631 78.7945C90.4589 78.7945 89.7263 79.5273 89.7263 80.4313V87.4107L78.8592 76.5436C78.2197 75.9044 77.1835 75.9044 76.5442 76.5436C75.905 77.1829 75.905 78.2194 76.5442 78.8584L87.4111 89.7253H80.4321C79.5279 89.7253 78.7952 90.4581 78.7952 91.3621C78.7952 92.2661 79.5279 92.999 80.4321 92.999H91.3633C92.2675 92.999 93.0002 92.2661 93.0002 91.3621V80.4313C93 79.5273 92.2671 78.7945 91.3631 78.7945Z" fill="#ECECEC"/>
<path d="M60.1408 76.5439L49.2748 87.4108V80.4316C49.2748 79.5276 48.5422 78.7947 47.638 78.7947C46.7337 78.7947 46.0011 79.5276 46.0011 80.4316V91.3628C46.0011 92.2668 46.7337 92.9997 47.638 92.9997H58.5688C59.4727 92.9997 60.2056 92.2668 60.2056 91.3628C60.2056 90.4588 59.473 89.726 58.5688 89.726H51.5896L62.4558 78.8587C63.095 78.2194 63.095 77.183 62.4556 76.5437C61.8167 75.9047 60.7803 75.9047 60.1408 76.5439Z" fill="#00AAE7"/>
<path d="M91.3631 46.0005H80.4319C79.5277 46.0005 78.795 46.7334 78.795 47.6374C78.795 48.5413 79.5277 49.2742 80.4319 49.2742H87.4113L76.8703 59.8159C76.231 60.4551 76.231 61.4916 76.8705 62.1309C77.19 62.4504 77.609 62.6101 78.0278 62.6101C78.4467 62.6101 78.8657 62.4502 79.1854 62.1306L89.7265 51.589V58.5686C89.7265 59.4726 90.4591 60.2055 91.3633 60.2055C92.2675 60.2055 93.0002 59.4726 93.0002 58.5686V47.6374C93 46.7332 92.2671 46.0005 91.3631 46.0005Z" fill="#00AAE7"/>
</g>
<defs>
<clipPath id="clip0">
<rect width="47" height="47" fill="white" transform="translate(46 46)"/>
</clipPath>
</defs>
</svg>
