<svg width="332" height="489" viewBox="0 0 332 489" fill="none" xmlns="http://www.w3.org/2000/svg">
<path d="M3.38776 262.244C5.25877 262.244 6.77551 260.729 6.77551 258.86C6.77551 256.99 5.25877 255.475 3.38776 255.475C1.51676 255.475 0 256.99 0 258.86C0 260.729 1.51676 262.244 3.38776 262.244Z" fill="#ECECEC"/>
<path d="M35.7597 262.244C37.6307 262.244 39.1474 260.729 39.1474 258.86C39.1474 256.99 37.6307 255.475 35.7597 255.475C33.8886 255.475 32.3719 256.99 32.3719 258.86C32.3719 260.729 33.8886 262.244 35.7597 262.244Z" fill="#ECECEC"/>
<path d="M68.5079 262.244C70.3789 262.244 71.8957 260.729 71.8957 258.86C71.8957 256.99 70.3789 255.475 68.5079 255.475C66.6369 255.475 65.1202 256.99 65.1202 258.86C65.1202 260.729 66.6369 262.244 68.5079 262.244Z" fill="#ECECEC"/>
<path d="M100.88 262.244C102.751 262.244 104.268 260.729 104.268 258.86C104.268 256.99 102.751 255.475 100.88 255.475C99.0088 255.475 97.492 256.99 97.492 258.86C97.492 260.729 99.0088 262.244 100.88 262.244Z" fill="#ECECEC"/>
<path d="M133.628 262.244C135.499 262.244 137.016 260.729 137.016 258.86C137.016 256.99 135.499 255.475 133.628 255.475C131.757 255.475 130.24 256.99 130.24 258.86C130.24 260.729 131.757 262.244 133.628 262.244Z" fill="#ECECEC"/>
<path d="M166 262.244C167.871 262.244 169.388 260.729 169.388 258.86C169.388 256.99 167.871 255.475 166 255.475C164.129 255.475 162.612 256.99 162.612 258.86C162.612 260.729 164.129 262.244 166 262.244Z" fill="#ECECEC"/>
<path d="M198.372 262.244C200.243 262.244 201.76 260.729 201.76 258.86C201.76 256.99 200.243 255.475 198.372 255.475C196.501 255.475 194.984 256.99 194.984 258.86C194.984 260.729 196.501 262.244 198.372 262.244Z" fill="#ECECEC"/>
<path d="M231.12 262.244C232.991 262.244 234.508 260.729 234.508 258.86C234.508 256.99 232.991 255.475 231.12 255.475C229.249 255.475 227.733 256.99 227.733 258.86C227.733 260.729 229.249 262.244 231.12 262.244Z" fill="#ECECEC"/>
<path d="M263.492 262.244C265.363 262.244 266.88 260.729 266.88 258.86C266.88 256.99 265.363 255.475 263.492 255.475C261.621 255.475 260.104 256.99 260.104 258.86C260.104 260.729 261.621 262.244 263.492 262.244Z" fill="#ECECEC"/>
<path d="M296.24 262.244C298.111 262.244 299.628 260.729 299.628 258.86C299.628 256.99 298.111 255.475 296.24 255.475C294.369 255.475 292.853 256.99 292.853 258.86C292.853 260.729 294.369 262.244 296.24 262.244Z" fill="#ECECEC"/>
<path d="M328.612 262.244C330.483 262.244 332 260.729 332 258.86C332 256.99 330.483 255.475 328.612 255.475C326.741 255.475 325.224 256.99 325.224 258.86C325.224 260.729 326.741 262.244 328.612 262.244Z" fill="#ECECEC"/>
<path d="M3.38776 294.595C5.25877 294.595 6.77551 293.079 6.77551 291.21C6.77551 289.34 5.25877 287.825 3.38776 287.825C1.51676 287.825 0 289.34 0 291.21C0 293.079 1.51676 294.595 3.38776 294.595Z" fill="#ECECEC"/>
<path d="M35.7597 294.595C37.6307 294.595 39.1474 293.079 39.1474 291.21C39.1474 289.34 37.6307 287.825 35.7597 287.825C33.8886 287.825 32.3719 289.34 32.3719 291.21C32.3719 293.079 33.8886 294.595 35.7597 294.595Z" fill="#ECECEC"/>
<path d="M68.5079 294.595C70.3789 294.595 71.8957 293.079 71.8957 291.21C71.8957 289.34 70.3789 287.825 68.5079 287.825C66.6369 287.825 65.1202 289.34 65.1202 291.21C65.1202 293.079 66.6369 294.595 68.5079 294.595Z" fill="#ECECEC"/>
<path d="M100.88 294.595C102.751 294.595 104.268 293.079 104.268 291.21C104.268 289.34 102.751 287.825 100.88 287.825C99.0088 287.825 97.492 289.34 97.492 291.21C97.492 293.079 99.0088 294.595 100.88 294.595Z" fill="#ECECEC"/>
<path d="M133.628 294.595C135.499 294.595 137.016 293.079 137.016 291.21C137.016 289.34 135.499 287.825 133.628 287.825C131.757 287.825 130.24 289.34 130.24 291.21C130.24 293.079 131.757 294.595 133.628 294.595Z" fill="#ECECEC"/>
<path d="M166 294.595C167.871 294.595 169.388 293.079 169.388 291.21C169.388 289.34 167.871 287.825 166 287.825C164.129 287.825 162.612 289.34 162.612 291.21C162.612 293.079 164.129 294.595 166 294.595Z" fill="#ECECEC"/>
<path d="M198.372 294.595C200.243 294.595 201.76 293.079 201.76 291.21C201.76 289.34 200.243 287.825 198.372 287.825C196.501 287.825 194.984 289.34 194.984 291.21C194.984 293.079 196.501 294.595 198.372 294.595Z" fill="#ECECEC"/>
<path d="M231.12 294.595C232.991 294.595 234.508 293.079 234.508 291.21C234.508 289.34 232.991 287.825 231.12 287.825C229.249 287.825 227.733 289.34 227.733 291.21C227.733 293.079 229.249 294.595 231.12 294.595Z" fill="#ECECEC"/>
<path d="M263.492 294.595C265.363 294.595 266.88 293.079 266.88 291.21C266.88 289.34 265.363 287.825 263.492 287.825C261.621 287.825 260.104 289.34 260.104 291.21C260.104 293.079 261.621 294.595 263.492 294.595Z" fill="#ECECEC"/>
<path d="M296.24 294.595C298.111 294.595 299.628 293.079 299.628 291.21C299.628 289.34 298.111 287.825 296.24 287.825C294.369 287.825 292.853 289.34 292.853 291.21C292.853 293.079 294.369 294.595 296.24 294.595Z" fill="#ECECEC"/>
<path d="M328.612 294.595C330.483 294.595 332 293.079 332 291.21C332 289.34 330.483 287.825 328.612 287.825C326.741 287.825 325.224 289.34 325.224 291.21C325.224 293.079 326.741 294.595 328.612 294.595Z" fill="#ECECEC"/>
<path d="M3.38776 326.945C5.25877 326.945 6.77551 325.429 6.77551 323.56C6.77551 321.69 5.25877 320.175 3.38776 320.175C1.51676 320.175 0 321.69 0 323.56C0 325.429 1.51676 326.945 3.38776 326.945Z" fill="#ECECEC"/>
<path d="M35.7597 326.945C37.6307 326.945 39.1474 325.429 39.1474 323.56C39.1474 321.69 37.6307 320.175 35.7597 320.175C33.8886 320.175 32.3719 321.69 32.3719 323.56C32.3719 325.429 33.8886 326.945 35.7597 326.945Z" fill="#ECECEC"/>
<path d="M68.5079 326.945C70.3789 326.945 71.8957 325.429 71.8957 323.56C71.8957 321.69 70.3789 320.175 68.5079 320.175C66.6369 320.175 65.1202 321.69 65.1202 323.56C65.1202 325.429 66.6369 326.945 68.5079 326.945Z" fill="#ECECEC"/>
<path d="M100.88 326.945C102.751 326.945 104.268 325.429 104.268 323.56C104.268 321.69 102.751 320.175 100.88 320.175C99.0088 320.175 97.492 321.69 97.492 323.56C97.492 325.429 99.0088 326.945 100.88 326.945Z" fill="#ECECEC"/>
<path d="M133.628 326.945C135.499 326.945 137.016 325.429 137.016 323.56C137.016 321.69 135.499 320.175 133.628 320.175C131.757 320.175 130.24 321.69 130.24 323.56C130.24 325.429 131.757 326.945 133.628 326.945Z" fill="#ECECEC"/>
<path d="M166 326.945C167.871 326.945 169.388 325.429 169.388 323.56C169.388 321.69 167.871 320.175 166 320.175C164.129 320.175 162.612 321.69 162.612 323.56C162.612 325.429 164.129 326.945 166 326.945Z" fill="#ECECEC"/>
<path d="M198.372 326.945C200.243 326.945 201.76 325.429 201.76 323.56C201.76 321.69 200.243 320.175 198.372 320.175C196.501 320.175 194.984 321.69 194.984 323.56C194.984 325.429 196.501 326.945 198.372 326.945Z" fill="#ECECEC"/>
<path d="M231.12 326.945C232.991 326.945 234.508 325.429 234.508 323.56C234.508 321.69 232.991 320.175 231.12 320.175C229.249 320.175 227.733 321.69 227.733 323.56C227.733 325.429 229.249 326.945 231.12 326.945Z" fill="#ECECEC"/>
<path d="M263.492 326.945C265.363 326.945 266.88 325.429 266.88 323.56C266.88 321.69 265.363 320.175 263.492 320.175C261.621 320.175 260.104 321.69 260.104 323.56C260.104 325.429 261.621 326.945 263.492 326.945Z" fill="#ECECEC"/>
<path d="M296.24 326.945C298.111 326.945 299.628 325.429 299.628 323.56C299.628 321.69 298.111 320.175 296.24 320.175C294.369 320.175 292.853 321.69 292.853 323.56C292.853 325.429 294.369 326.945 296.24 326.945Z" fill="#ECECEC"/>
<path d="M328.612 326.945C330.483 326.945 332 325.429 332 323.56C332 321.69 330.483 320.175 328.612 320.175C326.741 320.175 325.224 321.69 325.224 323.56C325.224 325.429 326.741 326.945 328.612 326.945Z" fill="#ECECEC"/>
<path d="M3.38776 359.295C5.25877 359.295 6.77551 357.779 6.77551 355.91C6.77551 354.04 5.25877 352.525 3.38776 352.525C1.51676 352.525 0 354.04 0 355.91C0 357.779 1.51676 359.295 3.38776 359.295Z" fill="#ECECEC"/>
<path d="M35.7597 359.295C37.6307 359.295 39.1474 357.779 39.1474 355.91C39.1474 354.04 37.6307 352.525 35.7597 352.525C33.8886 352.525 32.3719 354.04 32.3719 355.91C32.3719 357.779 33.8886 359.295 35.7597 359.295Z" fill="#ECECEC"/>
<path d="M68.5079 359.295C70.3789 359.295 71.8957 357.779 71.8957 355.91C71.8957 354.04 70.3789 352.525 68.5079 352.525C66.6369 352.525 65.1202 354.04 65.1202 355.91C65.1202 357.779 66.6369 359.295 68.5079 359.295Z" fill="#ECECEC"/>
<path d="M100.88 359.295C102.751 359.295 104.268 357.779 104.268 355.91C104.268 354.04 102.751 352.525 100.88 352.525C99.0088 352.525 97.492 354.04 97.492 355.91C97.492 357.779 99.0088 359.295 100.88 359.295Z" fill="#ECECEC"/>
<path d="M133.628 359.295C135.499 359.295 137.016 357.779 137.016 355.91C137.016 354.04 135.499 352.525 133.628 352.525C131.757 352.525 130.24 354.04 130.24 355.91C130.24 357.779 131.757 359.295 133.628 359.295Z" fill="#ECECEC"/>
<path d="M166 359.295C167.871 359.295 169.388 357.779 169.388 355.91C169.388 354.04 167.871 352.525 166 352.525C164.129 352.525 162.612 354.04 162.612 355.91C162.612 357.779 164.129 359.295 166 359.295Z" fill="#ECECEC"/>
<path d="M198.372 359.295C200.243 359.295 201.76 357.779 201.76 355.91C201.76 354.04 200.243 352.525 198.372 352.525C196.501 352.525 194.984 354.04 194.984 355.91C194.984 357.779 196.501 359.295 198.372 359.295Z" fill="#ECECEC"/>
<path d="M231.12 359.295C232.991 359.295 234.508 357.779 234.508 355.91C234.508 354.04 232.991 352.525 231.12 352.525C229.249 352.525 227.733 354.04 227.733 355.91C227.733 357.779 229.249 359.295 231.12 359.295Z" fill="#ECECEC"/>
<path d="M263.492 359.295C265.363 359.295 266.88 357.779 266.88 355.91C266.88 354.04 265.363 352.525 263.492 352.525C261.621 352.525 260.104 354.04 260.104 355.91C260.104 357.779 261.621 359.295 263.492 359.295Z" fill="#ECECEC"/>
<path d="M296.24 359.295C298.111 359.295 299.628 357.779 299.628 355.91C299.628 354.04 298.111 352.525 296.24 352.525C294.369 352.525 292.853 354.04 292.853 355.91C292.853 357.779 294.369 359.295 296.24 359.295Z" fill="#ECECEC"/>
<path d="M328.612 359.295C330.483 359.295 332 357.779 332 355.91C332 354.04 330.483 352.525 328.612 352.525C326.741 352.525 325.224 354.04 325.224 355.91C325.224 357.779 326.741 359.295 328.612 359.295Z" fill="#ECECEC"/>
<path d="M3.38776 391.645C5.25877 391.645 6.77551 390.129 6.77551 388.26C6.77551 386.39 5.25877 384.875 3.38776 384.875C1.51676 384.875 0 386.39 0 388.26C0 390.129 1.51676 391.645 3.38776 391.645Z" fill="#ECECEC"/>
<path d="M35.7597 391.645C37.6307 391.645 39.1474 390.129 39.1474 388.26C39.1474 386.39 37.6307 384.875 35.7597 384.875C33.8886 384.875 32.3719 386.39 32.3719 388.26C32.3719 390.129 33.8886 391.645 35.7597 391.645Z" fill="#ECECEC"/>
<path d="M68.5079 391.645C70.3789 391.645 71.8957 390.129 71.8957 388.26C71.8957 386.39 70.3789 384.875 68.5079 384.875C66.6369 384.875 65.1202 386.39 65.1202 388.26C65.1202 390.129 66.6369 391.645 68.5079 391.645Z" fill="#ECECEC"/>
<path d="M100.88 391.645C102.751 391.645 104.268 390.129 104.268 388.26C104.268 386.39 102.751 384.875 100.88 384.875C99.0088 384.875 97.492 386.39 97.492 388.26C97.492 390.129 99.0088 391.645 100.88 391.645Z" fill="#ECECEC"/>
<path d="M133.628 391.645C135.499 391.645 137.016 390.129 137.016 388.26C137.016 386.39 135.499 384.875 133.628 384.875C131.757 384.875 130.24 386.39 130.24 388.26C130.24 390.129 131.757 391.645 133.628 391.645Z" fill="#ECECEC"/>
<path d="M166 391.645C167.871 391.645 169.388 390.129 169.388 388.26C169.388 386.39 167.871 384.875 166 384.875C164.129 384.875 162.612 386.39 162.612 388.26C162.612 390.129 164.129 391.645 166 391.645Z" fill="#ECECEC"/>
<path d="M198.372 391.645C200.243 391.645 201.76 390.129 201.76 388.26C201.76 386.39 200.243 384.875 198.372 384.875C196.501 384.875 194.984 386.39 194.984 388.26C194.984 390.129 196.501 391.645 198.372 391.645Z" fill="#ECECEC"/>
<path d="M231.12 391.645C232.991 391.645 234.508 390.129 234.508 388.26C234.508 386.39 232.991 384.875 231.12 384.875C229.249 384.875 227.733 386.39 227.733 388.26C227.733 390.129 229.249 391.645 231.12 391.645Z" fill="#ECECEC"/>
<path d="M263.492 391.645C265.363 391.645 266.88 390.129 266.88 388.26C266.88 386.39 265.363 384.875 263.492 384.875C261.621 384.875 260.104 386.39 260.104 388.26C260.104 390.129 261.621 391.645 263.492 391.645Z" fill="#ECECEC"/>
<path d="M296.24 391.645C298.111 391.645 299.628 390.129 299.628 388.26C299.628 386.39 298.111 384.875 296.24 384.875C294.369 384.875 292.853 386.39 292.853 388.26C292.853 390.129 294.369 391.645 296.24 391.645Z" fill="#ECECEC"/>
<path d="M328.612 391.645C330.483 391.645 332 390.129 332 388.26C332 386.39 330.483 384.875 328.612 384.875C326.741 384.875 325.224 386.39 325.224 388.26C325.224 390.129 326.741 391.645 328.612 391.645Z" fill="#ECECEC"/>
<path d="M3.38776 423.995C5.25877 423.995 6.77551 422.48 6.77551 420.61C6.77551 418.741 5.25877 417.225 3.38776 417.225C1.51676 417.225 0 418.741 0 420.61C0 422.48 1.51676 423.995 3.38776 423.995Z" fill="#ECECEC"/>
<path d="M35.7597 423.995C37.6307 423.995 39.1474 422.48 39.1474 420.61C39.1474 418.741 37.6307 417.225 35.7597 417.225C33.8886 417.225 32.3719 418.741 32.3719 420.61C32.3719 422.48 33.8886 423.995 35.7597 423.995Z" fill="#ECECEC"/>
<path d="M68.5079 423.995C70.3789 423.995 71.8957 422.48 71.8957 420.61C71.8957 418.741 70.3789 417.225 68.5079 417.225C66.6369 417.225 65.1202 418.741 65.1202 420.61C65.1202 422.48 66.6369 423.995 68.5079 423.995Z" fill="#ECECEC"/>
<path d="M100.88 423.995C102.751 423.995 104.268 422.48 104.268 420.61C104.268 418.741 102.751 417.225 100.88 417.225C99.0088 417.225 97.492 418.741 97.492 420.61C97.492 422.48 99.0088 423.995 100.88 423.995Z" fill="#ECECEC"/>
<path d="M133.628 423.995C135.499 423.995 137.016 422.48 137.016 420.61C137.016 418.741 135.499 417.225 133.628 417.225C131.757 417.225 130.24 418.741 130.24 420.61C130.24 422.48 131.757 423.995 133.628 423.995Z" fill="#ECECEC"/>
<path d="M166 423.995C167.871 423.995 169.388 422.48 169.388 420.61C169.388 418.741 167.871 417.225 166 417.225C164.129 417.225 162.612 418.741 162.612 420.61C162.612 422.48 164.129 423.995 166 423.995Z" fill="#ECECEC"/>
<path d="M198.372 423.995C200.243 423.995 201.76 422.48 201.76 420.61C201.76 418.741 200.243 417.225 198.372 417.225C196.501 417.225 194.984 418.741 194.984 420.61C194.984 422.48 196.501 423.995 198.372 423.995Z" fill="#ECECEC"/>
<path d="M231.12 423.995C232.991 423.995 234.508 422.48 234.508 420.61C234.508 418.741 232.991 417.225 231.12 417.225C229.249 417.225 227.733 418.741 227.733 420.61C227.733 422.48 229.249 423.995 231.12 423.995Z" fill="#ECECEC"/>
<path d="M263.492 423.995C265.363 423.995 266.88 422.48 266.88 420.61C266.88 418.741 265.363 417.225 263.492 417.225C261.621 417.225 260.104 418.741 260.104 420.61C260.104 422.48 261.621 423.995 263.492 423.995Z" fill="#ECECEC"/>
<path d="M296.24 423.995C298.111 423.995 299.628 422.48 299.628 420.61C299.628 418.741 298.111 417.225 296.24 417.225C294.369 417.225 292.853 418.741 292.853 420.61C292.853 422.48 294.369 423.995 296.24 423.995Z" fill="#ECECEC"/>
<path d="M328.612 423.995C330.483 423.995 332 422.48 332 420.61C332 418.741 330.483 417.225 328.612 417.225C326.741 417.225 325.224 418.741 325.224 420.61C325.224 422.48 326.741 423.995 328.612 423.995Z" fill="#ECECEC"/>
<path d="M3.38776 456.345C5.25877 456.345 6.77551 454.83 6.77551 452.96C6.77551 451.091 5.25877 449.575 3.38776 449.575C1.51676 449.575 0 451.091 0 452.96C0 454.83 1.51676 456.345 3.38776 456.345Z" fill="#ECECEC"/>
<path d="M35.7597 456.345C37.6307 456.345 39.1474 454.83 39.1474 452.96C39.1474 451.091 37.6307 449.575 35.7597 449.575C33.8886 449.575 32.3719 451.091 32.3719 452.96C32.3719 454.83 33.8886 456.345 35.7597 456.345Z" fill="#ECECEC"/>
<path d="M68.5079 456.345C70.3789 456.345 71.8957 454.83 71.8957 452.96C71.8957 451.091 70.3789 449.575 68.5079 449.575C66.6369 449.575 65.1202 451.091 65.1202 452.96C65.1202 454.83 66.6369 456.345 68.5079 456.345Z" fill="#ECECEC"/>
<path d="M100.88 456.345C102.751 456.345 104.268 454.83 104.268 452.96C104.268 451.091 102.751 449.575 100.88 449.575C99.0088 449.575 97.492 451.091 97.492 452.96C97.492 454.83 99.0088 456.345 100.88 456.345Z" fill="#ECECEC"/>
<path d="M133.628 456.345C135.499 456.345 137.016 454.83 137.016 452.96C137.016 451.091 135.499 449.575 133.628 449.575C131.757 449.575 130.24 451.091 130.24 452.96C130.24 454.83 131.757 456.345 133.628 456.345Z" fill="#ECECEC"/>
<path d="M166 456.345C167.871 456.345 169.388 454.83 169.388 452.96C169.388 451.091 167.871 449.575 166 449.575C164.129 449.575 162.612 451.091 162.612 452.96C162.612 454.83 164.129 456.345 166 456.345Z" fill="#ECECEC"/>
<path d="M198.372 456.345C200.243 456.345 201.76 454.83 201.76 452.96C201.76 451.091 200.243 449.575 198.372 449.575C196.501 449.575 194.984 451.091 194.984 452.96C194.984 454.83 196.501 456.345 198.372 456.345Z" fill="#ECECEC"/>
<path d="M231.12 456.345C232.991 456.345 234.508 454.83 234.508 452.96C234.508 451.091 232.991 449.575 231.12 449.575C229.249 449.575 227.733 451.091 227.733 452.96C227.733 454.83 229.249 456.345 231.12 456.345Z" fill="#ECECEC"/>
<path d="M263.492 456.345C265.363 456.345 266.88 454.83 266.88 452.96C266.88 451.091 265.363 449.575 263.492 449.575C261.621 449.575 260.104 451.091 260.104 452.96C260.104 454.83 261.621 456.345 263.492 456.345Z" fill="#ECECEC"/>
<path d="M296.24 456.345C298.111 456.345 299.628 454.83 299.628 452.96C299.628 451.091 298.111 449.575 296.24 449.575C294.369 449.575 292.853 451.091 292.853 452.96C292.853 454.83 294.369 456.345 296.24 456.345Z" fill="#ECECEC"/>
<path d="M328.612 456.345C330.483 456.345 332 454.83 332 452.96C332 451.091 330.483 449.575 328.612 449.575C326.741 449.575 325.224 451.091 325.224 452.96C325.224 454.83 326.741 456.345 328.612 456.345Z" fill="#ECECEC"/>
<path d="M3.38776 488.695C5.25877 488.695 6.77551 487.18 6.77551 485.31C6.77551 483.441 5.25877 481.925 3.38776 481.925C1.51676 481.925 0 483.441 0 485.31C0 487.18 1.51676 488.695 3.38776 488.695Z" fill="#ECECEC"/>
<path d="M35.7597 488.695C37.6307 488.695 39.1474 487.18 39.1474 485.31C39.1474 483.441 37.6307 481.925 35.7597 481.925C33.8886 481.925 32.3719 483.441 32.3719 485.31C32.3719 487.18 33.8886 488.695 35.7597 488.695Z" fill="#ECECEC"/>
<path d="M68.5079 488.695C70.3789 488.695 71.8957 487.18 71.8957 485.31C71.8957 483.441 70.3789 481.925 68.5079 481.925C66.6369 481.925 65.1202 483.441 65.1202 485.31C65.1202 487.18 66.6369 488.695 68.5079 488.695Z" fill="#ECECEC"/>
<path d="M100.88 488.695C102.751 488.695 104.268 487.18 104.268 485.31C104.268 483.441 102.751 481.925 100.88 481.925C99.0088 481.925 97.492 483.441 97.492 485.31C97.492 487.18 99.0088 488.695 100.88 488.695Z" fill="#ECECEC"/>
<path d="M133.628 488.695C135.499 488.695 137.016 487.18 137.016 485.31C137.016 483.441 135.499 481.925 133.628 481.925C131.757 481.925 130.24 483.441 130.24 485.31C130.24 487.18 131.757 488.695 133.628 488.695Z" fill="#ECECEC"/>
<path d="M166 488.695C167.871 488.695 169.388 487.18 169.388 485.31C169.388 483.441 167.871 481.925 166 481.925C164.129 481.925 162.612 483.441 162.612 485.31C162.612 487.18 164.129 488.695 166 488.695Z" fill="#ECECEC"/>
<path d="M198.372 488.695C200.243 488.695 201.76 487.18 201.76 485.31C201.76 483.441 200.243 481.925 198.372 481.925C196.501 481.925 194.984 483.441 194.984 485.31C194.984 487.18 196.501 488.695 198.372 488.695Z" fill="#ECECEC"/>
<path d="M231.12 488.695C232.991 488.695 234.508 487.18 234.508 485.31C234.508 483.441 232.991 481.925 231.12 481.925C229.249 481.925 227.733 483.441 227.733 485.31C227.733 487.18 229.249 488.695 231.12 488.695Z" fill="#ECECEC"/>
<path d="M263.492 488.695C265.363 488.695 266.88 487.18 266.88 485.31C266.88 483.441 265.363 481.925 263.492 481.925C261.621 481.925 260.104 483.441 260.104 485.31C260.104 487.18 261.621 488.695 263.492 488.695Z" fill="#ECECEC"/>
<path d="M296.24 488.695C298.111 488.695 299.628 487.18 299.628 485.31C299.628 483.441 298.111 481.925 296.24 481.925C294.369 481.925 292.853 483.441 292.853 485.31C292.853 487.18 294.369 488.695 296.24 488.695Z" fill="#ECECEC"/>
<path d="M328.612 488.695C330.483 488.695 332 487.18 332 485.31C332 483.441 330.483 481.925 328.612 481.925C326.741 481.925 325.224 483.441 325.224 485.31C325.224 487.18 326.741 488.695 328.612 488.695Z" fill="#ECECEC"/>
<path d="M3.38776 6.76983C5.25877 6.76983 6.77551 5.25435 6.77551 3.38492C6.77551 1.51548 5.25877 0 3.38776 0C1.51676 0 0 1.51548 0 3.38492C0 5.25435 1.51676 6.76983 3.38776 6.76983Z" fill="#ECECEC"/>
<path d="M35.7597 6.76983C37.6307 6.76983 39.1474 5.25435 39.1474 3.38492C39.1474 1.51548 37.6307 0 35.7597 0C33.8886 0 32.3719 1.51548 32.3719 3.38492C32.3719 5.25435 33.8886 6.76983 35.7597 6.76983Z" fill="#ECECEC"/>
<path d="M68.5079 6.76983C70.3789 6.76983 71.8957 5.25435 71.8957 3.38492C71.8957 1.51548 70.3789 0 68.5079 0C66.6369 0 65.1202 1.51548 65.1202 3.38492C65.1202 5.25435 66.6369 6.76983 68.5079 6.76983Z" fill="#ECECEC"/>
<path d="M100.88 6.76983C102.751 6.76983 104.268 5.25435 104.268 3.38492C104.268 1.51548 102.751 0 100.88 0C99.0088 0 97.492 1.51548 97.492 3.38492C97.492 5.25435 99.0088 6.76983 100.88 6.76983Z" fill="#ECECEC"/>
<path d="M133.628 6.76983C135.499 6.76983 137.016 5.25435 137.016 3.38492C137.016 1.51548 135.499 0 133.628 0C131.757 0 130.24 1.51548 130.24 3.38492C130.24 5.25435 131.757 6.76983 133.628 6.76983Z" fill="#ECECEC"/>
<path d="M166 6.76983C167.871 6.76983 169.388 5.25435 169.388 3.38492C169.388 1.51548 167.871 0 166 0C164.129 0 162.612 1.51548 162.612 3.38492C162.612 5.25435 164.129 6.76983 166 6.76983Z" fill="#ECECEC"/>
<path d="M198.372 6.76983C200.243 6.76983 201.76 5.25435 201.76 3.38492C201.76 1.51548 200.243 0 198.372 0C196.501 0 194.984 1.51548 194.984 3.38492C194.984 5.25435 196.501 6.76983 198.372 6.76983Z" fill="#ECECEC"/>
<path d="M231.12 6.76983C232.991 6.76983 234.508 5.25435 234.508 3.38492C234.508 1.51548 232.991 0 231.12 0C229.249 0 227.733 1.51548 227.733 3.38492C227.733 5.25435 229.249 6.76983 231.12 6.76983Z" fill="#ECECEC"/>
<path d="M263.492 6.76983C265.363 6.76983 266.88 5.25435 266.88 3.38492C266.88 1.51548 265.363 0 263.492 0C261.621 0 260.104 1.51548 260.104 3.38492C260.104 5.25435 261.621 6.76983 263.492 6.76983Z" fill="#ECECEC"/>
<path d="M296.24 6.76983C298.111 6.76983 299.628 5.25435 299.628 3.38492C299.628 1.51548 298.111 0 296.24 0C294.369 0 292.853 1.51548 292.853 3.38492C292.853 5.25435 294.369 6.76983 296.24 6.76983Z" fill="#ECECEC"/>
<path d="M328.612 6.76983C330.483 6.76983 332 5.25435 332 3.38492C332 1.51548 330.483 0 328.612 0C326.741 0 325.224 1.51548 325.224 3.38492C325.224 5.25435 326.741 6.76983 328.612 6.76983Z" fill="#ECECEC"/>
<path d="M3.38776 39.1199C5.25877 39.1199 6.77551 37.6044 6.77551 35.735C6.77551 33.8656 5.25877 32.3501 3.38776 32.3501C1.51676 32.3501 0 33.8656 0 35.735C0 37.6044 1.51676 39.1199 3.38776 39.1199Z" fill="#ECECEC"/>
<path d="M35.7597 39.1199C37.6307 39.1199 39.1474 37.6044 39.1474 35.735C39.1474 33.8656 37.6307 32.3501 35.7597 32.3501C33.8886 32.3501 32.3719 33.8656 32.3719 35.735C32.3719 37.6044 33.8886 39.1199 35.7597 39.1199Z" fill="#ECECEC"/>
<path d="M68.5079 39.1199C70.3789 39.1199 71.8957 37.6044 71.8957 35.735C71.8957 33.8656 70.3789 32.3501 68.5079 32.3501C66.6369 32.3501 65.1202 33.8656 65.1202 35.735C65.1202 37.6044 66.6369 39.1199 68.5079 39.1199Z" fill="#ECECEC"/>
<path d="M100.88 39.1199C102.751 39.1199 104.268 37.6044 104.268 35.735C104.268 33.8656 102.751 32.3501 100.88 32.3501C99.0088 32.3501 97.492 33.8656 97.492 35.735C97.492 37.6044 99.0088 39.1199 100.88 39.1199Z" fill="#ECECEC"/>
<path d="M133.628 39.1199C135.499 39.1199 137.016 37.6044 137.016 35.735C137.016 33.8656 135.499 32.3501 133.628 32.3501C131.757 32.3501 130.24 33.8656 130.24 35.735C130.24 37.6044 131.757 39.1199 133.628 39.1199Z" fill="#ECECEC"/>
<path d="M166 39.1199C167.871 39.1199 169.388 37.6044 169.388 35.735C169.388 33.8656 167.871 32.3501 166 32.3501C164.129 32.3501 162.612 33.8656 162.612 35.735C162.612 37.6044 164.129 39.1199 166 39.1199Z" fill="#ECECEC"/>
<path d="M198.372 39.1199C200.243 39.1199 201.76 37.6044 201.76 35.735C201.76 33.8656 200.243 32.3501 198.372 32.3501C196.501 32.3501 194.984 33.8656 194.984 35.735C194.984 37.6044 196.501 39.1199 198.372 39.1199Z" fill="#ECECEC"/>
<path d="M231.12 39.1199C232.991 39.1199 234.508 37.6044 234.508 35.735C234.508 33.8656 232.991 32.3501 231.12 32.3501C229.249 32.3501 227.733 33.8656 227.733 35.735C227.733 37.6044 229.249 39.1199 231.12 39.1199Z" fill="#ECECEC"/>
<path d="M263.492 39.1199C265.363 39.1199 266.88 37.6044 266.88 35.735C266.88 33.8656 265.363 32.3501 263.492 32.3501C261.621 32.3501 260.104 33.8656 260.104 35.735C260.104 37.6044 261.621 39.1199 263.492 39.1199Z" fill="#ECECEC"/>
<path d="M296.24 39.1199C298.111 39.1199 299.628 37.6044 299.628 35.735C299.628 33.8656 298.111 32.3501 296.24 32.3501C294.369 32.3501 292.853 33.8656 292.853 35.735C292.853 37.6044 294.369 39.1199 296.24 39.1199Z" fill="#ECECEC"/>
<path d="M328.612 39.1199C330.483 39.1199 332 37.6044 332 35.735C332 33.8656 330.483 32.3501 328.612 32.3501C326.741 32.3501 325.224 33.8656 325.224 35.735C325.224 37.6044 326.741 39.1199 328.612 39.1199Z" fill="#ECECEC"/>
<path d="M3.38776 71.47C5.25877 71.47 6.77551 69.9545 6.77551 68.0851C6.77551 66.2157 5.25877 64.7002 3.38776 64.7002C1.51676 64.7002 0 66.2157 0 68.0851C0 69.9545 1.51676 71.47 3.38776 71.47Z" fill="#ECECEC"/>
<path d="M35.7597 71.47C37.6307 71.47 39.1474 69.9545 39.1474 68.0851C39.1474 66.2157 37.6307 64.7002 35.7597 64.7002C33.8886 64.7002 32.3719 66.2157 32.3719 68.0851C32.3719 69.9545 33.8886 71.47 35.7597 71.47Z" fill="#ECECEC"/>
<path d="M68.5079 71.47C70.3789 71.47 71.8957 69.9545 71.8957 68.0851C71.8957 66.2157 70.3789 64.7002 68.5079 64.7002C66.6369 64.7002 65.1202 66.2157 65.1202 68.0851C65.1202 69.9545 66.6369 71.47 68.5079 71.47Z" fill="#ECECEC"/>
<path d="M100.88 71.47C102.751 71.47 104.268 69.9545 104.268 68.0851C104.268 66.2157 102.751 64.7002 100.88 64.7002C99.0088 64.7002 97.492 66.2157 97.492 68.0851C97.492 69.9545 99.0088 71.47 100.88 71.47Z" fill="#ECECEC"/>
<path d="M133.628 71.47C135.499 71.47 137.016 69.9545 137.016 68.0851C137.016 66.2157 135.499 64.7002 133.628 64.7002C131.757 64.7002 130.24 66.2157 130.24 68.0851C130.24 69.9545 131.757 71.47 133.628 71.47Z" fill="#ECECEC"/>
<path d="M166 71.47C167.871 71.47 169.388 69.9545 169.388 68.0851C169.388 66.2157 167.871 64.7002 166 64.7002C164.129 64.7002 162.612 66.2157 162.612 68.0851C162.612 69.9545 164.129 71.47 166 71.47Z" fill="#ECECEC"/>
<path d="M198.372 71.47C200.243 71.47 201.76 69.9545 201.76 68.0851C201.76 66.2157 200.243 64.7002 198.372 64.7002C196.501 64.7002 194.984 66.2157 194.984 68.0851C194.984 69.9545 196.501 71.47 198.372 71.47Z" fill="#ECECEC"/>
<path d="M231.12 71.47C232.991 71.47 234.508 69.9545 234.508 68.0851C234.508 66.2157 232.991 64.7002 231.12 64.7002C229.249 64.7002 227.733 66.2157 227.733 68.0851C227.733 69.9545 229.249 71.47 231.12 71.47Z" fill="#ECECEC"/>
<path d="M263.492 71.47C265.363 71.47 266.88 69.9545 266.88 68.0851C266.88 66.2157 265.363 64.7002 263.492 64.7002C261.621 64.7002 260.104 66.2157 260.104 68.0851C260.104 69.9545 261.621 71.47 263.492 71.47Z" fill="#ECECEC"/>
<path d="M296.24 71.47C298.111 71.47 299.628 69.9545 299.628 68.0851C299.628 66.2157 298.111 64.7002 296.24 64.7002C294.369 64.7002 292.853 66.2157 292.853 68.0851C292.853 69.9545 294.369 71.47 296.24 71.47Z" fill="#ECECEC"/>
<path d="M328.612 71.47C330.483 71.47 332 69.9545 332 68.0851C332 66.2157 330.483 64.7002 328.612 64.7002C326.741 64.7002 325.224 66.2157 325.224 68.0851C325.224 69.9545 326.741 71.47 328.612 71.47Z" fill="#ECECEC"/>
<path d="M3.38776 103.82C5.25877 103.82 6.77551 102.305 6.77551 100.435C6.77551 98.5658 5.25877 97.0503 3.38776 97.0503C1.51676 97.0503 0 98.5658 0 100.435C0 102.305 1.51676 103.82 3.38776 103.82Z" fill="#ECECEC"/>
<path d="M35.7597 103.82C37.6307 103.82 39.1474 102.305 39.1474 100.435C39.1474 98.5658 37.6307 97.0503 35.7597 97.0503C33.8886 97.0503 32.3719 98.5658 32.3719 100.435C32.3719 102.305 33.8886 103.82 35.7597 103.82Z" fill="#ECECEC"/>
<path d="M68.5079 103.82C70.3789 103.82 71.8957 102.305 71.8957 100.435C71.8957 98.5658 70.3789 97.0503 68.5079 97.0503C66.6369 97.0503 65.1202 98.5658 65.1202 100.435C65.1202 102.305 66.6369 103.82 68.5079 103.82Z" fill="#ECECEC"/>
<path d="M100.88 103.82C102.751 103.82 104.268 102.305 104.268 100.435C104.268 98.5658 102.751 97.0503 100.88 97.0503C99.0088 97.0503 97.492 98.5658 97.492 100.435C97.492 102.305 99.0088 103.82 100.88 103.82Z" fill="#ECECEC"/>
<path d="M133.628 103.82C135.499 103.82 137.016 102.305 137.016 100.435C137.016 98.5658 135.499 97.0503 133.628 97.0503C131.757 97.0503 130.24 98.5658 130.24 100.435C130.24 102.305 131.757 103.82 133.628 103.82Z" fill="#ECECEC"/>
<path d="M166 103.82C167.871 103.82 169.388 102.305 169.388 100.435C169.388 98.5658 167.871 97.0503 166 97.0503C164.129 97.0503 162.612 98.5658 162.612 100.435C162.612 102.305 164.129 103.82 166 103.82Z" fill="#ECECEC"/>
<path d="M198.372 103.82C200.243 103.82 201.76 102.305 201.76 100.435C201.76 98.5658 200.243 97.0503 198.372 97.0503C196.501 97.0503 194.984 98.5658 194.984 100.435C194.984 102.305 196.501 103.82 198.372 103.82Z" fill="#ECECEC"/>
<path d="M231.12 103.82C232.991 103.82 234.508 102.305 234.508 100.435C234.508 98.5658 232.991 97.0503 231.12 97.0503C229.249 97.0503 227.733 98.5658 227.733 100.435C227.733 102.305 229.249 103.82 231.12 103.82Z" fill="#ECECEC"/>
<path d="M263.492 103.82C265.363 103.82 266.88 102.305 266.88 100.435C266.88 98.5658 265.363 97.0503 263.492 97.0503C261.621 97.0503 260.104 98.5658 260.104 100.435C260.104 102.305 261.621 103.82 263.492 103.82Z" fill="#ECECEC"/>
<path d="M296.24 103.82C298.111 103.82 299.628 102.305 299.628 100.435C299.628 98.5658 298.111 97.0503 296.24 97.0503C294.369 97.0503 292.853 98.5658 292.853 100.435C292.853 102.305 294.369 103.82 296.24 103.82Z" fill="#ECECEC"/>
<path d="M328.612 103.82C330.483 103.82 332 102.305 332 100.435C332 98.5658 330.483 97.0503 328.612 97.0503C326.741 97.0503 325.224 98.5658 325.224 100.435C325.224 102.305 326.741 103.82 328.612 103.82Z" fill="#ECECEC"/>
<path d="M3.38776 136.17C5.25877 136.17 6.77551 134.655 6.77551 132.785C6.77551 130.916 5.25877 129.4 3.38776 129.4C1.51676 129.4 0 130.916 0 132.785C0 134.655 1.51676 136.17 3.38776 136.17Z" fill="#ECECEC"/>
<path d="M35.7597 136.17C37.6307 136.17 39.1474 134.655 39.1474 132.785C39.1474 130.916 37.6307 129.4 35.7597 129.4C33.8886 129.4 32.3719 130.916 32.3719 132.785C32.3719 134.655 33.8886 136.17 35.7597 136.17Z" fill="#ECECEC"/>
<path d="M68.5079 136.17C70.3789 136.17 71.8957 134.655 71.8957 132.785C71.8957 130.916 70.3789 129.4 68.5079 129.4C66.6369 129.4 65.1202 130.916 65.1202 132.785C65.1202 134.655 66.6369 136.17 68.5079 136.17Z" fill="#ECECEC"/>
<path d="M100.88 136.17C102.751 136.17 104.268 134.655 104.268 132.785C104.268 130.916 102.751 129.4 100.88 129.4C99.0088 129.4 97.492 130.916 97.492 132.785C97.492 134.655 99.0088 136.17 100.88 136.17Z" fill="#ECECEC"/>
<path d="M133.628 136.17C135.499 136.17 137.016 134.655 137.016 132.785C137.016 130.916 135.499 129.4 133.628 129.4C131.757 129.4 130.24 130.916 130.24 132.785C130.24 134.655 131.757 136.17 133.628 136.17Z" fill="#ECECEC"/>
<path d="M166 136.17C167.871 136.17 169.388 134.655 169.388 132.785C169.388 130.916 167.871 129.4 166 129.4C164.129 129.4 162.612 130.916 162.612 132.785C162.612 134.655 164.129 136.17 166 136.17Z" fill="#ECECEC"/>
<path d="M198.372 136.17C200.243 136.17 201.76 134.655 201.76 132.785C201.76 130.916 200.243 129.4 198.372 129.4C196.501 129.4 194.984 130.916 194.984 132.785C194.984 134.655 196.501 136.17 198.372 136.17Z" fill="#ECECEC"/>
<path d="M231.12 136.17C232.991 136.17 234.508 134.655 234.508 132.785C234.508 130.916 232.991 129.4 231.12 129.4C229.249 129.4 227.733 130.916 227.733 132.785C227.733 134.655 229.249 136.17 231.12 136.17Z" fill="#ECECEC"/>
<path d="M263.492 136.17C265.363 136.17 266.88 134.655 266.88 132.785C266.88 130.916 265.363 129.4 263.492 129.4C261.621 129.4 260.104 130.916 260.104 132.785C260.104 134.655 261.621 136.17 263.492 136.17Z" fill="#ECECEC"/>
<path d="M296.24 136.17C298.111 136.17 299.628 134.655 299.628 132.785C299.628 130.916 298.111 129.4 296.24 129.4C294.369 129.4 292.853 130.916 292.853 132.785C292.853 134.655 294.369 136.17 296.24 136.17Z" fill="#ECECEC"/>
<path d="M328.612 136.17C330.483 136.17 332 134.655 332 132.785C332 130.916 330.483 129.4 328.612 129.4C326.741 129.4 325.224 130.916 325.224 132.785C325.224 134.655 326.741 136.17 328.612 136.17Z" fill="#ECECEC"/>
<path d="M3.38776 168.52C5.25877 168.52 6.77551 167.005 6.77551 165.136C6.77551 163.266 5.25877 161.751 3.38776 161.751C1.51676 161.751 0 163.266 0 165.136C0 167.005 1.51676 168.52 3.38776 168.52Z" fill="#ECECEC"/>
<path d="M35.7597 168.52C37.6307 168.52 39.1474 167.005 39.1474 165.136C39.1474 163.266 37.6307 161.751 35.7597 161.751C33.8886 161.751 32.3719 163.266 32.3719 165.136C32.3719 167.005 33.8886 168.52 35.7597 168.52Z" fill="#ECECEC"/>
<path d="M68.5079 168.52C70.3789 168.52 71.8957 167.005 71.8957 165.136C71.8957 163.266 70.3789 161.751 68.5079 161.751C66.6369 161.751 65.1202 163.266 65.1202 165.136C65.1202 167.005 66.6369 168.52 68.5079 168.52Z" fill="#ECECEC"/>
<path d="M100.88 168.52C102.751 168.52 104.268 167.005 104.268 165.136C104.268 163.266 102.751 161.751 100.88 161.751C99.0088 161.751 97.492 163.266 97.492 165.136C97.492 167.005 99.0088 168.52 100.88 168.52Z" fill="#ECECEC"/>
<path d="M133.628 168.52C135.499 168.52 137.016 167.005 137.016 165.136C137.016 163.266 135.499 161.751 133.628 161.751C131.757 161.751 130.24 163.266 130.24 165.136C130.24 167.005 131.757 168.52 133.628 168.52Z" fill="#ECECEC"/>
<path d="M166 168.52C167.871 168.52 169.388 167.005 169.388 165.136C169.388 163.266 167.871 161.751 166 161.751C164.129 161.751 162.612 163.266 162.612 165.136C162.612 167.005 164.129 168.52 166 168.52Z" fill="#ECECEC"/>
<path d="M198.372 168.52C200.243 168.52 201.76 167.005 201.76 165.136C201.76 163.266 200.243 161.751 198.372 161.751C196.501 161.751 194.984 163.266 194.984 165.136C194.984 167.005 196.501 168.52 198.372 168.52Z" fill="#ECECEC"/>
<path d="M231.12 168.52C232.991 168.52 234.508 167.005 234.508 165.136C234.508 163.266 232.991 161.751 231.12 161.751C229.249 161.751 227.733 163.266 227.733 165.136C227.733 167.005 229.249 168.52 231.12 168.52Z" fill="#ECECEC"/>
<path d="M263.492 168.52C265.363 168.52 266.88 167.005 266.88 165.136C266.88 163.266 265.363 161.751 263.492 161.751C261.621 161.751 260.104 163.266 260.104 165.136C260.104 167.005 261.621 168.52 263.492 168.52Z" fill="#ECECEC"/>
<path d="M296.24 168.52C298.111 168.52 299.628 167.005 299.628 165.136C299.628 163.266 298.111 161.751 296.24 161.751C294.369 161.751 292.853 163.266 292.853 165.136C292.853 167.005 294.369 168.52 296.24 168.52Z" fill="#ECECEC"/>
<path d="M328.612 168.52C330.483 168.52 332 167.005 332 165.136C332 163.266 330.483 161.751 328.612 161.751C326.741 161.751 325.224 163.266 325.224 165.136C325.224 167.005 326.741 168.52 328.612 168.52Z" fill="#ECECEC"/>
<path d="M3.38776 200.871C5.25877 200.871 6.77551 199.355 6.77551 197.486C6.77551 195.616 5.25877 194.101 3.38776 194.101C1.51676 194.101 0 195.616 0 197.486C0 199.355 1.51676 200.871 3.38776 200.871Z" fill="#ECECEC"/>
<path d="M35.7597 200.871C37.6307 200.871 39.1474 199.355 39.1474 197.486C39.1474 195.616 37.6307 194.101 35.7597 194.101C33.8886 194.101 32.3719 195.616 32.3719 197.486C32.3719 199.355 33.8886 200.871 35.7597 200.871Z" fill="#ECECEC"/>
<path d="M68.5079 200.871C70.3789 200.871 71.8957 199.355 71.8957 197.486C71.8957 195.616 70.3789 194.101 68.5079 194.101C66.6369 194.101 65.1202 195.616 65.1202 197.486C65.1202 199.355 66.6369 200.871 68.5079 200.871Z" fill="#ECECEC"/>
<path d="M100.88 200.871C102.751 200.871 104.268 199.355 104.268 197.486C104.268 195.616 102.751 194.101 100.88 194.101C99.0088 194.101 97.492 195.616 97.492 197.486C97.492 199.355 99.0088 200.871 100.88 200.871Z" fill="#ECECEC"/>
<path d="M133.628 200.871C135.499 200.871 137.016 199.355 137.016 197.486C137.016 195.616 135.499 194.101 133.628 194.101C131.757 194.101 130.24 195.616 130.24 197.486C130.24 199.355 131.757 200.871 133.628 200.871Z" fill="#ECECEC"/>
<path d="M166 200.871C167.871 200.871 169.388 199.355 169.388 197.486C169.388 195.616 167.871 194.101 166 194.101C164.129 194.101 162.612 195.616 162.612 197.486C162.612 199.355 164.129 200.871 166 200.871Z" fill="#ECECEC"/>
<path d="M198.372 200.871C200.243 200.871 201.76 199.355 201.76 197.486C201.76 195.616 200.243 194.101 198.372 194.101C196.501 194.101 194.984 195.616 194.984 197.486C194.984 199.355 196.501 200.871 198.372 200.871Z" fill="#ECECEC"/>
<path d="M231.12 200.871C232.991 200.871 234.508 199.355 234.508 197.486C234.508 195.616 232.991 194.101 231.12 194.101C229.249 194.101 227.733 195.616 227.733 197.486C227.733 199.355 229.249 200.871 231.12 200.871Z" fill="#ECECEC"/>
<path d="M263.492 200.871C265.363 200.871 266.88 199.355 266.88 197.486C266.88 195.616 265.363 194.101 263.492 194.101C261.621 194.101 260.104 195.616 260.104 197.486C260.104 199.355 261.621 200.871 263.492 200.871Z" fill="#ECECEC"/>
<path d="M296.24 200.871C298.111 200.871 299.628 199.355 299.628 197.486C299.628 195.616 298.111 194.101 296.24 194.101C294.369 194.101 292.853 195.616 292.853 197.486C292.853 199.355 294.369 200.871 296.24 200.871Z" fill="#ECECEC"/>
<path d="M328.612 200.871C330.483 200.871 332 199.355 332 197.486C332 195.616 330.483 194.101 328.612 194.101C326.741 194.101 325.224 195.616 325.224 197.486C325.224 199.355 326.741 200.871 328.612 200.871Z" fill="#ECECEC"/>
<path d="M3.38776 233.221C5.25877 233.221 6.77551 231.705 6.77551 229.836C6.77551 227.966 5.25877 226.451 3.38776 226.451C1.51676 226.451 0 227.966 0 229.836C0 231.705 1.51676 233.221 3.38776 233.221Z" fill="#ECECEC"/>
<path d="M35.7597 233.221C37.6307 233.221 39.1474 231.705 39.1474 229.836C39.1474 227.966 37.6307 226.451 35.7597 226.451C33.8886 226.451 32.3719 227.966 32.3719 229.836C32.3719 231.705 33.8886 233.221 35.7597 233.221Z" fill="#ECECEC"/>
<path d="M68.5079 233.221C70.3789 233.221 71.8957 231.705 71.8957 229.836C71.8957 227.966 70.3789 226.451 68.5079 226.451C66.6369 226.451 65.1202 227.966 65.1202 229.836C65.1202 231.705 66.6369 233.221 68.5079 233.221Z" fill="#ECECEC"/>
<path d="M100.88 233.221C102.751 233.221 104.268 231.705 104.268 229.836C104.268 227.966 102.751 226.451 100.88 226.451C99.0088 226.451 97.492 227.966 97.492 229.836C97.492 231.705 99.0088 233.221 100.88 233.221Z" fill="#ECECEC"/>
<path d="M133.628 233.221C135.499 233.221 137.016 231.705 137.016 229.836C137.016 227.966 135.499 226.451 133.628 226.451C131.757 226.451 130.24 227.966 130.24 229.836C130.24 231.705 131.757 233.221 133.628 233.221Z" fill="#ECECEC"/>
<path d="M166 233.221C167.871 233.221 169.388 231.705 169.388 229.836C169.388 227.966 167.871 226.451 166 226.451C164.129 226.451 162.612 227.966 162.612 229.836C162.612 231.705 164.129 233.221 166 233.221Z" fill="#ECECEC"/>
<path d="M198.372 233.221C200.243 233.221 201.76 231.705 201.76 229.836C201.76 227.966 200.243 226.451 198.372 226.451C196.501 226.451 194.984 227.966 194.984 229.836C194.984 231.705 196.501 233.221 198.372 233.221Z" fill="#ECECEC"/>
<path d="M231.12 233.221C232.991 233.221 234.508 231.705 234.508 229.836C234.508 227.966 232.991 226.451 231.12 226.451C229.249 226.451 227.733 227.966 227.733 229.836C227.733 231.705 229.249 233.221 231.12 233.221Z" fill="#ECECEC"/>
<path d="M263.492 233.221C265.363 233.221 266.88 231.705 266.88 229.836C266.88 227.966 265.363 226.451 263.492 226.451C261.621 226.451 260.104 227.966 260.104 229.836C260.104 231.705 261.621 233.221 263.492 233.221Z" fill="#ECECEC"/>
<path d="M296.24 233.221C298.111 233.221 299.628 231.705 299.628 229.836C299.628 227.966 298.111 226.451 296.24 226.451C294.369 226.451 292.853 227.966 292.853 229.836C292.853 231.705 294.369 233.221 296.24 233.221Z" fill="#ECECEC"/>
<path d="M328.612 233.221C330.483 233.221 332 231.705 332 229.836C332 227.966 330.483 226.451 328.612 226.451C326.741 226.451 325.224 227.966 325.224 229.836C325.224 231.705 326.741 233.221 328.612 233.221Z" fill="#ECECEC"/>
</svg>
