<svg width="138" height="138" viewBox="0 0 138 138" fill="none" xmlns="http://www.w3.org/2000/svg">
<path d="M136.235 64.4571C136.319 65.8859 136.403 67.3147 136.403 68.7436C136.403 106.145 106.145 136.403 68.7436 136.403C31.3417 136.403 1 106.061 1 68.6595C1 31.2577 31.2577 1 68.6595 1" stroke="#2B2F2B" stroke-width="2" stroke-miterlimit="10" stroke-linecap="round"/>
<path d="M34.2834 17.8098C35.376 17.1374 36.3846 16.3809 37.5613 15.7926C66.7263 -1.43747 104.38 8.31223 121.61 37.5613C138.84 66.8104 129.091 104.38 99.8417 121.61C70.5926 138.84 33.0227 129.091 15.7926 99.8417" stroke="#00AAE7" stroke-width="2" stroke-miterlimit="10" stroke-linecap="round"/>
<path d="M119.761 88.9995C119.341 90.0921 118.837 91.1007 118.417 92.1934C105.389 119.677 72.6098 131.444 45.1258 118.417C17.6417 105.389 5.95889 72.6099 18.9025 45.1259C31.846 17.6418 64.7092 5.87497 92.1932 18.9026" stroke="#2B2F2B" stroke-width="2" stroke-miterlimit="10" stroke-linecap="round"/>
<path d="M87.7743 64.0613L71.9655 48.2277C70.3312 46.5908 67.6717 46.5907 66.0373 48.2277C64.568 49.6992 64.4415 51.9433 65.5264 53.5458L65.5045 53.656C64.3647 59.3642 61.5899 64.5572 57.4799 68.6736L50.2288 75.936C48.5905 77.5769 48.5903 80.2326 50.2288 81.8735L54.1809 85.8318C55.8191 87.4726 58.4708 87.4727 60.1091 85.8318L61.0972 84.8422L68.0135 91.7693C69.6518 93.4102 72.3032 93.4103 73.9416 91.7693C75.5761 90.1324 75.5761 87.4688 73.9416 85.8319L70.9775 82.8631L71.9656 81.8735C73.6038 80.2328 73.604 77.5771 71.9656 75.9361L71.2941 75.2635C74.5972 72.9473 78.3485 71.3347 82.3545 70.5322L82.466 70.5099C84.1016 71.6159 86.337 71.4381 87.7743 69.9986H87.7744C89.4086 68.3618 89.4086 65.6983 87.7743 64.0613ZM58.1331 83.8526C57.587 84.3994 56.703 84.3995 56.1569 83.8525L52.2049 79.8943C51.6587 79.3472 51.6587 78.4621 52.2049 77.9151L59.1211 70.988L65.0493 76.9255C64.3726 77.6032 58.8264 83.1581 58.1331 83.8526ZM71.9655 87.8109C72.5102 88.3565 72.5102 89.2444 71.9655 89.79C71.4208 90.3356 70.5342 90.3356 69.9894 89.79L63.0731 82.8629L65.0493 80.8838L71.9655 87.8109ZM67.0253 78.9047C67.4454 78.4839 68.0741 77.8395 69.0665 76.9907L69.9894 77.9151C70.5356 78.4621 70.5356 79.3472 69.9894 79.8943L69.0014 80.8839L67.0253 78.9047ZM67.0847 75.0059L61.0376 68.9493C64.2782 65.2015 66.5989 60.7775 67.8405 55.9712L80.0425 68.1923C75.2438 69.4357 70.8267 71.7601 67.0847 75.0059ZM85.798 68.0194C85.2518 68.5662 84.368 68.5662 83.8219 68.0194L68.0133 52.186C67.4672 51.6389 67.4672 50.7538 68.0133 50.2069C68.5594 49.6599 69.4433 49.6599 69.9894 50.2069L85.798 66.0401C86.3427 66.5858 86.3427 67.4736 85.798 68.0194Z" fill="#00AAE7"/>
<path d="M58.0002 77.2866C57.337 76.6232 56.2613 76.6232 55.5979 77.2866L53.1955 79.6889C52.5322 80.3523 52.5322 81.4279 53.1955 82.0913C53.8588 82.7547 54.9346 82.7547 55.5979 82.0913L58.0002 79.6889C58.6636 79.0256 58.6636 77.95 58.0002 77.2866Z" fill="#00AAE7"/>
<path d="M80.2168 40C79.2786 40 78.5181 40.7606 78.5181 41.6988V45.0963C78.5181 46.0345 79.2786 46.795 80.2168 46.795C81.155 46.795 81.9156 46.0345 81.9156 45.0963V41.6988C81.9156 40.7606 81.155 40 80.2168 40Z" fill="#ECECEC"/>
<path d="M93.8067 53.5898H90.4092C89.471 53.5898 88.7104 54.3504 88.7104 55.2886C88.7104 56.2268 89.471 56.9874 90.4092 56.9874H93.8067C94.7449 56.9874 95.5055 56.2268 95.5055 55.2886C95.5055 54.3504 94.7448 53.5898 93.8067 53.5898Z" fill="#ECECEC"/>
<path d="M91.6105 43.895C90.9473 43.2316 89.8715 43.2316 89.2082 43.895L85.8106 47.2925C85.1473 47.9559 85.1473 49.0315 85.8106 49.6949C86.4739 50.3582 87.5496 50.3584 88.213 49.6949L91.6105 46.2973C92.2739 45.634 92.2739 44.5585 91.6105 43.895Z" fill="#ECECEC"/>
</svg>
