<svg width="138" height="138" viewBox="0 0 138 138" fill="none" xmlns="http://www.w3.org/2000/svg">
<path d="M136.235 64.4571C136.319 65.8859 136.403 67.3147 136.403 68.7436C136.403 106.145 106.145 136.403 68.7436 136.403C31.3417 136.403 1 106.061 1 68.6595C1 31.2577 31.2577 1 68.6595 1" stroke="#2B2F2B" stroke-width="2" stroke-miterlimit="10" stroke-linecap="round"/>
<path d="M34.2835 17.8098C35.3762 17.1374 36.3847 16.3809 37.5614 15.7926C66.7265 -1.43747 104.38 8.31223 121.61 37.5613C138.841 66.8104 129.091 104.38 99.8418 121.61C70.5927 138.84 33.0228 129.091 15.7927 99.8417" stroke="#00AAE7" stroke-width="2" stroke-miterlimit="10" stroke-linecap="round"/>
<path d="M119.761 88.9995C119.341 90.0921 118.837 91.1007 118.417 92.1934C105.389 119.677 72.6098 131.444 45.1258 118.417C17.6417 105.389 5.95889 72.6099 18.9025 45.1259C31.846 17.6418 64.7092 5.87497 92.1932 18.9026" stroke="#2B2F2B" stroke-width="2" stroke-miterlimit="10" stroke-linecap="round"/>
<path d="M58.1241 86.0495C60.9139 86.8377 64.5987 87.2718 68.4998 87.2718C72.4008 87.2718 76.0857 86.8378 78.8755 86.0495C82.2886 85.0854 84.0192 83.6897 84.0192 81.9015C84.0192 80.1132 82.2886 78.7176 78.8755 77.7535C77.3158 77.3129 75.4757 76.9836 73.4751 76.7783C77.3928 70.0914 81.2752 62.5199 81.2752 58.7753C81.2752 51.731 75.5442 46 68.4998 46C61.4553 46 55.7244 51.731 55.7244 58.7753C55.7244 62.5198 59.6067 70.0911 63.5244 76.778C61.5238 76.9834 59.6839 77.3128 58.1242 77.7535C54.7111 78.7176 52.9805 80.1133 52.9805 81.9015C52.9804 83.6897 54.711 85.0854 58.1241 86.0495ZM68.4998 48.7486C74.0286 48.7486 78.5266 53.2465 78.5266 58.7753C78.5266 61.6151 75.0128 69.0594 69.1274 78.6888C68.933 79.0069 68.6236 79.0411 68.4997 79.0411C68.3758 79.0411 68.0664 79.0069 67.872 78.6888C61.9866 69.0594 58.4728 61.6152 58.4728 58.7753C58.473 53.2465 62.9709 48.7486 68.4998 48.7486ZM59.3704 80.2645C61.009 79.8472 62.9723 79.5543 65.0886 79.4019C65.2355 79.6442 65.3816 79.8844 65.5268 80.122C66.165 81.1662 67.2764 81.7895 68.4997 81.7895C69.7231 81.7895 70.8343 81.1661 71.4725 80.122C71.6178 79.8843 71.764 79.6441 71.9109 79.4018C74.0272 79.5542 75.9904 79.8472 77.6291 80.2645C80.1409 80.9043 81.0586 81.6245 81.2472 81.9014C81.0585 82.1784 80.141 82.8986 77.6292 83.5383C75.1359 84.1734 71.8936 84.5231 68.4997 84.5231C65.1057 84.5231 61.8634 84.1734 59.3703 83.5383C56.8584 82.8986 55.9409 82.1783 55.7522 81.9014C55.941 81.6245 56.8585 80.9044 59.3704 80.2645Z" fill="#00AAE7"/>
<path d="M91.5725 77.8327C90.7833 77.4112 89.7924 77.6915 89.3591 78.4585C88.9256 79.2257 89.2138 80.1892 90.0028 80.6105C91.9445 81.6476 93.0581 82.7973 93.0581 83.7648C93.0581 84.9482 91.3336 86.7823 86.4933 88.3811C81.7115 89.9608 75.3213 90.8306 68.4998 90.8306C61.6784 90.8306 55.2881 89.9608 50.5063 88.3811C45.6661 86.7824 43.9416 84.9482 43.9416 83.7648C43.9416 82.7973 45.0552 81.6476 46.9968 80.6104C47.7858 80.1891 48.074 79.2256 47.6405 78.4584C47.2071 77.6914 46.2164 77.4111 45.4271 77.8326C43.2623 78.9889 40.6816 80.9567 40.6816 83.7648C40.6816 85.9173 42.2043 88.9863 49.4576 91.3822C54.5683 93.0704 61.331 94.0001 68.4998 94.0001C75.6687 94.0001 82.4313 93.0704 87.542 91.3822C94.7954 88.9863 96.318 85.9173 96.318 83.7648C96.318 80.9567 93.7373 78.9889 91.5725 77.8327Z" fill="#ECECEC"/>
<path d="M73.6347 57.8982C73.6347 55.0669 71.3311 52.7634 68.4997 52.7634C65.6683 52.7634 63.3647 55.0669 63.3647 57.8982C63.3647 60.7296 65.6683 63.0331 68.4997 63.0331C71.3311 63.0331 73.6347 60.7297 73.6347 57.8982ZM66.1133 57.8982C66.1133 56.5825 67.1839 55.512 68.4997 55.512C69.8156 55.512 70.8861 56.5825 70.8861 57.8982C70.8861 59.214 69.8156 60.2845 68.4997 60.2845C67.1839 60.2845 66.1133 59.2141 66.1133 57.8982Z" fill="#00AAE7"/>
</svg>
