<svg width="138" height="138" viewBox="0 0 138 138" fill="none" xmlns="http://www.w3.org/2000/svg">
<path d="M68.6324 47.9398C71.5973 47.9398 74.001 45.5362 74.001 42.5712C74.001 39.6063 71.5973 37.2026 68.6324 37.2026C65.6674 37.2026 63.2638 39.6063 63.2638 42.5712C63.2638 45.5362 65.6673 47.9398 68.6324 47.9398ZM68.6324 39.8869C70.1149 39.8869 71.3167 41.0887 71.3167 42.5712C71.3167 44.0538 70.1149 45.2555 68.6324 45.2555C67.1498 45.2555 65.9481 44.0538 65.9481 42.5712C65.9481 41.0887 67.1498 39.8869 68.6324 39.8869Z" fill="#00AAE7"/>
<path d="M70.5824 48.8105C70.5586 48.8109 70.535 48.8116 70.5114 48.8122H66.7534C62.7151 48.7003 59.3509 51.8834 59.239 55.9216C59.2383 55.9453 59.2378 55.969 59.2373 55.9927V57.0664C59.2373 57.8045 59.9755 58.2072 60.7137 58.2072H76.551C77.2892 58.2072 78.0273 57.8045 78.0273 57.0664V55.9927C77.9546 51.9535 74.6214 48.738 70.5824 48.8105ZM62.0558 55.5228C62.1901 53.5096 64.2704 51.4964 66.7533 51.4964H70.5113C72.9943 51.4964 75.0746 53.5095 75.2087 55.5228H62.0558Z" fill="#00AAE7"/>
<path d="M46.8225 71.2932C47.5638 71.2932 48.1647 70.6923 48.1647 69.9511C48.1604 63.7424 50.9744 57.8675 55.8149 53.9796C56.3459 53.4623 56.3569 52.6126 55.8396 52.0816C55.3897 51.6197 54.6748 51.5432 54.1372 51.8992C48.6567 56.2871 45.4709 62.9304 45.4804 69.9511C45.4804 70.6923 46.0812 71.2932 46.8225 71.2932Z" fill="#ECECEC"/>
<path d="M75.1731 89.3333C75.1626 89.337 75.152 89.3408 75.1416 89.3448C70.939 90.7516 66.3926 90.7516 62.1899 89.3448C61.486 89.1254 60.7369 89.515 60.5123 90.2172C60.2573 90.8736 60.5828 91.6124 61.2391 91.8674C61.265 91.8774 61.291 91.8867 61.3175 91.8949C66.0839 93.5057 71.2476 93.5057 76.0139 91.8949C76.7253 91.6411 77.1101 90.8715 76.8863 90.1501C76.639 89.4516 75.8719 89.0857 75.1731 89.3333Z" fill="#ECECEC"/>
<path d="M80.4432 53.2413C85.879 57.0681 89.1093 63.3033 89.1001 69.951C89.1001 70.6922 89.7009 71.2931 90.4422 71.2931C91.1835 71.2931 91.7843 70.6922 91.7843 69.951C91.7657 62.4309 88.1167 55.3827 81.9866 51.0267C81.3751 50.6005 80.5339 50.7507 80.1076 51.3622C79.6814 51.9737 79.8317 52.8151 80.4432 53.2413Z" fill="#ECECEC"/>
<path d="M48.5002 84.8487C51.4651 84.8487 53.8688 82.4451 53.8688 79.4802C53.8688 76.5152 51.4651 74.1116 48.5002 74.1116C45.5352 74.1116 43.1316 76.5151 43.1316 79.4802C43.1316 82.4452 45.5352 84.8487 48.5002 84.8487ZM48.5002 76.7959C49.9827 76.7959 51.1845 77.9976 51.1845 79.4802C51.1845 80.9627 49.9827 82.1644 48.5002 82.1644C47.0176 82.1644 45.8159 80.9627 45.8159 79.4802C45.8159 77.9976 47.0176 76.7959 48.5002 76.7959Z" fill="#00AAE7"/>
<path d="M50.4502 85.7195C50.4265 85.7199 50.4028 85.7205 50.3792 85.7211H46.6211C42.5828 85.6093 39.2185 88.7923 39.1067 92.8306C39.106 92.8542 39.1055 92.878 39.105 92.9016V93.9753C39.105 94.7135 39.8432 95.1162 40.5814 95.1162H56.4187C57.1568 95.1162 57.895 94.7135 57.895 93.9753V92.9016C57.8226 88.8624 54.4894 85.6469 50.4502 85.7195ZM41.9236 92.4317C42.0579 90.4186 44.1382 88.4053 46.6211 88.4053H50.3791C52.8621 88.4053 54.9424 90.4185 55.0765 92.4317H41.9236Z" fill="#00AAE7"/>
<path d="M83.3958 79.4802C83.3958 82.4451 85.7994 84.8487 88.7643 84.8487C91.7293 84.8487 94.1329 82.4451 94.1329 79.4802C94.1329 76.5152 91.7293 74.1116 88.7643 74.1116C85.7994 74.1116 83.3958 76.5151 83.3958 79.4802ZM91.4486 79.4802C91.4486 80.9627 90.2469 82.1644 88.7643 82.1644C87.2818 82.1644 86.08 80.9627 86.08 79.4802C86.08 77.9976 87.2818 76.7959 88.7643 76.7959C90.2469 76.7959 91.4486 77.9976 91.4486 79.4802Z" fill="#00AAE7"/>
<path d="M90.7145 85.7195C90.6907 85.7199 90.6671 85.7205 90.6435 85.7211H86.8855C82.8472 85.6093 79.4829 88.7923 79.3711 92.8306C79.3704 92.8542 79.3699 92.878 79.3694 92.9016V93.9753C79.3694 94.7135 80.1076 95.1162 80.8458 95.1162H96.6831C97.4212 95.1162 98.1594 94.7135 98.1594 93.9753V92.9016C98.0869 88.8624 94.7537 85.6469 90.7145 85.7195ZM82.1879 92.4317C82.3221 90.4186 84.4025 88.4053 86.8854 88.4053H90.6433C93.1263 88.4053 95.2067 90.4185 95.3408 92.4317H82.1879Z" fill="#00AAE7"/>
<path d="M136.235 64.4571C136.319 65.8859 136.403 67.3147 136.403 68.7436C136.403 106.145 106.145 136.403 68.7436 136.403C31.3417 136.403 1 106.061 1 68.6595C1 31.2577 31.2577 1 68.6595 1" stroke="#2B2F2B" stroke-width="2" stroke-miterlimit="10" stroke-linecap="round"/>
<path d="M34.2834 17.8098C35.376 17.1374 36.3846 16.3809 37.5613 15.7926C66.7263 -1.43747 104.38 8.31223 121.61 37.5613C138.84 66.8104 129.091 104.38 99.8417 121.61C70.5926 138.84 33.0227 129.091 15.7926 99.8417" stroke="#00AAE7" stroke-width="2" stroke-miterlimit="10" stroke-linecap="round"/>
<path d="M119.761 88.9995C119.341 90.0921 118.837 91.1007 118.417 92.1934C105.389 119.677 72.6098 131.444 45.1258 118.417C17.6417 105.389 5.95889 72.6099 18.9025 45.1259C31.846 17.6418 64.7092 5.87497 92.1932 18.9026" stroke="#2B2F2B" stroke-width="2" stroke-miterlimit="10" stroke-linecap="round"/>
</svg>
