<svg width="306" height="75" viewBox="0 0 306 75" fill="none" xmlns="http://www.w3.org/2000/svg">
<path d="M44.4708 68.3458C44.4708 68.5474 44.6624 68.6483 44.8541 68.7491C45.0458 68.8499 45.2375 69.0515 45.0458 69.2532C44.8541 69.5556 44.4708 69.8581 44.0874 69.9589C43.5123 70.1606 42.7456 70.2614 42.1705 70.463C41.4038 70.7655 40.6371 70.5639 39.8703 70.3622L39.6786 70.2614C39.6786 70.1606 39.6786 69.9589 39.8703 69.9589C40.4454 69.6565 41.0204 69.4548 41.7872 69.1524C41.9789 69.0515 41.9789 68.9507 41.9789 68.8499C41.9789 68.7491 41.7872 68.5474 41.7872 68.5474C41.2121 68.7491 40.6371 68.5474 40.062 68.8499C39.8703 68.9507 39.6786 69.1524 39.487 69.1524C38.7202 69.1524 38.7202 69.6565 38.5285 69.9589C38.3369 69.9589 38.1452 69.9589 37.9535 70.0598C37.3784 70.2614 36.8034 70.1606 36.2283 69.7573C36.0366 69.5556 35.845 69.2532 35.4616 68.9507C35.2699 68.7491 35.0782 68.7491 34.8865 68.8499C34.6949 68.8499 34.5032 68.9507 34.3115 68.9507C32.3946 68.5474 30.6695 67.5392 29.3277 66.4302C29.136 66.3294 29.136 66.2286 29.136 66.1277C28.7526 65.1195 27.6025 64.9179 26.4524 64.7162C25.6857 64.6154 24.919 64.6154 24.1522 64.5146C23.9605 64.5146 23.7688 64.313 23.7688 64.1113C23.7688 63.9097 23.7688 63.708 24.1522 63.6072C24.919 63.5064 25.6857 63.5064 26.4524 63.4056C26.8358 63.4056 27.0275 63.1031 27.0275 62.8006C27.2192 62.2965 27.0275 61.7924 26.4524 61.49C26.0691 61.1875 26.0691 60.8851 25.8774 60.4818C25.8774 59.5744 25.8774 58.667 25.8774 57.6588C25.8774 57.4571 25.494 57.1547 25.3023 57.1547C24.3439 57.1547 23.1938 57.1547 22.2354 57.0539C22.6187 57.0539 23.1938 57.0539 23.5772 57.0539C23.9605 57.0539 24.5356 57.0539 24.919 57.0539C25.3023 57.0539 25.6857 56.953 25.8774 56.8522C26.0691 56.7514 26.2607 56.6506 26.2607 56.3481C26.2607 56.0457 26.0691 55.7432 25.8774 55.7432C25.3023 55.6424 24.7273 55.5415 24.1522 55.5415C21.0853 55.5415 18.0183 55.5415 14.9514 55.5415C13.0345 55.5415 11.1177 55.5415 9.20085 55.5415C8.05074 55.5415 7.09232 55.2391 6.32558 54.8358C5.94221 54.6342 5.75053 54.3317 5.55884 54.1301C5.36716 53.9284 5.55884 53.5251 5.75053 53.4243C6.1339 53.2227 6.51726 53.1218 6.90063 52.9202C7.47569 52.5169 8.05074 52.4161 8.81748 52.7186L9.20085 52.6177C9.39253 52.4161 9.39253 52.2145 9.58421 52.1136C10.1593 51.912 10.5426 51.6095 11.1177 51.4079C11.3094 50.7021 10.926 50.2989 10.1593 50.0972C9.20084 49.8956 8.24242 49.6939 7.284 49.5931C6.70895 49.4923 6.51726 49.3915 6.32558 49.089C6.32558 48.9882 5.94221 48.8874 5.75053 48.7865C5.55884 48.6857 5.36716 48.6857 4.98379 48.6857C5.17547 48.3833 5.36716 48.2824 5.75053 48.1816C5.55884 48.0808 5.55884 47.98 5.36716 47.98C4.79211 47.8792 4.40874 47.6775 4.40874 47.1734C4.40874 46.9718 4.21705 46.7701 4.21705 46.5685C4.60042 46.0644 4.79211 45.6611 4.40874 45.0562C4.02537 44.7537 4.02537 44.3504 3.83368 43.9471C3.06695 43.0398 2.87526 41.9307 2.4919 40.9225C2.10853 40.116 2.10853 39.2086 2.87526 38.402C3.25863 38.0995 3.06695 37.7971 3.06695 37.4946C3.06695 36.8897 3.45032 36.4864 4.21705 36.2848L4.21705 36.1839C4.21705 36.3856 4.40874 36.4864 4.60042 36.3856L4.79211 36.1839L4.79211 36.2848C4.98379 36.0831 4.98379 35.9823 4.79211 35.7807C4.79211 35.6798 4.79211 35.4782 4.79211 35.3774C4.79211 35.0749 4.79211 34.8733 5.17548 34.7724C5.75053 34.5708 6.32558 34.47 6.90063 34.3692C7.47569 34.2683 7.66737 33.8651 7.47569 33.6634C6.90063 32.756 6.51726 31.7478 5.55884 31.0421C4.21705 30.0339 3.25863 28.7232 2.30021 27.4125C1.34179 26.2027 0.766737 24.892 0.191684 23.4805C-2.44215e-07 23.0772 -2.37813e-07 22.4723 -2.31411e-07 21.8674C0.191684 21.0608 0.575053 20.3551 0.191684 19.4477C0.191684 19.246 0.191684 19.0444 0.383368 18.8428C1.34179 17.7337 2.30021 16.6247 2.87526 15.314C2.87526 15.2132 3.06695 15.1124 3.25863 15.1124C3.83369 15.2132 4.21705 15.1124 4.79211 15.1124C7.85906 15.1124 10.926 15.2132 13.993 15.2132C14.7597 15.2132 15.5264 15.2132 16.2932 15.2132C16.6765 15.2132 16.8682 14.9107 16.8682 14.6083C16.8682 14.5075 16.8682 14.5075 16.8682 14.4066C16.6765 13.7009 16.6765 12.9951 17.4433 12.491C17.4433 12.1886 17.8266 11.8861 17.8266 11.5837C17.8266 11.382 17.635 11.0795 17.4433 10.7771C17.2516 10.7771 17.0599 10.6763 16.6765 10.6763C13.4179 10.4746 10.1593 10.6763 6.90063 10.5754C5.75053 10.5754 4.60042 10.5754 3.45032 10.5754C2.87526 10.5754 2.30021 10.4746 1.72516 10.273C0.958421 10.0713 0.575053 9.76888 0.575053 9.06313C0.575053 8.96231 0.383368 8.76067 -9.05758e-08 8.55902C3.25863 8.55902 6.32558 8.55902 9.39253 8.55902C10.1593 8.55902 10.7343 8.55902 11.5011 8.55902C12.4595 8.55902 13.2262 8.35738 13.6096 7.55082C13.8013 7.34917 13.993 7.34917 14.1846 7.24835C14.3763 7.24835 14.3763 7.04671 14.568 7.04671C14.7597 7.14753 14.568 7.04671 14.568 6.94589C14.568 6.94589 14.568 6.84507 14.568 6.74425C15.3347 6.44179 16.1015 6.64343 16.8682 6.54261C17.0599 6.54261 17.0599 6.34097 17.2516 6.24014C17.2516 6.13932 17.2516 5.93768 17.0599 5.93768L16.8682 5.83686L16.6765 5.73604C13.993 5.73604 11.8844 5.23194 9.58421 4.92947C8.81748 4.82865 8.05074 4.82865 7.284 4.82865C6.1339 4.72783 4.98379 4.72783 3.83369 4.62701C3.25863 4.62701 2.87526 4.42537 2.68358 3.92127C3.45032 3.71962 4.21705 3.82044 4.98379 3.82044C8.62579 3.82044 12.2678 3.82044 15.7181 3.82044C16.4848 3.82044 17.0599 3.82044 17.8266 3.82044C18.4017 3.82044 18.7851 3.6188 19.1684 3.31634C19.5518 2.81224 20.3185 2.71142 20.8936 2.40895C21.852 2.50977 23.0021 2.00567 23.9605 2.40895C24.5356 2.61059 24.919 2.61059 25.494 2.61059C26.2607 2.61059 26.8358 2.71142 27.6025 2.71142C33.9281 2.71142 40.2537 2.81224 46.5793 2.71142C50.2213 2.61059 53.8633 2.81224 57.3136 2.50977C57.8886 2.50977 58.4637 2.61059 59.0388 2.91306C59.4221 3.1147 59.8055 3.21552 60.3805 3.1147C61.339 2.91306 62.4891 2.81224 63.4475 3.1147C67.4729 3.31634 71.4982 3.71962 75.5236 3.1147C77.0571 2.91306 78.3989 2.91306 79.9324 3.21552C81.0825 3.41716 82.4242 3.41716 83.5743 3.41716C87.0247 3.41716 90.6667 3.31634 94.117 3.31634C95.2671 3.31634 96.6089 3.31634 97.759 3.31634C100.251 3.31634 102.743 3.31634 105.043 3.21552C107.343 3.1147 109.452 3.1147 111.56 3.01388C113.669 3.01388 115.969 3.01388 118.078 3.01388C119.228 3.01388 120.569 2.91306 121.72 2.61059C123.061 2.30813 124.403 2.00567 125.745 2.61059C125.937 2.71141 126.128 2.61059 126.32 2.61059C127.087 2.20731 128.045 2.30813 128.812 2.30813C131.879 2.30813 134.946 2.30813 138.013 2.30813C139.546 2.30813 141.08 2.30813 142.805 2.30813C143.38 2.30813 143.572 2.50977 143.955 2.71142C143.955 2.81224 144.338 2.81224 144.338 2.81224C144.722 2.71142 144.913 2.71142 145.297 2.81224C145.872 2.91306 146.255 2.81224 146.83 2.61059C147.597 2.30813 148.172 2.40895 148.747 2.61059C148.939 2.71141 149.322 2.71142 149.514 2.71142C149.897 2.50977 150.089 2.81224 150.28 3.01388C150.472 3.21552 150.856 3.21552 151.239 3.01388C151.239 2.91306 151.431 2.81224 151.431 2.61059C151.622 2.40895 151.814 2.40895 152.006 2.40895C152.197 2.40895 152.581 2.50977 152.772 2.61059L152.772 2.50977C153.156 2.71142 153.156 2.71142 153.347 2.50977C154.114 2.30813 154.881 2.10649 155.648 2.20731C156.606 2.30813 157.756 2.10649 158.715 2.50977C159.098 2.61059 159.673 2.61059 160.056 2.50977C161.015 2.20731 162.165 2.20731 163.123 2.20731C164.082 2.20731 165.04 2.30813 165.999 2.20731C166.957 2.10649 167.915 2.30813 168.874 2.20731C169.641 2.10649 170.407 2.10649 171.174 2.40895C171.366 2.50977 171.557 2.50977 171.749 2.50977C173.474 2.20731 175.008 2.50977 176.733 2.30813C177.116 2.20731 177.5 2.20731 177.691 2.40895C178.075 2.61059 178.458 2.71142 178.841 2.40895C179.033 2.30813 179.608 2.40895 179.8 2.30813C180.375 2.20731 180.95 2.50977 181.525 2.61059C182.1 2.71141 182.675 2.40895 183.25 2.40895C183.442 2.40895 183.825 2.40895 184.017 2.50977C184.975 2.71142 184.975 2.71141 185.742 2.00567C185.359 1.90485 185.167 1.70321 184.784 1.70321C183.825 1.60239 182.867 1.50156 181.908 1.50156C175.583 1.50156 169.257 1.50156 162.932 1.50156C155.264 1.50156 147.405 1.50156 139.738 1.50156C132.454 1.50156 125.362 1.50156 118.078 1.50156C115.969 1.50156 113.86 1.50156 111.752 1.70321C110.027 1.80403 108.493 1.90485 106.768 1.90485C105.235 1.90485 103.701 1.90485 101.976 2.00567C101.401 2.00567 100.634 2.00567 100.059 2.20731C98.9091 2.50977 97.5673 2.40895 96.4172 2.40895C96.0338 2.40895 95.6504 2.30813 95.4588 2.00567C95.2671 1.70321 95.0754 1.60239 94.692 1.60239C93.7336 1.60239 92.9669 1.70321 92.0085 1.70321C90.2833 1.80403 88.5581 1.80403 86.833 1.50156C85.1078 1.1991 83.5743 1.40074 81.8492 1.29992C81.4658 1.29992 81.2741 1.40074 80.8908 1.1991C81.8492 1.1991 82.8076 1.1991 83.766 1.1991C85.6829 1.09828 87.0247 0.99746 88.1748 0.99746C89.8999 0.896639 91.4334 0.795818 93.1586 0.694998C94.3087 0.594177 95.6505 0.694998 96.8006 0.896639C98.334 0.99746 100.059 0.99746 101.593 0.896639C101.784 0.896639 101.976 0.795818 101.976 0.694998C102.168 0.493356 102.551 0.392535 102.934 0.392535C105.426 0.392535 107.918 0.392535 110.218 0.291714C110.41 0.291714 110.794 0.392535 111.369 0.392535C110.41 0.493356 109.643 0.493356 109.068 0.594177C107.343 0.594177 105.618 0.594177 103.893 0.594177C103.701 0.594177 103.51 0.694998 103.51 0.795819C103.701 0.896639 103.701 0.99746 103.893 0.99746C104.851 0.99746 106.001 0.99746 106.96 0.99746C114.244 1.09828 121.528 1.09828 128.812 1.09828C135.712 1.09828 142.421 1.09828 149.322 1.09828C155.648 1.09828 162.165 1.09828 168.49 1.09828C173.091 1.09828 177.691 1.09828 182.1 1.09828C182.292 1.09828 182.675 1.09828 182.867 1.09828C183.25 1.09828 183.442 0.896639 183.634 0.594177C183.634 0.493356 183.825 0.392535 183.825 0.291714L184.017 0.190893C186.317 -0.0107484 188.809 -0.111569 191.109 0.190893C191.301 0.190893 191.493 0.291714 191.301 0.493356C191.301 0.594177 191.109 0.594177 191.109 0.594177L190.918 0.694998L190.726 0.795819C190.726 0.795819 190.726 0.896639 190.918 0.896639C191.684 0.99746 192.068 0.99746 192.451 0.99746C195.326 0.99746 198.01 0.99746 200.885 0.99746C205.294 0.99746 209.894 0.896639 214.303 0.896639C216.795 0.896639 219.287 0.896639 221.587 0.896639C223.312 0.896639 224.846 0.99746 226.571 0.795819C227.338 0.694998 227.913 0.795819 228.679 0.896639C229.063 0.896639 229.254 0.694998 229.446 0.493356C229.446 0.392535 229.638 0.291714 229.829 0.190893C230.596 0.190893 231.363 0.190893 232.13 0.190893C232.321 0.795819 232.321 0.896639 232.896 0.795819C233.28 0.795819 233.663 0.694998 233.855 0.694998C234.238 0.694998 234.813 0.694998 235.197 0.795819C235.388 0.795819 235.58 0.99746 235.772 1.09828C235.772 1.1991 235.772 1.29992 235.772 1.50156C235.772 1.70321 235.772 1.90485 235.963 2.00567C236.347 2.10649 236.73 2.30813 237.113 2.40895C237.88 2.50977 238.839 2.61059 239.797 2.71142C240.372 2.71142 240.947 2.81224 241.522 3.1147C241.714 3.21552 242.097 3.21552 242.289 3.21552C242.481 3.21552 242.864 3.1147 243.056 3.1147C243.247 3.21552 243.439 3.21552 243.631 3.31634C244.781 4.12291 246.123 4.42537 247.656 4.52619C248.231 4.52619 248.806 4.62701 249.381 4.82865C250.531 4.82865 251.681 4.92947 252.64 4.92947C252.832 5.13112 252.832 5.23194 252.64 5.23194C251.873 5.33276 250.915 5.5344 250.148 5.5344C249.573 5.5344 249.19 5.63522 248.806 5.93768C249.19 6.13932 249.573 6.34097 249.765 6.54261C250.148 6.84507 250.723 7.04671 251.49 7.04671C252.257 7.04671 253.023 7.04671 253.79 7.04671C254.173 7.04671 254.365 7.14753 254.557 7.45C254.748 7.65164 254.748 7.9541 254.94 8.15574C255.132 8.4582 255.323 8.55902 255.707 8.55902C256.282 8.65985 256.665 8.76067 257.24 8.65985C258.774 8.55903 260.116 8.76067 261.649 8.65985C263.182 8.55903 264.524 8.65985 266.058 8.65985C266.058 8.65985 266.249 8.65985 266.441 8.55902C266.249 7.9541 265.866 7.55082 265.099 7.34917C264.333 7.14753 263.566 7.04671 262.799 6.84507C262.416 6.74425 262.224 6.54261 262.224 6.34097C263.758 6.13932 265.099 6.13932 266.633 6.74425C268.358 6.94589 269.891 7.34917 271.425 7.65164C272 7.75246 272.383 7.85328 272.958 8.05492C273.725 8.4582 274.3 8.55902 275.259 8.4582C276.025 8.35738 276.792 8.55902 277.559 8.86149C278.709 9.36559 279.859 9.56723 281.009 9.56723C281.201 9.56723 281.393 9.56723 281.776 9.66805C281.393 9.8697 281.009 9.97052 280.817 10.0713C280.817 10.1722 280.626 10.3738 280.817 10.3738C281.009 10.4746 281.201 10.6763 281.393 10.7771C281.776 10.8779 281.968 10.9787 282.351 11.1804C282.543 11.2812 282.734 11.4828 282.734 11.6845C282.734 11.7853 282.543 11.8861 282.351 11.8861L282.159 11.9869C281.968 12.0878 281.968 12.3902 282.159 12.491C282.734 12.6927 283.309 12.8943 283.884 12.8943C284.843 12.8943 285.61 12.8943 286.568 12.7935C287.143 12.7935 287.718 12.8943 288.293 12.9951C288.485 12.9951 288.677 13.096 288.677 13.1968C288.868 13.3984 289.06 13.9025 288.868 14.1042C288.677 14.3058 288.293 14.4066 287.91 14.3058C287.526 14.205 286.951 14.1042 286.76 13.9025C285.993 13.2976 285.035 13.096 283.884 13.1968C283.309 13.1968 282.926 13.2976 282.351 13.2976L282.159 13.3984C282.159 13.4992 282.159 13.7009 282.351 13.7009C282.734 13.9025 283.309 14.0034 283.884 14.205C284.268 14.3058 284.459 14.6083 284.651 14.9107C285.226 15.9189 285.418 16.1206 286.376 16.4231C287.143 16.6247 287.91 16.5239 288.677 16.5239C289.635 17.1288 290.402 17.6329 291.36 18.137C291.168 18.4395 291.552 18.7419 291.36 19.0444C290.977 19.3469 291.168 19.4477 291.552 19.6493C291.743 19.6493 291.743 19.851 291.935 19.9518C291.935 20.0526 291.743 20.3551 291.36 20.3551C290.977 20.3551 290.593 20.3551 290.402 20.3551C290.21 20.3551 289.827 20.4559 289.635 20.4559C289.635 20.4559 289.443 20.5567 289.443 20.6575C289.635 20.96 289.635 21.0608 289.252 21.3633C289.06 21.6657 289.443 21.8674 289.635 22.069C289.443 22.069 289.252 21.9682 289.06 21.9682C288.293 22.069 287.718 22.5731 287.143 22.8756L287.143 23.0772C287.718 23.2789 287.526 23.5813 287.526 23.8838C287.526 23.8838 287.718 23.8838 287.718 23.9846C288.293 24.1863 288.677 24.1863 289.252 23.9846C289.252 23.8838 289.443 23.783 289.443 23.5813C289.443 23.0772 289.635 22.5731 289.635 22.069C290.018 22.1698 290.21 22.3715 290.593 22.4723C291.36 22.8756 291.552 23.1781 291.168 23.9846C291.168 24.0854 290.977 24.2871 290.977 24.3879C290.977 24.5895 290.977 24.7912 291.168 24.892C291.743 25.0936 291.935 25.4969 291.935 25.9002C292.127 26.7068 292.51 27.4125 292.702 28.2191C292.51 28.4207 292.319 28.6224 292.127 28.824C291.935 29.1265 291.935 29.4289 292.51 29.6306C292.702 29.7314 292.894 29.8322 292.702 30.0339C292.702 30.1347 292.51 30.1347 292.702 30.2355C293.085 30.6388 293.277 31.0421 294.044 31.1429C294.81 31.2437 295.577 31.2437 296.344 31.3445C297.111 31.3445 297.686 31.2437 298.452 31.5462C297.494 31.8486 296.344 31.5462 295.385 31.7478L295.194 31.8486L295.194 31.9495C295.385 32.0503 295.577 32.0503 295.577 32.0503C296.344 32.1511 297.302 32.1511 298.261 32.1511C297.302 32.2519 296.344 32.3527 295.577 32.5544C294.81 32.756 294.044 32.6552 293.277 32.6552C292.894 32.6552 292.702 32.9577 292.702 33.1593C292.702 33.361 292.894 33.7642 293.277 33.7642C293.66 33.8651 294.235 33.9659 294.619 33.8651C295.577 33.6634 296.536 34.0667 297.494 34.2683C298.069 34.6716 299.027 34.8733 299.603 35.4782C299.986 35.8815 300.561 36.0831 301.136 36.0831C301.519 36.0831 301.903 36.1839 302.094 36.1839C302.286 36.4864 302.094 36.7889 302.094 37.0913C301.711 37.3938 300.944 37.293 300.561 37.6963C300.944 37.9987 301.328 37.7971 301.711 37.9987C301.903 38.0995 301.903 38.2004 301.903 38.3012C301.903 38.3012 301.903 38.402 301.711 38.402C301.519 38.5028 301.136 38.5028 300.944 38.6036C300.753 38.7045 300.753 38.8053 300.753 38.9061C300.753 39.1077 301.328 39.1077 301.136 39.511C300.944 39.9143 301.519 39.9143 301.711 40.116C301.903 40.4184 302.286 40.7209 302.286 41.0233C302.669 42.2332 303.053 43.3422 304.011 44.3504C304.203 44.5521 304.203 44.7537 304.395 44.8545C304.778 45.3586 304.97 45.9636 304.778 46.5685C304.586 47.0726 304.778 47.4759 305.353 47.7783C305.928 48.0808 306.12 48.5849 305.928 48.9882C305.545 49.6939 305.736 50.3997 305.353 51.1054C304.97 51.7104 304.97 52.4161 304.778 53.021C304.778 53.2227 304.586 53.4243 304.395 53.5251C303.436 53.7268 303.245 54.3317 303.053 54.9366C303.053 54.9366 302.669 55.0374 302.669 54.9366C302.286 54.5333 302.094 54.1301 301.711 53.7268C301.519 53.4243 301.519 53.4243 300.944 53.6259C300.753 53.7268 300.561 53.7268 300.561 53.7268C299.986 53.021 298.836 53.2227 298.069 52.9202C296.727 52.4161 295.385 52.4161 294.044 52.6177C292.894 52.8194 291.743 52.9202 290.593 53.021C290.21 53.021 290.018 53.1218 289.635 53.2227C289.06 54.1301 288.485 54.9366 287.526 55.5415C287.143 55.844 286.951 56.2473 286.951 56.6506C287.143 57.558 286.951 58.3645 286.568 59.1711C286.376 59.9777 286.568 60.7842 287.526 61.2883C288.101 61.49 288.293 61.7924 288.293 62.1957C288.293 62.4982 288.293 62.9015 288.485 63.2039C288.677 63.6072 288.485 63.8089 288.293 64.1113C288.101 64.2121 288.101 64.4138 287.91 64.6154C287.526 64.8171 287.143 64.6154 286.951 64.6154C285.993 64.4138 285.226 64.6154 284.459 65.1195C284.076 65.422 283.501 65.8253 283.118 66.1277C282.926 66.2286 282.734 66.531 282.926 66.6318C283.118 67.2368 282.734 67.6401 282.351 68.1442C282.159 68.5474 281.584 68.6483 281.009 68.5474C280.434 68.4466 280.051 68.245 279.667 68.0433C278.709 67.5392 277.559 67.0351 276.409 66.7327C275.642 66.531 274.875 66.3294 274.109 66.3294C271.233 66.2286 268.358 66.1277 265.483 66.3294C265.099 66.3294 264.524 66.4302 264.333 66.7327C264.141 67.0351 263.758 67.2368 263.183 67.2368C261.457 67.2368 259.924 67.2368 258.199 67.3376C257.432 67.3376 256.665 67.2368 255.899 67.4384C255.515 67.5392 255.323 67.7409 255.132 67.9425C254.94 68.4466 254.94 68.9507 255.132 69.354C255.515 69.8581 255.132 70.2614 255.132 70.7655C254.557 71.8745 254.557 72.9836 254.557 74.0926C254.557 74.5967 254.173 75 253.407 75H253.215C250.915 75 248.615 75 246.314 75C244.972 75 243.822 74.7983 242.864 74.1934C242.481 73.9918 242.097 73.7901 241.714 73.6893C241.139 73.4877 240.372 73.286 239.797 72.9836C239.222 72.6811 238.839 72.2778 238.264 71.9753C237.689 71.5721 237.113 71.3704 236.347 71.3704C234.238 71.3704 232.321 71.3704 230.213 71.2696C228.104 71.2696 225.804 71.2696 223.696 71.2696C222.354 71.2696 221.012 71.2696 219.862 71.6729C219.287 71.8745 218.52 71.8745 217.753 71.8745C216.603 71.8745 215.261 71.8745 214.111 71.8745C212.578 71.7737 211.044 71.8745 209.319 71.8745C207.977 71.8745 206.444 71.8745 205.102 71.8745C201.46 71.8745 197.818 71.7737 193.984 71.7737C192.451 71.7737 190.918 71.8745 189.192 71.8745C188.426 71.8745 187.659 71.8745 186.892 71.8745C185.359 71.8745 183.825 71.7737 182.483 71.8745C181.908 71.8745 181.333 71.9754 180.95 71.8745C178.075 71.7737 175.391 71.8745 172.516 71.8745C170.216 71.8745 167.724 71.8745 165.424 71.8745C163.698 71.8745 162.165 71.8745 160.44 71.8745C157.948 71.7737 155.456 71.7737 152.772 71.7737C152.006 71.7737 151.431 71.7737 150.664 71.7737C149.705 71.7737 148.939 71.7737 147.98 71.6729C146.638 71.5721 145.297 71.4712 144.147 71.4712C142.23 71.4712 140.505 71.5721 138.588 71.4712C133.987 71.4712 129.387 71.3704 124.978 71.3704C123.828 71.3704 122.678 71.3704 121.528 71.3704C121.72 71.1688 121.911 71.068 122.295 70.9671C122.295 70.8663 122.295 70.7655 121.911 70.7655C120.953 70.7655 120.186 70.6647 119.228 70.6647C116.544 70.6647 114.052 70.6647 111.369 70.5639C108.685 70.463 106.193 70.5639 103.51 70.5639C101.593 70.5639 99.8675 70.5639 97.9507 70.463C97.3756 70.463 96.9922 70.463 96.4172 70.6647C95.4588 70.9671 94.5003 70.9671 93.5419 70.7655C92.7752 70.6647 92.2001 70.5639 91.4334 70.463C90.6667 70.3622 89.8999 70.5639 89.3249 69.9589C88.9415 69.9589 88.5581 69.8581 88.3664 69.8581C87.9831 69.8581 87.5997 69.9589 87.408 70.0598C86.6413 70.1606 86.0662 70.2614 85.2995 70.3622C84.9161 70.3622 84.3411 70.3622 84.1494 70.1606C83.9577 70.0598 84.5328 69.8581 85.2995 69.8581C85.4912 69.8581 85.6829 69.8581 85.8745 69.8581C85.8745 69.8581 86.0662 69.8581 86.0662 69.7573C86.2579 69.6565 86.0662 69.5556 85.8745 69.5556C85.2995 69.5556 84.7244 69.5556 83.9577 69.5556C83.766 69.5556 83.3827 69.6565 83.191 69.7573C82.8076 70.0597 82.6159 70.1606 82.0409 69.9589C81.6575 69.8581 81.2741 69.8581 81.0824 69.8581C79.1656 69.8581 77.4404 69.8581 75.5236 69.9589C75.1402 69.9589 74.9485 70.1606 74.7569 70.3622C74.5652 70.6647 74.3735 70.5639 73.9901 70.2614C73.6068 69.9589 73.6068 69.9589 72.84 70.1606L72.6483 70.2614C72.4567 69.9589 72.265 69.9589 71.8816 69.9589C71.6899 69.9589 71.6899 70.0598 71.4982 70.1606L71.6899 70.2614C72.0733 70.3622 72.265 70.3622 72.6483 70.2614C71.6899 70.5639 70.5398 70.6647 69.5814 70.5639C69.3897 70.5639 69.198 70.3622 69.0063 70.3622C69.198 70.3622 69.5814 70.3622 69.7731 70.3622L69.9648 70.2614C69.9648 70.1606 69.7731 70.0598 69.5814 70.0598C69.3897 70.0598 69.198 70.1606 69.0063 70.3622C68.623 70.3622 68.2396 70.2614 68.0479 70.2614C66.5144 70.2614 64.981 70.0598 63.4475 69.8581C63.2558 69.8581 63.0641 69.7573 63.0641 69.6565C63.0641 69.5556 63.2558 69.5557 63.4475 69.4548L63.4475 69.354C61.5307 69.2532 59.8055 69.2532 57.8887 69.1524C57.5053 69.1524 57.1219 69.0516 56.5469 68.9507C54.8217 68.7491 53.0965 68.4466 51.3714 68.6483C50.6046 68.7491 50.2213 68.5474 50.0296 68.0433C49.8379 67.7409 49.4545 67.5392 48.8795 67.5392C47.7294 67.5392 46.3876 67.5392 45.4292 68.1442C44.8541 68.3458 44.6624 68.3458 44.4708 68.3458C44.2791 68.3458 44.2791 68.245 44.0874 68.1442C44.0874 68.1442 43.8957 68.1441 43.8957 68.245C43.8957 68.4466 44.2791 68.3458 44.4708 68.3458ZM278.709 10.6763C278.709 10.5754 278.517 10.4746 278.517 10.3738C278.517 10.3738 278.326 10.3738 278.134 10.3738C278.134 10.4746 278.326 10.5754 278.326 10.5754C278.517 10.6763 278.709 10.5754 278.709 10.6763ZM259.349 11.382C259.732 11.382 260.307 11.382 260.499 11.8861C260.499 12.0878 260.691 12.1886 260.882 12.3902C261.457 12.7935 262.607 12.5919 262.799 12.0878C262.991 11.8861 262.991 11.5837 263.183 11.382C263.374 10.9787 262.991 10.3738 262.416 10.3738C261.457 10.273 260.307 10.1722 259.349 10.3738C258.774 10.4746 258.582 10.7771 258.965 11.2812C259.157 11.1804 259.349 11.2812 259.349 11.382ZM63.8309 67.0351C64.0225 67.3376 64.4059 67.5392 64.5976 67.8417C64.7893 67.9425 65.1727 67.9425 65.1727 67.7409C65.3643 67.3376 65.556 67.2368 66.1311 67.2368C66.7061 67.3376 67.0895 67.4384 67.6646 67.4384C67.8562 67.4384 68.2396 67.2368 68.2396 67.1359C68.2396 67.0351 68.0479 66.8335 68.0479 66.8335C66.8978 66.7327 65.7477 66.6318 64.7893 66.8335C64.2142 66.8335 64.0225 67.0351 63.8309 67.0351C63.6392 67.0351 63.2558 66.7327 62.8724 66.8335C61.914 66.9343 60.9556 66.8335 59.9972 66.7327C59.0388 66.6318 57.8886 66.531 56.9302 66.7327C56.7385 66.7327 56.5469 66.9343 56.5469 67.0351C56.5469 67.5392 56.9302 68.0433 57.5053 68.1442C57.8887 68.245 58.272 68.245 58.4637 68.3458C59.6138 68.3458 60.9556 68.3458 62.1057 68.3458C62.4891 68.3458 62.6808 68.1442 63.0641 67.9425C63.4475 67.6401 63.6392 67.3376 63.8309 67.0351ZM266.633 11.8861C266.441 11.8861 266.441 11.8861 266.249 11.8861C266.058 11.382 265.674 10.8779 265.291 10.4746C265.291 10.3738 265.099 10.3738 265.099 10.3738C264.908 10.3738 264.716 10.273 264.716 10.3738C264.524 10.4746 264.524 10.5754 264.524 10.6763C264.716 11.2812 265.483 11.382 265.674 11.8861C265.483 11.8861 265.291 11.8861 265.099 11.9869C264.716 12.0878 264.716 12.0878 264.908 12.3902C264.908 12.491 265.099 12.5919 265.099 12.6927C264.908 12.6927 264.908 12.7935 264.716 12.7935C264.908 12.6927 264.908 12.6927 265.099 12.5919C265.674 12.5919 266.249 12.5919 266.824 12.5919C267.975 13.096 269.125 12.9951 270.467 12.9951C271.233 12.9951 272 13.096 272.767 12.6927C273.15 12.3902 273.15 11.7853 273.342 11.382C273.533 11.1804 273.533 10.9787 273.533 10.7771C273.725 10.4746 273.533 10.1722 273.342 9.8697C273.15 9.36559 273.15 9.36559 272.767 9.46641C272.383 9.46641 272.192 9.66805 271.808 9.66805C271.425 9.66805 271.042 9.46641 270.658 9.46641C268.55 9.26477 266.249 9.36559 264.141 9.46641L263.949 9.56723C264.141 9.66805 264.141 9.76888 264.333 9.76888C265.099 9.76888 266.058 9.8697 267.016 9.8697C266.825 10.1722 266.249 10.1722 266.441 10.6763C266.441 11.0795 266.441 11.4828 266.633 11.8861ZM199.16 3.01388C199.16 2.71141 199.352 2.50977 199.735 2.50977C202.419 2.50977 204.911 2.40895 207.594 2.40895C207.977 2.40895 208.552 2.40895 208.936 2.50977C209.128 2.50977 209.319 2.61059 209.319 2.71142C209.703 3.1147 209.894 3.01388 210.469 2.81224C210.853 2.71142 211.236 3.1147 211.619 2.91306C212.003 2.81224 212.386 2.61059 212.77 2.61059C213.153 2.50977 213.536 2.50977 213.728 2.50977C214.303 2.50977 214.878 2.50977 215.453 2.61059C215.645 2.71141 215.645 2.81224 215.645 3.01388C215.836 3.41716 216.22 3.41716 216.603 3.1147C216.795 2.91306 216.795 2.81224 216.987 2.61059C219.287 2.40895 221.395 2.30813 223.504 2.61059C224.462 2.71141 225.229 2.50977 225.996 2.30813C226.187 2.30813 226.187 2.10649 226.187 2.00567C226.187 1.80403 226.187 1.70321 225.996 1.70321C225.229 1.60239 224.271 1.50156 223.312 1.60239C221.587 1.90485 219.67 2.10649 217.945 1.80403C217.753 1.80403 217.562 1.80403 217.37 1.80403C215.837 1.90485 214.303 1.80403 212.77 1.70321C208.744 1.60239 204.719 1.60239 200.693 1.60239C199.352 1.60239 197.818 1.60239 196.476 1.70321C195.901 1.70321 195.326 1.80403 194.751 2.10649C194.751 2.10649 194.56 2.20731 194.56 2.30813C194.56 2.30813 194.56 2.40895 194.751 2.40895C195.326 2.50977 195.901 2.61059 196.476 2.71142C196.476 2.81224 196.476 2.91306 196.476 3.21552C197.818 2.81224 198.393 3.1147 199.16 3.01388ZM130.537 66.8335C130.537 66.9343 130.537 66.9343 130.537 67.0351C132.646 67.0351 134.946 67.0351 137.054 67.0351C142.996 67.0351 148.747 67.1359 154.689 67.1359C160.823 67.1359 166.957 67.2368 173.091 67.2368C175.774 67.2368 178.458 67.2368 181.333 67.2368C183.442 67.2368 185.742 67.2368 187.851 67.2368C188.426 67.2368 188.809 67.2368 189.384 67.3376C189.576 67.3376 189.576 67.5392 189.767 67.6401C190.342 68.0433 190.726 67.9425 191.109 67.4384C191.301 67.136 191.493 67.0351 191.876 66.9343C192.068 66.8335 192.259 66.7327 192.643 66.6318C191.876 66.2286 191.109 66.531 190.342 66.2286C191.109 66.1277 191.876 66.0269 192.451 65.9261C192.451 65.9261 192.451 65.8253 192.451 65.7245C190.342 65.422 188.426 65.7245 186.509 66.2286C186.509 66.3294 186.509 66.3294 186.509 66.4302C186.7 66.531 186.509 66.7327 186.317 66.7327C184.4 66.9343 182.292 66.7327 180.375 66.8335C178.65 66.9343 176.925 66.8335 175.199 66.8335C171.941 66.9343 168.49 66.7327 165.232 66.8335C162.357 66.9343 159.673 66.8335 156.798 66.9343C152.197 66.9343 147.597 66.9343 142.805 66.9343C138.779 66.9343 134.562 66.8335 130.537 66.8335ZM10.7343 52.9202C10.926 53.1218 11.3094 53.2227 11.3094 53.3235C11.1177 53.8276 11.5011 53.9284 11.8844 53.9284C14.1846 54.0292 16.4848 54.0292 18.9767 54.1301C19.1684 54.1301 19.3601 54.1301 19.5518 54.0292C19.9352 53.8276 20.1268 53.5251 19.9352 53.1218C19.9352 52.9202 19.7435 52.6177 19.3601 52.5169C17.8266 52.2145 16.2932 51.8112 14.7597 52.2145C14.3763 52.3153 13.993 52.2145 13.8013 52.2145C13.4179 52.2145 12.8428 52.2145 12.4595 52.3153C11.6927 52.6177 11.3094 52.7186 10.7343 52.9202ZM196.285 66.9343L196.476 67.0351C197.435 67.1359 198.202 67.1359 199.16 67.1359C199.352 67.1359 199.735 67.1359 199.927 67.1359C200.31 67.1359 200.693 67.0351 200.885 67.0351C201.077 67.0351 201.46 66.7327 201.268 66.6318C201.077 66.3294 200.885 65.9261 200.502 65.6236C200.118 65.422 199.735 65.5228 199.16 65.422C198.01 65.422 197.051 65.422 196.093 65.7245C195.901 65.7245 195.71 65.8253 195.71 65.9261C195.71 66.0269 195.901 66.1277 195.901 66.2286C196.093 66.3294 196.285 66.3294 196.285 66.4302C196.668 66.7327 196.285 66.7327 196.285 66.9343ZM21.4686 54.9366C21.0853 54.735 20.5102 54.735 19.9352 54.735C16.6765 54.735 13.2262 54.735 9.96758 54.735C9.96758 54.735 9.7759 54.735 9.7759 54.8358L9.7759 54.9366C9.96758 55.0374 10.1593 55.1383 10.5426 55.1383C13.8013 55.1383 17.2516 55.1383 20.5102 55.1383C20.8936 55.1383 21.0853 55.0374 21.4686 55.0374C21.4686 55.1383 21.4686 55.0374 21.4686 54.9366ZM80.8908 3.92127C79.1656 3.92127 77.6321 3.82044 75.907 3.71962C73.9901 3.6188 72.0733 3.71962 70.1564 3.71962C69.9648 3.71962 69.5814 3.92127 69.7731 4.02209C69.9648 4.12291 69.9648 4.22373 70.1564 4.22373C73.7984 4.32455 77.2488 4.12291 80.8908 3.92127ZM189.192 2.81224C190.342 3.41716 191.493 3.21552 192.451 2.91306L192.643 2.81224C192.643 2.40895 192.643 2.00567 192.451 1.70321L192.259 1.60239C191.684 1.50156 191.109 1.50156 190.534 1.70321C190.342 1.80403 190.151 2.00567 190.342 2.20731C190.534 2.40895 190.342 2.50977 190.151 2.61059C189.576 2.61059 189.384 2.71142 189.192 2.81224ZM205.677 69.354C203.76 69.2532 201.844 69.2532 199.927 69.1524C199.543 69.1524 199.16 69.1524 198.968 69.1524C198.393 69.1524 198.01 69.354 198.202 69.4548C198.393 69.7573 198.777 69.7573 199.16 69.7573C199.543 69.7573 200.118 69.8581 200.502 69.7573C202.035 69.4548 203.952 69.5557 205.677 69.354ZM252.257 73.5885C252.448 73.3868 252.832 73.3868 252.832 73.1852C253.023 72.8827 253.215 72.4795 253.215 72.0762C253.215 71.6729 253.023 71.1688 252.64 70.8663C251.49 71.6729 251.681 72.5803 252.257 73.5885ZM10.7343 19.9518C10.926 19.9518 11.1177 19.9518 11.3094 19.9518C11.6927 19.9518 11.8844 19.6493 11.8844 19.4477C11.8844 19.246 11.6927 19.0444 11.5011 18.9436C11.1177 18.7419 10.5426 18.6411 9.96758 18.8428C9.7759 18.9436 9.58421 19.1452 9.58421 19.3469C9.96758 19.7501 10.1593 19.9518 10.7343 19.9518ZM52.7132 3.1147C55.9718 3.41716 55.9718 3.41716 57.1219 3.01388C55.5884 2.91306 54.055 2.91306 52.7132 3.1147ZM260.116 23.0772C259.924 23.0772 259.732 23.0772 259.349 23.1781C258.965 23.2789 258.774 23.3797 258.39 23.5813C258.199 23.6822 258.199 23.9846 258.39 24.0854C259.157 24.4887 260.307 24.2871 260.499 23.6822C260.499 23.5813 260.499 23.3797 260.307 23.3797C260.499 23.1781 260.307 23.1781 260.116 23.0772ZM221.779 70.8663C222.929 71.2696 224.271 71.1688 225.421 71.068C225.612 71.068 225.804 70.9671 225.421 70.8663C224.462 70.8663 223.12 70.8663 221.779 70.8663ZM218.903 69.354C218.328 69.2532 217.945 69.1524 217.37 69.0515C216.795 69.0515 216.412 69.1524 215.836 69.1524L215.645 69.2532C215.645 69.354 215.836 69.5556 216.028 69.5556C216.412 69.6565 216.795 69.6565 216.987 69.5556C217.753 69.6565 218.328 69.4548 218.903 69.354ZM101.209 69.8581C101.784 70.0598 102.168 69.9589 102.743 69.9589C103.318 69.9589 103.893 69.8581 104.468 69.8581L104.66 69.7573C104.66 69.6565 104.468 69.6565 104.468 69.6565C103.51 69.5556 102.551 69.5556 101.593 69.6565C101.593 69.7573 101.401 69.8581 101.209 69.8581ZM231.555 70.9671C230.788 70.7655 230.213 70.8663 229.446 70.8663C229.063 70.8663 228.679 70.7655 228.488 71.068C229.829 71.2696 229.829 71.2696 231.555 70.9671ZM52.7132 66.9343C52.1381 66.8335 51.7548 66.7327 51.1797 66.7327C50.988 66.7327 50.6046 66.8335 50.413 66.9343C50.2213 67.0351 50.2213 67.1359 50.2213 67.2368L50.413 67.3376H50.6046C51.1797 67.2368 51.7548 67.1359 52.3298 67.0351C52.5215 67.0351 52.5215 67.0351 52.7132 66.9343ZM270.467 15.8181C270.275 15.8181 269.891 15.8181 269.7 15.9189L269.508 16.0198C269.508 16.1206 269.7 16.2214 269.7 16.3222C270.275 16.4231 270.85 16.5239 271.425 16.5239C271.425 16.5239 271.617 16.4231 271.808 16.3222C271.808 16.1206 271.808 16.1206 271.617 16.0198C271.042 15.9189 270.658 15.8181 270.467 15.8181ZM36.42 5.43358C36.9951 5.43358 37.3784 5.43358 37.7618 5.43358C37.7618 5.43358 37.9535 5.23194 37.9535 5.13112L37.7618 5.03029C36.9951 5.03029 36.42 5.03029 35.6533 5.03029C35.6533 5.03029 35.4616 5.13111 35.4616 5.23194L35.6533 5.33276C36.0366 5.33276 36.42 5.43358 36.42 5.43358ZM130.92 18.9436C131.495 18.9436 131.687 19.0444 132.07 19.0444C132.454 19.0444 132.837 19.1452 133.221 18.8428C132.454 18.7419 131.687 18.6411 130.92 18.9436ZM84.5328 3.71962C83.9577 3.71962 83.5743 3.71962 83.191 3.82044C82.9993 3.82044 82.9993 3.92127 82.9993 4.02209L83.191 4.12291C83.9577 4.12291 84.5328 4.12291 85.2995 4.12291L85.4912 4.02209C85.4912 4.02209 85.4912 3.92127 85.2995 3.92127C84.9161 3.82044 84.7244 3.82044 84.5328 3.71962ZM89.5166 67.2368C89.5166 67.3376 89.5166 67.3376 89.5166 67.4384C90.0916 67.4384 90.6667 67.5392 91.2417 67.5392L91.4334 67.4384C91.4334 67.3376 91.2417 67.3376 91.2417 67.3376C90.8583 67.2368 90.0916 67.2368 89.5166 67.2368ZM125.745 70.9671C125.362 70.8663 124.786 70.7655 124.403 70.8663L124.211 70.9671C124.211 70.9671 124.211 71.068 124.403 71.068C124.786 71.2696 125.362 71.1688 125.745 70.9671ZM173.666 18.8428C174.049 19.0444 174.433 19.0444 174.816 18.9436L175.008 18.8428L174.816 18.7419C174.433 18.6411 174.049 18.6411 173.666 18.8428ZM260.882 15.2132C261.266 15.314 261.649 15.314 261.841 15.4148C262.032 15.4148 262.032 15.314 262.224 15.314C262.032 15.2132 261.841 15.2132 261.841 15.2132C261.649 15.1124 261.457 15.1124 260.882 15.2132ZM198.393 67.7409C198.777 67.9425 199.16 67.8417 199.735 67.8417C199.735 67.8417 199.735 67.7409 199.927 67.7409L199.735 67.6401C199.16 67.5392 198.777 67.5392 198.393 67.7409ZM202.802 18.8428L202.994 18.9436C203.185 18.9436 203.377 18.9436 203.76 18.9436L203.952 18.8428C203.952 18.7419 203.377 18.6411 202.994 18.7419C202.802 18.7419 202.802 18.8428 202.802 18.8428ZM13.8013 50.6013C13.993 50.6013 14.1846 50.6013 13.993 50.5005C13.993 50.3997 13.8013 50.5005 13.8013 50.6013ZM123.636 67.0351C123.828 67.0351 124.02 67.0351 124.211 67.0351L124.211 66.9343H124.02H123.828C123.636 66.9343 123.636 66.9343 123.636 67.0351ZM64.0226 6.0385C64.2142 6.0385 64.4059 6.0385 64.4059 6.0385C64.4059 6.0385 64.5976 6.0385 64.5976 5.93768C64.4059 5.93768 64.2142 5.93768 64.0226 6.0385ZM267.208 59.6752L267.208 59.776C267.4 59.8768 267.783 59.8768 267.783 59.6752L267.591 59.5744C267.591 59.6752 267.4 59.6752 267.208 59.6752ZM180.567 67.8417L180.567 67.7409H180.375L180.375 67.8417C180.567 67.8417 180.567 67.8417 180.567 67.8417ZM66.7061 5.93768L66.5144 6.0385L66.7061 6.13932C66.8978 6.13932 67.0895 6.13932 66.8978 5.93768C66.8978 5.93768 66.8978 5.93768 66.7061 5.93768ZM40.6371 5.23194C40.4454 5.23194 40.4454 5.23194 40.2537 5.23194C40.2537 5.23194 40.2537 5.33276 40.4454 5.33276C40.4454 5.23194 40.6371 5.23194 40.6371 5.23194ZM120.761 66.9343L120.569 66.8335C120.569 66.8335 120.378 66.8335 120.378 66.9343L120.569 67.0351L120.761 66.9343ZM44.4708 6.74425L44.6624 6.84507L44.6624 6.74425H44.4708ZM81.2741 67.5392C81.2741 67.5392 81.0825 67.6401 81.2741 67.6401L81.4658 67.7409C81.6575 67.7409 81.6575 67.6401 81.2741 67.5392C81.4658 67.5392 81.4658 67.5392 81.2741 67.5392ZM33.9281 5.13112C33.7364 5.13112 33.5447 5.23194 33.7364 5.33276H33.9281C33.9281 5.23194 33.9281 5.13112 33.9281 5.13112ZM50.0296 6.84507L50.2213 6.74425L50.0296 6.64343L50.0296 6.84507ZM67.6646 4.02209C67.6646 4.02209 67.6646 4.12291 67.8562 4.12291C68.0479 4.12291 68.0479 4.02209 68.2396 4.02209C68.2396 4.02209 68.2396 3.92127 68.0479 3.92127C67.8562 3.82044 67.8562 3.82044 67.6646 4.02209ZM82.4242 66.9343L82.4242 67.0351H82.6159C82.9993 67.0351 82.8076 66.9343 82.4242 66.9343C82.6159 66.8335 82.6159 66.9343 82.4242 66.9343ZM88.5581 3.92127L88.5581 4.02209H88.7498L88.5581 3.92127ZM196.668 67.6401C196.476 67.7409 196.476 67.6401 196.668 67.6401C196.476 67.7409 196.668 67.8417 196.668 67.8417C196.86 67.8417 196.86 67.8417 196.668 67.6401ZM229.254 23.2789L229.063 23.1781L228.871 23.2789C228.871 23.4805 228.871 23.4805 229.063 23.4805C229.254 23.3797 229.254 23.2789 229.254 23.2789ZM258.39 9.56723L258.582 9.66805C258.582 9.66805 258.774 9.66805 258.774 9.56723L258.582 9.46641C258.582 9.56723 258.582 9.56723 258.39 9.56723ZM260.882 9.46641L260.691 9.56723L260.882 9.66805C261.074 9.66805 261.266 9.66805 261.074 9.46641C261.074 9.56723 260.882 9.56723 260.882 9.46641ZM129.004 66.8335L128.812 66.9343H129.004L129.004 66.8335ZM69.3897 67.2368L69.198 67.3376C69.198 67.3376 69.198 67.4384 69.3897 67.4384L69.5814 67.3376C69.5814 67.3376 69.3897 67.3376 69.3897 67.2368Z" fill="#FE3B3B"/>
</svg>
