<svg width="232" height="342" viewBox="0 0 232 342" fill="none" xmlns="http://www.w3.org/2000/svg">
<path d="M2.36735 183.255C3.6748 183.255 4.7347 182.196 4.7347 180.89C4.7347 179.583 3.6748 178.524 2.36735 178.524C1.0599 178.524 0 179.583 0 180.89C0 182.196 1.0599 183.255 2.36735 183.255Z" fill="#ECECEC"/>
<path d="M24.9887 183.255C26.2961 183.255 27.356 182.196 27.356 180.89C27.356 179.583 26.2961 178.524 24.9887 178.524C23.6812 178.524 22.6213 179.583 22.6213 180.89C22.6213 182.196 23.6812 183.255 24.9887 183.255Z" fill="#ECECEC"/>
<path d="M47.873 183.255C49.1805 183.255 50.2404 182.196 50.2404 180.89C50.2404 179.583 49.1805 178.524 47.873 178.524C46.5656 178.524 45.5057 179.583 45.5057 180.89C45.5057 182.196 46.5656 183.255 47.873 183.255Z" fill="#ECECEC"/>
<path d="M70.4943 183.255C71.8018 183.255 72.8616 182.196 72.8616 180.89C72.8616 179.583 71.8018 178.524 70.4943 178.524C69.1869 178.524 68.127 179.583 68.127 180.89C68.127 182.196 69.1869 183.255 70.4943 183.255Z" fill="#ECECEC"/>
<path d="M93.3787 183.255C94.6862 183.255 95.7461 182.196 95.7461 180.89C95.7461 179.583 94.6862 178.524 93.3787 178.524C92.0713 178.524 91.0114 179.583 91.0114 180.89C91.0114 182.196 92.0713 183.255 93.3787 183.255Z" fill="#ECECEC"/>
<path d="M116 183.255C117.307 183.255 118.367 182.196 118.367 180.89C118.367 179.583 117.307 178.524 116 178.524C114.693 178.524 113.633 179.583 113.633 180.89C113.633 182.196 114.693 183.255 116 183.255Z" fill="#ECECEC"/>
<path d="M138.621 183.255C139.929 183.255 140.989 182.196 140.989 180.89C140.989 179.583 139.929 178.524 138.621 178.524C137.314 178.524 136.254 179.583 136.254 180.89C136.254 182.196 137.314 183.255 138.621 183.255Z" fill="#ECECEC"/>
<path d="M161.506 183.255C162.813 183.255 163.873 182.196 163.873 180.89C163.873 179.583 162.813 178.524 161.506 178.524C160.198 178.524 159.138 179.583 159.138 180.89C159.138 182.196 160.198 183.255 161.506 183.255Z" fill="#ECECEC"/>
<path d="M184.127 183.255C185.435 183.255 186.494 182.196 186.494 180.89C186.494 179.583 185.435 178.524 184.127 178.524C182.82 178.524 181.76 179.583 181.76 180.89C181.76 182.196 182.82 183.255 184.127 183.255Z" fill="#ECECEC"/>
<path d="M207.011 183.255C208.319 183.255 209.379 182.196 209.379 180.89C209.379 179.583 208.319 178.524 207.011 178.524C205.704 178.524 204.644 179.583 204.644 180.89C204.644 182.196 205.704 183.255 207.011 183.255Z" fill="#ECECEC"/>
<path d="M229.633 183.255C230.94 183.255 232 182.196 232 180.89C232 179.583 230.94 178.524 229.633 178.524C228.325 178.524 227.265 179.583 227.265 180.89C227.265 182.196 228.325 183.255 229.633 183.255Z" fill="#ECECEC"/>
<path d="M2.36735 205.861C3.6748 205.861 4.7347 204.802 4.7347 203.496C4.7347 202.189 3.6748 201.13 2.36735 201.13C1.0599 201.13 0 202.189 0 203.496C0 204.802 1.0599 205.861 2.36735 205.861Z" fill="#ECECEC"/>
<path d="M24.9887 205.861C26.2961 205.861 27.356 204.802 27.356 203.496C27.356 202.189 26.2961 201.13 24.9887 201.13C23.6812 201.13 22.6213 202.189 22.6213 203.496C22.6213 204.802 23.6812 205.861 24.9887 205.861Z" fill="#ECECEC"/>
<path d="M47.873 205.861C49.1805 205.861 50.2404 204.802 50.2404 203.496C50.2404 202.189 49.1805 201.13 47.873 201.13C46.5656 201.13 45.5057 202.189 45.5057 203.496C45.5057 204.802 46.5656 205.861 47.873 205.861Z" fill="#ECECEC"/>
<path d="M70.4943 205.861C71.8018 205.861 72.8616 204.802 72.8616 203.496C72.8616 202.189 71.8018 201.13 70.4943 201.13C69.1869 201.13 68.127 202.189 68.127 203.496C68.127 204.802 69.1869 205.861 70.4943 205.861Z" fill="#ECECEC"/>
<path d="M93.3787 205.861C94.6862 205.861 95.7461 204.802 95.7461 203.496C95.7461 202.189 94.6862 201.13 93.3787 201.13C92.0713 201.13 91.0114 202.189 91.0114 203.496C91.0114 204.802 92.0713 205.861 93.3787 205.861Z" fill="#ECECEC"/>
<path d="M116 205.861C117.307 205.861 118.367 204.802 118.367 203.496C118.367 202.189 117.307 201.13 116 201.13C114.693 201.13 113.633 202.189 113.633 203.496C113.633 204.802 114.693 205.861 116 205.861Z" fill="#ECECEC"/>
<path d="M138.621 205.861C139.929 205.861 140.989 204.802 140.989 203.496C140.989 202.189 139.929 201.13 138.621 201.13C137.314 201.13 136.254 202.189 136.254 203.496C136.254 204.802 137.314 205.861 138.621 205.861Z" fill="#ECECEC"/>
<path d="M161.506 205.861C162.813 205.861 163.873 204.802 163.873 203.496C163.873 202.189 162.813 201.13 161.506 201.13C160.198 201.13 159.138 202.189 159.138 203.496C159.138 204.802 160.198 205.861 161.506 205.861Z" fill="#ECECEC"/>
<path d="M184.127 205.861C185.435 205.861 186.494 204.802 186.494 203.496C186.494 202.189 185.435 201.13 184.127 201.13C182.82 201.13 181.76 202.189 181.76 203.496C181.76 204.802 182.82 205.861 184.127 205.861Z" fill="#ECECEC"/>
<path d="M207.011 205.861C208.319 205.861 209.379 204.802 209.379 203.496C209.379 202.189 208.319 201.13 207.011 201.13C205.704 201.13 204.644 202.189 204.644 203.496C204.644 204.802 205.704 205.861 207.011 205.861Z" fill="#ECECEC"/>
<path d="M229.633 205.861C230.94 205.861 232 204.802 232 203.496C232 202.189 230.94 201.13 229.633 201.13C228.325 201.13 227.265 202.189 227.265 203.496C227.265 204.802 228.325 205.861 229.633 205.861Z" fill="#ECECEC"/>
<path d="M2.36735 228.467C3.6748 228.467 4.7347 227.408 4.7347 226.102C4.7347 224.796 3.6748 223.737 2.36735 223.737C1.0599 223.737 0 224.796 0 226.102C0 227.408 1.0599 228.467 2.36735 228.467Z" fill="#ECECEC"/>
<path d="M24.9887 228.467C26.2961 228.467 27.356 227.408 27.356 226.102C27.356 224.796 26.2961 223.737 24.9887 223.737C23.6812 223.737 22.6213 224.796 22.6213 226.102C22.6213 227.408 23.6812 228.467 24.9887 228.467Z" fill="#ECECEC"/>
<path d="M47.873 228.467C49.1805 228.467 50.2404 227.408 50.2404 226.102C50.2404 224.796 49.1805 223.737 47.873 223.737C46.5656 223.737 45.5057 224.796 45.5057 226.102C45.5057 227.408 46.5656 228.467 47.873 228.467Z" fill="#ECECEC"/>
<path d="M70.4943 228.467C71.8018 228.467 72.8616 227.408 72.8616 226.102C72.8616 224.796 71.8018 223.737 70.4943 223.737C69.1869 223.737 68.127 224.796 68.127 226.102C68.127 227.408 69.1869 228.467 70.4943 228.467Z" fill="#ECECEC"/>
<path d="M93.3787 228.467C94.6862 228.467 95.7461 227.408 95.7461 226.102C95.7461 224.796 94.6862 223.737 93.3787 223.737C92.0713 223.737 91.0114 224.796 91.0114 226.102C91.0114 227.408 92.0713 228.467 93.3787 228.467Z" fill="#ECECEC"/>
<path d="M116 228.467C117.307 228.467 118.367 227.408 118.367 226.102C118.367 224.796 117.307 223.737 116 223.737C114.693 223.737 113.633 224.796 113.633 226.102C113.633 227.408 114.693 228.467 116 228.467Z" fill="#ECECEC"/>
<path d="M138.621 228.467C139.929 228.467 140.989 227.408 140.989 226.102C140.989 224.796 139.929 223.737 138.621 223.737C137.314 223.737 136.254 224.796 136.254 226.102C136.254 227.408 137.314 228.467 138.621 228.467Z" fill="#ECECEC"/>
<path d="M161.506 228.467C162.813 228.467 163.873 227.408 163.873 226.102C163.873 224.796 162.813 223.737 161.506 223.737C160.198 223.737 159.138 224.796 159.138 226.102C159.138 227.408 160.198 228.467 161.506 228.467Z" fill="#ECECEC"/>
<path d="M184.127 228.467C185.435 228.467 186.494 227.408 186.494 226.102C186.494 224.796 185.435 223.737 184.127 223.737C182.82 223.737 181.76 224.796 181.76 226.102C181.76 227.408 182.82 228.467 184.127 228.467Z" fill="#ECECEC"/>
<path d="M207.011 228.467C208.319 228.467 209.379 227.408 209.379 226.102C209.379 224.796 208.319 223.737 207.011 223.737C205.704 223.737 204.644 224.796 204.644 226.102C204.644 227.408 205.704 228.467 207.011 228.467Z" fill="#ECECEC"/>
<path d="M229.633 228.467C230.94 228.467 232 227.408 232 226.102C232 224.796 230.94 223.737 229.633 223.737C228.325 223.737 227.265 224.796 227.265 226.102C227.265 227.408 228.325 228.467 229.633 228.467Z" fill="#ECECEC"/>
<path d="M2.36735 251.074C3.6748 251.074 4.7347 250.014 4.7347 248.708C4.7347 247.402 3.6748 246.343 2.36735 246.343C1.0599 246.343 0 247.402 0 248.708C0 250.014 1.0599 251.074 2.36735 251.074Z" fill="#ECECEC"/>
<path d="M24.9887 251.074C26.2961 251.074 27.356 250.014 27.356 248.708C27.356 247.402 26.2961 246.343 24.9887 246.343C23.6812 246.343 22.6213 247.402 22.6213 248.708C22.6213 250.014 23.6812 251.074 24.9887 251.074Z" fill="#ECECEC"/>
<path d="M47.873 251.074C49.1805 251.074 50.2404 250.014 50.2404 248.708C50.2404 247.402 49.1805 246.343 47.873 246.343C46.5656 246.343 45.5057 247.402 45.5057 248.708C45.5057 250.014 46.5656 251.074 47.873 251.074Z" fill="#ECECEC"/>
<path d="M70.4943 251.074C71.8018 251.074 72.8616 250.014 72.8616 248.708C72.8616 247.402 71.8018 246.343 70.4943 246.343C69.1869 246.343 68.127 247.402 68.127 248.708C68.127 250.014 69.1869 251.074 70.4943 251.074Z" fill="#ECECEC"/>
<path d="M93.3787 251.074C94.6862 251.074 95.7461 250.014 95.7461 248.708C95.7461 247.402 94.6862 246.343 93.3787 246.343C92.0713 246.343 91.0114 247.402 91.0114 248.708C91.0114 250.014 92.0713 251.074 93.3787 251.074Z" fill="#ECECEC"/>
<path d="M116 251.074C117.307 251.074 118.367 250.014 118.367 248.708C118.367 247.402 117.307 246.343 116 246.343C114.693 246.343 113.633 247.402 113.633 248.708C113.633 250.014 114.693 251.074 116 251.074Z" fill="#ECECEC"/>
<path d="M138.621 251.074C139.929 251.074 140.989 250.014 140.989 248.708C140.989 247.402 139.929 246.343 138.621 246.343C137.314 246.343 136.254 247.402 136.254 248.708C136.254 250.014 137.314 251.074 138.621 251.074Z" fill="#ECECEC"/>
<path d="M161.506 251.074C162.813 251.074 163.873 250.014 163.873 248.708C163.873 247.402 162.813 246.343 161.506 246.343C160.198 246.343 159.138 247.402 159.138 248.708C159.138 250.014 160.198 251.074 161.506 251.074Z" fill="#ECECEC"/>
<path d="M184.127 251.074C185.435 251.074 186.494 250.014 186.494 248.708C186.494 247.402 185.435 246.343 184.127 246.343C182.82 246.343 181.76 247.402 181.76 248.708C181.76 250.014 182.82 251.074 184.127 251.074Z" fill="#ECECEC"/>
<path d="M207.011 251.074C208.319 251.074 209.379 250.014 209.379 248.708C209.379 247.402 208.319 246.343 207.011 246.343C205.704 246.343 204.644 247.402 204.644 248.708C204.644 250.014 205.704 251.074 207.011 251.074Z" fill="#ECECEC"/>
<path d="M229.633 251.074C230.94 251.074 232 250.014 232 248.708C232 247.402 230.94 246.343 229.633 246.343C228.325 246.343 227.265 247.402 227.265 248.708C227.265 250.014 228.325 251.074 229.633 251.074Z" fill="#ECECEC"/>
<path d="M2.36735 273.679C3.6748 273.679 4.7347 272.62 4.7347 271.314C4.7347 270.008 3.6748 268.949 2.36735 268.949C1.0599 268.949 0 270.008 0 271.314C0 272.62 1.0599 273.679 2.36735 273.679Z" fill="#ECECEC"/>
<path d="M24.9887 273.679C26.2961 273.679 27.356 272.62 27.356 271.314C27.356 270.008 26.2961 268.949 24.9887 268.949C23.6812 268.949 22.6213 270.008 22.6213 271.314C22.6213 272.62 23.6812 273.679 24.9887 273.679Z" fill="#ECECEC"/>
<path d="M47.873 273.679C49.1805 273.679 50.2404 272.62 50.2404 271.314C50.2404 270.008 49.1805 268.949 47.873 268.949C46.5656 268.949 45.5057 270.008 45.5057 271.314C45.5057 272.62 46.5656 273.679 47.873 273.679Z" fill="#ECECEC"/>
<path d="M70.4943 273.679C71.8018 273.679 72.8616 272.62 72.8616 271.314C72.8616 270.008 71.8018 268.949 70.4943 268.949C69.1869 268.949 68.127 270.008 68.127 271.314C68.127 272.62 69.1869 273.679 70.4943 273.679Z" fill="#ECECEC"/>
<path d="M93.3787 273.679C94.6862 273.679 95.7461 272.62 95.7461 271.314C95.7461 270.008 94.6862 268.949 93.3787 268.949C92.0713 268.949 91.0114 270.008 91.0114 271.314C91.0114 272.62 92.0713 273.679 93.3787 273.679Z" fill="#ECECEC"/>
<path d="M116 273.679C117.307 273.679 118.367 272.62 118.367 271.314C118.367 270.008 117.307 268.949 116 268.949C114.693 268.949 113.633 270.008 113.633 271.314C113.633 272.62 114.693 273.679 116 273.679Z" fill="#ECECEC"/>
<path d="M138.621 273.679C139.929 273.679 140.989 272.62 140.989 271.314C140.989 270.008 139.929 268.949 138.621 268.949C137.314 268.949 136.254 270.008 136.254 271.314C136.254 272.62 137.314 273.679 138.621 273.679Z" fill="#ECECEC"/>
<path d="M161.506 273.679C162.813 273.679 163.873 272.62 163.873 271.314C163.873 270.008 162.813 268.949 161.506 268.949C160.198 268.949 159.138 270.008 159.138 271.314C159.138 272.62 160.198 273.679 161.506 273.679Z" fill="#ECECEC"/>
<path d="M184.127 273.679C185.435 273.679 186.494 272.62 186.494 271.314C186.494 270.008 185.435 268.949 184.127 268.949C182.82 268.949 181.76 270.008 181.76 271.314C181.76 272.62 182.82 273.679 184.127 273.679Z" fill="#ECECEC"/>
<path d="M207.011 273.679C208.319 273.679 209.379 272.62 209.379 271.314C209.379 270.008 208.319 268.949 207.011 268.949C205.704 268.949 204.644 270.008 204.644 271.314C204.644 272.62 205.704 273.679 207.011 273.679Z" fill="#ECECEC"/>
<path d="M229.633 273.679C230.94 273.679 232 272.62 232 271.314C232 270.008 230.94 268.949 229.633 268.949C228.325 268.949 227.265 270.008 227.265 271.314C227.265 272.62 228.325 273.679 229.633 273.679Z" fill="#ECECEC"/>
<path d="M2.36735 296.286C3.6748 296.286 4.7347 295.227 4.7347 293.92C4.7347 292.614 3.6748 291.555 2.36735 291.555C1.0599 291.555 0 292.614 0 293.92C0 295.227 1.0599 296.286 2.36735 296.286Z" fill="#ECECEC"/>
<path d="M24.9887 296.286C26.2961 296.286 27.356 295.227 27.356 293.92C27.356 292.614 26.2961 291.555 24.9887 291.555C23.6812 291.555 22.6213 292.614 22.6213 293.92C22.6213 295.227 23.6812 296.286 24.9887 296.286Z" fill="#ECECEC"/>
<path d="M47.873 296.286C49.1805 296.286 50.2404 295.227 50.2404 293.92C50.2404 292.614 49.1805 291.555 47.873 291.555C46.5656 291.555 45.5057 292.614 45.5057 293.92C45.5057 295.227 46.5656 296.286 47.873 296.286Z" fill="#ECECEC"/>
<path d="M70.4943 296.286C71.8018 296.286 72.8616 295.227 72.8616 293.92C72.8616 292.614 71.8018 291.555 70.4943 291.555C69.1869 291.555 68.127 292.614 68.127 293.92C68.127 295.227 69.1869 296.286 70.4943 296.286Z" fill="#ECECEC"/>
<path d="M93.3787 296.286C94.6862 296.286 95.7461 295.227 95.7461 293.92C95.7461 292.614 94.6862 291.555 93.3787 291.555C92.0713 291.555 91.0114 292.614 91.0114 293.92C91.0114 295.227 92.0713 296.286 93.3787 296.286Z" fill="#ECECEC"/>
<path d="M116 296.286C117.307 296.286 118.367 295.227 118.367 293.92C118.367 292.614 117.307 291.555 116 291.555C114.693 291.555 113.633 292.614 113.633 293.92C113.633 295.227 114.693 296.286 116 296.286Z" fill="#ECECEC"/>
<path d="M138.621 296.286C139.929 296.286 140.989 295.227 140.989 293.92C140.989 292.614 139.929 291.555 138.621 291.555C137.314 291.555 136.254 292.614 136.254 293.92C136.254 295.227 137.314 296.286 138.621 296.286Z" fill="#ECECEC"/>
<path d="M161.506 296.286C162.813 296.286 163.873 295.227 163.873 293.92C163.873 292.614 162.813 291.555 161.506 291.555C160.198 291.555 159.138 292.614 159.138 293.92C159.138 295.227 160.198 296.286 161.506 296.286Z" fill="#ECECEC"/>
<path d="M184.127 296.286C185.435 296.286 186.494 295.227 186.494 293.92C186.494 292.614 185.435 291.555 184.127 291.555C182.82 291.555 181.76 292.614 181.76 293.92C181.76 295.227 182.82 296.286 184.127 296.286Z" fill="#ECECEC"/>
<path d="M207.011 296.286C208.319 296.286 209.379 295.227 209.379 293.92C209.379 292.614 208.319 291.555 207.011 291.555C205.704 291.555 204.644 292.614 204.644 293.92C204.644 295.227 205.704 296.286 207.011 296.286Z" fill="#ECECEC"/>
<path d="M229.633 296.286C230.94 296.286 232 295.227 232 293.92C232 292.614 230.94 291.555 229.633 291.555C228.325 291.555 227.265 292.614 227.265 293.92C227.265 295.227 228.325 296.286 229.633 296.286Z" fill="#ECECEC"/>
<path d="M2.36735 318.892C3.6748 318.892 4.7347 317.833 4.7347 316.526C4.7347 315.22 3.6748 314.161 2.36735 314.161C1.0599 314.161 0 315.22 0 316.526C0 317.833 1.0599 318.892 2.36735 318.892Z" fill="#ECECEC"/>
<path d="M24.9887 318.892C26.2961 318.892 27.356 317.833 27.356 316.526C27.356 315.22 26.2961 314.161 24.9887 314.161C23.6812 314.161 22.6213 315.22 22.6213 316.526C22.6213 317.833 23.6812 318.892 24.9887 318.892Z" fill="#ECECEC"/>
<path d="M47.873 318.892C49.1805 318.892 50.2404 317.833 50.2404 316.526C50.2404 315.22 49.1805 314.161 47.873 314.161C46.5656 314.161 45.5057 315.22 45.5057 316.526C45.5057 317.833 46.5656 318.892 47.873 318.892Z" fill="#ECECEC"/>
<path d="M70.4943 318.892C71.8018 318.892 72.8616 317.833 72.8616 316.526C72.8616 315.22 71.8018 314.161 70.4943 314.161C69.1869 314.161 68.127 315.22 68.127 316.526C68.127 317.833 69.1869 318.892 70.4943 318.892Z" fill="#ECECEC"/>
<path d="M93.3787 318.892C94.6862 318.892 95.7461 317.833 95.7461 316.526C95.7461 315.22 94.6862 314.161 93.3787 314.161C92.0713 314.161 91.0114 315.22 91.0114 316.526C91.0114 317.833 92.0713 318.892 93.3787 318.892Z" fill="#ECECEC"/>
<path d="M116 318.892C117.307 318.892 118.367 317.833 118.367 316.526C118.367 315.22 117.307 314.161 116 314.161C114.693 314.161 113.633 315.22 113.633 316.526C113.633 317.833 114.693 318.892 116 318.892Z" fill="#ECECEC"/>
<path d="M138.621 318.892C139.929 318.892 140.989 317.833 140.989 316.526C140.989 315.22 139.929 314.161 138.621 314.161C137.314 314.161 136.254 315.22 136.254 316.526C136.254 317.833 137.314 318.892 138.621 318.892Z" fill="#ECECEC"/>
<path d="M161.506 318.892C162.813 318.892 163.873 317.833 163.873 316.526C163.873 315.22 162.813 314.161 161.506 314.161C160.198 314.161 159.138 315.22 159.138 316.526C159.138 317.833 160.198 318.892 161.506 318.892Z" fill="#ECECEC"/>
<path d="M184.127 318.892C185.435 318.892 186.494 317.833 186.494 316.526C186.494 315.22 185.435 314.161 184.127 314.161C182.82 314.161 181.76 315.22 181.76 316.526C181.76 317.833 182.82 318.892 184.127 318.892Z" fill="#ECECEC"/>
<path d="M207.011 318.892C208.319 318.892 209.379 317.833 209.379 316.526C209.379 315.22 208.319 314.161 207.011 314.161C205.704 314.161 204.644 315.22 204.644 316.526C204.644 317.833 205.704 318.892 207.011 318.892Z" fill="#ECECEC"/>
<path d="M229.633 318.892C230.94 318.892 232 317.833 232 316.526C232 315.22 230.94 314.161 229.633 314.161C228.325 314.161 227.265 315.22 227.265 316.526C227.265 317.833 228.325 318.892 229.633 318.892Z" fill="#ECECEC"/>
<path d="M2.36735 341.498C3.6748 341.498 4.7347 340.439 4.7347 339.132C4.7347 337.826 3.6748 336.767 2.36735 336.767C1.0599 336.767 0 337.826 0 339.132C0 340.439 1.0599 341.498 2.36735 341.498Z" fill="#ECECEC"/>
<path d="M24.9887 341.498C26.2961 341.498 27.356 340.439 27.356 339.132C27.356 337.826 26.2961 336.767 24.9887 336.767C23.6812 336.767 22.6213 337.826 22.6213 339.132C22.6213 340.439 23.6812 341.498 24.9887 341.498Z" fill="#ECECEC"/>
<path d="M47.873 341.498C49.1805 341.498 50.2404 340.439 50.2404 339.132C50.2404 337.826 49.1805 336.767 47.873 336.767C46.5656 336.767 45.5057 337.826 45.5057 339.132C45.5057 340.439 46.5656 341.498 47.873 341.498Z" fill="#ECECEC"/>
<path d="M70.4943 341.498C71.8018 341.498 72.8616 340.439 72.8616 339.132C72.8616 337.826 71.8018 336.767 70.4943 336.767C69.1869 336.767 68.127 337.826 68.127 339.132C68.127 340.439 69.1869 341.498 70.4943 341.498Z" fill="#ECECEC"/>
<path d="M93.3787 341.498C94.6862 341.498 95.7461 340.439 95.7461 339.132C95.7461 337.826 94.6862 336.767 93.3787 336.767C92.0713 336.767 91.0114 337.826 91.0114 339.132C91.0114 340.439 92.0713 341.498 93.3787 341.498Z" fill="#ECECEC"/>
<path d="M116 341.498C117.307 341.498 118.367 340.439 118.367 339.132C118.367 337.826 117.307 336.767 116 336.767C114.693 336.767 113.633 337.826 113.633 339.132C113.633 340.439 114.693 341.498 116 341.498Z" fill="#ECECEC"/>
<path d="M138.621 341.498C139.929 341.498 140.989 340.439 140.989 339.132C140.989 337.826 139.929 336.767 138.621 336.767C137.314 336.767 136.254 337.826 136.254 339.132C136.254 340.439 137.314 341.498 138.621 341.498Z" fill="#ECECEC"/>
<path d="M161.506 341.498C162.813 341.498 163.873 340.439 163.873 339.132C163.873 337.826 162.813 336.767 161.506 336.767C160.198 336.767 159.138 337.826 159.138 339.132C159.138 340.439 160.198 341.498 161.506 341.498Z" fill="#ECECEC"/>
<path d="M184.127 341.498C185.435 341.498 186.494 340.439 186.494 339.132C186.494 337.826 185.435 336.767 184.127 336.767C182.82 336.767 181.76 337.826 181.76 339.132C181.76 340.439 182.82 341.498 184.127 341.498Z" fill="#ECECEC"/>
<path d="M207.011 341.498C208.319 341.498 209.379 340.439 209.379 339.132C209.379 337.826 208.319 336.767 207.011 336.767C205.704 336.767 204.644 337.826 204.644 339.132C204.644 340.439 205.704 341.498 207.011 341.498Z" fill="#ECECEC"/>
<path d="M229.633 341.498C230.94 341.498 232 340.439 232 339.132C232 337.826 230.94 336.767 229.633 336.767C228.325 336.767 227.265 337.826 227.265 339.132C227.265 340.439 228.325 341.498 229.633 341.498Z" fill="#ECECEC"/>
<path d="M2.36735 4.73073C3.6748 4.73073 4.7347 3.67172 4.7347 2.36536C4.7347 1.05901 3.6748 0 2.36735 0C1.0599 0 0 1.05901 0 2.36536C0 3.67172 1.0599 4.73073 2.36735 4.73073Z" fill="#ECECEC"/>
<path d="M24.9887 4.73073C26.2961 4.73073 27.356 3.67172 27.356 2.36536C27.356 1.05901 26.2961 0 24.9887 0C23.6812 0 22.6213 1.05901 22.6213 2.36536C22.6213 3.67172 23.6812 4.73073 24.9887 4.73073Z" fill="#ECECEC"/>
<path d="M47.873 4.73073C49.1805 4.73073 50.2404 3.67172 50.2404 2.36536C50.2404 1.05901 49.1805 0 47.873 0C46.5656 0 45.5057 1.05901 45.5057 2.36536C45.5057 3.67172 46.5656 4.73073 47.873 4.73073Z" fill="#ECECEC"/>
<path d="M70.4943 4.73073C71.8018 4.73073 72.8616 3.67172 72.8616 2.36536C72.8616 1.05901 71.8018 0 70.4943 0C69.1869 0 68.127 1.05901 68.127 2.36536C68.127 3.67172 69.1869 4.73073 70.4943 4.73073Z" fill="#ECECEC"/>
<path d="M93.3787 4.73073C94.6862 4.73073 95.7461 3.67172 95.7461 2.36536C95.7461 1.05901 94.6862 0 93.3787 0C92.0713 0 91.0114 1.05901 91.0114 2.36536C91.0114 3.67172 92.0713 4.73073 93.3787 4.73073Z" fill="#ECECEC"/>
<path d="M116 4.73073C117.307 4.73073 118.367 3.67172 118.367 2.36536C118.367 1.05901 117.307 0 116 0C114.693 0 113.633 1.05901 113.633 2.36536C113.633 3.67172 114.693 4.73073 116 4.73073Z" fill="#ECECEC"/>
<path d="M138.621 4.73073C139.929 4.73073 140.989 3.67172 140.989 2.36536C140.989 1.05901 139.929 0 138.621 0C137.314 0 136.254 1.05901 136.254 2.36536C136.254 3.67172 137.314 4.73073 138.621 4.73073Z" fill="#ECECEC"/>
<path d="M161.506 4.73073C162.813 4.73073 163.873 3.67172 163.873 2.36536C163.873 1.05901 162.813 0 161.506 0C160.198 0 159.138 1.05901 159.138 2.36536C159.138 3.67172 160.198 4.73073 161.506 4.73073Z" fill="#ECECEC"/>
<path d="M184.127 4.73073C185.435 4.73073 186.494 3.67172 186.494 2.36536C186.494 1.05901 185.435 0 184.127 0C182.82 0 181.76 1.05901 181.76 2.36536C181.76 3.67172 182.82 4.73073 184.127 4.73073Z" fill="#ECECEC"/>
<path d="M207.011 4.73073C208.319 4.73073 209.379 3.67172 209.379 2.36536C209.379 1.05901 208.319 0 207.011 0C205.704 0 204.644 1.05901 204.644 2.36536C204.644 3.67172 205.704 4.73073 207.011 4.73073Z" fill="#ECECEC"/>
<path d="M229.633 4.73073C230.94 4.73073 232 3.67172 232 2.36536C232 1.05901 230.94 0 229.633 0C228.325 0 227.265 1.05901 227.265 2.36536C227.265 3.67172 228.325 4.73073 229.633 4.73073Z" fill="#ECECEC"/>
<path d="M2.36735 27.3368C3.6748 27.3368 4.7347 26.2778 4.7347 24.9714C4.7347 23.6651 3.6748 22.6061 2.36735 22.6061C1.0599 22.6061 0 23.6651 0 24.9714C0 26.2778 1.0599 27.3368 2.36735 27.3368Z" fill="#ECECEC"/>
<path d="M24.9887 27.3368C26.2961 27.3368 27.356 26.2778 27.356 24.9714C27.356 23.6651 26.2961 22.6061 24.9887 22.6061C23.6812 22.6061 22.6213 23.6651 22.6213 24.9714C22.6213 26.2778 23.6812 27.3368 24.9887 27.3368Z" fill="#ECECEC"/>
<path d="M47.873 27.3368C49.1805 27.3368 50.2404 26.2778 50.2404 24.9714C50.2404 23.6651 49.1805 22.6061 47.873 22.6061C46.5656 22.6061 45.5057 23.6651 45.5057 24.9714C45.5057 26.2778 46.5656 27.3368 47.873 27.3368Z" fill="#ECECEC"/>
<path d="M70.4943 27.3368C71.8018 27.3368 72.8616 26.2778 72.8616 24.9714C72.8616 23.6651 71.8018 22.6061 70.4943 22.6061C69.1869 22.6061 68.127 23.6651 68.127 24.9714C68.127 26.2778 69.1869 27.3368 70.4943 27.3368Z" fill="#ECECEC"/>
<path d="M93.3787 27.3368C94.6862 27.3368 95.7461 26.2778 95.7461 24.9714C95.7461 23.6651 94.6862 22.6061 93.3787 22.6061C92.0713 22.6061 91.0114 23.6651 91.0114 24.9714C91.0114 26.2778 92.0713 27.3368 93.3787 27.3368Z" fill="#ECECEC"/>
<path d="M116 27.3368C117.307 27.3368 118.367 26.2778 118.367 24.9714C118.367 23.6651 117.307 22.6061 116 22.6061C114.693 22.6061 113.633 23.6651 113.633 24.9714C113.633 26.2778 114.693 27.3368 116 27.3368Z" fill="#ECECEC"/>
<path d="M138.621 27.3368C139.929 27.3368 140.989 26.2778 140.989 24.9714C140.989 23.6651 139.929 22.6061 138.621 22.6061C137.314 22.6061 136.254 23.6651 136.254 24.9714C136.254 26.2778 137.314 27.3368 138.621 27.3368Z" fill="#ECECEC"/>
<path d="M161.506 27.3368C162.813 27.3368 163.873 26.2778 163.873 24.9714C163.873 23.6651 162.813 22.6061 161.506 22.6061C160.198 22.6061 159.138 23.6651 159.138 24.9714C159.138 26.2778 160.198 27.3368 161.506 27.3368Z" fill="#ECECEC"/>
<path d="M184.127 27.3368C185.435 27.3368 186.494 26.2778 186.494 24.9714C186.494 23.6651 185.435 22.6061 184.127 22.6061C182.82 22.6061 181.76 23.6651 181.76 24.9714C181.76 26.2778 182.82 27.3368 184.127 27.3368Z" fill="#ECECEC"/>
<path d="M207.011 27.3368C208.319 27.3368 209.379 26.2778 209.379 24.9714C209.379 23.6651 208.319 22.6061 207.011 22.6061C205.704 22.6061 204.644 23.6651 204.644 24.9714C204.644 26.2778 205.704 27.3368 207.011 27.3368Z" fill="#ECECEC"/>
<path d="M229.633 27.3368C230.94 27.3368 232 26.2778 232 24.9714C232 23.6651 230.94 22.6061 229.633 22.6061C228.325 22.6061 227.265 23.6651 227.265 24.9714C227.265 26.2778 228.325 27.3368 229.633 27.3368Z" fill="#ECECEC"/>
<path d="M2.36735 49.943C3.6748 49.943 4.7347 48.884 4.7347 47.5776C4.7347 46.2713 3.6748 45.2123 2.36735 45.2123C1.0599 45.2123 0 46.2713 0 47.5776C0 48.884 1.0599 49.943 2.36735 49.943Z" fill="#ECECEC"/>
<path d="M24.9887 49.943C26.2961 49.943 27.356 48.884 27.356 47.5776C27.356 46.2713 26.2961 45.2123 24.9887 45.2123C23.6812 45.2123 22.6213 46.2713 22.6213 47.5776C22.6213 48.884 23.6812 49.943 24.9887 49.943Z" fill="#ECECEC"/>
<path d="M47.873 49.943C49.1805 49.943 50.2404 48.884 50.2404 47.5776C50.2404 46.2713 49.1805 45.2123 47.873 45.2123C46.5656 45.2123 45.5057 46.2713 45.5057 47.5776C45.5057 48.884 46.5656 49.943 47.873 49.943Z" fill="#ECECEC"/>
<path d="M70.4943 49.943C71.8018 49.943 72.8616 48.884 72.8616 47.5776C72.8616 46.2713 71.8018 45.2123 70.4943 45.2123C69.1869 45.2123 68.127 46.2713 68.127 47.5776C68.127 48.884 69.1869 49.943 70.4943 49.943Z" fill="#ECECEC"/>
<path d="M93.3787 49.943C94.6862 49.943 95.7461 48.884 95.7461 47.5776C95.7461 46.2713 94.6862 45.2123 93.3787 45.2123C92.0713 45.2123 91.0114 46.2713 91.0114 47.5776C91.0114 48.884 92.0713 49.943 93.3787 49.943Z" fill="#ECECEC"/>
<path d="M116 49.943C117.307 49.943 118.367 48.884 118.367 47.5776C118.367 46.2713 117.307 45.2123 116 45.2123C114.693 45.2123 113.633 46.2713 113.633 47.5776C113.633 48.884 114.693 49.943 116 49.943Z" fill="#ECECEC"/>
<path d="M138.621 49.943C139.929 49.943 140.989 48.884 140.989 47.5776C140.989 46.2713 139.929 45.2123 138.621 45.2123C137.314 45.2123 136.254 46.2713 136.254 47.5776C136.254 48.884 137.314 49.943 138.621 49.943Z" fill="#ECECEC"/>
<path d="M161.506 49.943C162.813 49.943 163.873 48.884 163.873 47.5776C163.873 46.2713 162.813 45.2123 161.506 45.2123C160.198 45.2123 159.138 46.2713 159.138 47.5776C159.138 48.884 160.198 49.943 161.506 49.943Z" fill="#ECECEC"/>
<path d="M184.127 49.943C185.435 49.943 186.494 48.884 186.494 47.5776C186.494 46.2713 185.435 45.2123 184.127 45.2123C182.82 45.2123 181.76 46.2713 181.76 47.5776C181.76 48.884 182.82 49.943 184.127 49.943Z" fill="#ECECEC"/>
<path d="M207.011 49.943C208.319 49.943 209.379 48.884 209.379 47.5776C209.379 46.2713 208.319 45.2123 207.011 45.2123C205.704 45.2123 204.644 46.2713 204.644 47.5776C204.644 48.884 205.704 49.943 207.011 49.943Z" fill="#ECECEC"/>
<path d="M229.633 49.943C230.94 49.943 232 48.884 232 47.5776C232 46.2713 230.94 45.2123 229.633 45.2123C228.325 45.2123 227.265 46.2713 227.265 47.5776C227.265 48.884 228.325 49.943 229.633 49.943Z" fill="#ECECEC"/>
<path d="M2.36735 72.5491C3.6748 72.5491 4.7347 71.4901 4.7347 70.1837C4.7347 68.8774 3.6748 67.8184 2.36735 67.8184C1.0599 67.8184 0 68.8774 0 70.1837C0 71.4901 1.0599 72.5491 2.36735 72.5491Z" fill="#ECECEC"/>
<path d="M24.9887 72.5491C26.2961 72.5491 27.356 71.4901 27.356 70.1837C27.356 68.8774 26.2961 67.8184 24.9887 67.8184C23.6812 67.8184 22.6213 68.8774 22.6213 70.1837C22.6213 71.4901 23.6812 72.5491 24.9887 72.5491Z" fill="#ECECEC"/>
<path d="M47.873 72.5491C49.1805 72.5491 50.2404 71.4901 50.2404 70.1837C50.2404 68.8774 49.1805 67.8184 47.873 67.8184C46.5656 67.8184 45.5057 68.8774 45.5057 70.1837C45.5057 71.4901 46.5656 72.5491 47.873 72.5491Z" fill="#ECECEC"/>
<path d="M70.4943 72.5491C71.8018 72.5491 72.8616 71.4901 72.8616 70.1837C72.8616 68.8774 71.8018 67.8184 70.4943 67.8184C69.1869 67.8184 68.127 68.8774 68.127 70.1837C68.127 71.4901 69.1869 72.5491 70.4943 72.5491Z" fill="#ECECEC"/>
<path d="M93.3787 72.5491C94.6862 72.5491 95.7461 71.4901 95.7461 70.1837C95.7461 68.8774 94.6862 67.8184 93.3787 67.8184C92.0713 67.8184 91.0114 68.8774 91.0114 70.1837C91.0114 71.4901 92.0713 72.5491 93.3787 72.5491Z" fill="#ECECEC"/>
<path d="M116 72.5491C117.307 72.5491 118.367 71.4901 118.367 70.1837C118.367 68.8774 117.307 67.8184 116 67.8184C114.693 67.8184 113.633 68.8774 113.633 70.1837C113.633 71.4901 114.693 72.5491 116 72.5491Z" fill="#ECECEC"/>
<path d="M138.621 72.5491C139.929 72.5491 140.989 71.4901 140.989 70.1837C140.989 68.8774 139.929 67.8184 138.621 67.8184C137.314 67.8184 136.254 68.8774 136.254 70.1837C136.254 71.4901 137.314 72.5491 138.621 72.5491Z" fill="#ECECEC"/>
<path d="M161.506 72.5491C162.813 72.5491 163.873 71.4901 163.873 70.1837C163.873 68.8774 162.813 67.8184 161.506 67.8184C160.198 67.8184 159.138 68.8774 159.138 70.1837C159.138 71.4901 160.198 72.5491 161.506 72.5491Z" fill="#ECECEC"/>
<path d="M184.127 72.5491C185.435 72.5491 186.494 71.4901 186.494 70.1837C186.494 68.8774 185.435 67.8184 184.127 67.8184C182.82 67.8184 181.76 68.8774 181.76 70.1837C181.76 71.4901 182.82 72.5491 184.127 72.5491Z" fill="#ECECEC"/>
<path d="M207.011 72.5491C208.319 72.5491 209.379 71.4901 209.379 70.1837C209.379 68.8774 208.319 67.8184 207.011 67.8184C205.704 67.8184 204.644 68.8774 204.644 70.1837C204.644 71.4901 205.704 72.5491 207.011 72.5491Z" fill="#ECECEC"/>
<path d="M229.633 72.5491C230.94 72.5491 232 71.4901 232 70.1837C232 68.8774 230.94 67.8184 229.633 67.8184C228.325 67.8184 227.265 68.8774 227.265 70.1837C227.265 71.4901 228.325 72.5491 229.633 72.5491Z" fill="#ECECEC"/>
<path d="M2.36735 95.155C3.6748 95.155 4.7347 94.096 4.7347 92.7897C4.7347 91.4833 3.6748 90.4243 2.36735 90.4243C1.0599 90.4243 0 91.4833 0 92.7897C0 94.096 1.0599 95.155 2.36735 95.155Z" fill="#ECECEC"/>
<path d="M24.9887 95.155C26.2961 95.155 27.356 94.096 27.356 92.7897C27.356 91.4833 26.2961 90.4243 24.9887 90.4243C23.6812 90.4243 22.6213 91.4833 22.6213 92.7897C22.6213 94.096 23.6812 95.155 24.9887 95.155Z" fill="#ECECEC"/>
<path d="M47.873 95.155C49.1805 95.155 50.2404 94.096 50.2404 92.7897C50.2404 91.4833 49.1805 90.4243 47.873 90.4243C46.5656 90.4243 45.5057 91.4833 45.5057 92.7897C45.5057 94.096 46.5656 95.155 47.873 95.155Z" fill="#ECECEC"/>
<path d="M70.4943 95.155C71.8018 95.155 72.8616 94.096 72.8616 92.7897C72.8616 91.4833 71.8018 90.4243 70.4943 90.4243C69.1869 90.4243 68.127 91.4833 68.127 92.7897C68.127 94.096 69.1869 95.155 70.4943 95.155Z" fill="#ECECEC"/>
<path d="M93.3787 95.155C94.6862 95.155 95.7461 94.096 95.7461 92.7897C95.7461 91.4833 94.6862 90.4243 93.3787 90.4243C92.0713 90.4243 91.0114 91.4833 91.0114 92.7897C91.0114 94.096 92.0713 95.155 93.3787 95.155Z" fill="#ECECEC"/>
<path d="M116 95.155C117.307 95.155 118.367 94.096 118.367 92.7897C118.367 91.4833 117.307 90.4243 116 90.4243C114.693 90.4243 113.633 91.4833 113.633 92.7897C113.633 94.096 114.693 95.155 116 95.155Z" fill="#ECECEC"/>
<path d="M138.621 95.155C139.929 95.155 140.989 94.096 140.989 92.7897C140.989 91.4833 139.929 90.4243 138.621 90.4243C137.314 90.4243 136.254 91.4833 136.254 92.7897C136.254 94.096 137.314 95.155 138.621 95.155Z" fill="#ECECEC"/>
<path d="M161.506 95.155C162.813 95.155 163.873 94.096 163.873 92.7897C163.873 91.4833 162.813 90.4243 161.506 90.4243C160.198 90.4243 159.138 91.4833 159.138 92.7897C159.138 94.096 160.198 95.155 161.506 95.155Z" fill="#ECECEC"/>
<path d="M184.127 95.155C185.435 95.155 186.494 94.096 186.494 92.7897C186.494 91.4833 185.435 90.4243 184.127 90.4243C182.82 90.4243 181.76 91.4833 181.76 92.7897C181.76 94.096 182.82 95.155 184.127 95.155Z" fill="#ECECEC"/>
<path d="M207.011 95.155C208.319 95.155 209.379 94.096 209.379 92.7897C209.379 91.4833 208.319 90.4243 207.011 90.4243C205.704 90.4243 204.644 91.4833 204.644 92.7897C204.644 94.096 205.704 95.155 207.011 95.155Z" fill="#ECECEC"/>
<path d="M229.633 95.155C230.94 95.155 232 94.096 232 92.7897C232 91.4833 230.94 90.4243 229.633 90.4243C228.325 90.4243 227.265 91.4833 227.265 92.7897C227.265 94.096 228.325 95.155 229.633 95.155Z" fill="#ECECEC"/>
<path d="M2.36735 117.761C3.6748 117.761 4.7347 116.702 4.7347 115.396C4.7347 114.09 3.6748 113.031 2.36735 113.031C1.0599 113.031 0 114.09 0 115.396C0 116.702 1.0599 117.761 2.36735 117.761Z" fill="#ECECEC"/>
<path d="M24.9887 117.761C26.2961 117.761 27.356 116.702 27.356 115.396C27.356 114.09 26.2961 113.031 24.9887 113.031C23.6812 113.031 22.6213 114.09 22.6213 115.396C22.6213 116.702 23.6812 117.761 24.9887 117.761Z" fill="#ECECEC"/>
<path d="M47.873 117.761C49.1805 117.761 50.2404 116.702 50.2404 115.396C50.2404 114.09 49.1805 113.031 47.873 113.031C46.5656 113.031 45.5057 114.09 45.5057 115.396C45.5057 116.702 46.5656 117.761 47.873 117.761Z" fill="#ECECEC"/>
<path d="M70.4943 117.761C71.8018 117.761 72.8616 116.702 72.8616 115.396C72.8616 114.09 71.8018 113.031 70.4943 113.031C69.1869 113.031 68.127 114.09 68.127 115.396C68.127 116.702 69.1869 117.761 70.4943 117.761Z" fill="#ECECEC"/>
<path d="M93.3787 117.761C94.6862 117.761 95.7461 116.702 95.7461 115.396C95.7461 114.09 94.6862 113.031 93.3787 113.031C92.0713 113.031 91.0114 114.09 91.0114 115.396C91.0114 116.702 92.0713 117.761 93.3787 117.761Z" fill="#ECECEC"/>
<path d="M116 117.761C117.307 117.761 118.367 116.702 118.367 115.396C118.367 114.09 117.307 113.031 116 113.031C114.693 113.031 113.633 114.09 113.633 115.396C113.633 116.702 114.693 117.761 116 117.761Z" fill="#ECECEC"/>
<path d="M138.621 117.761C139.929 117.761 140.989 116.702 140.989 115.396C140.989 114.09 139.929 113.031 138.621 113.031C137.314 113.031 136.254 114.09 136.254 115.396C136.254 116.702 137.314 117.761 138.621 117.761Z" fill="#ECECEC"/>
<path d="M161.506 117.761C162.813 117.761 163.873 116.702 163.873 115.396C163.873 114.09 162.813 113.031 161.506 113.031C160.198 113.031 159.138 114.09 159.138 115.396C159.138 116.702 160.198 117.761 161.506 117.761Z" fill="#ECECEC"/>
<path d="M184.127 117.761C185.435 117.761 186.494 116.702 186.494 115.396C186.494 114.09 185.435 113.031 184.127 113.031C182.82 113.031 181.76 114.09 181.76 115.396C181.76 116.702 182.82 117.761 184.127 117.761Z" fill="#ECECEC"/>
<path d="M207.011 117.761C208.319 117.761 209.379 116.702 209.379 115.396C209.379 114.09 208.319 113.031 207.011 113.031C205.704 113.031 204.644 114.09 204.644 115.396C204.644 116.702 205.704 117.761 207.011 117.761Z" fill="#ECECEC"/>
<path d="M229.633 117.761C230.94 117.761 232 116.702 232 115.396C232 114.09 230.94 113.031 229.633 113.031C228.325 113.031 227.265 114.09 227.265 115.396C227.265 116.702 228.325 117.761 229.633 117.761Z" fill="#ECECEC"/>
<path d="M2.36735 140.367C3.6748 140.367 4.7347 139.308 4.7347 138.002C4.7347 136.696 3.6748 135.637 2.36735 135.637C1.0599 135.637 0 136.696 0 138.002C0 139.308 1.0599 140.367 2.36735 140.367Z" fill="#ECECEC"/>
<path d="M24.9887 140.367C26.2961 140.367 27.356 139.308 27.356 138.002C27.356 136.696 26.2961 135.637 24.9887 135.637C23.6812 135.637 22.6213 136.696 22.6213 138.002C22.6213 139.308 23.6812 140.367 24.9887 140.367Z" fill="#ECECEC"/>
<path d="M47.873 140.367C49.1805 140.367 50.2404 139.308 50.2404 138.002C50.2404 136.696 49.1805 135.637 47.873 135.637C46.5656 135.637 45.5057 136.696 45.5057 138.002C45.5057 139.308 46.5656 140.367 47.873 140.367Z" fill="#ECECEC"/>
<path d="M70.4943 140.367C71.8018 140.367 72.8616 139.308 72.8616 138.002C72.8616 136.696 71.8018 135.637 70.4943 135.637C69.1869 135.637 68.127 136.696 68.127 138.002C68.127 139.308 69.1869 140.367 70.4943 140.367Z" fill="#ECECEC"/>
<path d="M93.3787 140.367C94.6862 140.367 95.7461 139.308 95.7461 138.002C95.7461 136.696 94.6862 135.637 93.3787 135.637C92.0713 135.637 91.0114 136.696 91.0114 138.002C91.0114 139.308 92.0713 140.367 93.3787 140.367Z" fill="#ECECEC"/>
<path d="M116 140.367C117.307 140.367 118.367 139.308 118.367 138.002C118.367 136.696 117.307 135.637 116 135.637C114.693 135.637 113.633 136.696 113.633 138.002C113.633 139.308 114.693 140.367 116 140.367Z" fill="#ECECEC"/>
<path d="M138.621 140.367C139.929 140.367 140.989 139.308 140.989 138.002C140.989 136.696 139.929 135.637 138.621 135.637C137.314 135.637 136.254 136.696 136.254 138.002C136.254 139.308 137.314 140.367 138.621 140.367Z" fill="#ECECEC"/>
<path d="M161.506 140.367C162.813 140.367 163.873 139.308 163.873 138.002C163.873 136.696 162.813 135.637 161.506 135.637C160.198 135.637 159.138 136.696 159.138 138.002C159.138 139.308 160.198 140.367 161.506 140.367Z" fill="#ECECEC"/>
<path d="M184.127 140.367C185.435 140.367 186.494 139.308 186.494 138.002C186.494 136.696 185.435 135.637 184.127 135.637C182.82 135.637 181.76 136.696 181.76 138.002C181.76 139.308 182.82 140.367 184.127 140.367Z" fill="#ECECEC"/>
<path d="M207.011 140.367C208.319 140.367 209.379 139.308 209.379 138.002C209.379 136.696 208.319 135.637 207.011 135.637C205.704 135.637 204.644 136.696 204.644 138.002C204.644 139.308 205.704 140.367 207.011 140.367Z" fill="#ECECEC"/>
<path d="M229.633 140.367C230.94 140.367 232 139.308 232 138.002C232 136.696 230.94 135.637 229.633 135.637C228.325 135.637 227.265 136.696 227.265 138.002C227.265 139.308 228.325 140.367 229.633 140.367Z" fill="#ECECEC"/>
<path d="M2.36735 162.973C3.6748 162.973 4.7347 161.914 4.7347 160.608C4.7347 159.302 3.6748 158.243 2.36735 158.243C1.0599 158.243 0 159.302 0 160.608C0 161.914 1.0599 162.973 2.36735 162.973Z" fill="#ECECEC"/>
<path d="M24.9887 162.973C26.2961 162.973 27.356 161.914 27.356 160.608C27.356 159.302 26.2961 158.243 24.9887 158.243C23.6812 158.243 22.6213 159.302 22.6213 160.608C22.6213 161.914 23.6812 162.973 24.9887 162.973Z" fill="#ECECEC"/>
<path d="M47.873 162.973C49.1805 162.973 50.2404 161.914 50.2404 160.608C50.2404 159.302 49.1805 158.243 47.873 158.243C46.5656 158.243 45.5057 159.302 45.5057 160.608C45.5057 161.914 46.5656 162.973 47.873 162.973Z" fill="#ECECEC"/>
<path d="M70.4943 162.973C71.8018 162.973 72.8616 161.914 72.8616 160.608C72.8616 159.302 71.8018 158.243 70.4943 158.243C69.1869 158.243 68.127 159.302 68.127 160.608C68.127 161.914 69.1869 162.973 70.4943 162.973Z" fill="#ECECEC"/>
<path d="M93.3787 162.973C94.6862 162.973 95.7461 161.914 95.7461 160.608C95.7461 159.302 94.6862 158.243 93.3787 158.243C92.0713 158.243 91.0114 159.302 91.0114 160.608C91.0114 161.914 92.0713 162.973 93.3787 162.973Z" fill="#ECECEC"/>
<path d="M116 162.973C117.307 162.973 118.367 161.914 118.367 160.608C118.367 159.302 117.307 158.243 116 158.243C114.693 158.243 113.633 159.302 113.633 160.608C113.633 161.914 114.693 162.973 116 162.973Z" fill="#ECECEC"/>
<path d="M138.621 162.973C139.929 162.973 140.989 161.914 140.989 160.608C140.989 159.302 139.929 158.243 138.621 158.243C137.314 158.243 136.254 159.302 136.254 160.608C136.254 161.914 137.314 162.973 138.621 162.973Z" fill="#ECECEC"/>
<path d="M161.506 162.973C162.813 162.973 163.873 161.914 163.873 160.608C163.873 159.302 162.813 158.243 161.506 158.243C160.198 158.243 159.138 159.302 159.138 160.608C159.138 161.914 160.198 162.973 161.506 162.973Z" fill="#ECECEC"/>
<path d="M184.127 162.973C185.435 162.973 186.494 161.914 186.494 160.608C186.494 159.302 185.435 158.243 184.127 158.243C182.82 158.243 181.76 159.302 181.76 160.608C181.76 161.914 182.82 162.973 184.127 162.973Z" fill="#ECECEC"/>
<path d="M207.011 162.973C208.319 162.973 209.379 161.914 209.379 160.608C209.379 159.302 208.319 158.243 207.011 158.243C205.704 158.243 204.644 159.302 204.644 160.608C204.644 161.914 205.704 162.973 207.011 162.973Z" fill="#ECECEC"/>
<path d="M229.633 162.973C230.94 162.973 232 161.914 232 160.608C232 159.302 230.94 158.243 229.633 158.243C228.325 158.243 227.265 159.302 227.265 160.608C227.265 161.914 228.325 162.973 229.633 162.973Z" fill="#ECECEC"/>
</svg>
