<svg width="48" height="48" viewBox="0 0 48 48" fill="none" xmlns="http://www.w3.org/2000/svg">
<path d="M41.8904 20.0283L24 14.0979L6.10963 20.0283L0.000946045 29.7314L5.62456 31.5956V41.9089L23.9999 48L42.3753 41.9089V31.5956L47.9989 29.7314L41.8904 20.0283ZM36.4997 21.2044L24 25.3478L11.5004 21.2044L24 17.061L36.4997 21.2044ZM4.29403 28.1914L7.63413 22.8858L21.8535 27.5993L18.5135 32.9048L4.29403 28.1914ZM8.43721 32.5279L19.7198 36.2679L22.5937 31.7028V44.5708L8.43721 39.8782V32.5279ZM25.4063 44.5707V31.7027L28.2803 36.2678L39.5628 32.5278V39.8781L25.4063 44.5707ZM29.4866 32.9049L26.1466 27.5994L40.3659 22.8859L43.706 28.1915L29.4866 32.9049Z" fill="#00AAE7"/>
<path d="M22.5937 -3.8147e-06H25.4063V9.39149H22.5937V-3.8147e-06Z" fill="#00AAE7"/>
<path d="M9.36725 4.29756L11.8029 2.89128L16.4987 11.0243L14.063 12.4306L9.36725 4.29756Z" fill="#00AAE7"/>
<path d="M31.5008 11.0253L36.1965 2.89223L38.6322 4.29851L33.9364 12.4316L31.5008 11.0253Z" fill="#00AAE7"/>
</svg>
