<svg width="48" height="48" viewBox="0 0 48 48" fill="none" xmlns="http://www.w3.org/2000/svg">
<path d="M48 7.43128C48 3.33366 44.6663 0 40.5687 0H7.43137C3.33366 0 0 3.33366 0 7.43128V35.2969C0 38.1486 2.32013 40.4687 5.17181 40.4687H13.5563V46.5938C13.5563 47.0812 13.8086 47.5338 14.2232 47.79C14.6378 48.0462 15.1554 48.0695 15.5914 47.8516L20.9874 45.1535L26.3835 47.8516C26.582 47.9509 26.7974 48 27.0124 48C27.2695 48 27.5259 47.9296 27.7517 47.79C28.1663 47.5338 28.4186 47.0812 28.4186 46.5938V40.4687H36.8032C39.6548 40.4687 41.975 38.1487 41.975 35.2969V14.7273C45.4023 14.0679 48 11.048 48 7.43128ZM7.43137 2.8125C9.97809 2.8125 12.0501 4.88447 12.0501 7.43128C12.0501 9.97809 9.97809 12.0501 7.43137 12.0501C4.88456 12.05 2.8125 9.978 2.8125 7.43128C2.8125 4.88456 4.88456 2.8125 7.43137 2.8125ZM21.6164 42.3234C21.2204 42.1255 20.7546 42.1255 20.3586 42.3234L16.3688 44.3184V38.8526C17.638 39.8629 19.2429 40.4687 20.9875 40.4687C22.7321 40.4687 24.337 39.8629 25.6063 38.8526V39.0607C25.6063 39.0613 25.6062 39.0619 25.6062 39.0624C25.6062 39.0631 25.6063 39.0637 25.6063 39.0643V44.3184L21.6164 42.3234ZM16.3688 33.0375C16.3688 30.4907 18.4407 28.4186 20.9875 28.4186C23.5343 28.4186 25.6063 30.4907 25.6063 33.0375C25.6063 35.5842 23.5343 37.6562 20.9875 37.6562C18.4407 37.6562 16.3688 35.5842 16.3688 33.0375ZM36.8032 37.6562H28.4186V33.0375C28.4186 28.9399 25.085 25.6061 20.9873 25.6061C16.8897 25.6061 13.5563 28.9399 13.5563 33.0375V37.6562H5.17181C3.87094 37.6562 2.8125 36.5978 2.8125 35.2969V13.2463C4.08187 14.2566 5.68669 14.8625 7.43137 14.8625H39.1626V35.2969C39.1625 36.5978 38.1041 37.6562 36.8032 37.6562ZM40.5687 12.05H13.2464C14.2567 10.7807 14.8625 9.17578 14.8625 7.43119C14.8625 5.68659 14.2567 4.08178 13.2464 2.8125H40.5688C43.1155 2.8125 45.1875 4.88447 45.1875 7.43128C45.1875 9.97809 43.1155 12.05 40.5687 12.05Z" fill="#00AAE7"/>
</svg>
