<svg width="48" height="48" viewBox="0 0 48 48" fill="none" xmlns="http://www.w3.org/2000/svg">
<path d="M24 14.1562C29.4278 14.1562 33.8438 18.5722 33.8438 24C33.8438 29.4278 29.4278 33.8438 24 33.8438C18.5722 33.8438 14.1562 29.4278 14.1562 24C14.1562 18.5722 18.5722 14.1562 24 14.1562ZM24 31.0312C27.877 31.0312 31.0312 27.877 31.0312 24C31.0312 20.123 27.877 16.9688 24 16.9688C20.123 16.9688 16.9688 20.123 16.9688 24C16.9688 27.877 20.123 31.0312 24 31.0312Z" fill="#00AAE7"/>
<path d="M4.21875 8.4375C1.89253 8.4375 0 6.54497 0 4.21875C0 1.89253 1.89253 0 4.21875 0C6.54497 0 8.4375 1.89253 8.4375 4.21875C8.4375 4.86928 8.28928 5.48569 8.02518 6.03647L12.0675 10.0788L13.062 9.08438C13.6108 8.53556 14.5016 8.53528 15.0507 9.08438L16.4693 10.503C17.5246 9.909 18.6323 9.44597 19.7812 9.11841V7.125C19.7812 6.34837 20.4109 5.71875 21.1875 5.71875H26.8125C27.5891 5.71875 28.2188 6.34837 28.2188 7.125V9.1185C29.3677 9.44597 30.4754 9.909 31.5307 10.503L32.9493 9.08438C33.4984 8.53519 34.3888 8.53519 34.938 9.08438L35.9324 10.0788L39.9748 6.03647C39.7107 5.48569 39.5625 4.86928 39.5625 4.21875C39.5625 1.89253 41.455 0 43.7812 0C46.1075 0 48 1.89253 48 4.21875C48 6.54497 46.1075 8.4375 43.7812 8.4375C43.1307 8.4375 42.5143 8.28928 41.9635 8.02519L37.9212 12.0675L38.9156 13.062C39.4645 13.6109 39.4647 14.5016 38.9156 15.0507L37.497 16.4693C38.091 17.5246 38.554 18.6323 38.8815 19.7812H40.875C41.6516 19.7812 42.2812 20.4109 42.2812 21.1875V26.8125C42.2812 27.5891 41.6516 28.2188 40.875 28.2188H38.8815C38.554 29.3677 38.091 30.4754 37.497 31.5307L38.9156 32.9493C39.4645 33.4982 39.4647 34.3889 38.9156 34.938L37.9212 35.9324L41.9635 39.9747C42.5143 39.7107 43.1307 39.5625 43.7812 39.5625C46.1075 39.5625 48 41.455 48 43.7812C48 46.1075 46.1075 48 43.7812 48C41.455 48 39.5625 46.1075 39.5625 43.7812C39.5625 43.1307 39.7107 42.5143 39.9748 41.9635L35.9325 37.9212L34.9381 38.9156C34.389 39.4648 33.4986 39.4647 32.9494 38.9156L31.5308 37.497C30.4755 38.091 29.3678 38.554 28.2188 38.8816V40.875C28.2188 41.6516 27.5892 42.2812 26.8126 42.2812H21.1876C20.411 42.2812 19.7813 41.6516 19.7813 40.875V38.8815C18.6324 38.554 17.5247 38.0909 16.4694 37.4969L15.0508 38.9155C14.502 39.4643 13.6112 39.4646 13.0621 38.9155L12.0677 37.9211L8.02538 41.9634C8.28928 42.5143 8.4375 43.1307 8.4375 43.7812C8.4375 46.1075 6.54497 48 4.21875 48C1.89253 48 0 46.1075 0 43.7812C0 41.455 1.89253 39.5625 4.21875 39.5625C4.86928 39.5625 5.48569 39.7107 6.03647 39.9748L10.0788 35.9325L9.08437 34.9381C8.53519 34.3889 8.53519 33.4986 9.08437 32.9494L10.503 31.5308C9.909 30.4755 9.44597 29.3678 9.1185 28.2188H7.125C6.34837 28.2188 5.71875 27.5892 5.71875 26.8126V21.1876C5.71875 20.411 6.34837 19.7813 7.125 19.7813H9.1185C9.44597 18.6324 9.909 17.5247 10.503 16.4694L9.08437 15.0508C8.53519 14.5016 8.53519 13.6113 9.08437 13.0621L10.0788 12.0677L6.03647 8.02537C5.48569 8.28928 4.86928 8.4375 4.21875 8.4375ZM4.21875 2.8125C3.44334 2.8125 2.8125 3.44334 2.8125 4.21875C2.8125 4.99416 3.44334 5.625 4.21875 5.625C4.99416 5.625 5.625 4.99416 5.625 4.21875C5.625 3.44334 4.99416 2.8125 4.21875 2.8125ZM43.7812 5.625C44.5567 5.625 45.1875 4.99416 45.1875 4.21875C45.1875 3.44334 44.5567 2.8125 43.7812 2.8125C43.0058 2.8125 42.375 3.44334 42.375 4.21875C42.375 4.99416 43.0058 5.625 43.7812 5.625ZM43.7812 45.1875C44.5567 45.1875 45.1875 44.5567 45.1875 43.7812C45.1875 43.0058 44.5567 42.375 43.7812 42.375C43.0058 42.375 42.375 43.0058 42.375 43.7812C42.375 44.5567 43.0058 45.1875 43.7812 45.1875ZM4.21875 42.375C3.44334 42.375 2.8125 43.0058 2.8125 43.7812C2.8125 44.5567 3.44334 45.1875 4.21875 45.1875C4.99416 45.1875 5.625 44.5567 5.625 43.7812C5.625 43.0058 4.99416 42.375 4.21875 42.375ZM10.2218 22.5938H8.53125V25.4062H10.2218C10.8901 25.4062 11.4661 25.8767 11.5997 26.5316C11.9198 28.1019 12.5431 29.5937 13.4523 30.9653C13.8218 31.5229 13.7475 32.2636 13.2745 32.7367L12.0675 33.9437C12.7456 34.6218 13.3073 35.1834 14.0563 35.9325L15.2633 34.7255C15.7362 34.2525 16.477 34.1782 17.0347 34.5477C18.4063 35.4569 19.8981 36.0802 21.4685 36.4003C22.1233 36.5338 22.5938 37.1098 22.5938 37.7782V39.4688H25.4062V37.7782C25.4062 37.1099 25.8767 36.5339 26.5315 36.4003C28.1018 36.0802 29.5937 35.4568 30.9653 34.5477C31.5228 34.1782 32.2635 34.2525 32.7366 34.7255L33.9436 35.9325L35.9324 33.9437L34.7254 32.7367C34.2524 32.2637 34.1781 31.5229 34.5476 30.9653C35.4568 29.5937 36.0801 28.1019 36.4002 26.5316C36.5337 25.8767 37.1097 25.4062 37.7782 25.4062H39.4688V22.5938H37.7782C37.1099 22.5938 36.5339 22.1233 36.4003 21.4684C36.0802 19.8981 35.4569 18.4063 34.5477 17.0347C34.1782 16.4771 34.2525 15.7364 34.7255 15.2633L35.9325 14.0563L33.9437 12.0675L32.7367 13.2745C32.2638 13.7475 31.5229 13.8219 30.9653 13.4523C29.5937 12.5431 28.102 11.9198 26.5316 11.5997C25.8768 11.4662 25.4063 10.8902 25.4063 10.2218V8.53125H22.5938V10.2218C22.5938 10.8901 22.1234 11.4662 21.4686 11.5997C19.8982 11.9198 18.4064 12.5432 17.0348 13.4523C16.4771 13.8218 15.7363 13.7475 15.2634 13.2745L14.0564 12.0675L12.0676 14.0563L13.2746 15.2633C13.7476 15.7363 13.8219 16.477 13.4524 17.0347C12.5432 18.4063 11.9199 19.8981 11.5998 21.4684C11.4662 22.1233 10.8902 22.5938 10.2218 22.5938Z" fill="#00AAE7"/>
</svg>
