<svg width="16" height="102" viewBox="0 0 16 102" fill="none" xmlns="http://www.w3.org/2000/svg">
<path d="M3.81445 12.1699C2.7832 12.1699 1.97266 11.7773 1.38281 10.9922C0.796875 10.2031 0.503906 9.12695 0.503906 7.76367C0.503906 6.4082 0.798828 5.33789 1.38867 4.55273C1.97852 3.76758 2.78711 3.375 3.81445 3.375C4.8418 3.375 5.64844 3.76758 6.23438 4.55273C6.82031 5.33398 7.11328 6.40234 7.11328 7.75781C7.11328 9.11719 6.82031 10.1934 6.23438 10.9863C5.64844 11.7754 4.8418 12.1699 3.81445 12.1699ZM3.81445 10.9336C4.37305 10.9336 4.80664 10.6543 5.11523 10.0957C5.42773 9.53711 5.58398 8.75977 5.58398 7.76367C5.58398 6.77539 5.42773 6.00391 5.11523 5.44922C4.80273 4.89062 4.36914 4.61133 3.81445 4.61133C3.25977 4.61133 2.82227 4.89062 2.50195 5.44922C2.18555 6.00781 2.02734 6.77734 2.02734 7.75781C2.02734 8.75391 2.18359 9.5332 2.49609 10.0957C2.8125 10.6543 3.25195 10.9336 3.81445 10.9336ZM12.2695 12V10.4004H8.05078V9.09961C8.74609 7.78711 9.91602 5.93555 11.5605 3.54492H13.7109V9.16406H14.8477V10.4004H13.7109V12H12.2695ZM9.42188 9.1582V9.19922H12.293V4.66406H12.2695C11.5547 5.69922 10.9824 6.55469 10.5527 7.23047C10.123 7.90625 9.74609 8.54883 9.42188 9.1582Z" fill="#C4C4C4"/>
<path d="M3.81445 98.1699C2.7832 98.1699 1.97266 97.7773 1.38281 96.9922C0.796875 96.2031 0.503906 95.127 0.503906 93.7637C0.503906 92.4082 0.798828 91.3379 1.38867 90.5527C1.97852 89.7676 2.78711 89.375 3.81445 89.375C4.8418 89.375 5.64844 89.7676 6.23438 90.5527C6.82031 91.334 7.11328 92.4023 7.11328 93.7578C7.11328 95.1172 6.82031 96.1934 6.23438 96.9863C5.64844 97.7754 4.8418 98.1699 3.81445 98.1699ZM3.81445 96.9336C4.37305 96.9336 4.80664 96.6543 5.11523 96.0957C5.42773 95.5371 5.58398 94.7598 5.58398 93.7637C5.58398 92.7754 5.42773 92.0039 5.11523 91.4492C4.80273 90.8906 4.36914 90.6113 3.81445 90.6113C3.25977 90.6113 2.82227 90.8906 2.50195 91.4492C2.18555 92.0078 2.02734 92.7773 2.02734 93.7578C2.02734 94.7539 2.18359 95.5332 2.49609 96.0957C2.8125 96.6543 3.25195 96.9336 3.81445 96.9336ZM11.3379 98.1699C10.4668 98.1699 9.74414 97.9336 9.16992 97.4609C8.5957 96.9844 8.29297 96.3711 8.26172 95.6211H9.67969C9.72656 96.0117 9.9043 96.3301 10.2129 96.5762C10.5254 96.8223 10.9043 96.9453 11.3496 96.9453C11.8535 96.9453 12.2617 96.7871 12.5742 96.4707C12.8906 96.1543 13.0488 95.7461 13.0488 95.2461C13.0488 94.7383 12.8906 94.3242 12.5742 94.0039C12.2617 93.6797 11.8574 93.5176 11.3613 93.5176C11.0176 93.5176 10.7031 93.5918 10.418 93.7402C10.1367 93.8887 9.91797 94.0957 9.76172 94.3613H8.39062L8.83008 89.5449H14.0098V90.7812H10.0254L9.80859 93.2539H9.84375C10.0195 92.9805 10.2734 92.7656 10.6055 92.6094C10.9375 92.4492 11.3105 92.3691 11.7246 92.3691C12.5332 92.3691 13.1992 92.6367 13.7227 93.1719C14.2461 93.7031 14.5078 94.3809 14.5078 95.2051C14.5078 96.084 14.2129 96.7988 13.623 97.3496C13.0371 97.8965 12.2754 98.1699 11.3379 98.1699Z" fill="#C4C4C4"/>
<line x1="7.5" y1="23" x2="7.5" y2="80" stroke="#C4C4C4"/>
</svg>
