<svg width="16" height="102" viewBox="0 0 16 102" fill="none" xmlns="http://www.w3.org/2000/svg">
<path d="M3.81445 12.1699C2.7832 12.1699 1.97266 11.7773 1.38281 10.9922C0.796875 10.2031 0.503906 9.12695 0.503906 7.76367C0.503906 6.4082 0.798828 5.33789 1.38867 4.55273C1.97852 3.76758 2.78711 3.375 3.81445 3.375C4.8418 3.375 5.64844 3.76758 6.23438 4.55273C6.82031 5.33398 7.11328 6.40234 7.11328 7.75781C7.11328 9.11719 6.82031 10.1934 6.23438 10.9863C5.64844 11.7754 4.8418 12.1699 3.81445 12.1699ZM3.81445 10.9336C4.37305 10.9336 4.80664 10.6543 5.11523 10.0957C5.42773 9.53711 5.58398 8.75977 5.58398 7.76367C5.58398 6.77539 5.42773 6.00391 5.11523 5.44922C4.80273 4.89062 4.36914 4.61133 3.81445 4.61133C3.25977 4.61133 2.82227 4.89062 2.50195 5.44922C2.18555 6.00781 2.02734 6.77734 2.02734 7.75781C2.02734 8.75391 2.18359 9.5332 2.49609 10.0957C2.8125 10.6543 3.25195 10.9336 3.81445 10.9336ZM8.52539 12L12.2344 4.81055V4.78125H7.83984V3.54492H13.7227V4.80469L10.1074 12H8.52539Z" fill="#C4C4C4"/>
<path d="M3.81445 98.1699C2.7832 98.1699 1.97266 97.7773 1.38281 96.9922C0.796875 96.2031 0.503906 95.127 0.503906 93.7637C0.503906 92.4082 0.798828 91.3379 1.38867 90.5527C1.97852 89.7676 2.78711 89.375 3.81445 89.375C4.8418 89.375 5.64844 89.7676 6.23438 90.5527C6.82031 91.334 7.11328 92.4023 7.11328 93.7578C7.11328 95.1172 6.82031 96.1934 6.23438 96.9863C5.64844 97.7754 4.8418 98.1699 3.81445 98.1699ZM3.81445 96.9336C4.37305 96.9336 4.80664 96.6543 5.11523 96.0957C5.42773 95.5371 5.58398 94.7598 5.58398 93.7637C5.58398 92.7754 5.42773 92.0039 5.11523 91.4492C4.80273 90.8906 4.36914 90.6113 3.81445 90.6113C3.25977 90.6113 2.82227 90.8906 2.50195 91.4492C2.18555 92.0078 2.02734 92.7773 2.02734 93.7578C2.02734 94.7539 2.18359 95.5332 2.49609 96.0957C2.8125 96.6543 3.25195 96.9336 3.81445 96.9336ZM11.4141 98.1699C10.4375 98.1699 9.64453 97.9414 9.03516 97.4844C8.42578 97.0273 8.12109 96.4375 8.12109 95.7148C8.12109 95.168 8.29688 94.6973 8.64844 94.3027C9.00391 93.9043 9.46875 93.6504 10.043 93.541V93.5117C9.5625 93.3867 9.17773 93.1523 8.88867 92.8086C8.59961 92.4609 8.45508 92.0586 8.45508 91.6016C8.45508 90.957 8.73242 90.4258 9.28711 90.0078C9.8457 89.5859 10.5547 89.375 11.4141 89.375C12.2773 89.375 12.9844 89.5859 13.5352 90.0078C14.0898 90.4258 14.3672 90.959 14.3672 91.6074C14.3672 92.0605 14.2227 92.459 13.9336 92.8027C13.6484 93.1465 13.2656 93.3828 12.7852 93.5117V93.541C13.3633 93.6543 13.8281 93.9102 14.1797 94.3086C14.5352 94.7031 14.7129 95.1719 14.7129 95.7148C14.7129 96.4375 14.4062 97.0273 13.793 97.4844C13.1797 97.9414 12.3867 98.1699 11.4141 98.1699ZM10.1719 96.6172C10.4961 96.8828 10.9102 97.0156 11.4141 97.0156C11.918 97.0156 12.332 96.8828 12.6562 96.6172C12.9805 96.3516 13.1426 96.0137 13.1426 95.6035C13.1426 95.1895 12.9805 94.8496 12.6562 94.584C12.3359 94.3184 11.9219 94.1855 11.4141 94.1855C10.9102 94.1855 10.4961 94.3203 10.1719 94.5898C9.84766 94.8555 9.68555 95.1934 9.68555 95.6035C9.68555 96.0137 9.84766 96.3516 10.1719 96.6172ZM11.4141 93.0312C11.8398 93.0312 12.1895 92.9141 12.4629 92.6797C12.7363 92.4414 12.873 92.1406 12.873 91.7773C12.873 91.4102 12.7363 91.1094 12.4629 90.875C12.1895 90.6367 11.8398 90.5176 11.4141 90.5176C10.9844 90.5176 10.6328 90.6367 10.3594 90.875C10.0859 91.1094 9.94922 91.4102 9.94922 91.7773C9.94922 92.1406 10.0859 92.4414 10.3594 92.6797C10.6328 92.9141 10.9844 93.0312 11.4141 93.0312Z" fill="#C4C4C4"/>
<line x1="7.5" y1="23" x2="7.5" y2="80" stroke="#C4C4C4"/>
</svg>
