<svg width="16" height="102" viewBox="0 0 16 102" fill="none" xmlns="http://www.w3.org/2000/svg">
<path d="M3.81445 12.1699C2.7832 12.1699 1.97266 11.7773 1.38281 10.9922C0.796875 10.2031 0.503906 9.12695 0.503906 7.76367C0.503906 6.4082 0.798828 5.33789 1.38867 4.55273C1.97852 3.76758 2.78711 3.375 3.81445 3.375C4.8418 3.375 5.64844 3.76758 6.23438 4.55273C6.82031 5.33398 7.11328 6.40234 7.11328 7.75781C7.11328 9.11719 6.82031 10.1934 6.23438 10.9863C5.64844 11.7754 4.8418 12.1699 3.81445 12.1699ZM3.81445 10.9336C4.37305 10.9336 4.80664 10.6543 5.11523 10.0957C5.42773 9.53711 5.58398 8.75977 5.58398 7.76367C5.58398 6.77539 5.42773 6.00391 5.11523 5.44922C4.80273 4.89062 4.36914 4.61133 3.81445 4.61133C3.25977 4.61133 2.82227 4.89062 2.50195 5.44922C2.18555 6.00781 2.02734 6.77734 2.02734 7.75781C2.02734 8.75391 2.18359 9.5332 2.49609 10.0957C2.8125 10.6543 3.25195 10.9336 3.81445 10.9336ZM8.08008 6.05273C8.08008 5.27148 8.36133 4.63086 8.92383 4.13086C9.48633 3.62695 10.2051 3.375 11.0801 3.375C11.9199 3.375 12.6113 3.60352 13.1543 4.06055C13.7012 4.51758 13.9746 5.08984 13.9746 5.77734C13.9746 6.25 13.8418 6.69727 13.5762 7.11914C13.3145 7.53711 12.8789 8.05273 12.2695 8.66602L10.1777 10.7344V10.7637H14.1035V12H8.16211V10.9805L11.2734 7.88672C11.7539 7.39453 12.0781 7.00977 12.2461 6.73242C12.4141 6.45508 12.498 6.1582 12.498 5.8418C12.498 5.49023 12.3574 5.19336 12.0762 4.95117C11.7988 4.70898 11.4512 4.58789 11.0332 4.58789C10.5918 4.58789 10.2246 4.72656 9.93164 5.00391C9.64258 5.28125 9.49805 5.62891 9.49805 6.04688V6.07031H8.08008V6.05273Z" fill="#C4C4C4"/>
<path d="M3.81445 98.1699C2.7832 98.1699 1.97266 97.7773 1.38281 96.9922C0.796875 96.2031 0.503906 95.127 0.503906 93.7637C0.503906 92.4082 0.798828 91.3379 1.38867 90.5527C1.97852 89.7676 2.78711 89.375 3.81445 89.375C4.8418 89.375 5.64844 89.7676 6.23438 90.5527C6.82031 91.334 7.11328 92.4023 7.11328 93.7578C7.11328 95.1172 6.82031 96.1934 6.23438 96.9863C5.64844 97.7754 4.8418 98.1699 3.81445 98.1699ZM3.81445 96.9336C4.37305 96.9336 4.80664 96.6543 5.11523 96.0957C5.42773 95.5371 5.58398 94.7598 5.58398 93.7637C5.58398 92.7754 5.42773 92.0039 5.11523 91.4492C4.80273 90.8906 4.36914 90.6113 3.81445 90.6113C3.25977 90.6113 2.82227 90.8906 2.50195 91.4492C2.18555 92.0078 2.02734 92.7773 2.02734 93.7578C2.02734 94.7539 2.18359 95.5332 2.49609 96.0957C2.8125 96.6543 3.25195 96.9336 3.81445 96.9336ZM10.1836 94.2324V93.0957H11.2031C11.6367 93.0957 11.9883 92.9766 12.2578 92.7383C12.5273 92.4961 12.6621 92.1855 12.6621 91.8066C12.6621 91.4316 12.5332 91.1328 12.2754 90.9102C12.0215 90.6875 11.6621 90.5762 11.1973 90.5762C10.7637 90.5762 10.4102 90.6953 10.1367 90.9336C9.86328 91.168 9.71094 91.4824 9.67969 91.877H8.27344C8.31641 91.1152 8.60742 90.5078 9.14648 90.0547C9.68945 89.6016 10.3965 89.375 11.2676 89.375C12.1035 89.375 12.7871 89.582 13.3184 89.9961C13.8496 90.4102 14.1152 90.9453 14.1152 91.6016C14.1152 92.1211 13.9551 92.5605 13.6348 92.9199C13.3184 93.2754 12.8965 93.498 12.3691 93.5879V93.623C13.0059 93.6699 13.5117 93.877 13.8867 94.2441C14.2656 94.6074 14.4551 95.082 14.4551 95.668C14.4551 96.4102 14.1523 97.0137 13.5469 97.4785C12.9453 97.9395 12.1797 98.1699 11.25 98.1699C10.3281 98.1699 9.58398 97.9395 9.01758 97.4785C8.45117 97.0137 8.14844 96.4023 8.10938 95.6445H9.55078C9.58594 96.0352 9.75586 96.3477 10.0605 96.582C10.3652 96.8164 10.7656 96.9336 11.2617 96.9336C11.75 96.9336 12.1484 96.8105 12.457 96.5645C12.7656 96.3184 12.9199 96 12.9199 95.6094C12.9199 95.1836 12.7676 94.8477 12.4629 94.6016C12.1621 94.3555 11.75 94.2324 11.2266 94.2324H10.1836Z" fill="#C4C4C4"/>
<line x1="7.5" y1="23" x2="7.5" y2="80" stroke="#C4C4C4"/>
</svg>
