<svg width="16" height="102" viewBox="0 0 16 102" fill="none" xmlns="http://www.w3.org/2000/svg">
<path d="M3.81445 12.1699C2.7832 12.1699 1.97266 11.7773 1.38281 10.9922C0.796875 10.2031 0.503906 9.12695 0.503906 7.76367C0.503906 6.4082 0.798828 5.33789 1.38867 4.55273C1.97852 3.76758 2.78711 3.375 3.81445 3.375C4.8418 3.375 5.64844 3.76758 6.23438 4.55273C6.82031 5.33398 7.11328 6.40234 7.11328 7.75781C7.11328 9.11719 6.82031 10.1934 6.23438 10.9863C5.64844 11.7754 4.8418 12.1699 3.81445 12.1699ZM3.81445 10.9336C4.37305 10.9336 4.80664 10.6543 5.11523 10.0957C5.42773 9.53711 5.58398 8.75977 5.58398 7.76367C5.58398 6.77539 5.42773 6.00391 5.11523 5.44922C4.80273 4.89062 4.36914 4.61133 3.81445 4.61133C3.25977 4.61133 2.82227 4.89062 2.50195 5.44922C2.18555 6.00781 2.02734 6.77734 2.02734 7.75781C2.02734 8.75391 2.18359 9.5332 2.49609 10.0957C2.8125 10.6543 3.25195 10.9336 3.81445 10.9336ZM11.5254 12.1758C10.9082 12.1758 10.3574 12.0312 9.87305 11.7422C9.39258 11.4531 9.00977 11.0371 8.72461 10.4941C8.32227 9.79492 8.12109 8.91992 8.12109 7.86914C8.12109 6.46289 8.42773 5.36133 9.04102 4.56445C9.6543 3.76758 10.498 3.36914 11.5723 3.36914C12.3457 3.36914 13.0078 3.58008 13.5586 4.00195C14.1094 4.41992 14.4473 4.9707 14.5723 5.6543H13.0723C12.9746 5.33398 12.7891 5.07812 12.5156 4.88672C12.2422 4.69531 11.9238 4.59961 11.5605 4.59961C10.9277 4.59961 10.4355 4.88086 10.084 5.44336C9.73242 6.00586 9.55859 6.79492 9.5625 7.81055H9.5918C9.77148 7.39258 10.0664 7.05859 10.4766 6.80859C10.8867 6.55859 11.3555 6.43359 11.8828 6.43359C12.6875 6.43359 13.3555 6.69922 13.8867 7.23047C14.418 7.75781 14.6836 8.42188 14.6836 9.22266C14.6836 10.082 14.3867 10.7891 13.793 11.3438C13.1992 11.8984 12.4434 12.1758 11.5254 12.1758ZM11.5137 10.9395C11.9824 10.9395 12.3789 10.7773 12.7031 10.4531C13.0312 10.1289 13.1953 9.73438 13.1953 9.26953C13.1953 8.79297 13.0371 8.39844 12.7207 8.08594C12.4082 7.77344 12.0098 7.61719 11.5254 7.61719C11.041 7.61719 10.6367 7.77344 10.3125 8.08594C9.99219 8.39453 9.83203 8.7832 9.83203 9.25195C9.83203 9.72461 9.99414 10.125 10.3184 10.4531C10.6426 10.7773 11.041 10.9395 11.5137 10.9395Z" fill="#C4C4C4"/>
<path d="M3.81445 98.1699C2.7832 98.1699 1.97266 97.7773 1.38281 96.9922C0.796875 96.2031 0.503906 95.127 0.503906 93.7637C0.503906 92.4082 0.798828 91.3379 1.38867 90.5527C1.97852 89.7676 2.78711 89.375 3.81445 89.375C4.8418 89.375 5.64844 89.7676 6.23438 90.5527C6.82031 91.334 7.11328 92.4023 7.11328 93.7578C7.11328 95.1172 6.82031 96.1934 6.23438 96.9863C5.64844 97.7754 4.8418 98.1699 3.81445 98.1699ZM3.81445 96.9336C4.37305 96.9336 4.80664 96.6543 5.11523 96.0957C5.42773 95.5371 5.58398 94.7598 5.58398 93.7637C5.58398 92.7754 5.42773 92.0039 5.11523 91.4492C4.80273 90.8906 4.36914 90.6113 3.81445 90.6113C3.25977 90.6113 2.82227 90.8906 2.50195 91.4492C2.18555 92.0078 2.02734 92.7773 2.02734 93.7578C2.02734 94.7539 2.18359 95.5332 2.49609 96.0957C2.8125 96.6543 3.25195 96.9336 3.81445 96.9336ZM8.52539 98L12.2344 90.8105V90.7812H7.83984V89.5449H13.7227V90.8047L10.1074 98H8.52539Z" fill="#C4C4C4"/>
<line x1="7.5" y1="23" x2="7.5" y2="80" stroke="#C4C4C4"/>
</svg>
