<svg width="15" height="102" viewBox="0 0 15 102" fill="none" xmlns="http://www.w3.org/2000/svg">
<path d="M3.81445 12.1699C2.7832 12.1699 1.97266 11.7773 1.38281 10.9922C0.796875 10.2031 0.503906 9.12695 0.503906 7.76367C0.503906 6.4082 0.798828 5.33789 1.38867 4.55273C1.97852 3.76758 2.78711 3.375 3.81445 3.375C4.8418 3.375 5.64844 3.76758 6.23438 4.55273C6.82031 5.33398 7.11328 6.40234 7.11328 7.75781C7.11328 9.11719 6.82031 10.1934 6.23438 10.9863C5.64844 11.7754 4.8418 12.1699 3.81445 12.1699ZM3.81445 10.9336C4.37305 10.9336 4.80664 10.6543 5.11523 10.0957C5.42773 9.53711 5.58398 8.75977 5.58398 7.76367C5.58398 6.77539 5.42773 6.00391 5.11523 5.44922C4.80273 4.89062 4.36914 4.61133 3.81445 4.61133C3.25977 4.61133 2.82227 4.89062 2.50195 5.44922C2.18555 6.00781 2.02734 6.77734 2.02734 7.75781C2.02734 8.75391 2.18359 9.5332 2.49609 10.0957C2.8125 10.6543 3.25195 10.9336 3.81445 10.9336ZM10.2949 12V4.98633H10.2598L8.07422 6.52148V5.09766L10.2832 3.54492H11.7773V12H10.2949Z" fill="#C4C4C4"/>
<path d="M3.81445 98.1699C2.7832 98.1699 1.97266 97.7773 1.38281 96.9922C0.796875 96.2031 0.503906 95.127 0.503906 93.7637C0.503906 92.4082 0.798828 91.3379 1.38867 90.5527C1.97852 89.7676 2.78711 89.375 3.81445 89.375C4.8418 89.375 5.64844 89.7676 6.23438 90.5527C6.82031 91.334 7.11328 92.4023 7.11328 93.7578C7.11328 95.1172 6.82031 96.1934 6.23438 96.9863C5.64844 97.7754 4.8418 98.1699 3.81445 98.1699ZM3.81445 96.9336C4.37305 96.9336 4.80664 96.6543 5.11523 96.0957C5.42773 95.5371 5.58398 94.7598 5.58398 93.7637C5.58398 92.7754 5.42773 92.0039 5.11523 91.4492C4.80273 90.8906 4.36914 90.6113 3.81445 90.6113C3.25977 90.6113 2.82227 90.8906 2.50195 91.4492C2.18555 92.0078 2.02734 92.7773 2.02734 93.7578C2.02734 94.7539 2.18359 95.5332 2.49609 96.0957C2.8125 96.6543 3.25195 96.9336 3.81445 96.9336ZM8.08008 92.0527C8.08008 91.2715 8.36133 90.6309 8.92383 90.1309C9.48633 89.627 10.2051 89.375 11.0801 89.375C11.9199 89.375 12.6113 89.6035 13.1543 90.0605C13.7012 90.5176 13.9746 91.0898 13.9746 91.7773C13.9746 92.25 13.8418 92.6973 13.5762 93.1191C13.3145 93.5371 12.8789 94.0527 12.2695 94.666L10.1777 96.7344V96.7637H14.1035V98H8.16211V96.9805L11.2734 93.8867C11.7539 93.3945 12.0781 93.0098 12.2461 92.7324C12.4141 92.4551 12.498 92.1582 12.498 91.8418C12.498 91.4902 12.3574 91.1934 12.0762 90.9512C11.7988 90.709 11.4512 90.5879 11.0332 90.5879C10.5918 90.5879 10.2246 90.7266 9.93164 91.0039C9.64258 91.2812 9.49805 91.6289 9.49805 92.0469V92.0703H8.08008V92.0527Z" fill="#C4C4C4"/>
<line x1="7.5" y1="23" x2="7.5" y2="80" stroke="#C4C4C4"/>
</svg>
