<svg width="16" height="102" viewBox="0 0 16 102" fill="none" xmlns="http://www.w3.org/2000/svg">
<path d="M3.81445 12.1699C2.7832 12.1699 1.97266 11.7773 1.38281 10.9922C0.796875 10.2031 0.503906 9.12695 0.503906 7.76367C0.503906 6.4082 0.798828 5.33789 1.38867 4.55273C1.97852 3.76758 2.78711 3.375 3.81445 3.375C4.8418 3.375 5.64844 3.76758 6.23438 4.55273C6.82031 5.33398 7.11328 6.40234 7.11328 7.75781C7.11328 9.11719 6.82031 10.1934 6.23438 10.9863C5.64844 11.7754 4.8418 12.1699 3.81445 12.1699ZM3.81445 10.9336C4.37305 10.9336 4.80664 10.6543 5.11523 10.0957C5.42773 9.53711 5.58398 8.75977 5.58398 7.76367C5.58398 6.77539 5.42773 6.00391 5.11523 5.44922C4.80273 4.89062 4.36914 4.61133 3.81445 4.61133C3.25977 4.61133 2.82227 4.89062 2.50195 5.44922C2.18555 6.00781 2.02734 6.77734 2.02734 7.75781C2.02734 8.75391 2.18359 9.5332 2.49609 10.0957C2.8125 10.6543 3.25195 10.9336 3.81445 10.9336ZM11.3379 12.1699C10.4668 12.1699 9.74414 11.9336 9.16992 11.4609C8.5957 10.9844 8.29297 10.3711 8.26172 9.62109H9.67969C9.72656 10.0117 9.9043 10.3301 10.2129 10.5762C10.5254 10.8223 10.9043 10.9453 11.3496 10.9453C11.8535 10.9453 12.2617 10.7871 12.5742 10.4707C12.8906 10.1543 13.0488 9.74609 13.0488 9.24609C13.0488 8.73828 12.8906 8.32422 12.5742 8.00391C12.2617 7.67969 11.8574 7.51758 11.3613 7.51758C11.0176 7.51758 10.7031 7.5918 10.418 7.74023C10.1367 7.88867 9.91797 8.0957 9.76172 8.36133H8.39062L8.83008 3.54492H14.0098V4.78125H10.0254L9.80859 7.25391H9.84375C10.0195 6.98047 10.2734 6.76562 10.6055 6.60938C10.9375 6.44922 11.3105 6.36914 11.7246 6.36914C12.5332 6.36914 13.1992 6.63672 13.7227 7.17188C14.2461 7.70312 14.5078 8.38086 14.5078 9.20508C14.5078 10.084 14.2129 10.7988 13.623 11.3496C13.0371 11.8965 12.2754 12.1699 11.3379 12.1699Z" fill="#C4C4C4"/>
<path d="M3.81445 98.1699C2.7832 98.1699 1.97266 97.7773 1.38281 96.9922C0.796875 96.2031 0.503906 95.127 0.503906 93.7637C0.503906 92.4082 0.798828 91.3379 1.38867 90.5527C1.97852 89.7676 2.78711 89.375 3.81445 89.375C4.8418 89.375 5.64844 89.7676 6.23438 90.5527C6.82031 91.334 7.11328 92.4023 7.11328 93.7578C7.11328 95.1172 6.82031 96.1934 6.23438 96.9863C5.64844 97.7754 4.8418 98.1699 3.81445 98.1699ZM3.81445 96.9336C4.37305 96.9336 4.80664 96.6543 5.11523 96.0957C5.42773 95.5371 5.58398 94.7598 5.58398 93.7637C5.58398 92.7754 5.42773 92.0039 5.11523 91.4492C4.80273 90.8906 4.36914 90.6113 3.81445 90.6113C3.25977 90.6113 2.82227 90.8906 2.50195 91.4492C2.18555 92.0078 2.02734 92.7773 2.02734 93.7578C2.02734 94.7539 2.18359 95.5332 2.49609 96.0957C2.8125 96.6543 3.25195 96.9336 3.81445 96.9336ZM11.5254 98.1758C10.9082 98.1758 10.3574 98.0312 9.87305 97.7422C9.39258 97.4531 9.00977 97.0371 8.72461 96.4941C8.32227 95.7949 8.12109 94.9199 8.12109 93.8691C8.12109 92.4629 8.42773 91.3613 9.04102 90.5645C9.6543 89.7676 10.498 89.3691 11.5723 89.3691C12.3457 89.3691 13.0078 89.5801 13.5586 90.002C14.1094 90.4199 14.4473 90.9707 14.5723 91.6543H13.0723C12.9746 91.334 12.7891 91.0781 12.5156 90.8867C12.2422 90.6953 11.9238 90.5996 11.5605 90.5996C10.9277 90.5996 10.4355 90.8809 10.084 91.4434C9.73242 92.0059 9.55859 92.7949 9.5625 93.8105H9.5918C9.77148 93.3926 10.0664 93.0586 10.4766 92.8086C10.8867 92.5586 11.3555 92.4336 11.8828 92.4336C12.6875 92.4336 13.3555 92.6992 13.8867 93.2305C14.418 93.7578 14.6836 94.4219 14.6836 95.2227C14.6836 96.082 14.3867 96.7891 13.793 97.3438C13.1992 97.8984 12.4434 98.1758 11.5254 98.1758ZM11.5137 96.9395C11.9824 96.9395 12.3789 96.7773 12.7031 96.4531C13.0312 96.1289 13.1953 95.7344 13.1953 95.2695C13.1953 94.793 13.0371 94.3984 12.7207 94.0859C12.4082 93.7734 12.0098 93.6172 11.5254 93.6172C11.041 93.6172 10.6367 93.7734 10.3125 94.0859C9.99219 94.3945 9.83203 94.7832 9.83203 95.252C9.83203 95.7246 9.99414 96.125 10.3184 96.4531C10.6426 96.7773 11.041 96.9395 11.5137 96.9395Z" fill="#C4C4C4"/>
<line x1="7.5" y1="23" x2="7.5" y2="80" stroke="#C4C4C4"/>
</svg>
