<svg width="16" height="102" viewBox="0 0 16 102" fill="none" xmlns="http://www.w3.org/2000/svg">
<path d="M3.81445 12.1699C2.7832 12.1699 1.97266 11.7773 1.38281 10.9922C0.796875 10.2031 0.503906 9.12695 0.503906 7.76367C0.503906 6.4082 0.798828 5.33789 1.38867 4.55273C1.97852 3.76758 2.78711 3.375 3.81445 3.375C4.8418 3.375 5.64844 3.76758 6.23438 4.55273C6.82031 5.33398 7.11328 6.40234 7.11328 7.75781C7.11328 9.11719 6.82031 10.1934 6.23438 10.9863C5.64844 11.7754 4.8418 12.1699 3.81445 12.1699ZM3.81445 10.9336C4.37305 10.9336 4.80664 10.6543 5.11523 10.0957C5.42773 9.53711 5.58398 8.75977 5.58398 7.76367C5.58398 6.77539 5.42773 6.00391 5.11523 5.44922C4.80273 4.89062 4.36914 4.61133 3.81445 4.61133C3.25977 4.61133 2.82227 4.89062 2.50195 5.44922C2.18555 6.00781 2.02734 6.77734 2.02734 7.75781C2.02734 8.75391 2.18359 9.5332 2.49609 10.0957C2.8125 10.6543 3.25195 10.9336 3.81445 10.9336ZM10.1836 8.23242V7.0957H11.2031C11.6367 7.0957 11.9883 6.97656 12.2578 6.73828C12.5273 6.49609 12.6621 6.18555 12.6621 5.80664C12.6621 5.43164 12.5332 5.13281 12.2754 4.91016C12.0215 4.6875 11.6621 4.57617 11.1973 4.57617C10.7637 4.57617 10.4102 4.69531 10.1367 4.93359C9.86328 5.16797 9.71094 5.48242 9.67969 5.87695H8.27344C8.31641 5.11523 8.60742 4.50781 9.14648 4.05469C9.68945 3.60156 10.3965 3.375 11.2676 3.375C12.1035 3.375 12.7871 3.58203 13.3184 3.99609C13.8496 4.41016 14.1152 4.94531 14.1152 5.60156C14.1152 6.12109 13.9551 6.56055 13.6348 6.91992C13.3184 7.27539 12.8965 7.49805 12.3691 7.58789V7.62305C13.0059 7.66992 13.5117 7.87695 13.8867 8.24414C14.2656 8.60742 14.4551 9.08203 14.4551 9.66797C14.4551 10.4102 14.1523 11.0137 13.5469 11.4785C12.9453 11.9395 12.1797 12.1699 11.25 12.1699C10.3281 12.1699 9.58398 11.9395 9.01758 11.4785C8.45117 11.0137 8.14844 10.4023 8.10938 9.64453H9.55078C9.58594 10.0352 9.75586 10.3477 10.0605 10.582C10.3652 10.8164 10.7656 10.9336 11.2617 10.9336C11.75 10.9336 12.1484 10.8105 12.457 10.5645C12.7656 10.3184 12.9199 10 12.9199 9.60938C12.9199 9.18359 12.7676 8.84766 12.4629 8.60156C12.1621 8.35547 11.75 8.23242 11.2266 8.23242H10.1836Z" fill="#C4C4C4"/>
<path d="M3.81445 98.1699C2.7832 98.1699 1.97266 97.7773 1.38281 96.9922C0.796875 96.2031 0.503906 95.127 0.503906 93.7637C0.503906 92.4082 0.798828 91.3379 1.38867 90.5527C1.97852 89.7676 2.78711 89.375 3.81445 89.375C4.8418 89.375 5.64844 89.7676 6.23438 90.5527C6.82031 91.334 7.11328 92.4023 7.11328 93.7578C7.11328 95.1172 6.82031 96.1934 6.23438 96.9863C5.64844 97.7754 4.8418 98.1699 3.81445 98.1699ZM3.81445 96.9336C4.37305 96.9336 4.80664 96.6543 5.11523 96.0957C5.42773 95.5371 5.58398 94.7598 5.58398 93.7637C5.58398 92.7754 5.42773 92.0039 5.11523 91.4492C4.80273 90.8906 4.36914 90.6113 3.81445 90.6113C3.25977 90.6113 2.82227 90.8906 2.50195 91.4492C2.18555 92.0078 2.02734 92.7773 2.02734 93.7578C2.02734 94.7539 2.18359 95.5332 2.49609 96.0957C2.8125 96.6543 3.25195 96.9336 3.81445 96.9336ZM12.2695 98V96.4004H8.05078V95.0996C8.74609 93.7871 9.91602 91.9355 11.5605 89.5449H13.7109V95.1641H14.8477V96.4004H13.7109V98H12.2695ZM9.42188 95.1582V95.1992H12.293V90.6641H12.2695C11.5547 91.6992 10.9824 92.5547 10.5527 93.2305C10.123 93.9062 9.74609 94.5488 9.42188 95.1582Z" fill="#C4C4C4"/>
<line x1="7.5" y1="23" x2="7.5" y2="80" stroke="#C4C4C4"/>
</svg>
