<svg width="76" height="548" viewBox="0 0 76 548" fill="none" xmlns="http://www.w3.org/2000/svg">
<path d="M9.17188 84.3125C7.64062 84.3125 6.42969 83.7812 5.53906 82.7188C4.64844 81.651 4.20312 80.1901 4.20312 78.3359C4.20312 76.4766 4.64844 75.0234 5.53906 73.9766C6.4349 72.9297 7.64583 72.4062 9.17188 72.4062C10.6979 72.4062 11.9062 72.9297 12.7969 73.9766C13.6875 75.0182 14.1328 76.4688 14.1328 78.3281C14.1328 80.1823 13.6875 81.6432 12.7969 82.7109C11.9062 83.7786 10.6979 84.3125 9.17188 84.3125ZM8.01562 80.8906C8.30729 81.474 8.69271 81.7656 9.17188 81.7656C9.65104 81.7656 10.0339 81.474 10.3203 80.8906C10.612 80.3073 10.7578 79.4557 10.7578 78.3359C10.7578 77.2161 10.6146 76.3724 10.3281 75.8047C10.0417 75.237 9.65625 74.9531 9.17188 74.9531C8.6875 74.9531 8.29948 75.237 8.00781 75.8047C7.72135 76.3724 7.57812 77.2161 7.57812 78.3359C7.57812 79.4557 7.72396 80.3073 8.01562 80.8906ZM18.1719 84V75.5625H18.1094L15.3438 77.3906V74.6172L18.1719 72.7266H21.4844V84H18.1719Z" fill="#C4C4C4"/>
<path d="M7.1875 169.312C5.65625 169.312 4.44531 168.781 3.55469 167.719C2.66406 166.651 2.21875 165.19 2.21875 163.336C2.21875 161.477 2.66406 160.023 3.55469 158.977C4.45052 157.93 5.66146 157.406 7.1875 157.406C8.71354 157.406 9.92188 157.93 10.8125 158.977C11.7031 160.018 12.1484 161.469 12.1484 163.328C12.1484 165.182 11.7031 166.643 10.8125 167.711C9.92188 168.779 8.71354 169.312 7.1875 169.312ZM6.03125 165.891C6.32292 166.474 6.70833 166.766 7.1875 166.766C7.66667 166.766 8.04948 166.474 8.33594 165.891C8.6276 165.307 8.77344 164.456 8.77344 163.336C8.77344 162.216 8.63021 161.372 8.34375 160.805C8.05729 160.237 7.67188 159.953 7.1875 159.953C6.70312 159.953 6.3151 160.237 6.02344 160.805C5.73698 161.372 5.59375 162.216 5.59375 163.336C5.59375 164.456 5.73958 165.307 6.03125 165.891ZM13.2344 161.266C13.2344 160.109 13.6536 159.18 14.4922 158.477C15.3307 157.768 16.4453 157.414 17.8359 157.414C19.1901 157.414 20.263 157.729 21.0547 158.359C21.8516 158.984 22.25 159.812 22.25 160.844C22.25 161.135 22.2005 161.432 22.1016 161.734C22.0026 162.031 21.888 162.286 21.7578 162.5C21.6328 162.714 21.4688 162.938 21.2656 163.172C21.0677 163.406 20.9089 163.581 20.7891 163.695C20.6693 163.81 20.5234 163.943 20.3516 164.094L17.7031 166.438V166.5H22.3828V169H13.4297V166.797L17.9609 162.789C18.3464 162.445 18.625 162.13 18.7969 161.844C18.974 161.552 19.0625 161.253 19.0625 160.945C19.0625 160.633 18.9427 160.375 18.7031 160.172C18.4635 159.964 18.1354 159.859 17.7188 159.859C17.2865 159.859 16.9323 159.99 16.6562 160.25C16.3854 160.51 16.25 160.846 16.25 161.258V161.328H13.2344V161.266Z" fill="#C4C4C4"/>
<path d="M6.75 255.312C5.21875 255.312 4.00781 254.781 3.11719 253.719C2.22656 252.651 1.78125 251.19 1.78125 249.336C1.78125 247.477 2.22656 246.023 3.11719 244.977C4.01302 243.93 5.22396 243.406 6.75 243.406C8.27604 243.406 9.48438 243.93 10.375 244.977C11.2656 246.018 11.7109 247.469 11.7109 249.328C11.7109 251.182 11.2656 252.643 10.375 253.711C9.48438 254.779 8.27604 255.312 6.75 255.312ZM5.59375 251.891C5.88542 252.474 6.27083 252.766 6.75 252.766C7.22917 252.766 7.61198 252.474 7.89844 251.891C8.1901 251.307 8.33594 250.456 8.33594 249.336C8.33594 248.216 8.19271 247.372 7.90625 246.805C7.61979 246.237 7.23438 245.953 6.75 245.953C6.26562 245.953 5.8776 246.237 5.58594 246.805C5.29948 247.372 5.15625 248.216 5.15625 249.336C5.15625 250.456 5.30208 251.307 5.59375 251.891ZM16.1797 250.359V248.141H17.5547C17.987 248.141 18.3281 248.036 18.5781 247.828C18.8333 247.62 18.9609 247.336 18.9609 246.977C18.9609 246.622 18.8333 246.344 18.5781 246.141C18.3229 245.932 17.9688 245.828 17.5156 245.828C17.0729 245.828 16.7135 245.953 16.4375 246.203C16.1615 246.448 16.0234 246.768 16.0234 247.164H13.0391C13.0443 246.034 13.4688 245.128 14.3125 244.445C15.1562 243.758 16.2708 243.414 17.6562 243.414C18.9896 243.414 20.0469 243.695 20.8281 244.258C21.6146 244.815 22.0078 245.57 22.0078 246.523C22.0078 247.19 21.7891 247.758 21.3516 248.227C20.9141 248.69 20.349 248.984 19.6562 249.109V249.172C20.4948 249.266 21.1615 249.549 21.6562 250.023C22.151 250.492 22.3984 251.107 22.3984 251.867C22.3984 252.919 21.9557 253.758 21.0703 254.383C20.1849 255.003 18.9948 255.312 17.5 255.312C16.1354 255.312 15.0286 254.971 14.1797 254.289C13.3359 253.602 12.8854 252.682 12.8281 251.531H15.9844C15.9948 251.906 16.1406 252.203 16.4219 252.422C16.7031 252.635 17.0859 252.742 17.5703 252.742C18.0078 252.742 18.3594 252.633 18.625 252.414C18.8958 252.19 19.0312 251.896 19.0312 251.531C19.0312 251.161 18.8984 250.875 18.6328 250.672C18.3724 250.464 18.0078 250.359 17.5391 250.359H16.1797Z" fill="#C4C4C4"/>
<path d="M6.39062 336.312C4.85938 336.312 3.64844 335.781 2.75781 334.719C1.86719 333.651 1.42188 332.19 1.42188 330.336C1.42188 328.477 1.86719 327.023 2.75781 325.977C3.65365 324.93 4.86458 324.406 6.39062 324.406C7.91667 324.406 9.125 324.93 10.0156 325.977C10.9062 327.018 11.3516 328.469 11.3516 330.328C11.3516 332.182 10.9062 333.643 10.0156 334.711C9.125 335.779 7.91667 336.312 6.39062 336.312ZM5.23438 332.891C5.52604 333.474 5.91146 333.766 6.39062 333.766C6.86979 333.766 7.2526 333.474 7.53906 332.891C7.83073 332.307 7.97656 331.456 7.97656 330.336C7.97656 329.216 7.83333 328.372 7.54688 327.805C7.26042 327.237 6.875 326.953 6.39062 326.953C5.90625 326.953 5.51823 327.237 5.22656 327.805C4.9401 328.372 4.79688 329.216 4.79688 330.336C4.79688 331.456 4.94271 332.307 5.23438 332.891ZM18.0156 336V334.328H12.4688V331.586C13.4219 329.721 14.7865 327.435 16.5625 324.727H21.1406V331.789H22.4844V334.328H21.1406V336H18.0156ZM15.2188 331.828V331.922H18.1094V326.898H18.0469C17.3906 327.909 16.862 328.758 16.4609 329.445C16.0599 330.128 15.6458 330.922 15.2188 331.828Z" fill="#C4C4C4"/>
<path d="M6.95312 421.312C5.42188 421.312 4.21094 420.781 3.32031 419.719C2.42969 418.651 1.98438 417.19 1.98438 415.336C1.98438 413.477 2.42969 412.023 3.32031 410.977C4.21615 409.93 5.42708 409.406 6.95312 409.406C8.47917 409.406 9.6875 409.93 10.5781 410.977C11.4688 412.018 11.9141 413.469 11.9141 415.328C11.9141 417.182 11.4688 418.643 10.5781 419.711C9.6875 420.779 8.47917 421.312 6.95312 421.312ZM5.79688 417.891C6.08854 418.474 6.47396 418.766 6.95312 418.766C7.43229 418.766 7.8151 418.474 8.10156 417.891C8.39323 417.307 8.53906 416.456 8.53906 415.336C8.53906 414.216 8.39583 413.372 8.10938 412.805C7.82292 412.237 7.4375 411.953 6.95312 411.953C6.46875 411.953 6.08073 412.237 5.78906 412.805C5.5026 413.372 5.35938 414.216 5.35938 415.336C5.35938 416.456 5.50521 417.307 5.79688 417.891ZM17.8281 421.312C16.4896 421.312 15.3906 420.969 14.5312 420.281C13.6771 419.594 13.2448 418.711 13.2344 417.633H16.2109C16.2786 417.982 16.4635 418.266 16.7656 418.484C17.0729 418.703 17.4349 418.812 17.8516 418.812C18.3203 418.812 18.6979 418.664 18.9844 418.367C19.276 418.07 19.4219 417.688 19.4219 417.219C19.4219 416.724 19.2786 416.326 18.9922 416.023C18.7057 415.721 18.3255 415.57 17.8516 415.57C17.5339 415.57 17.2396 415.643 16.9688 415.789C16.6979 415.93 16.4792 416.13 16.3125 416.391H13.4141L13.9141 409.727H21.7969V412.227H16.4609L16.2891 414.727H16.3516C16.5599 414.299 16.8776 413.964 17.3047 413.719C17.737 413.474 18.25 413.352 18.8438 413.352C19.9115 413.352 20.7917 413.708 21.4844 414.422C22.1771 415.13 22.5234 416.036 22.5234 417.141C22.5234 418.396 22.0938 419.406 21.2344 420.172C20.375 420.932 19.2396 421.312 17.8281 421.312Z" fill="#C4C4C4"/>
<path d="M6.4375 520.312C4.90625 520.312 3.69531 519.781 2.80469 518.719C1.91406 517.651 1.46875 516.19 1.46875 514.336C1.46875 512.477 1.91406 511.023 2.80469 509.977C3.70052 508.93 4.91146 508.406 6.4375 508.406C7.96354 508.406 9.17188 508.93 10.0625 509.977C10.9531 511.018 11.3984 512.469 11.3984 514.328C11.3984 516.182 10.9531 517.643 10.0625 518.711C9.17188 519.779 7.96354 520.312 6.4375 520.312ZM5.28125 516.891C5.57292 517.474 5.95833 517.766 6.4375 517.766C6.91667 517.766 7.29948 517.474 7.58594 516.891C7.8776 516.307 8.02344 515.456 8.02344 514.336C8.02344 513.216 7.88021 512.372 7.59375 511.805C7.30729 511.237 6.92188 510.953 6.4375 510.953C5.95312 510.953 5.5651 511.237 5.27344 511.805C4.98698 512.372 4.84375 513.216 4.84375 514.336C4.84375 515.456 4.98958 516.307 5.28125 516.891ZM17.6875 520.312C16.9062 520.312 16.1927 520.177 15.5469 519.906C14.9062 519.635 14.3698 519.237 13.9375 518.711C13.0417 517.638 12.5938 516.188 12.5938 514.359C12.5938 512.531 13.0547 511.083 13.9766 510.016C14.8984 508.948 16.1302 508.414 17.6719 508.414C18.8594 508.414 19.8802 508.727 20.7344 509.352C21.5885 509.971 22.0833 510.763 22.2188 511.727H19.0078C18.9349 511.482 18.7734 511.284 18.5234 511.133C18.2734 510.982 17.987 510.906 17.6641 510.906C17.0234 510.906 16.5182 511.221 16.1484 511.852C15.7839 512.477 15.6432 513.305 15.7266 514.336H15.7891C15.9974 513.768 16.3464 513.32 16.8359 512.992C17.3255 512.659 17.9297 512.492 18.6484 512.492C19.7109 512.492 20.5938 512.844 21.2969 513.547C22.0052 514.25 22.3594 515.135 22.3594 516.203C22.3594 517 22.1615 517.711 21.7656 518.336C21.3698 518.961 20.8151 519.448 20.1016 519.797C19.3932 520.141 18.5885 520.312 17.6875 520.312ZM16.5625 517.375C16.8594 517.661 17.224 517.805 17.6562 517.805C18.0885 517.805 18.4531 517.661 18.75 517.375C19.0469 517.083 19.1953 516.724 19.1953 516.297C19.1953 515.875 19.0469 515.521 18.75 515.234C18.4531 514.948 18.0885 514.805 17.6562 514.805C17.224 514.805 16.8594 514.948 16.5625 515.234C16.2708 515.521 16.125 515.875 16.125 516.297C16.125 516.724 16.2708 517.083 16.5625 517.375Z" fill="#C4C4C4"/>
<line x1="31.5" y1="0.5" x2="31.5" y2="67.5" stroke="#FE3B3B" stroke-linecap="round" stroke-dasharray="4 4 4 4"/>
<line x1="31.5" y1="121.5" x2="31.5" y2="142.5" stroke="#FE3B3B" stroke-linecap="round" stroke-dasharray="4 4 4 4"/>
<line x1="31.5" y1="289.5" x2="31.5" y2="315.5" stroke="#FE3B3B" stroke-linecap="round" stroke-dasharray="4 4 4 4"/>
<line x1="31.5" y1="370.5" x2="31.5" y2="396.5" stroke="#FE3B3B" stroke-linecap="round" stroke-dasharray="4 4 4 4"/>
<line x1="31.5" y1="461.5" x2="31.5" y2="494.5" stroke="#FE3B3B" stroke-linecap="round" stroke-dasharray="4 4 4 4"/>
<line x1="31.5" y1="208.5" x2="31.5" y2="234.5" stroke="#FE3B3B" stroke-linecap="round" stroke-dasharray="4 4 4 4"/>
<g clip-path="url(#clip0)">
<path d="M51.1953 78.8203C51.1953 76.9249 49.6532 75.3828 47.7578 75.3828C45.8624 75.3828 44.3203 76.9249 44.3203 78.8203C44.3203 80.7157 45.8624 82.2578 47.7578 82.2578C49.6532 82.2578 51.1953 80.7157 51.1953 78.8203ZM47.7578 80.5391C46.8101 80.5391 46.0391 79.768 46.0391 78.8203C46.0391 77.8726 46.8101 77.1016 47.7578 77.1016C48.7055 77.1016 49.4766 77.8726 49.4766 78.8203C49.4766 79.768 48.7055 80.5391 47.7578 80.5391Z" fill="#FE3B3B"/>
<path d="M40.625 78.8203C40.625 76.9249 39.0829 75.3828 37.1875 75.3828C35.2921 75.3828 33.75 76.9249 33.75 78.8203C33.75 80.7157 35.2921 82.2578 37.1875 82.2578C39.0829 82.2578 40.625 80.7157 40.625 78.8203ZM37.1875 80.5391C36.2398 80.5391 35.4688 79.768 35.4688 78.8203C35.4688 77.8726 36.2398 77.1016 37.1875 77.1016C38.1352 77.1016 38.9062 77.8726 38.9062 78.8203C38.9062 79.768 38.1352 80.5391 37.1875 80.5391Z" fill="#FE3B3B"/>
<path d="M61.6797 78.8203C61.6797 76.9249 60.1376 75.3828 58.2422 75.3828C56.3468 75.3828 54.8047 76.9249 54.8047 78.8203C54.8047 80.7157 56.3468 82.2578 58.2422 82.2578C60.1376 82.2578 61.6797 80.7157 61.6797 78.8203ZM58.2422 80.5391C57.2945 80.5391 56.5234 79.768 56.5234 78.8203C56.5234 77.8726 57.2945 77.1016 58.2422 77.1016C59.1899 77.1016 59.9609 77.8726 59.9609 78.8203C59.9609 79.768 59.1899 80.5391 58.2422 80.5391Z" fill="#FE3B3B"/>
<path d="M72.25 78.8203C72.25 76.9249 70.7079 75.3828 68.8125 75.3828C66.9171 75.3828 65.375 76.9249 65.375 78.8203C65.375 80.7157 66.9171 82.2578 68.8125 82.2578C70.7079 82.2578 72.25 80.7157 72.25 78.8203ZM68.8125 80.5391C67.8648 80.5391 67.0938 79.768 67.0938 78.8203C67.0938 77.8726 67.8648 77.1016 68.8125 77.1016C69.7602 77.1016 70.5312 77.8726 70.5312 78.8203C70.5312 79.768 69.7602 80.5391 68.8125 80.5391Z" fill="#FE3B3B"/>
<path d="M71.3906 104.602C71.8652 104.602 72.25 104.217 72.25 103.742C72.25 103.268 71.8652 102.883 71.3906 102.883C70.916 102.883 70.5312 103.268 70.5312 103.742C70.5312 104.217 70.916 104.602 71.3906 104.602Z" fill="#FE3B3B"/>
<path d="M68.8125 82.2578C66.7246 82.2578 64.6517 83.3567 63.4954 85.2275C62.4261 83.4562 60.4712 82.2578 58.2422 82.2578C56.0005 82.2578 54.0596 83.4678 53 85.2086C51.9426 83.4714 50.0045 82.2578 47.7578 82.2578C45.5312 82.2578 43.5742 83.4557 42.5046 85.2275C41.3485 83.357 39.2756 82.2578 37.1875 82.2578C33.9401 82.2578 31 84.8803 31 88.2734V96.8672C31 97.3417 31.3847 97.7266 31.8594 97.7266H33.75V109.758C33.75 110.232 34.1347 110.617 34.6094 110.617H39.7656C40.2403 110.617 40.625 110.232 40.625 109.758V97.7266H44.3203V109.758C44.3203 110.232 44.7051 110.617 45.1797 110.617H50.3359C50.8106 110.617 51.1953 110.232 51.1953 109.758V97.7266H54.8047V109.758C54.8047 110.232 55.1894 110.617 55.6641 110.617H60.8203C61.2949 110.617 61.6797 110.232 61.6797 109.758V97.7266H65.375V109.758C65.375 110.232 65.7597 110.617 66.2344 110.617H71.3906C71.8653 110.617 72.25 110.232 72.25 109.758V107.609C72.25 107.135 71.8653 106.75 71.3906 106.75C70.916 106.75 70.5312 107.135 70.5312 107.609V108.898H67.0938V96.8672C67.0938 96.3926 66.709 96.0078 66.2344 96.0078H64.3438V88.2734C64.3438 85.9443 66.3902 83.9766 68.8125 83.9766C71.2348 83.9766 73.2812 85.9443 73.2812 88.2734V96.0078H71.3906C70.916 96.0078 70.5312 96.3926 70.5312 96.8672V99.875C70.5312 100.35 70.916 100.734 71.3906 100.734C71.8653 100.734 72.25 100.35 72.25 99.875V97.7266H74.1406C74.6153 97.7266 75 97.3417 75 96.8672V88.2734C75 84.8805 72.0602 82.2578 68.8125 82.2578ZM39.7656 96.0078C39.291 96.0078 38.9062 96.3926 38.9062 96.8672V108.898H35.4688V96.8672C35.4688 96.3926 35.084 96.0078 34.6094 96.0078H32.7188V88.2734C32.7188 85.9443 34.7652 83.9766 37.1875 83.9766C39.6098 83.9766 41.6562 85.9443 41.6562 88.2734V96.0078H39.7656ZM50.3359 96.0078C49.8613 96.0078 49.4766 96.3926 49.4766 96.8672V108.898H46.0391V96.8672C46.0391 96.3926 45.6543 96.0078 45.1797 96.0078H43.375V88.2734C43.375 85.9041 45.3411 83.9766 47.7578 83.9766C50.1745 83.9766 52.1406 85.9041 52.1406 88.2734V96.0078H50.3359ZM60.8203 96.0078C60.3457 96.0078 59.9609 96.3926 59.9609 96.8672V108.898H56.5234V96.8672C56.5234 96.3926 56.1387 96.0078 55.6641 96.0078H53.8594V88.2734C53.8594 85.9041 55.8255 83.9766 58.2422 83.9766C60.6589 83.9766 62.625 85.9041 62.625 88.2734V96.0078H60.8203Z" fill="#FE3B3B"/>
</g>
<path d="M32.5123 272.788L34.3365 275.22L32.4304 279.667C32.3149 279.937 32.3828 280.25 32.6003 280.447C32.7299 280.564 32.8957 280.625 33.0622 280.625C33.1757 280.625 33.2898 280.597 33.3932 280.54L47.1432 272.977C47.3634 272.857 47.4997 272.626 47.4997 272.375C47.4997 272.124 47.3634 271.893 47.1432 271.773L33.3932 264.21C33.1381 264.069 32.8178 264.106 32.6003 264.303C32.3828 264.5 32.3149 264.814 32.4304 265.083L34.3365 269.53L32.5123 271.962C32.329 272.207 32.329 272.543 32.5123 272.788ZM35.6197 275.715L42.0738 274.196L34.4808 278.373L35.6197 275.715ZM42.0738 270.554L35.6197 269.035L34.4808 266.378L42.0738 270.554ZM35.4047 270.397L43.8096 272.375L35.4047 274.353L33.9216 272.375L35.4047 270.397Z" fill="#FE3B3B"/>
<path d="M62.625 239.375C56.7917 239.375 52.0176 243.943 51.6598 249.688H49.8472L47.9861 247.826L47.0139 248.799L47.9028 249.688H45.0938C41.1131 249.688 37.875 252.926 37.875 256.906C37.875 260.887 41.1131 264.125 45.0938 264.125H52.7153L54.5764 265.986L55.5486 265.014L54.6597 264.125H67.7812C69.8659 264.125 71.5625 265.821 71.5625 267.906C71.5625 269.991 69.8659 271.688 67.7812 271.688H61.5347L59.6736 269.826L58.7014 270.799L59.5903 271.688H48.875V273.062H59.5903L58.7014 273.951L59.6736 274.924L61.5347 273.062H67.7812C70.6246 273.062 72.9375 270.75 72.9375 267.906C72.9375 265.063 70.6246 262.75 67.7812 262.75H54.6597L55.5486 261.861L54.5764 260.889L52.7153 262.75H45.0938C41.8718 262.75 39.25 260.129 39.25 256.906C39.25 253.684 41.8718 251.062 45.0938 251.062H47.9028L47.0139 251.951L47.9861 252.924L49.8472 251.062H51.6598C52.0176 256.807 56.7917 261.375 62.625 261.375C68.6903 261.375 73.625 256.44 73.625 250.375C73.625 244.31 68.6903 239.375 62.625 239.375ZM62.625 260C57.5497 260 53.3898 256.049 53.0348 251.062H55.0973C55.4462 254.911 58.6871 257.938 62.625 257.938C66.795 257.938 70.1875 254.545 70.1875 250.375C70.1875 246.205 66.795 242.812 62.625 242.812C58.6871 242.812 55.4462 245.839 55.0973 249.688H53.0348C53.3898 244.701 57.5497 240.75 62.625 240.75C67.9323 240.75 72.25 245.068 72.25 250.375C72.25 255.682 67.9323 260 62.625 260ZM61.0486 252.924L63.1111 250.861C63.3796 250.593 63.3796 250.157 63.1111 249.889L61.0486 247.826L60.0764 248.799L60.9653 249.688H56.4781C56.8214 246.599 59.4457 244.188 62.625 244.188C66.037 244.188 68.8125 246.963 68.8125 250.375C68.8125 253.787 66.037 256.562 62.625 256.562C59.4457 256.562 56.8214 254.151 56.4781 251.062H60.9653L60.0764 251.951L61.0486 252.924Z" fill="#FE3B3B"/>
<path d="M66.75 250.375C66.75 248.1 64.8997 246.25 62.625 246.25V247.625C64.1417 247.625 65.375 248.859 65.375 250.375C65.375 251.891 64.1417 253.125 62.625 253.125V254.5C64.8997 254.5 66.75 252.65 66.75 250.375Z" fill="#FE3B3B"/>
<g clip-path="url(#clip1)">
<path d="M73.4531 183.877H71.1291V181.558H72.9681C73.3241 181.558 73.6126 181.269 73.6126 180.913V155.584C73.6126 154.969 73.1114 154.469 72.4953 154.469H63.0057V153.521C63.0057 153.233 62.717 153 62.3612 153C62.0054 153 61.7166 153.233 61.7166 153.521V154.469H53.4907V153.521C53.4907 153.233 53.2028 153 52.8462 153C52.4904 153 52.2016 153.233 52.2016 153.521V154.469H43.974V153.521C43.974 153.233 43.6852 153 43.3295 153C42.9728 153 42.6849 153.233 42.6849 153.521V154.469H33.5022C32.8862 154.469 32.3849 154.969 32.3849 155.584L32.3873 166.96C32.3874 167.316 32.676 167.605 33.0319 167.604C33.3879 167.604 33.6764 167.316 33.6764 166.96L33.674 155.758H42.6849V157.112H42.2862C41.5106 157.112 40.8227 157.493 40.3986 158.077H36.6414C36.2854 158.077 35.9968 158.365 35.9968 158.721V177.306C35.9968 177.662 36.2854 177.95 36.6414 177.95H51.4548C51.8108 177.95 52.0994 177.662 52.0994 177.306C52.0994 176.95 51.8108 176.661 51.4548 176.661H37.286V159.366H39.9567C39.9558 159.391 39.9548 159.416 39.9548 159.442C39.9548 160.728 41.0006 161.775 42.2863 161.775H44.372C45.6593 161.775 46.706 160.728 46.706 159.442C46.706 159.416 46.7049 159.391 46.704 159.366H49.4717C49.4708 159.391 49.4697 159.416 49.4697 159.442C49.4697 160.728 50.5164 161.775 51.8038 161.775H53.8895C55.1759 161.775 56.2227 160.728 56.2227 159.442C56.2227 159.416 56.2215 159.391 56.2207 159.366H58.9892C58.9883 159.391 58.9873 159.416 58.9873 159.442C58.9873 160.728 60.0331 161.775 61.3179 161.775H63.4045C64.6909 161.775 65.7377 160.728 65.7377 159.442C65.7377 159.416 65.7365 159.391 65.7358 159.366H68.7141V176.661H54.4306C54.0746 176.661 53.7861 176.95 53.7861 177.306C53.7861 177.662 54.0746 177.95 54.4306 177.95H69.3585C69.7146 177.95 70.0031 177.662 70.0031 177.306V158.721C70.0031 158.365 69.7146 158.077 69.3585 158.077H65.2934C64.869 157.493 64.1806 157.112 63.4045 157.112H63.0057V155.758H72.3236V180.269H66.6046H62.7099H33.6741L33.6764 169.937C33.6765 169.581 33.388 169.292 33.032 169.292H33.0319C32.676 169.292 32.3875 169.581 32.3874 169.937L32.3849 180.913C32.3849 181.084 32.4528 181.248 32.5736 181.369C32.6944 181.49 32.8584 181.558 33.0294 181.558H34.8684V183.877H32.5469C32.1909 183.877 31.9023 184.165 31.9023 184.521C31.9023 184.877 32.1909 185.166 32.5469 185.166H38.7509V192.205H37.8795C36.5565 192.205 35.4802 193.28 35.4802 194.601V195.968C35.4802 196.537 35.9431 197 36.5122 197H46.1733C46.741 197 47.2029 196.537 47.2029 195.968V194.601C47.2029 193.28 46.1277 192.205 44.806 192.205H43.9322V185.166H62.0653V192.205H61.1939C59.8722 192.205 58.7969 193.28 58.7969 194.601V195.968C58.7969 196.537 59.2588 197 59.8265 197H69.4876C70.0553 197 70.5172 196.537 70.5172 195.968V194.601C70.5172 193.28 69.442 192.205 68.1203 192.205H67.2489V185.166H73.4531C73.8092 185.166 74.0977 184.877 74.0977 184.521C74.0977 184.165 73.8092 183.877 73.4531 183.877ZM44.3719 160.486H42.2862C41.7113 160.486 41.2437 160.018 41.2437 159.442C41.2437 158.868 41.7113 158.401 42.2862 158.401H44.3719C44.9485 158.401 45.4169 158.868 45.4169 159.442C45.4169 160.018 44.9485 160.486 44.3719 160.486ZM46.2616 158.077C45.8371 157.493 45.1485 157.112 44.3719 157.112H43.974V155.758H52.2016V157.112H51.8038C51.0271 157.112 50.3384 157.493 49.914 158.077H46.2616ZM53.8895 160.486H51.8038C51.2271 160.486 50.7587 160.018 50.7587 159.442C50.7587 158.868 51.2271 158.401 51.8038 158.401H53.8895C54.4652 158.401 54.9336 158.868 54.9336 159.442C54.9336 160.018 54.4652 160.486 53.8895 160.486ZM63.4045 158.401C63.9802 158.401 64.4486 158.868 64.4486 159.442C64.4486 160.018 63.9802 160.486 63.4045 160.486H61.3179C60.7438 160.486 60.2763 160.018 60.2763 159.442C60.2763 158.868 60.7438 158.401 61.3179 158.401H63.4045ZM61.7166 157.112H61.3179C60.5428 157.112 59.8551 157.493 59.4311 158.077H55.7784C55.354 157.493 54.6656 157.112 53.8895 157.112H53.4907V155.758H61.7166V157.112ZM40.0399 181.558H42.6432V183.877H40.0399V181.558ZM40.0399 185.166H42.6432V192.205H40.0399V185.166ZM36.1575 183.877V181.558H38.751V183.877H36.1575ZM44.806 193.495C45.4169 193.495 45.9139 193.991 45.9139 194.601V195.711H36.7692V194.601C36.7692 193.991 37.2673 193.495 37.8795 193.495H44.806ZM63.3544 181.558H65.96V183.877H63.3544V181.558ZM63.3544 185.166H65.96V192.205H63.3544V185.166ZM46.5256 183.877H43.9322V181.558H46.5256V183.877ZM52.3555 183.877H47.8147V181.558H52.3555V183.877ZM58.1829 183.877H53.6445V181.558H58.1829V183.877ZM59.472 183.877V181.558H62.0654V183.877H59.472ZM68.1204 193.495C68.7313 193.495 69.2284 193.991 69.2284 194.601V195.711H60.0861V194.601C60.0861 193.991 60.583 193.495 61.194 193.495H68.1204ZM69.8401 183.877H67.2491V181.558H69.8401V183.877Z" fill="#FE3B3B"/>
</g>
<g clip-path="url(#clip2)">
<path d="M71.0822 358.805V356.103C72.5423 355.803 73.6437 354.508 73.6437 352.961C73.6437 351.192 72.205 349.753 70.4364 349.753C68.6678 349.753 67.229 351.192 67.229 352.961C67.229 354.508 68.3305 355.803 69.7906 356.103V358.805H65.9363V323.904H47.8529V329.42L40.1057 335.19V358.805H36.1807V356.103C37.6408 355.803 38.7423 354.508 38.7423 352.961C38.7423 351.192 37.3035 349.753 35.5349 349.753C33.7664 349.753 32.3276 351.192 32.3276 352.961C32.3276 354.508 33.429 355.803 34.8891 356.103V358.805H31V360.096H75V358.805H71.0822ZM68.5207 352.961C68.5207 351.904 69.3801 351.045 70.4365 351.045C71.4929 351.045 72.3522 351.904 72.3522 352.961C72.3522 354.017 71.4929 354.876 70.4365 354.876C69.3801 354.876 68.5207 354.017 68.5207 352.961ZM33.6192 352.961C33.6192 351.904 34.4785 351.045 35.5349 351.045C36.5914 351.045 37.4507 351.904 37.4507 352.961C37.4507 354.017 36.5913 354.876 35.5349 354.876C34.4786 354.876 33.6192 354.017 33.6192 352.961ZM41.3973 336.849H46.499V335.557H41.7748L47.8529 331.031V353.595H49.1445V329.744V328.458V325.195H64.6448V329.099H50.3738V330.39H64.6448V358.805H63.2886V352.346H50.4145V358.805H49.1445V357.47H47.8529V358.805H41.3973V336.849ZM61.997 358.805H51.7061V353.638H61.997V358.805Z" fill="#FE3B3B"/>
<path d="M47.853 354.887H49.1446V356.178H47.853V354.887Z" fill="#FE3B3B"/>
<path d="M42.6672 338.141V342.015H46.5417V338.141H42.6672ZM45.2501 340.724H43.9588V339.432H45.2501V340.724Z" fill="#FE3B3B"/>
<path d="M42.6672 347.182H46.5417V343.307H42.6672V347.182ZM43.9588 344.599H45.2501V345.89H43.9588V344.599Z" fill="#FE3B3B"/>
<path d="M42.6672 352.348H46.5417V348.474H42.6672V352.348ZM43.9588 349.765H45.2501V351.056H43.9588V349.765Z" fill="#FE3B3B"/>
<path d="M42.6672 357.515H46.5417V353.64H42.6672V357.515ZM43.9588 354.932H45.2501V356.223H43.9588V354.932Z" fill="#FE3B3B"/>
<path d="M52.957 334.208H51.7061V332.974H61.9971V334.208H54.2486V335.5H63.2886V331.683H50.4146V335.5H52.957V334.208Z" fill="#FE3B3B"/>
<path d="M63.2886 336.879H60.7065V338.17H61.9971V339.404H51.7061V338.17H59.4779V336.879H50.4146V340.696H63.2886V336.879Z" fill="#FE3B3B"/>
<path d="M63.2886 341.988H54.2486V343.28H61.9971V344.6H51.7061V343.28H52.957V341.988H50.4146V345.892H63.2886V341.988Z" fill="#FE3B3B"/>
<path d="M63.2886 347.184H60.7065V348.476H61.9971V349.796H51.7061V348.476H59.4149V347.184H50.4146V351.088H63.2886V347.184Z" fill="#FE3B3B"/>
<path d="M53.6658 326.458H54.9574V327.75H53.6658V326.458Z" fill="#FE3B3B"/>
<path d="M56.249 326.458H57.5406V327.75H56.249V326.458Z" fill="#FE3B3B"/>
<path d="M58.8323 326.458H60.1239V327.75H58.8323V326.458Z" fill="#FE3B3B"/>
</g>
<path d="M74.625 430.438H61.5625V425.625C61.5649 424.399 61.0996 423.219 60.2615 422.325C59.4234 421.43 58.2757 420.89 57.0525 420.812C57.4184 420.414 57.7012 419.947 57.8844 419.438H58.8125C59.2962 419.434 59.7632 419.26 60.1318 418.947C60.5004 418.634 60.7473 418.201 60.8292 417.724C60.9111 417.248 60.8229 416.757 60.5799 416.339C60.3369 415.921 59.9547 415.601 59.5 415.436V413.938C59.5 412.479 58.9205 411.08 57.8891 410.048C56.8576 409.017 55.4587 408.438 54 408.438C52.5413 408.438 51.1424 409.017 50.1109 410.048C49.0795 411.08 48.5 412.479 48.5 413.938V415.436C48.0453 415.601 47.6631 415.921 47.4201 416.339C47.1771 416.757 47.0889 417.248 47.1708 417.724C47.2527 418.201 47.4995 418.634 47.8682 418.947C48.2368 419.26 48.7038 419.434 49.1875 419.438H50.1156C50.2988 419.947 50.5816 420.414 50.9475 420.812C49.7243 420.89 48.5766 421.43 47.7385 422.325C46.9004 423.219 46.4351 424.399 46.4375 425.625V430.438H33.375C33.1927 430.438 33.0178 430.51 32.8889 430.639C32.7599 430.768 32.6875 430.943 32.6875 431.125V433.875C32.6875 434.057 32.7599 434.232 32.8889 434.361C33.0178 434.49 33.1927 434.562 33.375 434.562H34.0625V447.625C34.0625 447.807 34.1349 447.982 34.2639 448.111C34.3928 448.24 34.5677 448.312 34.75 448.312H37.5C37.6823 448.312 37.8572 448.24 37.9861 448.111C38.1151 447.982 38.1875 447.807 38.1875 447.625V446.938H69.8125V447.625C69.8125 447.807 69.8849 447.982 70.0139 448.111C70.1428 448.24 70.3177 448.312 70.5 448.312H73.25C73.4323 448.312 73.6072 448.24 73.7361 448.111C73.8651 447.982 73.9375 447.807 73.9375 447.625V434.562H74.625C74.8073 434.562 74.9822 434.49 75.1111 434.361C75.2401 434.232 75.3125 434.057 75.3125 433.875V431.125C75.3125 430.943 75.2401 430.768 75.1111 430.639C74.9822 430.51 74.8073 430.438 74.625 430.438ZM51.25 418.062V416H51.7725C52.6058 416.004 53.4068 415.678 54 415.093C54.5932 415.678 55.3942 416.004 56.2275 416H56.75V418.062C56.75 418.792 56.4603 419.491 55.9445 420.007C55.4288 420.523 54.7293 420.812 54 420.812C53.2707 420.812 52.5712 420.523 52.0555 420.007C51.5397 419.491 51.25 418.792 51.25 418.062ZM55.375 422.188C55.375 422.552 55.2301 422.902 54.9723 423.16C54.7144 423.418 54.3647 423.562 54 423.562C53.6353 423.562 53.2856 423.418 53.0277 423.16C52.7699 422.902 52.625 422.552 52.625 422.188H55.375ZM58.8125 418.062H58.125V416.688H58.8125C58.9948 416.688 59.1697 416.76 59.2986 416.889C59.4276 417.018 59.5 417.193 59.5 417.375C59.5 417.557 59.4276 417.732 59.2986 417.861C59.1697 417.99 58.9948 418.062 58.8125 418.062ZM49.1875 418.062C49.0052 418.062 48.8303 417.99 48.7014 417.861C48.5724 417.732 48.5 417.557 48.5 417.375C48.5 417.193 48.5724 417.018 48.7014 416.889C48.8303 416.76 49.0052 416.688 49.1875 416.688H49.875V418.062H49.1875ZM49.875 415.312V413.938C49.875 412.843 50.3096 411.794 51.0832 411.021C51.8568 410.247 52.906 409.812 54 409.812C55.094 409.812 56.1432 410.247 56.9168 411.021C57.6904 411.794 58.125 412.843 58.125 413.938V415.312C58.125 415.13 58.0526 414.955 57.9236 414.826C57.7947 414.697 57.6198 414.625 57.4375 414.625H56.2275C55.8919 414.627 55.5626 414.534 55.2771 414.358C54.9915 414.182 54.761 413.929 54.6119 413.628C54.5542 413.516 54.4665 413.421 54.3586 413.355C54.2506 413.289 54.1265 413.254 54 413.254C53.8735 413.254 53.7494 413.289 53.6414 413.355C53.5335 413.421 53.4458 413.516 53.3881 413.628C53.239 413.929 53.0085 414.182 52.7229 414.358C52.4374 414.534 52.1081 414.627 51.7725 414.625H50.5625C50.3802 414.625 50.2053 414.697 50.0764 414.826C49.9474 414.955 49.875 415.13 49.875 415.312ZM47.8125 425.625C47.8125 424.713 48.1747 423.839 48.8193 423.194C49.464 422.55 50.3383 422.188 51.25 422.188C51.25 422.917 51.5397 423.616 52.0555 424.132C52.5712 424.648 53.2707 424.938 54 424.938C54.7293 424.938 55.4288 424.648 55.9445 424.132C56.4603 423.616 56.75 422.917 56.75 422.188C57.2014 422.188 57.6484 422.276 58.0655 422.449C58.4825 422.622 58.8615 422.875 59.1807 423.194C59.4999 423.514 59.7531 423.892 59.9258 424.31C60.0986 424.727 60.1875 425.174 60.1875 425.625V430.438H58.8125V424.938H57.4375V430.438H50.5625V424.938H49.1875V430.438H47.8125V425.625ZM35.4375 446.938V434.562H36.8125V446.938H35.4375ZM38.1875 445.562V434.562H69.8125V445.562H38.1875ZM72.5625 446.938H71.1875V434.562H72.5625V446.938ZM73.9375 433.188H34.0625V431.812H73.9375V433.188Z" fill="#FE3B3B"/>
<path d="M74.6251 405.688H66.3751C66.1928 405.688 66.0179 405.76 65.889 405.889C65.76 406.018 65.6876 406.193 65.6876 406.375V407.75H62.9376C62.8471 407.749 62.7574 407.767 62.6737 407.801C62.5899 407.835 62.5137 407.886 62.4495 407.949L59.6995 410.699L60.6757 411.676L63.2195 409.125H65.6876V411.875C65.6876 412.057 65.76 412.232 65.889 412.361C66.0179 412.49 66.1928 412.562 66.3751 412.562H74.6251C74.8074 412.562 74.9823 412.49 75.1112 412.361C75.2402 412.232 75.3126 412.057 75.3126 411.875V406.375C75.3126 406.193 75.2402 406.018 75.1112 405.889C74.9823 405.76 74.8074 405.688 74.6251 405.688ZM72.3563 407.062L70.5001 408.3L68.6438 407.062H72.3563ZM67.0626 411.188V407.661L70.122 409.723C70.2342 409.797 70.3657 409.836 70.5001 409.836C70.6345 409.836 70.766 409.797 70.8782 409.723L73.9376 407.661V411.188H67.0626Z" fill="#FE3B3B"/>
<path d="M34.75 429.062H37.5C38.047 429.062 38.5716 428.845 38.9584 428.458C39.3452 428.072 39.5625 427.547 39.5625 427V424.25H43.6875C43.778 424.251 43.8677 424.233 43.9514 424.199C44.0352 424.165 44.1114 424.114 44.1756 424.051L47.6131 420.613L46.6369 419.637L43.4056 422.875H39.5625V421.5C39.5625 420.953 39.3452 420.428 38.9584 420.042C38.5716 419.655 38.047 419.438 37.5 419.438H34.75C34.203 419.438 33.6784 419.655 33.2916 420.042C32.9048 420.428 32.6875 420.953 32.6875 421.5V427C32.6875 427.547 32.9048 428.072 33.2916 428.458C33.6784 428.845 34.203 429.062 34.75 429.062ZM37.5 427.688H34.75C34.5677 427.688 34.3928 427.615 34.2639 427.486C34.1349 427.357 34.0625 427.182 34.0625 427V426.312H38.1875V427C38.1875 427.182 38.1151 427.357 37.9861 427.486C37.8572 427.615 37.6823 427.688 37.5 427.688ZM34.75 420.812H37.5C37.6823 420.812 37.8572 420.885 37.9861 421.014C38.1151 421.143 38.1875 421.318 38.1875 421.5V424.938H34.0625V421.5C34.0625 421.318 34.1349 421.143 34.2639 421.014C34.3928 420.885 34.5677 420.812 34.75 420.812Z" fill="#FE3B3B"/>
<path d="M34.75 415.312H43C43.547 415.312 44.0716 415.095 44.4584 414.708C44.8452 414.322 45.0625 413.797 45.0625 413.25V411.875C45.0625 411.693 44.9901 411.518 44.8611 411.389C44.7322 411.26 44.5573 411.188 44.375 411.188H43.6875V409.125H44.7806L47.3244 411.676L48.3006 410.699L45.5506 407.949C45.4864 407.886 45.4102 407.835 45.3264 407.801C45.2427 407.767 45.153 407.749 45.0625 407.75H43.6875C43.6875 407.203 43.4702 406.678 43.0834 406.292C42.6966 405.905 42.172 405.688 41.625 405.688H36.125C35.578 405.688 35.0534 405.905 34.6666 406.292C34.2798 406.678 34.0625 407.203 34.0625 407.75V411.188H33.375C33.1927 411.188 33.0178 411.26 32.8889 411.389C32.7599 411.518 32.6875 411.693 32.6875 411.875V413.25C32.6875 413.797 32.9048 414.322 33.2916 414.708C33.6784 415.095 34.203 415.312 34.75 415.312ZM35.4375 407.75C35.4375 407.568 35.5099 407.393 35.6389 407.264C35.7678 407.135 35.9427 407.062 36.125 407.062H41.625C41.8073 407.062 41.9822 407.135 42.1111 407.264C42.2401 407.393 42.3125 407.568 42.3125 407.75V411.188H35.4375V407.75ZM34.0625 412.562H43.6875V413.25C43.6875 413.432 43.6151 413.607 43.4861 413.736C43.3572 413.865 43.1823 413.938 43 413.938H34.75C34.5677 413.938 34.3928 413.865 34.2639 413.736C34.1349 413.607 34.0625 413.432 34.0625 413.25V412.562Z" fill="#FE3B3B"/>
<path d="M74.6251 419.438H67.7501C67.5678 419.438 67.3929 419.51 67.264 419.639C67.135 419.768 67.0626 419.943 67.0626 420.125V422.875H65.282L62.0507 419.637L61.0745 420.613L64.512 424.051C64.5762 424.114 64.6524 424.165 64.7362 424.199C64.8199 424.233 64.9096 424.251 65.0001 424.25H67.0626V428.375C67.0626 428.557 67.135 428.732 67.264 428.861C67.3929 428.99 67.5678 429.062 67.7501 429.062H74.6251C74.8074 429.062 74.9823 428.99 75.1112 428.861C75.2402 428.732 75.3126 428.557 75.3126 428.375V420.125C75.3126 419.943 75.2402 419.768 75.1112 419.639C74.9823 419.51 74.8074 419.438 74.6251 419.438ZM73.9376 427.688H68.4376V420.812H73.9376V427.688Z" fill="#FE3B3B"/>
<path d="M72.5625 422.188H69.8125V423.562H72.5625V422.188Z" fill="#FE3B3B"/>
<path d="M72.5625 424.938H69.8125V426.312H72.5625V424.938Z" fill="#FE3B3B"/>
<g clip-path="url(#clip3)">
<path d="M42.0834 522.333C41.9001 522.333 41.7167 522.333 41.7167 522.15C41.3501 522.15 41.1667 521.783 41.1667 521.417V506.75C41.1667 505.283 42.4501 504 43.9167 504H64.0834C65.5501 504 66.8334 505.283 66.8334 506.75V515.917C66.8334 517.383 65.5501 518.667 64.0834 518.667H48.6834C48.1334 518.667 47.5834 518.85 47.2167 519.217L42.6334 522.15C42.4501 522.333 42.2667 522.333 42.0834 522.333ZM43.9167 505.833C43.3667 505.833 43.0001 506.2 43.0001 506.75V519.767L46.1167 517.75C46.8501 517.017 47.7667 516.833 48.6834 516.833H64.0834C64.6334 516.833 65.0001 516.467 65.0001 515.917V506.75C65.0001 506.2 64.6334 505.833 64.0834 505.833H43.9167Z" fill="#FE3B3B"/>
<path d="M42.0833 535.167C38.9666 535.167 36.5833 532.783 36.5833 529.667C36.5833 526.55 38.9666 524.167 42.0833 524.167C45.1999 524.167 47.5833 526.55 47.5833 529.667C47.5833 532.783 45.1999 535.167 42.0833 535.167ZM42.0833 526C40.0666 526 38.4166 527.65 38.4166 529.667C38.4166 531.683 40.0666 533.333 42.0833 533.333C44.0999 533.333 45.7499 531.683 45.7499 529.667C45.7499 527.65 44.0999 526 42.0833 526Z" fill="#FE3B3B"/>
<path d="M51.25 548C50.7 548 50.3333 547.633 50.3333 547.083V543.417C50.3333 541.95 49.05 540.667 47.5833 540.667H36.5833C35.1167 540.667 33.8333 541.95 33.8333 543.417V547.083C33.8333 547.633 33.4667 548 32.9167 548C32.3667 548 32 547.633 32 547.083V543.417C32 540.85 34.0167 538.833 36.5833 538.833H47.5833C50.15 538.833 52.1667 540.85 52.1667 543.417V547.083C52.1667 547.633 51.8 548 51.25 548Z" fill="#FE3B3B"/>
<path d="M65.9167 535.167C62.8001 535.167 60.4167 532.783 60.4167 529.667C60.4167 526.55 62.8001 524.167 65.9167 524.167C69.0334 524.167 71.4167 526.55 71.4167 529.667C71.4167 532.783 69.0334 535.167 65.9167 535.167ZM65.9167 526C63.9001 526 62.2501 527.65 62.2501 529.667C62.2501 531.683 63.9001 533.333 65.9167 533.333C67.9334 533.333 69.5834 531.683 69.5834 529.667C69.5834 527.65 67.9334 526 65.9167 526Z" fill="#FE3B3B"/>
<path d="M75.0832 548C74.5332 548 74.1666 547.633 74.1666 547.083V543.417C74.1666 541.95 72.8832 540.667 71.4166 540.667H60.4166C58.9499 540.667 57.6666 541.95 57.6666 543.417V547.083C57.6666 547.633 57.2999 548 56.7499 548C56.1999 548 55.8333 547.633 55.8333 547.083V543.417C55.8333 540.85 57.8499 538.833 60.4166 538.833H71.4166C73.9832 538.833 75.9999 540.85 75.9999 543.417V547.083C75.9999 547.633 75.6332 548 75.0832 548Z" fill="#FE3B3B"/>
</g>
<defs>
<clipPath id="clip0">
<rect width="44" height="44" fill="white" transform="translate(31 71)"/>
</clipPath>
<clipPath id="clip1">
<rect width="44" height="44" fill="white" transform="translate(31 153)"/>
</clipPath>
<clipPath id="clip2">
<rect width="44" height="44" fill="white" transform="translate(31 320)"/>
</clipPath>
<clipPath id="clip3">
<rect width="44" height="44" fill="white" transform="translate(32 504)"/>
</clipPath>
</defs>
</svg>
