<svg width="75" height="339" viewBox="0 0 75 339" fill="none" xmlns="http://www.w3.org/2000/svg">
<path d="M8.17188 84.3125C6.64062 84.3125 5.42969 83.7812 4.53906 82.7188C3.64844 81.651 3.20312 80.1901 3.20312 78.3359C3.20312 76.4766 3.64844 75.0234 4.53906 73.9766C5.4349 72.9297 6.64583 72.4062 8.17188 72.4062C9.69792 72.4062 10.9062 72.9297 11.7969 73.9766C12.6875 75.0182 13.1328 76.4688 13.1328 78.3281C13.1328 80.1823 12.6875 81.6432 11.7969 82.7109C10.9062 83.7786 9.69792 84.3125 8.17188 84.3125ZM7.01562 80.8906C7.30729 81.474 7.69271 81.7656 8.17188 81.7656C8.65104 81.7656 9.03385 81.474 9.32031 80.8906C9.61198 80.3073 9.75781 79.4557 9.75781 78.3359C9.75781 77.2161 9.61458 76.3724 9.32812 75.8047C9.04167 75.237 8.65625 74.9531 8.17188 74.9531C7.6875 74.9531 7.29948 75.237 7.00781 75.8047C6.72135 76.3724 6.57812 77.2161 6.57812 78.3359C6.57812 79.4557 6.72396 80.3073 7.01562 80.8906ZM17.1719 84V75.5625H17.1094L14.3438 77.3906V74.6172L17.1719 72.7266H20.4844V84H17.1719Z" fill="#C4C4C4"/>
<path d="M6.1875 210.312C4.65625 210.312 3.44531 209.781 2.55469 208.719C1.66406 207.651 1.21875 206.19 1.21875 204.336C1.21875 202.477 1.66406 201.023 2.55469 199.977C3.45052 198.93 4.66146 198.406 6.1875 198.406C7.71354 198.406 8.92188 198.93 9.8125 199.977C10.7031 201.018 11.1484 202.469 11.1484 204.328C11.1484 206.182 10.7031 207.643 9.8125 208.711C8.92188 209.779 7.71354 210.312 6.1875 210.312ZM5.03125 206.891C5.32292 207.474 5.70833 207.766 6.1875 207.766C6.66667 207.766 7.04948 207.474 7.33594 206.891C7.6276 206.307 7.77344 205.456 7.77344 204.336C7.77344 203.216 7.63021 202.372 7.34375 201.805C7.05729 201.237 6.67188 200.953 6.1875 200.953C5.70312 200.953 5.3151 201.237 5.02344 201.805C4.73698 202.372 4.59375 203.216 4.59375 204.336C4.59375 205.456 4.73958 206.307 5.03125 206.891ZM12.2344 202.266C12.2344 201.109 12.6536 200.18 13.4922 199.477C14.3307 198.768 15.4453 198.414 16.8359 198.414C18.1901 198.414 19.263 198.729 20.0547 199.359C20.8516 199.984 21.25 200.812 21.25 201.844C21.25 202.135 21.2005 202.432 21.1016 202.734C21.0026 203.031 20.888 203.286 20.7578 203.5C20.6328 203.714 20.4688 203.938 20.2656 204.172C20.0677 204.406 19.9089 204.581 19.7891 204.695C19.6693 204.81 19.5234 204.943 19.3516 205.094L16.7031 207.438V207.5H21.3828V210H12.4297V207.797L16.9609 203.789C17.3464 203.445 17.625 203.13 17.7969 202.844C17.974 202.552 18.0625 202.253 18.0625 201.945C18.0625 201.633 17.9427 201.375 17.7031 201.172C17.4635 200.964 17.1354 200.859 16.7188 200.859C16.2865 200.859 15.9323 200.99 15.6562 201.25C15.3854 201.51 15.25 201.846 15.25 202.258V202.328H12.2344V202.266Z" fill="#C4C4C4"/>
<path d="M5.75 309.312C4.21875 309.312 3.00781 308.781 2.11719 307.719C1.22656 306.651 0.78125 305.19 0.78125 303.336C0.78125 301.477 1.22656 300.023 2.11719 298.977C3.01302 297.93 4.22396 297.406 5.75 297.406C7.27604 297.406 8.48438 297.93 9.375 298.977C10.2656 300.018 10.7109 301.469 10.7109 303.328C10.7109 305.182 10.2656 306.643 9.375 307.711C8.48438 308.779 7.27604 309.312 5.75 309.312ZM4.59375 305.891C4.88542 306.474 5.27083 306.766 5.75 306.766C6.22917 306.766 6.61198 306.474 6.89844 305.891C7.1901 305.307 7.33594 304.456 7.33594 303.336C7.33594 302.216 7.19271 301.372 6.90625 300.805C6.61979 300.237 6.23438 299.953 5.75 299.953C5.26562 299.953 4.8776 300.237 4.58594 300.805C4.29948 301.372 4.15625 302.216 4.15625 303.336C4.15625 304.456 4.30208 305.307 4.59375 305.891ZM15.1797 304.359V302.141H16.5547C16.987 302.141 17.3281 302.036 17.5781 301.828C17.8333 301.62 17.9609 301.336 17.9609 300.977C17.9609 300.622 17.8333 300.344 17.5781 300.141C17.3229 299.932 16.9688 299.828 16.5156 299.828C16.0729 299.828 15.7135 299.953 15.4375 300.203C15.1615 300.448 15.0234 300.768 15.0234 301.164H12.0391C12.0443 300.034 12.4688 299.128 13.3125 298.445C14.1562 297.758 15.2708 297.414 16.6562 297.414C17.9896 297.414 19.0469 297.695 19.8281 298.258C20.6146 298.815 21.0078 299.57 21.0078 300.523C21.0078 301.19 20.7891 301.758 20.3516 302.227C19.9141 302.69 19.349 302.984 18.6562 303.109V303.172C19.4948 303.266 20.1615 303.549 20.6562 304.023C21.151 304.492 21.3984 305.107 21.3984 305.867C21.3984 306.919 20.9557 307.758 20.0703 308.383C19.1849 309.003 17.9948 309.312 16.5 309.312C15.1354 309.312 14.0286 308.971 13.1797 308.289C12.3359 307.602 11.8854 306.682 11.8281 305.531H14.9844C14.9948 305.906 15.1406 306.203 15.4219 306.422C15.7031 306.635 16.0859 306.742 16.5703 306.742C17.0078 306.742 17.3594 306.633 17.625 306.414C17.8958 306.19 18.0312 305.896 18.0312 305.531C18.0312 305.161 17.8984 304.875 17.6328 304.672C17.3724 304.464 17.0078 304.359 16.5391 304.359H15.1797Z" fill="#C4C4C4"/>
<path d="M71.5151 300.915L69.6349 299.259L71.5151 297.604C71.8075 297.346 71.9075 296.944 71.7702 296.58C71.6323 296.215 71.2915 295.979 70.9018 295.979H63.1211V295.645C63.1211 295.289 62.8324 295 62.4763 295C62.1201 295 61.8314 295.289 61.8314 295.645V304.342L56.5352 307.218C56.506 306.985 56.4361 306.756 56.3257 306.54L55.5795 305.084C55.0672 304.083 53.8365 303.687 52.8368 304.199L52.2598 304.494C51.775 304.742 51.4162 305.164 51.249 305.682C51.0818 306.2 51.1265 306.753 51.3749 307.237L52.1211 308.694C52.2954 309.034 52.5528 309.304 52.8556 309.492C52.4595 310.026 52.2715 310.682 52.0782 311.363L51.9392 311.855C51.8422 312.198 52.0416 312.554 52.3843 312.651C52.4427 312.668 52.5018 312.676 52.5599 312.676C52.8412 312.676 53.0997 312.49 53.1803 312.206L53.3192 311.715C53.6019 310.718 53.7754 310.184 54.328 309.884L55.3186 309.346L55.4408 309.284C55.4814 309.263 55.5194 309.239 55.558 309.216L62.6183 305.382C62.5736 306.265 62.0986 307.099 61.3164 307.574L56.7252 310.363C56.7198 310.366 56.7144 310.369 56.7094 310.373L55.2803 311.241C54.9762 311.426 54.8792 311.823 55.0642 312.127C55.2384 312.414 55.6009 312.516 55.8967 312.372L54.8124 315.65L54.0198 315.975L51.8647 316.858L52.4857 314.663C52.5824 314.32 52.3833 313.963 52.0406 313.866C51.6975 313.769 51.3413 313.969 51.2443 314.311L50.2631 317.781C50.2503 317.826 50.2419 317.875 50.2399 317.922L49.9831 322.639C49.9754 322.819 50.0137 323.159 49.9304 323.334L47.0784 329.335H45.0058C43.7916 329.335 42.804 330.322 42.804 331.536V333.398C42.526 333.27 42.2175 333.199 41.8923 333.199H36.6289C35.4151 333.199 34.4275 334.186 34.4275 335.401V337.71H32.8792C32.5231 337.71 32.2344 337.999 32.2344 338.355C32.2344 338.711 32.5231 339 32.8792 339H70.9011C71.2573 339 71.546 338.711 71.546 338.355C71.546 337.999 71.2573 337.71 70.9011 337.71H69.224V321.088C69.224 319.874 68.2364 318.887 67.0225 318.887H63.1211V307.637C63.8361 306.668 64.101 305.397 63.769 304.19C63.717 304.001 63.581 303.845 63.3997 303.768C63.3108 303.73 63.2155 303.713 63.1211 303.717V302.54H70.9015C71.2915 302.54 71.6323 302.304 71.7699 301.939C71.9075 301.575 71.8075 301.173 71.5151 300.915ZM52.4766 306.079C52.5381 305.888 52.6697 305.733 52.8476 305.642L53.4246 305.347C53.5334 305.291 53.6496 305.264 53.7644 305.264C54.0363 305.264 54.2991 305.413 54.4314 305.671L55.178 307.129C55.3522 307.469 55.2394 307.882 54.9295 308.09L54.7194 308.204L54.276 308.431C53.909 308.619 53.4572 308.473 53.2692 308.106L52.5226 306.649C52.4317 306.471 52.4152 306.269 52.4766 306.079ZM51.1809 329.533C50.9617 329.433 50.7233 329.368 50.4729 329.344L51.1809 328.404V329.533ZM54.2427 324.337C54.5529 323.965 54.6385 323.531 54.7077 323.181C54.7251 323.098 55.0433 321.36 55.0433 321.36C55.0433 321.36 55.3445 321.548 55.376 321.561C55.3978 321.571 55.4133 321.592 55.4156 321.617L55.7664 325.183H53.6052L54.2427 324.337ZM58.0562 320.778L57.5117 325.18H57.0622L56.6993 321.491C56.653 321.019 56.3636 320.606 55.9396 320.401L55.2911 319.99L55.7231 317.595C55.7231 317.595 57.5433 319.757 57.5855 319.812C57.9622 320.302 58.0911 320.498 58.0562 320.778ZM51.0906 323.898C51.2208 323.506 51.2812 323.107 51.2712 322.701L51.5055 318.399L54.4881 317.177L53.946 320.18C53.9443 320.188 53.9426 320.196 53.9416 320.204L53.4931 322.688C53.4347 322.945 53.3837 323.335 53.2232 323.547L48.8656 329.335H48.5064L51.0906 323.898ZM35.7172 335.4C35.7172 334.898 36.1261 334.489 36.6289 334.489H41.8923C42.3951 334.489 42.8043 334.898 42.8043 335.4V337.71H35.7172V335.4ZM44.0937 335.4V331.536C44.0937 331.033 44.5029 330.624 45.0058 330.624H50.2691C50.772 330.624 51.1809 331.033 51.1809 331.536V337.71H44.0941V335.4H44.0937ZM67.9343 321.088V337.71H60.8475V333.844C60.8475 333.488 60.5588 333.199 60.2026 333.199C59.8461 333.199 59.5574 333.488 59.5574 333.844V337.71H52.4706V327.385C52.4706 326.882 52.8795 326.473 53.3823 326.473H58.6457C59.1485 326.473 59.5574 326.882 59.5574 327.385V330.617C59.5574 330.973 59.8461 331.262 60.2023 331.262C60.5588 331.262 60.8471 330.973 60.8471 330.617V321.088C60.8471 320.585 61.2563 320.177 61.7592 320.177H62.4695C62.4716 320.177 62.4739 320.177 62.4763 320.177C62.4783 320.177 62.4806 320.177 62.4826 320.177H67.0222C67.5251 320.177 67.9343 320.586 67.9343 321.088ZM61.7592 318.887C60.5454 318.887 59.5577 319.874 59.5577 321.088V325.382C59.3268 325.276 59.075 325.21 58.8102 325.19L59.3362 320.936C59.4396 320.107 59.0166 319.558 58.6077 319.026C58.5644 318.969 56.0578 315.993 56.0578 315.993L57.5956 311.344L61.8314 308.77V318.887H61.7592ZM63.1211 301.25V297.269H69.9434L68.4741 298.563C68.274 298.739 68.1592 298.993 68.1592 299.26C68.1592 299.526 68.274 299.78 68.4741 299.956L69.9434 301.25H63.1211V301.25Z" fill="#FE3B3B"/>
<line x1="30.5" y1="0.5" x2="30.5" y2="56.5" stroke="#FE3B3B" stroke-linecap="round" stroke-dasharray="4 4 4 4"/>
<line x1="30.5" y1="125.5" x2="30.5" y2="183.5" stroke="#FE3B3B" stroke-linecap="round" stroke-dasharray="4 4 4 4"/>
<path d="M32.375 237.998C32.7552 237.998 33.0625 237.691 33.0625 237.31V235.937C33.0625 234.42 34.2959 233.187 35.8125 233.187H37.545L40.0881 236.367C40.1025 236.384 40.1252 236.392 40.141 236.408C40.1609 236.429 40.1726 236.455 40.1953 236.474C40.2242 236.497 40.2586 236.508 40.2895 236.526C40.3142 236.54 40.3363 236.556 40.3624 236.567C40.4469 236.602 40.5349 236.625 40.6243 236.625H40.625H40.6257C40.7151 236.625 40.8031 236.602 40.8883 236.567C40.9131 236.556 40.9344 236.541 40.9584 236.527C40.9907 236.51 41.0258 236.498 41.0554 236.474C41.0794 236.455 41.0918 236.428 41.1117 236.406C41.1269 236.391 41.1482 236.384 41.1619 236.367L43.7112 233.187H45.4375C46.9541 233.187 48.1875 234.42 48.1875 235.937V237.31C48.1875 237.691 48.4948 237.998 48.875 237.998C49.2552 237.998 49.5625 237.691 49.5625 237.31V235.937C49.5625 233.662 47.7124 231.812 45.4375 231.812H44.0625V230.193C46.1133 229.003 47.5 226.788 47.5 224.25V224.051C47.9345 224.704 48.1889 225.488 48.1889 226.33C48.1889 226.711 48.4962 227.018 48.8764 227.018C49.2566 227.018 49.5639 226.711 49.5639 226.33C49.5639 226.329 49.5639 226.328 49.5639 226.326C49.5639 226.326 49.5639 226.326 49.5639 226.325V220.476C49.5639 220.472 49.5618 220.469 49.5618 220.467C49.557 216.112 46.0136 212.571 41.6583 212.571C39.536 212.571 37.6131 213.313 36.2009 214.651C34.8321 214.803 33.7596 215.951 33.7528 217.358C33.7528 217.363 33.75 217.367 33.75 217.372V224.25C33.75 226.788 35.1367 229.003 37.1875 230.194V231.812H35.8125C33.5376 231.812 31.6875 233.662 31.6875 235.937V237.31C31.6875 237.691 31.9948 237.998 32.375 237.998ZM48.1875 220.477C48.1875 220.48 48.1889 220.481 48.1889 220.484V222.703C47.1975 221.575 45.7565 220.855 44.1464 220.83C44.1182 220.826 44.0934 220.813 44.0646 220.813H38.5776C38.5728 220.813 38.5687 220.81 38.5639 220.81C37.8056 220.81 37.1896 220.192 37.1896 219.433C37.1896 219.43 37.1875 219.427 37.1875 219.423L37.1889 215.61C38.3411 214.538 39.9134 213.946 41.6583 213.946C45.2581 213.947 48.1875 216.876 48.1875 220.477ZM35.8139 216.188L35.8125 219.436C35.8125 219.942 35.5341 220.381 35.125 220.62V217.379C35.125 217.376 35.1264 217.375 35.1264 217.372C35.1264 216.866 35.4048 216.428 35.8139 216.188ZM35.125 224.251V222.089C35.6688 221.947 36.1425 221.644 36.5021 221.234C37.0012 221.805 37.7238 222.174 38.5384 222.182C38.5481 222.183 38.5549 222.188 38.5646 222.188H43.9993C44.0199 222.19 44.0378 222.2 44.0591 222.2C44.8126 222.2 45.5166 222.406 46.125 222.76V224.251C46.125 227.283 43.6569 229.749 40.6236 229.749C37.5918 229.749 35.125 227.283 35.125 224.251ZM40.6236 231.124C41.3428 231.124 42.0358 231.012 42.6875 230.807V232.265L40.6257 234.836L38.5625 232.257V230.807C39.2136 231.013 39.9059 231.124 40.6236 231.124Z" fill="#FE3B3B"/>
<path d="M50.4516 211.686C50.5808 211.815 50.7555 211.887 50.9377 211.887H50.9383L61.1388 211.879L65.1586 213.218C65.2301 213.242 65.303 213.254 65.3758 213.254C65.5182 213.254 65.6591 213.21 65.7773 213.125C65.9568 212.996 66.0633 212.789 66.0633 212.567L66.064 211.879H67.4383C67.8185 211.879 68.1258 211.572 68.1258 211.192V194.688C68.1258 194.308 67.8185 194.001 67.4383 194.001H50.9377C50.5575 194.001 50.2502 194.308 50.2502 194.688V198.818H40.6238C40.2436 198.818 39.9363 199.125 39.9363 199.505V208.44C39.9363 208.82 40.2436 209.128 40.6238 209.128H41.9988V209.815C41.9988 210.043 42.1122 210.257 42.3006 210.384C42.4161 210.462 42.5502 210.503 42.6863 210.503C42.7729 210.503 42.8595 210.487 42.9413 210.454L46.2551 209.128L50.2502 209.135V211.2C50.2502 211.382 50.3223 211.557 50.4516 211.686ZM51.6252 195.376H66.7508V210.504H65.3772C64.9977 210.504 64.6904 210.811 64.6897 211.191L64.689 211.613L61.4674 210.539C61.3966 210.516 61.3237 210.503 61.2502 210.503H61.2495L51.6252 210.512V195.376ZM46.1252 207.753C46.1245 207.753 46.1245 207.753 46.1238 207.753C46.0365 207.753 45.9498 207.769 45.8687 207.801L43.3738 208.8V208.44C43.3738 208.06 43.0665 207.753 42.6863 207.753H41.3113V200.193H50.2502V207.76L46.1252 207.753Z" fill="#FE3B3B"/>
<path d="M60.568 213.939C59.4309 213.939 58.5055 214.864 58.5055 216.001V221.472C58.5048 221.482 58.5 221.49 58.5 221.499V224.223C58.5 224.229 58.5028 224.233 58.5028 224.238C58.5028 224.242 58.5 224.246 58.5 224.252C58.5 226.79 59.886 229.005 61.9375 230.196V231.812H60.5625C58.2876 231.812 56.4375 233.662 56.4375 235.937V237.31C56.4375 237.691 56.7448 237.998 57.125 237.998C57.5052 237.998 57.8125 237.691 57.8125 237.31V235.937C57.8125 234.421 59.0459 233.187 60.5625 233.187H62.1059L63.3386 237.5C63.4252 237.802 63.7003 237.999 63.9993 237.999C64.0626 237.999 64.1258 237.99 64.1884 237.973C64.5534 237.869 64.7652 237.488 64.6614 237.123L63.714 233.808C63.7167 233.81 63.7202 233.809 63.7229 233.81C63.8096 233.849 63.9017 233.875 63.9972 233.875C63.9979 233.875 63.9986 233.876 63.9993 233.876H64H64.0007C64.0014 233.876 64.0021 233.875 64.0028 233.875C64.099 233.875 64.1904 233.849 64.2771 233.81C64.2874 233.805 64.2977 233.808 64.3073 233.803L65.375 233.269L66.4427 233.802C66.4523 233.807 66.4626 233.805 66.4729 233.81C66.5596 233.848 66.6517 233.874 66.7472 233.874C66.7479 233.874 66.7486 233.875 66.7493 233.875H66.75H66.7507C66.7514 233.875 66.7521 233.874 66.7528 233.874C66.849 233.874 66.9404 233.848 67.0271 233.81C67.0298 233.808 67.0332 233.809 67.036 233.808L66.0886 237.123C65.9848 237.487 66.1959 237.868 66.5616 237.972C66.6249 237.99 66.6881 237.999 66.7507 237.999C67.0497 237.999 67.3248 237.802 67.4114 237.499L68.6441 233.187H70.1875C71.7041 233.187 72.9375 234.421 72.9375 235.937V237.31C72.9375 237.691 73.2448 237.998 73.625 237.998C74.0052 237.998 74.3125 237.691 74.3125 237.31V235.937C74.3125 233.662 72.4624 231.812 70.1875 231.812H68.8125V230.195C70.864 229.005 72.25 226.789 72.25 224.251V224.251V224.25V221.578C72.2514 221.561 72.2603 221.545 72.2603 221.528V216.001C72.2603 214.863 71.3349 213.938 70.1978 213.938H60.568V213.939ZM67.4375 232.075L66.75 232.419L65.6823 231.885C65.6672 231.878 65.65 231.878 65.6349 231.872C65.5916 231.854 65.5476 231.845 65.5022 231.836C65.4589 231.828 65.4183 231.82 65.375 231.82C65.3317 231.82 65.2911 231.829 65.2478 231.836C65.2024 231.845 65.1578 231.854 65.1151 231.872C65.1 231.878 65.0828 231.878 65.0677 231.885L64 232.419L63.3125 232.075V230.809C63.9636 231.014 64.6559 231.126 65.3743 231.126C66.0928 231.126 66.7858 231.014 67.4375 230.809V232.075ZM65.3743 229.751C62.3418 229.751 59.875 227.284 59.875 224.252C59.875 224.246 59.8722 224.242 59.8722 224.238C59.8722 224.232 59.875 224.228 59.875 224.223V222.216H70.875V224.251V224.251V224.252C70.875 227.284 68.4076 229.751 65.3743 229.751ZM70.8853 216.001V220.841H59.8805V216.001C59.8805 215.622 60.1885 215.314 60.568 215.314H70.1978C70.5766 215.314 70.8853 215.622 70.8853 216.001Z" fill="#FE3B3B"/>
<path d="M66.7487 217.389H66.0605V216.689C66.0605 216.309 65.7532 216.001 65.373 216.001C64.9928 216.001 64.6855 216.309 64.6855 216.689V217.389H63.9973C63.6171 217.389 63.3098 217.697 63.3098 218.077C63.3098 218.457 63.6171 218.764 63.9973 218.764H64.6855V219.447C64.6855 219.827 64.9928 220.135 65.373 220.135C65.7532 220.135 66.0605 219.827 66.0605 219.447V218.764H66.7487C67.1289 218.764 67.4362 218.457 67.4362 218.077C67.4362 217.697 67.1289 217.389 66.7487 217.389Z" fill="#FE3B3B"/>
<path d="M64.6875 202.938C64.6875 199.906 62.2201 197.438 59.1875 197.438C56.1549 197.438 53.6875 199.906 53.6875 202.938C53.6875 205.971 56.1549 208.438 59.1875 208.438C62.2201 208.438 64.6875 205.971 64.6875 202.938ZM59.1875 207.063C56.9126 207.063 55.0625 205.213 55.0625 202.938C55.0625 200.663 56.9126 198.813 59.1875 198.813C61.4624 198.813 63.3125 200.663 63.3125 202.938C63.3125 205.213 61.4624 207.063 59.1875 207.063Z" fill="#FE3B3B"/>
<path d="M61.25 202.249H59.875V200.874C59.875 200.494 59.5677 200.187 59.1875 200.187C58.8073 200.187 58.5 200.494 58.5 200.874V202.249H57.125C56.7448 202.249 56.4375 202.557 56.4375 202.937C56.4375 203.317 56.7448 203.624 57.125 203.624H58.5V204.999C58.5 205.38 58.8073 205.687 59.1875 205.687C59.5677 205.687 59.875 205.38 59.875 204.999V203.624H61.25C61.6302 203.624 61.9375 203.317 61.9375 202.937C61.9375 202.557 61.6302 202.249 61.25 202.249Z" fill="#FE3B3B"/>
<line x1="30.5" y1="252.5" x2="30.5" y2="286.5" stroke="#FE3B3B" stroke-linecap="round" stroke-dasharray="4 4 4 4"/>
<path d="M69.875 99.9375H59.5625V83.9779C59.8127 83.8493 60.0561 83.7111 60.2892 83.5564L62.7484 86.6302C61.6305 87.7502 60.9375 89.2957 60.9375 91C60.9375 94.4121 63.7129 97.1875 67.125 97.1875C70.5371 97.1875 73.3125 94.4121 73.3125 91C73.3125 87.5886 70.5371 84.8125 67.125 84.8125C65.9116 84.8125 64.782 85.1686 63.8257 85.775L61.361 82.6943C62.637 81.4671 63.484 79.7999 63.6531 77.9375H65.3251H66.0126L67.3876 80.6875H73.0499L71.3311 77.25L73.0499 73.8125H67.3876L66.0126 76.5625H65.3251H63.6531C63.3039 72.7139 60.063 69.6875 56.125 69.6875C54.2832 69.6875 52.5954 70.3509 51.2822 71.4489C51.1344 70.4548 50.284 69.6875 49.25 69.6875H41C40.1049 69.6875 39.3486 70.2643 39.064 71.0625H34.125C32.2296 71.0625 30.6875 72.6046 30.6875 74.5V108.875C30.6875 110.77 32.2296 112.312 34.125 112.312H56.125C58.0204 112.312 59.5625 110.77 59.5625 108.875V106.812H69.875C71.7704 106.812 73.3125 105.27 73.3125 103.375C73.3125 101.48 71.7704 99.9375 69.875 99.9375ZM71.9375 91C71.9375 93.6531 69.7781 95.8125 67.125 95.8125C64.4719 95.8125 62.3125 93.6531 62.3125 91C62.3125 88.3463 64.4719 86.1875 67.125 86.1875C69.7781 86.1875 71.9375 88.3463 71.9375 91ZM68.2374 79.3125L67.5499 77.9375H69.1875H70.1376L70.8251 79.3125H68.2374ZM68.2374 75.1875H70.8251L70.1376 76.5625H69.1875H67.5499L68.2374 75.1875ZM39.064 75.1875C39.3486 75.9857 40.1049 76.5625 41 76.5625H48.5976C48.5769 76.7894 48.5625 77.0176 48.5625 77.25C48.5625 79.4521 49.5147 81.4314 51.0217 82.8146L49.9732 84.1903C48.5749 83.2828 46.9125 82.75 45.125 82.75C40.197 82.75 36.1875 86.7595 36.1875 91.6875C36.1875 96.6155 40.197 100.625 45.125 100.625C50.053 100.625 54.0625 96.6155 54.0625 91.6875C54.0625 89.0399 52.8986 86.6646 51.0636 85.027L52.1134 83.6493C53.0945 84.2666 54.2234 84.6674 55.4375 84.7774V99.9375H51.8749L46.9022 101.803C46.2504 102.047 45.8125 102.679 45.8125 103.375C45.8125 104.071 46.2504 104.703 46.9022 104.948L51.8749 106.812H55.4375V108.188H34.8125V75.1875H39.064ZM48.5625 95.125H47.1875V89.625H48.5625V95.125ZM45.8125 95.125H44.4375V91V88.25H45.8125V95.125ZM43.0625 95.125H41.6875V92.375H43.0625V95.125ZM50.9543 96.5C49.5662 98.1782 47.4687 99.25 45.125 99.25C42.7813 99.25 40.6844 98.1782 39.2957 96.5H50.9543ZM51.8529 95.125H49.9375V88.25H47.1875V86.875H43.0625V91H40.3125V95.125H38.3971C37.8677 94.0924 37.5625 92.9257 37.5625 91.6875C37.5625 87.5178 40.9553 84.125 45.125 84.125C49.2947 84.125 52.6875 87.5178 52.6875 91.6875C52.6875 92.9257 52.3822 94.0924 51.8529 95.125ZM47.3855 103.661C47.2673 103.616 47.1875 103.501 47.1875 103.375C47.1875 103.249 47.2673 103.134 47.3855 103.09L51.3125 101.617V105.133L47.3855 103.661ZM52.6875 105.438V104.062H66.4375V105.438H52.6875ZM66.4375 102.688H52.6875V101.312H66.4375V102.688ZM58.1875 99.9375H56.8125V84.7774C57.2855 84.7348 57.7441 84.6454 58.1875 84.5189V99.9375ZM56.125 71.0625C59.3047 71.0625 61.9289 73.4736 62.2719 76.5625H59.4931C59.1734 74.9957 57.7846 73.8125 56.125 73.8125C54.2296 73.8125 52.6875 75.3546 52.6875 77.25C52.6875 79.1454 54.2296 80.6875 56.125 80.6875C57.7846 80.6875 59.1734 79.5043 59.4931 77.9375H62.2719C61.9289 81.0264 59.3047 83.4375 56.125 83.4375C52.7129 83.4375 49.9375 80.6614 49.9375 77.25C49.9375 73.8386 52.7129 71.0625 56.125 71.0625ZM58.061 77.9375C57.7764 78.7357 57.0201 79.3125 56.125 79.3125C54.9879 79.3125 54.0625 78.3871 54.0625 77.25C54.0625 76.1129 54.9879 75.1875 56.125 75.1875C57.0201 75.1875 57.7764 75.7643 58.061 76.5625H55.4375V77.9375H58.061ZM40.3125 71.75C40.3125 71.3712 40.6205 71.0625 41 71.0625H49.25C49.6295 71.0625 49.9375 71.3712 49.9375 71.75V72.9153C49.4576 73.598 49.0905 74.3625 48.8568 75.1841L41 75.1875C40.6205 75.1875 40.3125 74.8788 40.3125 74.5V71.75ZM58.1875 108.875C58.1875 110.012 57.2621 110.938 56.125 110.938H34.125C32.9879 110.938 32.0625 110.012 32.0625 108.875V74.5C32.0625 73.3629 32.9879 72.4375 34.125 72.4375H38.9375V73.8125H34.8125C34.0542 73.8125 33.4375 74.4292 33.4375 75.1875V108.188C33.4375 108.946 34.0542 109.562 34.8125 109.562H55.4375C56.1958 109.562 56.8125 108.946 56.8125 108.188V106.812H58.1875V108.875ZM69.875 105.438H67.8125V101.312H69.875C71.0121 101.312 71.9375 102.238 71.9375 103.375C71.9375 104.512 71.0121 105.438 69.875 105.438Z" fill="#FE3B3B"/>
<path d="M63.6875 92.6376C63.6875 93.6297 64.4953 94.4375 65.4874 94.4375C65.7651 94.4375 66.0443 94.3715 66.2924 94.2477L69.5684 92.6101C70.1809 92.3028 70.5625 91.6854 70.5625 91C70.5625 90.3139 70.1809 89.6965 69.5677 89.3899L66.2924 87.7522C66.0443 87.6285 65.7651 87.5625 65.4874 87.5625C64.4953 87.5625 63.6875 88.3696 63.6875 89.3624V92.6376ZM65.0625 89.3624C65.0625 89.1279 65.2529 88.9375 65.4874 88.9375C65.5534 88.9375 65.6187 88.9526 65.6771 88.9822L68.9524 90.6198C69.0974 90.6927 69.1875 90.8377 69.1875 91C69.1875 91.1616 69.0974 91.3073 68.9524 91.3802L65.6771 93.0178C65.4118 93.1539 65.0625 92.9374 65.0625 92.6376V89.3624Z" fill="#FE3B3B"/>
<path d="M36.1875 102.688H44.4375V104.062H36.1875V102.688Z" fill="#FE3B3B"/>
<path d="M36.1875 105.438H44.4375V106.812H36.1875V105.438Z" fill="#FE3B3B"/>
<path d="M36.1875 77.9375H37.5625V79.3125H36.1875V77.9375Z" fill="#FE3B3B"/>
<path d="M38.9375 77.9375H47.1875V79.3125H38.9375V77.9375Z" fill="#FE3B3B"/>
<path d="M36.1875 80.6875H37.5625V82.0625H36.1875V80.6875Z" fill="#FE3B3B"/>
<path d="M38.9375 80.6875H47.1875V82.0625H38.9375V80.6875Z" fill="#FE3B3B"/>
</svg>
