<svg width="75" height="300" viewBox="0 0 75 300" fill="none" xmlns="http://www.w3.org/2000/svg">
<path d="M8.17188 84.3125C6.64062 84.3125 5.42969 83.7812 4.53906 82.7188C3.64844 81.651 3.20312 80.1901 3.20312 78.3359C3.20312 76.4766 3.64844 75.0234 4.53906 73.9766C5.4349 72.9297 6.64583 72.4062 8.17188 72.4062C9.69792 72.4062 10.9062 72.9297 11.7969 73.9766C12.6875 75.0182 13.1328 76.4688 13.1328 78.3281C13.1328 80.1823 12.6875 81.6432 11.7969 82.7109C10.9062 83.7786 9.69792 84.3125 8.17188 84.3125ZM7.01562 80.8906C7.30729 81.474 7.69271 81.7656 8.17188 81.7656C8.65104 81.7656 9.03385 81.474 9.32031 80.8906C9.61198 80.3073 9.75781 79.4557 9.75781 78.3359C9.75781 77.2161 9.61458 76.3724 9.32812 75.8047C9.04167 75.237 8.65625 74.9531 8.17188 74.9531C7.6875 74.9531 7.29948 75.237 7.00781 75.8047C6.72135 76.3724 6.57812 77.2161 6.57812 78.3359C6.57812 79.4557 6.72396 80.3073 7.01562 80.8906ZM17.1719 84V75.5625H17.1094L14.3438 77.3906V74.6172L17.1719 72.7266H20.4844V84H17.1719Z" fill="#C4C4C4"/>
<path d="M6.1875 180.312C4.65625 180.312 3.44531 179.781 2.55469 178.719C1.66406 177.651 1.21875 176.19 1.21875 174.336C1.21875 172.477 1.66406 171.023 2.55469 169.977C3.45052 168.93 4.66146 168.406 6.1875 168.406C7.71354 168.406 8.92188 168.93 9.8125 169.977C10.7031 171.018 11.1484 172.469 11.1484 174.328C11.1484 176.182 10.7031 177.643 9.8125 178.711C8.92188 179.779 7.71354 180.312 6.1875 180.312ZM5.03125 176.891C5.32292 177.474 5.70833 177.766 6.1875 177.766C6.66667 177.766 7.04948 177.474 7.33594 176.891C7.6276 176.307 7.77344 175.456 7.77344 174.336C7.77344 173.216 7.63021 172.372 7.34375 171.805C7.05729 171.237 6.67188 170.953 6.1875 170.953C5.70312 170.953 5.3151 171.237 5.02344 171.805C4.73698 172.372 4.59375 173.216 4.59375 174.336C4.59375 175.456 4.73958 176.307 5.03125 176.891ZM12.2344 172.266C12.2344 171.109 12.6536 170.18 13.4922 169.477C14.3307 168.768 15.4453 168.414 16.8359 168.414C18.1901 168.414 19.263 168.729 20.0547 169.359C20.8516 169.984 21.25 170.812 21.25 171.844C21.25 172.135 21.2005 172.432 21.1016 172.734C21.0026 173.031 20.888 173.286 20.7578 173.5C20.6328 173.714 20.4688 173.938 20.2656 174.172C20.0677 174.406 19.9089 174.581 19.7891 174.695C19.6693 174.81 19.5234 174.943 19.3516 175.094L16.7031 177.438V177.5H21.3828V180H12.4297V177.797L16.9609 173.789C17.3464 173.445 17.625 173.13 17.7969 172.844C17.974 172.552 18.0625 172.253 18.0625 171.945C18.0625 171.633 17.9427 171.375 17.7031 171.172C17.4635 170.964 17.1354 170.859 16.7188 170.859C16.2865 170.859 15.9323 170.99 15.6562 171.25C15.3854 171.51 15.25 171.846 15.25 172.258V172.328H12.2344V172.266Z" fill="#C4C4C4"/>
<path d="M5.75 272.312C4.21875 272.312 3.00781 271.781 2.11719 270.719C1.22656 269.651 0.78125 268.19 0.78125 266.336C0.78125 264.477 1.22656 263.023 2.11719 261.977C3.01302 260.93 4.22396 260.406 5.75 260.406C7.27604 260.406 8.48438 260.93 9.375 261.977C10.2656 263.018 10.7109 264.469 10.7109 266.328C10.7109 268.182 10.2656 269.643 9.375 270.711C8.48438 271.779 7.27604 272.312 5.75 272.312ZM4.59375 268.891C4.88542 269.474 5.27083 269.766 5.75 269.766C6.22917 269.766 6.61198 269.474 6.89844 268.891C7.1901 268.307 7.33594 267.456 7.33594 266.336C7.33594 265.216 7.19271 264.372 6.90625 263.805C6.61979 263.237 6.23438 262.953 5.75 262.953C5.26562 262.953 4.8776 263.237 4.58594 263.805C4.29948 264.372 4.15625 265.216 4.15625 266.336C4.15625 267.456 4.30208 268.307 4.59375 268.891ZM15.1797 267.359V265.141H16.5547C16.987 265.141 17.3281 265.036 17.5781 264.828C17.8333 264.62 17.9609 264.336 17.9609 263.977C17.9609 263.622 17.8333 263.344 17.5781 263.141C17.3229 262.932 16.9688 262.828 16.5156 262.828C16.0729 262.828 15.7135 262.953 15.4375 263.203C15.1615 263.448 15.0234 263.768 15.0234 264.164H12.0391C12.0443 263.034 12.4688 262.128 13.3125 261.445C14.1562 260.758 15.2708 260.414 16.6562 260.414C17.9896 260.414 19.0469 260.695 19.8281 261.258C20.6146 261.815 21.0078 262.57 21.0078 263.523C21.0078 264.19 20.7891 264.758 20.3516 265.227C19.9141 265.69 19.349 265.984 18.6562 266.109V266.172C19.4948 266.266 20.1615 266.549 20.6562 267.023C21.151 267.492 21.3984 268.107 21.3984 268.867C21.3984 269.919 20.9557 270.758 20.0703 271.383C19.1849 272.003 17.9948 272.312 16.5 272.312C15.1354 272.312 14.0286 271.971 13.1797 271.289C12.3359 270.602 11.8854 269.682 11.8281 268.531H14.9844C14.9948 268.906 15.1406 269.203 15.4219 269.422C15.7031 269.635 16.0859 269.742 16.5703 269.742C17.0078 269.742 17.3594 269.633 17.625 269.414C17.8958 269.19 18.0312 268.896 18.0312 268.531C18.0312 268.161 17.8984 267.875 17.6328 267.672C17.3724 267.464 17.0078 267.359 16.5391 267.359H15.1797Z" fill="#C4C4C4"/>
<line x1="31.5" y1="0.5" x2="31.5" y2="56.5" stroke="#FE3B3B" stroke-linecap="round" stroke-dasharray="4 4 4 4"/>
<line x1="31.5" y1="125.5" x2="31.5" y2="152.5" stroke="#FE3B3B" stroke-linecap="round" stroke-dasharray="4 4 4 4"/>
<line x1="31.5" y1="211.5" x2="31.5" y2="251.5" stroke="#FE3B3B" stroke-linecap="round" stroke-dasharray="4 4 4 4"/>
<path d="M44.6869 95.5122L44.6175 95.5124C44.1433 95.5124 43.759 95.8967 43.759 96.3709C43.759 96.845 44.1433 97.2293 44.6175 97.2293L44.6984 97.2291C45.1725 97.2259 45.5543 96.839 45.5511 96.3649C45.5479 95.8909 45.161 95.5078 44.6869 95.5122Z" fill="#FE3B3B"/>
<path d="M44.6176 72.5063C39.0321 72.5063 34.488 77.0505 34.488 82.6359C34.488 88.2213 39.0321 92.7654 44.6176 92.7654C50.203 92.7654 54.7471 88.2213 54.7471 82.6359C54.7471 77.0505 50.203 72.5063 44.6176 72.5063ZM44.6176 91.0485C42.5965 91.0485 40.7395 90.3318 39.2875 89.1396C39.3727 88.2046 40.0701 87.4271 41.0087 87.2535L42.4001 86.9962L43.8901 89.3789C44.047 89.6298 44.322 89.7822 44.618 89.7822C44.914 89.7822 45.189 89.6297 45.3459 89.3788L46.8351 86.9963L48.2264 87.2535C49.1649 87.4271 49.8624 88.2046 49.9477 89.1396C48.4955 90.3319 46.6386 91.0485 44.6176 91.0485ZM42.9774 81.1713C44.0288 81.1713 45.0307 80.7977 45.8173 80.1278L46.9685 80.8041V81.676C46.9685 82.9723 45.9138 84.0269 44.6176 84.0269C43.3212 84.0269 42.2666 82.9722 42.2666 81.676V81.1712H42.9774V81.1713ZM42.2681 79.4543C42.3135 78.1976 43.35 77.1892 44.6176 77.1892C45.6284 77.1892 46.4925 77.8306 46.8238 78.7278L46.1148 78.3112C45.7534 78.0988 45.2913 78.1786 45.0221 78.5C44.5138 79.1064 43.7686 79.4543 42.9774 79.4543H42.2681ZM45.3975 86.057L44.6177 87.3043L43.8372 86.0562C43.909 85.9439 43.9704 85.8248 44.0199 85.6995C44.2151 85.7284 44.4146 85.7438 44.6176 85.7438C44.8203 85.7438 45.0196 85.7284 45.2144 85.6996C45.264 85.8251 45.3255 85.9444 45.3975 86.057ZM51.3168 87.7182C50.8069 86.6223 49.7912 85.7967 48.5385 85.5651L47.0853 85.2965C46.9759 85.2763 46.8689 85.1919 46.8213 85.0924C47.9418 84.3671 48.6853 83.1072 48.6853 81.676V80.3128V79.6821V79.5402C48.6853 77.2972 46.8604 75.4724 44.6175 75.4724C42.3744 75.4724 40.5496 77.2973 40.5496 79.5402V79.6821V80.3128V81.676C40.5496 83.1069 41.293 84.3667 42.413 85.092C42.3654 85.1923 42.2588 85.2763 42.1487 85.2965L40.6963 85.5651C39.4437 85.7967 38.4281 86.6223 37.9181 87.7181C36.8436 86.3052 36.2047 84.5438 36.2047 82.6359C36.2047 77.9971 39.9786 74.2232 44.6174 74.2232C49.2562 74.2232 53.0301 77.9971 53.0301 82.6359C53.0302 84.5439 52.3913 86.3053 51.3168 87.7182Z" fill="#FE3B3B"/>
<path d="M72.5774 103.958L60.6094 91.9895C60.4484 91.8286 60.23 91.7381 60.0024 91.7381C59.7747 91.7381 59.5564 91.8286 59.3954 91.9895L58.7353 92.6496L56.7842 90.6985C58.3275 88.3683 59.2108 85.5852 59.2108 82.6359C59.2108 74.5891 52.6642 68.0425 44.6174 68.0425C36.5705 68.0425 30.0239 74.5891 30.0239 82.6359C30.0239 85.8809 31.0665 88.953 33.0389 91.52C34.9484 94.005 37.6525 95.8391 40.6533 96.6843C41.1095 96.813 41.5837 96.5471 41.7123 96.0907C41.8407 95.6344 41.575 95.1603 41.1187 95.0317C35.597 93.4765 31.7408 88.3792 31.7408 82.6359C31.7408 75.5358 37.5172 69.7594 44.6173 69.7594C51.7173 69.7594 57.4939 75.5358 57.4939 82.6359C57.4939 85.4538 56.5803 88.0999 55.003 90.2526C54.9833 90.2765 54.9653 90.3013 54.9487 90.3268C54.2558 91.2585 53.4374 92.0957 52.5146 92.8125C52.4495 92.8497 52.388 92.895 52.3325 92.9506C52.3315 92.9515 52.3308 92.9525 52.3298 92.9535C51.0209 93.933 49.5105 94.6737 47.8539 95.1024C47.3949 95.2213 47.1191 95.6896 47.2379 96.1486C47.3381 96.5354 47.6865 96.7922 48.0684 96.7922C48.1395 96.7922 48.2119 96.7833 48.2841 96.7646C49.9537 96.3325 51.4921 95.6207 52.8557 94.688L54.7763 96.6086L53.9711 97.4138C53.6358 97.749 53.6358 98.2926 53.9711 98.6278L56.6644 101.321C56.6644 101.321 56.6644 101.321 56.6645 101.321L65.9392 110.596C66.8543 111.511 68.0563 111.969 69.2583 111.969C70.4603 111.969 71.6624 111.511 72.5776 110.596C73.4641 109.709 73.9523 108.53 73.9523 107.277C73.9523 106.023 73.464 104.844 72.5774 103.958ZM54.2234 93.6277C54.7682 93.1509 55.276 92.6353 55.7427 92.0852L57.5212 93.8636L55.9902 95.3946L54.2234 93.6277ZM71.3635 109.382C70.2027 110.543 68.314 110.543 67.1532 109.382L58.4855 100.714L60.5905 98.6091C60.9258 98.2739 60.9259 97.7303 60.5905 97.3951C60.2552 97.0598 59.7118 97.0598 59.3765 97.3951L57.2714 99.5001L55.792 98.0207L56.5968 97.2159C56.597 97.2157 56.597 97.2156 56.5972 97.2155L59.3421 94.4705C59.3423 94.4704 59.3424 94.4703 59.3426 94.4701L60.0022 93.8104L71.3633 105.172C71.9256 105.734 72.2352 106.482 72.2352 107.277C72.2353 108.072 71.9257 108.82 71.3635 109.382Z" fill="#FE3B3B"/>
<path d="M66.9367 68C64.3548 68 62.0945 69.3981 60.8695 71.4763H58.6264C58.1523 71.4763 57.7679 71.8606 57.7679 72.3347C57.7679 72.8088 58.1522 73.1931 58.6263 73.1931H60.1448C59.9846 73.7819 59.8975 74.4004 59.8975 75.0392C59.8975 78.6418 62.6183 81.6191 66.1128 82.0286V89.9405C66.1128 90.4146 66.4971 90.7989 66.9712 90.7989C67.4453 90.7989 67.8297 90.4146 67.8297 89.9405V82.0198C71.2907 81.5793 73.9759 78.6179 73.9759 75.0392C73.9759 71.1578 70.8181 68 66.9367 68ZM70.4797 79.0063C69.5379 79.8484 68.2964 80.3615 66.9367 80.3615C65.5768 80.3615 64.3351 79.8483 63.3933 79.0061V78.9527C63.3933 78.4408 63.7586 78.001 64.262 77.9071L64.9668 77.7756C65.4899 78.2445 66.1804 78.5303 66.9365 78.5303C67.6927 78.5303 68.3831 78.2445 68.9061 77.7756L69.6111 77.9071C70.1144 78.001 70.4797 78.4407 70.4797 78.9527V79.0063ZM65.6988 75.5759V74.212C65.6988 73.5296 66.254 72.9744 66.9364 72.9744C67.6188 72.9744 68.174 73.5296 68.174 74.212V75.5759C68.174 76.2582 67.6189 76.8135 66.9364 76.8135C66.254 76.8135 65.6988 76.2583 65.6988 75.5759ZM71.7122 77.3858C71.3067 76.7921 70.675 76.359 69.9259 76.2194L69.8239 76.2004C69.8674 75.999 69.891 75.7902 69.891 75.576V74.212C69.891 72.5829 68.5656 71.2575 66.9365 71.2575C65.3074 71.2575 63.9821 72.5829 63.9821 74.212V75.576C63.9821 75.7902 64.0056 75.999 64.0491 76.2004L63.9471 76.2194C63.1982 76.359 62.5665 76.7919 62.161 77.3855C61.8116 76.6772 61.6143 75.8809 61.6143 75.0392C61.6145 72.1045 64.0021 69.7169 66.9368 69.7169C69.8714 69.7169 72.259 72.1045 72.259 75.0392C72.259 75.8811 72.0617 76.6774 71.7122 77.3858Z" fill="#FE3B3B"/>
<path d="M67.5781 92.6643C67.4184 92.5046 67.1978 92.4127 66.9712 92.4127C66.7455 92.4127 66.524 92.5046 66.3643 92.6643C66.2047 92.8239 66.1128 93.0454 66.1128 93.2711C66.1128 93.4969 66.2047 93.7184 66.3643 93.878C66.5249 94.0377 66.7455 94.1296 66.9712 94.1296C67.197 94.1296 67.4184 94.0377 67.5781 93.878C67.7386 93.7184 67.8296 93.4969 67.8296 93.2711C67.8296 93.0454 67.7386 92.8239 67.5781 92.6643Z" fill="#FE3B3B"/>
<path d="M48.3296 104.102H44.048C43.623 100.625 40.6537 97.9215 37.0631 97.9215C36.4089 97.9215 35.7761 98.0132 35.1746 98.181V96.3698C35.1746 95.8957 34.7903 95.5114 34.3162 95.5114C33.842 95.5114 33.4577 95.8957 33.4577 96.3698V98.9181C31.4029 100.149 30.0239 102.396 30.0239 104.961C30.0239 108.842 33.1817 112 37.0631 112C40.6538 112 43.6231 109.297 44.048 105.819H48.3296C48.8037 105.819 49.188 105.435 49.188 104.961C49.188 104.487 48.8037 104.102 48.3296 104.102ZM40.6061 108.928C39.6644 109.77 38.4228 110.283 37.0631 110.283C35.7033 110.283 34.4615 109.77 33.5197 108.928V108.874C33.5197 108.362 33.8849 107.923 34.3883 107.829L35.0932 107.697C35.6163 108.166 36.3067 108.452 37.0628 108.452C37.8189 108.452 38.5094 108.166 39.0325 107.697L39.7374 107.829C40.2408 107.923 40.6061 108.362 40.6061 108.874V108.928ZM35.8252 105.497V104.133C35.8252 103.451 36.3804 102.896 37.0628 102.896C37.7452 102.896 38.3004 103.451 38.3004 104.133V105.497C38.3004 106.18 37.7452 106.735 37.0628 106.735C36.3805 106.735 35.8252 106.18 35.8252 105.497ZM41.8386 107.307C41.4331 106.714 40.8012 106.281 40.0523 106.141L39.9503 106.122C39.9938 105.921 40.0173 105.712 40.0173 105.498V104.134C40.0173 102.504 38.692 101.179 37.0629 101.179C35.4338 101.179 34.1085 102.504 34.1085 104.133V105.497C34.1085 105.712 34.1321 105.921 34.1756 106.122L34.0736 106.141C33.3247 106.281 32.6931 106.713 32.2874 107.307C31.938 106.599 31.7408 105.802 31.7408 104.961C31.7408 102.026 34.1284 99.6384 37.0631 99.6384C39.9978 99.6384 42.3853 102.026 42.3853 104.961C42.3854 105.803 42.1882 106.599 41.8386 107.307Z" fill="#FE3B3B"/>
<path d="M55.4336 104.102H52C51.5259 104.102 51.1416 104.487 51.1416 104.961C51.1416 105.435 51.5259 105.819 52 105.819H55.4336C55.9077 105.819 56.292 105.435 56.292 104.961C56.292 104.487 55.9077 104.102 55.4336 104.102Z" fill="#FE3B3B"/>
<path d="M47.8794 107.702C47.4053 107.702 47.021 108.087 47.021 108.561C47.021 109.035 47.4053 109.419 47.8794 109.419H47.8879C48.362 109.419 48.7421 109.035 48.7421 108.561C48.7421 108.087 48.3535 107.702 47.8794 107.702Z" fill="#FE3B3B"/>
<path d="M51.9959 107.702C51.5218 107.702 51.1375 108.087 51.1375 108.561C51.1375 109.035 51.5218 109.419 51.9959 109.419H52.0044C52.4785 109.419 52.8586 109.035 52.8586 108.561C52.8586 108.087 52.47 107.702 51.9959 107.702Z" fill="#FE3B3B"/>
<path d="M56.112 107.702C55.6379 107.702 55.2535 108.087 55.2535 108.561C55.2535 109.035 55.6379 109.419 56.112 109.419H56.1205C56.5946 109.419 56.9747 109.035 56.9747 108.561C56.9747 108.087 56.5861 107.702 56.112 107.702Z" fill="#FE3B3B"/>
<path d="M49.4195 171.796C49.3571 171.675 49.2714 171.568 49.1673 171.48C49.0632 171.392 48.9428 171.326 48.813 171.285C48.6832 171.244 48.5465 171.229 48.411 171.241C48.2754 171.254 48.1436 171.292 48.0231 171.356C47.9026 171.419 47.7959 171.506 47.709 171.61C47.6221 171.715 47.5569 171.836 47.517 171.966C47.477 172.096 47.4633 172.233 47.4765 172.368C47.4897 172.504 47.5295 172.635 47.5938 172.755L48.0699 173.661C47.0043 179.374 42.4445 183.616 38.4758 185.702L32.9987 188.58C32.2724 188.962 31.7274 189.616 31.4837 190.4C31.24 191.183 31.3175 192.032 31.6992 192.758L33.6181 196.409C34 197.135 34.6546 197.68 35.438 197.924C36.2213 198.168 37.0694 198.09 37.7958 197.709L37.8948 197.657C39.016 198.352 41.8844 200.316 43.2839 202.98C43.4122 203.221 43.6304 203.401 43.891 203.482C44.1516 203.563 44.4337 203.538 44.676 203.413L47.1105 202.134C47.3513 202.005 47.5319 201.787 47.6129 201.526C47.694 201.266 47.6691 200.984 47.5436 200.741L44.1987 194.376C48.1479 192.564 53.7192 191.573 58.6307 193.759L59.1068 194.665C59.7192 195.862 61.5702 194.877 60.9325 193.705L49.4195 171.796ZM35.4439 195.45L33.5249 191.799C33.3991 191.556 33.3741 191.274 33.4552 191.013C33.5363 190.753 33.7171 190.535 33.9581 190.406L38.5224 188.008L41.4007 193.485L36.8364 195.883C36.5943 196.01 36.3117 196.035 36.0506 195.954C35.7896 195.873 35.5714 195.692 35.4439 195.45ZM44.5862 201.13C43.2529 199.084 41.325 197.506 39.9794 196.561L42.3599 195.31L45.2383 200.788L44.5862 201.13ZM49.9988 190.594C47.6592 190.898 45.3797 191.557 43.2388 192.548L40.3359 187.024C42.3667 185.823 44.2025 184.32 45.78 182.566C47.4883 180.65 48.7294 178.571 49.4881 176.36L57.2128 191.059C54.9613 190.43 52.5454 190.274 49.9988 190.594V190.594Z" fill="#FE3B3B"/>
<path d="M64.6875 165.719C59.1907 165.719 54.7188 169.613 54.7188 174.4C54.7188 176.918 55.9305 179.25 58.0693 180.896L57.4995 183.175C57.2643 183.998 58.2118 184.755 58.9611 184.348L62.0893 182.784C62.941 182.983 63.8129 183.083 64.6875 183.082C70.1843 183.082 74.6562 179.187 74.6562 174.4C74.6562 169.613 70.1843 165.719 64.6875 165.719ZM64.6875 181.019C63.8616 181.021 63.0393 180.912 62.2422 180.695C61.9974 180.629 61.7366 180.654 61.5096 180.768L60.0443 181.5L60.2406 180.715C60.2924 180.508 60.2786 180.29 60.201 180.091C60.1234 179.892 59.986 179.722 59.8076 179.604C57.8843 178.337 56.7812 176.44 56.7812 174.4C56.7812 170.751 60.328 167.781 64.6875 167.781C69.047 167.781 72.5938 170.751 72.5938 174.4C72.5938 178.05 69.047 181.019 64.6875 181.019Z" fill="#FE3B3B"/>
<path d="M66.7082 170.833L61.2082 176.333C60.248 177.266 61.7346 178.752 62.6666 177.792L68.1666 172.292C68.3574 172.098 68.4638 171.836 68.4627 171.564C68.4616 171.292 68.353 171.032 68.1607 170.839C67.9683 170.647 67.7077 170.538 67.4357 170.537C67.1636 170.536 66.9021 170.643 66.7082 170.833Z" fill="#FE3B3B"/>
<path d="M67.0938 177.75C67.6633 177.75 68.125 177.288 68.125 176.719C68.125 176.149 67.6633 175.688 67.0938 175.688C66.5242 175.688 66.0625 176.149 66.0625 176.719C66.0625 177.288 66.5242 177.75 67.0938 177.75Z" fill="#FE3B3B"/>
<path d="M62.2813 172.938C62.8508 172.938 63.3125 172.476 63.3125 171.906C63.3125 171.337 62.8508 170.875 62.2813 170.875C61.7117 170.875 61.25 171.337 61.25 171.906C61.25 172.476 61.7117 172.938 62.2813 172.938Z" fill="#FE3B3B"/>
<path d="M67.4375 192.531H69.5C69.5912 192.531 69.6786 192.567 69.7431 192.632C69.8075 192.696 69.8438 192.784 69.8438 192.875C69.8438 193.149 69.9524 193.411 70.1458 193.604C70.3392 193.798 70.6015 193.906 70.875 193.906C71.1485 193.906 71.4108 193.798 71.6042 193.604C71.7976 193.411 71.9062 193.149 71.9062 192.875C71.9055 192.237 71.6518 191.625 71.2007 191.174C70.7496 190.723 70.138 190.469 69.5 190.469H69.1562V188.75C69.1562 188.476 69.0476 188.214 68.8542 188.021C68.6608 187.827 68.3985 187.719 68.125 187.719C67.8515 187.719 67.5892 187.827 67.3958 188.021C67.2024 188.214 67.0938 188.476 67.0938 188.75V190.488C66.3087 190.577 65.5874 190.963 65.0777 191.566C64.5679 192.17 64.3084 192.946 64.3524 193.735C64.3964 194.523 64.7404 195.266 65.3141 195.809C65.8877 196.352 66.6475 196.655 67.4375 196.656H68.8125C69.086 196.656 69.3483 196.765 69.5417 196.958C69.7351 197.152 69.8438 197.414 69.8438 197.688C69.8438 197.961 69.7351 198.223 69.5417 198.417C69.3483 198.61 69.086 198.719 68.8125 198.719H66.75C66.6588 198.719 66.5714 198.683 66.5069 198.618C66.4425 198.554 66.4062 198.466 66.4062 198.375C66.4062 198.101 66.2976 197.839 66.1042 197.646C65.9108 197.452 65.6485 197.344 65.375 197.344C65.1015 197.344 64.8392 197.452 64.6458 197.646C64.4524 197.839 64.3438 198.101 64.3438 198.375C64.3445 199.013 64.5982 199.625 65.0493 200.076C65.5004 200.527 66.112 200.781 66.75 200.781H67.0938V202.5C67.0938 202.774 67.2024 203.036 67.3958 203.229C67.5892 203.423 67.8515 203.531 68.125 203.531C68.3985 203.531 68.6608 203.423 68.8542 203.229C69.0476 203.036 69.1562 202.774 69.1562 202.5V200.762C69.9413 200.673 70.6626 200.287 71.1723 199.684C71.6821 199.08 71.9416 198.304 71.8976 197.515C71.8536 196.727 71.5096 195.984 70.9359 195.441C70.3623 194.898 69.6025 194.595 68.8125 194.594H67.4375C67.164 194.594 66.9017 194.485 66.7083 194.292C66.5149 194.098 66.4062 193.836 66.4062 193.562C66.4062 193.289 66.5149 193.027 66.7083 192.833C66.9017 192.64 67.164 192.531 67.4375 192.531Z" fill="#FE3B3B"/>
<path d="M38.5625 175.344H36.5C36.4088 175.344 36.3214 175.308 36.2569 175.243C36.1925 175.179 36.1562 175.091 36.1562 175C36.1562 174.726 36.0476 174.464 35.8542 174.271C35.6608 174.077 35.3985 173.969 35.125 173.969C34.8515 173.969 34.5892 174.077 34.3958 174.271C34.2024 174.464 34.0938 174.726 34.0938 175C34.0945 175.638 34.3482 176.25 34.7993 176.701C35.2504 177.152 35.862 177.406 36.5 177.406H36.8438V179.125C36.8438 179.399 36.9524 179.661 37.1458 179.854C37.3392 180.048 37.6015 180.156 37.875 180.156C38.1485 180.156 38.4108 180.048 38.6042 179.854C38.7976 179.661 38.9062 179.399 38.9062 179.125V177.387C39.6913 177.298 40.4126 176.912 40.9223 176.309C41.4321 175.705 41.6916 174.929 41.6476 174.14C41.6036 173.352 41.2596 172.609 40.6859 172.066C40.1123 171.523 39.3525 171.22 38.5625 171.219H37.1875C36.914 171.219 36.6517 171.11 36.4583 170.917C36.2649 170.723 36.1562 170.461 36.1562 170.188C36.1562 169.914 36.2649 169.652 36.4583 169.458C36.6517 169.265 36.914 169.156 37.1875 169.156H39.25C39.3412 169.156 39.4286 169.192 39.4931 169.257C39.5575 169.321 39.5938 169.409 39.5938 169.5C39.5938 169.774 39.7024 170.036 39.8958 170.229C40.0892 170.423 40.3515 170.531 40.625 170.531C40.8985 170.531 41.1608 170.423 41.3542 170.229C41.5476 170.036 41.6562 169.774 41.6562 169.5C41.6555 168.862 41.4018 168.25 40.9507 167.799C40.4996 167.348 39.888 167.094 39.25 167.094H38.9062V165.375C38.9062 165.101 38.7976 164.839 38.6042 164.646C38.4108 164.452 38.1485 164.344 37.875 164.344C37.6015 164.344 37.3392 164.452 37.1458 164.646C36.9524 164.839 36.8438 165.101 36.8438 165.375V167.113C36.0587 167.202 35.3374 167.588 34.8277 168.191C34.3179 168.795 34.0584 169.571 34.1024 170.36C34.1464 171.148 34.4904 171.891 35.0641 172.434C35.6377 172.977 36.3975 173.28 37.1875 173.281H38.5625C38.836 173.281 39.0983 173.39 39.2917 173.583C39.4851 173.777 39.5938 174.039 39.5938 174.312C39.5938 174.586 39.4851 174.848 39.2917 175.042C39.0983 175.235 38.836 175.344 38.5625 175.344Z" fill="#FE3B3B"/>
<g clip-path="url(#clip0)">
<path d="M73.0832 277.083H53.3566C53.1135 277.083 52.9166 276.886 52.9166 276.643V256.917C52.9166 256.41 52.5061 256 51.9999 256C45.9017 256.01 40.0792 258.541 35.9124 262.994C27.6248 271.879 28.109 285.8 36.9941 294.088C40.6746 297.521 45.4211 299.588 50.4416 299.945C50.9672 299.982 51.4866 300 51.9999 300C57.5676 300.016 62.9304 297.901 66.9874 294.088C71.4468 289.924 73.9851 284.101 73.9998 278C73.9998 277.494 73.5895 277.083 73.0832 277.083ZM65.7499 292.749C61.6655 296.593 56.1534 298.542 50.5607 298.121C39.4423 297.466 30.9601 287.921 31.6151 276.803C32.2281 266.399 40.6672 258.176 51.0833 257.833V276.643C51.069 276.79 51.069 276.937 51.0833 277.083H48.3333V278.917H52.6233L68.1149 290.1C67.4066 291.051 66.6151 291.938 65.7499 292.749ZM69.1415 288.587H69.1324L55.7491 278.917H72.1665C71.9949 282.345 70.954 285.673 69.1415 288.587Z" fill="#FE3B3B"/>
<path d="M57.8482 274.333H73.0832C73.5895 274.333 73.9999 273.923 73.9999 273.417C73.9998 263.798 66.2021 256 56.5832 256C56.0769 256 55.6665 256.41 55.6665 256.917V272.152C55.6716 273.354 56.6453 274.328 57.8482 274.333ZM57.4998 257.833C65.4049 258.286 71.7137 264.595 72.1665 272.5H57.8482C57.6578 272.495 57.5047 272.342 57.4999 272.152V257.833H57.4998Z" fill="#FE3B3B"/>
<path d="M46.4998 277.083H44.6665V278.917H46.4998V277.083Z" fill="#FE3B3B"/>
</g>
<defs>
<clipPath id="clip0">
<rect width="44" height="44" fill="white" transform="translate(30 256)"/>
</clipPath>
</defs>
</svg>
