<svg width="75" height="300" viewBox="0 0 75 300" fill="none" xmlns="http://www.w3.org/2000/svg">
<path d="M8.17188 84.3125C6.64062 84.3125 5.42969 83.7812 4.53906 82.7188C3.64844 81.651 3.20312 80.1901 3.20312 78.3359C3.20312 76.4766 3.64844 75.0234 4.53906 73.9766C5.4349 72.9297 6.64583 72.4062 8.17188 72.4062C9.69792 72.4062 10.9062 72.9297 11.7969 73.9766C12.6875 75.0182 13.1328 76.4688 13.1328 78.3281C13.1328 80.1823 12.6875 81.6432 11.7969 82.7109C10.9062 83.7786 9.69792 84.3125 8.17188 84.3125ZM7.01562 80.8906C7.30729 81.474 7.69271 81.7656 8.17188 81.7656C8.65104 81.7656 9.03385 81.474 9.32031 80.8906C9.61198 80.3073 9.75781 79.4557 9.75781 78.3359C9.75781 77.2161 9.61458 76.3724 9.32812 75.8047C9.04167 75.237 8.65625 74.9531 8.17188 74.9531C7.6875 74.9531 7.29948 75.237 7.00781 75.8047C6.72135 76.3724 6.57812 77.2161 6.57812 78.3359C6.57812 79.4557 6.72396 80.3073 7.01562 80.8906ZM17.1719 84V75.5625H17.1094L14.3438 77.3906V74.6172L17.1719 72.7266H20.4844V84H17.1719Z" fill="#C4C4C4"/>
<path d="M6.1875 183.312C4.65625 183.312 3.44531 182.781 2.55469 181.719C1.66406 180.651 1.21875 179.19 1.21875 177.336C1.21875 175.477 1.66406 174.023 2.55469 172.977C3.45052 171.93 4.66146 171.406 6.1875 171.406C7.71354 171.406 8.92188 171.93 9.8125 172.977C10.7031 174.018 11.1484 175.469 11.1484 177.328C11.1484 179.182 10.7031 180.643 9.8125 181.711C8.92188 182.779 7.71354 183.312 6.1875 183.312ZM5.03125 179.891C5.32292 180.474 5.70833 180.766 6.1875 180.766C6.66667 180.766 7.04948 180.474 7.33594 179.891C7.6276 179.307 7.77344 178.456 7.77344 177.336C7.77344 176.216 7.63021 175.372 7.34375 174.805C7.05729 174.237 6.67188 173.953 6.1875 173.953C5.70312 173.953 5.3151 174.237 5.02344 174.805C4.73698 175.372 4.59375 176.216 4.59375 177.336C4.59375 178.456 4.73958 179.307 5.03125 179.891ZM12.2344 175.266C12.2344 174.109 12.6536 173.18 13.4922 172.477C14.3307 171.768 15.4453 171.414 16.8359 171.414C18.1901 171.414 19.263 171.729 20.0547 172.359C20.8516 172.984 21.25 173.812 21.25 174.844C21.25 175.135 21.2005 175.432 21.1016 175.734C21.0026 176.031 20.888 176.286 20.7578 176.5C20.6328 176.714 20.4688 176.938 20.2656 177.172C20.0677 177.406 19.9089 177.581 19.7891 177.695C19.6693 177.81 19.5234 177.943 19.3516 178.094L16.7031 180.438V180.5H21.3828V183H12.4297V180.797L16.9609 176.789C17.3464 176.445 17.625 176.13 17.7969 175.844C17.974 175.552 18.0625 175.253 18.0625 174.945C18.0625 174.633 17.9427 174.375 17.7031 174.172C17.4635 173.964 17.1354 173.859 16.7188 173.859C16.2865 173.859 15.9323 173.99 15.6562 174.25C15.3854 174.51 15.25 174.846 15.25 175.258V175.328H12.2344V175.266Z" fill="#C4C4C4"/>
<path d="M5.75 272.312C4.21875 272.312 3.00781 271.781 2.11719 270.719C1.22656 269.651 0.78125 268.19 0.78125 266.336C0.78125 264.477 1.22656 263.023 2.11719 261.977C3.01302 260.93 4.22396 260.406 5.75 260.406C7.27604 260.406 8.48438 260.93 9.375 261.977C10.2656 263.018 10.7109 264.469 10.7109 266.328C10.7109 268.182 10.2656 269.643 9.375 270.711C8.48438 271.779 7.27604 272.312 5.75 272.312ZM4.59375 268.891C4.88542 269.474 5.27083 269.766 5.75 269.766C6.22917 269.766 6.61198 269.474 6.89844 268.891C7.1901 268.307 7.33594 267.456 7.33594 266.336C7.33594 265.216 7.19271 264.372 6.90625 263.805C6.61979 263.237 6.23438 262.953 5.75 262.953C5.26562 262.953 4.8776 263.237 4.58594 263.805C4.29948 264.372 4.15625 265.216 4.15625 266.336C4.15625 267.456 4.30208 268.307 4.59375 268.891ZM15.1797 267.359V265.141H16.5547C16.987 265.141 17.3281 265.036 17.5781 264.828C17.8333 264.62 17.9609 264.336 17.9609 263.977C17.9609 263.622 17.8333 263.344 17.5781 263.141C17.3229 262.932 16.9688 262.828 16.5156 262.828C16.0729 262.828 15.7135 262.953 15.4375 263.203C15.1615 263.448 15.0234 263.768 15.0234 264.164H12.0391C12.0443 263.034 12.4688 262.128 13.3125 261.445C14.1562 260.758 15.2708 260.414 16.6562 260.414C17.9896 260.414 19.0469 260.695 19.8281 261.258C20.6146 261.815 21.0078 262.57 21.0078 263.523C21.0078 264.19 20.7891 264.758 20.3516 265.227C19.9141 265.69 19.349 265.984 18.6562 266.109V266.172C19.4948 266.266 20.1615 266.549 20.6562 267.023C21.151 267.492 21.3984 268.107 21.3984 268.867C21.3984 269.919 20.9557 270.758 20.0703 271.383C19.1849 272.003 17.9948 272.312 16.5 272.312C15.1354 272.312 14.0286 271.971 13.1797 271.289C12.3359 270.602 11.8854 269.682 11.8281 268.531H14.9844C14.9948 268.906 15.1406 269.203 15.4219 269.422C15.7031 269.635 16.0859 269.742 16.5703 269.742C17.0078 269.742 17.3594 269.633 17.625 269.414C17.8958 269.19 18.0312 268.896 18.0312 268.531C18.0312 268.161 17.8984 267.875 17.6328 267.672C17.3724 267.464 17.0078 267.359 16.5391 267.359H15.1797Z" fill="#C4C4C4"/>
<line x1="31.5" y1="0.5" x2="31.5" y2="67.5" stroke="#FE3B3B" stroke-linecap="round" stroke-dasharray="4 4 4 4"/>
<line x1="31.5" y1="121.5" x2="31.5" y2="168.5" stroke="#FE3B3B" stroke-linecap="round" stroke-dasharray="4 4 4 4"/>
<line x1="31.5" y1="227.5" x2="31.5" y2="252.5" stroke="#FE3B3B" stroke-linecap="round" stroke-dasharray="4 4 4 4"/>
<g clip-path="url(#clip0)">
<path d="M63.8371 78.978V73.5221C63.8371 72.0172 62.6135 70.793 61.1094 70.793C59.6332 70.793 58.4278 71.9702 58.3813 73.4347C55.5994 75.7739 50.4674 78.1686 45.7402 78.4362V77.5858C45.7402 76.1536 44.5755 74.9883 43.144 74.9883H39.0735C37.6419 74.9883 36.4773 76.1536 36.4773 77.5858V78.5142C32.8355 78.9416 30 82.0477 30 85.8058C30 89.564 32.8355 92.6701 36.4773 93.0975V94.0259C36.4773 95.1569 37.2037 96.1207 38.2141 96.4764V108.348C38.2141 108.822 38.5989 109.207 39.0735 109.207H41.1099C42.7053 109.207 44.0033 107.907 44.0033 106.31V96.4765C45.0137 96.1208 45.7402 95.1569 45.7402 94.026V93.1756C50.4675 93.4432 55.5994 95.8379 58.3813 98.177C58.4278 99.6415 59.6331 100.819 61.1094 100.819C62.6135 100.819 63.8371 99.5945 63.8371 98.0896V92.6337C66.4697 91.413 68.2 88.7419 68.2 85.8059C68.2 82.8699 66.4697 80.1987 63.8371 78.978ZM42.6915 91.4309H39.5261V80.1809H42.6915V91.4309ZM38.196 77.5858C38.196 77.1012 38.5896 76.707 39.0735 76.707H43.144C43.6278 76.707 44.0215 77.1012 44.0215 77.5858V78.4621H38.196V77.5858ZM31.7188 85.8058C31.7188 82.7042 34.239 80.1809 37.3367 80.1809H37.8073V91.4309H37.3367C34.239 91.4309 31.7188 88.9075 31.7188 85.8058ZM42.2846 106.31C42.2846 106.96 41.7576 107.488 41.1099 107.488H39.9328V96.6234H42.2846V106.31ZM44.0215 94.026C44.0215 94.5105 43.6278 94.9047 43.144 94.9047H39.0735C38.5896 94.9047 38.196 94.5105 38.196 94.026V93.1496H44.0215V94.026ZM62.1184 98.0896C62.1184 98.6467 61.6657 99.1 61.1094 99.1C60.5516 99.1 60.0978 98.6468 60.0978 98.0896V89.6672C60.0978 89.1927 59.713 88.8079 59.2384 88.8079C58.7639 88.8079 58.3791 89.1927 58.3791 89.6672V96.0055C54.9912 93.5852 49.7315 91.4309 44.8809 91.4309H44.4102V80.1809H44.8809C49.7314 80.1809 54.9913 78.0264 58.3791 75.6062V81.9444C58.3791 82.4189 58.7639 82.8038 59.2384 82.8038C59.713 82.8038 60.0978 82.4189 60.0978 81.9444V73.5221C60.0978 72.965 60.5516 72.5117 61.1094 72.5117C61.6658 72.5117 62.1184 72.965 62.1184 73.5221V79.5506V92.061V98.0896ZM63.8371 90.6744V80.9373C65.4567 81.9931 66.4812 83.8212 66.4812 85.8058C66.4812 87.7905 65.4567 89.6186 63.8371 90.6744Z" fill="#FE3B3B"/>
<path d="M73.1407 84.9464H71.3649C70.8903 84.9464 70.5055 85.3313 70.5055 85.8058C70.5055 86.2804 70.8903 86.6652 71.3649 86.6652H73.1407C73.6152 86.6652 74.0001 86.2804 74.0001 85.8058C74.0001 85.3313 73.6152 84.9464 73.1407 84.9464Z" fill="#FE3B3B"/>
<path d="M70.4683 81.3266C70.6879 81.3266 70.9076 81.2429 71.0753 81.0754L72.8487 79.3056C73.1846 78.9704 73.1852 78.4263 72.85 78.0903C72.5148 77.7542 71.9706 77.7538 71.6346 78.089L69.8612 79.8588C69.5253 80.1941 69.5247 80.7381 69.8599 81.0742C70.0279 81.2425 70.2481 81.3266 70.4683 81.3266Z" fill="#FE3B3B"/>
<path d="M71.0754 90.5363C70.7395 90.201 70.1954 90.2015 69.8601 90.5376C69.5248 90.8735 69.5254 91.4176 69.8614 91.7529L71.6348 93.5227C71.8025 93.6901 72.0221 93.7738 72.2418 93.7738C72.4619 93.7738 72.6822 93.6897 72.85 93.5214C73.1853 93.1855 73.1848 92.6414 72.8487 92.3061L71.0754 90.5363Z" fill="#FE3B3B"/>
<path d="M59.2384 84.9464C58.7639 84.9464 58.379 85.3313 58.379 85.8058V85.8107C58.379 86.2853 58.7639 86.6677 59.2384 86.6677C59.713 86.6677 60.0978 86.2804 60.0978 85.8059C60.0978 85.3314 59.713 84.9464 59.2384 84.9464Z" fill="#FE3B3B"/>
</g>
<path d="M53.6875 179.188C54.4458 179.188 55.0625 179.804 55.0625 180.562H56.4375C56.4375 179.046 55.2041 177.812 53.6875 177.812C52.1709 177.812 50.9375 179.046 50.9375 180.562V181.938C50.9375 183.454 52.1709 184.688 53.6875 184.688C55.2041 184.688 56.4375 183.454 56.4375 181.938H55.0625C55.0625 182.696 54.4458 183.312 53.6875 183.312C52.9292 183.312 52.3125 182.696 52.3125 181.938V180.562C52.3125 179.804 52.9292 179.188 53.6875 179.188Z" fill="#FE3B3B"/>
<path d="M61.25 177.812H57.8125V184.688H59.1875V181.938H61.25C61.6288 181.938 61.9375 182.246 61.9375 182.625V184.688H63.3125V182.625C63.3125 182.095 63.1056 181.616 62.7763 181.25C63.1063 180.884 63.3125 180.405 63.3125 179.875C63.3125 178.738 62.3871 177.812 61.25 177.812ZM59.1875 180.562V179.188H61.25C61.6288 179.188 61.9375 179.496 61.9375 179.875C61.9375 180.254 61.6288 180.562 61.25 180.562H59.1875Z" fill="#FE3B3B"/>
<path d="M68.3168 181.938H67.9332L66.5582 177.812H64.6875V184.688H66.0625V180.674L66.9418 183.312H69.3082L70.1875 180.674V184.688H71.5625V177.812H69.6918L68.3168 181.938Z" fill="#FE3B3B"/>
<path d="M34.4375 187.438H35.8125V188.812H34.4375V187.438Z" fill="#FE3B3B"/>
<path d="M37.1875 187.438H38.5625V188.812H37.1875V187.438Z" fill="#FE3B3B"/>
<path d="M39.9375 187.438H41.3125V188.812H39.9375V187.438Z" fill="#FE3B3B"/>
<path d="M66.75 194.312H55.75C54.6129 194.312 53.6875 195.238 53.6875 196.375V197.75C53.6875 198.887 54.6129 199.812 55.75 199.812V201.188C54.6129 201.188 53.6875 202.113 53.6875 203.25V204.625C53.6875 205.762 54.6129 206.688 55.75 206.688V208.062C54.6129 208.062 53.6875 208.988 53.6875 210.125V211.5C53.6875 212.637 54.6129 213.562 55.75 213.562H66.75C67.8871 213.562 68.8125 212.637 68.8125 211.5V210.125C68.8125 208.988 67.8871 208.062 66.75 208.062V206.688C67.8871 206.688 68.8125 205.762 68.8125 204.625V203.25C68.8125 202.113 67.8871 201.188 66.75 201.188V199.812C67.8871 199.812 68.8125 198.887 68.8125 197.75V196.375C68.8125 195.238 67.8871 194.312 66.75 194.312ZM67.4375 210.125V211.5C67.4375 211.879 67.1288 212.188 66.75 212.188H55.75C55.3712 212.188 55.0625 211.879 55.0625 211.5V210.125C55.0625 209.745 55.3712 209.438 55.75 209.438H66.75C67.1288 209.438 67.4375 209.745 67.4375 210.125ZM65.375 208.062H57.125V206.688H65.375V208.062ZM67.4375 203.25V204.625C67.4375 205.005 67.1288 205.312 66.75 205.312H55.75C55.3712 205.312 55.0625 205.005 55.0625 204.625V203.25C55.0625 202.87 55.3712 202.562 55.75 202.562H66.75C67.1288 202.562 67.4375 202.87 67.4375 203.25ZM65.375 201.188H57.125V199.812H65.375V201.188ZM67.4375 197.75C67.4375 198.129 67.1288 198.438 66.75 198.438H55.75C55.3712 198.438 55.0625 198.129 55.0625 197.75V196.375C55.0625 195.995 55.3712 195.688 55.75 195.688H66.75C67.1288 195.688 67.4375 195.995 67.4375 196.375V197.75Z" fill="#FE3B3B"/>
<path d="M70.875 173.688H51.625C49.7296 173.688 48.1875 175.23 48.1875 177.125V184.688H33.75C32.6129 184.688 31.6875 185.613 31.6875 186.75V214.25C31.6875 215.387 32.6129 216.312 33.75 216.312H69.5C70.6371 216.312 71.5625 215.387 71.5625 214.25V188.743C73.1293 188.423 74.3125 187.035 74.3125 185.375V177.125C74.3125 175.23 72.7704 173.688 70.875 173.688ZM33.75 186.062H48.2569C48.5766 187.629 49.9647 188.812 51.625 188.812H54.0533L55.1993 190.188H33.0625V186.75C33.0625 186.371 33.3712 186.062 33.75 186.062ZM69.5 214.938H33.75C33.3712 214.938 33.0625 214.63 33.0625 214.25V191.562H56.3447L56.8631 192.185C57.2618 192.663 57.8476 192.938 58.4704 192.938C59.3711 192.938 60.1335 192.362 60.4277 191.562H70.1875V214.25C70.1875 214.63 69.8788 214.938 69.5 214.938ZM60.5625 190.188V188.812H70.1875V190.188H60.5625ZM72.9375 185.375C72.9375 186.512 72.0121 187.438 70.875 187.438H59.1875V190.845C59.1875 191.241 58.8658 191.562 58.4704 191.562C58.2566 191.562 58.0559 191.468 57.9191 191.305L54.6967 187.438H51.625C50.4879 187.438 49.5625 186.512 49.5625 185.375V177.125C49.5625 175.988 50.4879 175.062 51.625 175.062H70.875C72.0121 175.062 72.9375 175.988 72.9375 177.125V185.375Z" fill="#FE3B3B"/>
<path d="M43.375 208.062C47.5447 208.062 50.9375 204.67 50.9375 200.5C50.9375 196.33 47.5447 192.938 43.375 192.938C39.2053 192.938 35.8125 196.33 35.8125 200.5C35.8125 204.67 39.2053 208.062 43.375 208.062ZM43.375 206.688C41.9161 206.688 40.5762 206.177 39.5174 205.33L43.6596 201.188H49.5219C49.1789 204.276 46.554 206.688 43.375 206.688ZM48.2047 196.642C48.9169 197.533 49.3892 198.621 49.5219 199.812H45.0346L48.2047 196.642ZM47.2326 195.67L43.375 199.528L39.5174 195.67C40.5762 194.823 41.9161 194.312 43.375 194.312C44.8339 194.312 46.1738 194.823 47.2326 195.67ZM38.5453 196.642L42.4029 200.5L38.5453 204.358C37.6976 203.299 37.1875 201.959 37.1875 200.5C37.1875 199.041 37.6976 197.701 38.5453 196.642Z" fill="#FE3B3B"/>
<path d="M34.4375 209.438H35.8125V210.812H34.4375V209.438Z" fill="#FE3B3B"/>
<path d="M37.1875 209.438H52.3125V210.812H37.1875V209.438Z" fill="#FE3B3B"/>
<path d="M34.4375 212.188H38.5625V213.562H34.4375V212.188Z" fill="#FE3B3B"/>
<path d="M39.9375 212.188H52.3125V213.562H39.9375V212.188Z" fill="#FE3B3B"/>
<g clip-path="url(#clip1)">
<path d="M73.7237 272.541L72.5776 270.556C72.3403 270.145 71.8151 270.004 71.4037 270.241C70.9927 270.478 70.8518 271.004 71.0892 271.415L72.2353 273.4C72.2958 273.505 72.2823 273.605 72.2689 273.655C72.2555 273.705 72.2172 273.798 72.1126 273.858L69.0818 275.608C68.9215 275.7 68.7161 275.645 68.6236 275.485L62.5265 264.925C62.4341 264.765 62.4891 264.559 62.6493 264.467L65.68 262.717C65.8402 262.625 66.0459 262.68 66.1383 262.84L67.2221 264.717C67.4594 265.128 67.985 265.269 68.396 265.032C68.807 264.794 68.9478 264.269 68.7105 263.858L67.6267 261.981C67.0605 261 65.8018 260.662 64.8207 261.229L61.79 262.979C61.3295 263.244 61.011 263.663 60.861 264.133H52.2693C51.063 264.133 49.9289 264.603 49.0758 265.456L48.1955 266.336C47.4237 266.152 46.6329 266.058 45.8376 266.058H43.1699C43.0366 265.543 42.7055 265.08 42.2096 264.793L39.1789 263.043C38.7037 262.769 38.1499 262.696 37.6201 262.838C37.0902 262.98 36.6472 263.32 36.3729 263.795L30.2759 274.356C30.0016 274.831 29.9286 275.384 30.0706 275.914C30.2125 276.444 30.5525 276.887 31.0277 277.162L34.0585 278.911C34.3812 279.098 34.7337 279.186 35.082 279.186C35.209 279.186 35.3352 279.174 35.4593 279.151L37.9399 281.632C37.9019 281.827 37.8822 282.027 37.8822 282.23C37.8822 283.055 38.2038 283.832 38.7877 284.416C39.3468 284.975 40.0685 285.274 40.802 285.315C40.7907 285.422 40.7846 285.531 40.7846 285.641C40.7846 286.467 41.1062 287.243 41.6901 287.827C42.274 288.411 43.0503 288.732 43.8761 288.732C43.8985 288.732 43.9207 288.731 43.943 288.731C43.9425 288.753 43.9414 288.775 43.9414 288.798C43.9414 289.624 44.263 290.4 44.8469 290.984C45.4308 291.568 46.2072 291.889 47.0329 291.889C47.0553 291.889 47.0775 291.888 47.0999 291.888C47.0993 291.91 47.0982 291.932 47.0982 291.955C47.0982 292.78 47.4198 293.557 48.0037 294.141C48.5876 294.724 49.364 295.046 50.1897 295.046C51.0155 295.046 51.7919 294.724 52.3757 294.141L53.5982 292.918C53.9567 292.56 54.2076 292.134 54.3529 291.682C54.896 292.083 55.5414 292.283 56.187 292.283C56.9786 292.283 57.7705 291.982 58.373 291.379C58.7336 291.018 58.9938 290.584 59.1404 290.111C59.6378 290.436 60.2189 290.611 60.8272 290.611C61.6529 290.611 62.4293 290.289 63.0132 289.705C63.4471 289.271 63.7358 288.731 63.8557 288.144C64.1661 288.246 64.494 288.301 64.8304 288.301C65.6562 288.301 66.4327 287.979 67.0165 287.395C68.2219 286.19 68.2219 284.228 67.0165 283.023L65.0108 281.017L68.6719 277.356C68.7532 277.366 68.8351 277.371 68.9173 277.371C69.2656 277.371 69.6183 277.283 69.9409 277.097L72.9716 275.347C73.4468 275.072 73.7867 274.629 73.9288 274.099C74.0708 273.569 73.998 273.016 73.7237 272.541ZM31.887 275.673C31.7823 275.613 31.7442 275.52 31.7308 275.47C31.7174 275.419 31.7039 275.32 31.7644 275.215L37.8613 264.655C37.9218 264.55 38.0149 264.512 38.065 264.498C38.0864 264.493 38.1168 264.487 38.1528 264.487C38.2011 264.487 38.2595 264.497 38.3195 264.532L41.3502 266.282C41.5103 266.374 41.5655 266.58 41.473 266.74L35.376 277.3C35.2835 277.46 35.0781 277.516 34.9178 277.423L31.887 275.673ZM39.6009 282.23C39.6009 281.863 39.7437 281.518 40.0031 281.259L40.7447 280.517C41.0123 280.25 41.3639 280.116 41.7155 280.116C42.067 280.116 42.4186 280.25 42.6862 280.517C42.9456 280.777 43.0884 281.121 43.0884 281.488C43.0884 281.855 42.9456 282.199 42.6862 282.459L41.9446 283.2C41.4093 283.736 40.5384 283.736 40.0031 283.2C39.7437 282.941 39.6009 282.596 39.6009 282.23ZM43.8762 287.014C43.5094 287.014 43.1647 286.871 42.9055 286.612C42.6461 286.352 42.5033 286.008 42.5033 285.641C42.5033 285.274 42.6461 284.929 42.9055 284.67L44.1279 283.448C44.3955 283.18 44.747 283.046 45.0986 283.046C45.4503 283.046 45.8018 283.18 46.0694 283.448C46.3288 283.707 46.4716 284.052 46.4716 284.418C46.4716 284.785 46.3288 285.13 46.0694 285.389L44.847 286.612C44.5876 286.871 44.2429 287.014 43.8762 287.014ZM47.033 290.171C46.6662 290.171 46.3215 290.028 46.0623 289.769C45.8029 289.509 45.6601 289.164 45.6601 288.798C45.6601 288.431 45.8029 288.086 46.0623 287.827L47.2847 286.605C47.5523 286.337 47.9039 286.203 48.2554 286.203C48.607 286.203 48.9586 286.337 49.2262 286.605C49.4856 286.864 49.6284 287.209 49.6284 287.575C49.6284 287.942 49.4856 288.287 49.2262 288.546L48.0038 289.769C47.7445 290.028 47.3998 290.171 47.033 290.171ZM52.383 291.703L51.1605 292.925C50.9013 293.185 50.5566 293.328 50.1898 293.328C49.823 293.328 49.4784 293.185 49.2191 292.925C48.9597 292.666 48.8169 292.321 48.8169 291.955C48.8169 291.588 48.9597 291.243 49.2191 290.984L50.4415 289.761C50.7091 289.494 51.0607 289.36 51.4123 289.36C51.7638 289.36 52.1154 289.494 52.383 289.761C52.9183 290.297 52.9183 291.168 52.383 291.703ZM65.8014 286.18C65.5421 286.439 65.1974 286.582 64.8306 286.582C64.4639 286.582 64.1192 286.439 63.8599 286.18L55.6574 277.977C55.3218 277.642 54.7779 277.642 54.442 277.977C54.1065 278.313 54.1065 278.857 54.442 279.193L61.7981 286.549C62.0574 286.808 62.2002 287.153 62.2002 287.519C62.2002 287.886 62.0574 288.231 61.7981 288.49C61.5388 288.75 61.1941 288.892 60.8273 288.892C60.4606 288.892 60.1159 288.75 59.8566 288.49L51.0173 279.651C50.6817 279.315 50.1376 279.315 49.8019 279.651C49.4663 279.986 49.4663 280.531 49.8019 280.866L57.1579 288.222C57.4173 288.482 57.5601 288.826 57.5601 289.193C57.5601 289.56 57.4173 289.904 57.1579 290.164C56.6227 290.699 55.7518 290.699 55.2164 290.164L53.5986 288.546C53.5964 288.544 53.5939 288.542 53.5916 288.54C52.9727 287.924 52.1563 287.626 51.3455 287.644C51.346 287.621 51.3471 287.598 51.3471 287.575C51.3471 286.75 51.0255 285.973 50.4416 285.389C49.8219 284.77 49.0025 284.469 48.1886 284.487C48.1891 284.464 48.1902 284.441 48.1902 284.419C48.1902 283.593 47.8686 282.816 47.2847 282.232C46.607 281.555 45.6904 281.258 44.8035 281.343C44.768 280.571 44.451 279.851 43.9015 279.302C42.6961 278.097 40.7347 278.097 39.5293 279.302L38.7877 280.044C38.7869 280.044 38.786 280.045 38.7851 280.046L36.8769 278.138L42.8591 267.777H45.8376C46.1294 267.777 46.4205 267.792 46.7099 267.822L45.7276 268.804C45.1436 269.388 44.8221 270.165 44.8221 270.99C44.8221 271.816 45.1436 272.593 45.7276 273.177C46.3303 273.779 47.122 274.081 47.9136 274.081C48.7053 274.081 49.497 273.779 50.0997 273.177L52.4196 270.857L65.8013 284.238C66.3366 284.774 66.3366 285.645 65.8014 286.18ZM57.545 273.551C58.7955 272.646 59.562 271.186 59.562 269.599C59.562 269.124 59.1772 268.74 58.7027 268.74C58.2282 268.74 57.8433 269.124 57.8433 269.599C57.8433 270.721 57.2504 271.745 56.3043 272.311L53.0312 269.038C52.6956 268.702 52.1524 268.693 51.8167 269.029L48.8844 271.961C48.3491 272.496 47.4781 272.496 46.9429 271.961C46.6835 271.702 46.5407 271.357 46.5407 270.99C46.5407 270.624 46.6835 270.279 46.9429 270.02L50.2911 266.671C50.8195 266.143 51.522 265.852 52.2693 265.852H61.0772L67.1351 276.345C67.1495 276.37 67.1651 276.393 67.1803 276.417L63.7957 279.802L57.545 273.551Z" fill="#FE3B3B"/>
<path d="M69.9 268.496C70.126 268.496 70.3469 268.404 70.5076 268.244C70.6674 268.084 70.7594 267.863 70.7594 267.637C70.7594 267.41 70.6674 267.189 70.5076 267.028C70.3469 266.869 70.126 266.777 69.9 266.777C69.6731 266.777 69.4523 266.869 69.2924 267.028C69.1317 267.189 69.0406 267.41 69.0406 267.637C69.0406 267.863 69.1317 268.084 69.2924 268.244C69.4523 268.404 69.6731 268.496 69.9 268.496Z" fill="#FE3B3B"/>
</g>
<defs>
<clipPath id="clip0">
<rect width="44" height="44" fill="white" transform="translate(30 68)"/>
</clipPath>
<clipPath id="clip1">
<rect width="44" height="44" fill="white" transform="translate(30 256)"/>
</clipPath>
</defs>
</svg>
