<svg width="34" height="29" viewBox="0 0 34 29" fill="none" xmlns="http://www.w3.org/2000/svg">
<path d="M11.1848 21.3606L16.9973 27.173L22.8097 21.3606" stroke="white" stroke-width="2" stroke-linecap="round" stroke-linejoin="round"/>
<path d="M16.9973 14.095V27.173" stroke="white" stroke-width="2" stroke-linecap="round" stroke-linejoin="round"/>
<path d="M29.9008 22.9444C31.1642 22.056 32.1116 20.7882 32.6055 19.3249C33.0994 17.8616 33.1143 16.279 32.6478 14.8067C32.1813 13.3344 31.2579 12.0491 30.0114 11.1372C28.7649 10.2253 27.2603 9.73438 25.7159 9.73559H23.885C23.4479 8.03236 22.6302 6.45047 21.4933 5.109C20.3565 3.76754 18.9301 2.70146 17.3216 1.99103C15.7131 1.28059 13.9644 0.944316 12.2071 1.00751C10.4498 1.0707 8.72979 1.53173 7.17647 2.35586C5.62315 3.18 4.27704 4.34579 3.23947 5.76545C2.20189 7.18511 1.4999 8.82165 1.18633 10.5519C0.87276 12.2821 0.955791 14.0609 1.42917 15.7544C1.90255 17.4479 2.75394 19.0119 3.91925 20.3288" stroke="white" stroke-width="2" stroke-linecap="round" stroke-linejoin="round"/>
</svg>
