<svg width="26" height="28" viewBox="0 0 26 28" fill="none" xmlns="http://www.w3.org/2000/svg">
<path d="M8.64148 22.2646L13.0026 26.6257L17.3636 22.2646" stroke="white" stroke-width="2" stroke-linecap="round" stroke-linejoin="round"/>
<path d="M13.0026 16.8132V26.6257" stroke="white" stroke-width="2" stroke-linecap="round" stroke-linejoin="round"/>
<path d="M22.6841 18.4529C23.632 17.7864 24.3428 16.8351 24.7134 15.7372C25.084 14.6393 25.0952 13.4519 24.7452 12.3472C24.3952 11.2426 23.7023 10.2782 22.7671 9.594C21.8318 8.90982 20.7029 8.54146 19.5441 8.54237H18.1704C17.8425 7.26443 17.2289 6.07753 16.3759 5.07103C15.5229 4.06453 14.4527 3.26465 13.2459 2.73161C12.039 2.19857 10.7269 1.94626 9.40846 1.99367C8.08998 2.04109 6.79943 2.38699 5.63397 3.00535C4.46852 3.6237 3.45853 4.49839 2.68003 5.56356C1.90154 6.62873 1.37483 7.85664 1.13956 9.15483C0.904288 10.453 0.966586 11.7877 1.32176 13.0583C1.67694 14.3289 2.31574 15.5024 3.19007 16.4904" stroke="white" stroke-width="2" stroke-linecap="round" stroke-linejoin="round"/>
</svg>
