<svg width="27" height="36" viewBox="0 0 27 36" fill="none" xmlns="http://www.w3.org/2000/svg">
<path d="M13.3732 0.657715C6.13836 0.657715 0.315186 6.48756 0.315186 13.7307C0.315186 21.3272 5.87367 28.5703 10.8146 34.6652C12.138 36.2551 14.6084 36.2551 16.0201 34.6652C20.8728 28.5703 26.4313 21.3272 26.4313 13.7307C26.4313 6.48756 20.6081 0.657715 13.3732 0.657715ZM13.3732 20.7972C9.4911 20.7972 6.40305 17.6173 6.40305 13.7307C6.40305 9.84414 9.4911 6.75256 13.3732 6.75256C17.2553 6.75256 20.4316 9.84414 20.4316 13.7307C20.4316 17.6173 17.2553 20.7972 13.3732 20.7972Z" fill="white"/>
</svg>
