<svg width="44" height="44" viewBox="0 0 44 44" fill="none" xmlns="http://www.w3.org/2000/svg">
<path d="M36.8484 38.9354V43.2668C36.8484 43.6717 36.52 44 36.1151 44C35.7102 44 35.3819 43.6717 35.3819 43.2668V38.9354C35.3819 35.563 32.6529 32.8338 29.2802 32.8339C27.6844 32.8339 26.2365 32.0209 25.4069 30.6591C25.1963 30.3133 25.3058 29.8621 25.6517 29.6515C25.9975 29.4407 26.4487 29.5504 26.6594 29.8963C27.2205 30.8175 28.2002 31.3674 29.2802 31.3674C33.463 31.3672 36.8484 34.7522 36.8484 38.9354ZM24.0528 31.5854C24.1391 31.981 23.8882 32.3717 23.4925 32.4579C21.5628 32.8783 19.6002 32.4575 18.0376 31.3909C16.4907 33.0486 14.447 32.8339 14.7205 32.8339C11.3481 32.8338 8.61882 35.5627 8.61882 38.9354V43.2668C8.61882 43.6717 8.29051 44 7.88558 44C7.48065 44 7.15234 43.6717 7.15234 43.2668V38.9354C7.15234 34.7527 10.5371 31.3674 14.7204 31.3674C16.4125 31.3674 17.7843 30.0041 17.7843 28.3115V28.1184C14.5838 26.588 12.3373 23.3721 12.2004 19.6272C10.8833 19.3105 9.90198 18.1317 9.90198 16.7291V12.9279C9.86193 11.0673 10.1382 6.40729 13.5359 3.1321C17.7314 -0.912248 24.4596 -0.65534 29.4069 1.72631C29.8891 1.95865 29.9623 2.61013 29.5619 2.94751C32.0682 3.55885 34.2294 5.09956 35.6179 7.30459C35.6896 7.41815 35.8208 7.59642 35.7865 7.88082C35.7653 8.05781 35.7126 8.20757 35.5762 8.34597C34.6826 9.25225 34.1905 10.4532 34.1905 11.7277V16.7293C34.1905 17.1342 33.8622 17.4625 33.4572 17.4625C33.0523 17.4625 32.724 17.1342 32.724 16.7293V11.7277C32.724 10.2578 33.2262 8.86263 34.1485 7.74187C32.7427 5.73134 30.5494 4.43827 28.0688 4.17266L26.7801 4.03463C26.0265 3.95397 25.8787 2.9158 26.579 2.62755L27.1651 2.38622C19.5316 -0.274973 11.3684 2.6819 11.3684 12.9199V16.7291C11.3684 17.3109 11.7035 17.8166 12.1933 18.0705V13.317C12.1933 10.4869 14.4958 8.18438 17.3259 8.18438H26.6747C29.5048 8.18438 31.8074 10.4867 31.8074 13.3168V19.3204C31.8074 25.6972 25.5759 30.5408 19.2351 28.6741C19.1938 29.1972 19.0636 29.7021 18.8514 30.1713C20.0849 31.0184 21.6426 31.3601 23.1803 31.025C23.5759 30.9388 23.9666 31.1897 24.0528 31.5854ZM22.0003 27.6053C26.5993 27.6053 30.3409 23.8637 30.3409 19.2647V13.3168C30.3409 11.2954 28.6962 9.65086 26.6747 9.65086H17.3259C15.3044 9.65086 13.6597 11.2955 13.6597 13.317V19.2647C13.6597 23.8637 17.4013 27.6053 22.0003 27.6053ZM29.4243 40.2421H27.2246C26.8197 40.2421 26.4914 40.5705 26.4914 40.9754C26.4914 41.3803 26.8197 41.7086 27.2246 41.7086H29.4243C29.8293 41.7086 30.1576 41.3803 30.1576 40.9754C30.1576 40.5705 29.8293 40.2421 29.4243 40.2421Z" fill="#FE3B3B"/>
</svg>
