<svg width="44" height="44" viewBox="0 0 44 44" fill="none" xmlns="http://www.w3.org/2000/svg">
<path d="M13.75 34.0281V41.9375C13.75 42.1198 13.8225 42.2947 13.9514 42.4236C14.0803 42.5526 14.2552 42.625 14.4375 42.625H37.8125C37.9949 42.625 38.1697 42.5526 38.2987 42.4236C38.4276 42.2947 38.5 42.1198 38.5 41.9375V25.4375C38.4996 24.8733 38.3607 24.3179 38.0956 23.8199L33 14.2656V2.0625C33 1.88016 32.9276 1.7053 32.7987 1.57636C32.6697 1.44743 32.4949 1.375 32.3125 1.375H14.4375C14.2552 1.375 14.0803 1.44743 13.9514 1.57636C13.8225 1.7053 13.75 1.88016 13.75 2.0625V4.47494L5.98215 6.90637C5.89598 6.93334 5.81597 6.97701 5.74668 7.03491C5.6774 7.0928 5.62019 7.16377 5.57834 7.24377C5.53648 7.32377 5.51079 7.41123 5.50274 7.50116C5.49469 7.59109 5.50443 7.68173 5.5314 7.76789L13.75 34.0281ZM12.8739 10.5128L12.463 9.20004L13.75 8.79716V20.2164L11.1112 11.785L12.4232 11.3743C12.5972 11.3198 12.7425 11.1984 12.827 11.0369C12.9115 10.8753 12.9284 10.6868 12.8739 10.5128ZM37.125 25.4375V41.25H33C31.3821 41.2481 29.8291 40.6134 28.6731 39.4814C27.5171 38.3495 26.8498 36.8102 26.8139 35.1927C26.8484 35.0138 26.8105 34.8285 26.7085 34.6776L22.2493 28.0772C22.0949 27.8528 21.9865 27.6001 21.9303 27.3337C21.8741 27.0672 21.8713 26.7923 21.9219 26.5247C21.9725 26.2571 22.0756 26.0023 22.2253 25.7747C22.3749 25.5472 22.5681 25.3516 22.7938 25.1991C23.0194 25.0467 23.273 24.9404 23.5399 24.8865C23.8068 24.8325 24.0818 24.832 24.3489 24.8849C24.616 24.9377 24.87 25.043 25.0963 25.1945C25.3225 25.3461 25.5165 25.5409 25.6671 25.7678C25.6711 25.7738 25.6757 25.7797 25.6795 25.7855L29.6932 31.3402C29.7569 31.4283 29.8406 31.5001 29.9374 31.5496C30.0342 31.5991 30.1413 31.6249 30.25 31.625H32.3125C32.4949 31.625 32.6697 31.5526 32.7987 31.4236C32.9276 31.2947 33 31.1198 33 30.9375V17.1875L36.8824 24.4669C37.0414 24.7658 37.1247 25.099 37.125 25.4375ZM19.25 36.4375H17.875V7.5625H19.25C19.4324 7.5625 19.6072 7.49007 19.7362 7.36114C19.8651 7.2322 19.9375 7.05734 19.9375 6.875V5.5H26.8125V6.875C26.8125 7.05734 26.885 7.2322 27.0139 7.36114C27.1428 7.49007 27.3177 7.5625 27.5 7.5625H28.875V27.8609L26.7996 24.9886C26.7186 24.8702 26.6302 24.7569 26.5351 24.6494C27.0658 24.0162 27.394 23.2382 27.4773 22.4162C27.5606 21.5943 27.3951 20.7663 27.0023 20.0395C26.6095 19.3127 26.0075 18.7207 25.2742 18.34C24.541 17.9594 23.7103 17.8078 22.8899 17.9048C22.0694 18.0018 21.297 18.343 20.6728 18.8842C20.0485 19.4253 19.6012 20.1415 19.3887 20.9398C19.1763 21.7382 19.2085 22.582 19.4812 23.3618C19.7539 24.1416 20.2546 24.8216 20.9183 25.3136C20.6278 25.8649 20.4923 26.4845 20.5259 27.1067C20.5596 27.7289 20.7613 28.3303 21.1095 28.8471L25.4399 35.2563C25.4678 36.3859 25.7501 37.4947 26.2659 38.5H19.9375V37.125C19.9375 36.9427 19.8651 36.7678 19.7362 36.6389C19.6072 36.5099 19.4324 36.4375 19.25 36.4375ZM22.0333 24.0742C21.9511 24.1297 21.8724 24.1889 21.7961 24.2504C21.34 23.9306 20.9919 23.4797 20.7977 22.9576C20.6035 22.4354 20.5725 21.8666 20.7088 21.3265C20.845 20.7863 21.1421 20.3003 21.5606 19.9327C21.9792 19.5651 22.4996 19.3333 23.0528 19.268C23.606 19.2027 24.166 19.3069 24.6587 19.5669C25.1514 19.8269 25.5535 20.2304 25.8118 20.724C26.0701 21.2175 26.1724 21.7779 26.1051 22.3309C26.0379 22.8839 25.8043 23.4035 25.4353 23.8208C24.8952 23.5634 24.2973 23.4514 23.7007 23.4958C23.104 23.5403 22.5293 23.7396 22.0333 24.0742ZM15.125 2.75H31.625V30.25H30.6014L30.25 29.7637V6.875C30.25 6.69266 30.1776 6.5178 30.0487 6.38886C29.9197 6.25993 29.7449 6.1875 29.5625 6.1875H28.1875V4.8125C28.1875 4.63016 28.1151 4.4553 27.9862 4.32636C27.8572 4.19743 27.6824 4.125 27.5 4.125H19.25C19.0677 4.125 18.8928 4.19743 18.7639 4.32636C18.635 4.4553 18.5625 4.63016 18.5625 4.8125V6.1875H17.1875C17.0052 6.1875 16.8303 6.25993 16.7014 6.38886C16.5725 6.5178 16.5 6.69266 16.5 6.875V37.125C16.5 37.3073 16.5725 37.4822 16.7014 37.6111C16.8303 37.7401 17.0052 37.8125 17.1875 37.8125H18.5625V39.1875C18.5625 39.3698 18.635 39.5447 18.7639 39.6736C18.8928 39.8026 19.0677 39.875 19.25 39.875H27.1725C27.6049 40.3974 28.105 40.8598 28.6597 41.25H15.125V2.75ZM13.75 5.91568V7.35625L11.3962 8.09308C11.2222 8.14755 11.077 8.2689 10.9924 8.43045C10.9079 8.592 10.891 8.78051 10.9455 8.95452L11.3563 10.2674L10.0443 10.6781C9.95817 10.7051 9.87816 10.7487 9.80889 10.8066C9.73961 10.8645 9.68242 10.9355 9.64057 11.0155C9.59872 11.0955 9.57304 11.183 9.56499 11.2729C9.55695 11.3628 9.56669 11.4534 9.59367 11.5396L13.75 24.8198V29.4245L7.04897 8.01324L13.75 5.91568Z" fill="#FE3B3B"/>
</svg>
