<svg width="44" height="44" viewBox="0 0 44 44" fill="none" xmlns="http://www.w3.org/2000/svg">
<path d="M35.6191 28.1318L30.8818 31.2648C30.2826 30.2396 29.1553 29.5568 27.8991 29.5568H23.7157C22.8151 29.5568 22.3931 28.9029 21.9705 28.5991C18.7367 25.7954 13.8598 25.7954 10.6277 28.5974L9.71429 29.3849H0.859375C0.384705 29.3849 0 29.7697 0 30.2443V40.5565C0 41.0312 0.384705 41.4159 0.859375 41.4159H9.78143L25.1797 43.9823C25.4066 44.0202 25.6399 43.9655 25.8269 43.8292L43.6469 30.8452C44.0289 30.5666 44.1141 30.0315 43.8375 29.6478C41.9509 27.0321 38.3436 26.3644 35.6191 28.1318ZM25.1065 42.2276L9.99393 39.7089C9.94727 39.7011 9.89993 39.6971 9.8526 39.6971H1.71875V31.1037H10.0339C10.5552 31.1037 10.7036 30.7338 11.752 29.8976C14.3435 27.6504 18.2527 27.6504 20.8445 29.8979C21.2054 30.1409 22.0497 31.2756 23.7157 31.2756H27.8991C28.832 31.2756 29.6179 32.0141 29.6179 32.947C29.6179 33.8735 28.8468 34.6271 27.8991 34.6271H17.5866C17.1123 34.6271 16.7273 35.0118 16.7273 35.4865C16.7273 35.9609 17.1123 36.3459 17.5866 36.3459H27.8991C29.7679 36.3459 31.2937 34.8631 31.3356 33.0249L36.5607 29.5696C38.2627 28.4655 40.4487 28.6887 41.8747 30.0097L25.1065 42.2276Z" fill="#FE3B3B"/>
<path d="M28.0149 16.8384C28.0149 17.313 27.6302 17.6978 27.1555 17.6978C26.6812 17.6978 26.2961 17.313 26.2961 16.8384C26.2961 16.3637 26.6812 15.979 27.1555 15.979C27.6302 15.979 28.0149 16.3637 28.0149 16.8384Z" fill="#FE3B3B"/>
<path d="M16.7573 21.1349H37.382C37.8567 21.1349 38.2414 20.7502 38.2414 20.2759V16.9216L40.844 3.60233C40.9105 3.26193 40.7658 2.91483 40.4771 2.72247C40.1884 2.53012 39.8124 2.53012 39.5237 2.72247L32.5044 7.40204L27.8251 0.38269C27.6657 0.143677 27.3975 0 27.1101 0C26.8228 0 26.5545 0.143677 26.3951 0.38269L21.7155 7.4017L14.6965 2.72247C14.4085 2.53046 14.0338 2.52979 13.7452 2.72079C13.4568 2.9118 13.3111 3.25723 13.3756 3.59729L15.898 16.9189V20.2759C15.898 20.7502 16.2827 21.1349 16.7573 21.1349ZM21.4772 9.30878C21.8723 9.57196 22.4057 9.46521 22.6689 9.07043L27.1101 2.4086L31.5513 9.07043C31.8145 9.46521 32.3479 9.57196 32.7427 9.30878L38.7617 5.29623L36.6744 15.979H31.0226C30.5479 15.979 30.1632 16.3637 30.1632 16.8384C30.1632 17.313 30.5479 17.6978 31.0226 17.6978H36.5226V19.4165H17.6167V17.6978H23.2886C23.7632 17.6978 24.148 17.313 24.148 16.8384C24.148 16.3637 23.7632 15.979 23.2886 15.979H17.4693L15.4444 5.28683L21.4772 9.30878Z" fill="#FE3B3B"/>
</svg>
