<svg width="44" height="44" viewBox="0 0 44 44" fill="none" xmlns="http://www.w3.org/2000/svg">
<path d="M42.4137 38.0532L41.0559 32.9489C41.0252 32.8339 40.9612 32.7306 40.8719 32.6521C40.7825 32.5735 40.6719 32.5231 40.554 32.5074C40.4361 32.4917 40.3161 32.5112 40.2093 32.5636C40.1025 32.616 40.0136 32.6989 39.9538 32.8017L38.3815 35.5143L34.4511 33.2111V19.8424C34.4504 19.8101 34.4471 19.7779 34.4415 19.7461C34.4461 19.7218 34.4493 19.6972 34.4511 19.6726C34.4512 19.5676 34.4238 19.4644 34.3716 19.3733C34.3193 19.2822 34.2441 19.2064 34.1534 19.1535L22.6017 12.3861V7.83999H25.735C25.8539 7.83986 25.9702 7.80448 26.069 7.7383C26.1678 7.67213 26.2448 7.57814 26.2903 7.46821C26.3357 7.35828 26.3475 7.23736 26.3243 7.12071C26.301 7.00406 26.2437 6.89693 26.1595 6.81286L22.4254 3.07802C22.3125 2.9653 22.1596 2.90198 22.0001 2.90198C21.8407 2.90198 21.6877 2.9653 21.5749 3.07802L17.8408 6.81286C17.7566 6.89698 17.6992 7.00417 17.676 7.12088C17.6527 7.23759 17.6646 7.35857 17.7101 7.46853C17.7556 7.57848 17.8327 7.67247 17.9317 7.73859C18.0306 7.80471 18.147 7.84 18.266 7.83999H21.3986V12.3861L9.84685 19.1535C9.75623 19.2065 9.68107 19.2823 9.62885 19.3734C9.57662 19.4644 9.54915 19.5676 9.54916 19.6726C9.55094 19.6973 9.55427 19.7218 9.55913 19.7461C9.55317 19.7779 9.54984 19.8101 9.54916 19.8424V33.2105L5.61907 35.5136L4.04641 32.8007C3.98666 32.6978 3.89777 32.615 3.79095 32.5626C3.68414 32.5102 3.56419 32.4906 3.44627 32.5064C3.32834 32.5221 3.21773 32.5725 3.12839 32.651C3.03906 32.7296 2.97502 32.8329 2.94435 32.9478L1.58654 38.0532C1.54562 38.2075 1.56761 38.3716 1.64765 38.5097C1.7277 38.6478 1.85928 38.7484 2.01347 38.7895L7.11816 40.1473C7.23312 40.1778 7.35455 40.1736 7.4671 40.1351C7.57965 40.0966 7.67826 40.0257 7.75048 39.9311C7.82269 39.8366 7.86527 39.7228 7.87283 39.6041C7.88039 39.4854 7.85259 39.3671 7.79294 39.2642L6.22201 36.5538L10.1504 34.2524L21.6956 41.0156C21.7024 41.0198 21.7103 41.0211 21.7172 41.0249C21.7502 41.0425 21.7847 41.057 21.8204 41.0682C21.8324 41.072 21.8441 41.0765 21.8564 41.0796C21.9499 41.1048 22.0483 41.1048 22.1418 41.0796C22.1541 41.0765 22.1658 41.072 22.1761 41.0682C22.2118 41.057 22.2463 41.0425 22.2793 41.0249C22.2861 41.0211 22.294 41.0198 22.3009 41.0156L33.8495 34.2524L37.7779 36.5555L36.2073 39.2646C36.1543 39.356 36.1263 39.4598 36.1261 39.5655C36.126 39.6712 36.1537 39.7751 36.2064 39.8667C36.2592 39.9583 36.3352 40.0344 36.4267 40.0872C36.5182 40.1401 36.6221 40.168 36.7278 40.168C36.78 40.1678 36.832 40.161 36.8824 40.1477L41.9871 38.7899C42.1413 38.7487 42.2729 38.6479 42.3529 38.5098C42.4329 38.3717 42.4548 38.2075 42.4137 38.0532ZM22.0001 4.35402L24.283 6.63686H19.7173L22.0001 4.35402ZM2.90413 37.7803L3.73394 34.6607L6.02366 38.6101L2.90413 37.7803ZM22.0001 13.428L32.6595 19.6726L22.0001 25.9168L11.3411 19.6726L22.0001 13.428ZM10.7523 20.722L21.3986 26.9587V39.4471L10.7523 33.2105V20.722ZM22.6017 39.4471V26.9587L33.248 20.722V33.2105L22.6017 39.4471ZM37.9766 38.6101L40.2663 34.6607L41.0965 37.7803L37.9766 38.6101Z" fill="#FE3B3B"/>
</svg>
