<svg width="48" height="48" viewBox="0 0 48 48" fill="none" xmlns="http://www.w3.org/2000/svg">
<g clip-path="url(#clip0)">
<path d="M24.0001 48C23.4481 48 23.0001 47.552 23.0001 47V35C23.0001 34.448 23.4481 34 24.0001 34C24.5521 34 25.0001 34.448 25.0001 35V47C25.0001 47.552 24.5521 48 24.0001 48Z" fill="#FE3B3B"/>
<path d="M33.0001 48.0001C32.8101 48.0001 32.6181 47.9461 32.4461 47.8321L23.4461 41.8321C22.9861 41.5261 22.8621 40.9061 23.1681 40.4461C23.4741 39.9861 24.0921 39.8621 24.5541 40.1681L33.5541 46.1681C34.0141 46.4741 34.1381 47.0941 33.8321 47.5541C33.6401 47.8441 33.3221 48.0001 33.0001 48.0001Z" fill="#FE3B3B"/>
<path d="M15 48C14.676 48 14.36 47.844 14.166 47.554C13.86 47.094 13.984 46.474 14.444 46.168L23.444 40.168C23.904 39.86 24.526 39.986 24.83 40.446C25.136 40.906 25.012 41.526 24.552 41.832L15.552 47.832C15.384 47.946 15.192 48 15 48Z" fill="#FE3B3B"/>
<path d="M44 10H4C1.794 10 0 8.206 0 6C0 3.794 1.794 2 4 2H44C46.206 2 48 3.794 48 6C48 8.206 46.206 10 44 10ZM4 4C2.898 4 2 4.898 2 6C2 7.102 2.898 8 4 8H44C45.102 8 46 7.102 46 6C46 4.898 45.102 4 44 4H4Z" fill="#FE3B3B"/>
<path d="M40.9999 36H6.99988C5.34588 36 3.99988 34.654 3.99988 33V9C3.99988 8.448 4.44788 8 4.99988 8H42.9999C43.5519 8 43.9999 8.448 43.9999 9V33C43.9999 34.654 42.6539 36 40.9999 36ZM5.99988 10V33C5.99988 33.552 6.44788 34 6.99988 34H40.9999C41.5519 34 41.9999 33.552 41.9999 33V10H5.99988Z" fill="#FE3B3B"/>
<path d="M13 30.0001C12.744 30.0001 12.488 29.9021 12.292 29.7081C11.902 29.3181 11.902 28.6841 12.292 28.2941L20.292 20.2941C20.63 19.9561 21.158 19.9041 21.554 20.1681L26.792 23.6601L34.218 14.3761C34.564 13.9481 35.192 13.8741 35.624 14.2201C36.054 14.5661 36.124 15.1941 35.78 15.6261L27.78 25.6261C27.456 26.0301 26.878 26.1241 26.444 25.8341L21.126 22.2901L13.706 29.7101C13.512 29.9021 13.256 30.0001 13 30.0001Z" fill="#FE3B3B"/>
</g>
<defs>
<clipPath id="clip0">
<rect width="48" height="48" fill="white"/>
</clipPath>
</defs>
</svg>
