<svg width="26" height="29" viewBox="0 0 26 29" fill="none" xmlns="http://www.w3.org/2000/svg">
<path d="M8.6416 23.2766L13.0027 27.6377L17.3638 23.2766" stroke="white" stroke-width="2" stroke-linecap="round" stroke-linejoin="round"/>
<path d="M13.0029 17.8252V27.6376" stroke="white" stroke-width="2" stroke-linecap="round" stroke-linejoin="round"/>
<path d="M22.6844 17.4649C23.6322 16.7983 24.3431 15.8471 24.7137 14.7492C25.0843 13.6513 25.0954 12.4638 24.7454 11.3592C24.3954 10.2545 23.7025 9.29014 22.7673 8.60596C21.8321 7.92179 20.7032 7.55342 19.5444 7.55433H18.1706C17.8427 6.27639 17.2292 5.0895 16.3762 4.08299C15.5232 3.07649 14.453 2.27661 13.2461 1.74357C12.0393 1.21053 10.7272 0.95822 9.40871 1.00564C8.09022 1.05305 6.79967 1.39895 5.63422 2.01731C4.46876 2.63566 3.45877 3.51035 2.68028 4.57552C1.90178 5.6407 1.37507 6.8686 1.1398 8.16679C0.904532 9.46498 0.96683 10.7996 1.32201 12.0703C1.67718 13.3409 2.31598 14.5144 3.19032 15.5024" stroke="white" stroke-width="2" stroke-linecap="round" stroke-linejoin="round"/>
</svg>
