<svg width="48" height="48" viewBox="0 0 48 48" fill="none" xmlns="http://www.w3.org/2000/svg">
<g clip-path="url(#clip0)">
<path d="M42 32C41.4 32 41 31.6 41 31V26H7V31C7 31.6 6.6 32 6 32C5.4 32 5 31.6 5 31V25C5 24.4 5.4 24 6 24H42C42.6 24 43 24.4 43 25V31C43 31.6 42.6 32 42 32Z" fill="#FE3B3B"/>
<path d="M24 32C23.4 32 23 31.6 23 31V16C23 15.4 23.4 15 24 15C24.6 15 25 15.4 25 16V31C25 31.6 24.6 32 24 32Z" fill="#FE3B3B"/>
<path d="M24 40C22.4 40 21 38.6 21 37C21 35.4 22.4 34 24 34C25.6 34 27 35.4 27 37C27 38.6 25.6 40 24 40ZM24 36C23.4 36 23 36.4 23 37C23 37.6 23.4 38 24 38C24.6 38 25 37.6 25 37C25 36.4 24.6 36 24 36Z" fill="#FE3B3B"/>
<path d="M29 48C28.4 48 28 47.6 28 47V46C28 44.8 27.2 44 26 44H22C20.8 44 20 44.8 20 46V47C20 47.6 19.6 48 19 48C18.4 48 18 47.6 18 47V46C18 43.8 19.8 42 22 42H26C28.2 42 30 43.8 30 46V47C30 47.6 29.6 48 29 48Z" fill="#FE3B3B"/>
<path d="M42 40C40.4 40 39 38.6 39 37C39 35.4 40.4 34 42 34C43.6 34 45 35.4 45 37C45 38.6 43.6 40 42 40ZM42 36C41.4 36 41 36.4 41 37C41 37.6 41.4 38 42 38C42.6 38 43 37.6 43 37C43 36.4 42.6 36 42 36Z" fill="#FE3B3B"/>
<path d="M47 48C46.4 48 46 47.6 46 47V46C46 44.8 45.2 44 44 44H40C38.8 44 38 44.8 38 46V47C38 47.6 37.6 48 37 48C36.4 48 36 47.6 36 47V46C36 43.8 37.8 42 40 42H44C46.2 42 48 43.8 48 46V47C48 47.6 47.6 48 47 48Z" fill="#FE3B3B"/>
<path d="M6 40C4.4 40 3 38.6 3 37C3 35.4 4.4 34 6 34C7.6 34 9 35.4 9 37C9 38.6 7.6 40 6 40ZM6 36C5.4 36 5 36.4 5 37C5 37.6 5.4 38 6 38C6.6 38 7 37.6 7 37C7 36.4 6.6 36 6 36Z" fill="#FE3B3B"/>
<path d="M11 48C10.4 48 10 47.6 10 47V46C10 44.8 9.2 44 8 44H4C2.8 44 2 44.8 2 46V47C2 47.6 1.6 48 1 48C0.4 48 0 47.6 0 47V46C0 43.8 1.8 42 4 42H8C10.2 42 12 43.8 12 46V47C12 47.6 11.6 48 11 48Z" fill="#FE3B3B"/>
<path d="M18.4 20C18.2 20 18 20 18 19.8C17.6 19.6 17.4 19.2 17.4 18.8L18.4 12.8L14.2 8.6C14 8.4 14 8 14 7.6C14.2 7.2 14.4 7 14.8 7L20.6 6L23.2 0.6C23.2 0.2 23.6 0 24 0C24.4 0 24.8 0.2 25 0.6L27.4 6L33 6.8C33.4 6.8 33.6 7.2 33.8 7.4C34 7.6 33.8 8.2 33.6 8.4L29.4 12.6L30.4 18.6C30.4 19 30.4 19.4 30 19.6C29.6 19.8 29.2 19.8 29 19.6L24 17L19 19.8C18.8 20 18.6 20 18.4 20ZM17 8.6L20.2 11.8C20.4 12 20.6 12.4 20.4 12.6L19.8 17.2L23.6 15.2C23.8 15 24.2 15 24.6 15.2L28.4 17.2L27.6 12.8C27.6 12.4 27.6 12.2 27.8 12L31 8.8L26.8 8.2C26.4 8.2 26.2 8 26 7.6L24.2 3.6L22.4 7.6C22 7.6 21.6 7.8 21.4 8L17 8.6Z" fill="#FE3B3B"/>
</g>
<defs>
<clipPath id="clip0">
<rect width="48" height="48" fill="white"/>
</clipPath>
</defs>
</svg>
