<svg width="48" height="48" viewBox="0 0 48 48" fill="none" xmlns="http://www.w3.org/2000/svg">
<g clip-path="url(#clip0)">
<path d="M34.2664 13.7566L34.2664 13.7566C32.8754 12.3659 32.8754 10.1027 34.2663 8.7119C34.9617 8.01649 35.875 7.66876 36.7887 7.66876C37.7023 7.66876 38.6156 8.01649 39.3111 8.7119C40.7019 10.1027 40.7019 12.3659 39.3111 13.7566C37.9203 15.1475 35.6571 15.1475 34.2664 13.7566ZM40.6874 15.1331C42.8372 12.9833 42.8372 9.48543 40.6874 7.33572C38.5376 5.18601 35.0398 5.18601 32.89 7.33572L32.89 7.33572C30.7402 9.48552 30.7402 12.9834 32.89 15.1331C33.965 16.2081 35.3769 16.7454 36.7888 16.7454C38.2007 16.7454 39.6124 16.208 40.6874 15.1331Z" fill="#FE3B3B" stroke="#FE3B3B" stroke-width="0.1"/>
<path d="M19.3106 36.5579L19.2671 36.5825L19.3106 36.5579L15.8887 30.5055L19.3106 24.4532L19.2671 24.4286L19.3106 24.4532C19.4809 24.1519 19.4785 23.7828 19.3041 23.4838C19.1297 23.1848 18.8097 23.001 18.4635 23.001H4.61587H0.923154C0.385729 23.001 -0.05 23.4368 -0.05 23.9742V36.8986C-0.05 37.4361 0.385829 37.8718 0.923154 37.8718C1.46048 37.8718 1.89631 37.4361 1.89631 36.8986V24.9472H3.64262V37.0368V46.0803H1.89631V42.4376C1.89631 41.9 1.46048 41.4644 0.923154 41.4644C0.385823 41.4644 -0.05 41.9001 -0.05 42.4376V47.0535C-0.05 47.591 0.385829 48.0267 0.923154 48.0267H4.61587H22.1562C22.6936 48.0267 23.1293 47.5909 23.1293 47.0535C23.1294 46.516 22.6936 46.0804 22.1563 46.0804H5.58902V38.0101H18.4635C18.8097 38.0101 19.1297 37.8262 19.3041 37.5273C19.4785 37.2283 19.4809 36.8592 19.3106 36.5579ZM9.22554 32.2327L9.22521 32.2327L5.58902 32.2571V24.9472H16.7953L13.9237 30.0264C13.7556 30.3236 13.7556 30.6872 13.9237 30.9845L16.7954 36.0637H5.58902V34.2035L9.23826 34.179C9.77568 34.1754 10.2085 33.7367 10.2049 33.1993C10.2013 32.664 9.76628 32.2327 9.23183 32.2327H9.23181H9.2318H9.23179H9.23178H9.23177H9.23175H9.23174H9.23173H9.23172H9.2317H9.23169H9.23168H9.23167H9.23166H9.23164H9.23163H9.23162H9.23161H9.2316H9.23158H9.23157H9.23156H9.23155H9.23153H9.23152H9.23151H9.2315H9.23149H9.23147H9.23146H9.23145H9.23144H9.23143H9.23141H9.2314H9.23139H9.23138H9.23137H9.23135H9.23134H9.23133H9.23132H9.2313H9.23129H9.23128H9.23127H9.23126H9.23124H9.23123H9.23122H9.23121H9.23119H9.23118H9.23117H9.23116H9.23115H9.23113H9.23112H9.23111H9.2311H9.23108H9.23107H9.23106H9.23105H9.23104H9.23102H9.23101H9.231H9.23099H9.23098H9.23096H9.23095H9.23094H9.23093H9.23091H9.2309H9.23089H9.23088H9.23087H9.23085H9.23084H9.23083H9.23082H9.2308H9.23079H9.23078H9.23077H9.23075H9.23074H9.23073H9.23072H9.23071H9.23069H9.23068H9.23067H9.23066H9.23065H9.23063H9.23062H9.23061H9.2306H9.23058H9.23057H9.23056H9.23055H9.23053H9.23052H9.23051H9.2305H9.23049H9.23047H9.23046H9.23045H9.23044H9.23042H9.23041H9.2304H9.23039H9.23038H9.23036H9.23035H9.23034H9.23033H9.23031H9.2303H9.23029H9.23028H9.23026H9.23025H9.23024H9.23023H9.23022H9.2302H9.23019H9.23018H9.23017H9.23015H9.23014H9.23013H9.23012H9.2301H9.23009H9.23008H9.23007H9.23006H9.23004H9.23003H9.23002H9.23001H9.22999H9.22998H9.22997H9.22996H9.22994H9.22993H9.22992H9.22991H9.2299H9.22988H9.22987H9.22986H9.22985H9.22983H9.22982H9.22981H9.2298H9.22978H9.22977H9.22976H9.22975H9.22974H9.22972H9.22971H9.2297H9.22969H9.22967H9.22966H9.22965H9.22964H9.22962H9.22961H9.2296H9.22959H9.22958H9.22956H9.22955H9.22954H9.22953H9.22951H9.2295H9.22949H9.22948H9.22946H9.22945H9.22944H9.22943H9.22941H9.2294H9.22939H9.22938H9.22937H9.22935H9.22934H9.22933H9.22932H9.2293H9.22929H9.22928H9.22927H9.22925H9.22924H9.22923H9.22922H9.2292H9.22919H9.22918H9.22917H9.22915H9.22914H9.22913H9.22912H9.22911H9.22909H9.22908H9.22907H9.22906H9.22904H9.22903H9.22902H9.22901H9.22899H9.22898H9.22897H9.22896H9.22894H9.22893H9.22892H9.22891H9.2289H9.22888H9.22887H9.22886H9.22885H9.22883H9.22882H9.22881H9.2288H9.22878H9.22877H9.22876H9.22875H9.22873H9.22872H9.22871H9.2287H9.22869H9.22867H9.22866H9.22865H9.22864H9.22862H9.22861H9.2286H9.22859H9.22857H9.22856H9.22855H9.22854H9.22853H9.22851H9.2285H9.22849H9.22848H9.22846H9.22845H9.22844H9.22843H9.22841H9.2284H9.22839H9.22838H9.22836H9.22835H9.22834H9.22833H9.22831H9.2283H9.22829H9.22828H9.22826H9.22825H9.22824H9.22823H9.22822H9.2282H9.22819H9.22818H9.22817H9.22815H9.22814H9.22813H9.22812H9.2281H9.22809H9.22808H9.22807H9.22806H9.22804H9.22803H9.22802H9.22801H9.22799H9.22798H9.22797H9.22796H9.22794H9.22793H9.22792H9.22791H9.22789H9.22788H9.22787H9.22786H9.22785H9.22783H9.22782H9.22781H9.2278H9.22778H9.22777H9.22776H9.22775H9.22773H9.22772H9.22771H9.2277H9.22768H9.22767H9.22766H9.22765H9.22764H9.22762H9.22761H9.2276H9.22759H9.22757H9.22756H9.22755H9.22754H9.22752H9.22751H9.2275H9.22749H9.22748H9.22746H9.22745H9.22744H9.22743H9.22741H9.2274H9.22739H9.22738H9.22736H9.22735H9.22734H9.22733H9.22731H9.2273H9.22729H9.22728H9.22727H9.22725H9.22724H9.22723H9.22722H9.2272H9.22719H9.22718H9.22717H9.22716H9.22714H9.22713H9.22712H9.22711H9.22709H9.22708H9.22707H9.22706H9.22705H9.22703H9.22702H9.22701H9.227H9.22698H9.22697H9.22696H9.22695H9.22693H9.22692H9.22691H9.2269H9.22688H9.22687H9.22686H9.22685H9.22684H9.22682H9.22681H9.2268H9.22679H9.22678H9.22676H9.22675H9.22674H9.22673H9.22671H9.2267H9.22669H9.22668H9.22666H9.22665H9.22664H9.22663H9.22662H9.2266H9.22659H9.22658H9.22657H9.22655H9.22654H9.22653H9.22652H9.22651H9.22649H9.22648H9.22647H9.22646H9.22644H9.22643H9.22642H9.22641H9.2264H9.22638H9.22637H9.22636H9.22635H9.22633H9.22632H9.22631H9.2263H9.22629H9.22627H9.22626H9.22625H9.22624H9.22622H9.22621H9.2262H9.22619H9.22618H9.22616H9.22615H9.22614H9.22613H9.22612H9.2261H9.22609H9.22608H9.22607H9.22605H9.22604H9.22603H9.22602H9.22601H9.22599H9.22598H9.22597H9.22596H9.22594H9.22593H9.22592H9.22591H9.2259H9.22588H9.22587H9.22586H9.22585H9.22584H9.22582H9.22581H9.2258H9.22579H9.22577H9.22576H9.22575H9.22574H9.22573H9.22571H9.2257H9.22569H9.22568H9.22567H9.22565H9.22564H9.22563H9.22562H9.22561H9.22559H9.22558H9.22557H9.22556L9.22554 32.2327Z" fill="#FE3B3B" stroke="#FE3B3B" stroke-width="0.1"/>
<path d="M24.0273 47.4258L24.0273 47.4258C24.0033 47.3672 23.9837 47.3058 23.972 47.2429C23.9593 47.1808 23.9526 47.1166 23.9526 47.0533C23.9526 46.99 23.9593 46.9258 23.972 46.8637C23.9837 46.8008 24.0032 46.7395 24.0273 46.6816C24.0514 46.6228 24.0807 46.5662 24.1169 46.5132C24.152 46.4594 24.193 46.4099 24.2376 46.3653C24.2823 46.3206 24.3319 46.2796 24.3858 46.2444C24.4383 46.2094 24.4946 46.1793 24.5539 46.155C24.6118 46.1309 24.6732 46.1113 24.7361 46.0995C24.8614 46.0743 24.9898 46.0743 25.1152 46.0995C25.1781 46.1113 25.2393 46.1309 25.2972 46.155C25.3566 46.1793 25.4129 46.2095 25.4654 46.2444C25.5192 46.2796 25.5689 46.3206 25.6136 46.3652M24.0273 47.4258L25.5782 47.706M24.0273 47.4258L24.0274 47.4261C24.0514 47.4839 24.0806 47.5404 24.1169 47.5934M24.0273 47.4258L24.1585 47.5657M25.6136 46.3652C25.6584 46.41 25.6993 46.4596 25.7344 46.5134C25.7694 46.5659 25.7995 46.6223 25.8238 46.6816C25.8481 46.7397 25.8676 46.8009 25.8802 46.8634C25.8928 46.926 25.8987 46.9902 25.8987 47.0533C25.8987 47.1163 25.8929 47.1806 25.8802 47.2433C25.8674 47.3058 25.848 47.367 25.8239 47.4258L25.8238 47.4261C25.7995 47.4844 25.7693 47.5407 25.7344 47.5931C25.6993 47.647 25.6583 47.6967 25.6135 47.7414M25.6136 46.3652C25.6136 46.3652 25.6136 46.3653 25.6136 46.3653L25.5782 46.4006L25.6135 46.3652C25.6135 46.3652 25.6135 46.3652 25.6136 46.3652ZM25.6135 47.7414L25.5782 47.706M25.6135 47.7414C25.6135 47.7414 25.6136 47.7414 25.6136 47.7414L25.5782 47.706M25.6135 47.7414C25.5689 47.7861 25.5192 47.827 25.4654 47.8622M25.5782 47.706C25.5357 47.7485 25.4887 47.7873 25.4379 47.8205M25.4654 47.8622C25.4655 47.8621 25.4656 47.8621 25.4656 47.8621L25.4379 47.8205M25.4654 47.8622C25.4129 47.8972 25.3566 47.9273 25.2972 47.9516M25.4654 47.8622C25.4654 47.8622 25.4653 47.8623 25.4652 47.8623L25.4379 47.8205M25.4379 47.8205L25.2972 47.9516M25.2972 47.9516C25.2973 47.9516 25.2973 47.9516 25.2974 47.9515L25.2781 47.9054L25.2971 47.9517C25.2971 47.9517 25.2972 47.9516 25.2972 47.9516ZM25.2972 47.9516C25.2395 47.9757 25.1781 47.9953 25.1152 48.0071M25.2972 47.9516L25.1056 47.958M25.1152 48.0071C25.1153 48.007 25.1155 48.007 25.1156 48.007L25.1056 47.958M25.1152 48.0071C25.1151 48.0071 25.115 48.0071 25.1148 48.0071L25.1056 47.958M25.1152 48.0071C25.0532 48.0197 24.9889 48.0265 24.9256 48.0265C24.8622 48.0265 24.7981 48.0197 24.736 48.0071M25.1056 47.958C25.0466 47.97 24.9855 47.9765 24.9256 47.9765C24.8656 47.9765 24.8047 47.97 24.7456 47.958M24.736 48.0071C24.7362 48.0071 24.7363 48.0071 24.7364 48.0071L24.7456 47.958M24.736 48.0071C24.6731 47.9953 24.6119 47.9757 24.554 47.9516M24.736 48.0071C24.7359 48.007 24.7358 48.007 24.7357 48.007L24.7456 47.958M24.7456 47.958L24.554 47.9516M24.554 47.9516C24.554 47.9516 24.5541 47.9517 24.5541 47.9517L24.573 47.9054L24.5538 47.9516C24.5539 47.9516 24.5539 47.9516 24.554 47.9516ZM24.554 47.9516C24.4946 47.9273 24.4383 47.8971 24.3859 47.8622M24.554 47.9516L24.4134 47.8205M24.3859 47.8622C24.3859 47.8623 24.386 47.8623 24.3861 47.8624L24.4134 47.8205M24.3859 47.8622C24.3858 47.8622 24.3857 47.8621 24.3857 47.8621L24.4134 47.8205M24.3859 47.8622C24.3319 47.827 24.2823 47.786 24.2376 47.7414C24.193 47.6967 24.152 47.6472 24.1169 47.5934M24.4134 47.8205C24.3625 47.7873 24.3154 47.7485 24.2729 47.706C24.2305 47.6635 24.1917 47.6165 24.1585 47.5657M24.1169 47.5934C24.117 47.5936 24.1171 47.5937 24.1172 47.5939L24.1585 47.5657M24.1169 47.5934C24.1168 47.5933 24.1167 47.5931 24.1166 47.593L24.1585 47.5657" fill="#FE3B3B" stroke="#FE3B3B" stroke-width="0.1"/>
<path d="M36.886 26.7599L36.8857 26.7599C36.8611 26.7622 36.837 26.7631 36.8139 26.7637L36.886 26.7599ZM36.886 26.7599C36.8975 26.7587 36.9096 26.7568 36.9198 26.7551M36.886 26.7599L36.9198 26.7551M37.0271 26.7344L37.0269 26.7344C37.0234 26.7353 37.0195 26.7363 37.0152 26.7374C37.0045 26.7401 36.9919 26.7434 36.9801 26.7457C36.9801 26.7457 36.98 26.7457 36.98 26.7457L37.0271 26.7344ZM37.0271 26.7344C37.0297 26.7337 37.0324 26.733 37.0353 26.7323C37.0467 26.7295 37.0598 26.7264 37.0725 26.7225L37.0725 26.7225M37.0271 26.7344L37.0725 26.7225M37.0725 26.7225C37.0851 26.7187 37.0978 26.714 37.1088 26.7099M37.0725 26.7225L37.1088 26.7099M37.2488 26.6491L37.2487 26.6492C37.2332 26.6575 37.2172 26.6647 37.2038 26.671C37.2038 26.671 37.2037 26.671 37.2037 26.6711L37.2488 26.6491ZM37.2488 26.6491C37.2617 26.6422 37.2776 26.6322 37.2865 26.6271L37.2869 26.6268M37.2488 26.6491L37.2869 26.6268M37.2869 26.6268C37.2894 26.6253 37.292 26.6238 37.2947 26.6222C37.3058 26.6156 37.3184 26.6082 37.3305 26.6001L37.3306 26.6M37.2869 26.6268L37.3306 26.6M37.3306 26.6C37.3445 26.5906 37.3587 26.5795 37.3694 26.5716L37.3697 26.5713M37.3306 26.6L37.3697 26.5713M37.3697 26.5713C37.3724 26.5693 37.3757 26.5669 37.3793 26.5643M37.3697 26.5713L37.3793 26.5643M36.9198 26.7551C36.9234 26.7545 36.9268 26.754 36.9298 26.7536L36.9198 26.7551ZM37.1088 26.7099C37.112 26.7088 37.1149 26.7077 37.1177 26.7067M37.1088 26.7099L37.1177 26.7067M37.1177 26.7067C37.1308 26.702 37.1469 26.6966 37.1624 26.6902L37.1175 26.7068C37.1176 26.7067 37.1176 26.7067 37.1177 26.7067ZM37.3793 26.5643C37.3878 26.5581 37.3981 26.5506 37.4068 26.5433L37.3793 26.5643ZM36.8055 26.7642L36.8139 26.7637L36.7912 26.7648C36.7968 26.7648 36.8019 26.7644 36.8055 26.7642ZM31.3833 26.7791L36.7911 26.7648L37.4564 26.4986L37.4646 26.4913C37.4679 26.4884 37.4724 26.4845 37.477 26.48L44.7556 19.2013C49.1484 14.8085 49.1484 7.66082 44.7556 3.26805C40.3627 -1.12472 33.215 -1.12481 28.8221 3.26805C24.4294 7.66091 24.4294 14.8086 28.8221 19.2014L28.8575 19.1661L28.8221 19.2014L34.4455 24.8247L31.3784 24.8328C27.7927 24.8421 24.8759 27.7668 24.8759 31.3522C24.8759 34.9472 27.8006 37.8717 31.3954 37.8717H37.3887C39.6518 37.8717 41.4931 39.713 41.4931 41.976C41.4931 44.2391 39.6518 46.0804 37.3887 46.0804H27.6954C27.1579 46.0804 26.7222 46.5161 26.7222 47.0535C26.7222 47.5911 27.158 48.0267 27.6954 48.0267H37.3887C40.7251 48.0267 43.4394 45.3124 43.4394 41.976C43.4394 38.6397 40.7251 35.9254 37.3887 35.9254H31.3954C28.8739 35.9254 26.8222 33.8739 26.8222 31.3522C26.8222 28.8374 28.8683 26.7857 31.3833 26.7791ZM30.1983 4.64423C32.0152 2.8272 34.4019 1.91875 36.7887 1.91875C39.1756 1.91875 41.5622 2.82729 43.3791 4.64423C47.013 8.27813 47.013 14.1911 43.3791 17.825L36.7887 24.4155L30.1983 17.8251C26.5643 14.191 26.5643 8.27813 30.1983 4.64423Z" fill="#FE3B3B" stroke="#FE3B3B" stroke-width="0.1"/>
<path d="M0.235152 40.3561L0.235113 40.3561C0.0539963 40.175 -0.05 39.9241 -0.05 39.6681C-0.05 39.6049 -0.0441954 39.5407 -0.0314677 39.4781C-0.0187677 39.4156 0.000699044 39.3544 0.0248456 39.2964C0.0489501 39.2375 0.0781834 39.181 0.114431 39.1279C0.149569 39.0742 0.190502 39.0246 0.235113 38.98C0.279788 38.9353 0.329447 38.8943 0.383376 38.8592C0.435857 38.8242 0.492115 38.7941 0.55147 38.7697C0.609302 38.7456 0.670713 38.7261 0.733573 38.7143C0.858067 38.689 0.98737 38.6891 1.1127 38.7143C1.1756 38.7261 1.23684 38.7457 1.29473 38.7697C1.35413 38.7941 1.41048 38.8243 1.46292 38.8591C1.51675 38.8943 1.56642 38.9353 1.6111 38.98M0.235152 40.3561L1.57575 39.0154M0.235152 40.3561C0.279835 40.4007 0.329381 40.4416 0.383255 40.4769M0.235152 40.3561L0.410812 40.4352M1.6111 38.98L1.57575 39.0154M1.6111 38.98C1.61109 38.98 1.61108 38.98 1.61106 38.98L1.57575 39.0154M1.6111 38.98C1.65591 39.0247 1.6968 39.0744 1.73194 39.1282M1.57575 39.0154C1.61831 39.0578 1.65703 39.1049 1.69022 39.1557M1.73194 39.1282C1.73189 39.1281 1.73185 39.128 1.73181 39.128L1.69022 39.1557M1.73194 39.1282C1.76696 39.1807 1.79706 39.237 1.82136 39.2964M1.73194 39.1282C1.73199 39.1282 1.73203 39.1283 1.73208 39.1284L1.69022 39.1557M1.69022 39.1557L1.82136 39.2964M1.82136 39.2964C1.82134 39.2963 1.82132 39.2963 1.8213 39.2962L1.77515 39.3155L1.82143 39.2965C1.82141 39.2965 1.82139 39.2964 1.82136 39.2964ZM1.82136 39.2964C1.84547 39.3542 1.86501 39.4156 1.87682 39.4785M1.82136 39.2964L1.43531 40.4352C1.38543 40.4685 1.3319 40.4971 1.27556 40.5201C1.22034 40.5432 1.16212 40.5617 1.10306 40.5727M1.87682 39.4785C1.8768 39.4783 1.87677 39.4782 1.87675 39.4781L1.82775 39.4881L1.87689 39.4788C1.87687 39.4787 1.87684 39.4786 1.87682 39.4785ZM1.87682 39.4785C1.8894 39.5405 1.89622 39.6046 1.89622 39.6681C1.89622 39.9242 1.79212 40.175 1.61101 40.3561C1.56633 40.4008 1.51668 40.4418 1.46286 40.4769C1.41036 40.5119 1.35401 40.542 1.29468 40.5663C1.23692 40.5905 1.1755 40.61 1.11265 40.6218M1.11265 40.6218C1.11277 40.6218 1.11289 40.6218 1.11302 40.6217L1.10306 40.5727M1.11265 40.6218C1.11252 40.6218 1.11239 40.6219 1.11227 40.6219L1.10306 40.5727M1.11265 40.6218C1.05061 40.6344 0.986375 40.6412 0.923061 40.6412C0.859653 40.6412 0.79551 40.6344 0.73348 40.6218M1.10306 40.5727C1.044 40.5847 0.982967 40.5912 0.923061 40.5912C0.863061 40.5912 0.802123 40.5847 0.743061 40.5727M0.743061 40.5727L0.733856 40.6219C0.733731 40.6219 0.733606 40.6218 0.73348 40.6218M0.743061 40.5727C0.683999 40.5617 0.625968 40.5432 0.570468 40.5201M0.743061 40.5727L0.733106 40.6217C0.733231 40.6218 0.733356 40.6218 0.73348 40.6218M0.73348 40.6218C0.670581 40.61 0.609358 40.5904 0.551404 40.5664M0.570468 40.5201L0.551527 40.5664C0.551486 40.5664 0.551445 40.5664 0.551404 40.5664M0.570468 40.5201C0.514124 40.4971 0.460687 40.4684 0.410812 40.4352M0.570468 40.5201L0.551281 40.5663C0.551322 40.5663 0.551363 40.5664 0.551404 40.5664M0.551404 40.5664C0.491968 40.542 0.435696 40.5118 0.383255 40.4769M0.410812 40.4352L0.383397 40.477C0.38335 40.477 0.383302 40.477 0.383255 40.4769M0.410812 40.4352L0.383113 40.4768C0.38316 40.4769 0.383207 40.4769 0.383255 40.4769" fill="#FE3B3B" stroke="#FE3B3B" stroke-width="0.1"/>
</g>
<defs>
<clipPath id="clip0">
<rect width="48" height="48" fill="white"/>
</clipPath>
</defs>
</svg>
