<svg width="48" height="45" viewBox="0 0 48 45" fill="none" xmlns="http://www.w3.org/2000/svg">
<path d="M25.5 23.625C27.7992 23.625 30.0468 22.9432 31.9585 21.6658C33.8702 20.3885 35.3602 18.5729 36.2401 16.4487C37.12 14.3245 37.3502 11.9871 36.9016 9.73208C36.4531 7.47705 35.3459 5.40567 33.7201 3.77989C32.0943 2.1541 30.023 1.04693 27.7679 0.598376C25.5129 0.149823 23.1755 0.380037 21.0513 1.25991C18.9271 2.13977 17.1115 3.62978 15.8342 5.5415C14.5568 7.45322 13.875 9.7008 13.875 12C13.8785 15.0821 15.1044 18.0369 17.2837 20.2163C19.4631 22.3956 22.4179 23.6215 25.5 23.625ZM25.5 2.62501C27.3542 2.62501 29.1668 3.17484 30.7085 4.20498C32.2502 5.23512 33.4518 6.69929 34.1614 8.41235C34.8709 10.1254 35.0566 12.0104 34.6949 13.829C34.3331 15.6475 33.4402 17.318 32.1291 18.6291C30.818 19.9402 29.1475 20.8331 27.329 21.1949C25.5104 21.5566 23.6254 21.3709 21.9123 20.6614C20.1993 19.9518 18.7351 18.7502 17.705 17.2085C16.6748 15.6668 16.125 13.8542 16.125 12C16.1278 9.51446 17.1164 7.13152 18.874 5.37398C20.6315 3.61643 23.0145 2.62781 25.5 2.62501Z" fill="#FE3B3B"/>
<path d="M39.5031 30.4938C39.1219 30.3031 35.7196 28.6894 33.7045 30.7045C33.6354 30.7735 33.5665 30.8457 33.4983 30.9202C31.6927 30.4395 30.1865 30.7012 29.2045 31.6827C28.0071 32.8801 26.8616 34.8522 26.2991 35.8932L24.2366 36.3057L18.7156 32.625H22.5C24.762 32.625 26.5177 31.6051 27.4437 29.7532C27.8657 28.8949 28.098 27.956 28.125 27C28.125 26.7016 28.0065 26.4155 27.7955 26.2045C27.5845 25.9935 27.2984 25.875 27 25.875H1.5C1.20163 25.875 0.915483 25.9935 0.704505 26.2045C0.493526 26.4155 0.375 26.7016 0.375 27C0.375 27.2984 0.493526 27.5845 0.704505 27.7955C0.915483 28.0065 1.20163 28.125 1.5 28.125H25.6781C25.6073 28.3593 25.515 28.5866 25.4025 28.804C24.8495 29.8612 23.9002 30.375 22.5 30.375H15C13.9198 30.34 13.4582 31.8664 14.376 32.436L23.376 38.436C23.4989 38.518 23.6368 38.5749 23.7817 38.6036C23.9267 38.6323 24.0758 38.6321 24.2207 38.6032L31.7207 37.1032C31.8886 37.0695 32.0467 36.998 32.1828 36.894C32.3189 36.79 32.4294 36.6563 32.506 36.5032C32.5184 36.4785 33.5879 34.3551 34.7517 32.9086C34.7566 32.9024 34.7617 32.8964 34.7665 32.8898C34.9324 32.6825 35.1089 32.4839 35.2955 32.2949C35.746 31.8444 36.6504 31.914 37.4325 32.1187L33.7252 39.5344L22.4845 42.3444L9.24375 39.4018C9.16372 39.384 9.08198 39.375 9 39.375H1.5C1.20163 39.375 0.915483 39.4935 0.704505 39.7045C0.493526 39.9155 0.375 40.2016 0.375 40.5C0.375 40.7984 0.493526 41.0845 0.704505 41.2955C0.915483 41.5065 1.20163 41.625 1.5 41.625H8.87653L22.2562 44.5982C22.4268 44.6361 22.6037 44.6338 22.7732 44.5914L34.7732 41.5914C34.9306 41.5521 35.0777 41.4791 35.2043 41.3776C35.3309 41.276 35.434 41.1483 35.5066 41.0032L40.0066 32.0032C40.1382 31.7359 40.1592 31.4276 40.0649 31.145C39.9707 30.8624 39.7688 30.6284 39.5031 30.4938ZM30.752 35.0023L29.2537 35.3023C29.7559 34.5159 30.2993 33.7699 30.7955 33.2737C31.0767 32.9925 31.5173 32.9193 31.9682 32.9406C31.4437 33.7477 31.0103 34.5208 30.752 35.0023Z" fill="#FE3B3B"/>
<path d="M47.2956 17.2045C47.0846 16.9936 46.7985 16.8751 46.5001 16.8751C46.2018 16.8751 45.9156 16.9936 45.7047 17.2045L44.6251 18.284V13.5C44.6251 13.2016 44.5066 12.9155 44.2956 12.7045C44.0846 12.4935 43.7985 12.375 43.5001 12.375C43.2017 12.375 42.9156 12.4935 42.7046 12.7045C42.4936 12.9155 42.3751 13.2016 42.3751 13.5V18.284L41.2956 17.2045C41.084 16.9964 40.7988 16.8803 40.502 16.8815C40.2052 16.8827 39.921 17.0011 39.7111 17.211C39.5012 17.4208 39.3828 17.7051 39.3816 18.0019C39.3804 18.2987 39.4965 18.5839 39.7046 18.7955L42.7046 21.7955C42.9156 22.0064 43.2018 22.1249 43.5001 22.1249C43.7985 22.1249 44.0846 22.0064 44.2956 21.7955L47.2956 18.7955C47.5065 18.5845 47.6251 18.2984 47.6251 18C47.6251 17.7016 47.5065 17.4155 47.2956 17.2045Z" fill="#FE3B3B"/>
<path d="M43.5 10.125C43.7984 10.125 44.0845 10.0065 44.2955 9.79549C44.5065 9.58452 44.625 9.29837 44.625 9V7.5C44.625 7.20163 44.5065 6.91548 44.2955 6.7045C44.0845 6.49353 43.7984 6.375 43.5 6.375C43.2016 6.375 42.9155 6.49353 42.7045 6.7045C42.4935 6.91548 42.375 7.20163 42.375 7.5V9C42.375 9.29837 42.4935 9.58452 42.7045 9.79549C42.9155 10.0065 43.2016 10.125 43.5 10.125Z" fill="#FE3B3B"/>
<path d="M6.70464 21.7955C6.91562 22.0064 7.20176 22.1249 7.50011 22.1249C7.79847 22.1249 8.08461 22.0064 8.29558 21.7955L11.2956 18.7955C11.5037 18.5839 11.6198 18.2987 11.6186 18.0019C11.6174 17.7051 11.499 17.4208 11.2891 17.211C11.0793 17.0011 10.795 16.8827 10.4982 16.8815C10.2014 16.8803 9.9162 16.9964 9.70464 17.2045L8.62511 18.284V13.5C8.62511 13.2016 8.50659 12.9155 8.29561 12.7045C8.08463 12.4935 7.79848 12.375 7.50011 12.375C7.20174 12.375 6.9156 12.4935 6.70462 12.7045C6.49364 12.9155 6.37511 13.2016 6.37511 13.5V18.284L5.29558 17.2045C5.08402 16.9964 4.79879 16.8803 4.50201 16.8815C4.20523 16.8827 3.92095 17.0011 3.7111 17.211C3.50124 17.4208 3.38281 17.7051 3.3816 18.0019C3.38039 18.2987 3.4965 18.5839 3.70464 18.7955L6.70464 21.7955Z" fill="#FE3B3B"/>
<path d="M7.5 10.125C7.79837 10.125 8.08452 10.0065 8.2955 9.79549C8.50647 9.58452 8.625 9.29837 8.625 9V7.5C8.625 7.20163 8.50647 6.91548 8.2955 6.7045C8.08452 6.49353 7.79837 6.375 7.5 6.375C7.20163 6.375 6.91548 6.49353 6.7045 6.7045C6.49353 6.91548 6.375 7.20163 6.375 7.5V9C6.375 9.29837 6.49353 9.58452 6.7045 9.79549C6.91548 10.0065 7.20163 10.125 7.5 10.125Z" fill="#FE3B3B"/>
</svg>
