<svg xmlns="http://www.w3.org/2000/svg">

    <symbol id="main-btn" viewBox="0 0 383 93">
        <g>
            <path class="blue" d="M314.519 8.25119C314.519 8.00116 314.288 7.87615 314.058 7.75113C313.827 7.62611 313.597 7.37608 313.827 7.12604C314.058 6.75099 314.519 6.37593 314.98 6.25091C315.671 6.00087 316.594 5.87586 317.285 5.62582C318.207 5.25077 319.129 5.5008 320.051 5.75084L320.282 5.87586C320.282 6.00088 320.282 6.25091 320.051 6.25091C319.36 6.62597 318.668 6.876 317.746 7.25106C317.516 7.37607 317.516 7.50109 317.516 7.6261C317.516 7.75113 317.746 8.00116 317.746 8.00116C318.438 7.75113 319.129 8.00116 319.821 7.6261C320.051 7.50109 320.282 7.25106 320.512 7.25106C321.435 7.25106 321.435 6.62597 321.665 6.25091C321.896 6.25091 322.126 6.25091 322.357 6.1259C323.048 5.87586 323.74 6.00088 324.431 6.50095C324.662 6.75099 324.892 7.12603 325.353 7.50109C325.584 7.75113 325.814 7.75113 326.045 7.6261C326.275 7.6261 326.506 7.50109 326.737 7.50109C329.042 8.00116 331.116 9.25134 332.73 10.6265C332.961 10.7516 332.961 10.8766 332.961 11.0016C333.422 12.2518 334.805 12.5018 336.188 12.7518C337.11 12.8769 338.032 12.8769 338.954 13.0019C339.185 13.0019 339.415 13.2519 339.415 13.502C339.415 13.752 339.415 14.002 338.954 14.127C338.032 14.2521 337.11 14.2521 336.188 14.3771C335.727 14.3771 335.496 14.7521 335.496 15.1272C335.266 15.7523 335.496 16.3774 336.188 16.7524C336.649 17.1275 336.649 17.5025 336.88 18.0026C336.88 19.1278 336.88 20.2529 336.88 21.5031C336.88 21.7531 337.341 22.1282 337.571 22.1282C338.724 22.1282 340.107 22.1282 341.259 22.2532C340.798 22.2532 340.107 22.2532 339.646 22.2532C339.185 22.2532 338.493 22.2532 338.032 22.2532C337.571 22.2532 337.11 22.3782 336.88 22.5032C336.649 22.6283 336.418 22.7533 336.418 23.1283C336.418 23.5034 336.649 23.8784 336.88 23.8784C337.571 24.0035 338.263 24.1285 338.954 24.1285C342.643 24.1285 346.331 24.1285 350.019 24.1285C352.324 24.1285 354.63 24.1285 356.935 24.1285C358.318 24.1285 359.471 24.5035 360.393 25.0036C360.854 25.2536 361.084 25.6287 361.315 25.8787C361.545 26.1288 361.315 26.6288 361.084 26.7539C360.623 27.0039 360.162 27.1289 359.701 27.3789C359.01 27.879 358.318 28.004 357.396 27.629L356.935 27.754C356.704 28.004 356.704 28.2541 356.474 28.3791C355.782 28.6291 355.321 29.0042 354.63 29.2542C354.399 30.1293 354.86 30.6294 355.782 30.8794C356.935 31.1295 358.088 31.3795 359.24 31.5045C359.932 31.6295 360.162 31.7546 360.393 32.1296C360.393 32.2546 360.854 32.3797 361.084 32.5047C361.315 32.6297 361.545 32.6297 362.006 32.6297C361.776 33.0047 361.545 33.1298 361.084 33.2548C361.315 33.3798 361.315 33.5048 361.545 33.5048C362.237 33.6298 362.698 33.8799 362.698 34.505C362.698 34.755 362.929 35.005 362.929 35.2551C362.467 35.8802 362.237 36.3802 362.698 37.1303C363.159 37.5054 363.159 38.0055 363.39 38.5055C364.312 39.6307 364.542 41.0059 365.003 42.2561C365.464 43.2562 365.464 44.3814 364.542 45.3815C364.081 45.7566 364.312 46.1316 364.312 46.5067C364.312 47.2568 363.851 47.7569 362.929 48.0069L362.929 48.1319C362.929 47.8819 362.698 47.7569 362.467 47.8819L362.237 48.1319L362.237 48.0069C362.006 48.2569 362.006 48.3819 362.237 48.632C362.237 48.757 362.237 49.007 362.237 49.1321C362.237 49.5071 362.237 49.7571 361.776 49.8822C361.084 50.1322 360.393 50.2572 359.701 50.3822C359.01 50.5073 358.779 51.0073 359.01 51.2574C359.701 52.3825 360.162 53.6327 361.315 54.5078C362.929 55.758 364.081 57.3832 365.234 59.0085C366.386 60.5087 367.078 62.1339 367.769 63.8842C368 64.3842 368 65.1343 368 65.8844C367.769 66.8846 367.308 67.7597 367.769 68.8849C367.769 69.1349 367.769 69.3849 367.539 69.635C366.386 71.0102 365.234 72.3854 364.542 74.0106C364.542 74.1356 364.312 74.2606 364.081 74.2606C363.39 74.1356 362.929 74.2606 362.237 74.2606C358.549 74.2606 354.86 74.1356 351.172 74.1356C350.25 74.1356 349.328 74.1356 348.406 74.1356C347.945 74.1356 347.714 74.5107 347.714 74.8857C347.714 75.0108 347.714 75.0108 347.714 75.1358C347.945 76.0109 347.945 76.886 347.022 77.5111C347.022 77.8862 346.561 78.2612 346.561 78.6363C346.561 78.8863 346.792 79.2614 347.022 79.6364C347.253 79.6364 347.484 79.7614 347.945 79.7614C351.863 80.0115 355.782 79.7614 359.701 79.8865C361.084 79.8865 362.467 79.8865 363.851 79.8865C364.542 79.8865 365.234 80.0115 365.925 80.2615C366.847 80.5115 367.308 80.8866 367.308 81.7617C367.308 81.8867 367.539 82.1368 368 82.3868C364.081 82.3868 360.393 82.3868 356.704 82.3868C355.782 82.3868 355.091 82.3868 354.169 82.3868C353.016 82.3868 352.094 82.6368 351.633 83.637C351.402 83.887 351.172 83.887 350.941 84.012C350.711 84.012 350.711 84.2621 350.48 84.2621C350.25 84.1371 350.48 84.2621 350.48 84.3871C350.48 84.3871 350.48 84.5121 350.48 84.6371C349.558 85.0122 348.636 84.7621 347.714 84.8872C347.484 84.8872 347.484 85.1372 347.253 85.2622C347.253 85.3872 347.253 85.6373 347.484 85.6373L347.714 85.7623L347.945 85.8873C351.172 85.8873 353.708 86.5124 356.474 86.8875C357.396 87.0125 358.318 87.0125 359.24 87.0125C360.623 87.1375 362.006 87.1375 363.39 87.2625C364.081 87.2625 364.542 87.5125 364.773 88.1376C363.851 88.3877 362.929 88.2626 362.006 88.2626C357.626 88.2626 353.247 88.2626 349.097 88.2626C348.175 88.2626 347.484 88.2626 346.561 88.2626C345.87 88.2626 345.409 88.5127 344.948 88.8877C344.487 89.5128 343.565 89.6378 342.873 90.0129C341.72 89.8879 340.337 90.513 339.185 90.0129C338.493 89.7629 338.032 89.7629 337.341 89.7629C336.418 89.7629 335.727 89.6378 334.805 89.6378C327.198 89.6378 319.59 89.5128 311.983 89.6378C307.603 89.7629 303.223 89.5128 299.074 89.8879C298.382 89.8879 297.691 89.7629 296.999 89.3878L297.23 89.2628L296.999 89.3878C296.538 89.1378 296.077 89.0128 295.385 89.1378C294.233 89.3878 292.85 89.5128 291.697 89.1378C286.856 88.8877 282.015 88.3877 277.174 89.1378C275.33 89.3878 273.716 89.3878 271.872 89.0127C270.489 88.7627 268.875 88.7627 267.492 88.7627C263.343 88.7627 258.963 88.8877 254.814 88.8877C253.43 88.8877 251.817 88.8877 250.434 88.8877C247.437 88.8877 244.44 88.8877 241.674 89.0127C238.908 89.1378 236.372 89.1378 233.836 89.2628C231.3 89.2628 228.534 89.2628 225.998 89.2628C224.615 89.2628 223.002 89.3878 221.618 89.7629C220.005 90.1379 218.391 90.513 216.777 89.7629C216.547 89.6378 216.316 89.7629 216.086 89.7629C215.164 90.2629 214.011 90.1379 213.089 90.1379C209.401 90.1379 205.712 90.1379 202.024 90.1379C200.18 90.1379 198.336 90.1379 196.261 90.1379C195.569 90.1379 195.339 89.8879 194.878 89.6378C194.878 89.5128 194.417 89.5128 194.417 89.5128C193.956 89.6378 193.725 89.6378 193.264 89.5128C192.573 89.3878 192.112 89.5128 191.42 89.7629C190.498 90.1379 189.806 90.0129 189.115 89.7629C188.884 89.6378 188.423 89.6378 188.193 89.6378C187.732 89.8879 187.501 89.5128 187.271 89.2628C187.04 89.0127 186.579 89.0127 186.118 89.2628C186.118 89.3878 185.887 89.5128 185.887 89.7629C185.657 90.0129 185.426 90.0129 185.196 90.0129C184.965 90.0129 184.504 89.8879 184.274 89.7629L184.274 89.8879C183.813 89.6378 183.813 89.6378 183.582 89.8879C182.66 90.1379 181.738 90.3879 180.816 90.2629C179.663 90.1379 178.28 90.3879 177.128 89.8879C176.667 89.7629 175.975 89.7629 175.514 89.8879C174.361 90.2629 172.978 90.2629 171.826 90.2629C170.673 90.2629 169.52 90.1379 168.368 90.2629C167.215 90.3879 166.063 90.1379 164.91 90.2629C163.988 90.3879 163.066 90.3879 162.144 90.0129C161.913 89.8879 161.683 89.8879 161.452 89.8879C159.377 90.2629 157.533 89.8879 155.458 90.1379C154.997 90.2629 154.536 90.2629 154.306 90.0129C153.845 89.7628 153.384 89.6378 152.923 90.0129C152.692 90.1379 152.001 90.0129 151.77 90.1379C151.079 90.2629 150.387 89.8879 149.695 89.7628C149.004 89.6378 148.312 90.0129 147.621 90.0129C147.39 90.0129 146.929 90.0129 146.699 89.8879C145.546 89.6378 145.546 89.6378 144.624 90.513C145.085 90.638 145.316 90.888 145.777 90.888C146.929 91.013 148.082 91.138 149.234 91.138C156.842 91.138 164.449 91.138 172.056 91.138C181.277 91.138 190.728 91.138 199.949 91.138C208.709 91.138 217.238 91.138 225.998 91.1381C228.534 91.1381 231.07 91.1381 233.606 90.888C235.68 90.763 237.524 90.638 239.599 90.638C241.443 90.638 243.287 90.638 245.362 90.513C246.054 90.513 246.976 90.513 247.667 90.2629C249.051 89.8879 250.664 90.0129 252.047 90.0129C252.508 90.0129 252.969 90.1379 253.2 90.513C253.43 90.888 253.661 91.013 254.122 91.013C255.275 91.013 256.197 90.888 257.349 90.888C259.424 90.763 261.499 90.763 263.573 91.1381C265.648 91.5131 267.492 91.2631 269.567 91.3881C270.028 91.3881 270.259 91.2631 270.72 91.5131C269.567 91.5131 268.414 91.5131 267.262 91.5131C264.957 91.6381 263.343 91.7631 261.96 91.7631C259.885 91.8882 258.041 92.0132 255.966 92.1382C254.583 92.2632 252.969 92.1382 251.586 91.8882C249.742 91.7631 247.667 91.7631 245.823 91.8882C245.593 91.8882 245.362 92.0132 245.362 92.1382C245.132 92.3882 244.671 92.5132 244.21 92.5132C241.213 92.5132 238.216 92.5132 235.45 92.6383C235.219 92.6383 234.758 92.5132 234.067 92.5132C235.219 92.3882 236.141 92.3882 236.833 92.2632C238.908 92.2632 240.982 92.2632 243.057 92.2632C243.287 92.2632 243.518 92.1382 243.518 92.0132C243.287 91.8882 243.287 91.7631 243.057 91.7631C241.904 91.7631 240.521 91.7631 239.369 91.7631C230.609 91.6381 221.849 91.6381 213.089 91.6381C204.79 91.6381 196.722 91.6381 188.423 91.6381C180.816 91.6381 172.978 91.6381 165.371 91.6381C159.838 91.6381 154.306 91.6381 149.004 91.6381C148.773 91.6381 148.312 91.6381 148.082 91.6381C147.621 91.6381 147.39 91.8882 147.16 92.2632C147.16 92.3882 146.929 92.5132 146.929 92.6383L146.699 92.7633C143.932 93.0133 140.936 93.1383 138.169 92.7633C137.939 92.7633 137.708 92.6383 137.939 92.3882C137.939 92.2632 138.169 92.2632 138.169 92.2632L138.4 92.1382L138.63 92.0132C138.63 92.0132 138.63 91.8882 138.4 91.8882C137.478 91.7631 137.017 91.7631 136.556 91.7631C133.098 91.7631 129.871 91.7631 126.413 91.7631C121.111 91.7631 115.578 91.8882 110.276 91.8882C107.279 91.8882 104.283 91.8881 101.516 91.8881C99.4416 91.8881 97.5974 91.7631 95.5227 92.0132C94.6006 92.1382 93.909 92.0132 92.9869 91.8881C92.5259 91.8881 92.2954 92.1382 92.0649 92.3882C92.0649 92.5132 91.8344 92.6383 91.6038 92.7633C90.6817 92.7633 89.7596 92.7633 88.8376 92.7633C88.607 92.0132 88.607 91.8881 87.9155 92.0132C87.4544 92.0132 86.9934 92.1382 86.7628 92.1382C86.3018 92.1382 85.6103 92.1382 85.1492 92.0132C84.9187 92.0132 84.6881 91.7631 84.4576 91.6381C84.4576 91.5131 84.4576 91.3881 84.4576 91.138C84.4576 90.888 84.4576 90.638 84.2271 90.513C83.7661 90.3879 83.305 90.1379 82.844 90.0129C81.9219 89.8879 80.7693 89.7628 79.6167 89.6378C78.9251 89.6378 78.2335 89.5128 77.542 89.1378C77.3114 89.0127 76.8504 89.0127 76.6199 89.0127C76.3893 89.0127 75.9283 89.1378 75.6978 89.1378C75.4673 89.0127 75.2368 89.0127 75.0062 88.8877C73.6231 87.8876 72.0094 87.5125 70.1653 87.3875C69.4737 87.3875 68.7821 87.2625 68.0905 87.0125C66.7074 87.0124 65.3243 86.8874 64.1717 86.8874C63.9411 86.6374 63.9411 86.5124 64.1717 86.5124C65.0938 86.3874 66.2464 86.1373 67.1685 86.1373C67.86 86.1373 68.3211 86.0123 68.7821 85.6373C68.3211 85.3872 67.86 85.1372 67.6295 84.8871C67.1685 84.5121 66.4769 84.2621 65.5548 84.2621C64.6327 84.2621 63.7106 84.2621 62.7885 84.2621C62.3275 84.2621 62.097 84.137 61.8665 83.762C61.6359 83.5119 61.6359 83.1369 61.4054 82.8869C61.1749 82.5118 60.9444 82.3868 60.4833 82.3868C59.7918 82.2618 59.3307 82.1368 58.6392 82.2618C56.795 82.3868 55.1813 82.1368 53.3371 82.2618C51.493 82.3868 49.8793 82.2618 48.0351 82.2618C48.0351 82.2618 47.8046 82.2618 47.5741 82.3868C47.8046 83.1369 48.2656 83.637 49.1877 83.887C50.1098 84.137 51.0319 84.2621 51.954 84.5121C52.415 84.6371 52.6455 84.8871 52.6455 85.1372C50.8014 85.3872 49.1877 85.3872 47.3435 84.6371C45.2688 84.3871 43.4247 83.887 41.5805 83.5119C40.8889 83.3869 40.4279 83.2619 39.7363 83.0119C38.8142 82.5118 38.1227 82.3868 36.97 82.5118C36.0479 82.6368 35.1259 82.3868 34.2038 82.0117C32.8206 81.3866 31.4375 81.1366 30.0544 81.1366C29.8239 81.1366 29.5933 81.1366 29.1323 81.0116C29.5933 80.7616 30.0544 80.6365 30.2849 80.5115C30.2849 80.3865 30.5154 80.1365 30.2849 80.1365C30.0544 80.0114 29.8239 79.7614 29.5933 79.6364C29.1323 79.5114 28.9018 79.3864 28.4407 79.1363C28.2102 79.0113 27.9797 78.7613 27.9797 78.5112C27.9797 78.3862 28.2102 78.2612 28.4407 78.2612L28.6713 78.1362C28.9018 78.0112 28.9018 77.6361 28.6713 77.5111C27.9797 77.2611 27.2881 77.011 26.5965 77.011C25.4439 77.011 24.5219 77.011 23.3692 77.136C22.6777 77.136 21.9861 77.011 21.2946 76.886C21.064 76.886 20.8335 76.761 20.8335 76.636C20.603 76.3859 20.3725 75.7608 20.603 75.5108C20.8335 75.2608 21.2946 75.1357 21.7556 75.2608C22.2166 75.3858 22.9082 75.5108 23.1387 75.7608C24.0608 76.5109 25.2134 76.761 26.5965 76.636C27.2881 76.636 27.7491 76.5109 28.4407 76.5109L28.6713 76.3859C28.6713 76.2609 28.6712 76.0109 28.4407 76.0109C27.9797 75.7608 27.2881 75.6358 26.5965 75.3858C26.1355 75.2608 25.905 74.8857 25.6745 74.5107C24.9829 73.2605 24.7524 73.0104 23.5998 72.6354C22.6777 72.3854 21.7556 72.5104 20.8335 72.5104C19.6809 71.7603 18.7588 71.1352 17.6062 70.5101C17.8367 70.135 17.3756 69.76 17.6062 69.3849C18.0672 69.0099 17.8367 68.8849 17.3756 68.6348C17.1451 68.6348 17.1451 68.3848 16.9146 68.2598C16.9146 68.1347 17.1451 67.7597 17.6062 67.7597C18.0672 67.7597 18.5283 67.7597 18.7588 67.7597C18.9893 67.7597 19.4504 67.6347 19.6809 67.6347C19.6809 67.6347 19.9114 67.5097 19.9114 67.3846C19.6809 67.0096 19.6809 66.8846 20.1419 66.5095C20.3725 66.1345 19.9114 65.8844 19.6809 65.6344C19.9114 65.6344 20.1419 65.7594 20.3724 65.7594C21.2945 65.6344 21.9861 65.0093 22.6777 64.6342L22.6777 64.3842C21.9861 64.1342 22.2166 63.7591 22.2166 63.3841C22.2166 63.3841 21.9861 63.3841 21.9861 63.259C21.2945 63.009 20.8335 63.009 20.1419 63.259C20.1419 63.3841 19.9114 63.5091 19.9114 63.7591C19.9114 64.3842 19.6809 65.0093 19.6809 65.6344C19.2198 65.5094 18.9893 65.2593 18.5283 65.1343C17.6062 64.6342 17.3757 64.2592 17.8367 63.259C17.8367 63.134 18.0672 62.884 18.0672 62.759C18.0672 62.5089 18.0672 62.2589 17.8367 62.1339C17.1451 61.8838 16.9146 61.3838 16.9146 60.8837C16.6841 59.8836 16.2231 59.0084 15.9925 58.0083C16.2231 57.7583 16.4536 57.5082 16.6841 57.2582C16.9146 56.8831 16.9146 56.5081 16.223 56.258C15.9925 56.133 15.762 56.008 15.9925 55.758C15.9925 55.633 16.2231 55.633 15.9925 55.5079C15.5315 55.0079 15.301 54.5078 14.3789 54.3828C13.4568 54.2578 12.5347 54.2578 11.6126 54.1327C10.6905 54.1327 9.99897 54.2578 9.07688 53.8827C10.2295 53.5077 11.6126 53.8827 12.7652 53.6327L12.9957 53.5077L12.9957 53.3826C12.7652 53.2576 12.5347 53.2576 12.5347 53.2576C11.6126 53.1326 10.46 53.1326 9.30738 53.1326C10.46 53.0076 11.6126 52.8826 12.5347 52.6325C13.4568 52.3825 14.3789 52.5075 15.301 52.5075C15.762 52.5075 15.9925 52.1325 15.9925 51.8824C15.9925 51.6324 15.762 51.1323 15.301 51.1323C14.8399 51.0073 14.1484 50.8823 13.6873 51.0073C12.5347 51.2573 11.3821 50.7573 10.2295 50.5072C9.53791 50.0072 8.38529 49.7571 7.69373 49.007C7.23267 48.5069 6.54111 48.2569 5.84952 48.2569C5.38849 48.2569 4.92743 48.1319 4.69694 48.1319C4.46641 47.7568 4.69694 47.3818 4.69694 47.0067C5.15796 46.6317 6.08005 46.7567 6.54111 46.2566C6.08005 45.8816 5.61905 46.1316 5.15799 45.8816C4.92747 45.7565 4.92747 45.6315 4.92747 45.5065C4.92747 45.5065 4.92747 45.3815 5.158 45.3815C5.38852 45.2565 5.84955 45.2565 6.08008 45.1315C6.31058 45.0064 6.31061 44.8814 6.31061 44.7564C6.31061 44.5064 5.61902 44.5064 5.84952 44.0063C6.08005 43.5062 5.38853 43.5062 5.158 43.2562C4.92747 42.8811 4.46644 42.5061 4.46644 42.131C4.00538 40.6308 3.54432 39.2556 2.3917 38.0054C2.16117 37.7554 2.1612 37.5054 1.93067 37.3803C1.46961 36.7553 1.23911 36.0052 1.46964 35.255C1.70014 34.63 1.46961 34.1299 0.778053 33.7548C0.0864937 33.3798 -0.144036 32.7547 0.0864939 32.2546C0.547523 31.3795 0.317024 30.5044 0.778053 29.6292C1.23911 28.8791 1.23911 28.004 1.46964 27.2539C1.46964 27.0039 1.70014 26.7538 1.93067 26.6288C3.08329 26.3788 3.31379 25.6287 3.54432 24.8786C3.54432 24.8786 4.00538 24.7535 4.00538 24.8786C4.46644 25.3786 4.69697 25.8787 5.158 26.3788C5.38853 26.7538 5.3885 26.7538 6.08009 26.5038C6.31059 26.3788 6.54111 26.3788 6.54111 26.3788C7.23267 27.2539 8.61582 27.0039 9.53791 27.3789C11.1516 28.004 12.7652 28.004 14.3789 27.754C15.762 27.5039 17.1451 27.3789 18.5283 27.2539C18.9893 27.2539 19.2198 27.1289 19.6809 27.0039C20.3724 25.8787 21.064 24.8786 22.2166 24.1285C22.6777 23.7534 22.9082 23.2533 22.9082 22.7533C22.6777 21.6281 22.9082 20.628 23.3692 19.6278C23.5998 18.6277 23.3692 17.6275 22.2166 17.0024C21.5251 16.7524 21.2946 16.3773 21.2946 15.8773C21.2946 15.5022 21.2945 15.0022 21.064 14.6271C20.8335 14.127 21.064 13.877 21.2946 13.5019C21.5251 13.3769 21.5251 13.1269 21.7556 12.8768C22.2167 12.6268 22.6777 12.8768 22.9082 12.8768C24.0608 13.1269 24.9829 12.8768 25.905 12.2518C26.366 11.8767 27.0576 11.3766 27.5187 11.0016C27.7492 10.8766 27.9797 10.5015 27.7492 10.3765C27.5186 9.62637 27.9797 9.12631 28.4407 8.50121C28.6712 8.00114 29.3628 7.87612 30.0544 8.00115C30.746 8.12616 31.207 8.3762 31.6681 8.62623C32.8207 9.25132 34.2038 9.87641 35.5869 10.2515C36.509 10.5015 37.4311 10.7515 38.3532 10.7515C41.811 10.8766 45.2689 11.0016 48.7267 10.7515C49.1877 10.7515 49.8793 10.6265 50.1098 10.2515C50.3404 9.87641 50.8014 9.62638 51.493 9.62638C53.5677 9.62638 55.4118 9.62638 57.4866 9.50135C58.4086 9.50135 59.3307 9.62638 60.2528 9.37634C60.7138 9.25132 60.9443 9.00128 61.1749 8.75125C61.4054 8.12616 61.4054 7.50107 61.1749 7.00099C60.7138 6.37591 61.1749 5.87584 61.1749 5.25076C61.8664 3.87556 61.8665 2.50036 61.8665 1.12516C61.8665 0.500071 62.3275 -4.83835e-06 63.2496 -4.77773e-06L63.4801 -4.76257e-06C66.2464 -4.5807e-06 69.0126 -4.39883e-06 71.7789 -4.21695e-06C73.3926 -4.11086e-06 74.7757 0.250042 75.9283 1.00015C76.3894 1.25018 76.8504 1.50022 77.3114 1.62523C78.003 1.87527 78.9251 2.1253 79.6167 2.50035C80.3082 2.87541 80.7693 3.37548 81.4609 3.75054C82.1524 4.25061 82.844 4.50065 83.7661 4.50065C86.3018 4.50065 88.607 4.50065 91.1428 4.62567C93.6785 4.62567 96.4448 4.62567 98.9805 4.62567C100.594 4.62567 102.208 4.62567 103.591 4.12559C104.283 3.87556 105.205 3.87555 106.127 3.87555C107.51 3.87556 109.124 3.87556 110.507 3.87556C112.351 4.00057 114.195 3.87556 116.27 3.87556C117.883 3.87556 119.728 3.87556 121.341 3.87556C125.721 3.87556 130.101 4.00058 134.711 4.00058C136.556 4.00058 138.4 3.87556 140.475 3.87556C141.397 3.87556 142.319 3.87556 143.241 3.87556C145.085 3.87556 146.929 4.00057 148.543 3.87556C149.234 3.87556 149.926 3.75054 150.387 3.87556C153.845 4.00057 157.072 3.87556 160.53 3.87556C163.296 3.87556 166.293 3.87556 169.059 3.87556C171.134 3.87556 172.978 3.87556 175.053 3.87556C178.05 4.00057 181.046 4.00058 184.274 4.00058C185.196 4.00058 185.887 4.00058 186.81 4.00058C187.962 4.00058 188.884 4.00058 190.037 4.1256C191.65 4.25062 193.264 4.37564 194.647 4.37564C196.953 4.37564 199.027 4.25061 201.332 4.37564C206.865 4.37564 212.398 4.50065 217.7 4.50065C219.083 4.50065 220.466 4.50065 221.849 4.50065C221.618 4.75068 221.388 4.87571 220.927 5.00072C220.927 5.12575 220.927 5.25077 221.388 5.25077C222.54 5.25077 223.463 5.37578 224.615 5.37578C227.842 5.37578 230.839 5.37578 234.067 5.5008C237.294 5.62582 240.291 5.5008 243.518 5.5008C245.823 5.5008 247.898 5.5008 250.203 5.62582C250.895 5.62582 251.356 5.62582 252.047 5.37579C253.2 5.00073 254.353 5.00073 255.505 5.25077C256.427 5.37579 257.119 5.5008 258.041 5.62582C258.963 5.75083 259.885 5.5008 260.577 6.25091C261.038 6.25091 261.499 6.37592 261.729 6.37592C262.19 6.37592 262.651 6.25091 262.882 6.12589C263.804 6.00087 264.496 5.87585 265.418 5.75083C265.879 5.75083 266.57 5.75084 266.801 6.00087C267.031 6.12589 266.34 6.37592 265.418 6.37592C265.187 6.37592 264.957 6.37592 264.726 6.37592C264.726 6.37592 264.496 6.37593 264.496 6.50095C264.265 6.62596 264.496 6.75098 264.726 6.75098C265.418 6.75098 266.109 6.75098 267.031 6.75098C267.262 6.75098 267.723 6.62596 267.953 6.50095C268.414 6.12589 268.645 6.00087 269.336 6.25091C269.798 6.37592 270.259 6.37592 270.489 6.37592C272.794 6.37592 274.869 6.37592 277.174 6.25091C277.635 6.25091 277.866 6.00087 278.096 5.75083C278.327 5.37578 278.557 5.5008 279.018 5.87586C279.479 6.25091 279.479 6.25091 280.402 6.00087L280.632 5.87586C280.863 6.25091 281.093 6.25091 281.554 6.25091C281.785 6.25091 281.785 6.12589 282.015 6.00087L281.785 5.87586C281.324 5.75084 281.093 5.75084 280.632 5.87586C281.785 5.5008 283.168 5.37579 284.32 5.5008C284.551 5.5008 284.781 5.75083 285.012 5.75083C284.781 5.75083 284.32 5.75083 284.09 5.75083L283.859 5.87586C283.859 6.00088 284.09 6.12589 284.32 6.12589C284.551 6.12589 284.781 6.00087 285.012 5.75083C285.473 5.75083 285.934 5.87586 286.165 5.87586C288.009 5.87586 289.853 6.12589 291.697 6.37593C291.928 6.37593 292.158 6.50095 292.158 6.62596C292.158 6.75099 291.928 6.75098 291.697 6.87599L291.697 7.00101C294.002 7.12603 296.077 7.12604 298.382 7.25106C298.843 7.25106 299.304 7.37607 299.996 7.50109C302.071 7.75112 304.145 8.12618 306.22 7.87615C307.142 7.75113 307.603 8.00116 307.834 8.62625C308.064 9.00131 308.525 9.25134 309.217 9.25134C310.6 9.25134 312.214 9.25134 313.366 8.50123C314.058 8.2512 314.288 8.25119 314.519 8.25119C314.749 8.25119 314.749 8.37622 314.98 8.50123C314.98 8.50123 315.21 8.50124 315.21 8.37622C315.21 8.12619 314.749 8.25119 314.519 8.25119ZM32.8206 79.7614C32.8206 79.8864 33.0511 80.0114 33.0511 80.1365C33.0511 80.1365 33.2817 80.1365 33.5122 80.1365C33.5122 80.0114 33.2817 79.8864 33.2817 79.8864C33.0512 79.7614 32.8206 79.8864 32.8206 79.7614ZM56.1034 78.8863C55.6423 78.8863 54.9508 78.8863 54.7203 78.2612C54.7203 78.0112 54.4897 77.8861 54.2592 77.6361C53.5676 77.136 52.1845 77.3861 51.954 78.0112C51.7235 78.2612 51.7235 78.6363 51.493 78.8863C51.2624 79.3864 51.7235 80.1365 52.415 80.1365C53.5677 80.2615 54.9508 80.3865 56.1034 80.1365C56.795 80.0114 57.0255 79.6364 56.5644 79.0113C56.3339 79.1363 56.1034 79.0113 56.1034 78.8863ZM291.236 9.87643C291.006 9.50138 290.545 9.25134 290.314 8.87628C290.083 8.75126 289.622 8.75127 289.622 9.00131C289.392 9.50138 289.161 9.6264 288.47 9.6264C287.778 9.50138 287.317 9.37635 286.626 9.37635C286.395 9.37635 285.934 9.62639 285.934 9.75141C285.934 9.87643 286.165 10.1265 286.165 10.1265C287.548 10.2515 288.931 10.3765 290.083 10.1265C290.775 10.1265 291.006 9.87643 291.236 9.87643C291.467 9.87643 291.928 10.2515 292.389 10.1265C293.541 10.0014 294.694 10.1265 295.847 10.2515C296.999 10.3765 298.382 10.5015 299.535 10.2515C299.765 10.2515 299.996 10.0014 299.996 9.87643C299.996 9.25134 299.535 8.62625 298.843 8.50123C298.382 8.37622 297.921 8.37621 297.691 8.25119C296.308 8.25119 294.694 8.25119 293.311 8.25119C292.85 8.25119 292.619 8.50123 292.158 8.75127C291.697 9.12632 291.467 9.50138 291.236 9.87643ZM47.3435 78.2612C47.5741 78.2612 47.5741 78.2612 47.8046 78.2612C48.0351 78.8863 48.4962 79.5114 48.9572 80.0114C48.9572 80.1365 49.1877 80.1365 49.1877 80.1365C49.4182 80.1365 49.6487 80.2615 49.6487 80.1365C49.8793 80.0114 49.8793 79.8864 49.8793 79.7614C49.6488 79.0113 48.7267 78.8863 48.4962 78.2612C48.7267 78.2612 48.9572 78.2612 49.1877 78.1362C49.6488 78.0112 49.6488 78.0112 49.4182 77.6361C49.4182 77.5111 49.1877 77.3861 49.1877 77.2611C49.4182 77.2611 49.4182 77.136 49.6487 77.136C49.4182 77.2611 49.4182 77.2611 49.1877 77.3861C48.4962 77.3861 47.8046 77.3861 47.113 77.3861C45.7299 76.761 44.3467 76.886 42.7331 76.886C41.811 76.886 40.8889 76.761 39.9668 77.2611C39.5058 77.6361 39.5058 78.3862 39.2753 78.8863C39.0447 79.1363 39.0448 79.3864 39.0448 79.6364C38.8142 80.0114 39.0447 80.3865 39.2753 80.7616C39.5058 81.3866 39.5058 81.3866 39.9668 81.2616C40.4279 81.2616 40.6584 81.0116 41.1194 81.0116C41.5805 81.0116 42.0415 81.2616 42.5026 81.2616C45.0383 81.5117 47.8046 81.3866 50.3403 81.2616L50.5709 81.1366C50.3403 81.0116 50.3404 80.8866 50.1098 80.8866C49.1877 80.8866 48.0351 80.7616 46.8825 80.7616C47.113 80.3865 47.8046 80.3865 47.5741 79.7614C47.5741 79.2613 47.5741 78.7613 47.3435 78.2612ZM128.487 89.2628C128.487 89.6378 128.257 89.8879 127.796 89.8879C124.569 89.8879 121.572 90.0129 118.344 90.0129C117.883 90.0129 117.192 90.0129 116.731 89.8879C116.5 89.8879 116.27 89.7628 116.27 89.6378C115.809 89.1378 115.578 89.2628 114.887 89.5128C114.426 89.6378 113.964 89.1378 113.503 89.3878C113.042 89.5128 112.581 89.7628 112.12 89.7628C111.659 89.8879 111.198 89.8879 110.968 89.8879C110.276 89.8879 109.585 89.8879 108.893 89.7628C108.662 89.6378 108.662 89.5128 108.662 89.2628C108.432 88.7627 107.971 88.7627 107.51 89.1378C107.279 89.3878 107.279 89.5128 107.049 89.7628C104.283 90.0129 101.747 90.1379 99.2111 89.7628C98.0584 89.6378 97.1364 89.8879 96.2143 90.1379C95.9837 90.1379 95.9837 90.3879 95.9837 90.513C95.9837 90.763 95.9837 90.888 96.2143 90.888C97.1364 91.013 98.289 91.138 99.4416 91.013C101.516 90.638 103.822 90.3879 105.896 90.763C106.127 90.763 106.357 90.763 106.588 90.763C108.432 90.638 110.276 90.763 112.12 90.888C116.961 91.013 121.802 91.013 126.643 91.013C128.257 91.013 130.101 91.013 131.715 90.888C132.406 90.888 133.098 90.763 133.789 90.3879C133.789 90.3879 134.02 90.2629 134.02 90.1379C134.02 90.1379 134.02 90.0129 133.789 90.0129C133.098 89.8879 132.406 89.7628 131.715 89.6378C131.715 89.5128 131.715 89.3878 131.715 89.0127C130.101 89.5128 129.409 89.1378 128.487 89.2628ZM211.014 10.1265C211.014 10.0014 211.014 10.0014 211.014 9.87642C208.479 9.87642 205.712 9.87642 203.177 9.87642C196.03 9.87642 189.115 9.75141 181.969 9.75141C174.592 9.75141 167.215 9.62639 159.838 9.62639C156.611 9.62639 153.384 9.62639 149.926 9.62639C147.39 9.62639 144.624 9.62639 142.088 9.62639C141.397 9.62639 140.936 9.62638 140.244 9.50136C140.013 9.50136 140.013 9.25133 139.783 9.12631C139.091 8.62624 138.63 8.75126 138.169 9.37634C137.939 9.7514 137.708 9.87642 137.247 10.0014C137.017 10.1264 136.786 10.2515 136.325 10.3765C137.247 10.8766 138.169 10.5015 139.091 10.8766C138.169 11.0016 137.247 11.1266 136.556 11.2516C136.556 11.2516 136.556 11.3766 136.556 11.5017C139.091 11.8767 141.397 11.5017 143.702 10.8766C143.702 10.7515 143.702 10.7515 143.702 10.6265C143.471 10.5015 143.702 10.2515 143.932 10.2515C146.238 10.0014 148.773 10.2515 151.079 10.1265C153.153 10.0014 155.228 10.1265 157.303 10.1265C161.222 10.0014 165.371 10.2515 169.29 10.1265C172.748 10.0014 175.975 10.1265 179.433 10.0014C184.965 10.0014 190.498 10.0014 196.261 10.0014C201.102 10.0014 206.173 10.1265 211.014 10.1265ZM355.091 27.3789C354.86 27.1289 354.399 27.0039 354.399 26.8789C354.63 26.2538 354.169 26.1288 353.708 26.1288C350.941 26.0037 348.175 26.0037 345.178 25.8787C344.948 25.8787 344.717 25.8787 344.487 26.0037C344.026 26.2538 343.795 26.6288 344.026 27.1289C344.026 27.3789 344.256 27.754 344.717 27.879C346.561 28.2541 348.406 28.7541 350.25 28.2541C350.711 28.1291 351.172 28.2541 351.402 28.2541C351.863 28.2541 352.555 28.2541 353.016 28.129C353.938 27.754 354.399 27.629 355.091 27.3789ZM131.945 10.0014L131.715 9.87642C130.562 9.7514 129.64 9.7514 128.487 9.7514C128.257 9.7514 127.796 9.7514 127.565 9.7514C127.104 9.7514 126.643 9.87642 126.413 9.87642C126.182 9.87642 125.721 10.2515 125.952 10.3765C126.182 10.7515 126.413 11.2516 126.874 11.6267C127.335 11.8767 127.796 11.7517 128.487 11.8767C129.871 11.8767 131.023 11.8767 132.176 11.5017C132.406 11.5017 132.637 11.3766 132.637 11.2516C132.637 11.1266 132.406 11.0016 132.406 10.8766C132.176 10.7515 131.945 10.7515 131.945 10.6265C131.484 10.2515 131.945 10.2515 131.945 10.0014ZM342.182 24.8786C342.643 25.1286 343.334 25.1286 344.026 25.1286C347.945 25.1286 352.094 25.1286 356.013 25.1286C356.013 25.1286 356.243 25.1286 356.243 25.0036L356.243 24.8786C356.013 24.7536 355.782 24.6285 355.321 24.6285C351.402 24.6285 347.253 24.6285 343.334 24.6285C342.873 24.6285 342.643 24.7536 342.182 24.7536C342.182 24.6285 342.182 24.7536 342.182 24.8786ZM270.72 88.1376C272.794 88.1376 274.638 88.2626 276.713 88.3877C279.018 88.5127 281.324 88.3877 283.629 88.3877C283.859 88.3877 284.32 88.1376 284.09 88.0126C283.859 87.8876 283.859 87.7626 283.629 87.7626C279.249 87.6376 275.1 87.8876 270.72 88.1376ZM140.475 89.5128C139.091 88.7627 137.708 89.0127 136.556 89.3878L136.325 89.5128C136.325 90.0129 136.325 90.513 136.556 90.888L136.786 91.013C137.478 91.138 138.169 91.138 138.861 90.888C139.091 90.763 139.322 90.513 139.091 90.2629C138.861 90.0129 139.091 89.8879 139.322 89.7628C140.014 89.7628 140.244 89.6378 140.475 89.5128ZM120.65 7.001C122.955 7.12602 125.26 7.12603 127.565 7.25104C128.026 7.25104 128.487 7.25104 128.718 7.25104C129.409 7.25104 129.871 7.00101 129.64 6.87598C129.409 6.50093 128.948 6.50094 128.487 6.50094C128.026 6.50094 127.335 6.37592 126.874 6.50094C125.03 6.87599 122.724 6.75097 120.65 7.001ZM64.6327 1.75025C64.4022 2.00029 63.9412 2.00029 63.9412 2.25032C63.7106 2.62538 63.4801 3.12545 63.4801 3.62552C63.4801 4.12559 63.7106 4.75067 64.1717 5.12573C65.5548 4.12559 65.3243 3.00043 64.6327 1.75025ZM355.091 68.2598C354.86 68.2598 354.63 68.2598 354.399 68.2598C353.938 68.2598 353.708 68.6348 353.708 68.8849C353.708 69.1349 353.938 69.3849 354.169 69.51C354.63 69.76 355.321 69.885 356.013 69.635C356.243 69.51 356.474 69.2599 356.474 69.0099C356.013 68.5098 355.782 68.2598 355.091 68.2598ZM304.606 89.1378C300.688 88.7627 300.688 88.7627 299.304 89.2628C301.149 89.3878 302.993 89.3878 304.606 89.1378ZM55.1813 64.3842C55.4118 64.3842 55.6423 64.3842 56.1034 64.2592C56.5644 64.1342 56.795 64.0092 57.256 63.7591C57.4865 63.6341 57.4865 63.2591 57.256 63.134C56.3339 62.634 54.9508 62.884 54.7203 63.6341C54.7203 63.7591 54.7202 64.0092 54.9508 64.0092C54.7202 64.2592 54.9508 64.2592 55.1813 64.3842ZM101.286 5.12573C99.9026 4.62566 98.289 4.75068 96.9058 4.8757C96.6753 4.8757 96.4448 5.00071 96.9058 5.12573C98.0585 5.12573 99.6721 5.12573 101.286 5.12573ZM104.744 7.001C105.435 7.12602 105.896 7.25104 106.588 7.37606C107.279 7.37606 107.74 7.25104 108.432 7.25104L108.662 7.12603C108.662 7.00101 108.432 6.75097 108.201 6.75097C107.74 6.62595 107.279 6.62595 107.049 6.75097C106.127 6.62595 105.435 6.87598 104.744 7.001ZM246.284 6.37592C245.593 6.12588 245.132 6.25091 244.44 6.25091C243.749 6.25091 243.057 6.37592 242.365 6.37592L242.135 6.50095C242.135 6.62596 242.365 6.62596 242.365 6.62596C243.518 6.75098 244.671 6.75098 245.823 6.62596C245.823 6.50095 246.054 6.37592 246.284 6.37592ZM89.5291 5.00071C90.4512 5.25075 91.1428 5.12573 92.0649 5.12573C92.5259 5.12573 92.987 5.25075 93.2175 4.8757C91.6038 4.62566 91.6038 4.62566 89.5291 5.00071ZM304.606 10.0014C305.298 10.1265 305.759 10.2515 306.451 10.2515C306.681 10.2515 307.142 10.1265 307.373 10.0014C307.603 9.87643 307.603 9.75142 307.603 9.6264L307.373 9.50137L307.142 9.50137C306.451 9.62639 305.759 9.75141 305.067 9.87643C304.837 9.87643 304.837 9.87643 304.606 10.0014ZM42.7331 73.3855C42.9636 73.3855 43.4247 73.3855 43.6552 73.2605L43.8857 73.1355C43.8857 73.0104 43.6552 72.8854 43.6552 72.7604C42.9636 72.6354 42.272 72.5104 41.5805 72.5104C41.5805 72.5104 41.35 72.6354 41.1194 72.7604C41.1194 73.0104 41.1194 73.0104 41.35 73.1355C42.0415 73.2605 42.5026 73.3855 42.7331 73.3855ZM324.201 86.2624C323.509 86.2624 323.048 86.2624 322.587 86.2624C322.587 86.2624 322.357 86.5124 322.357 86.6374L322.587 86.7624C323.509 86.7624 324.201 86.7624 325.123 86.7624C325.123 86.7624 325.353 86.6374 325.353 86.5124L325.123 86.3874C324.662 86.3874 324.201 86.2624 324.201 86.2624ZM210.553 69.51C209.862 69.51 209.631 69.3849 209.17 69.3849C208.709 69.3849 208.248 69.2599 207.787 69.635C208.709 69.76 209.631 69.885 210.553 69.51ZM266.34 88.3877C267.031 88.3877 267.492 88.3877 267.953 88.2626C268.184 88.2626 268.184 88.1376 268.184 88.0126L267.953 87.8876C267.031 87.8876 266.34 87.8876 265.418 87.8876L265.187 88.0126C265.187 88.0126 265.187 88.1376 265.418 88.1376C265.879 88.2626 266.109 88.2626 266.34 88.3877ZM260.346 9.6264C260.346 9.50137 260.346 9.50137 260.346 9.37635C259.655 9.37635 258.963 9.25134 258.271 9.25134L258.041 9.37635C258.041 9.50137 258.271 9.50137 258.271 9.50137C258.732 9.62639 259.655 9.6264 260.346 9.6264ZM216.777 5.00072C217.238 5.12575 217.93 5.25076 218.391 5.12574L218.622 5.00072C218.622 5.00072 218.622 4.87571 218.391 4.87571C217.93 4.62567 217.238 4.75069 216.777 5.00072ZM159.147 69.635C158.686 69.3849 158.225 69.3849 157.764 69.51L157.533 69.635L157.764 69.76C158.225 69.885 158.686 69.885 159.147 69.635ZM54.2592 74.1356C53.7982 74.0106 53.3371 74.0106 53.1066 73.8856C52.8761 73.8856 52.8761 74.0106 52.6455 74.0106C52.8761 74.1356 53.1066 74.1356 53.1066 74.1356C53.3371 74.2606 53.5676 74.2606 54.2592 74.1356ZM129.409 9.0013C128.948 8.75126 128.487 8.87627 127.796 8.87627C127.796 8.87627 127.796 9.0013 127.565 9.0013L127.796 9.12631C128.487 9.25133 128.948 9.25133 129.409 9.0013ZM124.107 69.635L123.877 69.5099C123.646 69.5099 123.416 69.5099 122.955 69.5099L122.724 69.635C122.724 69.76 123.416 69.885 123.877 69.76C124.107 69.76 124.107 69.635 124.107 69.635ZM351.402 30.2544C351.172 30.2544 350.941 30.2544 351.172 30.3794C351.172 30.5044 351.402 30.3794 351.402 30.2544C351.402 30.3794 351.633 30.3794 351.633 30.2544C351.633 30.3794 351.402 30.3794 351.402 30.2544ZM219.313 9.87642C219.083 9.87642 218.852 9.87642 218.622 9.87642L218.622 10.0014L218.852 10.0014L219.083 10.0014C219.313 10.0014 219.313 10.0014 219.313 9.87642ZM291.006 85.5123C290.775 85.5123 290.545 85.5123 290.545 85.5123C290.545 85.5123 290.314 85.5123 290.314 85.6373C290.545 85.6373 290.775 85.6373 291.006 85.5123C291.006 85.6373 291.006 85.5123 291.006 85.5123ZM46.652 19.0027L46.652 18.8777C46.4215 18.7527 45.9604 18.7527 45.9604 19.0027L46.1909 19.1277C46.1909 19.0027 46.4215 19.0027 46.652 19.0027ZM150.848 8.87628L150.848 9.0013L151.079 9.0013L151.079 8.87628C150.848 8.87628 150.848 8.87628 150.848 8.87628ZM287.778 85.6373L288.009 85.5122L287.778 85.3872C287.548 85.3872 287.317 85.3872 287.548 85.6373C287.548 85.6373 287.548 85.6373 287.778 85.6373ZM319.129 86.5124C319.36 86.5124 319.36 86.5124 319.59 86.5124C319.59 86.5124 319.59 86.3874 319.36 86.3874C319.36 86.5124 319.129 86.5124 319.129 86.5124ZM222.771 10.0014L223.002 10.1265C223.002 10.1265 223.232 10.1265 223.232 10.0014L223.002 9.87642L222.771 10.0014ZM314.519 84.6371L314.288 84.5121L314.288 84.6371L314.519 84.6371ZM270.259 9.25134C270.259 9.25134 270.489 9.12632 270.259 9.12632L270.028 9.00131C269.798 9.00131 269.798 9.12632 270.259 9.25134C270.028 9.25134 270.028 9.25134 270.259 9.25134ZM356.935 26.8789L356.935 27.0039L356.935 26.8789ZM338.724 24.8786L338.493 25.0036L338.724 24.8786ZM327.198 86.6374C327.428 86.6374 327.659 86.5124 327.428 86.3874L327.198 86.3874C327.198 86.5124 327.198 86.6374 327.198 86.6374ZM307.834 84.5121L307.603 84.6371L307.834 84.7621L307.834 84.5121ZM286.626 88.0126C286.626 88.0126 286.626 87.8876 286.395 87.8876C286.165 87.8876 286.165 88.0126 285.934 88.0126C285.934 88.0126 285.934 88.1376 286.165 88.1376C286.395 88.2626 286.395 88.2626 286.626 88.0126ZM268.875 10.0014L268.875 9.87643L268.645 9.87643C268.184 9.87643 268.414 10.0014 268.875 10.0014C268.645 10.1265 268.645 10.0014 268.875 10.0014ZM261.499 88.1376L261.499 88.0126L261.268 88.0126L261.499 88.1376ZM212.628 69.51L212.628 69.635L212.628 69.51ZM206.865 70.5101L206.865 70.6351L206.865 70.5101ZM146.238 11.0016L146.007 11.0016L146.238 11.0016ZM131.484 9.12631C131.715 9.12631 131.715 9.0013 131.484 9.12631C131.715 9.0013 131.484 8.87627 131.484 8.87627C131.254 8.87627 131.254 8.87627 131.484 9.12631C131.254 9.12631 131.484 9.12631 131.484 9.12631ZM92.2954 64.1342L92.5259 64.2592L92.7564 64.1342C92.7564 63.8841 92.7564 63.8841 92.5259 63.8841C92.2954 64.0092 92.2954 64.1342 92.2954 64.1342ZM67.6295 2.62537L67.6295 2.50035L67.6295 2.62537ZM57.256 81.1366L57.0255 81.0116C57.0255 81.0116 56.795 81.0116 56.795 81.1366L57.0255 81.2616C57.0255 81.1366 57.0255 81.1366 57.256 81.1366ZM54.2592 81.2616L54.4897 81.1366L54.2592 81.0116C54.0287 81.0116 53.7982 81.0116 54.0287 81.2616C54.0287 81.1366 54.2592 81.1366 54.2592 81.2616ZM212.859 10.1265L213.089 10.0014L212.859 10.0014L212.859 10.1265ZM284.551 9.6264L284.781 9.50137C284.781 9.50137 284.781 9.37635 284.551 9.37635L284.32 9.50137C284.32 9.50137 284.551 9.50138 284.551 9.6264Z" fill="#FE3B3B"/>
            <path class="yellow-4" d="M109.39 54.3123C107.661 54.3123 106.297 53.7836 105.297 52.7263C104.297 51.669 103.797 50.2133 103.797 48.3591C103.797 46.505 104.297 45.0518 105.297 43.9998C106.297 42.9425 107.661 42.4138 109.39 42.4138C110.333 42.4138 111.192 42.6091 111.969 42.9998C112.745 43.3852 113.364 43.9242 113.828 44.6169C114.297 45.3044 114.56 46.0805 114.617 46.9451H111.414C111.32 46.393 111.088 45.9529 110.719 45.6248C110.354 45.2966 109.911 45.1326 109.39 45.1326C108.708 45.1326 108.166 45.419 107.765 45.9919C107.37 46.5649 107.172 47.3513 107.172 48.3513C107.172 49.3669 107.37 50.1612 107.765 50.7341C108.161 51.307 108.705 51.5935 109.398 51.5935C109.924 51.5935 110.37 51.4294 110.734 51.1013C111.099 50.7732 111.33 50.3279 111.429 49.7654H114.633C114.544 51.1091 114.013 52.2029 113.039 53.0466C112.07 53.8904 110.854 54.3123 109.39 54.3123ZM122.414 48.0154L126.844 53.9998H122.883L119.594 49.5701H119.531V53.9998H116.219V42.7263H119.531V47.0857H119.594L123.078 42.7263H126.633L122.414 48.0154ZM135.265 53.9998L134.679 51.7576H131.242L130.656 53.9998H127.281L130.961 42.7263H135.117L138.797 53.9998H135.265ZM132.929 45.3279L131.844 49.4216H134.078L132.992 45.3279H132.929ZM149.39 53.9998H146.078V49.6482H146.015C145.317 50.1534 144.432 50.406 143.359 50.406C142.109 50.406 141.101 50.0232 140.336 49.2576C139.57 48.4919 139.187 47.4711 139.187 46.1951V42.7263H142.5V45.8279C142.5 46.4216 142.653 46.8748 142.961 47.1873C143.268 47.4998 143.713 47.656 144.297 47.656C145.166 47.656 145.76 47.3565 146.078 46.7576V42.7263H149.39V53.9998ZM158.719 53.9998L158.133 51.7576H154.695L154.109 53.9998H150.734L154.414 42.7263H158.57L162.25 53.9998H158.719ZM156.383 45.3279L155.297 49.4216H157.531L156.445 45.3279H156.383ZM168.179 53.9998H164.867V45.3591H161.898V42.7263H171.148V45.3591H168.179V53.9998ZM172.859 53.9998V42.7263H176.172V46.1169H177.781C179.104 46.1169 180.172 46.4763 180.984 47.1951C181.797 47.9086 182.203 48.8591 182.203 50.0466C182.203 51.2498 181.817 52.2107 181.047 52.9294C180.281 53.643 179.268 53.9998 178.008 53.9998H172.859ZM176.172 51.4998H177.125C177.666 51.4998 178.086 51.3774 178.383 51.1326C178.679 50.8826 178.828 50.518 178.828 50.0388C178.828 49.5597 178.677 49.1951 178.375 48.9451C178.073 48.6951 177.648 48.5701 177.101 48.5701H176.172V51.4998ZM197.265 53.9998H193.953V45.3513H190.062V53.9998H186.75V42.7263H197.265V53.9998ZM199.156 42.7263H204.304C205.565 42.7263 206.578 43.0987 207.344 43.8435C208.114 44.5883 208.5 45.5857 208.5 46.8357C208.5 48.0701 208.094 49.0597 207.281 49.8044C206.469 50.5492 205.401 50.9216 204.078 50.9216H202.469V53.9998H199.156V42.7263ZM202.469 45.2185V48.4763H203.398C203.955 48.4763 204.388 48.3383 204.695 48.0623C205.002 47.781 205.156 47.3748 205.156 46.8435C205.156 46.3175 205.002 45.9164 204.695 45.6404C204.393 45.3591 203.969 45.2185 203.422 45.2185H202.469ZM217.953 51.3669V53.9998H210V42.7263H217.953V45.3591H213.312V47.1794H217.664V49.5544H213.312V51.3669H217.953ZM222.859 49.4529V47.031H224.32C224.768 47.031 225.122 46.9347 225.383 46.7419C225.643 46.544 225.773 46.2758 225.773 45.9373C225.773 45.5935 225.64 45.3253 225.375 45.1326C225.109 44.9347 224.745 44.8357 224.281 44.8357C223.812 44.8357 223.432 44.9581 223.14 45.2029C222.854 45.4477 222.711 45.768 222.711 46.1638H219.719C219.729 45.018 220.151 44.1065 220.984 43.4294C221.823 42.7524 222.945 42.4138 224.351 42.4138C225.711 42.4138 226.799 42.6977 227.617 43.2654C228.44 43.8279 228.851 44.5753 228.851 45.5076C228.851 46.1586 228.653 46.7159 228.258 47.1794C227.862 47.643 227.341 47.932 226.695 48.0466V48.1091C227.466 48.182 228.083 48.4659 228.547 48.9607C229.01 49.4503 229.242 50.0675 229.242 50.8123C229.242 51.8539 228.784 52.6977 227.867 53.3435C226.95 53.9893 225.75 54.3123 224.265 54.3123C222.875 54.3123 221.747 53.9685 220.883 53.281C220.023 52.5935 219.567 51.6768 219.515 50.531H222.672C222.677 50.9112 222.828 51.2107 223.125 51.4294C223.422 51.643 223.825 51.7498 224.336 51.7498C224.789 51.7498 225.153 51.6378 225.429 51.4138C225.705 51.1899 225.844 50.8956 225.844 50.531C225.844 50.1925 225.705 49.9294 225.429 49.7419C225.159 49.5492 224.784 49.4529 224.304 49.4529H222.859ZM238.609 51.3669V53.9998H230.656V42.7263H238.609V45.3591H233.969V47.1794H238.32V49.5544H233.969V51.3669H238.609ZM251.078 53.9998H247.765V49.6404H243.797V53.9998H240.484V42.7263H243.797V47.0076H247.765V42.7263H251.078V53.9998ZM258.992 53.9998H255.679V45.3591H252.711V42.7263H261.961V45.3591H258.992V53.9998ZM269.844 53.9998L269.258 51.7576H265.82L265.234 53.9998H261.859L265.539 42.7263H269.695L273.375 53.9998H269.844ZM267.508 45.3279L266.422 49.4216H268.656L267.57 45.3279H267.508ZM286.64 56.2263H283.672V53.9998H274.719V42.7263H278.031V51.3748H281.922V42.7263H285.234V51.3748H286.64V56.2263ZM295.187 53.9998V47.7263H295.125L290.984 53.9998H287.828V42.7263H291.14V48.9998H291.203L295.344 42.7263H298.5V53.9998H295.187ZM310.601 54.3123C309.101 54.3123 307.864 53.9008 306.89 53.0779C305.916 52.2498 305.317 51.1013 305.094 49.6326H303.875V53.9998H300.562V42.7263H303.875V47.0076H305.109C305.349 45.5701 305.953 44.4451 306.922 43.6326C307.896 42.8201 309.122 42.4138 310.601 42.4138C312.31 42.4138 313.669 42.9477 314.679 44.0154C315.69 45.0779 316.195 46.5258 316.195 48.3591C316.195 50.1977 315.69 51.6508 314.679 52.7185C313.669 53.781 312.31 54.3123 310.601 54.3123ZM310.586 45.1169C309.919 45.1169 309.377 45.4138 308.961 46.0076C308.549 46.5961 308.344 47.38 308.344 48.3591C308.344 49.3435 308.549 50.1326 308.961 50.7263C309.377 51.3149 309.919 51.6091 310.586 51.6091C311.247 51.6091 311.784 51.3149 312.195 50.7263C312.612 50.1326 312.82 49.3435 312.82 48.3591C312.82 47.38 312.612 46.5961 312.195 46.0076C311.784 45.4138 311.247 45.1169 310.586 45.1169Z" fill="white"/>
            <path class="arrow-1" fill="none" d="M67.6415 53.2646L72.0026 57.6257L76.3636 53.2646" stroke="white" stroke-width="2" stroke-linecap="round" stroke-linejoin="round"/>
            <path class="arrow-2" fill="none" d="M72.0026 47.8132V57.6257" stroke="white" stroke-width="2" stroke-linecap="round" stroke-linejoin="round"/>
            <path fill="none" d="M81.6841 54.4529C82.632 53.7864 83.3428 52.8351 83.7134 51.7372C84.084 50.6393 84.0952 49.4519 83.7452 48.3472C83.3952 47.2426 82.7023 46.2782 81.7671 45.594C80.8318 44.9098 79.7029 44.5415 78.5441 44.5424H77.1704C76.8425 43.2644 76.2289 42.0775 75.3759 41.071C74.5229 40.0645 73.4527 39.2646 72.2459 38.7316C71.039 38.1986 69.7269 37.9463 68.4085 37.9937C67.09 38.0411 65.7994 38.387 64.634 39.0053C63.4685 39.6237 62.4585 40.4984 61.68 41.5636C60.9015 42.6287 60.3748 43.8566 60.1396 45.1548C59.9043 46.453 59.9666 47.7877 60.3218 49.0583C60.6769 50.3289 61.3157 51.5024 62.1901 52.4904" stroke="white" stroke-width="2" stroke-linecap="round" stroke-linejoin="round"/>  
	    </g>
    </symbol>

    <symbol id="sbtn" viewBox="0 0 28 28">
            <g>
                <path fill-rule="evenodd" clip-rule="evenodd" d="M23.916 4.07128C21.2891 1.44357 17.7866 0 14.0568 0C6.3767 0 0.120315 6.22666 0.113631 13.8703C0.113631 16.3184 0.755311 18.6999 1.97183 20.8087L0 28L7.39269 26.0708C9.43136 27.1751 11.724 27.7605 14.0568 27.7605H14.0635C21.7436 27.7605 28 21.5339 28.0067 13.8836C28 10.1782 26.5495 6.69233 23.916 4.07128ZM14.0568 25.4122C11.9713 25.4122 9.93268 24.8534 8.15469 23.8023L7.73358 23.5495L3.34877 24.6938L4.5185 20.4362L4.24445 19.9972C3.0814 18.1611 2.47314 16.039 2.47314 13.8636C2.47314 7.51722 7.67343 2.34165 14.0635 2.34165C17.1583 2.34165 20.0659 3.54574 22.2583 5.72107C24.444 7.90307 25.6472 10.7969 25.6472 13.8769C25.6405 20.2433 20.4402 25.4122 14.0568 25.4122ZM20.4135 16.7774C20.0659 16.6044 18.3547 15.7662 18.0339 15.6465C17.713 15.5334 17.4791 15.4735 17.2518 15.8194C17.0179 16.1654 16.3495 16.9503 16.149 17.1765C15.9484 17.4094 15.7412 17.436 15.3936 17.263C15.0461 17.09 13.9231 16.7242 12.593 15.54C11.5569 14.622 10.8618 13.4844 10.6546 13.1385C10.454 12.7926 10.6345 12.6063 10.8083 12.4334C10.962 12.2804 11.1559 12.0276 11.3297 11.828C11.5035 11.6284 11.5636 11.4821 11.6772 11.2492C11.7909 11.0164 11.7374 10.8168 11.6505 10.6439C11.5636 10.4709 10.8685 8.76123 10.5744 8.06938C10.2936 7.39083 10.0062 7.48396 9.79231 7.47731C9.59178 7.46401 9.35784 7.46401 9.12389 7.46401C8.88995 7.46401 8.51563 7.55049 8.19479 7.89641C7.87395 8.24234 6.97827 9.08054 6.97827 10.7902C6.97827 12.4999 8.22821 14.143 8.402 14.3759C8.57579 14.6087 10.8551 18.1079 14.3509 19.6113C15.1797 19.9705 15.8281 20.1834 16.3361 20.3431C17.1716 20.6092 17.9269 20.5693 18.5285 20.4828C19.1969 20.383 20.5872 19.6446 20.8813 18.833C21.1688 18.0214 21.1688 17.3295 21.0819 17.1832C20.995 17.0368 20.761 16.9503 20.4135 16.7774Z"/>
            </g>
    </symbol>

    <symbol id="tw" viewBox="0 0 24 24">
            <g>
                <path d="m21.534 7.113c.976-.693 1.797-1.558 2.466-2.554v-.001c-.893.391-1.843.651-2.835.777 1.02-.609 1.799-1.566 2.165-2.719-.951.567-2.001.967-3.12 1.191-.903-.962-2.19-1.557-3.594-1.557-2.724 0-4.917 2.211-4.917 4.921 0 .39.033.765.114 1.122-4.09-.2-7.71-2.16-10.142-5.147-.424.737-.674 1.58-.674 2.487 0 1.704.877 3.214 2.186 4.089-.791-.015-1.566-.245-2.223-.606v.054c0 2.391 1.705 4.377 3.942 4.835-.401.11-.837.162-1.29.162-.315 0-.633-.018-.931-.084.637 1.948 2.447 3.381 4.597 3.428-1.674 1.309-3.8 2.098-6.101 2.098-.403 0-.79-.018-1.177-.067 2.18 1.405 4.762 2.208 7.548 2.208 8.683 0 14.342-7.244 13.986-14.637z"/>
            </g>
    </symbol>

    <symbol id="nbtn" viewBox="0 0 28 28">
            <g>
                <path d="M28.0002 5.15846C27.996 3.79166 27.4511 2.48206 26.4846 1.51558C25.5182 0.549107 24.2086 0.00426018 22.8418 0H16.6602C16.2404 0 15.8377 0.166788 15.5408 0.463672C15.2439 0.760557 15.0771 1.16322 15.0771 1.58308V11.6631C15.0771 11.8285 15.1097 11.9924 15.1731 12.1453C15.2364 12.2981 15.3292 12.437 15.4462 12.554C15.5632 12.671 15.7021 12.7638 15.855 12.8272C16.0078 12.8905 16.1717 12.9231 16.3371 12.9231H26.4171C26.837 12.9231 27.2397 12.7563 27.5366 12.4594C27.8334 12.1625 28.0002 11.7599 28.0002 11.34V5.15846ZM23.6925 7.53846H19.3848C19.0992 7.53846 18.8253 7.425 18.6233 7.22304C18.4214 7.02108 18.3079 6.74716 18.3079 6.46154C18.3079 6.17592 18.4214 5.902 18.6233 5.70004C18.8253 5.49808 19.0992 5.38461 19.3848 5.38461H23.6925C23.9782 5.38461 24.2521 5.49808 24.454 5.70004C24.656 5.902 24.7695 6.17592 24.7695 6.46154C24.7695 6.74716 24.656 7.02108 24.454 7.22304C24.2521 7.425 23.9782 7.53846 23.6925 7.53846Z"/>
<path d="M12.9231 1.58308C12.9231 1.16322 12.7563 0.760557 12.4594 0.463672C12.1625 0.166788 11.7599 0 11.34 0H5.15846C3.79166 0.00426018 2.48206 0.549107 1.51558 1.51558C0.549107 2.48206 0.00426018 3.79166 0 5.15846V11.34C0 11.7599 0.166788 12.1625 0.463672 12.4594C0.760557 12.7563 1.16322 12.9231 1.58308 12.9231H11.6631C11.9972 12.9231 12.3177 12.7903 12.554 12.554C12.7903 12.3177 12.9231 11.9972 12.9231 11.6631V1.58308ZM8.61538 7.53846H7.53846V8.61538C7.53846 8.901 7.425 9.17492 7.22304 9.37688C7.02108 9.57885 6.74716 9.69231 6.46154 9.69231C6.17592 9.69231 5.902 9.57885 5.70004 9.37688C5.49808 9.17492 5.38461 8.901 5.38461 8.61538V7.53846H4.30769C4.02207 7.53846 3.74815 7.425 3.54619 7.22304C3.34423 7.02108 3.23077 6.74716 3.23077 6.46154C3.23077 6.17592 3.34423 5.902 3.54619 5.70004C3.74815 5.49808 4.02207 5.38461 4.30769 5.38461H5.38461V4.30769C5.38461 4.02207 5.49808 3.74815 5.70004 3.54619C5.902 3.34423 6.17592 3.23077 6.46154 3.23077C6.74716 3.23077 7.02108 3.34423 7.22304 3.54619C7.425 3.74815 7.53846 4.02207 7.53846 4.30769V5.38461H8.61538C8.901 5.38461 9.17492 5.49808 9.37688 5.70004C9.57885 5.902 9.69231 6.17592 9.69231 6.46154C9.69231 6.74716 9.57885 7.02108 9.37688 7.22304C9.17492 7.425 8.901 7.53846 8.61538 7.53846Z"/>
<path d="M5.15846 28H11.34C11.7599 28 12.1625 27.8332 12.4594 27.5363C12.7563 27.2394 12.9231 26.8368 12.9231 26.4169V16.3369C12.9231 16.1714 12.8905 16.0076 12.8272 15.8547C12.7638 15.7019 12.671 15.563 12.554 15.446C12.437 15.3289 12.2981 15.2361 12.1453 15.1728C11.9924 15.1095 11.8285 15.0769 11.6631 15.0769H1.58308C1.16322 15.0769 0.760557 15.2437 0.463672 15.5406C0.166788 15.8375 0 16.2401 0 16.66V22.8415C0.00426018 24.2083 0.549107 25.5179 1.51558 26.4844C2.48206 27.4509 3.79166 27.9957 5.15846 28ZM4.35077 20.23C4.14869 20.0279 4.03517 19.7538 4.03517 19.4681C4.03517 19.1823 4.14869 18.9082 4.35077 18.7061C4.55284 18.5041 4.82692 18.3905 5.11269 18.3905C5.39847 18.3905 5.67254 18.5041 5.87461 18.7061L6.82231 19.6538L7.77 18.7061C7.97207 18.5041 8.24615 18.3905 8.53192 18.3905C8.8177 18.3905 9.09177 18.5041 9.29385 18.7061C9.49592 18.9082 9.60944 19.1823 9.60944 19.4681C9.60944 19.7538 9.49592 20.0279 9.29385 20.23L8.34615 21.1777L9.29385 22.1254C9.3939 22.2254 9.47327 22.3442 9.52742 22.4749C9.58157 22.6057 9.60944 22.7458 9.60944 22.8873C9.60944 23.0288 9.58157 23.1689 9.52742 23.2996C9.47327 23.4304 9.3939 23.5492 9.29385 23.6492C9.19379 23.7493 9.075 23.8286 8.94427 23.8828C8.81354 23.9369 8.67342 23.9648 8.53192 23.9648C8.39042 23.9648 8.2503 23.9369 8.11957 23.8828C7.98884 23.8286 7.87006 23.7493 7.77 23.6492L6.82231 22.7015L5.87461 23.6492C5.77456 23.7493 5.65577 23.8286 5.52504 23.8828C5.39431 23.9369 5.25419 23.9648 5.11269 23.9648C4.97119 23.9648 4.83107 23.9369 4.70034 23.8828C4.56961 23.8286 4.45083 23.7493 4.35077 23.6492C4.25071 23.5492 4.17134 23.4304 4.11719 23.2996C4.06304 23.1689 4.03517 23.0288 4.03517 22.8873C4.03517 22.7458 4.06304 22.6057 4.11719 22.4749C4.17134 22.3442 4.25071 22.2254 4.35077 22.1254L5.29846 21.1777L4.35077 20.23Z"/>
<path d="M16.6602 28H22.8418C24.2086 27.9957 25.5182 27.4509 26.4846 26.4844C27.4511 25.5179 27.996 24.2083 28.0002 22.8415V16.66C28.0002 16.2401 27.8334 15.8375 27.5366 15.5406C27.2397 15.2437 26.837 15.0769 26.4171 15.0769H16.3371C16.1717 15.0769 16.0078 15.1095 15.855 15.1728C15.7021 15.2361 15.5632 15.3289 15.4462 15.446C15.3292 15.563 15.2364 15.7019 15.1731 15.8547C15.1097 16.0076 15.0771 16.1714 15.0771 16.3369V26.4169C15.0771 26.8368 15.2439 27.2394 15.5408 27.5363C15.8377 27.8332 16.2404 28 16.6602 28ZM19.3525 18.3077H23.6602C23.9458 18.3077 24.2198 18.4211 24.4217 18.6231C24.6237 18.8251 24.7371 19.099 24.7371 19.3846C24.7371 19.6702 24.6237 19.9441 24.4217 20.1461C24.2198 20.3481 23.9458 20.4615 23.6602 20.4615H19.3848C19.0992 20.4615 18.8253 20.3481 18.6233 20.1461C18.4214 19.9441 18.3079 19.6702 18.3079 19.3846C18.3079 19.099 18.4214 18.8251 18.6233 18.6231C18.8253 18.4211 19.0992 18.3077 19.3848 18.3077H19.3525ZM19.3525 22.6154H23.6602C23.9458 22.6154 24.2198 22.7288 24.4217 22.9308C24.6237 23.1328 24.7371 23.4067 24.7371 23.6923C24.7371 23.9779 24.6237 24.2518 24.4217 24.4538C24.2198 24.6558 23.9458 24.7692 23.6602 24.7692H19.3848C19.0992 24.7692 18.8253 24.6558 18.6233 24.4538C18.4214 24.2518 18.3079 23.9779 18.3079 23.6923C18.3079 23.4067 18.4214 23.1328 18.6233 22.9308C18.8253 22.7288 19.0992 22.6154 19.3848 22.6154H19.3525Z"/>
            </g>
    </symbol>


</svg>