<svg width="100" height="80" viewBox="0 0 100 80" fill="none" xmlns="http://www.w3.org/2000/svg">
<path fill-rule="evenodd" clip-rule="evenodd" d="M11.5785 67.4201C10.2965 67.9311 8.97436 68.2063 7.57212 68.2063C5.40866 68.2063 3.64584 67.4987 2.28366 66.0835C0.921477 64.6682 0.240387 62.8206 0.240387 60.5011C0.240387 57.9852 0.961541 55.9803 2.44391 54.4471C3.92628 52.9139 5.8093 52.167 8.05289 52.167C9.25481 52.167 10.4167 52.3636 11.5385 52.7567V53.8967C10.4167 53.425 9.25481 53.1498 8.05289 53.1498C6.08975 53.1498 4.44712 53.8181 3.20513 55.1154C1.96314 56.452 1.36218 58.1817 1.36218 60.3832C1.36218 62.5061 1.96314 64.1572 3.125 65.3758C4.32693 66.5945 5.8093 67.2235 7.65225 67.2235C9.09455 67.2235 10.4167 66.9483 11.5785 66.3979V67.4201Z" fill="#ECECEC"/>
<path fill-rule="evenodd" clip-rule="evenodd" d="M19.351 53.4252V67.9313H18.2692V53.4252H13.7019V52.4424H23.9183V53.4252H19.351Z" fill="#ECECEC"/>
<path fill-rule="evenodd" clip-rule="evenodd" d="M26.6025 67.9313V52.4424H33.9743V53.4252H27.6843V59.6365H33.4936V60.6193H27.6843V66.9485H34.3349V67.9313H26.6025Z" fill="#ECECEC"/>
<path fill-rule="evenodd" clip-rule="evenodd" d="M45.9936 67.9313L39.2628 60.5407C39.1426 60.4227 39.0625 60.3048 38.9824 60.1869H38.9423V67.9706H37.8606V52.4817H38.9423V59.7544H38.9824C39.0625 59.5972 39.1827 59.4792 39.2628 59.3613L45.633 52.4424H47.0352L40.1042 59.951L47.4759 67.9313H45.9936Z" fill="#ECECEC"/>
<path fill-rule="evenodd" clip-rule="evenodd" d="M54.6875 68.2063C52.4439 68.2063 50.6811 67.4987 49.359 66.0048C48.0369 64.5503 47.3558 62.6633 47.3558 60.3439C47.3558 57.8672 48.0369 55.9016 49.399 54.4078C50.7612 52.9139 52.6042 52.167 54.9679 52.167C57.0913 52.167 58.8141 52.8746 60.1362 54.3292C61.4583 55.7444 62.0994 57.6314 62.0994 59.9508C62.0994 62.5061 61.4183 64.511 60.0561 66.0048C58.774 67.4594 56.9311 68.2063 54.6875 68.2063ZM54.8077 53.1498C52.9647 53.1498 51.4824 53.8181 50.2805 55.1154C49.0785 56.4127 48.5176 58.1424 48.5176 60.226C48.5176 62.3488 49.0785 64.0392 50.2003 65.3365C51.3221 66.5945 52.8045 67.2235 54.6875 67.2235C56.6506 67.2235 58.1731 66.5945 59.3349 65.3365C60.4567 64.0785 61.0577 62.3488 61.0577 60.108C61.0577 57.9065 60.4968 56.2161 59.375 54.9975C58.2131 53.7788 56.7308 53.1498 54.8077 53.1498Z" fill="#ECECEC"/>
<path fill-rule="evenodd" clip-rule="evenodd" d="M74.6394 67.9313V53.4645H69.6314C69.5112 54.408 69.351 55.4301 69.2308 56.4522C69.0705 57.4743 68.9503 58.4571 68.7901 59.4006C68.6298 60.3441 68.4696 61.2483 68.3494 62.0345C68.1891 62.8601 68.0689 63.5284 67.9487 64.0394C67.8285 64.5898 67.6683 65.1402 67.508 65.6119C67.3478 66.123 67.1074 66.5554 66.867 66.9092C66.5866 67.263 66.266 67.5775 65.9055 67.7741C65.5449 67.9707 65.1042 68.0886 64.5833 68.0886C64.343 68.0886 64.1426 68.0886 63.9824 68.0493C63.8221 68.01 63.6619 67.9707 63.5417 67.9313V66.8699C63.8221 67.0272 64.1827 67.0665 64.5433 67.0665C64.8638 67.0665 65.1442 66.9879 65.4247 66.8306C65.6651 66.6734 65.9055 66.4375 66.0657 66.123C66.266 65.8085 66.4263 65.4547 66.5465 64.9829C66.7067 64.5505 66.8269 64.0394 66.9471 63.4891C67.0273 63.1353 67.1074 62.7422 67.1875 62.2311C67.2676 61.7594 67.3878 61.209 67.468 60.6193C67.5882 60.0296 67.6683 59.4006 67.7885 58.7323C67.9087 58.064 67.9888 57.3957 68.109 56.6881C68.2292 55.9805 68.3093 55.2729 68.4295 54.5259C68.5497 53.8183 68.6298 53.0714 68.71 52.3638H75.7212V67.8527H74.6394V67.9313Z" fill="#ECECEC"/>
<path fill-rule="evenodd" clip-rule="evenodd" d="M88.8622 63.4498C88.8622 64.0788 88.742 64.6291 88.5416 65.1795C88.3413 65.7299 88.0208 66.2016 87.6202 66.5947C87.2195 66.9878 86.7388 67.3417 86.1378 67.5775C85.5368 67.8134 84.8557 67.9313 84.0945 67.9313H79.7275V52.4424H80.8093V59.322H84.375C85.016 59.322 85.5769 59.4006 86.1378 59.5579C86.6586 59.7151 87.1394 59.951 87.54 60.3048C87.9407 60.6193 88.2612 61.0517 88.4615 61.6021C88.742 62.1131 88.8622 62.7421 88.8622 63.4498ZM87.7404 63.5677C87.7404 62.978 87.6602 62.5063 87.5 62.0738C87.3397 61.6807 87.0993 61.3269 86.7388 61.0517C86.4182 60.7765 86.0176 60.6193 85.4968 60.462C85.016 60.3441 84.4551 60.2655 83.8141 60.2655H80.8493V66.9092H83.8942C84.5753 66.9092 85.1362 66.8306 85.617 66.634C86.0977 66.4768 86.4984 66.2409 86.8189 65.9264C87.1394 65.6119 87.3397 65.2581 87.5 64.865C87.6602 64.5112 87.7404 64.0394 87.7404 63.5677Z" fill="#ECECEC"/>
<path fill-rule="evenodd" clip-rule="evenodd" d="M92.2676 67.9313V52.4424H99.6394V53.4252H93.3494V59.6365H99.1987V60.6193H93.3494V66.9485H100V67.9313H92.2676Z" fill="#ECECEC"/>
<path fill-rule="evenodd" clip-rule="evenodd" d="M3.52564 79.9212V77.2873C3.52564 77.2086 3.52564 77.0514 3.56571 76.7369C3.52564 76.8941 3.48558 76.9728 3.44552 77.0514L2.08334 79.9212H1.96314L0.600964 77.0907C0.5609 77.0121 0.520836 76.8941 0.480772 76.7369C0.480772 76.8941 0.480772 77.0514 0.480772 77.2479V79.9605H0.240387V76.2651H0.480772L1.88302 79.2529C1.88302 79.2529 1.88302 79.2922 1.92308 79.3315C1.92308 79.3708 1.96314 79.3708 1.96314 79.4101C1.96314 79.4494 2.00321 79.4887 2.00321 79.5673L2.04327 79.4887C2.04327 79.4887 2.08334 79.4101 2.1234 79.2529L3.52564 76.2651H3.76603V79.9605H3.52564V79.9212Z" fill="#ECECEC"/>
<path fill-rule="evenodd" clip-rule="evenodd" d="M7.85255 79.9214L7.41185 78.7814H5.76922L5.32851 79.9214H5.04807L6.49037 76.2261H6.73076L8.133 79.9214H7.85255ZM6.69069 76.8158C6.69069 76.7764 6.65063 76.6978 6.65063 76.6585C6.65063 76.6192 6.61056 76.5799 6.61056 76.5406C6.5705 76.6585 6.5705 76.7371 6.53044 76.8158L5.88941 78.5455H7.33172L6.69069 76.8158Z" fill="#ECECEC"/>
<path fill-rule="evenodd" clip-rule="evenodd" d="M11.9391 79.8035C11.6186 79.9214 11.2981 80 10.9776 80C10.4567 80 10.0561 79.8428 9.69552 79.489C9.37501 79.1352 9.21475 78.7027 9.21475 78.1524C9.21475 77.5627 9.37501 77.0516 9.73559 76.6978C10.0962 76.344 10.5369 76.1475 11.0978 76.1475C11.3782 76.1475 11.6587 76.1868 11.9391 76.3047V76.5799C11.6587 76.462 11.3782 76.4226 11.0978 76.4226C10.617 76.4226 10.2564 76.5799 9.93591 76.8944C9.65546 77.2089 9.4952 77.6413 9.4952 78.1524C9.4952 78.6634 9.65546 79.0565 9.93591 79.3317C10.2164 79.6069 10.5769 79.7642 11.0176 79.7642C11.3782 79.7642 11.6587 79.6855 11.9391 79.5676V79.8035Z" fill="#ECECEC"/>
<path fill-rule="evenodd" clip-rule="evenodd" d="M14.4631 76.4226V79.9214H14.1827V76.4226H13.101V76.2261H15.5449V76.4226H14.4631Z" fill="#ECECEC"/>
<path fill-rule="evenodd" clip-rule="evenodd" d="M16.8269 79.9214V76.2261H18.5898V76.4226H17.1074V77.9165H18.5096V78.1524H17.1074V79.6855H18.7099V79.9214H16.8269Z" fill="#ECECEC"/>
<path fill-rule="evenodd" clip-rule="evenodd" d="M20.4327 78.4276V79.9214H20.1523V76.2261H21.0737C21.4744 76.2261 21.7548 76.3047 21.9551 76.5013C22.1555 76.6585 22.2757 76.9337 22.2757 77.2875C22.2757 77.6413 22.1555 77.9165 21.9151 78.1524C21.6747 78.3882 21.3542 78.4669 20.9535 78.4669H20.4327V78.4276ZM20.4327 76.4226V78.1917H20.9535C21.3141 78.1917 21.5545 78.1131 21.7148 77.9558C21.875 77.7986 21.9952 77.5627 21.9952 77.2875C21.9952 76.7371 21.6747 76.4619 21.0337 76.4619H20.4327V76.4226Z" fill="#ECECEC"/>
<path fill-rule="evenodd" clip-rule="evenodd" d="M26.242 79.8035C25.9215 79.9214 25.601 80 25.2805 80C24.7596 80 24.359 79.8428 23.9984 79.489C23.6779 79.1352 23.5176 78.7027 23.5176 78.1524C23.5176 77.5627 23.6779 77.0516 24.0385 76.6978C24.399 76.344 24.8398 76.1475 25.4007 76.1475C25.6811 76.1475 25.9616 76.1868 26.242 76.3047V76.5799C25.9616 76.462 25.6811 76.4226 25.4007 76.4226C24.9199 76.4226 24.5593 76.5799 24.2388 76.8944C23.9583 77.2089 23.7981 77.6413 23.7981 78.1524C23.7981 78.6634 23.9583 79.0565 24.2388 79.3317C24.5192 79.6069 24.8798 79.7642 25.3205 79.7642C25.6811 79.7642 25.9616 79.6855 26.242 79.5676V79.8035Z" fill="#ECECEC"/>
<path fill-rule="evenodd" clip-rule="evenodd" d="M29.6875 79.9214L28.0849 78.1524C28.0449 78.1131 28.0449 78.0737 28.0048 78.0737V79.9214H27.7244V76.2261H28.0048V77.9951C28.0449 77.9558 28.0449 77.9165 28.0849 77.9165L29.6074 76.2654H29.968L28.3253 78.0737L30.0881 80H29.6875V79.9214Z" fill="#ECECEC"/>
<path fill-rule="evenodd" clip-rule="evenodd" d="M33.6939 79.9214L33.2532 78.7814H31.6506L31.2099 79.9214H30.9295L32.3718 76.2261H32.6122L34.0144 79.9214H33.6939ZM32.532 76.8158C32.532 76.7764 32.492 76.6978 32.492 76.6585C32.492 76.6192 32.4519 76.5799 32.4519 76.5406C32.4118 76.6585 32.4118 76.7371 32.3718 76.8158L31.7308 78.5455H33.1731L32.532 76.8158Z" fill="#ECECEC"/>
<path fill-rule="evenodd" clip-rule="evenodd" d="M37.0593 79.9212V78.2701H36.4984C36.3782 78.2701 36.2981 78.2701 36.258 78.3094C36.1779 78.3487 36.1378 78.388 36.0577 78.4273C36.0176 78.4666 35.9375 78.5452 35.8974 78.6239C35.8574 78.7025 35.8173 78.7811 35.7772 78.8597L35.2965 79.9212H35.016L35.5769 78.7418C35.617 78.6632 35.657 78.5846 35.6971 78.5452C35.7372 78.5059 35.7772 78.4273 35.8173 78.388C35.8574 78.3487 35.8974 78.3094 35.9375 78.2701C35.9776 78.2307 36.0176 78.2307 36.0577 78.1914C35.9375 78.1914 35.8173 78.1521 35.7372 78.0735C35.617 78.0342 35.5369 77.9556 35.4567 77.8769C35.3766 77.7983 35.2965 77.7197 35.2564 77.6017C35.2163 77.4838 35.1763 77.3659 35.1763 77.2086C35.1763 77.13 35.1763 77.0514 35.2163 76.9728C35.2163 76.8941 35.2564 76.8155 35.2965 76.7369C35.3365 76.6583 35.3766 76.5796 35.4567 76.5403C35.5369 76.4617 35.5769 76.4224 35.6971 76.3438C35.7772 76.3045 35.8974 76.2651 35.9776 76.2258C36.0978 76.1865 36.2179 76.1865 36.3381 76.1865H37.3397V79.8818H37.0593V79.9212ZM37.0593 76.4224H36.3381C36.1779 76.4224 36.0176 76.4617 35.8974 76.501C35.7772 76.5403 35.6971 76.619 35.617 76.6976C35.5369 76.7762 35.4968 76.8548 35.4567 76.9334C35.4167 77.0121 35.4167 77.13 35.4167 77.2086C35.4167 77.3659 35.4567 77.4838 35.4968 77.6017C35.5369 77.7197 35.617 77.7983 35.7372 77.8376C35.8173 77.9162 35.9375 77.9556 36.0577 77.9949C36.1779 78.0342 36.2981 78.0342 36.4183 78.0342H37.0593V76.4224Z" fill="#ECECEC"/>
<path fill-rule="evenodd" clip-rule="evenodd" d="M42.3478 79.9214L40.7452 78.1524C40.7051 78.1131 40.7051 78.0737 40.6651 78.0737V79.9214H40.3846V76.2261H40.6651V77.9951C40.7051 77.9558 40.7051 77.9165 40.7452 77.9165L42.2676 76.2654H42.6282L40.9856 78.0737L42.7484 80H42.3478V79.9214Z" fill="#ECECEC"/>
<path fill-rule="evenodd" clip-rule="evenodd" d="M45.0721 78.9386C44.992 79.0959 44.9519 79.2138 44.8718 79.371C44.7917 79.489 44.7115 79.6069 44.6314 79.6855C44.5513 79.7642 44.4311 79.8428 44.351 79.8821C44.2308 79.9214 44.1106 79.9607 43.9904 79.9607C43.9103 79.9607 43.8301 79.9607 43.7901 79.9214C43.71 79.9214 43.6699 79.8821 43.6298 79.8821V79.6069C43.6699 79.6462 43.75 79.6855 43.8301 79.6855C43.9103 79.7249 43.9503 79.7249 44.0305 79.7249C44.1507 79.7249 44.2308 79.7249 44.3109 79.6855C44.391 79.6462 44.4712 79.6069 44.5112 79.5283C44.5914 79.4497 44.6314 79.371 44.7115 79.2531C44.7516 79.1352 44.8317 79.0565 44.8718 78.8993L43.6298 76.1868H43.9103L44.8718 78.2703C44.8718 78.3096 44.9119 78.3096 44.9119 78.3489C44.9119 78.3882 44.9519 78.3882 44.9519 78.4276C44.9519 78.4669 44.992 78.5062 44.992 78.5062C44.992 78.5455 45.0321 78.5848 45.0321 78.5848C45.0721 78.5062 45.0721 78.4669 45.1122 78.4276C45.1522 78.3882 45.1523 78.3096 45.1923 78.2703L46.1138 76.1475H46.3942L45.0721 78.9386Z" fill="#ECECEC"/>
<path fill-rule="evenodd" clip-rule="evenodd" d="M49.5192 79.9212L48.6378 78.5059C48.5978 78.4273 48.5176 78.3487 48.4776 78.2307C48.4375 78.3094 48.3974 78.4273 48.3173 78.5059L47.4359 79.9212H47.1154L48.3173 78.0342L47.1955 76.1865H47.516L48.3574 77.5624C48.3974 77.6411 48.4375 77.7197 48.4776 77.7983L48.5978 77.5624L49.4391 76.1865H49.7596L48.6378 78.0342L49.7997 79.9212H49.5192Z" fill="#ECECEC"/>
<path fill-rule="evenodd" clip-rule="evenodd" d="M52.6843 80C52.1635 80 51.7228 79.8428 51.4022 79.489C51.0817 79.1352 50.9215 78.7027 50.9215 78.1131C50.9215 77.5234 51.0817 77.0516 51.4022 76.6978C51.7228 76.344 52.1635 76.1475 52.7244 76.1475C53.2452 76.1475 53.6458 76.3047 53.9663 76.6585C54.2869 77.0123 54.4471 77.4448 54.4471 77.9951C54.4471 78.6241 54.2869 79.0959 53.9663 79.4497C53.6859 79.8035 53.2452 80 52.6843 80ZM52.7244 76.3833C52.2837 76.3833 51.9231 76.5406 51.6426 76.8551C51.3622 77.1696 51.2019 77.5627 51.2019 78.0737C51.2019 78.5848 51.3221 78.9779 51.6026 79.2924C51.883 79.6069 52.2436 79.7642 52.6843 79.7642C53.1651 79.7642 53.5256 79.6069 53.8061 79.3317C54.0865 79.0172 54.2067 78.6241 54.2067 78.0737C54.2067 77.5627 54.0865 77.1303 53.8061 76.8551C53.5657 76.5406 53.2051 76.3833 52.7244 76.3833Z" fill="#ECECEC"/>
<path fill-rule="evenodd" clip-rule="evenodd" d="M58.3333 79.9214V78.1524H56.1699V79.9214H55.8894V76.2261H56.1699V77.9165H58.3333V76.2261H58.5737V79.9214H58.3333Z" fill="#ECECEC"/>
<path fill-rule="evenodd" clip-rule="evenodd" d="M62.6202 79.9214V78.1524H60.4567V79.9214H60.2163V76.2261H60.4567V77.9165H62.6202V76.2261H62.9006V79.9214H62.6202Z" fill="#ECECEC"/>
<path fill-rule="evenodd" clip-rule="evenodd" d="M66.0657 80C65.5449 80 65.1042 79.8428 64.7837 79.489C64.4631 79.1352 64.3029 78.7027 64.3029 78.1131C64.3029 77.5234 64.4631 77.0516 64.7837 76.6978C65.1042 76.344 65.5449 76.1475 66.1058 76.1475C66.6266 76.1475 67.0272 76.3047 67.3478 76.6585C67.6683 77.0123 67.8285 77.4448 67.8285 77.9951C67.8285 78.6241 67.6683 79.0959 67.3478 79.4497C67.0673 79.8035 66.6266 80 66.0657 80ZM66.1058 76.3833C65.6651 76.3833 65.3045 76.5406 65.024 76.8551C64.7436 77.1696 64.5833 77.5627 64.5833 78.0737C64.5833 78.5848 64.7035 78.9779 64.984 79.2924C65.2644 79.6069 65.625 79.7642 66.0657 79.7642C66.5465 79.7642 66.907 79.6069 67.1875 79.3317C67.4679 79.0172 67.5881 78.6241 67.5881 78.0737C67.5881 77.5627 67.4679 77.1303 67.1875 76.8551C66.907 76.5406 66.5465 76.3833 66.1058 76.3833Z" fill="#ECECEC"/>
<path fill-rule="evenodd" clip-rule="evenodd" d="M69.5513 76.4226V79.9214H69.2708V76.2261H71.0737V76.4226H69.5513Z" fill="#ECECEC"/>
<path fill-rule="evenodd" clip-rule="evenodd" d="M73.6378 80C73.117 80 72.6763 79.8428 72.3558 79.489C72.0353 79.1352 71.875 78.7027 71.875 78.1131C71.875 77.5234 72.0353 77.0516 72.3558 76.6978C72.6763 76.344 73.117 76.1475 73.6779 76.1475C74.1987 76.1475 74.5994 76.3047 74.9199 76.6585C75.2404 77.0123 75.4006 77.4448 75.4006 77.9951C75.4006 78.6241 75.2404 79.0959 74.9199 79.4497C74.5994 79.8035 74.1587 80 73.6378 80ZM73.6779 76.3833C73.2372 76.3833 72.8766 76.5406 72.5962 76.8551C72.3157 77.1696 72.1555 77.5627 72.1555 78.0737C72.1555 78.5848 72.2756 78.9779 72.5561 79.2924C72.8365 79.6069 73.1971 79.7642 73.6378 79.7642C74.1186 79.7642 74.4792 79.6069 74.7596 79.3317C75.0401 79.0172 75.1603 78.6241 75.1603 78.0737C75.1603 77.5627 75.0401 77.1303 74.7596 76.8551C74.4792 76.5406 74.1186 76.3833 73.6779 76.3833Z" fill="#ECECEC"/>
<path fill-rule="evenodd" clip-rule="evenodd" d="M80.8494 79.8035C80.5288 79.9214 80.2083 80 79.8878 80C79.367 80 78.9663 79.8428 78.6058 79.489C78.2853 79.1352 78.125 78.7027 78.125 78.1524C78.125 77.5627 78.2853 77.0516 78.6458 76.6978C79.0064 76.344 79.4471 76.1475 80.008 76.1475C80.2885 76.1475 80.5689 76.1868 80.8494 76.3047V76.5799C80.5689 76.462 80.2885 76.4226 80.008 76.4226C79.5272 76.4226 79.1667 76.5799 78.8462 76.8944C78.5657 77.2089 78.4054 77.6413 78.4054 78.1524C78.4054 78.6634 78.5657 79.0565 78.8462 79.3317C79.1266 79.6069 79.4872 79.7642 79.9279 79.7642C80.2885 79.7642 80.5689 79.6855 80.8494 79.5676V79.8035Z" fill="#ECECEC"/>
<path fill-rule="evenodd" clip-rule="evenodd" d="M83.3333 76.4226V79.9214H83.0929V76.4226H82.0112V76.2261H84.4551V76.4226H83.3333Z" fill="#ECECEC"/>
<path fill-rule="evenodd" clip-rule="evenodd" d="M85.7372 79.9214V76.2261H87.5V76.4226H85.9776V77.9165H87.3798V78.1524H85.9776V79.6855H87.5801V79.9214H85.7372Z" fill="#ECECEC"/>
<path fill-rule="evenodd" clip-rule="evenodd" d="M91.0256 79.9214L89.4231 78.1524C89.383 78.1131 89.383 78.0737 89.3429 78.0737V79.9214H89.0625V76.2261H89.3429V77.9951C89.383 77.9558 89.383 77.9165 89.4231 77.9165L90.9455 76.2654H91.266L89.6234 78.0737L91.3862 80H91.0256V79.9214Z" fill="#ECECEC"/>
<path fill-rule="evenodd" clip-rule="evenodd" d="M95.1923 79.9214V76.462H93.9904C93.9503 76.6978 93.9102 76.9337 93.9102 77.1696C93.8702 77.4054 93.8301 77.6413 93.79 77.8772C93.75 78.1131 93.7099 78.3096 93.6698 78.5062C93.6298 78.7027 93.5897 78.86 93.5897 78.9779C93.5497 79.0959 93.5096 79.2531 93.4695 79.371C93.4295 79.489 93.3894 79.6069 93.3093 79.6855C93.2291 79.7642 93.1891 79.8428 93.0689 79.8821C92.9888 79.9214 92.8686 79.9607 92.7484 79.9607C92.7083 79.9607 92.6282 79.9607 92.5881 79.9607C92.5481 79.9607 92.508 79.9607 92.4679 79.9214V79.6462C92.5481 79.6855 92.6282 79.6855 92.7083 79.6855C92.7884 79.6855 92.8686 79.6462 92.9086 79.6069C92.9487 79.5676 93.0288 79.5283 93.0689 79.4497C93.109 79.371 93.149 79.2924 93.1891 79.1745C93.2291 79.0565 93.2692 78.9386 93.2692 78.8207C93.2692 78.7421 93.3093 78.6241 93.3493 78.5062C93.3894 78.3882 93.3894 78.2703 93.4295 78.1131C93.4695 77.9558 93.4695 77.8379 93.5096 77.6806C93.5497 77.5234 93.5497 77.3661 93.5897 77.1696C93.6298 77.0123 93.6298 76.8158 93.6698 76.6585C93.7099 76.5013 93.7099 76.3047 93.75 76.1475H95.4327V79.8428H95.1923V79.9214Z" fill="#ECECEC"/>
<path fill-rule="evenodd" clip-rule="evenodd" d="M99.5593 79.9214L99.1186 78.7814H97.476L97.0353 79.9214H96.7548L98.1971 76.2261H98.4375L99.8398 79.9214H99.5593ZM98.3975 76.8158C98.3975 76.7764 98.3574 76.6978 98.3574 76.6585C98.3574 76.6192 98.3173 76.5799 98.3173 76.5406C98.2773 76.6585 98.2773 76.7371 98.2372 76.8158L97.5962 78.5455H99.0385L98.3975 76.8158Z" fill="#ECECEC"/>
<path fill-rule="evenodd" clip-rule="evenodd" d="M0.07901 6.64404L20.7521 16.7079L20.6319 42.3001L0.07901 31.8037V6.64404Z" fill="#000003"/>
<path fill-rule="evenodd" clip-rule="evenodd" d="M26.1218 13.0122L43.149 20.9532L43.1891 39.941L26.1619 31.7247L26.1218 13.0122Z" fill="#1E1E1F"/>
<path fill-rule="evenodd" clip-rule="evenodd" d="M74.3189 7.78369L94.992 17.8869L94.9118 43.3218L74.359 32.9434L74.3189 7.78369Z" fill="#000003"/>
<path fill-rule="evenodd" clip-rule="evenodd" d="M48.3173 10.103L69.1106 20.2062L69.1907 43.3217L48.3574 32.8254L48.3173 10.103Z" fill="#000003"/>
<path fill-rule="evenodd" clip-rule="evenodd" d="M26.0417 13.0908L43.0689 20.9925L43.109 39.9803L26.0818 31.764L26.0417 13.0908Z" fill="#D5D5D4"/>
<path fill-rule="evenodd" clip-rule="evenodd" d="M48.2372 10.1821L69.0304 20.2853L69.0705 43.4008L48.2772 32.9045L48.2372 10.1821Z" fill="#2C2D2C"/>
<path fill-rule="evenodd" clip-rule="evenodd" d="M74.3189 7.70508L95.032 17.8476L94.9118 43.2432L74.399 32.8648L74.3189 7.70508Z" fill="#8F8F8F"/>
<path fill-rule="evenodd" clip-rule="evenodd" d="M74.399 2.12305L94.992 12.4621L95.032 17.8479L74.3189 7.70536L74.399 2.12305Z" fill="#2C2D2C"/>
<path fill-rule="evenodd" clip-rule="evenodd" d="M50.8013 14.3491L66.3862 21.897L66.4263 39.273L50.8414 31.4105L50.8013 14.3491Z" fill="#D5D5D4"/>
<path fill-rule="evenodd" clip-rule="evenodd" d="M0 6.72217L20.6731 16.7467L20.5529 42.3389L0 31.8426V6.72217Z" fill="#2C2D2C"/>
<path fill-rule="evenodd" clip-rule="evenodd" d="M3.72596 15.6069L16.1058 21.5037L15.9856 31.8428L3.5657 25.6315L3.72596 15.6069Z" fill="#D5D5D4"/>
<path fill-rule="evenodd" clip-rule="evenodd" d="M78.8462 12.3443L91.4663 18.4376C92.3878 18.8701 92.508 19.1452 92.508 20.4818C92.508 25.789 92.508 32.0396 92.4679 37.3467C92.4679 39.273 92.3077 39.7054 90.4247 38.7619L77.5641 32.3148C76.6026 31.843 76.7228 31.6858 76.7228 29.8774L76.6426 13.2877C76.6827 11.2435 76.9231 11.4008 78.8462 12.3443Z" fill="#2C2D2C"/>
<path fill-rule="evenodd" clip-rule="evenodd" d="M78.0449 7.62623C78.4856 7.62623 78.8462 7.1938 78.8462 6.68275C78.8462 6.17169 78.4856 5.73926 78.0449 5.73926C77.6042 5.73926 77.2436 6.17169 77.2436 6.68275C77.2436 7.1938 77.6042 7.62623 78.0449 7.62623Z" fill="#9E9E9F"/>
<path fill-rule="evenodd" clip-rule="evenodd" d="M81.851 9.55299C82.2917 9.55299 82.6523 9.12056 82.6523 8.6095C82.6523 8.09845 82.2917 7.66602 81.851 7.66602C81.4103 7.66602 81.0497 8.09845 81.0497 8.6095C81.0497 9.12056 81.4103 9.55299 81.851 9.55299Z" fill="#9E9E9F"/>
<path fill-rule="evenodd" clip-rule="evenodd" d="M88.141 12.5798C88.5817 12.5798 88.9423 12.1474 88.9423 11.6364C88.9423 11.1253 88.5817 10.6929 88.141 10.6929C87.7003 10.6929 87.3398 11.1253 87.3398 11.6364C87.3398 12.1867 87.7003 12.5798 88.141 12.5798Z" fill="#9E9E9F"/>
<path fill-rule="evenodd" clip-rule="evenodd" d="M91.6266 14.5457C92.0673 14.5457 92.4279 14.1132 92.4279 13.6022C92.4279 13.0911 92.0673 12.6587 91.6266 12.6587C91.1859 12.6587 90.8253 13.0911 90.8253 13.6022C90.8253 14.1132 91.1859 14.5457 91.6266 14.5457Z" fill="#9E9E9F"/>
<path fill-rule="evenodd" clip-rule="evenodd" d="M2.20352 12.108L16.0657 18.9483L17.0673 18.0835L3.24519 11.2432L2.20352 12.108Z" fill="#1A1A18"/>
<path fill-rule="evenodd" clip-rule="evenodd" d="M2.24359 11.9899L16.0657 18.8302L17.1074 17.9653L3.24519 11.125L2.24359 11.9899Z" fill="#8F8F8F"/>
<path fill-rule="evenodd" clip-rule="evenodd" d="M94.9119 43.3219L99.7596 41.1204V40.7666L94.9119 42.8894V43.3219Z" fill="#1E1E1F"/>
<path fill-rule="evenodd" clip-rule="evenodd" d="M94.992 12.8548L99.7997 10.6927V10.3389L94.992 12.4617V12.8548Z" fill="#1E1E1F"/>
<path fill-rule="evenodd" clip-rule="evenodd" d="M74.7997 2.35872L79.2067 0.39312L79.1667 0L74.399 2.12285L74.7997 2.35872Z" fill="#1E1E1F"/>
</svg>
