<svg width="54" height="44" viewBox="0 0 54 44" fill="none" xmlns="http://www.w3.org/2000/svg">
<path d="M44 28.2553C47.1631 28.2553 49.7447 30.8369 49.7447 34C49.7447 37.1631 47.1631 39.7447 44 39.7447C40.8369 39.7447 38.2553 37.1631 38.2553 34C38.2553 30.8369 40.8369 28.2553 44 28.2553ZM44 24C38.4823 24 34 28.4681 34 34C34 39.5319 38.4823 44 44 44C49.5319 44 54 39.5177 54 34C54 28.4823 49.5319 24 44 24Z" fill="#00AAE7"/>
<path d="M36.5835 22.3921C37.4284 20.4523 37.8979 18.313 37.8979 16.0657C37.8979 7.29975 30.7663 0.167969 22.0002 0.167969C13.234 0.167969 6.10251 7.29975 6.10251 16.0658C6.10251 18.3129 6.57216 20.4521 7.41675 22.3918L0 34.2787L10.6577 34.243L15.3099 43.8319L22 33.1096L28.6901 43.8319L33.3423 34.243L44 34.2787L36.5835 22.3921ZM10.7476 31.6646L4.65678 31.685L8.84185 24.9777C9.8456 26.455 11.0914 27.7554 12.5218 28.821L10.7476 31.6646ZM15.5927 38.5087L12.9345 33.0298L14.7069 30.1889C16.2642 30.9964 17.9711 31.5531 19.7741 31.8069L15.5927 38.5087ZM28.4072 38.5086L24.2258 31.8069C26.029 31.5531 27.7361 30.9963 29.2934 30.1889L31.0657 33.0294L28.4072 38.5086ZM22.0003 29.3855C14.6558 29.3855 8.68055 23.4103 8.68055 16.0658C8.68055 8.72133 14.6558 2.74609 22.0003 2.74609C29.3447 2.74609 35.32 8.72133 35.32 16.0658C35.32 23.4103 29.3448 29.3855 22.0003 29.3855ZM33.2528 31.6647L31.4786 28.8211C32.9089 27.7555 34.1547 26.4553 35.1584 24.9781L39.3432 31.685L33.2528 31.6647Z" fill="black"/>
<path d="M22.0002 5.32422C16.0773 5.32422 11.2586 10.143 11.2586 16.0659C11.2586 21.9888 16.0773 26.8076 22.0002 26.8076C27.9232 26.8076 32.7419 21.9889 32.7419 16.0659C32.7419 10.1429 27.9232 5.32422 22.0002 5.32422ZM22.0002 24.2296C17.4988 24.2296 13.8365 20.5674 13.8365 16.0659C13.8365 11.5644 17.4988 7.90217 22.0002 7.90217C26.5017 7.90217 30.164 11.5644 30.164 16.0659C30.164 20.5674 26.5017 24.2296 22.0002 24.2296Z" fill="black"/>
</svg>
