<svg width="59" height="40" viewBox="0 0 59 40" fill="none" xmlns="http://www.w3.org/2000/svg">
<path d="M10 4.25532C13.1631 4.25532 15.7447 6.83688 15.7447 10C15.7447 13.1631 13.1631 15.7447 10 15.7447C6.83688 15.7447 4.25532 13.1631 4.25532 10C4.25532 6.83688 6.83688 4.25532 10 4.25532ZM10 0C4.48227 0 0 4.46809 0 10C0 15.5319 4.48227 20 10 20C15.5319 20 20 15.5177 20 10C20 4.48227 15.5319 0 10 0Z" fill="#00AAE7"/>
<path d="M17.427 39.634H24.2494V31.141H27.0804V28.31H24.2494V25.479H25.3757L42.7392 32.8852C43.6027 33.2536 44.1608 34.0981 44.1608 35.0369V36.803H46.9918C46.9918 35.081 46.9918 25.4181 46.9918 23.5228L52.6538 20.6918V16.1112L46.9918 13.2802C46.9918 11.5496 46.9918 0.348214 46.9918 0H44.1608V1.76608C44.1608 2.70484 43.6027 3.54942 42.7392 3.91783L25.3757 11.324H10V25.4791H14.5959L17.427 39.634ZM46.9918 16.4452L49.8228 17.8607V18.9421L46.9918 20.3576V16.4452ZM27.0804 13.6745C44.905 6.06656 43.8534 6.53189 44.1608 6.37609V30.4267C43.8544 30.2715 44.9089 30.7379 27.0804 23.1283V13.6745ZM21.4184 36.803H19.7478L17.483 25.479H21.4184V36.803ZM12.831 14.1549H24.2494V22.648H12.831V14.1549Z" fill="#202020"/>
<path d="M51.3365 11.4519L57.0754 8.61764L58.3295 11.1571L52.5906 13.9913L51.3365 11.4519Z" fill="#202020"/>
<path d="M51.3479 25.3367L52.602 22.7973L58.3409 25.6315L57.0868 28.1709L51.3479 25.3367Z" fill="#202020"/>
</svg>
