<svg width="52" height="52" viewBox="0 0 52 52" fill="none" xmlns="http://www.w3.org/2000/svg">
<path d="M42 36.2553C45.1631 36.2553 47.7447 38.8369 47.7447 42C47.7447 45.1631 45.1631 47.7447 42 47.7447C38.8369 47.7447 36.2553 45.1631 36.2553 42C36.2553 38.8369 38.8369 36.2553 42 36.2553ZM42 32C36.4823 32 32 36.4681 32 42C32 47.5319 36.4823 52 42 52C47.5319 52 52 47.5177 52 42C52 36.4823 47.5319 32 42 32Z" fill="#00AAE7"/>
<path d="M42.3004 44C42.2218 44 42.1428 43.9946 42.0639 43.9836L21.5862 41.105C20.7545 40.9885 20.1275 40.2674 20.1275 39.4285V24.5637C20.1275 23.6302 20.8879 22.8705 21.8224 22.8705H42.3051C42.7577 22.8705 43.1835 23.0467 43.5037 23.3667C43.8236 23.6866 44 24.1116 44 24.5641L43.995 42.3071C43.9946 42.7976 43.7823 43.2635 43.4116 43.5851C43.1012 43.8543 42.706 44 42.3004 44ZM22.7075 38.6598L41.415 41.2893L41.4194 25.4483H22.7075V38.6598ZM16.8601 40.6713C16.7835 40.6713 16.7065 40.6659 16.6296 40.6555L1.48285 38.5812C0.648182 38.4668 0.0184823 37.746 0.0181463 36.9041L0.0174742 24.5637C0.0174742 24.1116 0.193548 23.6866 0.513774 23.3667C0.834 23.0467 1.2594 22.8705 1.71235 22.8705H16.8598C17.7942 22.8705 18.5546 23.6302 18.5546 24.5637V38.978C18.5546 39.4675 18.3429 39.9324 17.9737 40.254C17.6635 40.5246 17.267 40.6709 16.8601 40.6713ZM16.9794 38.1015L16.9804 38.1019C16.98 38.1019 16.9797 38.1015 16.9794 38.1015ZM2.59844 36.1324L15.9747 37.9639V25.4483H2.59776L2.59844 36.1324ZM16.8544 21.2934L1.69454 21.2904C0.76142 21.2904 0.00100927 20.5317 1.20668e-06 19.5992V7.39273C-0.00100685 6.55014 0.629701 5.82807 1.46706 5.7146L16.6262 3.65782C17.1111 3.59202 17.6003 3.73872 17.969 4.06031C18.3376 4.3819 18.5489 4.84684 18.5489 5.33561V19.6002C18.5489 20.5341 17.7888 21.2934 16.8544 21.2934ZM2.58029 18.713L15.969 18.7156V6.34839L2.58029 8.16482V18.713ZM42.3001 21.1273H21.8224C20.8879 21.1273 20.1275 20.3679 20.1275 19.434V4.66993C20.1275 3.83506 20.7512 3.115 21.5781 2.99449H21.5785L42.0558 0.0175664C42.543 -0.0529291 43.0363 0.0907474 43.4086 0.412676C43.7813 0.734606 43.9946 1.20122 43.9946 1.69334V19.434C43.9946 20.3679 43.2346 21.1273 42.3001 21.1273ZM22.7075 18.5498H41.4147V2.71553L22.7075 5.43497V18.5498Z" fill="#202020"/>
</svg>
