<svg width="120" height="121" viewBox="0 0 120 121" fill="none" xmlns="http://www.w3.org/2000/svg">
<path d="M117.857 51.8364C116.602 49.9421 114.7 48.6367 112.489 48.1419C113.916 45.414 113.857 42.0103 112.041 39.2676C110.748 37.3151 108.799 36.0541 106.676 35.5768C107.055 34.8549 107.334 34.0757 107.501 33.2541C107.965 30.9693 107.513 28.6411 106.225 26.6979C104.97 24.8026 103.068 23.4973 100.857 23.0034C102.284 20.2755 102.226 16.8718 100.409 14.1282C97.7529 10.117 92.3266 9.01387 88.3146 11.6707L79.6276 17.4238C74.9971 15.0753 70.072 13.409 64.9605 12.46C63.345 10.0072 61.4664 7.72698 59.3634 5.68865L55.7696 2.20558C53.1376 -0.346027 49.0102 -0.729137 45.9546 1.29535C42.3395 3.68909 41.3462 8.57814 43.7399 12.1932C43.8341 12.3363 43.9264 12.4803 44.0178 12.6243C32.2374 15.0079 21.501 21.2596 13.5545 30.42C4.93129 40.3615 0.181641 53.0937 0.181641 66.2709C0.181641 68.7966 0.354271 71.327 0.695839 73.79C3.32776 92.9372 16.0821 109.438 33.9803 116.853C40.6178 119.604 47.6605 121 54.9101 121C66.3914 121 77.3816 117.484 86.6935 110.833C95.8032 104.324 102.619 95.3429 106.405 84.8596C106.758 83.8829 106.252 82.8037 105.275 82.451C104.297 82.0984 103.219 82.6043 102.866 83.5819C99.3408 93.3443 92.9922 101.708 84.5056 107.77C75.8362 113.964 65.6021 117.237 54.9101 117.237C49.3822 117.237 43.9845 116.365 38.8186 114.644L54.1263 104.507C54.1273 104.506 54.1282 104.506 54.1291 104.505C54.13 104.505 54.13 104.504 54.131 104.503L66.853 96.0787H66.8539C67.9959 95.3217 68.7759 94.1659 69.0492 92.8227C69.3224 91.4795 69.0566 90.1096 68.2996 88.9676L68.1316 88.7128L70.6029 87.0761C72.3661 85.9083 74.4866 85.4504 76.5748 85.7855C79.5981 86.2711 82.6685 85.6064 85.2201 83.9161L105.718 70.342C105.578 72.12 105.347 73.8878 105.025 75.6261C104.834 76.6481 105.509 77.6303 106.531 77.8196C106.647 77.8417 106.763 77.8519 106.876 77.8519C107.765 77.8519 108.556 77.2186 108.724 76.313C109.245 73.5075 109.545 70.6337 109.623 67.7562L115.399 63.9307C117.342 62.6438 118.669 60.6765 119.132 58.3926C119.597 56.1078 119.143 53.7796 117.857 51.8364ZM75.9747 19.8425L70.2262 23.6496L69.0944 20.6004C68.6218 19.3283 68.0799 18.0811 67.4798 16.8607C70.3961 17.6002 73.2357 18.5972 75.9747 19.8425ZM16.3969 32.8858C24.0342 24.0816 34.4372 18.1633 45.8179 16.1111C47.6439 20.5349 48.0815 25.4775 46.9903 30.1883L42.4032 50.0057C41.6822 49.2358 40.7461 48.705 39.6919 48.4908C38.3477 48.2167 36.9787 48.4835 35.8368 49.2405L22.8433 57.8443C22.8424 57.8443 22.8424 57.8443 22.8415 57.8452C22.8415 57.8452 22.8405 57.8452 22.8405 57.8461L4.10044 70.2561C3.99797 68.9342 3.94443 67.6021 3.94443 66.2709C3.94443 54.0003 8.36728 42.1432 16.3969 32.8858ZM65.3621 92.0722C65.2892 92.4304 65.0805 92.7396 64.775 92.9418H64.7759L53.602 100.341L32.8633 69.4124C32.2844 68.5492 31.1157 68.3193 30.2526 68.8982C29.3903 69.477 29.1596 70.6448 29.7384 71.5079L50.4642 102.419L34.5129 112.983C18.6623 106.05 7.31949 91.4084 4.59249 74.3716L23.3547 61.9874L25.514 65.2092C25.8777 65.7502 26.4722 66.0428 27.0788 66.0428C27.4388 66.0428 27.8034 65.9404 28.1247 65.7243C28.9878 65.1455 29.2186 63.9768 28.6398 63.1137L26.4953 59.9149L37.9148 52.3773C38.2185 52.1752 38.5831 52.105 38.9413 52.1779C39.2995 52.2509 39.6088 52.4595 39.8109 52.7641L65.1627 91.0456C65.3639 91.3494 65.435 91.714 65.3621 92.0722ZM115.445 57.643C115.181 58.9428 114.427 60.0617 113.321 60.7938L106.718 65.1668C106.716 65.1677 106.714 65.1695 106.711 65.1705L83.1421 80.7792C81.3789 81.947 79.2584 82.4058 77.1702 82.0698C74.1478 81.5851 71.0774 82.2489 68.5248 83.9392L66.0535 85.5759L45.2899 54.2227L50.6571 31.0376C52.0391 25.0648 51.3107 18.7735 48.6779 13.2927C48.6539 13.2355 48.628 13.1801 48.5985 13.1256C48.0926 12.0898 47.5184 11.0845 46.8768 10.1152C45.6287 8.23011 46.1466 5.68127 48.0326 4.43224C49.626 3.37707 51.7788 3.57647 53.1506 4.90674L56.7444 8.39074C60.6318 12.16 63.6829 16.8349 65.5661 21.9104L67.5232 27.1825C67.5269 27.1927 67.5306 27.201 67.5343 27.2102C67.5389 27.2222 67.5444 27.2351 67.5491 27.2471C67.5629 27.2795 67.5758 27.309 67.5897 27.3339C67.6275 27.4133 67.6691 27.4918 67.7189 27.5666C68.2931 28.4334 69.46 28.6707 70.3259 28.0965L90.3926 14.8085C92.6746 13.2973 95.7607 13.9241 97.272 16.2062C98.7832 18.4882 98.1563 21.5743 95.8743 23.0856L94.1323 24.2395C94.1323 24.2395 94.1314 24.2395 94.1304 24.2404L90.2449 26.8142C90.2393 26.8179 90.2356 26.8216 90.2301 26.8243C90.208 26.84 90.1867 26.8548 90.1692 26.8696C89.366 27.4595 89.1583 28.5811 89.715 29.4212C90.2883 30.288 91.4561 30.5253 92.3229 29.9511L96.2113 27.3755C97.3163 26.6453 98.6392 26.3877 99.938 26.6517C101.237 26.9157 102.357 27.67 103.088 28.7759C103.82 29.8809 104.078 31.2056 103.814 32.5045C103.55 33.8043 102.796 34.9232 101.69 35.6553L96.0608 39.3839C95.1939 39.9572 94.9567 41.1241 95.5309 41.9909C95.8928 42.5374 96.491 42.8337 97.1012 42.8337C97.4575 42.8337 97.8185 42.7322 98.1379 42.5208L99.0093 41.9438L102.024 39.947C104.307 38.4358 107.393 39.0626 108.904 41.3447C110.415 43.6277 109.788 46.7128 107.506 48.225L104.694 50.087C104.679 50.0962 104.665 50.1064 104.65 50.1165L101.877 51.9527C101.01 52.526 100.773 53.6938 101.347 54.5606C101.709 55.1071 102.307 55.4035 102.917 55.4035C103.273 55.4035 103.634 55.3019 103.954 55.0905L104.825 54.5135C104.825 54.5135 104.825 54.5126 104.826 54.5126L107.841 52.5167C108.946 51.7847 110.27 51.5262 111.57 51.7911C112.87 52.0542 113.988 52.8094 114.721 53.9144C115.452 55.0194 115.709 56.3441 115.445 57.643Z" fill="#00AAE7"/>
</svg>
