<svg width="48" height="48" viewBox="0 0 48 48" fill="none" xmlns="http://www.w3.org/2000/svg">
<path d="M42.8438 7.5H41.4375V4.21875C41.4375 1.89253 39.545 0 37.2188 0C34.8925 0 33 1.89253 33 4.21875V5.37047C33 6.82772 32.0214 8.12512 30.6202 8.52544L29.25 8.91694V8.90625C29.25 8.12963 28.6204 7.5 27.8438 7.5H22.2188C21.4421 7.5 20.8125 8.12963 20.8125 8.90625V15.1875H4.21875C1.89253 15.1875 0 17.08 0 19.4062V46.5938C0 47.1124 0.285469 47.5889 0.742687 47.8336C0.950625 47.945 1.17862 48 1.40616 48C1.67897 48 1.95103 47.9207 2.18625 47.7638L7.45706 44.25H34.2188C36.545 44.25 38.4375 42.3575 38.4375 40.0312V25.3125H42.8438C45.6869 25.3125 48 22.9994 48 20.1562V12.6562C48 9.81309 45.6869 7.5 42.8438 7.5ZM23.625 10.3125H26.4375V22.5H23.625V10.3125ZM35.625 40.0312C35.625 40.8067 34.9942 41.4375 34.2188 41.4375H7.03125C6.75366 41.4375 6.48225 41.5197 6.25125 41.6737L2.8125 43.9662V19.4062C2.8125 18.6308 3.44334 18 4.21875 18H20.8125V23.9062C20.8125 24.6829 21.4421 25.3125 22.2188 25.3125H27.8438C28.5662 25.3125 29.1607 24.7674 29.2402 24.0663C30.493 24.8652 31.966 25.3125 33.4979 25.3125H35.625V40.0312ZM45.1875 20.1562C45.1875 21.4486 44.1361 22.5 42.8438 22.5H33.4979C31.7881 22.5 30.1912 21.6374 29.25 20.2269V11.842L31.3927 11.2298C33.9951 10.4863 35.8125 8.07684 35.8125 5.37047V4.21875C35.8125 3.44334 36.4433 2.8125 37.2188 2.8125C37.9942 2.8125 38.625 3.44334 38.625 4.21875V8.90625C38.625 9.68287 39.2546 10.3125 40.0312 10.3125H42.8438C44.1361 10.3125 45.1875 11.3639 45.1875 12.6562V20.1562Z" fill="#00AAE7"/>
<path d="M7.03125 26.4375H16.4062C17.1829 26.4375 17.8125 25.8079 17.8125 25.0312C17.8125 24.2546 17.1829 23.625 16.4062 23.625H7.03125C6.25462 23.625 5.625 24.2546 5.625 25.0312C5.625 25.8079 6.25462 26.4375 7.03125 26.4375Z" fill="#00AAE7"/>
<path d="M31.4062 29.25H7.03125C6.25462 29.25 5.625 29.8796 5.625 30.6562C5.625 31.4329 6.25462 32.0625 7.03125 32.0625H31.4062C32.1829 32.0625 32.8125 31.4329 32.8125 30.6562C32.8125 29.8796 32.1829 29.25 31.4062 29.25Z" fill="#00AAE7"/>
<path d="M31.4062 34.875H7.03125C6.25462 34.875 5.625 35.5046 5.625 36.2812C5.625 37.0579 6.25462 37.6875 7.03125 37.6875H31.4062C32.1829 37.6875 32.8125 37.0579 32.8125 36.2812C32.8125 35.5046 32.1829 34.875 31.4062 34.875Z" fill="#00AAE7"/>
</svg>
