<svg width="56" height="44" viewBox="0 0 56 44" fill="none" xmlns="http://www.w3.org/2000/svg">
<path d="M55.8938 34.1166C55.8938 31.9832 54.5256 30.1643 52.6209 29.4886V12.5567L56.0001 11.206L27.9637 0L0 11.206L13.2363 16.5102V24.2978C13.2363 26.6985 14.9194 28.8621 17.9754 30.3902C20.671 31.738 24.2184 32.4803 27.9645 32.4803C31.7106 32.4803 35.2582 31.738 37.9536 30.3902C41.0096 28.8621 42.6927 26.6986 42.6927 24.2978V16.5249L49.3477 13.8649V29.4888C47.443 30.1643 46.0748 31.9833 46.0748 34.1167C46.0748 36.0684 47.2196 37.7575 48.873 38.5482L46.1588 46.6909L49.2638 47.7259L50.9843 42.5646L52.7048 47.7259L55.8098 46.6909L53.0956 38.5482C54.7488 37.7573 55.8938 36.0683 55.8938 34.1166ZM39.4199 24.2977C39.4199 26.6152 34.521 29.2071 27.9646 29.2071C21.4083 29.2071 16.5094 26.6152 16.5094 24.2977V17.8217L27.9639 22.412L39.42 17.8329V24.2977H39.4199ZM27.9654 18.8867L8.79866 11.206L27.9654 3.52526L47.1815 11.206L27.9654 18.8867ZM50.9843 35.7531C50.082 35.7531 49.3478 35.019 49.3478 34.1166C49.3478 33.2143 50.082 32.4802 50.9843 32.4802C51.8866 32.4802 52.6208 33.2143 52.6208 34.1166C52.6208 35.019 51.8866 35.7531 50.9843 35.7531Z" fill="#00AAE7"/>
</svg>
