<svg width="48" height="42" viewBox="0 0 48 42" fill="none" xmlns="http://www.w3.org/2000/svg">
<path d="M47.0394 15.6658C46.0719 14.3104 44.5001 13.5011 42.8346 13.5011H41.1592V11.8136C41.1592 8.71143 38.6356 6.18787 35.5338 6.18787H21.6336C20.9572 6.18787 20.3309 5.82202 19.9992 5.23279L18.8723 3.22962C17.8814 1.46887 16.0027 0.375 13.9699 0.375H5.62537C2.52356 0.375 0 2.89343 0 5.98865V36.1853C0 39.2871 2.52356 41.8107 5.62537 41.8107H34.9918C38.1944 41.8107 41.0449 39.776 42.0853 36.7475C42.4219 35.7678 41.9008 34.7014 40.9212 34.3649C39.9419 34.0283 38.8751 34.5495 38.5386 35.5291C38.0182 37.043 36.5929 38.0607 34.9918 38.0607H10.9702C10.9761 38.0446 10.9823 38.0292 10.9878 38.0134L17.7927 18.2073C17.989 17.6353 18.5274 17.2511 19.1316 17.2511H42.8346C43.2979 17.2511 43.7183 17.4675 43.9871 17.8447C44.2562 18.2216 44.3244 18.6892 44.1738 19.1276L41.4529 27.0465C41.1163 28.0261 41.6378 29.0929 42.6171 29.4295C43.5967 29.766 44.6635 29.2445 44.9997 28.2653L47.7206 20.346C48.2619 18.7709 48.007 17.0211 47.0394 15.6658ZM14.2456 16.9885L7.44068 36.7947C7.18067 37.5517 6.46802 38.0607 5.66748 38.0607H5.62537C4.59155 38.0607 3.75037 37.2195 3.75037 36.1853V5.98865C3.75037 4.96106 4.59155 4.12537 5.62537 4.12537H13.9699C14.6503 4.12537 15.2761 4.48682 15.6039 5.06909L16.7311 7.0719C17.7261 8.83997 19.6047 9.93824 21.6336 9.93824H35.5338C36.568 9.93824 37.4092 10.7794 37.4092 11.8132V13.5011H19.1316C16.9259 13.5011 14.9627 14.9026 14.2456 16.9885Z" fill="#00AAE7"/>
</svg>
