<svg width="67" height="67" viewBox="0 0 67 67" fill="none" xmlns="http://www.w3.org/2000/svg">
<circle cx="33.5" cy="33.5" r="33.5" fill="#00AAE7"/>
<g clip-path="url(#clip0)">
<path d="M48.8104 17.2747C48.4444 16.9084 47.8506 16.9084 47.4847 17.2747L40.2593 24.5H23.875C22.3242 24.5 21.0625 25.7617 21.0625 27.3125V40.4373C21.0625 41.9883 22.3242 43.2498 23.875 43.2498H24.875V48.0623C24.875 48.4434 25.1057 48.7866 25.4585 48.9304C25.8164 49.0764 26.22 48.9864 26.4827 48.718L31.8318 43.2498H42.7501C44.3008 43.2498 45.5626 41.9883 45.5626 40.4373V29.8032L52.7879 22.5779C53.1539 22.2117 53.1539 21.6182 52.7879 21.252L48.8104 17.2747ZM40.1924 32.5215L37.5408 29.8699L45.4959 21.915L48.1475 24.5667L40.1924 32.5215ZM36.542 31.5227L38.5396 33.5203L35.1158 34.9465L36.542 31.5227ZM43.6876 40.4373C43.6876 40.9544 43.2669 41.3748 42.7501 41.3748H31.4375C31.1853 41.3748 30.9436 41.4766 30.7674 41.6568L26.75 45.7635V42.3123C26.75 41.7947 26.3304 41.3748 25.8125 41.3748H23.875C23.3582 41.3748 22.9375 40.9544 22.9375 40.4373V27.3125C22.9375 26.7954 23.3582 26.375 23.875 26.375H38.3841L35.552 29.207C35.4739 29.2852 35.3965 29.3928 35.345 29.5203L32.75 35.75H27.6875C27.1697 35.75 26.75 36.1697 26.75 36.6875C26.75 37.2051 27.1697 37.6243 27.6875 37.6243H33.3746H33.3753C33.4959 37.6243 33.6253 37.5996 33.7437 37.5488L40.542 34.7173C40.6553 34.6731 40.7696 34.5962 40.8555 34.5103L43.6876 31.6782V40.4373ZM49.4732 23.2407L46.8216 20.5891L48.1475 19.2634L50.7991 21.915L49.4732 23.2407Z" fill="white"/>
</g>
<defs>
<clipPath id="clip0">
<rect width="32" height="32" fill="white" transform="translate(21 17)"/>
</clipPath>
</defs>
</svg>
