<svg width="67" height="67" viewBox="0 0 67 67" fill="none" xmlns="http://www.w3.org/2000/svg">
<circle cx="33.5" cy="33.5" r="33.5" fill="#00AAE7"/>
<g clip-path="url(#clip0)">
<path d="M48.2921 25.7677L48.291 25.7396C48.2754 25.3938 48.2649 25.028 48.2586 24.621C48.2292 22.636 46.6513 20.9941 44.6661 20.8831C40.527 20.6522 37.3251 19.3025 34.5892 16.6358L34.5659 16.6136C33.6735 15.7954 32.3274 15.7954 31.4348 16.6136L31.4114 16.6358C28.6756 19.3025 25.4736 20.6522 21.3345 20.8834C19.3496 20.9941 17.7714 22.636 17.742 24.6212C17.7359 25.0255 17.7252 25.3914 17.7096 25.7396L17.7079 25.8047C17.6275 30.0254 17.5275 35.2782 19.2847 40.046C20.251 42.6679 21.7144 44.947 23.6339 46.8204C25.8202 48.954 28.6838 50.6478 32.145 51.8546C32.2576 51.8939 32.3746 51.9258 32.4938 51.9496C32.6619 51.9832 32.8311 51.9999 33.0003 51.9999C33.1695 51.9999 33.339 51.9832 33.5068 51.9496C33.626 51.9258 33.7438 51.8936 33.857 51.8541C37.3141 50.645 40.1746 48.9504 42.359 46.8171C44.2777 44.9431 45.7411 42.6635 46.7082 40.041C48.472 35.259 48.3723 29.9963 48.2921 25.7677ZM44.7263 39.3102C42.8729 44.3353 39.0895 47.7864 33.1599 49.8601C33.1387 49.8672 33.1162 49.8735 33.0929 49.8782C33.0316 49.8903 32.9693 49.8903 32.9072 49.8779C32.8841 49.8732 32.8616 49.8672 32.8407 49.8601C26.9048 47.7902 23.119 44.3411 21.2669 39.3157C19.6473 34.9209 19.739 30.099 19.82 25.8451L19.8206 25.8215C19.8371 25.4559 19.8481 25.073 19.8541 24.6523C19.8673 23.7709 20.5693 23.0417 21.4523 22.9925C23.7946 22.8618 25.8524 22.4091 27.7431 21.6088C29.6314 20.8095 31.3084 19.6829 32.8696 18.1646C32.9489 18.0976 33.0519 18.0973 33.131 18.1646C34.6925 19.6829 36.3695 20.8095 38.2575 21.6088C40.1483 22.4091 42.206 22.8618 44.5486 22.9925C45.4316 23.0417 46.1336 23.7709 46.1465 24.6525C46.1528 25.0755 46.1638 25.4584 46.1803 25.8215C46.261 30.0803 46.3506 34.9061 44.7263 39.3102Z" fill="white"/>
<path d="M32.9998 25.0288C28.0527 25.0288 24.0281 29.0537 24.0281 34.0005C24.0281 38.9477 28.0527 42.9725 32.9998 42.9725C37.9467 42.9725 41.9716 38.9477 41.9716 34.0005C41.9716 29.0537 37.9467 25.0288 32.9998 25.0288ZM32.9998 40.8598C29.2175 40.8598 26.1405 37.7828 26.1405 34.0005C26.1405 30.2182 29.2175 27.1412 32.9998 27.1412C36.7819 27.1412 39.8589 30.2182 39.8589 34.0005C39.8589 37.7828 36.7819 40.8598 32.9998 40.8598Z" fill="white"/>
<path d="M35.5783 31.2152L31.4112 35.3824L30.2802 34.2513C29.8676 33.8388 29.1988 33.8388 28.7863 34.2513C28.374 34.6639 28.374 35.3326 28.7863 35.7449L30.6644 37.623C30.8707 37.8293 31.141 37.9323 31.4112 37.9323C31.6815 37.9323 31.9517 37.8293 32.158 37.623L37.0722 32.7088C37.4845 32.2963 37.4845 31.6275 37.0722 31.2152C36.6597 30.8024 35.9909 30.8024 35.5783 31.2152Z" fill="white"/>
</g>
<defs>
<clipPath id="clip0">
<rect width="36" height="36" fill="white" transform="translate(15 16)"/>
</clipPath>
</defs>
</svg>
