<svg xmlns="http://www.w3.org/2000/svg">

    <symbol id="i-cloud" viewBox="0 0 34 29" fill="none">
      <g>
        <path d="M11.1848 21.3606L16.9973 27.173L22.8097 21.3606" stroke-width="2" stroke-linecap="round" stroke-linejoin="round"/>
				<path d="M16.9973 14.095V27.173" stroke-width="2" stroke-linecap="round" stroke-linejoin="round"/>
				<path d="M29.9008 22.9444C31.1642 22.056 32.1116 20.7882 32.6055 19.3249C33.0994 17.8616 33.1143 16.279 32.6478 14.8067C32.1813 13.3344 31.2579 12.0491 30.0114 11.1372C28.7649 10.2253 27.2603 9.73438 25.7159 9.73559H23.885C23.4479 8.03236 22.6302 6.45047 21.4933 5.109C20.3565 3.76754 18.9301 2.70146 17.3216 1.99103C15.7131 1.28059 13.9644 0.944316 12.2071 1.00751C10.4498 1.0707 8.72979 1.53173 7.17647 2.35586C5.62315 3.18 4.27704 4.34579 3.23947 5.76545C2.20189 7.18511 1.4999 8.82165 1.18633 10.5519C0.87276 12.2821 0.955791 14.0609 1.42917 15.7544C1.90255 17.4479 2.75394 19.0119 3.91925 20.3288" stroke-width="2" stroke-linecap="round" stroke-linejoin="round"/>
	    </g>
    </symbol>

		<symbol id="swiper-arrow" viewBox="0 0 12 20">
      <g>
        <path d="M9.57625 0.371582L0.576248 9.37158C0.14003 9.8104 0.14003 10.519 0.576248 10.9578L9.57625 19.9578L11.1625 18.3603L2.96125 10.1591L11.1625 1.95783L9.57625 0.371582Z" />
	    </g>
    </symbol>

		<symbol id="advan-s-1" viewBox="0 0 138 138" fill="none">
      <g>
        <path d="M136.235 64.4571C136.319 65.8859 136.403 67.3147 136.403 68.7436C136.403 106.145 106.145 136.403 68.7436 136.403C31.3417 136.403 1 106.061 1 68.6595C1 31.2577 31.2577 1 68.6595 1" stroke="#2B2F2B" stroke-width="2" stroke-miterlimit="10" stroke-linecap="round"/>
				<path d="M34.2834 17.8098C35.3761 17.1374 36.3847 16.3809 37.5613 15.7926C66.7264 -1.43747 104.38 8.31223 121.61 37.5613C138.84 66.8104 129.091 104.38 99.8417 121.61C70.5926 138.84 33.0227 129.091 15.7926 99.8417" stroke="#00AAE7" stroke-width="2" stroke-miterlimit="10" stroke-linecap="round"/>
				<path d="M119.761 88.9995C119.341 90.0921 118.837 91.1007 118.417 92.1934C105.389 119.677 72.6098 131.444 45.1258 118.417C17.6417 105.389 5.95889 72.6099 18.9025 45.1259C31.846 17.6418 64.7092 5.87497 92.1932 18.9026" stroke="#2B2F2B" stroke-width="2" stroke-miterlimit="10" stroke-linecap="round"/>
				<g clip-path="url(#clip0)">
				<path d="M47.6369 60.206C48.5411 60.206 49.2737 59.4731 49.2737 58.5691V51.5899L59.8163 62.1303C60.136 62.4498 60.5548 62.6095 60.9737 62.6095C61.3927 62.6095 61.8117 62.4498 62.1312 62.13C62.7705 61.4908 62.7705 60.4543 62.131 59.8153L51.5881 49.2747H58.5688C59.4728 49.2747 60.2056 48.5418 60.2056 47.6378C60.2056 46.7339 59.473 46.001 58.5688 46.001H47.6369C46.7327 46.001 46 46.7339 46 47.6378V58.5693C46 59.4731 46.7327 60.206 47.6369 60.206Z" fill="#ECECEC"/>
				<path d="M91.3631 78.7945C90.4589 78.7945 89.7263 79.5273 89.7263 80.4313V87.4107L78.8592 76.5436C78.2197 75.9044 77.1835 75.9044 76.5442 76.5436C75.905 77.1829 75.905 78.2194 76.5442 78.8584L87.4111 89.7253H80.4321C79.5279 89.7253 78.7952 90.4581 78.7952 91.3621C78.7952 92.2661 79.5279 92.999 80.4321 92.999H91.3633C92.2675 92.999 93.0002 92.2661 93.0002 91.3621V80.4313C93 79.5273 92.2671 78.7945 91.3631 78.7945Z" fill="#ECECEC"/>
				<path d="M60.1408 76.5439L49.2748 87.4108V80.4316C49.2748 79.5276 48.5422 78.7947 47.638 78.7947C46.7337 78.7947 46.0011 79.5276 46.0011 80.4316V91.3628C46.0011 92.2668 46.7337 92.9997 47.638 92.9997H58.5688C59.4727 92.9997 60.2056 92.2668 60.2056 91.3628C60.2056 90.4588 59.473 89.726 58.5688 89.726H51.5896L62.4558 78.8587C63.095 78.2194 63.095 77.183 62.4556 76.5437C61.8167 75.9047 60.7803 75.9047 60.1408 76.5439Z" fill="#00AAE7"/>
				<path d="M91.3631 46.0005H80.4319C79.5277 46.0005 78.795 46.7334 78.795 47.6374C78.795 48.5413 79.5277 49.2742 80.4319 49.2742H87.4113L76.8703 59.8159C76.231 60.4551 76.231 61.4916 76.8705 62.1309C77.19 62.4504 77.609 62.6101 78.0278 62.6101C78.4467 62.6101 78.8657 62.4502 79.1854 62.1306L89.7265 51.589V58.5686C89.7265 59.4726 90.4591 60.2055 91.3633 60.2055C92.2675 60.2055 93.0002 59.4726 93.0002 58.5686V47.6374C93 46.7332 92.2671 46.0005 91.3631 46.0005Z" fill="#00AAE7"/>
				</g>
				<defs>
				<clipPath id="clip0">
				<rect width="47" height="47" fill="white" transform="translate(46 46)"/>
				</clipPath>
				</defs>
	    </g>
    </symbol>

		<symbol id="advan-s-2" viewBox="0 0 138 138" fill="none">
      <g>
        <path d="M68.6324 47.9398C71.5973 47.9398 74.001 45.5362 74.001 42.5712C74.001 39.6063 71.5973 37.2026 68.6324 37.2026C65.6674 37.2026 63.2638 39.6063 63.2638 42.5712C63.2638 45.5362 65.6673 47.9398 68.6324 47.9398ZM68.6324 39.8869C70.1149 39.8869 71.3167 41.0887 71.3167 42.5712C71.3167 44.0538 70.1149 45.2555 68.6324 45.2555C67.1498 45.2555 65.9481 44.0538 65.9481 42.5712C65.9481 41.0887 67.1498 39.8869 68.6324 39.8869Z" fill="#00AAE7"/>
				<path d="M70.5824 48.8105C70.5586 48.8109 70.535 48.8116 70.5114 48.8122H66.7534C62.7151 48.7003 59.3509 51.8834 59.239 55.9216C59.2383 55.9453 59.2378 55.969 59.2373 55.9927V57.0664C59.2373 57.8045 59.9755 58.2072 60.7137 58.2072H76.551C77.2892 58.2072 78.0273 57.8045 78.0273 57.0664V55.9927C77.9546 51.9535 74.6214 48.738 70.5824 48.8105ZM62.0558 55.5228C62.1901 53.5096 64.2704 51.4964 66.7533 51.4964H70.5113C72.9943 51.4964 75.0746 53.5095 75.2087 55.5228H62.0558Z" fill="#00AAE7"/>
				<path d="M46.8225 71.2932C47.5638 71.2932 48.1647 70.6923 48.1647 69.9511C48.1604 63.7424 50.9744 57.8675 55.8149 53.9796C56.3459 53.4623 56.3569 52.6126 55.8396 52.0816C55.3897 51.6197 54.6748 51.5432 54.1372 51.8992C48.6567 56.2871 45.4709 62.9304 45.4804 69.9511C45.4804 70.6923 46.0812 71.2932 46.8225 71.2932Z" fill="#ECECEC"/>
				<path d="M75.1731 89.3333C75.1626 89.337 75.152 89.3408 75.1416 89.3448C70.939 90.7516 66.3926 90.7516 62.1899 89.3448C61.486 89.1254 60.7369 89.515 60.5123 90.2172C60.2573 90.8736 60.5828 91.6124 61.2391 91.8674C61.265 91.8774 61.291 91.8867 61.3175 91.8949C66.0839 93.5057 71.2476 93.5057 76.0139 91.8949C76.7253 91.6411 77.1101 90.8715 76.8863 90.1501C76.639 89.4516 75.8719 89.0857 75.1731 89.3333Z" fill="#ECECEC"/>
				<path d="M80.4432 53.2413C85.879 57.0681 89.1093 63.3033 89.1001 69.951C89.1001 70.6922 89.7009 71.2931 90.4422 71.2931C91.1835 71.2931 91.7843 70.6922 91.7843 69.951C91.7657 62.4309 88.1167 55.3827 81.9866 51.0267C81.3751 50.6005 80.5339 50.7507 80.1076 51.3622C79.6814 51.9737 79.8317 52.8151 80.4432 53.2413Z" fill="#ECECEC"/>
				<path d="M48.5002 84.8487C51.4651 84.8487 53.8688 82.4451 53.8688 79.4802C53.8688 76.5152 51.4651 74.1116 48.5002 74.1116C45.5352 74.1116 43.1316 76.5151 43.1316 79.4802C43.1316 82.4452 45.5352 84.8487 48.5002 84.8487ZM48.5002 76.7959C49.9827 76.7959 51.1845 77.9976 51.1845 79.4802C51.1845 80.9627 49.9827 82.1644 48.5002 82.1644C47.0176 82.1644 45.8159 80.9627 45.8159 79.4802C45.8159 77.9976 47.0176 76.7959 48.5002 76.7959Z" fill="#00AAE7"/>
				<path d="M50.4502 85.7195C50.4265 85.7199 50.4028 85.7205 50.3792 85.7211H46.6211C42.5828 85.6093 39.2185 88.7923 39.1067 92.8306C39.106 92.8542 39.1055 92.878 39.105 92.9016V93.9753C39.105 94.7135 39.8432 95.1162 40.5814 95.1162H56.4187C57.1568 95.1162 57.895 94.7135 57.895 93.9753V92.9016C57.8226 88.8624 54.4894 85.6469 50.4502 85.7195ZM41.9236 92.4317C42.0579 90.4186 44.1382 88.4053 46.6211 88.4053H50.3791C52.8621 88.4053 54.9424 90.4185 55.0765 92.4317H41.9236Z" fill="#00AAE7"/>
				<path d="M83.3958 79.4802C83.3958 82.4451 85.7994 84.8487 88.7643 84.8487C91.7293 84.8487 94.1329 82.4451 94.1329 79.4802C94.1329 76.5152 91.7293 74.1116 88.7643 74.1116C85.7994 74.1116 83.3958 76.5151 83.3958 79.4802ZM91.4486 79.4802C91.4486 80.9627 90.2469 82.1644 88.7643 82.1644C87.2818 82.1644 86.08 80.9627 86.08 79.4802C86.08 77.9976 87.2818 76.7959 88.7643 76.7959C90.2469 76.7959 91.4486 77.9976 91.4486 79.4802Z" fill="#00AAE7"/>
				<path d="M90.7145 85.7195C90.6907 85.7199 90.6671 85.7205 90.6435 85.7211H86.8855C82.8472 85.6093 79.4829 88.7923 79.3711 92.8306C79.3704 92.8542 79.3699 92.878 79.3694 92.9016V93.9753C79.3694 94.7135 80.1076 95.1162 80.8458 95.1162H96.6831C97.4212 95.1162 98.1594 94.7135 98.1594 93.9753V92.9016C98.0869 88.8624 94.7537 85.6469 90.7145 85.7195ZM82.1879 92.4317C82.3221 90.4186 84.4025 88.4053 86.8854 88.4053H90.6433C93.1263 88.4053 95.2067 90.4185 95.3408 92.4317H82.1879Z" fill="#00AAE7"/>
				<path d="M136.235 64.4571C136.319 65.8859 136.403 67.3147 136.403 68.7436C136.403 106.145 106.145 136.403 68.7436 136.403C31.3417 136.403 1 106.061 1 68.6595C1 31.2577 31.2577 1 68.6595 1" stroke="#2B2F2B" stroke-width="2" stroke-miterlimit="10" stroke-linecap="round"/>
				<path d="M34.2834 17.8098C35.376 17.1374 36.3846 16.3809 37.5613 15.7926C66.7263 -1.43747 104.38 8.31223 121.61 37.5613C138.84 66.8104 129.091 104.38 99.8417 121.61C70.5926 138.84 33.0227 129.091 15.7926 99.8417" stroke="#00AAE7" stroke-width="2" stroke-miterlimit="10" stroke-linecap="round"/>
				<path d="M119.761 88.9995C119.341 90.0921 118.837 91.1007 118.417 92.1934C105.389 119.677 72.6098 131.444 45.1258 118.417C17.6417 105.389 5.95889 72.6099 18.9025 45.1259C31.846 17.6418 64.7092 5.87497 92.1932 18.9026" stroke="#2B2F2B" stroke-width="2" stroke-miterlimit="10" stroke-linecap="round"/>
	    </g>
    </symbol>

		<symbol id="advan-s-3" viewBox="0 0 138 138" fill="none">
      <g>
				<path d="M136.235 64.4571C136.319 65.8859 136.403 67.3147 136.403 68.7436C136.403 106.145 106.145 136.403 68.7436 136.403C31.3417 136.403 1 106.061 1 68.6595C1 31.2577 31.2577 1 68.6595 1" stroke="#2B2F2B" stroke-width="2" stroke-miterlimit="10" stroke-linecap="round"/>
				<path d="M34.2834 17.8098C35.376 17.1374 36.3846 16.3809 37.5613 15.7926C66.7263 -1.43747 104.38 8.31223 121.61 37.5613C138.84 66.8104 129.091 104.38 99.8417 121.61C70.5926 138.84 33.0227 129.091 15.7926 99.8417" stroke="#00AAE7" stroke-width="2" stroke-miterlimit="10" stroke-linecap="round"/>
				<path d="M119.761 88.9995C119.341 90.0921 118.837 91.1007 118.417 92.1934C105.389 119.677 72.6098 131.444 45.1258 118.417C17.6417 105.389 5.95889 72.6099 18.9025 45.1259C31.846 17.6418 64.7092 5.87497 92.1932 18.9026" stroke="#2B2F2B" stroke-width="2" stroke-miterlimit="10" stroke-linecap="round"/>
				<path d="M87.7743 64.0613L71.9655 48.2277C70.3312 46.5908 67.6717 46.5907 66.0373 48.2277C64.568 49.6992 64.4415 51.9433 65.5264 53.5458L65.5045 53.656C64.3647 59.3642 61.5899 64.5572 57.4799 68.6736L50.2288 75.936C48.5905 77.5769 48.5903 80.2326 50.2288 81.8735L54.1809 85.8318C55.8191 87.4726 58.4708 87.4727 60.1091 85.8318L61.0972 84.8422L68.0135 91.7693C69.6518 93.4102 72.3032 93.4103 73.9416 91.7693C75.5761 90.1324 75.5761 87.4688 73.9416 85.8319L70.9775 82.8631L71.9656 81.8735C73.6038 80.2328 73.604 77.5771 71.9656 75.9361L71.2941 75.2635C74.5972 72.9473 78.3485 71.3347 82.3545 70.5322L82.466 70.5099C84.1016 71.6159 86.337 71.4381 87.7743 69.9986H87.7744C89.4086 68.3618 89.4086 65.6983 87.7743 64.0613ZM58.1331 83.8526C57.587 84.3994 56.703 84.3995 56.1569 83.8525L52.2049 79.8943C51.6587 79.3472 51.6587 78.4621 52.2049 77.9151L59.1211 70.988L65.0493 76.9255C64.3726 77.6032 58.8264 83.1581 58.1331 83.8526ZM71.9655 87.8109C72.5102 88.3565 72.5102 89.2444 71.9655 89.79C71.4208 90.3356 70.5342 90.3356 69.9894 89.79L63.0731 82.8629L65.0493 80.8838L71.9655 87.8109ZM67.0253 78.9047C67.4454 78.4839 68.0741 77.8395 69.0665 76.9907L69.9894 77.9151C70.5356 78.4621 70.5356 79.3472 69.9894 79.8943L69.0014 80.8839L67.0253 78.9047ZM67.0847 75.0059L61.0376 68.9493C64.2782 65.2015 66.5989 60.7775 67.8405 55.9712L80.0425 68.1923C75.2438 69.4357 70.8267 71.7601 67.0847 75.0059ZM85.798 68.0194C85.2518 68.5662 84.368 68.5662 83.8219 68.0194L68.0133 52.186C67.4672 51.6389 67.4672 50.7538 68.0133 50.2069C68.5594 49.6599 69.4433 49.6599 69.9894 50.2069L85.798 66.0401C86.3427 66.5858 86.3427 67.4736 85.798 68.0194Z" fill="#00AAE7"/>
				<path d="M58.0002 77.2866C57.337 76.6232 56.2613 76.6232 55.5979 77.2866L53.1955 79.6889C52.5322 80.3523 52.5322 81.4279 53.1955 82.0913C53.8588 82.7547 54.9346 82.7547 55.5979 82.0913L58.0002 79.6889C58.6636 79.0256 58.6636 77.95 58.0002 77.2866Z" fill="#00AAE7"/>
				<path d="M80.2168 40C79.2786 40 78.5181 40.7606 78.5181 41.6988V45.0963C78.5181 46.0345 79.2786 46.795 80.2168 46.795C81.155 46.795 81.9156 46.0345 81.9156 45.0963V41.6988C81.9156 40.7606 81.155 40 80.2168 40Z" fill="#ECECEC"/>
				<path d="M93.8067 53.5898H90.4092C89.471 53.5898 88.7104 54.3504 88.7104 55.2886C88.7104 56.2268 89.471 56.9874 90.4092 56.9874H93.8067C94.7449 56.9874 95.5055 56.2268 95.5055 55.2886C95.5055 54.3504 94.7448 53.5898 93.8067 53.5898Z" fill="#ECECEC"/>
				<path d="M91.6105 43.895C90.9473 43.2316 89.8715 43.2316 89.2082 43.895L85.8106 47.2925C85.1473 47.9559 85.1473 49.0315 85.8106 49.6949C86.4739 50.3582 87.5496 50.3584 88.213 49.6949L91.6105 46.2973C92.2739 45.634 92.2739 44.5585 91.6105 43.895Z" fill="#ECECEC"/>
	    </g>
    </symbol>

		<symbol id="advan-s-4" viewBox="0 0 138 138" fill="none">
      <g>
				<path d="M136.235 64.4571C136.319 65.8859 136.403 67.3147 136.403 68.7436C136.403 106.145 106.145 136.403 68.7436 136.403C31.3417 136.403 1 106.061 1 68.6595C1 31.2577 31.2577 1 68.6595 1" stroke="#2B2F2B" stroke-width="2" stroke-miterlimit="10" stroke-linecap="round"/>
				<path d="M34.2835 17.8098C35.3762 17.1374 36.3847 16.3809 37.5614 15.7926C66.7265 -1.43747 104.38 8.31223 121.61 37.5613C138.841 66.8104 129.091 104.38 99.8418 121.61C70.5927 138.84 33.0228 129.091 15.7927 99.8417" stroke="#00AAE7" stroke-width="2" stroke-miterlimit="10" stroke-linecap="round"/>
				<path d="M119.761 88.9995C119.341 90.0921 118.837 91.1007 118.417 92.1934C105.389 119.677 72.6098 131.444 45.1258 118.417C17.6417 105.389 5.95889 72.6099 18.9025 45.1259C31.846 17.6418 64.7092 5.87497 92.1932 18.9026" stroke="#2B2F2B" stroke-width="2" stroke-miterlimit="10" stroke-linecap="round"/>
				<path d="M58.1241 86.0495C60.9139 86.8377 64.5987 87.2718 68.4998 87.2718C72.4008 87.2718 76.0857 86.8378 78.8755 86.0495C82.2886 85.0854 84.0192 83.6897 84.0192 81.9015C84.0192 80.1132 82.2886 78.7176 78.8755 77.7535C77.3158 77.3129 75.4757 76.9836 73.4751 76.7783C77.3928 70.0914 81.2752 62.5199 81.2752 58.7753C81.2752 51.731 75.5442 46 68.4998 46C61.4553 46 55.7244 51.731 55.7244 58.7753C55.7244 62.5198 59.6067 70.0911 63.5244 76.778C61.5238 76.9834 59.6839 77.3128 58.1242 77.7535C54.7111 78.7176 52.9805 80.1133 52.9805 81.9015C52.9804 83.6897 54.711 85.0854 58.1241 86.0495ZM68.4998 48.7486C74.0286 48.7486 78.5266 53.2465 78.5266 58.7753C78.5266 61.6151 75.0128 69.0594 69.1274 78.6888C68.933 79.0069 68.6236 79.0411 68.4997 79.0411C68.3758 79.0411 68.0664 79.0069 67.872 78.6888C61.9866 69.0594 58.4728 61.6152 58.4728 58.7753C58.473 53.2465 62.9709 48.7486 68.4998 48.7486ZM59.3704 80.2645C61.009 79.8472 62.9723 79.5543 65.0886 79.4019C65.2355 79.6442 65.3816 79.8844 65.5268 80.122C66.165 81.1662 67.2764 81.7895 68.4997 81.7895C69.7231 81.7895 70.8343 81.1661 71.4725 80.122C71.6178 79.8843 71.764 79.6441 71.9109 79.4018C74.0272 79.5542 75.9904 79.8472 77.6291 80.2645C80.1409 80.9043 81.0586 81.6245 81.2472 81.9014C81.0585 82.1784 80.141 82.8986 77.6292 83.5383C75.1359 84.1734 71.8936 84.5231 68.4997 84.5231C65.1057 84.5231 61.8634 84.1734 59.3703 83.5383C56.8584 82.8986 55.9409 82.1783 55.7522 81.9014C55.941 81.6245 56.8585 80.9044 59.3704 80.2645Z" fill="#00AAE7"/>
				<path d="M91.5725 77.8327C90.7833 77.4112 89.7924 77.6915 89.3591 78.4585C88.9256 79.2257 89.2138 80.1892 90.0028 80.6105C91.9445 81.6476 93.0581 82.7973 93.0581 83.7648C93.0581 84.9482 91.3336 86.7823 86.4933 88.3811C81.7115 89.9608 75.3213 90.8306 68.4998 90.8306C61.6784 90.8306 55.2881 89.9608 50.5063 88.3811C45.6661 86.7824 43.9416 84.9482 43.9416 83.7648C43.9416 82.7973 45.0552 81.6476 46.9968 80.6104C47.7858 80.1891 48.074 79.2256 47.6405 78.4584C47.2071 77.6914 46.2164 77.4111 45.4271 77.8326C43.2623 78.9889 40.6816 80.9567 40.6816 83.7648C40.6816 85.9173 42.2043 88.9863 49.4576 91.3822C54.5683 93.0704 61.331 94.0001 68.4998 94.0001C75.6687 94.0001 82.4313 93.0704 87.542 91.3822C94.7954 88.9863 96.318 85.9173 96.318 83.7648C96.318 80.9567 93.7373 78.9889 91.5725 77.8327Z" fill="#ECECEC"/>
				<path d="M73.6347 57.8982C73.6347 55.0669 71.3311 52.7634 68.4997 52.7634C65.6683 52.7634 63.3647 55.0669 63.3647 57.8982C63.3647 60.7296 65.6683 63.0331 68.4997 63.0331C71.3311 63.0331 73.6347 60.7297 73.6347 57.8982ZM66.1133 57.8982C66.1133 56.5825 67.1839 55.512 68.4997 55.512C69.8156 55.512 70.8861 56.5825 70.8861 57.8982C70.8861 59.214 69.8156 60.2845 68.4997 60.2845C67.1839 60.2845 66.1133 59.2141 66.1133 57.8982Z" fill="#00AAE7"/>
	    </g>
    </symbol>

</svg>
