<svg width="24" height="22" viewBox="0 0 24 22" fill="none" xmlns="http://www.w3.org/2000/svg">
<path d="M10.0684 13.1119C10.0684 13.7959 10.6684 14.3359 11.4004 14.3359C12.1324 14.3359 12.7324 13.7839 12.7324 13.1119C12.7324 12.4279 12.1324 11.8879 11.4004 11.8879C10.6684 11.8759 10.0684 12.4279 10.0684 13.1119ZM10.0684 8.73194C10.0684 9.41594 10.6684 9.95594 11.4004 9.95594C12.1324 9.95594 12.7324 9.40394 12.7324 8.73194C12.7324 8.04794 12.1324 7.50794 11.4004 7.50794C10.6684 7.50794 10.0684 8.04794 10.0684 8.73194Z" fill="#9097A6"/>
<path d="M0 2.89945L0 18.9795C0 20.3355 1.104 21.4395 2.472 21.4395H18.696C20.064 21.4395 21.168 20.3355 21.168 18.9795V5.37145L18.948 6.00745L20.376 4.47145L21.72 3.01945L24 0.439454H2.472C1.104 0.439454 0 1.54345 0 2.89945ZM15.672 7.53145C15.672 7.53145 15.156 7.96345 14.7 8.32345C14.256 6.75145 13.272 6.15145 13.272 6.15145C13.596 6.64345 13.824 7.11145 13.98 7.53145C14.232 8.13145 14.4 8.70745 14.496 9.27145C14.712 10.4235 14.652 11.4795 14.484 12.3795C14.352 13.0635 14.16 13.6515 13.968 14.1435C13.86 14.4195 13.728 14.7195 13.56 15.0195C13.536 15.0555 13.524 15.0915 13.5 15.1275C13.488 15.1515 13.476 15.1635 13.464 15.1755C13.344 15.3915 13.26 15.5115 13.26 15.5115C13.26 15.5115 14.22 14.9355 14.676 13.4115C15.132 13.7715 15.672 14.2155 15.672 14.2155C15.588 16.8675 13.848 17.8755 13.848 17.8755C9.984 17.8755 6.852 16.1475 6.852 16.1475C5.556 14.4195 5.592 12.7755 5.592 12.7755L5.736 12.6555C6.36 14.8155 7.308 15.8115 7.308 15.8115C7.308 15.8115 7.164 15.5475 6.96 15.1035C6.396 13.8195 6.24 12.7995 6.204 12.3795C6.192 12.3075 6.18 12.2475 6.18 12.1755C6.084 11.4435 6.06 10.6155 6.156 9.75145C6.288 8.61145 6.624 7.38745 7.308 6.13945C7.308 6.13945 6.408 7.08745 5.784 9.12745L5.592 8.95945C5.592 8.95945 5.556 7.31545 6.852 5.58745C6.852 5.58745 9.984 3.85945 13.848 3.85945C13.848 3.85945 15.588 4.87945 15.672 7.53145V7.53145Z" fill="#9097A6"/>
</svg>
