<svg width="23" height="23" viewBox="0 0 23 23" fill="none" xmlns="http://www.w3.org/2000/svg">
<path d="M-5.02681e-07 11.5C-2.25044e-07 17.8516 5.14842 23 11.5 23C17.8516 23 23 17.8516 23 11.5C23 5.14842 17.8516 1.21963e-06 11.5 1.49726e-06C5.14842 1.7749e-06 -7.80317e-07 5.14842 -5.02681e-07 11.5ZM6.37956 7.53111C6.37956 7.60154 6.37956 7.66088 6.37956 7.71974C6.38825 8.24751 6.39114 8.77479 6.40947 9.30208C6.42636 9.79705 6.69603 10.1285 7.16639 10.2491C7.28195 10.2791 7.40065 10.2953 7.52001 10.2973C8.1187 10.3026 8.71738 10.3012 9.31607 10.3017C9.3537 10.3017 9.39181 10.2944 9.44247 10.2896L9.44247 7.61264C10.3624 7.73131 11.2675 7.84806 12.187 7.96722L12.187 10.3021L12.3824 10.3021C13.8094 10.3021 15.2362 10.3021 16.6629 10.3021C17.4962 10.3021 18.3292 10.301 19.1618 10.2988L19.1618 13.1378C19.1078 13.133 19.0538 13.1238 18.9997 13.1238C16.7845 13.1238 14.5693 13.1238 12.3544 13.1238C12.3008 13.1238 12.2478 13.1282 12.187 13.1311L12.187 15.4689L9.4333 15.4689L9.4333 13.1234C8.7994 13.1234 8.18575 13.1359 7.57259 13.1185C7.18444 13.1118 6.79737 13.0753 6.41478 13.0095C5.75545 12.8973 5.15176 12.5701 4.69783 12.0789C4.1223 11.4571 3.87772 10.7011 3.84298 9.87472C3.82272 9.34839 3.85215 8.81966 3.87048 8.29285C3.87965 8.0362 3.91534 7.781 3.93898 7.52918L6.37956 7.53111Z" fill="#9097A6"/>
</svg>
