<svg width="25" height="31" viewBox="0 0 25 31" fill="none" xmlns="http://www.w3.org/2000/svg">
<path d="M0.339844 27.4745V3.4569C0.362671 3.42617 0.380764 3.39217 0.393511 3.35603C0.577511 2.27378 1.09048 1.37856 1.98957 0.760027C2.45724 0.436403 3.0176 0.248672 3.53615 0H16.8044C16.895 0.0903627 16.9877 0.177923 17.0755 0.270388C19.5432 2.87433 22.0128 5.47827 24.4843 8.08221C24.5968 8.19676 24.685 8.33317 24.7434 8.48312C24.8017 8.63306 24.8291 8.79339 24.8237 8.95431C24.8153 11.5622 24.8195 14.1701 24.8195 16.7773C24.8195 20.1229 24.8195 23.4686 24.8195 26.8146C24.8195 29.342 22.7662 31.0119 20.6565 31.0007C15.239 30.9699 9.82142 30.9965 4.40318 30.986C2.88796 30.986 1.71078 30.3023 0.935056 29.0029C0.658359 28.5399 0.533601 27.9858 0.339844 27.4745ZM15.7004 1.45141H15.3519C11.7536 1.45141 8.15519 1.45141 4.55651 1.45141C2.93187 1.45141 1.8446 2.55187 1.8439 4.19311C1.8439 11.7033 1.8439 19.2127 1.8439 26.7214C1.8439 28.3837 2.92699 29.4778 4.57324 29.4778C9.89994 29.4778 15.2269 29.4778 20.554 29.4778C22.2163 29.4778 23.3127 28.3823 23.3134 26.7123C23.3161 21.0729 23.3161 15.4333 23.3134 9.79349V9.46286H22.9314C21.5542 9.46286 20.1777 9.47197 18.8005 9.45516C17.2197 9.43624 15.768 8.03808 15.7254 6.45288C15.6843 4.91811 15.7066 3.38125 15.7004 1.84508V1.45141ZM17.2135 2.61561C17.2135 3.86038 17.2016 5.01058 17.217 6.15937C17.2316 7.22341 17.9718 7.94281 19.0374 7.94981C20.0209 7.95682 21.0043 7.94981 21.9877 7.94981C22.072 7.94456 22.156 7.93497 22.2393 7.92109L17.2135 2.61561Z" fill="white"/>
<path d="M13.3849 19.1233L15.48 16.8684C15.7685 16.5588 16.0529 16.245 16.3442 15.9382C16.6766 15.5879 17.1283 15.5494 17.4433 15.8366C17.7583 16.1238 17.773 16.6072 17.4398 16.9672C16.031 18.4919 14.6197 20.0141 13.2057 21.5337C12.7715 21.9995 12.361 21.9883 11.9191 21.512C10.521 20.0054 9.12498 18.4968 7.73104 16.9861C7.3742 16.6001 7.37211 16.1658 7.7178 15.8338C8.0161 15.5466 8.47192 15.5823 8.81483 15.9487C9.73135 16.9259 10.6381 17.9101 11.5497 18.8949C11.6194 18.965 11.6891 19.035 11.7944 19.1366C11.8006 18.9965 11.8097 18.8907 11.8097 18.7864C11.8097 16.281 11.8097 13.7756 11.8097 11.2702C11.8047 11.1091 11.8227 10.9482 11.8634 10.7924C11.9616 10.4583 12.3359 10.2194 12.6516 10.2636C12.8266 10.2893 12.9875 10.3747 13.1074 10.5054C13.2273 10.6361 13.2989 10.8042 13.3103 10.9816C13.318 11.0922 13.3166 11.2036 13.3166 11.3143C13.3166 13.7996 13.3166 16.2849 13.3166 18.7703V19.096L13.3849 19.1233Z" fill="white"/>
<path d="M12.5806 24.316C14.6 24.316 16.6191 24.316 18.638 24.316C19.1106 24.316 19.4416 24.6053 19.459 25.0165C19.4685 25.215 19.4012 25.4095 19.2713 25.5593C19.1415 25.7092 18.959 25.8028 18.7621 25.8206C18.6821 25.8271 18.6018 25.8289 18.5216 25.8263C14.5535 25.8263 10.5857 25.8263 6.61807 25.8263C6.33371 25.8263 6.07932 25.7765 5.88138 25.5573C5.784 25.4601 5.71802 25.3356 5.69204 25.2002C5.66606 25.0647 5.68128 24.9246 5.73571 24.7979C5.85977 24.5009 6.0842 24.3125 6.43268 24.3125H10.0785L12.5806 24.316Z" fill="white"/>
</svg>
