<svg width="29" height="29" viewBox="0 0 29 29" fill="none" xmlns="http://www.w3.org/2000/svg">
<path d="M14.5 0C6.49148 0 0 6.49148 0 14.5C0 22.5085 6.49148 29 14.5 29C22.5085 29 29 22.5085 29 14.5C29 6.49148 22.5085 0 14.5 0ZM19.5043 8.0438C19.4154 8.0438 19.3406 8.0438 19.2664 8.0438C18.601 8.05474 17.9361 8.05839 17.2713 8.08151C16.6472 8.1028 16.2293 8.44282 16.0773 9.03589C16.0394 9.18159 16.019 9.33125 16.0164 9.48175C16.0097 10.2366 16.0116 10.9915 16.0109 11.7464C16.0109 11.7938 16.0201 11.8419 16.0262 11.9057L19.4015 11.9057C19.2518 13.0657 19.1046 14.2068 18.9544 15.3662L16.0103 15.3662V15.6125C16.0103 17.4118 16.0103 19.2109 16.0103 21.0097C16.0103 22.0604 16.0118 23.1107 16.0146 24.1606H12.4349C12.441 24.0925 12.4526 24.0243 12.4526 23.9562C12.4526 21.163 12.4526 18.37 12.4526 15.5773C12.4526 15.5097 12.4471 15.4428 12.4434 15.3662H9.49574V11.8942H12.4532C12.4532 11.0949 12.4373 10.3212 12.4592 9.54805C12.4678 9.05864 12.5137 8.5706 12.5967 8.0882C12.7382 7.25687 13.1508 6.4957 13.7701 5.92336C14.5541 5.19769 15.5073 4.88929 16.5493 4.8455C17.2129 4.81995 17.8796 4.85706 18.5438 4.88017C18.8674 4.89173 19.1892 4.93674 19.5067 4.96654L19.5043 8.0438Z" fill="#9097A6"/>
</svg>
