<svg width="30" height="30" viewBox="0 0 30 30" fill="none" xmlns="http://www.w3.org/2000/svg">
<path d="M13.9376 0H16.0499C16.5311 0.0649554 17.0161 0.111128 17.4941 0.197214C21.3151 0.88668 24.468 2.73282 26.8346 5.81468C29.7066 9.55392 30.6149 13.7776 29.5932 18.3714C28.8249 21.825 27.0013 24.6658 24.195 26.8274C20.7456 29.4882 16.8299 30.4711 12.5317 29.7918C9.61117 29.3301 7.04506 28.0701 4.86465 26.0604C2.38512 23.7737 0.841809 20.9657 0.234705 17.6366C0.139258 17.1114 0.078235 16.5801 0 16.051V13.938C0.0633704 13.4685 0.109529 12.9919 0.193241 12.5239C0.797215 9.1501 2.32827 6.26233 4.86544 3.93724C6.96471 1.99048 9.58788 0.701197 12.4112 0.228518C12.9174 0.138519 13.429 0.0719988 13.9376 0ZM20.478 22.3353C20.9905 22.2813 21.3222 22.0097 21.434 21.5167C22.3875 17.3058 23.3396 13.0941 24.2904 8.88167C24.3401 8.7053 24.3505 8.52017 24.3209 8.33933C24.1918 7.79152 23.6458 7.581 22.9964 7.81421L9.63621 12.6327C8.4366 13.0636 7.23883 13.4951 6.04287 13.9271C5.78235 14.0202 5.62901 14.2025 5.63449 14.4702C5.63996 14.7504 5.79956 14.9397 6.08355 15.0094C6.14067 15.0227 6.19543 15.043 6.25176 15.0579C7.55437 15.414 8.85699 15.774 10.1635 16.1222C10.2518 16.1395 10.3334 16.1816 10.3986 16.2435C10.4639 16.3055 10.5102 16.3847 10.532 16.4721C11.0186 17.9298 11.5115 19.3851 12.0106 20.8382C12.2375 21.5026 12.8517 21.6614 13.361 21.1864C14.0244 20.5674 14.691 19.9476 15.3364 19.3129C15.5054 19.1478 15.6141 19.1564 15.7996 19.2824C17.1405 20.2048 18.4869 21.1194 19.8388 22.0261C20.0321 22.1576 20.2629 22.2335 20.478 22.3353Z" fill="#9097A6"/>
</svg>
