<svg width="26" height="21" viewBox="0 0 26 21" fill="none" xmlns="http://www.w3.org/2000/svg">
<path d="M8.17934 21C17.9882 21 23.3548 12.9198 23.3548 5.91488C23.3548 5.68773 23.3497 5.45552 23.3396 5.22837C24.3835 4.47789 25.2845 3.54832 26 2.48333C25.0277 2.91333 23.9954 3.19416 22.9384 3.31623C24.0514 2.65305 24.8847 1.61124 25.284 0.383908C24.2369 1.00074 23.0919 1.43586 21.8979 1.67062C21.0934 0.820901 20.0297 0.258289 18.8713 0.0697642C17.7129 -0.118761 16.5243 0.0773017 15.4892 0.627639C14.4541 1.17798 13.6303 2.05193 13.145 3.11439C12.6597 4.17685 12.54 5.36864 12.8045 6.50549C10.6844 6.39973 8.61026 5.85225 6.71665 4.89856C4.82303 3.94487 3.15217 2.60624 1.81238 0.969463C1.13143 2.13651 0.923061 3.51751 1.22962 4.83179C1.53617 6.14606 2.33465 7.295 3.46277 8.04509C2.61585 8.01836 1.78747 7.7917 1.04609 7.38382V7.44944C1.04534 8.67417 1.47127 9.86136 2.2515 10.8092C3.03173 11.7571 4.1181 12.4071 5.32594 12.6488C4.54139 12.8621 3.71798 12.8932 2.91941 12.7396C3.26024 13.7929 3.92337 14.7141 4.81625 15.3747C5.70913 16.0353 6.78721 16.4024 7.90004 16.4246C6.01079 17.8998 3.67702 18.6999 1.27461 18.6961C0.848561 18.6955 0.422932 18.6695 0 18.6184C2.44059 20.1749 5.27966 21.0015 8.17934 21Z" fill="#9097A6"/>
</svg>
