<svg width="20" height="28" viewBox="0 0 20 28" fill="none" xmlns="http://www.w3.org/2000/svg">
<path fill-rule="evenodd" clip-rule="evenodd" d="M9.99984 0.666656C4.83984 0.666656 0.666504 4.83999 0.666504 9.99999C0.666504 17 9.99984 27.3333 9.99984 27.3333C9.99984 27.3333 19.3332 17 19.3332 9.99999C19.3332 4.83999 15.1598 0.666656 9.99984 0.666656ZM9.99984 13.3333C8.15984 13.3333 6.6665 11.84 6.6665 9.99999C6.6665 8.15999 8.15984 6.66666 9.99984 6.66666C11.8398 6.66666 13.3332 8.15999 13.3332 9.99999C13.3332 11.84 11.8398 13.3333 9.99984 13.3333Z" fill="#014CDD"/>
<mask id="mask0_212_1711" style="mask-type:alpha" maskUnits="userSpaceOnUse" x="0" y="0" width="20" height="28">
<path fill-rule="evenodd" clip-rule="evenodd" d="M9.99984 0.666656C4.83984 0.666656 0.666504 4.83999 0.666504 9.99999C0.666504 17 9.99984 27.3333 9.99984 27.3333C9.99984 27.3333 19.3332 17 19.3332 9.99999C19.3332 4.83999 15.1598 0.666656 9.99984 0.666656ZM9.99984 13.3333C8.15984 13.3333 6.6665 11.84 6.6665 9.99999C6.6665 8.15999 8.15984 6.66666 9.99984 6.66666C11.8398 6.66666 13.3332 8.15999 13.3332 9.99999C13.3332 11.84 11.8398 13.3333 9.99984 13.3333Z" fill="white"/>
</mask>
<g mask="url(#mask0_212_1711)">
</g>
</svg>
