<svg width="69" height="69" viewBox="0 0 69 69" fill="none" xmlns="http://www.w3.org/2000/svg">
<path d="M0.00464018 33.8757C0.315717 15.056 16.0438 -0.630221 35.71 0.019485C54.1787 0.641213 69.3064 16.085 68.9953 35.1285C68.6842 53.827 53.0433 69.7557 33.0597 68.9723C14.759 68.2542 -0.303326 52.9939 0.00464018 33.8757ZM21.5063 30.9225C22.8532 29.2905 25.401 27.9506 27.9456 27.646C32.7517 27.0678 36.6091 28.7993 39.1755 32.8716C41.7076 36.8849 41.6641 41.0971 39.1194 45.1228C36.8921 48.6573 33.5201 50.3391 29.3765 50.4075C25.7743 50.4759 22.172 50.423 18.5666 50.4075H17.6489V53.827H20.2402C29.2863 53.827 38.3324 53.827 47.3786 53.827C48.0256 53.827 48.262 54.0104 48.2154 54.657C48.1687 55.257 48.2154 55.8662 48.2154 56.6838L55.4759 52.1266L48.2029 47.5817V50.3733H39.3963L39.2968 50.2054C39.5519 49.994 39.8225 49.7982 40.0589 49.5681C44.414 45.3404 45.7205 38.4392 43.2132 32.912C39.8069 25.3984 31.3923 22.0629 23.718 25.1404C23.3153 25.2871 22.8727 25.2815 22.4737 25.1249C21.3259 24.5973 20.381 23.7111 19.7814 22.5999C19.1818 21.4886 18.96 20.2126 19.1497 18.9644C19.3393 17.7162 19.93 16.5635 20.8326 15.6802C21.7352 14.7968 22.9008 14.2308 24.1535 14.0674C25.1483 13.9085 26.1674 14.0188 27.105 14.3867C28.0427 14.7546 28.8646 15.3668 29.4854 16.1596L28.3562 16.8435L32.03 19.1252L32.4749 14.8912C32.2727 14.9254 32.1638 14.9099 32.0798 14.9627C31.4576 15.4166 31.0812 15.1928 30.6022 14.6519C28.7077 12.597 26.3591 11.8168 23.5781 12.2675C19.0985 12.9887 16.1433 17.9719 17.6676 22.2307C18.2917 23.9939 19.4987 25.4918 21.0894 26.4771C20.3242 27.161 19.5341 27.7641 18.8777 28.4822C18.4733 28.9205 18.2058 28.8988 17.7827 28.5972C17.2725 28.2304 16.7281 27.9164 16.078 27.503V36.002L23.6869 32.3431L21.5063 30.9225Z" fill="white"/>
</svg>
