<svg width="24" height="24" viewBox="0 0 24 24" fill="none" xmlns="http://www.w3.org/2000/svg">
<path d="M21.7497 16.4498C21.7497 7.39547 14.2465 2.44172 7.74162 2.44172C7.53068 2.44172 7.31505 2.44641 7.10412 2.45578C6.40722 1.49213 5.54401 0.660506 4.55505 0C4.95436 0.897478 5.21514 1.85036 5.32849 2.82609C4.71266 1.79872 3.74523 1.02947 2.60552 0.660938C3.17831 1.62745 3.58237 2.68442 3.80037 3.78656C3.01132 4.52916 2.48887 5.51101 2.31381 6.58031C2.13874 7.64962 2.32081 8.74681 2.83185 9.70226C3.3429 10.6577 4.15446 11.4182 5.14107 11.8662C6.12767 12.3141 7.23437 12.4246 8.29005 12.1805C8.19185 14.1375 7.68346 16.0521 6.79785 17.8C5.91225 19.548 4.66919 21.0903 3.14927 22.327C4.233 22.9556 5.5154 23.1479 6.73585 22.865C7.95629 22.582 9.0232 21.8449 9.71974 20.8036C9.69492 21.5854 9.48444 22.35 9.10568 23.0344H9.16662C10.3039 23.0351 11.4063 22.6419 12.2865 21.9217C13.1667 21.2015 13.7703 20.1987 13.9947 19.0838C14.1929 19.8079 14.2218 20.568 14.0791 21.3052C15.0572 20.9905 15.9126 20.3784 16.5261 19.5542C17.1395 18.73 17.4804 17.7349 17.501 16.7077C18.8709 18.4516 19.6139 20.6058 19.6104 22.8234C19.6098 23.2167 19.5857 23.6096 19.5382 24C20.9835 21.7471 21.7511 19.1265 21.7497 16.4498Z" fill="#9097A6"/>
</svg>
