<svg width="458" height="611" viewBox="0 0 458 611" fill="none" xmlns="http://www.w3.org/2000/svg">
<g opacity="0.2">
<path d="M217.666 527.896C107.264 591.271 1.67443 584.341 -30.7357 535.403C-46.8275 477.098 11.6463 379.848 122.048 316.472C232.45 253.097 368.06 258.232 408.5 283.263C402.704 334.835 328.068 464.52 217.666 527.896Z" fill="#716E6E"/>
<path fill-rule="evenodd" clip-rule="evenodd" d="M64.1991 558.816C106.098 558.747 158.052 545.337 211.641 514.574C264.771 484.075 309.632 437.379 341.942 391.82C358.07 369.08 370.915 346.84 380.021 327.364C386.511 313.48 390.867 301.496 393.286 292.027C385.149 288.761 374.11 285.843 360.459 283.801C341.273 280.93 317.935 279.935 292.292 281.64C240.927 285.057 181.296 299.242 128.073 329.794C74.3748 360.619 33.8322 399.401 8.8237 436.831C-15.7374 473.59 -23.6293 506.253 -18.6801 528.485C-5.51804 546.232 23.047 558.883 64.1991 558.816ZM-30.7357 535.403C-46.8275 477.098 11.6463 379.848 122.048 316.472C232.45 253.097 368.06 258.232 408.5 283.263C402.704 334.835 328.068 464.52 217.666 527.896C107.264 591.271 1.67439 584.341 -30.7357 535.403Z" fill="white"/>
<path d="M185.986 389.199C127.815 512.455 37.7926 575.012 -13.6711 555.868C-56.5368 518.505 -58.1488 401.056 0.0218282 277.8C58.1925 154.544 171.892 71.1181 217.762 65.4897C239.271 111.48 244.156 265.943 185.986 389.199Z" fill="#B9B9B9"/>
<path fill-rule="evenodd" clip-rule="evenodd" d="M76.0145 513.699C110.301 486.567 146.032 442.009 174.268 382.18C202.262 322.864 215.236 255.623 218.509 197.424C220.143 168.376 219.343 141.857 216.886 120.019C215.134 104.452 212.601 91.8197 209.762 82.5003C201.434 85.0831 190.905 89.8265 178.684 96.9745C161.506 107.021 141.881 121.287 121.744 139.255C81.4083 175.246 39.7825 225.399 11.7393 284.819C-16.5542 344.77 -30.0201 402.737 -31.4503 449.558C-32.8548 495.541 -22.6907 527.397 -7.31775 542.41C12.4991 548.442 42.3389 540.346 76.0145 513.699ZM-13.6711 555.868C-56.5368 518.505 -58.1488 401.056 0.0218282 277.8C58.1925 154.544 171.892 71.1181 217.762 65.4897C239.271 111.48 244.156 265.943 185.986 389.199C127.815 512.455 37.7926 575.012 -13.6711 555.868Z" fill="white"/>
<path d="M-121.396 316.478C-10.9941 379.854 46.094 480.168 30.0022 538.473C-2.40796 587.412 -106.612 591.277 -217.014 527.902C-327.415 464.527 -403.438 337.905 -409.233 286.333C-368.794 261.302 -231.797 253.103 -121.396 316.478Z" fill="#575757"/>
<path fill-rule="evenodd" clip-rule="evenodd" d="M-8.98675 438.183C-33.6634 400.034 -73.8312 360.563 -127.421 329.8C-180.55 299.301 -240.451 285.86 -292.158 283.189C-317.967 281.856 -341.487 283.22 -360.825 286.369C-374.61 288.613 -385.776 291.687 -393.997 295.048C-391.56 304.384 -387.167 316.161 -380.61 329.804C-371.394 348.978 -358.391 370.835 -342.093 393.205C-309.448 438.014 -264.212 484.028 -210.989 514.58C-157.291 545.405 -105.611 559.562 -64.0341 560.356C-23.2008 561.136 4.89245 549.131 17.9483 531.552C22.9557 509.124 15.25 475.652 -8.98675 438.183ZM30.0022 538.473C-2.40793 587.412 -106.612 591.277 -217.014 527.902C-327.415 464.527 -403.438 337.905 -409.233 286.333C-368.794 261.302 -231.797 253.103 -121.396 316.478C-10.9941 379.854 46.094 480.168 30.0022 538.473Z" fill="white"/>
<path d="M2.22607 277.8C60.3967 401.057 56.0896 520.12 13.2239 557.482C-38.2399 576.627 -125.567 512.456 -183.738 389.2C-241.908 265.943 -239.718 113.095 -218.209 67.1045C-172.34 72.7329 -55.9446 154.544 2.22607 277.8Z" fill="#737373"/>
<path fill-rule="evenodd" clip-rule="evenodd" d="M32.3451 450.134C31.5532 402.938 18.7448 344.649 -9.49141 284.82C-37.4855 225.504 -79.7105 175.785 -120.706 140.184C-141.169 122.414 -161.13 108.332 -178.574 98.4155C-191.009 91.3464 -201.72 86.6487 -210.166 84.0889C-212.922 93.3119 -215.319 105.798 -216.893 121.21C-219.106 142.873 -219.582 169.18 -217.621 198.036C-213.692 255.836 -200.063 322.76 -172.02 382.18C-143.727 442.131 -108.601 487.123 -74.9468 514.641C-41.8951 541.666 -12.7704 549.986 6.87398 544.023C22.3941 528.887 33.1229 496.489 32.3451 450.134ZM13.2239 557.482C-38.2399 576.627 -125.567 512.456 -183.738 389.2C-241.908 265.943 -239.718 113.095 -218.209 67.1045C-172.34 72.7329 -55.9446 154.544 2.22607 277.8C60.3967 401.057 56.0896 520.12 13.2239 557.482Z" fill="white"/>
<path d="M108.333 302.903C108.333 442.499 54.9154 545.347 1.49807 555.664C-51.9193 545.347 -102.284 442.499 -102.284 302.903C-102.284 163.307 -36.6572 29.508 1.49807 0.2771C39.6533 29.508 108.333 163.307 108.333 302.903Z" fill="#F9F9F9"/>
<path fill-rule="evenodd" clip-rule="evenodd" d="M63.1138 470.995C82.0813 428.905 95.0619 370.664 95.0619 302.903C95.0619 235.723 78.4976 169.491 57.1357 116.373C46.4732 89.8608 34.7162 66.8691 23.4468 48.8871C15.4132 36.0684 7.91289 26.255 1.52276 19.5279C-4.75435 26.2134 -12.0738 35.9703 -19.8863 48.7459C-30.8668 66.7021 -42.2495 89.678 -52.5423 116.194C-73.1592 169.306 -89.0133 235.606 -89.0133 302.903C-89.0133 370.801 -76.7476 429.106 -58.4997 471.202C-40.5784 512.546 -18.3298 535.297 1.50003 540.422C21.5108 535.266 44.4842 512.335 63.1138 470.995ZM1.49807 555.664C-51.9193 545.348 -102.284 442.499 -102.284 302.903C-102.284 163.307 -36.6572 29.508 1.49807 0.2771C39.6533 29.508 108.333 163.307 108.333 302.903C108.333 442.499 54.9154 545.348 1.49807 555.664Z" fill="white"/>
<path d="M1.49808 302.903C1.49808 442.499 1.49808 474.849 1.49808 555.664C-51.9193 545.347 -102.284 442.499 -102.284 302.903C-102.284 163.307 -36.6572 29.508 1.49808 0.2771C1.49808 57.0194 1.49808 163.307 1.49808 302.903Z" fill="#D2D1D1"/>
</g>
</svg>
