<svg width="70" height="70" viewBox="0 0 70 70" fill="none" xmlns="http://www.w3.org/2000/svg">
<g clip-path="url(#clip0_212_1938)">
<path d="M31.959 0.431763C33.3165 1.24176 34.6903 2.02625 36.0238 2.87524C36.5879 3.22571 37.0989 3.65613 37.5408 4.15323C40.2318 7.2822 42.8929 10.4397 45.566 13.5821C46.3237 14.4731 46.276 14.7701 45.2676 15.3566C44.131 16.0226 42.9973 16.7006 41.8488 17.3321C41.3386 17.6096 41.1342 17.9321 41.1357 18.5426C41.17 29.3425 41.1671 40.1424 41.2044 50.9423C41.2044 51.7448 40.9672 52.2053 40.2646 52.5923C37.9466 53.8808 35.6599 55.2247 33.3761 56.5762C32.8898 56.8642 32.5005 56.8762 32.0098 56.5762C30.6792 55.7587 29.3248 54.9637 27.9629 54.2153C27.3826 53.8973 27.1842 53.5013 27.1842 52.8458C27.1842 43.9179 27.1514 34.9959 27.1499 26.0605C27.1499 25.4935 27.0008 25.1605 26.4921 24.88C25.2466 24.2065 24.0532 23.446 22.8196 22.7606C22.2066 22.4201 22.0395 22.0256 22.3319 21.3611C23.1747 19.4531 23.9876 17.5301 24.7886 15.6041C25.0019 15.0926 25.3107 14.7611 25.8567 14.9801C26.4295 15.2111 26.3579 15.6941 26.155 16.1801C25.4778 17.7541 24.8065 19.3316 24.1413 20.9126C24.0458 21.1361 23.9652 21.3626 23.8578 21.6446L27.3051 23.662L35.5226 4.29273L32.062 2.26624C31.5638 3.43023 31.0909 4.53422 30.6165 5.63971C30.4793 5.95771 30.4032 6.34321 30.1691 6.5712C29.9692 6.7707 29.4918 6.9582 29.3188 6.8532C29.0801 6.7032 28.8191 6.20071 28.9041 5.98171C29.5724 4.26873 30.3182 2.58424 31.0506 0.901258C31.1327 0.71376 31.349 0.586261 31.5086 0.431763H31.959ZM36.6697 5.36972L29.2114 22.9691L30.7657 22.0721C31.2371 21.7991 31.701 21.5066 32.1843 21.2561C32.8033 20.9366 33.2583 21.1946 33.3299 21.8846C33.3449 22.0842 33.3493 22.2845 33.3433 22.4846C33.3761 32.9335 33.4079 43.3834 33.4388 53.8343C33.4388 54.1223 33.4388 54.4088 33.4388 54.8212C35.3675 53.7053 37.1679 52.6343 39.0071 51.6143C39.5516 51.3143 39.741 50.9693 39.7381 50.3318C39.7023 39.5574 39.7052 28.7845 39.662 18.0116C39.662 17.1686 39.9171 16.6931 40.6509 16.3121C41.8443 15.6911 42.9929 14.9696 44.2101 14.2616L36.6697 5.36972ZM31.8785 23.137C30.8343 23.737 29.9393 24.2245 29.0936 24.778C28.9655 24.8722 28.8587 24.9925 28.78 25.1311C28.7014 25.2696 28.6527 25.4233 28.6371 25.582C28.6311 34.5309 28.6461 43.4809 28.6819 52.4318C28.6819 52.6283 28.7475 52.9178 28.8817 53.0018C29.8603 53.6138 30.8642 54.1823 31.8785 54.7762V23.137Z" fill="white"/>
<path d="M0.250732 54.9128C1.24716 52.6148 2.25254 50.3198 3.23405 48.0128C5.14338 43.5319 7.04525 39.0489 8.93965 34.5639C9.34837 33.5995 9.6288 33.5035 10.5119 34.0075C10.5326 34.022 10.554 34.0355 10.576 34.048C13.5778 35.4868 16.1859 37.6393 18.1745 40.3194C19.8899 42.6069 21.853 44.7024 23.7026 46.8818C24.4052 47.7128 24.353 48.0278 23.4296 48.5678C22.296 49.2323 21.1728 49.9178 20.0137 50.5343C19.4454 50.8343 19.2202 51.1808 19.2291 51.8603C19.2798 55.8262 19.259 59.7922 19.2963 63.7567C19.2963 64.4392 19.0829 64.8562 18.4818 65.1937C16.1295 66.5226 13.7965 67.8936 11.471 69.2601C10.9683 69.5601 10.5506 69.5871 10.0345 69.2691C8.68309 68.4371 7.31375 67.6371 5.9265 66.8691C5.4268 66.5901 5.24034 66.2226 5.24183 65.6692C5.24183 63.5692 5.19708 61.4782 5.2284 59.3842C5.23885 58.7542 5.06134 58.3882 4.50495 58.0897C3.34742 57.4687 2.2242 56.7832 1.09352 56.1127C0.79519 55.9372 0.532658 55.7182 0.252226 55.5128L0.250732 54.9128ZM11.4218 67.5261C11.8007 67.3251 12.0184 67.2171 12.2228 67.0971C13.8741 66.1401 15.5045 65.1562 17.1811 64.2352C17.6629 63.9697 17.827 63.6832 17.8225 63.1402C17.7837 59.1262 17.7897 55.1123 17.7524 51.0983C17.7524 50.4233 17.9373 49.9973 18.5564 49.6673C19.8124 49.0013 21.0236 48.2498 22.2945 47.5088L14.7616 38.6214C12.269 44.4819 9.82868 50.2493 7.36744 56.0542C7.49871 56.0542 7.55092 56.0692 7.58373 56.0542C8.25051 55.6732 8.94413 55.3298 9.5751 54.8933C10.8818 53.9933 11.4755 54.2228 11.4427 55.9882C11.374 59.7727 11.4218 63.5617 11.4218 67.5261ZM10.1449 35.5119L1.92736 54.8873L5.4074 56.9062C8.1625 50.4113 10.8818 43.9974 13.619 37.5414L10.1449 35.5119ZM9.93608 56.4097C8.86507 57.0307 7.89848 57.5692 6.96171 58.1557C6.8036 58.2547 6.70067 58.5652 6.70067 58.7782C6.69272 60.8912 6.70316 63.0052 6.732 65.1202C6.732 65.3197 6.79614 65.6167 6.93337 65.7022C7.89102 66.3021 8.87253 66.8571 9.93608 67.4781V56.4097Z" fill="white"/>
<path d="M54.8322 2.38623C55.2185 2.57673 55.4214 2.66223 55.6108 2.77173C57.004 3.58172 58.3987 4.38721 59.7875 5.2137C60.0608 5.38259 60.3055 5.59425 60.5124 5.8407C63.2969 9.11667 66.0813 12.3976 68.8657 15.6836C69.5504 16.4951 69.4878 16.8191 68.5674 17.3606C67.3905 18.0491 66.224 18.7586 65.0262 19.4066C64.5489 19.6646 64.3848 19.9556 64.3863 20.5046C64.4131 26.191 64.3967 31.8759 64.428 37.5624C64.428 38.2539 64.2132 38.6559 63.6196 38.9904C61.2896 40.3074 58.974 41.6509 56.6729 43.0208C56.112 43.3538 55.663 43.3523 55.1081 43.0073C53.8015 42.1974 52.4694 41.4279 51.1254 40.6824C50.6048 40.3929 50.4064 40.0389 50.4079 39.4329C50.4243 35.6424 50.393 31.8519 50.4079 28.0615C50.4079 27.5215 50.2588 27.2035 49.7799 26.9395C48.5195 26.248 47.2978 25.4875 46.0508 24.7825C45.4347 24.436 45.3214 24.0325 45.6033 23.371C48.4628 16.6781 51.294 9.97316 54.152 3.28022C54.2758 2.94423 54.595 2.68323 54.8322 2.38623ZM59.9038 7.40218C57.4068 13.2821 54.9649 19.0481 52.4411 24.9985C53.5389 24.364 54.4294 23.8285 55.3408 23.3305C56.0225 22.9585 56.5058 23.236 56.5774 24.0025C56.5953 24.2005 56.5864 24.4015 56.5864 24.6025C56.6043 29.8635 56.6207 35.1239 56.6356 40.3839C56.6356 40.6464 56.6356 40.9074 56.6356 41.2749C56.9623 41.0994 57.1786 40.9914 57.3814 40.8714C59.0327 39.9159 60.6735 38.9394 62.3412 38.0124C62.7977 37.7589 62.9379 37.4649 62.9304 36.9624C62.911 31.2535 62.923 25.5445 62.8961 19.8356C62.8961 19.1756 63.0975 18.7856 63.6762 18.4736C64.9382 17.7821 66.1569 17.0321 67.4352 16.2911L59.9038 7.40218ZM55.2871 4.29721L47.0711 23.671L50.5422 25.6915C53.2898 19.2011 56.024 12.7676 58.7582 6.32069L55.2871 4.29721ZM55.0694 41.2614V25.1965C54.0371 25.7965 53.1048 26.311 52.2069 26.8795C52.1085 26.9585 52.0281 27.0577 51.971 27.1705C51.9138 27.2833 51.8814 27.407 51.8757 27.5335C51.8618 31.3495 51.8683 35.1654 51.8951 38.9814C51.902 39.0955 51.933 39.2068 51.986 39.3079C52.039 39.409 52.1127 39.4976 52.2024 39.5679C53.1242 40.1454 54.0729 40.6794 55.0694 41.2614Z" fill="white"/>
<path d="M27.129 12.8066C27.0113 12.8133 26.8939 12.7905 26.7871 12.7405C26.6803 12.6904 26.5875 12.6145 26.5169 12.5196C26.4463 12.4248 26.4001 12.3138 26.3825 12.1966C26.3649 12.0795 26.3764 11.9598 26.4159 11.8481C26.7992 10.8037 27.2368 9.78031 27.7271 8.78218C27.839 8.56018 28.37 8.38018 28.64 8.44918C29.0472 8.55418 29.2098 8.95467 29.0114 9.41367C28.5997 10.3647 28.203 11.3322 27.7942 12.2801C27.6764 12.5561 27.5392 12.8216 27.4109 13.0916L27.129 12.8066Z" fill="white"/>
</g>
<defs>
<clipPath id="clip0_212_1938">
<rect width="69.0668" height="69.0668" fill="white" transform="translate(0.250732 0.431763)"/>
</clipPath>
</defs>
</svg>
