<svg width="220" height="220" viewBox="0 0 220 220" fill="none" xmlns="http://www.w3.org/2000/svg">
<g filter="url(#filter0_d_276_4874)">
<path d="M110 176C148.66 176 180 144.66 180 106C180 67.3401 148.66 36 110 36C71.3401 36 40 67.3401 40 106C40 144.66 71.3401 176 110 176Z" fill="url(#paint0_linear_276_4874)"/>
</g>
<path d="M58.2576 89.0139C59.2774 89.2176 60.2442 89.6298 61.0973 90.2247C61.8329 90.7633 62.3861 91.5141 62.6827 92.3762C62.9808 93.3619 63.0019 94.4107 62.7436 95.4076C62.5564 96.4245 62.0888 97.3688 61.3935 98.1341C60.761 98.7909 59.9384 99.2327 59.0416 99.3971C58.0147 99.5773 56.9616 99.5418 55.9492 99.2926C54.9341 99.0861 53.973 98.6708 53.1269 98.0731C52.3889 97.5443 51.8347 96.7982 51.5415 95.9389C51.2491 94.9427 51.2341 93.8856 51.498 92.8815C51.6833 91.8726 52.1446 90.9349 52.8307 90.1724C53.4587 89.5143 54.279 89.0721 55.174 88.9093C56.1976 88.7249 57.2488 88.7605 58.2576 89.0139ZM56.4196 97.2282C57.4294 97.5137 58.5025 97.4833 59.4945 97.141C59.9144 96.952 60.2793 96.6594 60.5551 96.2907C60.8309 95.9219 61.0084 95.4892 61.0712 95.033C61.219 94.589 61.2477 94.114 61.1545 93.6554C61.0612 93.1969 60.8493 92.7708 60.5398 92.4198C59.7881 91.6904 58.8301 91.2099 57.7959 91.0435C56.7899 90.7596 55.7218 90.7838 54.7297 91.1132C54.3074 91.2987 53.9403 91.5904 53.664 91.9597C53.3878 92.3291 53.2117 92.7637 53.153 93.2212C53.007 93.6654 52.9792 94.14 53.0724 94.5982C53.1655 95.0565 53.3765 95.4825 53.6844 95.8344C54.4416 96.5741 55.4093 97.061 56.4544 97.2282H56.4196Z" fill="#1D1D1B"/>
<path d="M54.0767 83.291C54.1694 83.0285 54.3472 82.8046 54.582 82.6551C54.7159 82.5834 54.8655 82.5459 55.0175 82.5459C55.1694 82.5459 55.3191 82.5834 55.453 82.6551C55.5982 82.6975 55.731 82.7743 55.8401 82.8789C55.9493 82.9835 56.0317 83.1129 56.0802 83.2561C56.1476 83.5264 56.123 83.8114 56.0105 84.0662C55.9117 84.3254 55.7313 84.5455 55.4966 84.6934C55.3621 84.7636 55.2127 84.8003 55.061 84.8003C54.9094 84.8003 54.7599 84.7636 54.6255 84.6934C54.4803 84.651 54.3476 84.5742 54.2384 84.4696C54.1292 84.365 54.0469 84.2356 53.9983 84.0924C53.9434 83.8234 53.9708 83.5442 54.0767 83.291ZM57.4826 83.6133L65.3224 86.8188L64.5819 88.6481L56.7422 85.4425L57.4826 83.6133Z" fill="#1D1D1B"/>
<path d="M67.2209 82.9948L66.3063 84.737L55.7227 79.2666L56.5937 77.5244L67.2209 82.9948Z" fill="#1D1D1B"/>
<path d="M65.8624 69.6759C66.3833 68.9483 67.1459 68.4296 68.014 68.2125C68.4234 68.1637 68.8386 68.2073 69.229 68.3399C69.6194 68.4726 69.9751 68.691 70.2701 68.9791L74.6255 72.6289L73.7544 73.7003L72.6046 73.2561H72.561C72.669 73.7643 72.669 74.2896 72.561 74.7979C72.4119 75.3486 72.1343 75.8561 71.7509 76.2787C71.3207 76.832 70.6994 77.2047 70.0088 77.324C69.6432 77.3674 69.2727 77.3281 68.9244 77.209C68.5761 77.0899 68.259 76.894 67.9966 76.6359C67.6923 76.4022 67.4526 76.0948 67.3001 75.7427C67.1477 75.3906 67.0876 75.0054 67.1255 74.6237C67.3018 73.6145 67.754 72.6738 68.4321 71.9059L69.3032 70.7473L68.9722 70.4773C68.8252 70.3284 68.6482 70.2126 68.4529 70.1375C68.2577 70.0624 68.0487 70.0297 67.8398 70.0418C67.4471 70.1146 67.0976 70.3361 66.8642 70.6602C66.5957 70.9791 66.3782 71.3375 66.2196 71.723C66.0715 72.1062 65.9321 72.4982 65.8102 72.8989L64.3555 72.4982C64.4631 71.9999 64.6329 71.517 64.8607 71.0609C65.1337 70.5581 65.4704 70.0926 65.8624 69.6759ZM69.6778 72.385C69.2548 72.8545 68.9738 73.4345 68.8677 74.0575C68.8622 74.2631 68.9051 74.4672 68.9928 74.6533C69.0806 74.8393 69.2107 75.0022 69.3729 75.1289C69.4855 75.2415 69.623 75.3262 69.7743 75.3762C69.9255 75.4261 70.0864 75.4398 70.244 75.4163C70.5614 75.3257 70.8401 75.1328 71.0366 74.8676C71.3908 74.472 71.589 73.9612 71.5941 73.4303C71.5829 73.1552 71.5096 72.8862 71.3799 72.6434C71.2502 72.4006 71.0674 72.1902 70.845 72.0278L70.2962 71.5749L69.6778 72.385Z" fill="#1D1D1B"/>
<path d="M74.0763 61.6446C74.668 61.0816 75.4546 60.7694 76.2714 60.7735C76.701 60.8326 77.1132 60.9819 77.481 61.2116C77.8488 61.4413 78.1639 61.7462 78.4056 62.1062L81.8899 66.3832L80.3655 67.6376L77.0989 63.6567C76.2888 62.6724 75.4787 62.5156 74.6773 63.1777C74.4129 63.35 74.2003 63.591 74.0622 63.8749C73.9242 64.1587 73.8658 64.4747 73.8933 64.7892C74.0569 65.5148 74.4084 66.1847 74.9125 66.7317L77.5258 69.9459L75.9926 71.1916L70.6094 64.6236L71.7853 63.6567L72.7087 64.3449L72.7871 64.2752C72.7198 63.7721 72.8111 63.2605 73.0484 62.8118C73.3058 62.3552 73.6559 61.9576 74.0763 61.6446Z" fill="#1D1D1B"/>
<path d="M86.1235 64.1185C85.7282 64.3411 85.2871 64.4702 84.8341 64.4959C84.3811 64.5216 83.9282 64.4431 83.5103 64.2666C82.4654 63.7408 81.6345 62.8698 81.1584 61.8014C80.5302 60.8031 80.2685 59.6177 80.418 58.4478C80.5061 57.9938 80.6972 57.5661 80.9766 57.1977C81.256 56.8292 81.6161 56.5297 82.0294 56.3223C82.4954 56.0529 83.0243 55.9117 83.5625 55.9129C84.0018 55.9288 84.4325 56.0387 84.8256 56.2352H84.9127C84.8169 56.1133 84.6862 55.9303 84.512 55.6777C84.3378 55.4251 84.1984 55.1899 84.0678 54.9547L82.6653 52.3415L84.4075 51.4094L90.026 61.9146L88.6758 62.6376L87.8047 61.8275H87.735C87.6873 62.2681 87.5446 62.6931 87.3169 63.0732C87.0243 63.526 86.611 63.8881 86.1235 64.1185ZM85.897 62.3763C86.1669 62.2685 86.4056 62.0948 86.5912 61.8712C86.7768 61.6475 86.9035 61.381 86.9597 61.0958C86.9903 60.4311 86.8204 59.7725 86.4719 59.2056L86.3587 58.9878C86.0493 58.3297 85.5752 57.7627 84.9824 57.3415C84.707 57.2067 84.4009 57.147 84.095 57.1684C83.7891 57.1898 83.4942 57.2916 83.2402 57.4634C82.9919 57.584 82.7802 57.7686 82.627 57.9983C82.4739 58.228 82.3849 58.4944 82.3692 58.77C82.3625 59.5002 82.5585 60.2179 82.9354 60.8432C83.2195 61.5292 83.7056 62.1126 84.3291 62.5157C84.5765 62.6365 84.8509 62.6911 85.1257 62.6743C85.4005 62.6575 85.6662 62.5699 85.897 62.4199V62.3763Z" fill="#1D1D1B"/>
<path d="M96.5246 50.7474C97.0004 50.6248 97.4993 50.6236 97.9756 50.7438C98.452 50.864 98.8905 51.1019 99.2511 51.4356H99.3295L99.2772 50.3206L100.889 49.9722L102.718 58.3345C102.862 58.822 102.9 59.3346 102.829 59.8379C102.759 60.3412 102.581 60.8236 102.309 61.2527C101.607 62.1103 100.609 62.6731 99.5124 62.8293C98.964 62.9482 98.4081 63.0297 97.8487 63.0732C97.345 63.1 96.8399 63.0737 96.3417 62.9948L95.9933 61.4007C97.094 61.6188 98.2288 61.598 99.3208 61.3398C99.592 61.2975 99.8512 61.1979 100.081 61.0477C100.311 60.8976 100.506 60.7001 100.654 60.4687C100.917 59.9608 100.973 59.3707 100.81 58.8223L100.767 58.6133C100.767 58.4565 100.697 58.2736 100.662 58.0732C100.627 57.8729 100.61 57.6986 100.601 57.568H100.54C100.366 58.0318 100.064 58.4366 99.6692 58.7352C99.2774 59.0376 98.8214 59.2462 98.3365 59.345C97.8835 59.4632 97.4085 59.4686 96.9529 59.3608C96.4974 59.253 96.0752 59.0352 95.7232 58.7265C94.8961 57.9357 94.3514 56.8952 94.1727 55.7648C93.8645 54.6555 93.9226 53.4762 94.3382 52.4025C94.5404 51.9695 94.8453 51.5924 95.2263 51.304C95.6073 51.0155 96.053 50.8245 96.5246 50.7474ZM97.3957 52.2195C96.1936 52.4809 95.7929 53.5378 96.1936 55.3903C96.5943 57.2428 97.4073 58.0151 98.6326 57.7074C98.9104 57.6709 99.1768 57.5741 99.4131 57.4236C99.6494 57.2731 99.8498 57.0726 100 56.8363C100.253 56.1964 100.278 55.4887 100.07 54.8328L100.009 54.5453C99.9085 53.7925 99.5767 53.0894 99.0595 52.5331C98.8215 52.337 98.5371 52.2052 98.2336 52.1503C97.9301 52.0954 97.6177 52.1192 97.326 52.2195H97.3957Z" fill="#1D1D1B"/>
<path d="M107.849 49.3015C108.742 49.2094 109.639 49.4413 110.375 49.9548C110.674 50.2348 110.908 50.5778 111.058 50.9588C111.209 51.3399 111.273 51.7497 111.246 52.1586L111.394 57.8642H110L109.582 56.697H109.591C109.289 57.1188 108.903 57.4745 108.459 57.7422C107.944 57.994 107.377 58.1194 106.804 58.1081C106.114 58.1479 105.434 57.9376 104.887 57.5158C104.614 57.2676 104.399 56.961 104.261 56.6186C104.122 56.2763 104.062 55.9071 104.086 55.5384C104.047 55.159 104.106 54.776 104.259 54.4265C104.412 54.077 104.652 53.7729 104.957 53.5436C105.83 53.0087 106.834 52.7253 107.858 52.7248L109.33 52.6464V52.2196C109.343 52.01 109.312 51.8001 109.238 51.6034C109.165 51.4067 109.05 51.2279 108.903 51.0785C108.588 50.8345 108.193 50.7193 107.797 50.7562C107.378 50.762 106.963 50.8355 106.568 50.9739C106.185 51.1133 105.802 51.2701 105.419 51.4443L104.757 50.0767C105.206 49.8323 105.682 49.6422 106.176 49.5105C106.723 49.3694 107.285 49.2991 107.849 49.3015ZM108.337 53.9617C107.704 53.945 107.08 54.1147 106.542 54.4496C106.391 54.5872 106.273 54.7576 106.197 54.9478C106.122 55.1381 106.091 55.3431 106.107 55.5471C106.092 55.712 106.118 55.8781 106.183 56.0303C106.249 56.1824 106.351 56.3158 106.481 56.4182C106.762 56.5946 107.091 56.677 107.422 56.6534C107.952 56.6537 108.465 56.4653 108.868 56.122C109.067 55.9334 109.22 55.7022 109.317 55.4457C109.414 55.1892 109.451 54.9141 109.426 54.6412V53.9182L108.337 53.9617Z" fill="#1D1D1B"/>
<path d="M119.591 56.4182C119.558 56.7934 119.433 57.1546 119.226 57.4693C119.019 57.784 118.737 58.0424 118.406 58.2214C117.562 58.5995 116.62 58.7031 115.714 58.5175C115.205 58.4536 114.703 58.3398 114.216 58.1778C113.806 58.0384 113.415 57.8513 113.049 57.6203L113.284 55.9566C113.697 56.2286 114.135 56.4619 114.591 56.6534C115.038 56.842 115.506 56.9765 115.984 57.0541C116.382 57.1385 116.796 57.1083 117.178 56.967C117.3 56.912 117.407 56.8261 117.486 56.7177C117.565 56.6093 117.615 56.4821 117.631 56.3485C117.659 56.1902 117.631 56.0271 117.552 55.8869C117.427 55.6862 117.261 55.514 117.064 55.3817C116.812 55.19 116.429 54.9374 115.923 54.6325C115.482 54.3944 115.062 54.1175 114.669 53.805C114.375 53.57 114.137 53.2724 113.972 52.9339C113.828 52.5504 113.791 52.1345 113.868 51.7318C113.897 51.3892 114.017 51.0606 114.216 50.7803C114.416 50.5 114.686 50.2781 115 50.1377C115.781 49.8195 116.637 49.7348 117.465 49.8938C117.959 49.9593 118.444 50.079 118.911 50.251C119.373 50.4276 119.817 50.6493 120.235 50.913L119.364 52.2719C119.013 52.0557 118.65 51.8608 118.275 51.6883C117.92 51.5218 117.541 51.4102 117.152 51.3573C116.281 51.2353 115.828 51.4182 115.758 51.906C115.734 52.0703 115.771 52.2377 115.862 52.3764C116.002 52.5674 116.176 52.73 116.376 52.8555C116.638 53.0297 117.004 53.2562 117.483 53.5262C117.904 53.7579 118.306 54.023 118.685 54.3189C118.992 54.5499 119.242 54.8478 119.416 55.19C119.585 55.576 119.645 56.0006 119.591 56.4182Z" fill="#1D1D1B"/>
<path d="M129.164 53.0035L126.324 61.0174L124.469 60.3554L127.3 52.3415L129.164 53.0035ZM129.321 49.5802C129.586 49.6676 129.817 49.835 129.983 50.0593C130.055 50.193 130.093 50.3427 130.093 50.4948C130.093 50.6469 130.055 50.7966 129.983 50.9303C129.954 51.0817 129.886 51.2227 129.785 51.339C129.684 51.4553 129.554 51.5427 129.408 51.5924C129.145 51.6826 128.86 51.6826 128.598 51.5924C128.335 51.5054 128.106 51.3377 127.944 51.1133C127.876 50.9784 127.84 50.8291 127.84 50.6777C127.84 50.5263 127.876 50.3771 127.944 50.2422C127.981 50.095 128.052 49.9588 128.152 49.8451C128.252 49.7313 128.378 49.6434 128.519 49.5889C128.779 49.5044 129.059 49.5013 129.321 49.5802Z" fill="#1D1D1B"/>
<path d="M136.455 56.1655C137.192 56.5026 137.774 57.1064 138.084 57.8554C138.195 58.2756 138.216 58.7144 138.147 59.1435C138.078 59.5726 137.92 59.9825 137.683 60.3467L135.07 65.2422L133.327 64.3188L135.723 59.7718C136.304 58.6394 136.138 57.8293 135.226 57.3415C134.963 57.1653 134.657 57.0641 134.341 57.0488C134.025 57.0334 133.711 57.1045 133.432 57.2544C132.832 57.6883 132.355 58.2705 132.047 58.9443L130.104 62.6202L128.362 61.6969L132.334 54.1794L133.676 54.8937L133.406 56.0087L133.502 56.061C133.936 55.7999 134.443 55.6839 134.948 55.73C135.475 55.7679 135.988 55.9163 136.455 56.1655Z" fill="#1D1D1B"/>
<path d="M138.833 68.2475C138.468 67.9685 138.173 67.6083 137.972 67.1955C137.771 66.7826 137.669 66.3286 137.674 65.8695C137.759 64.7057 138.238 63.6057 139.033 62.751C139.708 61.7917 140.692 61.0935 141.82 60.7736C142.278 60.6761 142.752 60.6859 143.206 60.8023C143.659 60.9186 144.079 61.1384 144.434 61.4444C144.863 61.7701 145.199 62.2026 145.409 62.6987C145.564 63.1099 145.63 63.5494 145.601 63.9879L145.671 64.0489C145.74 63.9182 145.862 63.7266 146.028 63.4653C146.193 63.2039 146.359 62.9862 146.524 62.7771L148.406 60.4688L149.939 61.7144L142.421 70.9653L141.228 69.9897L141.646 68.9008L141.585 68.8485C141.162 68.9773 140.716 69.0101 140.279 68.9444C139.741 68.8505 139.241 68.6092 138.833 68.2475ZM140.305 67.3764C140.508 67.5845 140.761 67.7382 141.04 67.8234C141.318 67.9086 141.613 67.9226 141.899 67.8642C142.525 67.638 143.068 67.2281 143.458 66.6883L143.615 66.4966C144.102 65.9597 144.441 65.3053 144.599 64.5977C144.62 64.2889 144.559 63.9801 144.421 63.703C144.283 63.4259 144.074 63.1905 143.815 63.021C143.607 62.8367 143.354 62.7112 143.081 62.6576C142.809 62.604 142.527 62.6242 142.265 62.7161C141.59 62.9928 141.005 63.4511 140.575 64.0402C140.085 64.5675 139.764 65.2285 139.651 65.9391C139.627 66.2147 139.674 66.4919 139.789 66.7438C139.903 66.9957 140.081 67.2136 140.305 67.3764Z" fill="#1D1D1B"/>
<path d="M155.218 72.7595L148.676 78.1776L147.683 76.9842L148.362 76.1131L148.301 76.0435C147.798 76.1079 147.288 76.0167 146.838 75.7821C146.381 75.5374 145.975 75.2061 145.645 74.8065C145.084 74.2133 144.772 73.4276 144.773 72.6114C144.83 72.1841 144.975 71.7734 145.201 71.4058C145.426 71.0382 145.725 70.7219 146.08 70.4773L150.357 66.9407L151.62 68.4564L147.648 71.749C146.672 72.5591 146.516 73.3605 147.186 74.1706C147.359 74.4364 147.602 74.6499 147.887 74.7881C148.173 74.9262 148.491 74.9838 148.807 74.9546C149.534 74.7909 150.205 74.4361 150.749 73.9267L153.946 71.2699L155.218 72.7595Z" fill="#1D1D1B"/>
<path d="M154.782 83.7614C154.466 83.9673 154.103 84.0904 153.727 84.1193C153.351 84.1482 152.974 84.0821 152.63 83.9269C151.811 83.4932 151.152 82.8097 150.749 81.9757C150.486 81.5378 150.27 81.0736 150.104 80.5907C149.967 80.1812 149.876 79.7575 149.834 79.3276L151.289 78.4565C151.33 78.9479 151.414 79.4347 151.541 79.9113C151.659 80.3825 151.838 80.8364 152.073 81.2614C152.252 81.6218 152.53 81.9239 152.874 82.1325C152.991 82.1989 153.123 82.2339 153.257 82.2339C153.392 82.2339 153.524 82.1989 153.641 82.1325C153.779 82.0524 153.889 81.9304 153.954 81.7841C154.036 81.5613 154.072 81.3242 154.059 81.0872C154.048 80.6327 154.014 80.1791 153.954 79.7283C153.874 79.233 153.836 78.7318 153.841 78.2301C153.847 77.8464 153.945 77.4698 154.128 77.1325C154.338 76.7848 154.639 76.5015 154.999 76.3137C155.289 76.1287 155.622 76.0239 155.964 76.0101C156.307 75.9963 156.648 76.074 156.951 76.2353C157.679 76.6593 158.27 77.2856 158.649 78.0384C158.902 78.4696 159.103 78.9285 159.25 79.406C159.393 79.8776 159.489 80.3618 159.538 80.852L157.952 81.0349C157.91 80.6248 157.844 80.2175 157.752 79.8154C157.666 79.4302 157.522 79.0603 157.325 78.7179C156.898 77.9687 156.454 77.7074 156.045 77.9513C155.896 78.0316 155.784 78.1656 155.731 78.3259C155.664 78.5517 155.643 78.7887 155.67 79.0227C155.694 79.4517 155.74 79.8792 155.81 80.3032C155.883 80.7787 155.918 81.2594 155.914 81.7405C155.919 82.1345 155.826 82.5235 155.644 82.8729C155.446 83.2446 155.147 83.5526 154.782 83.7614Z" fill="#1D1D1B"/>
<path d="M155.757 88.9268C155.845 89.1498 155.956 89.363 156.088 89.5626C156.208 89.7528 156.339 89.936 156.48 90.1114L155.113 90.6515C154.912 90.4509 154.734 90.2289 154.581 89.9895C154.391 89.6926 154.23 89.3775 154.102 89.0487C153.926 88.6325 153.834 88.1854 153.832 87.7334C153.841 87.3009 153.994 86.8838 154.268 86.5487C154.654 86.1222 155.143 85.8014 155.687 85.6166L159.79 83.979L159.372 82.9163L160.173 82.594L161.271 83.4651L163.187 83.378L163.64 84.5278L161.898 85.2247L162.769 87.4633L161.384 88.0121L160.513 85.7734L156.419 87.4024C156.265 87.4515 156.123 87.5318 156.002 87.6382C155.881 87.7446 155.782 87.8748 155.714 88.0208C155.659 88.1668 155.634 88.3225 155.641 88.4783C155.649 88.6341 155.688 88.7867 155.757 88.9268Z" fill="#1D1D1B"/>
<path d="M164.809 94.2318C164.809 94.3624 164.87 94.5105 164.905 94.6673C164.93 94.8053 164.945 94.9451 164.948 95.0854L163.128 95.3642C163.128 95.2596 163.128 95.1377 163.128 94.9896C163.112 94.8605 163.089 94.7325 163.058 94.6063C162.958 94.2113 162.774 93.8427 162.518 93.5262C162.257 93.2145 161.913 92.9846 161.525 92.8642C161.067 92.7289 160.58 92.7289 160.122 92.8642L155.854 93.9356L155.366 92.0192L163.607 89.946L163.981 91.4182L162.622 92.0541V92.1412C163.127 92.2766 163.594 92.5237 163.99 92.8642C164.404 93.2189 164.692 93.699 164.809 94.2318Z" fill="#1D1D1B"/>
<path d="M165.157 96.2874L165.357 98.4302L160.74 100.564C160.458 100.702 160.167 100.822 159.869 100.921C159.585 101.025 159.294 101.106 158.998 101.165V101.226C159.259 101.226 159.556 101.279 159.869 101.331C160.183 101.383 160.505 101.453 160.81 101.531L165.74 102.707L165.941 104.824L156.019 102.124C155.242 101.931 154.53 101.538 153.954 100.982C153.436 100.446 153.127 99.7413 153.083 98.9964C153.067 98.7702 153.067 98.5432 153.083 98.317C153.083 98.1253 153.083 97.9598 153.083 97.8117L154.651 97.6637C154.651 97.7769 154.651 97.925 154.651 98.0818C154.638 98.2528 154.638 98.4246 154.651 98.5957C154.66 98.8099 154.713 99.02 154.806 99.2132C154.898 99.4064 155.03 99.5787 155.191 99.7194C155.523 99.9868 155.91 100.177 156.324 100.277L157.029 100.469L165.157 96.2874Z" fill="#1D1D1B"/>
<g filter="url(#filter1_d_276_4874)">
<path d="M109.94 145.88C131.998 145.88 149.88 127.998 149.88 105.94C149.88 83.8817 131.998 66 109.94 66C87.8817 66 70 83.8817 70 105.94C70 127.998 87.8817 145.88 109.94 145.88Z" fill="url(#paint1_linear_276_4874)"/>
<path d="M148.38 105.94C148.38 127.17 131.17 144.38 109.94 144.38C88.7102 144.38 71.5 127.17 71.5 105.94C71.5 84.7102 88.7102 67.5 109.94 67.5C131.17 67.5 148.38 84.7102 148.38 105.94Z" stroke="white" stroke-width="3"/>
</g>
<g filter="url(#filter2_d_276_4874)">
<mask id="path-21-inside-1_276_4874" fill="white">
<path d="M90 125.605C90.2478 125.334 90.5541 125.266 90.9151 125.283C91.4375 125.309 91.9615 125.29 92.503 125.29V118.124C91.7446 118.029 91.5214 117.887 91.5079 117.496C91.4953 117.121 91.7035 116.98 92.5037 116.825V114.682C91.7122 114.54 91.4961 114.396 91.5079 114.023C91.5198 113.649 91.7454 113.499 92.5243 113.404V111.129C92.5243 110.799 92.5204 110.47 92.5243 110.141C92.5322 109.739 92.7563 109.493 93.1045 109.488C93.4671 109.484 93.7069 109.74 93.7093 110.16C93.7141 111.148 93.7093 112.135 93.7093 113.123V113.44C94.55 113.44 95.3621 113.445 96.1735 113.433C96.2598 113.433 96.3547 113.339 96.4268 113.271C96.7015 113.005 96.9658 112.729 97.2397 112.463C97.9258 111.793 98.6149 111.126 99.3073 110.46C100.268 110.447 101.228 110.426 102.189 110.423C103.663 110.416 105.139 110.415 106.614 110.426C106.736 110.432 106.859 110.411 106.972 110.363C107.086 110.316 107.187 110.244 107.27 110.153C108.65 108.759 110.045 107.379 111.425 105.984C111.535 105.864 111.67 105.769 111.821 105.707C111.971 105.644 112.133 105.615 112.296 105.622C113.427 105.638 114.559 105.627 115.717 105.627V97.3254C108.391 98.4668 101.069 98.3893 93.7069 97.3072V107.439C93.7158 107.557 93.7132 107.676 93.699 107.794C93.6325 108.117 93.437 108.309 93.0943 108.296C92.7515 108.284 92.5631 108.098 92.5243 107.762C92.5165 107.657 92.5146 107.551 92.5188 107.445C92.5188 103.917 92.5259 100.387 92.5093 96.8584C92.5093 96.4159 92.6676 96.161 93.0349 95.9433C94.3014 95.1898 95.6202 94.5375 97.0212 94.0681C97.216 94.0032 97.4906 93.9771 97.6545 94.0681C97.8184 94.1592 97.9767 94.4362 97.9474 94.5985C97.9182 94.7126 97.8658 94.8195 97.7934 94.9125C97.7211 95.0055 97.6305 95.0827 97.5271 95.1391C96.9302 95.4304 96.297 95.6505 95.6764 95.9077C95.4618 95.9964 95.2608 96.1143 94.9576 96.2671C101.521 97.1338 107.969 97.1948 114.424 96.2972L114.458 96.1769C113.562 95.8183 112.676 95.432 111.767 95.1067C109.147 94.1703 106.429 93.9462 103.677 94.0784C102.421 94.1386 101.171 94.3349 99.92 94.4893C99.4609 94.5462 99.1577 94.4156 99.0888 94.061C99.0097 93.67 99.2226 93.3668 99.696 93.3083C101.091 93.1341 102.489 92.9916 103.885 92.8333C103.95 92.8254 104.015 92.8207 104.139 92.8088V91.722C104.139 91.3009 104.139 90.879 104.139 90.4555C104.139 89.9584 104.351 89.6829 104.725 89.679C105.098 89.675 105.327 89.9623 105.329 90.4436C105.329 91.194 105.329 91.9476 105.334 92.6956C105.34 92.7326 105.348 92.7691 105.36 92.8048H105.938C105.972 92.3093 105.99 91.7995 106.042 91.2937C106.31 88.7188 108.475 86.4652 111.034 86.0995C111.385 86.0487 111.739 86.0223 112.094 86.0204C114.649 86.0141 117.206 86.0726 119.759 86.0022C122.933 85.9151 126.022 88.4418 126.001 92.1929C126.001 92.8381 125.99 93.4832 126.009 94.1283C126.024 94.2868 126.09 94.4361 126.199 94.5526C126.491 94.8637 126.491 95.1771 126.206 95.4898C126.09 95.6165 126.021 95.779 126.009 95.9505C125.999 101.955 125.999 107.96 126.009 113.965C126.025 114.137 126.097 114.298 126.214 114.425C126.483 114.727 126.484 115.039 126.222 115.336C126.101 115.473 126.026 115.646 126.01 115.828C125.99 116.789 126.001 117.75 126.001 118.712C126.001 118.817 126.005 118.923 126.001 119.028C125.97 119.442 125.755 119.673 125.404 119.676C125.038 119.68 124.792 119.43 124.788 119.007C124.779 117.993 124.788 116.979 124.788 115.966V115.514H123.258V125.262H124.782V121.751C124.782 121.145 124.968 120.871 125.381 120.863C125.809 120.854 126.001 121.131 126.001 121.768C126.001 122.782 126.001 123.796 126.001 124.81V125.285H127.406C128.13 125.285 128.854 125.29 129.579 125.285C129.917 125.285 130.251 125.269 130.419 125.644C130.578 126 130.35 126.233 130.148 126.472H90V125.605ZM115.74 110.274C114.942 110.274 114.18 110.258 113.419 110.285C113.206 110.296 113.003 110.38 112.843 110.522C111.471 111.868 110.111 113.227 108.763 114.599C108.624 114.753 108.453 114.875 108.261 114.956C108.07 115.036 107.863 115.074 107.655 115.065C105.417 115.047 103.178 115.047 100.94 115.065C100.713 115.077 100.497 115.166 100.329 115.318C99.6129 115.997 98.8949 116.68 98.2363 117.414C97.774 117.927 97.2745 118.143 96.5803 118.102C95.64 118.046 94.6932 118.088 93.7378 118.088V125.253H115.744L115.74 110.274ZM121.99 125.274C122 125.234 122.008 125.194 122.013 125.154C122.013 122.008 122.011 118.862 122.008 115.715C122.008 115.588 121.901 115.44 121.806 115.339C121.548 115.064 121.509 114.698 121.791 114.468C121.982 114.31 122.02 114.152 122.02 113.93C122.016 107.94 122.016 101.95 122.02 95.9615C122.02 95.7589 122.004 95.6046 121.807 95.4621C121.546 95.2737 121.501 94.8375 121.748 94.6642C122.065 94.441 122.017 94.1615 122.018 93.8726C122.018 93.2805 122.022 92.6853 122.018 92.0956C122.006 90.9083 121.151 89.9948 119.967 89.9845C117.321 89.9608 114.675 89.9608 112.027 89.9845C110.875 89.9932 110.031 90.8552 109.969 92.0077C109.952 92.3101 109.986 92.6156 109.954 92.9156C109.919 93.2544 110.048 93.3906 110.377 93.4642C112.543 93.9708 114.563 94.8328 116.466 95.9813C116.799 96.1776 116.957 96.4214 116.957 96.8346C116.941 99.6122 116.949 102.391 116.949 105.168V105.587C117.828 105.695 118.057 105.813 118.046 106.201C118.023 106.925 117.431 106.813 116.973 106.855V109.063C117.431 109.101 118.022 108.979 118.037 109.648C118.055 110.366 117.427 110.247 116.978 110.297V125.274H121.99ZM108.741 93.0969C108.741 92.7178 108.733 92.3766 108.741 92.0362C108.79 90.1943 110.226 88.7908 112.066 88.7908C114.699 88.7877 117.332 88.7877 119.966 88.7908C121.005 88.7908 121.845 89.2238 122.499 90.0201C123.044 90.6819 123.235 91.4584 123.23 92.2982C123.226 92.9916 123.23 93.685 123.23 94.3903H124.777C124.777 93.6106 124.777 92.8626 124.777 92.1138C124.763 89.3536 122.636 87.2212 119.869 87.2101C117.275 87.2006 114.681 87.1911 112.088 87.222C111.511 87.2301 110.938 87.3317 110.393 87.5228C108.335 88.2565 106.99 90.1919 107.203 92.7177C107.211 92.8104 107.396 92.9402 107.515 92.9608C107.907 93.0241 108.302 93.0494 108.741 93.0969ZM124.763 95.6679H123.27V114.269H124.763V95.6679ZM113.518 109.124V106.891C112.595 106.71 112.339 106.785 111.718 107.406C110.443 108.679 109.175 109.957 107.89 111.224C107.679 111.43 107.396 111.562 107.075 111.778V113.808C107.514 113.905 107.848 113.838 108.177 113.495C109.364 112.264 110.594 111.077 111.79 109.854C112.26 109.371 112.694 108.867 113.518 109.124ZM100.816 111.671C100.124 111.482 99.6287 111.675 99.1838 112.192C98.6448 112.819 98.025 113.38 97.4352 113.96C97.0885 114.304 96.802 114.752 96.2131 114.643V116.836C96.9769 116.943 96.9833 116.941 97.4622 116.463C98.0574 115.867 98.6529 115.272 99.2487 114.676C99.6873 114.24 100.052 113.671 100.816 113.842V111.671ZM105.808 111.64H102.056V113.81H105.808V111.64ZM93.7418 114.653V116.844H94.9513V114.653H93.7418ZM114.752 109.05H115.724V106.861H114.752V109.05Z"/>
</mask>
<path d="M90 125.605C90.2478 125.334 90.5541 125.266 90.9151 125.283C91.4375 125.309 91.9615 125.29 92.503 125.29V118.124C91.7446 118.029 91.5214 117.887 91.5079 117.496C91.4953 117.121 91.7035 116.98 92.5037 116.825V114.682C91.7122 114.54 91.4961 114.396 91.5079 114.023C91.5198 113.649 91.7454 113.499 92.5243 113.404V111.129C92.5243 110.799 92.5204 110.47 92.5243 110.141C92.5322 109.739 92.7563 109.493 93.1045 109.488C93.4671 109.484 93.7069 109.74 93.7093 110.16C93.7141 111.148 93.7093 112.135 93.7093 113.123V113.44C94.55 113.44 95.3621 113.445 96.1735 113.433C96.2598 113.433 96.3547 113.339 96.4268 113.271C96.7015 113.005 96.9658 112.729 97.2397 112.463C97.9258 111.793 98.6149 111.126 99.3073 110.46C100.268 110.447 101.228 110.426 102.189 110.423C103.663 110.416 105.139 110.415 106.614 110.426C106.736 110.432 106.859 110.411 106.972 110.363C107.086 110.316 107.187 110.244 107.27 110.153C108.65 108.759 110.045 107.379 111.425 105.984C111.535 105.864 111.67 105.769 111.821 105.707C111.971 105.644 112.133 105.615 112.296 105.622C113.427 105.638 114.559 105.627 115.717 105.627V97.3254C108.391 98.4668 101.069 98.3893 93.7069 97.3072V107.439C93.7158 107.557 93.7132 107.676 93.699 107.794C93.6325 108.117 93.437 108.309 93.0943 108.296C92.7515 108.284 92.5631 108.098 92.5243 107.762C92.5165 107.657 92.5146 107.551 92.5188 107.445C92.5188 103.917 92.5259 100.387 92.5093 96.8584C92.5093 96.4159 92.6676 96.161 93.0349 95.9433C94.3014 95.1898 95.6202 94.5375 97.0212 94.0681C97.216 94.0032 97.4906 93.9771 97.6545 94.0681C97.8184 94.1592 97.9767 94.4362 97.9474 94.5985C97.9182 94.7126 97.8658 94.8195 97.7934 94.9125C97.7211 95.0055 97.6305 95.0827 97.5271 95.1391C96.9302 95.4304 96.297 95.6505 95.6764 95.9077C95.4618 95.9964 95.2608 96.1143 94.9576 96.2671C101.521 97.1338 107.969 97.1948 114.424 96.2972L114.458 96.1769C113.562 95.8183 112.676 95.432 111.767 95.1067C109.147 94.1703 106.429 93.9462 103.677 94.0784C102.421 94.1386 101.171 94.3349 99.92 94.4893C99.4609 94.5462 99.1577 94.4156 99.0888 94.061C99.0097 93.67 99.2226 93.3668 99.696 93.3083C101.091 93.1341 102.489 92.9916 103.885 92.8333C103.95 92.8254 104.015 92.8207 104.139 92.8088V91.722C104.139 91.3009 104.139 90.879 104.139 90.4555C104.139 89.9584 104.351 89.6829 104.725 89.679C105.098 89.675 105.327 89.9623 105.329 90.4436C105.329 91.194 105.329 91.9476 105.334 92.6956C105.34 92.7326 105.348 92.7691 105.36 92.8048H105.938C105.972 92.3093 105.99 91.7995 106.042 91.2937C106.31 88.7188 108.475 86.4652 111.034 86.0995C111.385 86.0487 111.739 86.0223 112.094 86.0204C114.649 86.0141 117.206 86.0726 119.759 86.0022C122.933 85.9151 126.022 88.4418 126.001 92.1929C126.001 92.8381 125.99 93.4832 126.009 94.1283C126.024 94.2868 126.09 94.4361 126.199 94.5526C126.491 94.8637 126.491 95.1771 126.206 95.4898C126.09 95.6165 126.021 95.779 126.009 95.9505C125.999 101.955 125.999 107.96 126.009 113.965C126.025 114.137 126.097 114.298 126.214 114.425C126.483 114.727 126.484 115.039 126.222 115.336C126.101 115.473 126.026 115.646 126.01 115.828C125.99 116.789 126.001 117.75 126.001 118.712C126.001 118.817 126.005 118.923 126.001 119.028C125.97 119.442 125.755 119.673 125.404 119.676C125.038 119.68 124.792 119.43 124.788 119.007C124.779 117.993 124.788 116.979 124.788 115.966V115.514H123.258V125.262H124.782V121.751C124.782 121.145 124.968 120.871 125.381 120.863C125.809 120.854 126.001 121.131 126.001 121.768C126.001 122.782 126.001 123.796 126.001 124.81V125.285H127.406C128.13 125.285 128.854 125.29 129.579 125.285C129.917 125.285 130.251 125.269 130.419 125.644C130.578 126 130.35 126.233 130.148 126.472H90V125.605ZM115.74 110.274C114.942 110.274 114.18 110.258 113.419 110.285C113.206 110.296 113.003 110.38 112.843 110.522C111.471 111.868 110.111 113.227 108.763 114.599C108.624 114.753 108.453 114.875 108.261 114.956C108.07 115.036 107.863 115.074 107.655 115.065C105.417 115.047 103.178 115.047 100.94 115.065C100.713 115.077 100.497 115.166 100.329 115.318C99.6129 115.997 98.8949 116.68 98.2363 117.414C97.774 117.927 97.2745 118.143 96.5803 118.102C95.64 118.046 94.6932 118.088 93.7378 118.088V125.253H115.744L115.74 110.274ZM121.99 125.274C122 125.234 122.008 125.194 122.013 125.154C122.013 122.008 122.011 118.862 122.008 115.715C122.008 115.588 121.901 115.44 121.806 115.339C121.548 115.064 121.509 114.698 121.791 114.468C121.982 114.31 122.02 114.152 122.02 113.93C122.016 107.94 122.016 101.95 122.02 95.9615C122.02 95.7589 122.004 95.6046 121.807 95.4621C121.546 95.2737 121.501 94.8375 121.748 94.6642C122.065 94.441 122.017 94.1615 122.018 93.8726C122.018 93.2805 122.022 92.6853 122.018 92.0956C122.006 90.9083 121.151 89.9948 119.967 89.9845C117.321 89.9608 114.675 89.9608 112.027 89.9845C110.875 89.9932 110.031 90.8552 109.969 92.0077C109.952 92.3101 109.986 92.6156 109.954 92.9156C109.919 93.2544 110.048 93.3906 110.377 93.4642C112.543 93.9708 114.563 94.8328 116.466 95.9813C116.799 96.1776 116.957 96.4214 116.957 96.8346C116.941 99.6122 116.949 102.391 116.949 105.168V105.587C117.828 105.695 118.057 105.813 118.046 106.201C118.023 106.925 117.431 106.813 116.973 106.855V109.063C117.431 109.101 118.022 108.979 118.037 109.648C118.055 110.366 117.427 110.247 116.978 110.297V125.274H121.99ZM108.741 93.0969C108.741 92.7178 108.733 92.3766 108.741 92.0362C108.79 90.1943 110.226 88.7908 112.066 88.7908C114.699 88.7877 117.332 88.7877 119.966 88.7908C121.005 88.7908 121.845 89.2238 122.499 90.0201C123.044 90.6819 123.235 91.4584 123.23 92.2982C123.226 92.9916 123.23 93.685 123.23 94.3903H124.777C124.777 93.6106 124.777 92.8626 124.777 92.1138C124.763 89.3536 122.636 87.2212 119.869 87.2101C117.275 87.2006 114.681 87.1911 112.088 87.222C111.511 87.2301 110.938 87.3317 110.393 87.5228C108.335 88.2565 106.99 90.1919 107.203 92.7177C107.211 92.8104 107.396 92.9402 107.515 92.9608C107.907 93.0241 108.302 93.0494 108.741 93.0969ZM124.763 95.6679H123.27V114.269H124.763V95.6679ZM113.518 109.124V106.891C112.595 106.71 112.339 106.785 111.718 107.406C110.443 108.679 109.175 109.957 107.89 111.224C107.679 111.43 107.396 111.562 107.075 111.778V113.808C107.514 113.905 107.848 113.838 108.177 113.495C109.364 112.264 110.594 111.077 111.79 109.854C112.26 109.371 112.694 108.867 113.518 109.124ZM100.816 111.671C100.124 111.482 99.6287 111.675 99.1838 112.192C98.6448 112.819 98.025 113.38 97.4352 113.96C97.0885 114.304 96.802 114.752 96.2131 114.643V116.836C96.9769 116.943 96.9833 116.941 97.4622 116.463C98.0574 115.867 98.6529 115.272 99.2487 114.676C99.6873 114.24 100.052 113.671 100.816 113.842V111.671ZM105.808 111.64H102.056V113.81H105.808V111.64ZM93.7418 114.653V116.844H94.9513V114.653H93.7418ZM114.752 109.05H115.724V106.861H114.752V109.05Z" fill="url(#paint2_linear_276_4874)"/>
<path d="M90 125.605C90.2478 125.334 90.5541 125.266 90.9151 125.283C91.4375 125.309 91.9615 125.29 92.503 125.29V118.124C91.7446 118.029 91.5214 117.887 91.5079 117.496C91.4953 117.121 91.7035 116.98 92.5037 116.825V114.682C91.7122 114.54 91.4961 114.396 91.5079 114.023C91.5198 113.649 91.7454 113.499 92.5243 113.404V111.129C92.5243 110.799 92.5204 110.47 92.5243 110.141C92.5322 109.739 92.7563 109.493 93.1045 109.488C93.4671 109.484 93.7069 109.74 93.7093 110.16C93.7141 111.148 93.7093 112.135 93.7093 113.123V113.44C94.55 113.44 95.3621 113.445 96.1735 113.433C96.2598 113.433 96.3547 113.339 96.4268 113.271C96.7015 113.005 96.9658 112.729 97.2397 112.463C97.9258 111.793 98.6149 111.126 99.3073 110.46C100.268 110.447 101.228 110.426 102.189 110.423C103.663 110.416 105.139 110.415 106.614 110.426C106.736 110.432 106.859 110.411 106.972 110.363C107.086 110.316 107.187 110.244 107.27 110.153C108.65 108.759 110.045 107.379 111.425 105.984C111.535 105.864 111.67 105.769 111.821 105.707C111.971 105.644 112.133 105.615 112.296 105.622C113.427 105.638 114.559 105.627 115.717 105.627V97.3254C108.391 98.4668 101.069 98.3893 93.7069 97.3072V107.439C93.7158 107.557 93.7132 107.676 93.699 107.794C93.6325 108.117 93.437 108.309 93.0943 108.296C92.7515 108.284 92.5631 108.098 92.5243 107.762C92.5165 107.657 92.5146 107.551 92.5188 107.445C92.5188 103.917 92.5259 100.387 92.5093 96.8584C92.5093 96.4159 92.6676 96.161 93.0349 95.9433C94.3014 95.1898 95.6202 94.5375 97.0212 94.0681C97.216 94.0032 97.4906 93.9771 97.6545 94.0681C97.8184 94.1592 97.9767 94.4362 97.9474 94.5985C97.9182 94.7126 97.8658 94.8195 97.7934 94.9125C97.7211 95.0055 97.6305 95.0827 97.5271 95.1391C96.9302 95.4304 96.297 95.6505 95.6764 95.9077C95.4618 95.9964 95.2608 96.1143 94.9576 96.2671C101.521 97.1338 107.969 97.1948 114.424 96.2972L114.458 96.1769C113.562 95.8183 112.676 95.432 111.767 95.1067C109.147 94.1703 106.429 93.9462 103.677 94.0784C102.421 94.1386 101.171 94.3349 99.92 94.4893C99.4609 94.5462 99.1577 94.4156 99.0888 94.061C99.0097 93.67 99.2226 93.3668 99.696 93.3083C101.091 93.1341 102.489 92.9916 103.885 92.8333C103.95 92.8254 104.015 92.8207 104.139 92.8088V91.722C104.139 91.3009 104.139 90.879 104.139 90.4555C104.139 89.9584 104.351 89.6829 104.725 89.679C105.098 89.675 105.327 89.9623 105.329 90.4436C105.329 91.194 105.329 91.9476 105.334 92.6956C105.34 92.7326 105.348 92.7691 105.36 92.8048H105.938C105.972 92.3093 105.99 91.7995 106.042 91.2937C106.31 88.7188 108.475 86.4652 111.034 86.0995C111.385 86.0487 111.739 86.0223 112.094 86.0204C114.649 86.0141 117.206 86.0726 119.759 86.0022C122.933 85.9151 126.022 88.4418 126.001 92.1929C126.001 92.8381 125.99 93.4832 126.009 94.1283C126.024 94.2868 126.09 94.4361 126.199 94.5526C126.491 94.8637 126.491 95.1771 126.206 95.4898C126.09 95.6165 126.021 95.779 126.009 95.9505C125.999 101.955 125.999 107.96 126.009 113.965C126.025 114.137 126.097 114.298 126.214 114.425C126.483 114.727 126.484 115.039 126.222 115.336C126.101 115.473 126.026 115.646 126.01 115.828C125.99 116.789 126.001 117.75 126.001 118.712C126.001 118.817 126.005 118.923 126.001 119.028C125.97 119.442 125.755 119.673 125.404 119.676C125.038 119.68 124.792 119.43 124.788 119.007C124.779 117.993 124.788 116.979 124.788 115.966V115.514H123.258V125.262H124.782V121.751C124.782 121.145 124.968 120.871 125.381 120.863C125.809 120.854 126.001 121.131 126.001 121.768C126.001 122.782 126.001 123.796 126.001 124.81V125.285H127.406C128.13 125.285 128.854 125.29 129.579 125.285C129.917 125.285 130.251 125.269 130.419 125.644C130.578 126 130.35 126.233 130.148 126.472H90V125.605ZM115.74 110.274C114.942 110.274 114.18 110.258 113.419 110.285C113.206 110.296 113.003 110.38 112.843 110.522C111.471 111.868 110.111 113.227 108.763 114.599C108.624 114.753 108.453 114.875 108.261 114.956C108.07 115.036 107.863 115.074 107.655 115.065C105.417 115.047 103.178 115.047 100.94 115.065C100.713 115.077 100.497 115.166 100.329 115.318C99.6129 115.997 98.8949 116.68 98.2363 117.414C97.774 117.927 97.2745 118.143 96.5803 118.102C95.64 118.046 94.6932 118.088 93.7378 118.088V125.253H115.744L115.74 110.274ZM121.99 125.274C122 125.234 122.008 125.194 122.013 125.154C122.013 122.008 122.011 118.862 122.008 115.715C122.008 115.588 121.901 115.44 121.806 115.339C121.548 115.064 121.509 114.698 121.791 114.468C121.982 114.31 122.02 114.152 122.02 113.93C122.016 107.94 122.016 101.95 122.02 95.9615C122.02 95.7589 122.004 95.6046 121.807 95.4621C121.546 95.2737 121.501 94.8375 121.748 94.6642C122.065 94.441 122.017 94.1615 122.018 93.8726C122.018 93.2805 122.022 92.6853 122.018 92.0956C122.006 90.9083 121.151 89.9948 119.967 89.9845C117.321 89.9608 114.675 89.9608 112.027 89.9845C110.875 89.9932 110.031 90.8552 109.969 92.0077C109.952 92.3101 109.986 92.6156 109.954 92.9156C109.919 93.2544 110.048 93.3906 110.377 93.4642C112.543 93.9708 114.563 94.8328 116.466 95.9813C116.799 96.1776 116.957 96.4214 116.957 96.8346C116.941 99.6122 116.949 102.391 116.949 105.168V105.587C117.828 105.695 118.057 105.813 118.046 106.201C118.023 106.925 117.431 106.813 116.973 106.855V109.063C117.431 109.101 118.022 108.979 118.037 109.648C118.055 110.366 117.427 110.247 116.978 110.297V125.274H121.99ZM108.741 93.0969C108.741 92.7178 108.733 92.3766 108.741 92.0362C108.79 90.1943 110.226 88.7908 112.066 88.7908C114.699 88.7877 117.332 88.7877 119.966 88.7908C121.005 88.7908 121.845 89.2238 122.499 90.0201C123.044 90.6819 123.235 91.4584 123.23 92.2982C123.226 92.9916 123.23 93.685 123.23 94.3903H124.777C124.777 93.6106 124.777 92.8626 124.777 92.1138C124.763 89.3536 122.636 87.2212 119.869 87.2101C117.275 87.2006 114.681 87.1911 112.088 87.222C111.511 87.2301 110.938 87.3317 110.393 87.5228C108.335 88.2565 106.99 90.1919 107.203 92.7177C107.211 92.8104 107.396 92.9402 107.515 92.9608C107.907 93.0241 108.302 93.0494 108.741 93.0969ZM124.763 95.6679H123.27V114.269H124.763V95.6679ZM113.518 109.124V106.891C112.595 106.71 112.339 106.785 111.718 107.406C110.443 108.679 109.175 109.957 107.89 111.224C107.679 111.43 107.396 111.562 107.075 111.778V113.808C107.514 113.905 107.848 113.838 108.177 113.495C109.364 112.264 110.594 111.077 111.79 109.854C112.26 109.371 112.694 108.867 113.518 109.124ZM100.816 111.671C100.124 111.482 99.6287 111.675 99.1838 112.192C98.6448 112.819 98.025 113.38 97.4352 113.96C97.0885 114.304 96.802 114.752 96.2131 114.643V116.836C96.9769 116.943 96.9833 116.941 97.4622 116.463C98.0574 115.867 98.6529 115.272 99.2487 114.676C99.6873 114.24 100.052 113.671 100.816 113.842V111.671ZM105.808 111.64H102.056V113.81H105.808V111.64ZM93.7418 114.653V116.844H94.9513V114.653H93.7418ZM114.752 109.05H115.724V106.861H114.752V109.05Z" stroke="white" stroke-width="10" mask="url(#path-21-inside-1_276_4874)"/>
</g>
<g filter="url(#filter3_d_276_4874)">
<path d="M112.208 121.683C112.208 122.168 111.962 122.427 111.575 122.43C111.168 122.43 110.791 122.422 110.458 122.753C110.258 122.951 109.953 122.877 109.745 122.661C109.529 122.432 109.517 122.165 109.687 121.903C110.083 121.301 111.225 120.966 111.863 121.296C112.033 121.386 112.137 121.605 112.208 121.683Z" fill="url(#paint3_linear_276_4874)"/>
<path d="M111.575 122.43V122.253L112.027 121.846C112.046 121.934 112.059 122.027 112.066 122.125C112.067 122.149 112.069 122.173 112.069 122.196C111.959 122.349 111.788 122.429 111.575 122.43ZM111.575 122.43L111.573 122.254L111.376 122.431C111.431 122.43 111.487 122.43 111.544 122.43C111.554 122.43 111.564 122.43 111.575 122.43ZM109.876 121.683C110.225 121.36 110.796 121.157 111.296 121.167L110.76 121.683H109.876ZM110.78 121.683L111.326 121.168C111.408 121.171 111.488 121.18 111.564 121.195L111.568 121.683H110.78ZM111.575 121.197C111.655 121.213 111.732 121.237 111.804 121.268C111.817 121.29 111.83 121.313 111.842 121.336L111.659 121.683H111.575V121.197ZM111.662 121.683L111.842 121.336C111.897 121.44 111.947 121.556 111.985 121.683H111.662Z" stroke="white" stroke-width="5"/>
</g>
<g filter="url(#filter4_d_276_4874)">
<path d="M99.8816 121.685C99.8816 122.167 99.6528 122.418 99.2847 122.429C98.8692 122.442 98.4765 122.414 98.129 122.755C97.9169 122.963 97.5979 122.871 97.3976 122.625C97.1974 122.38 97.2069 122.118 97.3976 121.868C97.8457 121.277 98.8391 120.984 99.5127 121.286C99.694 121.367 99.808 121.602 99.8816 121.685Z" fill="url(#paint4_linear_276_4874)"/>
<path d="M99.164 122.432C99.1206 122.433 99.0774 122.434 99.0346 122.435L99.2784 122.219L99.2784 122.219L99.708 121.839C99.7316 121.95 99.7467 122.069 99.7502 122.195C99.6469 122.344 99.4868 122.423 99.2847 122.429C99.2443 122.43 99.2041 122.431 99.164 122.432ZM99.6688 121.685H99.3341L99.5066 121.3C99.5686 121.411 99.6255 121.54 99.6688 121.685ZM99.4943 121.278C99.4984 121.285 99.5025 121.292 99.5066 121.3L99.3333 121.685H99.2623H99.2621H98.5498H97.5633C97.9688 121.305 98.6132 121.1 99.1627 121.185C99.1912 121.189 99.2194 121.194 99.2473 121.2C99.2475 121.2 99.2476 121.2 99.2478 121.2C99.3332 121.219 99.4158 121.244 99.4943 121.278Z" stroke="white" stroke-width="5"/>
</g>
<g filter="url(#filter5_d_276_4874)">
<mask id="path-26-inside-2_276_4874" fill="white">
<path d="M104.964 121.215C105.147 121.222 105.332 121.215 105.518 121.242C105.848 121.287 106.038 121.48 106.045 121.821C106.051 122.162 105.849 122.352 105.534 122.422C105.404 122.445 105.27 122.449 105.138 122.434C104.853 122.413 104.616 122.46 104.398 122.689C104.166 122.931 103.809 122.891 103.586 122.664C103.364 122.437 103.364 122.103 103.575 121.842C103.932 121.401 104.339 121.069 104.964 121.215Z"/>
</mask>
<path d="M104.964 121.215C105.147 121.222 105.332 121.215 105.518 121.242C105.848 121.287 106.038 121.48 106.045 121.821C106.051 122.162 105.849 122.352 105.534 122.422C105.404 122.445 105.27 122.449 105.138 122.434C104.853 122.413 104.616 122.46 104.398 122.689C104.166 122.931 103.809 122.891 103.586 122.664C103.364 122.437 103.364 122.103 103.575 121.842C103.932 121.401 104.339 121.069 104.964 121.215Z" fill="url(#paint5_linear_276_4874)"/>
<path d="M104.964 121.215L103.828 126.084L104.282 126.19L104.748 126.21L104.964 121.215ZM105.518 121.242L104.778 126.187L104.809 126.192L104.84 126.196L105.518 121.242ZM105.534 122.422L106.397 127.347L106.512 127.327L106.625 127.302L105.534 122.422ZM105.138 122.434L105.704 117.466L105.608 117.455L105.511 117.448L105.138 122.434ZM104.398 122.689L108.015 126.141L108.019 126.136L104.398 122.689ZM103.575 121.842L107.457 124.993L107.461 124.989L103.575 121.842ZM104.748 126.21C104.807 126.212 104.859 126.214 104.903 126.215C104.947 126.216 104.985 126.217 105.014 126.218C105.029 126.218 105.043 126.218 105.054 126.218C105.065 126.218 105.074 126.219 105.082 126.219C105.098 126.219 105.104 126.219 105.106 126.219C105.108 126.219 105.1 126.219 105.087 126.218C105.074 126.218 105.053 126.217 105.026 126.215C104.971 126.211 104.886 126.203 104.778 126.187L106.257 116.297C105.868 116.239 105.54 116.227 105.374 116.223C105.297 116.221 105.208 116.219 105.189 116.219C105.151 116.218 105.158 116.218 105.179 116.219L104.748 126.21ZM104.84 126.196C104.208 126.11 103.148 125.799 102.244 124.828C101.31 123.826 101.06 122.677 101.046 121.914L111.044 121.728C111.023 120.623 110.675 119.208 109.562 118.013C108.478 116.849 107.157 116.42 106.195 116.288L104.84 126.196ZM101.046 121.914C101.029 121.014 101.312 119.858 102.194 118.878C103.002 117.98 103.93 117.658 104.443 117.543L106.625 127.302C107.454 127.117 108.64 126.664 109.627 125.568C110.686 124.391 111.067 122.969 111.044 121.728L101.046 121.914ZM104.672 117.497C105.013 117.438 105.36 117.427 105.704 117.466L104.573 127.402C105.18 127.471 105.795 127.453 106.397 127.347L104.672 117.497ZM105.511 117.448C105.02 117.412 104.205 117.401 103.269 117.69C102.266 117.999 101.428 118.557 100.776 119.242L108.019 126.136C107.585 126.592 106.975 127.011 106.217 127.245C105.525 127.459 104.971 127.436 104.766 127.42L105.511 117.448ZM100.78 119.237C102.903 117.013 105.835 117.814 107.159 119.166L100.014 126.162C101.782 127.968 105.43 128.85 108.015 126.141L100.78 119.237ZM107.159 119.166C107.943 119.967 108.407 121.059 108.418 122.218C108.429 123.346 108.013 124.308 107.457 124.993L99.6928 118.691C98.0925 120.663 97.7873 123.888 100.014 126.162L107.159 119.166ZM107.461 124.989C107.458 124.992 107.386 125.082 107.253 125.205C107.117 125.332 106.877 125.531 106.527 125.717C106.163 125.912 105.713 126.076 105.195 126.145C104.678 126.214 104.21 126.173 103.828 126.084L106.099 116.345C104.592 115.994 103.094 116.213 101.811 116.899C100.706 117.49 100.012 118.298 99.6893 118.696L107.461 124.989Z" fill="white" mask="url(#path-26-inside-2_276_4874)"/>
</g>
<defs>
<filter id="filter0_d_276_4874" x="0" y="0" width="220" height="220" filterUnits="userSpaceOnUse" color-interpolation-filters="sRGB">
<feFlood flood-opacity="0" result="BackgroundImageFix"/>
<feColorMatrix in="SourceAlpha" type="matrix" values="0 0 0 0 0 0 0 0 0 0 0 0 0 0 0 0 0 0 127 0" result="hardAlpha"/>
<feOffset dy="4"/>
<feGaussianBlur stdDeviation="20"/>
<feComposite in2="hardAlpha" operator="out"/>
<feColorMatrix type="matrix" values="0 0 0 0 0 0 0 0 0 0 0 0 0 0 0 0 0 0 0.25 0"/>
<feBlend mode="normal" in2="BackgroundImageFix" result="effect1_dropShadow_276_4874"/>
<feBlend mode="normal" in="SourceGraphic" in2="effect1_dropShadow_276_4874" result="shape"/>
</filter>
<filter id="filter1_d_276_4874" x="30" y="30" width="159.88" height="159.88" filterUnits="userSpaceOnUse" color-interpolation-filters="sRGB">
<feFlood flood-opacity="0" result="BackgroundImageFix"/>
<feColorMatrix in="SourceAlpha" type="matrix" values="0 0 0 0 0 0 0 0 0 0 0 0 0 0 0 0 0 0 127 0" result="hardAlpha"/>
<feOffset dy="4"/>
<feGaussianBlur stdDeviation="20"/>
<feComposite in2="hardAlpha" operator="out"/>
<feColorMatrix type="matrix" values="0 0 0 0 0 0 0 0 0 0 0 0 0 0 0 0 0 0 0.25 0"/>
<feBlend mode="normal" in2="BackgroundImageFix" result="effect1_dropShadow_276_4874"/>
<feBlend mode="normal" in="SourceGraphic" in2="effect1_dropShadow_276_4874" result="shape"/>
</filter>
<filter id="filter2_d_276_4874" x="50" y="50" width="120.473" height="120.472" filterUnits="userSpaceOnUse" color-interpolation-filters="sRGB">
<feFlood flood-opacity="0" result="BackgroundImageFix"/>
<feColorMatrix in="SourceAlpha" type="matrix" values="0 0 0 0 0 0 0 0 0 0 0 0 0 0 0 0 0 0 127 0" result="hardAlpha"/>
<feOffset dy="4"/>
<feGaussianBlur stdDeviation="20"/>
<feComposite in2="hardAlpha" operator="out"/>
<feColorMatrix type="matrix" values="0 0 0 0 0 0 0 0 0 0 0 0 0 0 0 0 0 0 0.25 0"/>
<feBlend mode="normal" in2="BackgroundImageFix" result="effect1_dropShadow_276_4874"/>
<feBlend mode="normal" in="SourceGraphic" in2="effect1_dropShadow_276_4874" result="shape"/>
</filter>
<filter id="filter3_d_276_4874" x="69.5703" y="85.1664" width="82.6377" height="81.7021" filterUnits="userSpaceOnUse" color-interpolation-filters="sRGB">
<feFlood flood-opacity="0" result="BackgroundImageFix"/>
<feColorMatrix in="SourceAlpha" type="matrix" values="0 0 0 0 0 0 0 0 0 0 0 0 0 0 0 0 0 0 127 0" result="hardAlpha"/>
<feOffset dy="4"/>
<feGaussianBlur stdDeviation="20"/>
<feComposite in2="hardAlpha" operator="out"/>
<feColorMatrix type="matrix" values="0 0 0 0 0 0 0 0 0 0 0 0 0 0 0 0 0 0 0.25 0"/>
<feBlend mode="normal" in2="BackgroundImageFix" result="effect1_dropShadow_276_4874"/>
<feBlend mode="normal" in="SourceGraphic" in2="effect1_dropShadow_276_4874" result="shape"/>
</filter>
<filter id="filter4_d_276_4874" x="57.251" y="85.1658" width="82.6309" height="81.7043" filterUnits="userSpaceOnUse" color-interpolation-filters="sRGB">
<feFlood flood-opacity="0" result="BackgroundImageFix"/>
<feColorMatrix in="SourceAlpha" type="matrix" values="0 0 0 0 0 0 0 0 0 0 0 0 0 0 0 0 0 0 127 0" result="hardAlpha"/>
<feOffset dy="4"/>
<feGaussianBlur stdDeviation="20"/>
<feComposite in2="hardAlpha" operator="out"/>
<feColorMatrix type="matrix" values="0 0 0 0 0 0 0 0 0 0 0 0 0 0 0 0 0 0 0.25 0"/>
<feBlend mode="normal" in2="BackgroundImageFix" result="effect1_dropShadow_276_4874"/>
<feBlend mode="normal" in="SourceGraphic" in2="effect1_dropShadow_276_4874" result="shape"/>
</filter>
<filter id="filter5_d_276_4874" x="63.418" y="85.1798" width="82.627" height="81.6736" filterUnits="userSpaceOnUse" color-interpolation-filters="sRGB">
<feFlood flood-opacity="0" result="BackgroundImageFix"/>
<feColorMatrix in="SourceAlpha" type="matrix" values="0 0 0 0 0 0 0 0 0 0 0 0 0 0 0 0 0 0 127 0" result="hardAlpha"/>
<feOffset dy="4"/>
<feGaussianBlur stdDeviation="20"/>
<feComposite in2="hardAlpha" operator="out"/>
<feColorMatrix type="matrix" values="0 0 0 0 0 0 0 0 0 0 0 0 0 0 0 0 0 0 0.25 0"/>
<feBlend mode="normal" in2="BackgroundImageFix" result="effect1_dropShadow_276_4874"/>
<feBlend mode="normal" in="SourceGraphic" in2="effect1_dropShadow_276_4874" result="shape"/>
</filter>
<linearGradient id="paint0_linear_276_4874" x1="40" y1="106" x2="179.968" y2="106" gradientUnits="userSpaceOnUse">
<stop offset="0.3" stop-color="white"/>
<stop offset="0.77" stop-color="white"/>
</linearGradient>
<linearGradient id="paint1_linear_276_4874" x1="70" y1="105.94" x2="149.862" y2="105.94" gradientUnits="userSpaceOnUse">
<stop offset="0.3" stop-color="#0B327D"/>
<stop offset="0.77" stop-color="#0B327D"/>
</linearGradient>
<linearGradient id="paint2_linear_276_4874" x1="90" y1="106.236" x2="130.463" y2="106.236" gradientUnits="userSpaceOnUse">
<stop offset="0.3" stop-color="#0B327D"/>
<stop offset="0.77" stop-color="#0B327D"/>
</linearGradient>
<linearGradient id="paint3_linear_276_4874" x1="109.57" y1="122.017" x2="112.207" y2="122.017" gradientUnits="userSpaceOnUse">
<stop offset="0.3" stop-color="#0B327D"/>
<stop offset="0.77" stop-color="#0B327D"/>
</linearGradient>
<linearGradient id="paint4_linear_276_4874" x1="97.251" y1="122.018" x2="99.881" y2="122.018" gradientUnits="userSpaceOnUse">
<stop offset="0.3" stop-color="#0B327D"/>
<stop offset="0.77" stop-color="#0B327D"/>
</linearGradient>
<linearGradient id="paint5_linear_276_4874" x1="103.418" y1="122.017" x2="106.044" y2="122.017" gradientUnits="userSpaceOnUse">
<stop offset="0.3" stop-color="#0B327D"/>
<stop offset="0.77" stop-color="#0B327D"/>
</linearGradient>
</defs>
</svg>
