<svg width="221" height="221" viewBox="0 0 221 221" fill="none" xmlns="http://www.w3.org/2000/svg">
<g filter="url(#filter0_d_276_4806)">
<path d="M105.831 176.516C144.398 179.197 177.836 150.105 180.516 111.538C183.196 72.9711 154.105 39.5335 115.538 36.8532C76.9707 34.1729 43.5332 63.2647 40.8529 101.832C38.1725 140.398 67.2643 173.836 105.831 176.516Z" fill="url(#paint0_linear_276_4806)"/>
</g>
<path d="M75.9226 139.353L79.116 142.634L78.3827 143.494L77.1441 142.94L72.0848 148.909L72.6732 150.245L71.9322 151.105L68.7305 147.833L69.4721 146.964L70.719 147.511L75.7783 141.541L75.1816 140.213L75.9226 139.353Z" fill="#1D1D1B"/>
<path d="M65.6329 141.069C65.5523 140.979 65.4784 140.882 65.4119 140.781C65.3414 140.688 65.281 140.588 65.2319 140.482L66.4693 139.628C66.5108 139.706 66.5646 139.799 66.6313 139.899C66.6873 139.988 66.7484 140.074 66.8142 140.156C67.0215 140.416 67.2838 140.626 67.5816 140.768C67.878 140.913 68.2108 140.962 68.5357 140.91C68.9168 140.849 69.2727 140.677 69.5608 140.415L72.3122 138.1L73.3294 139.356L68.0191 143.816L67.2362 142.849L68.0121 141.895L67.9625 141.837C67.5452 141.911 67.1172 141.893 66.7078 141.784C66.2817 141.672 65.904 141.421 65.6329 141.069Z" fill="#1D1D1B"/>
<path d="M63.2932 130.455C64.4053 129.767 65.7713 129.514 67.0954 129.75C67.7128 129.892 68.2915 130.154 68.7923 130.519C69.293 130.883 69.7042 131.342 69.9979 131.865C70.4273 132.512 70.6641 133.251 70.6841 134.007C70.6869 134.747 70.4609 135.469 70.0326 136.09C69.5081 136.807 68.8045 137.396 67.9803 137.808C66.8663 138.492 65.5014 138.742 64.1788 138.505C63.5786 138.354 63.0183 138.088 62.5343 137.725C62.0503 137.361 61.6534 136.909 61.3697 136.397C60.9331 135.745 60.6903 134.999 60.666 134.236C60.6549 133.502 60.8778 132.783 61.3069 132.169C61.804 131.454 62.4864 130.865 63.2932 130.455ZM66.7759 135.968C67.5094 135.625 68.1215 135.098 68.5424 134.446C68.6761 134.168 68.7307 133.862 68.701 133.557C68.6713 133.252 68.5583 132.959 68.3726 132.704C68.2224 132.42 67.995 132.177 67.7128 131.998C67.4307 131.819 67.1036 131.71 66.764 131.683C65.9378 131.691 65.1341 131.918 64.448 132.336C63.7168 132.667 63.1095 133.191 62.7014 133.841C62.5602 134.128 62.503 134.444 62.5354 134.759C62.5678 135.074 62.6887 135.377 62.8862 135.637C63.0391 135.91 63.265 136.143 63.5423 136.314C63.8196 136.485 64.139 136.588 64.4698 136.612C65.2927 136.61 66.0942 136.386 66.7759 135.968Z" fill="#1D1D1B"/>
<path d="M56.6357 124.525C56.3383 123.719 56.3391 122.817 56.6381 122.004C56.8496 121.597 57.1374 121.241 57.4831 120.959C57.8288 120.677 58.2246 120.476 58.6451 120.368L63.881 118.468L64.4909 120.473L59.6259 122.247C58.4187 122.678 57.9796 123.429 58.3004 124.499C58.3646 124.83 58.5113 125.135 58.7247 125.381C58.9382 125.627 59.2104 125.806 59.5121 125.897C60.2446 126 60.9912 125.899 61.6811 125.604L65.6167 124.173L66.2265 126.178L58.1865 129.099L57.7175 127.557L58.6778 126.887L58.6852 126.781C58.2 126.656 57.763 126.375 57.4323 125.975C57.0729 125.56 56.8013 125.066 56.6357 124.525Z" fill="#1D1D1B"/>
<path d="M53.4412 109.221C53.3226 108.285 53.5645 107.342 54.1227 106.566C54.4231 106.24 54.7976 105.981 55.2188 105.811C55.64 105.64 56.0971 105.561 56.5565 105.579L62.8939 105.368L62.9669 106.833L61.6743 107.291L61.6695 107.36C62.1435 107.672 62.5449 108.072 62.8485 108.537C63.1384 109.087 63.2886 109.692 63.287 110.305C63.3465 111.029 63.1231 111.746 62.6592 112.32C62.3886 112.609 62.0528 112.837 61.6762 112.986C61.2996 113.136 60.8917 113.204 60.4823 113.186C60.0571 113.225 59.6276 113.159 59.2357 112.995C58.8438 112.831 58.503 112.573 58.2466 112.248C57.6381 111.332 57.304 110.279 57.2804 109.201L57.1578 107.654L56.687 107.674C56.4552 107.661 56.2234 107.694 56.007 107.772C55.7906 107.85 55.5945 107.97 55.4316 108.125C55.1646 108.458 55.0433 108.875 55.0928 109.292C55.1067 109.731 55.1946 110.165 55.3531 110.579C55.514 110.991 55.6979 111.396 55.904 111.79L54.4003 112.502C54.1185 112.032 53.8968 111.533 53.7399 111.014C53.56 110.43 53.4596 109.828 53.4412 109.221ZM58.6151 108.668C58.6067 109.333 58.8115 109.986 59.2027 110.542C59.3501 110.71 59.5378 110.841 59.7499 110.925C59.962 111.01 60.1921 111.044 60.4207 111.027C60.6022 111.038 60.7837 111.007 60.949 110.937C61.1144 110.867 61.2586 110.759 61.369 110.623C61.5582 110.326 61.6434 109.979 61.6128 109.632C61.6008 109.076 61.3804 108.541 60.9907 108.121C60.7768 107.913 60.5157 107.753 60.2274 107.655C59.9391 107.557 59.6313 107.522 59.3276 107.553L58.5345 107.576L58.6151 108.668Z" fill="#1D1D1B"/>
<path d="M54.5042 96.5486C54.5858 95.7477 55.0027 95.0098 55.6689 94.4869C56.0648 94.2454 56.5142 94.0847 56.9868 94.0156C57.4594 93.9465 57.9442 93.9706 58.4084 94.0862L64.3839 94.9859L64.0593 96.9253L58.5049 96.0796C57.127 95.8771 56.3575 96.2834 56.1781 97.3053C56.0973 97.6027 56.1059 97.9153 56.203 98.2108C56.3001 98.5063 56.4821 98.7738 56.7302 98.9855C57.3925 99.4176 58.1653 99.6864 58.9718 99.7653L63.444 100.445L63.111 102.376L53.9423 100.992L54.1907 99.4986L55.4446 99.4052L55.452 99.299C55.0482 98.963 54.7636 98.5255 54.6353 98.0436C54.4826 97.5569 54.438 97.0486 54.5042 96.5486Z" fill="#1D1D1B"/>
<path d="M65.4663 90.0576C65.3031 90.5367 65.0315 90.9705 64.6733 91.324C64.3152 91.6775 63.8805 91.9409 63.4043 92.0929C62.176 92.4092 60.8789 92.2869 59.7308 91.7465C58.5065 91.3699 57.4489 90.5751 56.737 89.4965C56.4847 89.0549 56.337 88.5596 56.3055 88.0497C56.274 87.5397 56.3595 87.029 56.5553 86.5579C56.7502 85.9924 57.0956 85.4926 57.5531 85.1141C57.9206 84.8018 58.3537 84.5792 58.8189 84.4637L58.8258 84.3639C58.6651 84.3527 58.4277 84.2815 58.1106 84.1957C57.8132 84.118 57.5202 84.0246 57.2325 83.9159L54.2052 82.7939L54.9748 80.76L67.0542 85.4189L66.4501 87.0085L65.1907 86.921L65.185 87.0027C65.457 87.4059 65.6423 87.8629 65.729 88.344C65.7933 88.9284 65.7027 89.5201 65.4663 90.0576ZM64.0721 88.8122C64.2138 88.5279 64.2847 88.2128 64.2787 87.8946C64.2726 87.5763 64.1898 87.2646 64.0374 86.9867C63.5959 86.4218 63.0014 86.0003 62.3267 85.774L62.0734 85.6743C61.3559 85.3486 60.567 85.2184 59.7841 85.2965C59.4564 85.3789 59.1566 85.5501 58.9169 85.792C58.6772 86.0338 58.5066 86.3371 58.4233 86.6695C58.3047 86.9503 58.2627 87.2581 58.3017 87.5608C58.3406 87.8634 58.4592 88.1497 58.6448 88.3894C59.1558 89.003 59.8273 89.4572 60.582 89.6999C61.2902 90.0299 62.0803 90.1356 62.8495 90.0034C63.1369 89.9286 63.4005 89.7796 63.6148 89.5708C63.829 89.3621 63.9865 89.1008 64.0721 88.8122Z" fill="#1D1D1B"/>
<path d="M72.6033 73.0027C72.9644 73.2225 73.2622 73.5244 73.4695 73.8806C73.6769 74.2368 73.787 74.6361 73.79 75.0418C73.725 76.0402 73.3292 76.9913 72.659 77.7596C72.326 78.2117 71.9466 78.6312 71.5262 79.012C71.1663 79.3226 70.7714 79.5947 70.3487 79.8236L68.7934 78.7506C69.286 78.4985 69.7515 78.2017 70.1834 77.8645C70.6164 77.5407 71.0034 77.1652 71.335 76.7473C71.6336 76.4101 71.8254 75.9993 71.8885 75.5618C71.8936 75.4173 71.8616 75.2734 71.7952 75.1427C71.7288 75.012 71.63 74.8984 71.5072 74.8116C71.3596 74.7095 71.1823 74.6535 71.0002 74.6513C70.7315 74.6683 70.47 74.7384 70.2322 74.8571C69.7669 75.0681 69.3135 75.302 68.874 75.5578C68.3988 75.8638 67.8948 76.1278 67.3683 76.3466C66.9656 76.5055 66.5287 76.573 66.0922 76.5438C65.6268 76.4897 65.1855 76.3136 64.818 76.0353C64.4963 75.8344 64.2353 75.5573 64.0612 75.2315C63.8871 74.9058 63.8059 74.543 63.8259 74.1795C63.9176 73.2737 64.2849 72.4146 64.8833 71.7068C65.2141 71.2707 65.5958 70.8717 66.0211 70.5172C66.4429 70.1678 66.8998 69.8584 67.3854 69.5935L68.3192 71.07C67.9182 71.298 67.53 71.5454 67.156 71.8111C66.7976 72.065 66.4812 72.3682 66.2173 72.7108C65.6372 73.4656 65.572 73.9971 66.0304 74.3149C66.1034 74.3718 66.1879 74.414 66.2785 74.4387C66.3692 74.4635 66.4641 74.4703 66.5574 74.4587C66.8244 74.421 67.082 74.3391 67.3185 74.2168C67.6309 74.0598 68.052 73.83 68.5736 73.5089C69.0347 73.2277 69.518 72.9805 70.0193 72.7695C70.4237 72.6 70.8642 72.5206 71.3073 72.5374C71.7756 72.5755 72.2244 72.7367 72.6033 73.0027Z" fill="#1D1D1B"/>
<path d="M76.3202 70.3808C76.4832 70.2566 76.6287 70.1198 76.7547 69.9724C76.8708 69.8345 76.9757 69.6913 77.0688 69.5433L78.1272 70.3272C78.028 70.5348 77.8999 70.7329 77.745 70.9184C77.5596 71.1255 77.3477 71.3176 77.1121 71.4921C76.8136 71.7257 76.4558 71.9106 76.0589 72.0366C75.672 72.1633 75.2339 72.1809 74.8206 72.0865C74.2819 71.9416 73.7956 71.6951 73.4082 71.3706L70.2496 69.0137L69.4767 69.6148L68.8671 69.1524L69.2146 68.1264L68.3461 66.8306L69.2033 66.1859L70.5395 67.1807L72.1627 65.9159L73.2287 66.7066L71.6055 67.9713L74.748 70.3271C74.8557 70.4196 74.9869 70.4946 75.1329 70.5473C75.2789 70.6 75.4366 70.6292 75.5959 70.6331C75.8737 70.6221 76.132 70.5321 76.3202 70.3808Z" fill="#1D1D1B"/>
<path d="M76.9749 61.2758C77.3109 60.9412 77.6993 60.6916 78.1158 60.5429C78.5323 60.3941 78.9677 60.3494 79.3949 60.4115C79.8323 60.5131 80.2464 60.7176 80.6136 61.0133C80.9808 61.309 81.2938 61.6901 81.5346 62.1348L82.0432 62.9703L78.0967 66.499C78.4141 67.0573 78.9 67.4448 79.456 67.583C79.7233 67.6197 79.9955 67.5908 80.2559 67.498C80.5164 67.4052 80.7597 67.2504 80.9711 67.043C81.3239 66.733 81.6451 66.3739 81.9277 65.9737C82.1945 65.587 82.43 65.1711 82.6308 64.7319L83.4363 66.0441C83.2445 66.4682 83.0122 66.865 82.7444 67.2264C82.4211 67.6457 82.063 68.0245 81.676 68.3567C81.1474 68.8465 80.5347 69.1867 79.8854 69.3508C79.2741 69.4894 78.6468 69.4007 78.0883 69.0969C77.4426 68.7154 76.8906 68.1447 76.4822 67.4365C75.8077 66.4943 75.476 65.2631 75.5585 64.0081C75.621 63.4631 75.7797 62.9373 76.0239 62.4661C76.2682 61.9949 76.5925 61.5891 76.9749 61.2758ZM77.7161 62.4803C77.5418 62.6218 77.3935 62.8051 77.281 63.0183C77.1685 63.2314 77.0944 63.4695 77.0635 63.7169C77.0195 64.2923 77.1477 64.8624 77.4251 65.3252L80.0022 63.0263C79.7473 62.5842 79.3775 62.2565 78.9481 62.0927C78.7365 62.0345 78.515 62.0394 78.3028 62.1072C78.0905 62.1749 77.894 62.3033 77.7304 62.4813L77.7161 62.4803Z" fill="#1D1D1B"/>
<path d="M85.1678 55.3819C85.6113 55.136 86.1002 54.985 86.6041 54.9384C87.1079 54.8917 87.6157 54.9504 88.0958 55.1108C88.5815 55.3105 89.0227 55.6057 89.3937 55.9793C89.7647 56.3528 90.0581 56.7972 90.2568 57.2864L90.7051 58.2159L85.5623 60.7144C85.8331 61.3291 86.3249 61.8174 86.9387 62.0812C87.2393 62.1844 87.5581 62.2227 87.8745 62.1935C88.1908 62.1644 88.4976 62.0686 88.775 61.9122C89.2281 61.7124 89.6552 61.4575 90.0469 61.1532C90.4195 60.8369 90.762 60.4862 91.0698 60.1056L91.7668 61.5693C91.4742 61.9338 91.141 62.2633 90.7737 62.5511C90.3306 62.8837 89.8543 63.1687 89.3525 63.4015C88.6637 63.7556 87.9018 63.9407 87.1289 63.9419C86.4023 63.9376 85.6954 63.7048 85.1068 63.2759C84.4307 62.7585 83.899 62.0735 83.5635 61.2873C82.9556 60.214 82.7846 58.9445 83.0865 57.7457C83.2454 57.2246 83.5134 56.7439 83.8725 56.3361C84.2316 55.9283 84.6733 55.6029 85.1678 55.3819ZM85.8145 56.7235C85.592 56.8222 85.3917 56.9657 85.226 57.145C85.0603 57.3244 84.9326 57.5359 84.8507 57.7666C84.7054 58.3184 84.757 58.9039 84.9964 59.4208L88.3463 57.7977C88.1223 57.3148 87.7529 56.9155 87.2905 56.6566C87.0575 56.5468 86.8016 56.4956 86.5445 56.5072C86.2875 56.5189 86.037 56.5931 85.8145 56.7235Z" fill="#1D1D1B"/>
<path d="M95.8346 60.7362L94.0209 61.4206L90.6383 48.9647L92.452 48.2802L95.8346 60.7362Z" fill="#1D1D1B"/>
<path d="M112.797 49.7351C113.204 49.6965 113.615 49.7402 114.005 49.8637C114.395 49.9872 114.756 50.188 115.067 50.4543C115.65 51.1374 115.943 52.0225 115.884 52.9204L116.024 58.699L113.967 58.746L113.842 53.3658C113.814 52.0397 113.286 51.3898 112.259 51.4163C111.962 51.3989 111.665 51.4597 111.398 51.5926C111.131 51.7255 110.903 51.9259 110.737 52.1741C110.412 52.8097 110.273 53.5246 110.336 54.2361L110.436 58.8461L108.388 58.8937L108.263 53.5135C108.235 52.1902 107.712 51.5494 106.679 51.5726C106.373 51.5474 106.065 51.611 105.793 51.7558C105.521 51.9007 105.296 52.1207 105.144 52.3899C104.845 53.1013 104.717 53.8738 104.773 54.644L104.876 58.9692L102.827 59.0254L102.585 50.148L104.168 50.1113L104.484 51.2645L104.595 51.2722C104.834 50.8211 105.212 50.4596 105.672 50.2417C106.13 50.0171 106.631 49.8958 107.14 49.8861C107.721 49.8487 108.303 49.9483 108.839 50.1768C109.294 50.3903 109.667 50.7466 109.903 51.1921L110.065 51.2034C110.309 50.7326 110.701 50.356 111.18 50.1322C111.683 49.8827 112.235 49.7471 112.797 49.7351Z" fill="#1D1D1B"/>
<path d="M123.619 50.5202C124.52 50.6665 125.341 51.15 125.937 51.8854C126.168 52.2609 126.317 52.6879 126.374 53.1353C126.43 53.5826 126.392 54.0388 126.263 54.4703L124.929 60.5613L123.543 60.2296L123.426 58.8815L123.367 58.8775C122.96 59.2459 122.487 59.5212 121.978 59.6863C121.42 59.8118 120.843 59.7934 120.295 59.6327C119.603 59.4974 118.984 59.0897 118.561 58.4891C118.357 58.1541 118.225 57.7737 118.175 57.3756C118.126 56.9775 118.159 56.5717 118.274 56.1876C118.342 55.7719 118.508 55.3809 118.757 55.0524C119.006 54.7239 119.329 54.4691 119.695 54.3126C120.697 53.9856 121.76 53.9562 122.771 54.2277L124.252 54.5297L124.35 54.0839C124.417 53.8645 124.441 53.6331 124.42 53.4042C124.4 53.1753 124.336 52.9539 124.232 52.7538C123.979 52.416 123.62 52.1886 123.222 52.1132C122.806 52.0165 122.379 51.9868 121.954 52.0251C121.538 52.0686 121.103 52.129 120.692 52.2181L120.392 50.5947C120.899 50.4506 121.42 50.3743 121.943 50.3675C122.506 50.3461 123.069 50.3974 123.619 50.5202ZM122.887 55.5938C122.268 55.4062 121.61 55.4203 120.995 55.6343C120.804 55.7308 120.636 55.8738 120.505 56.0518C120.374 56.2298 120.283 56.4379 120.24 56.6593C120.185 56.8294 120.17 57.011 120.196 57.1881C120.222 57.3652 120.288 57.5323 120.389 57.6746C120.621 57.9368 120.924 58.1132 121.257 58.1785C121.78 58.322 122.335 58.2577 122.821 57.9975C123.066 57.8501 123.278 57.6462 123.441 57.4006C123.604 57.1551 123.714 56.8741 123.763 56.5782L123.926 55.8109L122.887 55.5938Z" fill="#1D1D1B"/>
<path d="M131.509 56.4681C131.391 56.736 131.255 57.0116 131.098 57.3303C130.941 57.6489 130.789 57.8878 130.654 58.1457L130.699 58.1488C130.906 58.0206 131.159 57.8779 131.448 57.7287C131.738 57.5796 132.017 57.4387 132.268 57.3314L135.974 55.8075L138.21 56.7913L133.202 58.9107L134.679 65.2487L132.394 64.1991L131.372 59.4694L130.032 59.8394L128.786 62.6211L126.839 61.7553L132.091 50.0326L134.039 50.8895L131.509 56.4681Z" fill="#1D1D1B"/>
<path d="M142.554 59.2852L137.521 66.4486L135.609 65.3807L140.651 58.2179L142.554 59.2852ZM143.552 55.9868C143.822 56.1278 144.037 56.3396 144.166 56.5922C144.219 56.7378 144.231 56.8919 144.201 57.0413C144.171 57.1906 144.1 57.3306 143.994 57.449C143.919 57.5855 143.807 57.7036 143.669 57.7933C143.531 57.883 143.37 57.9418 143.199 57.9647C142.874 57.9818 142.551 57.9041 142.277 57.7434C142.004 57.5984 141.789 57.3804 141.665 57.1216C141.619 56.9823 141.611 56.8361 141.64 56.6946C141.67 56.553 141.736 56.42 141.834 56.3059C141.908 56.1698 142.019 56.0523 142.158 55.9639C142.296 55.8754 142.458 55.8187 142.628 55.7985C142.949 55.7685 143.275 55.8348 143.552 55.9868Z" fill="#1D1D1B"/>
<path d="M147.529 63.9015C148.094 64.4119 148.47 65.1641 148.58 66.0055C148.59 66.4622 148.52 66.9187 148.373 67.3454C148.226 67.7722 148.007 68.1597 147.729 68.4829L144.497 72.9478L143.188 71.6104L146.186 67.4604C146.929 66.4312 146.96 65.5617 146.265 64.8509C146.079 64.6066 145.838 64.4306 145.569 64.3427C145.3 64.2547 145.015 64.2583 144.744 64.353C144.132 64.6658 143.594 65.16 143.183 65.7874L140.762 69.1057L139.452 67.7769L144.413 60.9131L145.415 61.9415L144.952 63.0338L145.028 63.1001C145.455 62.9303 145.913 62.9255 146.336 63.0864C146.779 63.2543 147.185 63.532 147.529 63.9015Z" fill="#1D1D1B"/>
<path d="M155.513 71.614C155.818 71.9532 156.027 72.3575 156.122 72.7898C156.216 73.2221 156.193 73.6686 156.054 74.0883L156.098 74.143L157.041 73.6843L158.006 74.8515L151.544 79.49C151.184 79.791 150.758 80.0158 150.295 80.1492C149.832 80.2826 149.342 80.3215 148.86 80.2634C147.833 80.0234 146.935 79.4342 146.345 78.6118C146.011 78.2156 145.709 77.7972 145.441 77.3602C145.207 76.9642 145.02 76.545 144.887 76.1107L146.113 75.2212C146.37 76.1916 146.847 77.1012 147.512 77.888C147.657 78.0911 147.845 78.2638 148.065 78.3948C148.285 78.5259 148.532 78.6125 148.79 78.6488C149.339 78.6722 149.875 78.4949 150.282 78.1544L150.449 78.0331L150.864 77.7518C150.997 77.6652 151.135 77.586 151.277 77.5147L151.28 77.4706C150.812 77.5077 150.341 77.4239 149.919 77.2283C149.497 77.0391 149.128 76.7605 148.842 76.4151C148.55 76.0944 148.346 75.7122 148.249 75.3024C148.152 74.8925 148.164 74.4676 148.285 74.0652C148.624 73.0954 149.297 72.2599 150.201 71.6878C151.028 71.0172 152.072 70.6203 153.171 70.5577C153.622 70.5452 154.07 70.6347 154.478 70.8186C154.886 71.0025 155.241 71.2754 155.513 71.614ZM154.635 72.8599C153.908 71.9873 152.831 72.0626 151.403 73.0857C149.974 74.1088 149.643 75.0703 150.41 75.9703C150.559 76.1817 150.755 76.3604 150.986 76.4938C151.216 76.6272 151.474 76.712 151.743 76.7422C152.399 76.7047 153.02 76.4586 153.502 76.0449L153.719 75.8827C154.326 75.5159 154.797 74.9847 155.069 74.3595C155.131 74.0933 155.12 73.8162 155.037 73.5537C154.954 73.2912 154.802 73.0517 154.595 72.8571L154.635 72.8599Z" fill="#1D1D1B"/>
<path d="M162.609 83.242L154.204 86.6539L153.3 84.8668L161.714 81.4556L162.609 83.242ZM165.404 81.0338C165.541 81.2912 165.584 81.5806 165.527 81.8595C165.486 82.0042 165.405 82.1366 165.292 82.2445C165.179 82.3524 165.037 82.4322 164.88 82.4765C164.736 82.5504 164.574 82.5925 164.408 82.5994C164.241 82.6062 164.075 82.5777 163.922 82.5161C163.66 82.3754 163.456 82.1599 163.342 81.9038C163.199 81.6481 163.155 81.3567 163.219 81.078C163.264 80.9327 163.349 80.8004 163.465 80.6929C163.581 80.5854 163.725 80.5062 163.884 80.4623C164.02 80.3928 164.173 80.3534 164.33 80.3473C164.487 80.3412 164.644 80.3685 164.788 80.4271C165.062 80.5616 165.279 80.7754 165.404 81.0338Z" fill="#1D1D1B"/>
<path d="M165.615 91.104C165.91 91.9477 165.869 92.8709 165.5 93.6846C165.251 94.0912 164.919 94.4411 164.525 94.7111C164.13 94.9811 163.682 95.1652 163.211 95.2513L157.308 96.8938L156.712 94.7996L162.194 93.2733C163.558 92.8957 164.104 92.1525 163.759 91.0477C163.705 90.7037 163.556 90.3811 163.329 90.1153C163.102 89.8496 162.805 89.651 162.472 89.5414C161.663 89.3922 160.829 89.4531 160.051 89.7182L155.624 90.9456L155.027 88.8605L164.078 86.3377L164.543 87.9414L163.437 88.573L163.429 88.6814C163.967 88.8315 164.442 89.1478 164.786 89.5841C165.167 90.0276 165.449 90.5455 165.615 91.104Z" fill="#1D1D1B"/>
<path d="M158.147 102.249C158.104 101.76 158.17 101.267 158.339 100.807C158.509 100.348 158.778 99.9344 159.125 99.5989C160.063 98.8103 161.232 98.3789 162.436 98.3771C163.643 98.1907 164.872 98.4484 165.911 99.1055C166.302 99.388 166.624 99.7605 166.853 100.194C167.082 100.628 167.211 101.11 167.231 101.605C167.286 102.18 167.192 102.76 166.96 103.286C166.763 103.71 166.478 104.083 166.125 104.379L166.117 104.485C166.342 104.418 166.571 104.366 166.802 104.329C167.087 104.273 167.375 104.234 167.664 104.211L170.735 103.982L170.871 106.09L158.602 107.008L158.494 105.371L159.619 104.901L159.625 104.812C159.232 104.572 158.894 104.247 158.633 103.858C158.333 103.378 158.165 102.822 158.147 102.249ZM159.819 102.754C159.809 103.064 159.87 103.372 160 103.651C160.129 103.929 160.322 104.171 160.561 104.355C161.172 104.676 161.862 104.798 162.543 104.705L162.801 104.679C163.549 104.669 164.282 104.454 164.926 104.057C165.171 103.853 165.359 103.586 165.472 103.282C165.585 102.979 165.617 102.651 165.567 102.331C165.558 102.034 165.473 101.746 165.321 101.496C165.169 101.246 164.955 101.043 164.702 100.907C164.017 100.58 163.256 100.459 162.507 100.56C161.765 100.567 161.041 100.803 160.428 101.239C160.219 101.424 160.056 101.659 159.953 101.923C159.85 102.187 159.81 102.473 159.836 102.756L159.819 102.754Z" fill="#1D1D1B"/>
<path d="M166.46 118.58L157.059 117.312L157.291 115.574L158.546 115.438L158.553 115.336C158.12 114.968 157.81 114.474 157.664 113.922C157.518 113.357 157.484 112.768 157.563 112.189C157.632 111.275 158.041 110.421 158.708 109.798C159.102 109.519 159.55 109.326 160.022 109.232C160.494 109.138 160.981 109.145 161.45 109.252L167.586 110.079L167.294 112.288L161.588 111.518C160.189 111.327 159.416 111.824 159.252 112.988C159.174 113.33 159.187 113.686 159.291 114.021C159.394 114.356 159.583 114.657 159.839 114.894C160.527 115.367 161.325 115.651 162.154 115.717L166.727 116.333L166.46 118.58Z" fill="#1D1D1B"/>
<path d="M157.395 125.703C157.025 125.601 156.686 125.41 156.408 125.148C156.13 124.885 155.922 124.558 155.802 124.197C155.568 123.285 155.635 122.323 155.993 121.453C156.151 120.956 156.355 120.475 156.602 120.016C156.82 119.633 157.081 119.276 157.38 118.952L159.041 119.487C158.664 119.844 158.324 120.237 158.026 120.661C157.751 121.071 157.529 121.513 157.365 121.977C157.203 122.362 157.159 122.785 157.238 123.195C157.271 123.327 157.338 123.447 157.433 123.545C157.527 123.643 157.646 123.715 157.777 123.754C157.93 123.815 158.098 123.827 158.258 123.787C158.483 123.695 158.686 123.557 158.855 123.383C159.196 123.07 159.517 122.736 159.816 122.382C160.135 121.981 160.494 121.612 160.886 121.28C161.18 121.021 161.533 120.838 161.916 120.746C162.327 120.662 162.754 120.691 163.15 120.832C163.49 120.924 163.8 121.105 164.047 121.356C164.294 121.607 164.469 121.918 164.553 122.258C164.738 123.094 164.677 123.965 164.379 124.767C164.219 125.247 164.007 125.709 163.748 126.144C163.481 126.577 163.169 126.981 162.816 127.349L161.599 126.281C161.886 125.948 162.146 125.621 162.381 125.293C162.617 124.969 162.796 124.61 162.914 124.229C163.191 123.407 163.091 122.896 162.61 122.736C162.449 122.682 162.273 122.688 162.116 122.752C161.899 122.863 161.705 123.012 161.542 123.192C161.219 123.502 160.913 123.828 160.625 124.17C160.314 124.547 159.975 124.9 159.61 125.226C159.313 125.494 158.956 125.688 158.569 125.793C158.176 125.865 157.772 125.834 157.395 125.703Z" fill="#1D1D1B"/>
<path d="M153.969 130.613C153.854 130.839 153.761 131.074 153.692 131.317C153.624 131.542 153.571 131.772 153.534 132.003L152.077 131.309C152.098 131.018 152.151 130.729 152.237 130.449C152.338 130.092 152.475 129.745 152.647 129.414C152.864 128.987 153.166 128.606 153.537 128.29C153.892 127.99 154.346 127.818 154.821 127.804C155.449 127.806 156.067 127.963 156.615 128.26L161.032 130.363L161.591 129.286L162.475 129.696L162.544 131.2L164.013 132.645L163.411 133.814L161.566 132.928L160.386 135.199L158.91 134.495L160.09 132.224L155.702 130.106C155.55 130.017 155.38 129.96 155.203 129.938C155.027 129.917 154.848 129.932 154.679 129.982C154.522 130.036 154.378 130.12 154.256 130.228C154.134 130.337 154.037 130.467 153.969 130.613Z" fill="#1D1D1B"/>
<path d="M156.053 142.129L155.765 142.536C155.672 142.659 155.568 142.773 155.455 142.876L153.919 141.564C154.019 141.465 154.113 141.36 154.201 141.25C154.297 141.138 154.386 141.021 154.466 140.897C154.713 140.522 154.879 140.097 154.955 139.651C155.02 139.2 154.963 138.74 154.788 138.323C154.567 137.842 154.217 137.437 153.778 137.159L149.858 134.382L151.068 132.547L158.635 137.904L157.706 139.314L156.223 138.645L156.164 138.734C156.416 139.258 156.55 139.834 156.556 140.421C156.568 141.031 156.392 141.629 156.053 142.129Z" fill="#1D1D1B"/>
<path d="M154.297 142.639L152.855 144.072L148.309 142.139C148.024 142.03 147.746 141.903 147.479 141.759C147.223 141.62 146.977 141.465 146.743 141.294L146.7 141.337C146.858 141.532 147.021 141.758 147.186 142.015C147.354 142.272 147.514 142.528 147.656 142.814L149.986 146.977L148.56 148.411L144.121 139.824C143.759 139.165 143.585 138.428 143.614 137.688C143.69 136.994 144.021 136.35 144.549 135.868C144.723 135.696 144.886 135.554 145.024 135.441L145.423 135.162L146.541 136.167C146.429 136.241 146.321 136.321 146.218 136.405C146.09 136.504 145.969 136.611 145.856 136.725C145.705 136.862 145.585 137.027 145.503 137.21C145.421 137.392 145.378 137.589 145.378 137.788C145.399 138.183 145.51 138.57 145.703 138.922L146.025 139.527L154.297 142.639Z" fill="#1D1D1B"/>
<g filter="url(#filter1_d_276_4806)">
<path d="M70.9044 103.86C69.3751 125.865 85.9741 144.944 107.979 146.473C129.984 148.002 149.063 131.403 150.592 109.398C152.122 87.393 135.523 68.3146 113.517 66.7852C91.5123 65.2559 72.4338 81.8548 70.9044 103.86Z" fill="url(#paint1_linear_276_4806)"/>
<path d="M108.083 144.977C86.9045 143.505 70.9289 125.143 72.4008 103.964C73.8727 82.7853 92.2347 66.8097 113.413 68.2816C134.592 69.7535 150.568 88.1155 149.096 109.294C147.624 130.473 129.262 146.449 108.083 144.977Z" stroke="white" stroke-width="3"/>
</g>
<path d="M106.869 126.476C106.636 126.275 106.418 126.067 106.558 125.714C106.698 125.361 106.985 125.343 107.301 125.345C108.513 125.35 109.725 125.345 110.99 125.345C110.309 123.076 109.637 120.842 108.96 118.593C108.606 118.593 108.283 118.602 107.957 118.593C107.539 118.579 107.332 118.378 107.327 117.964C107.318 117.174 107.318 116.384 107.327 115.593C107.333 115.157 107.558 114.964 108.033 114.963C109.434 114.96 110.835 114.96 112.235 114.963H112.655C112.77 113.161 112.579 111.452 111.789 109.845C111.739 109.744 111.684 109.645 111.639 109.543C111.46 109.166 111.532 108.865 111.833 108.703C112.135 108.54 112.472 108.644 112.627 109.022C112.955 109.819 113.322 110.613 113.519 111.445C113.714 112.265 113.728 113.13 113.804 113.977C113.832 114.286 113.809 114.6 113.809 114.937H115.623C115.636 114.923 115.664 114.905 115.664 114.887C115.715 112.829 115.792 110.767 114.993 108.807C113.368 104.824 110.432 102.519 106.183 101.892C106.141 101.891 106.1 101.893 106.058 101.9V103.837C106.987 104.244 107.925 104.549 108.748 105.043C109.585 105.549 110.321 106.226 111.075 106.86C111.399 107.135 111.388 107.512 111.132 107.745C110.875 107.977 110.561 107.936 110.274 107.635C109.222 106.518 107.902 105.69 106.439 105.231C106.322 105.194 106.201 105.165 106.041 105.122C106.041 105.979 106.041 106.804 106.041 107.629C106.041 108.815 105.452 109.408 104.271 109.413C104.033 109.413 103.796 109.418 103.558 109.413C102.611 109.381 102.006 108.761 101.988 107.81C101.988 107.711 101.988 107.611 101.988 107.46H101.566C100.177 107.46 98.7892 107.479 97.4017 107.449C95.2524 107.402 93.4866 105.966 93.1151 103.843C92.9443 102.867 93.0226 101.844 93.0173 100.843C93.0183 100.77 93.0342 100.698 93.064 100.631C93.0938 100.564 93.1368 100.504 93.1904 100.455C93.2441 100.405 93.3072 100.368 93.376 100.343C93.4447 100.319 93.5177 100.31 93.5903 100.315C93.8912 100.326 94.1168 100.545 94.1228 100.882C94.1469 101.734 94.0995 102.592 94.186 103.437C94.2702 104.206 94.6272 104.918 95.1919 105.445C95.7565 105.972 96.4911 106.278 97.2618 106.307C98.8215 106.348 100.383 106.316 101.967 106.316V93.1863H100.285V96.8229C100.43 96.8327 100.575 96.835 100.718 96.8546C101.041 96.9006 101.263 97.1457 101.233 97.4406C101.2 97.7543 101.02 97.9609 100.698 97.9625C99.1968 97.9715 97.6962 97.9715 96.1962 97.9625C95.8765 97.9625 95.6923 97.7596 95.6735 97.4345C95.6547 97.1095 95.8547 96.8991 96.1886 96.8546C96.3233 96.8365 96.4594 96.8365 96.6173 96.8267V93.2821C95.9939 93.4382 95.4323 93.78 95.0064 94.2625C94.4048 94.9224 94.1326 95.7113 94.1288 96.6004C94.1288 97.2649 94.1341 97.93 94.1228 98.5944C94.1168 98.9474 93.9175 99.154 93.6084 99.1721C93.2993 99.1902 93.0196 98.9979 93.0203 98.6714C93.0248 97.6578 92.9451 96.6223 93.1256 95.6351C93.446 93.8538 94.5875 92.718 96.3157 92.1999C96.5639 92.1245 96.6527 92.0362 96.6481 91.7715C96.6316 90.7428 96.6399 89.7141 96.6421 88.6855C96.6421 88.1229 96.8234 87.9449 97.3814 87.9434C98.1071 87.9434 98.8328 87.9434 99.5578 87.9434C100.064 87.9434 100.261 88.1417 100.263 88.6493C100.263 89.6402 100.263 90.6312 100.263 91.6222V92.0106H101.993C101.993 91.8756 101.989 91.7428 101.993 91.6101C102.016 90.8009 102.57 90.1727 103.377 90.0957C103.8 90.0558 104.226 90.0558 104.649 90.0957C105.471 90.1712 106.034 90.8069 106.042 91.641C106.052 92.681 106.042 93.721 106.042 94.7904C111.043 95.4511 115.191 97.6842 118.418 101.551C121.645 105.417 123.006 109.929 122.801 114.968H123.299C124.687 114.968 126.075 114.968 127.464 114.968C127.968 114.968 128.168 115.169 128.172 115.675C128.178 116.414 128.178 117.154 128.172 117.895C128.172 118.4 127.974 118.586 127.464 118.603C127.156 118.614 126.774 118.533 126.561 118.685C126.365 118.829 126.347 119.223 126.26 119.51C126.118 119.977 125.986 120.446 125.84 120.912C125.716 121.309 125.441 121.482 125.116 121.383C124.791 121.284 124.644 120.995 124.759 120.596C124.945 119.95 125.144 119.308 125.347 118.628H110.165C110.192 118.74 110.211 118.846 110.241 118.948C110.847 120.974 111.459 122.999 112.058 125.029C112.13 125.269 112.227 125.36 112.493 125.359C115.995 125.348 119.497 125.348 122.998 125.359C123.267 125.359 123.367 125.269 123.433 125.026C123.604 124.398 123.798 123.777 123.986 123.154C124.136 122.665 124.383 122.475 124.744 122.571C125.105 122.667 125.214 122.986 125.071 123.467C124.889 124.077 124.704 124.687 124.504 125.352H125.566C126.441 125.352 127.317 125.367 128.192 125.345C128.574 125.336 128.841 125.458 129.004 125.804V126.483L106.869 126.476ZM121.662 114.947C122.28 104.145 113.928 96.6766 106.063 95.9843V97.6713C106.886 97.8222 107.7 97.8976 108.477 98.1178C114.227 99.7227 117.873 103.422 119.416 109.215C119.858 110.884 119.82 112.593 119.812 114.299C119.812 114.51 119.812 114.72 119.812 114.946L121.662 114.947ZM118.632 114.952C118.996 110.564 118.111 106.58 115.078 103.279C112.656 100.639 109.638 99.197 106.061 98.8509V100.724C106.211 100.749 106.341 100.778 106.477 100.794C111.31 101.404 115.374 105.086 116.487 109.83C116.844 111.352 116.806 112.891 116.81 114.43C116.81 114.6 116.81 114.77 116.81 114.948L118.632 114.952ZM103.115 99.7521C103.115 102.234 103.12 104.716 103.115 107.198C103.115 108.309 103.077 108.298 104.203 108.287C104.843 108.28 104.919 108.212 104.919 107.577C104.919 102.499 104.919 97.422 104.919 92.3469C104.919 91.1742 104.976 91.1848 103.772 91.1991C103.218 91.2059 103.116 91.3039 103.115 91.8552V99.7521ZM108.472 117.446H127.026V116.111H108.472V117.446ZM97.786 96.8176H99.1239V89.0972H97.786V96.8176Z" fill="#F4F4F4"/>
<path d="M112.568 90.217C112.55 90.5412 112.557 90.8693 112.51 91.1891C112.384 92.0639 111.688 92.6929 110.806 92.7593C110.176 92.806 109.948 93.0534 109.945 93.6929C109.945 93.9192 109.955 94.1454 109.939 94.3717C109.933 94.5175 109.872 94.6557 109.768 94.7575C109.664 94.8593 109.525 94.917 109.379 94.9184C109.233 94.9179 109.094 94.8599 108.99 94.7571C108.887 94.6542 108.828 94.5148 108.826 94.3686C108.802 94.0061 108.806 93.6424 108.836 93.2804C108.931 92.392 109.643 91.7351 110.57 91.6431C111.213 91.579 111.419 91.3527 111.425 90.7041C111.425 90.278 111.419 89.8527 111.429 89.4266C111.439 89.054 111.642 88.8414 111.966 88.8338C112.29 88.8263 112.506 89.0337 112.548 89.3927C112.548 89.4175 112.548 89.4424 112.548 89.4681V90.2222L112.568 90.217Z" fill="#F4F4F4"/>
<path d="M121.707 94.7805C121.707 94.9939 121.714 95.2066 121.707 95.4193C121.67 96.4751 121.004 97.1991 119.954 97.3221C119.285 97.3975 119.104 97.6071 119.103 98.2957C119.103 98.4955 119.111 98.6969 119.103 98.899C119.081 99.2474 118.849 99.4699 118.53 99.4631C118.458 99.4632 118.386 99.449 118.32 99.4211C118.253 99.3933 118.193 99.3525 118.142 99.301C118.092 99.2495 118.052 99.1885 118.025 99.1214C117.998 99.0544 117.985 98.9826 117.986 98.9103C117.968 98.5727 117.97 98.2342 117.99 97.8967C118.029 97.4627 118.218 97.056 118.525 96.7479C118.833 96.4398 119.238 96.2501 119.671 96.2119C120.374 96.1516 120.584 95.9223 120.587 95.2081C120.587 94.8077 120.581 94.4072 120.587 94.006C120.595 93.6289 120.817 93.38 121.135 93.3763C121.454 93.3725 121.687 93.6199 121.705 93.9947C121.717 94.2541 121.707 94.5181 121.707 94.7805Z" fill="#F4F4F4"/>
<path d="M126.012 103.091C126.012 103.317 126.016 103.543 126.012 103.77C126.01 104.244 125.827 104.7 125.501 105.044C125.176 105.388 124.731 105.595 124.259 105.622C123.648 105.671 123.423 105.911 123.411 106.527C123.407 106.753 123.418 106.979 123.403 107.206C123.379 107.551 123.178 107.755 122.866 107.763C122.555 107.771 122.313 107.574 122.301 107.235C122.273 106.811 122.287 106.384 122.342 105.963C122.468 105.172 123.198 104.565 124.026 104.499C124.665 104.448 124.882 104.215 124.885 103.573C124.885 103.16 124.88 102.743 124.885 102.334C124.889 101.924 125.11 101.682 125.452 101.684C125.793 101.685 125.998 101.925 126.008 102.339C126.008 102.352 126.008 102.364 126.008 102.377L126.012 103.091Z" fill="#F4F4F4"/>
<path d="M122.808 102.943C122.808 103.18 122.823 103.419 122.804 103.655C122.778 103.988 122.549 104.206 122.248 104.193C121.93 104.178 121.722 103.999 121.707 103.682C121.684 103.183 121.683 102.681 121.707 102.183C121.723 101.864 121.933 101.686 122.257 101.689C122.581 101.692 122.773 101.872 122.799 102.193C122.819 102.441 122.799 102.693 122.799 102.943H122.808Z" fill="#F4F4F4"/>
<path d="M119.4 93.9511C119.4 94.1773 119.413 94.4036 119.4 94.6298C119.397 94.7759 119.336 94.9147 119.231 95.0157C119.125 95.1168 118.984 95.1719 118.839 95.1691C118.766 95.1701 118.695 95.1566 118.628 95.1296C118.561 95.1026 118.5 95.0624 118.449 95.0116C118.397 94.9607 118.356 94.9001 118.329 94.8332C118.301 94.7664 118.287 94.6947 118.287 94.6223C118.271 94.1698 118.272 93.7173 118.287 93.2648C118.285 93.1183 118.34 92.9769 118.442 92.8714C118.543 92.7659 118.682 92.7048 118.828 92.7014C119.136 92.6924 119.376 92.9277 119.405 93.2723C119.405 93.2972 119.405 93.3221 119.405 93.3477V93.9511H119.4Z" fill="#F4F4F4"/>
<path d="M112.194 94.3405C112.194 94.5667 112.205 94.793 112.194 95.0192C112.174 95.3646 111.929 95.5962 111.617 95.5864C111.471 95.583 111.333 95.5217 111.232 95.416C111.13 95.3103 111.075 95.1687 111.078 95.0223C111.065 94.5698 111.063 94.1173 111.078 93.6648C111.078 93.5923 111.092 93.5206 111.12 93.4538C111.148 93.387 111.189 93.3266 111.241 93.276C111.293 93.2253 111.354 93.1856 111.421 93.1591C111.488 93.1326 111.56 93.1199 111.632 93.1218C111.705 93.1201 111.776 93.1327 111.844 93.159C111.911 93.1852 111.973 93.2246 112.025 93.2748C112.077 93.325 112.118 93.385 112.147 93.4514C112.176 93.5178 112.191 93.5893 112.193 93.6617C112.207 93.888 112.194 94.115 112.194 94.3405Z" fill="#F4F4F4"/>
<defs>
<filter id="filter0_d_276_4806" x="0.681641" y="0.681885" width="220.006" height="220.006" filterUnits="userSpaceOnUse" color-interpolation-filters="sRGB">
<feFlood flood-opacity="0" result="BackgroundImageFix"/>
<feColorMatrix in="SourceAlpha" type="matrix" values="0 0 0 0 0 0 0 0 0 0 0 0 0 0 0 0 0 0 127 0" result="hardAlpha"/>
<feOffset dy="4"/>
<feGaussianBlur stdDeviation="20"/>
<feComposite in2="hardAlpha" operator="out"/>
<feColorMatrix type="matrix" values="0 0 0 0 0 0 0 0 0 0 0 0 0 0 0 0 0 0 0.25 0"/>
<feBlend mode="normal" in2="BackgroundImageFix" result="effect1_dropShadow_276_4806"/>
<feBlend mode="normal" in="SourceGraphic" in2="effect1_dropShadow_276_4806" result="shape"/>
</filter>
<filter id="filter1_d_276_4806" x="30.8066" y="30.6875" width="159.884" height="159.883" filterUnits="userSpaceOnUse" color-interpolation-filters="sRGB">
<feFlood flood-opacity="0" result="BackgroundImageFix"/>
<feColorMatrix in="SourceAlpha" type="matrix" values="0 0 0 0 0 0 0 0 0 0 0 0 0 0 0 0 0 0 127 0" result="hardAlpha"/>
<feOffset dy="4"/>
<feGaussianBlur stdDeviation="20"/>
<feComposite in2="hardAlpha" operator="out"/>
<feColorMatrix type="matrix" values="0 0 0 0 0 0 0 0 0 0 0 0 0 0 0 0 0 0 0.25 0"/>
<feBlend mode="normal" in2="BackgroundImageFix" result="effect1_dropShadow_276_4806"/>
<feBlend mode="normal" in="SourceGraphic" in2="effect1_dropShadow_276_4806" result="shape"/>
</filter>
<linearGradient id="paint0_linear_276_4806" x1="40.8529" y1="101.832" x2="180.484" y2="111.536" gradientUnits="userSpaceOnUse">
<stop offset="0.3" stop-color="white"/>
<stop offset="0.77" stop-color="white"/>
</linearGradient>
<linearGradient id="paint1_linear_276_4806" x1="113.517" y1="66.7852" x2="107.981" y2="146.455" gradientUnits="userSpaceOnUse">
<stop offset="0.3" stop-color="#0B327D"/>
<stop offset="0.77" stop-color="#0B327D"/>
</linearGradient>
</defs>
</svg>
