<svg width="220" height="220" viewBox="0 0 220 220" fill="none" xmlns="http://www.w3.org/2000/svg">
<g filter="url(#filter0_d_276_4928)">
<path d="M110 176C148.66 176 180 144.66 180 106C180 67.3401 148.66 36 110 36C71.3401 36 40 67.3401 40 106C40 144.66 71.3401 176 110 176Z" fill="url(#paint0_linear_276_4928)"/>
</g>
<path d="M66.0544 88.3525L55.7119 87.434V87.4983L56.6002 87.8289L57.844 88.2974C58.2928 88.4719 58.7043 88.6372 59.0783 88.8025L64.7826 91.2549L64.0064 93L53 88.2606L54.197 85.5695L64.1186 86.442V86.3777L56.7873 79.6912L57.9936 77L69 81.7302L68.1771 83.5672L62.3793 81.0781C62.0333 80.9219 61.6499 80.7566 61.2385 80.5545L60.0789 80.0034L59.2186 79.5901V79.6544L66.8212 86.6441L66.0544 88.3525Z" fill="#1D1D1B"/>
<path d="M60.2472 72.6171C60.4078 72.3553 60.6415 72.1539 60.9153 72.0413C61.0725 71.9927 61.2386 71.9869 61.3985 72.0244C61.5583 72.0619 61.7068 72.1415 61.8304 72.256C61.9705 72.3398 62.09 72.4577 62.1791 72.6002C62.2682 72.7427 62.3243 72.9057 62.3429 73.0758C62.3488 73.3874 62.2588 73.6925 62.0866 73.9443C61.9255 74.2034 61.6917 74.4015 61.4186 74.5103C61.2604 74.5551 61.0944 74.558 60.935 74.5189C60.7755 74.4798 60.6274 74.3998 60.5035 74.2859C60.3605 74.2095 60.2388 74.0946 60.1505 73.9524C60.0622 73.8103 60.0104 73.646 60.0001 73.4759C59.9961 73.1691 60.0825 72.8687 60.2472 72.6171ZM63.679 73.7882L71 79.1751L69.8195 81L62.4984 75.6131L63.679 73.7882Z" fill="#1D1D1B"/>
<path d="M69.377 67.2119C69.9664 66.5453 70.807 66.112 71.728 66C72.2224 66.0003 72.7114 66.0959 73.164 66.2806C73.6167 66.4653 74.0232 66.7352 74.3579 67.0732L79 71.0698L77.4958 72.6241L73.1824 68.9235C72.1065 67.9983 71.19 67.9521 70.3533 68.7662C70.0727 68.9894 69.8645 69.2806 69.752 69.6074C69.6394 69.9341 69.6268 70.2835 69.7157 70.6165C70.0312 71.3364 70.5344 71.9722 71.1801 72.4668L74.6667 75.4643L73.1326 77L66 70.8663L67.1854 69.6821L68.331 70.2649L68.4207 70.1817C68.2611 69.6647 68.2821 69.1141 68.4805 68.6089C68.6731 68.0911 68.9782 67.6156 69.377 67.2119Z" fill="#1D1D1B"/>
<path d="M72.5039 60.3109C72.7227 60.1315 72.9953 60.0227 73.2829 60C73.4401 60 73.5946 60.0391 73.7311 60.1132C73.8677 60.1874 73.9817 60.2942 74.0618 60.4231C74.1816 60.5326 74.2702 60.6693 74.3193 60.8203C74.3685 60.9714 74.3765 61.1319 74.3426 61.2867C74.2599 61.5509 74.0919 61.7836 73.8626 61.9516C73.643 62.1284 73.3703 62.2342 73.0836 62.2539C72.9254 62.2481 72.7711 62.2058 72.6338 62.1305C72.4966 62.0553 72.3805 61.9495 72.2956 61.8221C72.176 61.7128 72.0881 61.5758 72.0405 61.4244C71.9929 61.2731 71.9871 61.1126 72.0239 60.9585C72.1067 60.699 72.275 60.4719 72.5039 60.3109ZM75.4477 62.2193L81 68.7737L79.3968 70L73.8445 63.4456L75.4477 62.2193Z" fill="#1D1D1B"/>
<path d="M82.572 56.5892C83.1856 56.1047 83.9326 55.9085 84.6643 56.0398C85.0445 56.1719 85.3967 56.396 85.6982 56.6976C85.9997 56.9992 86.2437 57.3715 86.4145 57.7905L89 62.8748L87.4089 63.955L85.0223 59.2338C84.4256 58.0605 83.7176 57.7625 82.8982 58.3026C82.6347 58.4425 82.4089 58.6638 82.2449 58.9428C82.0809 59.2217 81.9849 59.5477 81.9674 59.8856C82.0222 60.6783 82.2495 61.4413 82.6277 62.1019L84.5688 65.9198L82.9777 67L79 59.1873L80.1933 58.3585L80.9332 59.2245L81.0207 59.1686C81.0241 58.6281 81.1746 58.103 81.4503 57.6694C81.754 57.2197 82.1365 56.8514 82.572 56.5892Z" fill="#1D1D1B"/>
<path d="M91.1971 53.3648C91.679 53.1723 92.2025 53.1037 92.7187 53.1653C93.2348 53.227 93.7266 53.4169 94.148 53.7173H94.2213L94.0197 52.5785L95.6509 52L98.666 60.3787C98.8861 60.8586 99 61.3794 99 61.9062C99 62.433 98.8861 62.9537 98.666 63.4337C98.0371 64.4134 97.0544 65.1209 95.9167 65.4131C95.3609 65.6105 94.7912 65.7676 94.2121 65.8831C93.69 65.9818 93.1577 66.0182 92.6267 65.9916L92.0494 64.4008C93.2262 64.4843 94.4074 64.3179 95.5135 63.9127C95.7896 63.8387 96.0468 63.7078 96.2679 63.5286C96.4891 63.3495 96.6692 63.1261 96.7964 62.8733C97.0052 62.3163 96.9888 61.7014 96.7506 61.156L96.6681 60.9391C96.6132 60.7854 96.5582 60.6046 96.494 60.3967C96.4393 60.2312 96.3964 60.0621 96.3657 59.8906H96.3016C96.1868 60.3874 95.9364 60.8437 95.5776 61.2102C95.2051 61.5713 94.7537 61.8434 94.2579 62.0056C93.8008 62.188 93.3052 62.257 92.8147 62.2066C92.3242 62.1562 91.8537 61.9878 91.4445 61.7164C90.4799 61.0035 89.7757 60.0013 89.4375 58.8602C88.966 57.76 88.8727 56.5378 89.1718 55.3804C89.3153 54.9061 89.5752 54.474 89.9285 54.1224C90.2818 53.7708 90.7175 53.5106 91.1971 53.3648ZM92.2785 54.7658C91.0596 55.1906 90.7755 56.3294 91.4445 58.1823C92.1135 60.0352 93.0483 60.686 94.2946 60.2521C94.5808 60.1783 94.8469 60.0427 95.0735 59.8552C95.3002 59.6676 95.4817 59.4327 95.6051 59.1675C95.7851 58.4763 95.7171 57.745 95.4126 57.0977L95.3118 56.8085C95.1054 56.049 94.667 55.3706 94.0563 54.8652C93.7924 54.7035 93.4923 54.6082 93.1823 54.5878C92.8723 54.5673 92.5619 54.6222 92.2785 54.7477V54.7658Z" fill="#1D1D1B"/>
<path d="M103.888 47.0141C104.13 46.9739 104.377 47.0202 104.594 47.1467C104.708 47.2313 104.802 47.3465 104.867 47.4823C104.932 47.618 104.966 47.7699 104.967 47.9245C105.002 48.0793 105.001 48.2415 104.966 48.3961C104.931 48.5506 104.862 48.6925 104.765 48.8084C104.584 48.9984 104.351 49.1136 104.105 49.1355C103.86 49.1814 103.608 49.1315 103.391 48.9941C103.279 48.9074 103.188 48.7914 103.125 48.656C103.061 48.5206 103.027 48.3697 103.026 48.2162C102.992 48.0621 102.991 47.9007 103.025 47.7465C103.059 47.5922 103.126 47.45 103.22 47.3323C103.408 47.1497 103.641 47.0385 103.888 47.0141ZM105.107 50.1962L106 58.7613L104.245 59L103.36 50.4348L105.107 50.1962Z" fill="#1D1D1B"/>
<path d="M113.308 49.0058C114.044 48.9779 114.76 49.3056 115.312 49.9225C115.569 50.2966 115.761 50.7345 115.876 51.2081C115.991 51.6817 116.026 52.1805 115.981 52.6727L115.847 59L114.063 58.9402L114.188 53.0613C114.22 51.6065 113.764 50.8591 112.82 50.8193C112.536 50.7699 112.247 50.8199 111.984 50.9639C111.721 51.1079 111.493 51.3405 111.327 51.6364C111.014 52.3875 110.859 53.2285 110.879 54.0776L110.777 58.8306L109 58.7708L109.204 49.0456H110.58L110.808 50.331H110.902C111.154 49.8493 111.516 49.4771 111.94 49.2649C112.378 49.0637 112.843 48.9756 113.308 49.0058Z" fill="#1D1D1B"/>
<path d="M120.594 59.2202C120.12 59.133 119.674 58.9418 119.293 58.6619C118.911 58.382 118.604 58.0213 118.397 57.6087C117.932 56.534 117.874 55.3402 118.232 54.2296C118.42 53.0733 119.025 52.0141 119.944 51.2318C120.326 50.9454 120.773 50.7471 121.249 50.6523C121.726 50.5576 122.219 50.5691 122.69 50.6859C123.249 50.7819 123.768 51.0217 124.192 51.3791C124.528 51.6748 124.793 52.0352 124.97 52.4361H125.071C125.077 52.2101 125.095 51.9845 125.125 51.7603C125.125 51.457 125.217 51.1798 125.281 50.8939L125.968 48L128 48.4419L125.254 60L123.679 59.6621L123.569 58.5011H123.487C123.144 58.7982 122.738 59.0227 122.297 59.1596C121.747 59.334 121.156 59.3551 120.594 59.2202ZM121.583 57.7993C121.872 57.8951 122.182 57.9207 122.484 57.8737C122.786 57.8268 123.071 57.7089 123.313 57.5307C123.792 57.0512 124.111 56.4483 124.228 55.7978L124.283 55.5552C124.494 54.8607 124.51 54.1259 124.329 53.4238C124.205 53.1397 124.002 52.892 123.743 52.7063C123.484 52.5205 123.178 52.4033 122.855 52.3668C122.573 52.2928 122.276 52.2924 121.994 52.3656C121.712 52.4389 121.456 52.583 121.253 52.7827C120.742 53.3197 120.406 53.9844 120.283 54.6975C120.058 55.3802 120.058 56.1115 120.283 56.7942C120.388 57.0542 120.564 57.2837 120.792 57.4599C121.02 57.6361 121.292 57.7531 121.583 57.7993Z" fill="#1D1D1B"/>
<path d="M137 56.0935L133.743 64L132.415 63.3529L132.603 62.2272H132.521C132.13 62.5153 131.666 62.664 131.194 62.6527C130.707 62.6364 130.229 62.5159 129.785 62.2981C129.073 62.0101 128.491 61.4359 128.156 60.6938C128.025 60.2791 127.975 59.8385 128.012 59.4015C128.048 58.9644 128.17 58.5408 128.368 58.1587L130.477 53L132.163 53.8155L130.249 58.5665C129.769 59.7365 129.981 60.5431 130.868 60.9774C131.122 61.1448 131.414 61.2333 131.711 61.2333C132.008 61.2333 132.3 61.1448 132.554 60.9774C133.087 60.5093 133.5 59.8984 133.751 59.2047L135.331 55.34L137 56.0935Z" fill="#1D1D1B"/>
<path d="M142.79 66.0022C142.584 66.2956 142.296 66.5404 141.952 66.7147C141.608 66.8889 141.219 66.9869 140.82 67C139.838 66.9728 138.892 66.6788 138.118 66.1606C137.662 65.9085 137.237 65.6166 136.851 65.2895C136.526 65.0074 136.24 64.6938 136 64.355L136.999 63.088C137.268 63.4731 137.578 63.8363 137.924 64.1729C138.259 64.5103 138.645 64.8085 139.071 65.0598C139.409 65.2905 139.816 65.4334 140.246 65.4716C140.389 65.4742 140.53 65.4458 140.656 65.389C140.782 65.3322 140.889 65.2489 140.968 65.1469C141.066 65.0263 141.118 64.8823 141.116 64.7352C141.083 64.5203 141.001 64.3131 140.875 64.1254C140.654 63.7608 140.41 63.4066 140.144 63.0642C139.828 62.6966 139.558 62.3011 139.34 61.8843C139.164 61.5681 139.078 61.2207 139.09 60.8707C139.131 60.5003 139.291 60.1468 139.552 59.8491C139.743 59.5785 140.016 59.357 140.341 59.2079C140.667 59.0588 141.034 58.9876 141.402 59.0018C142.298 59.0549 143.156 59.3301 143.872 59.7937C144.309 60.0459 144.712 60.338 145.075 60.6648C145.425 60.9934 145.735 61.3516 146 61.7338L144.585 62.5257C144.347 62.211 144.091 61.907 143.817 61.6151C143.55 61.3382 143.239 61.0956 142.892 60.8944C142.124 60.451 141.597 60.4114 141.301 60.7836C141.203 60.9095 141.16 61.061 141.18 61.2112C141.226 61.4216 141.317 61.6229 141.449 61.8051C141.615 62.0506 141.856 62.3832 142.189 62.795C142.481 63.1521 142.741 63.5281 142.966 63.9195C143.154 64.2381 143.246 64.592 143.234 64.949C143.208 65.3294 143.054 65.6952 142.79 66.0022Z" fill="#1D1D1B"/>
<path d="M145.711 70.1723C145.911 70.329 146.127 70.4688 146.355 70.5901C146.564 70.7122 146.782 70.8199 147.009 70.9121L145.913 72C145.617 71.9061 145.333 71.7836 145.066 71.6345C144.723 71.4563 144.4 71.2463 144.105 71.0078C143.732 70.7085 143.426 70.3482 143.201 69.946C142.998 69.555 142.947 69.1133 143.056 68.6928C143.23 68.1375 143.561 67.6333 144.018 67.2306L147.288 63.9495L146.326 63.1836L146.961 62.5483L148.5 62.8703L150.346 62L151.365 62.8268L150.019 64.1671L152 65.7859L150.894 66.8912L148.971 65.2724L145.643 68.5187C145.51 68.6285 145.405 68.7633 145.335 68.9136C145.266 69.0639 145.233 69.2261 145.239 69.389C145.277 69.696 145.446 69.9774 145.711 70.1723Z" fill="#1D1D1B"/>
<path d="M156.494 71.7565C156.593 71.8831 156.687 72.0158 156.773 72.154C156.858 72.2826 156.934 72.4189 157 72.5615L155.49 73.764C155.438 73.6646 155.368 73.5354 155.281 73.3963C155.211 73.27 155.132 73.1504 155.045 73.0385C154.782 72.6867 154.455 72.4051 154.086 72.2137C153.714 72.0238 153.301 71.9616 152.899 72.0348C152.433 72.1314 152 72.3759 151.651 72.7404L148.283 76L147 74.2807L153.483 68L154.478 69.3217L153.536 70.6534L153.597 70.7429C154.105 70.6138 154.633 70.6138 155.141 70.7429C155.679 70.8988 156.155 71.2557 156.494 71.7565Z" fill="#1D1D1B"/>
<path d="M157.372 73L158.534 74.9497L155.255 79.1741C155.049 79.4433 154.844 79.694 154.63 79.9261C154.41 80.1545 154.178 80.3684 153.933 80.5667V80.6224C154.183 80.5172 154.481 80.4151 154.826 80.3161C155.148 80.2139 155.46 80.1304 155.782 80.0561L160.856 78.8491L162 80.7803L151.646 82.8785C150.847 83.0722 150.012 83.0337 149.233 82.7671C148.511 82.5017 147.905 81.9742 147.527 81.2816C147.402 81.0799 147.292 80.8689 147.197 80.6503C147.116 80.4646 147.054 80.2975 147 80.1489L148.367 79.2669C148.367 79.3876 148.465 79.5176 148.537 79.6847C148.61 79.8483 148.693 80.0065 148.787 80.1582C148.89 80.359 149.032 80.5353 149.205 80.676C149.377 80.8166 149.575 80.9185 149.787 80.9753C150.214 81.0729 150.656 81.0729 151.083 80.9753L151.824 80.8174L157.372 73Z" fill="#1D1D1B"/>
<g filter="url(#filter1_d_276_4928)">
<path d="M109.94 145.88C131.998 145.88 149.88 127.998 149.88 105.94C149.88 83.8817 131.998 66 109.94 66C87.8817 66 70 83.8817 70 105.94C70 127.998 87.8817 145.88 109.94 145.88Z" fill="url(#paint1_linear_276_4928)"/>
<path d="M148.38 105.94C148.38 127.17 131.17 144.38 109.94 144.38C88.7102 144.38 71.5 127.17 71.5 105.94C71.5 84.7102 88.7102 67.5 109.94 67.5C131.17 67.5 148.38 84.7102 148.38 105.94Z" stroke="white" stroke-width="3"/>
</g>
<g clip-path="url(#clip0_276_4928)">
<path d="M119.033 126.225C118.478 126.151 117.924 126.054 117.367 126.009C116.333 125.919 115.409 125.516 114.467 125.124C113.384 124.677 112.293 124.207 111.163 123.911C109.448 123.464 107.704 123.607 105.988 124.001C104.467 124.352 102.936 124.6 101.372 124.516C98.3209 124.351 95.5479 123.48 93.3795 121.198C91.883 119.624 91.0359 117.71 90.9643 115.559C90.8901 113.434 90.2487 111.46 89.6941 109.452C89.3005 108.016 88.9874 106.569 89.0035 105.07C89.0295 102.648 89.9821 100.695 91.9742 99.3132C93.8554 98.0038 95.9253 97.1782 98.2699 97.2409C99.5678 97.2748 100.782 97.5924 101.93 98.3052C102.005 98.1782 102.077 98.0592 102.145 97.9367C104.066 94.4712 105.986 91.0039 107.903 87.5348C108.15 87.0875 108.457 86.8487 108.976 86.7539C111.988 86.1994 114.994 85.61 118.002 85.0322C118.571 84.9222 118.905 85.093 119.113 85.6288C120.253 88.558 121.383 91.4898 122.528 94.4163C122.67 94.7741 122.626 95.0818 122.443 95.4073C121.666 96.7981 120.899 98.1952 120.128 99.5896C120.059 99.7148 119.995 99.8436 119.897 100.037C120.896 99.8633 121.83 99.7032 122.759 99.5404C123.55 99.4026 124.339 99.2542 125.132 99.1263C125.298 99.0916 125.472 99.1138 125.624 99.1891C125.777 99.2645 125.9 99.3888 125.974 99.5422C126.859 101.212 127.737 102.881 128.61 104.551C128.789 104.886 128.668 105.193 128.498 105.5C127.419 107.428 126.345 109.359 125.277 111.291C125.193 111.443 125.11 111.596 125.004 111.787C125.206 111.847 125.387 111.904 125.572 111.955C128.186 112.683 129.84 114.622 130.144 117.313C130.163 117.414 130.191 117.513 130.226 117.609V119.541C130.108 120.116 130.007 120.695 129.868 121.263C129.832 121.429 129.742 121.579 129.612 121.689C129.481 121.798 129.318 121.861 129.148 121.867C128.81 121.896 128.507 121.762 128.393 121.449C128.312 121.199 128.301 120.933 128.359 120.677C128.634 119.418 128.717 118.163 128.403 116.897C127.884 114.828 126.427 113.588 124.306 113.327C123.084 113.174 121.9 113.365 120.71 113.544C119.841 113.675 119.612 113.578 119.262 112.798C117.545 108.984 114.559 106.645 110.648 105.375C108.914 104.81 107.118 104.63 105.314 104.488C104.794 104.446 104.269 104.436 103.748 104.405C103.355 104.381 103.083 104.137 103.01 103.737C102.914 103.21 102.879 102.67 102.742 102.155C102.28 100.392 101.106 99.4321 99.3344 99.0502C96.7716 98.4975 93.1067 99.8203 91.5941 101.929C90.7532 103.101 90.5439 104.426 90.6503 105.825C90.797 107.75 91.4295 109.564 91.9483 111.403C92.2578 112.499 92.4832 113.607 92.5262 114.755C92.6657 118.646 94.8036 121.367 98.5508 122.435C100.753 123.061 102.976 123.048 105.185 122.506C108.425 121.712 111.571 121.867 114.57 123.392C117.031 124.645 119.634 124.716 122.291 124.484C122.678 124.45 123.063 124.394 123.453 124.371C123.964 124.339 124.317 124.622 124.356 125.07C124.399 125.561 124.122 125.898 123.599 125.979C123.045 126.068 122.49 126.143 121.935 126.225H119.033ZM115.495 96.0504L111.124 93.6274L107.394 102.942C108.281 103.121 109.115 103.3 109.953 103.459C110.03 103.473 110.158 103.362 110.222 103.28C111.97 100.886 113.715 98.4921 115.495 96.0504ZM108.668 89.5284C106.806 92.8887 104.993 96.1631 103.176 99.4447C103.976 100.425 104.334 101.574 104.55 102.799C104.869 102.799 105.137 102.78 105.402 102.804C105.635 102.826 105.732 102.724 105.812 102.524C107.112 99.2613 108.413 95.9976 109.716 92.733C109.779 92.5927 109.794 92.4353 109.757 92.2858C109.418 91.3914 109.055 90.497 108.668 89.5284ZM120.268 95.9681C119.284 96.147 118.379 96.3026 117.479 96.4913C117.279 96.5372 117.1 96.6491 116.972 96.8089C115.642 98.6075 114.327 100.419 113.009 102.227C112.585 102.809 112.163 103.388 111.742 103.967L114.992 105.498L120.268 95.9681ZM126.451 105.791C126.409 105.768 126.363 105.751 126.316 105.741C125.096 105.741 123.876 105.729 122.655 105.749C122.529 105.749 122.361 105.909 122.289 106.037C121.596 107.26 120.947 108.509 120.227 109.714C119.924 110.222 119.836 110.637 120.234 111.108C120.342 111.246 120.422 111.402 120.472 111.57C120.553 111.817 120.716 111.838 120.939 111.813C121.578 111.747 122.217 111.685 122.858 111.656C123.114 111.645 123.261 111.578 123.39 111.344C124.348 109.595 125.323 107.856 126.292 106.112C126.348 106.01 126.395 105.904 126.451 105.791ZM118.863 108.845C119.509 107.682 120.181 106.476 120.831 105.267C120.854 105.202 120.86 105.131 120.85 105.063C120.84 104.994 120.814 104.928 120.773 104.872C120.354 104.404 119.907 103.959 119.471 103.505C119.158 103.181 118.845 102.854 118.511 102.502C117.761 103.858 117.039 105.164 116.433 106.258C117.287 107.162 118.064 107.99 118.863 108.843V108.845ZM117.142 87.9158L112.123 92.3118L116.077 94.5058C116.434 92.301 116.778 90.1706 117.142 87.9176V87.9158ZM119.994 101.68C120.763 102.485 121.479 103.24 122.209 103.982C122.287 104.061 122.449 104.086 122.572 104.087C123.805 104.094 125.038 104.092 126.271 104.087C126.354 104.081 126.437 104.07 126.519 104.054C125.974 103.02 125.46 102.022 124.918 101.041C124.863 100.941 124.634 100.876 124.499 100.894C123.93 100.969 123.366 101.08 122.799 101.179L119.994 101.68ZM111.043 91.0918L115.426 87.2512L115.382 87.1976L109.915 88.2431C110.296 89.2046 110.655 90.1097 111.043 91.0918ZM118.692 89.0526H118.61C118.305 90.9371 118.001 92.8225 117.686 94.7768L120.704 94.2267L118.692 89.0526Z" fill="white"/>
<path d="M108.495 109.632C110.101 109.676 111.191 110.526 111.947 111.872C112.04 112.046 112.063 112.249 112.011 112.438C111.96 112.628 111.837 112.791 111.669 112.894C111.5 113.007 111.294 113.052 111.094 113.019C110.893 112.985 110.713 112.877 110.589 112.715C110.465 112.558 110.368 112.38 110.245 112.221C109.538 111.3 108.635 111.037 107.543 111.438C107.381 111.498 107.228 111.584 107.069 111.652C106.64 111.836 106.211 111.694 106.002 111.303C105.951 111.212 105.919 111.111 105.907 111.007C105.895 110.903 105.903 110.798 105.933 110.698C105.962 110.597 106.011 110.504 106.076 110.422C106.142 110.341 106.223 110.274 106.315 110.224C106.976 109.835 107.729 109.631 108.495 109.632Z" fill="white"/>
<path d="M99.7715 113.095C101.382 113.122 102.47 113.973 103.24 115.311C103.34 115.49 103.365 115.7 103.312 115.896C103.258 116.093 103.129 116.261 102.953 116.364C102.782 116.473 102.576 116.514 102.377 116.476C102.178 116.439 102 116.327 101.88 116.164C101.74 115.985 101.626 115.786 101.485 115.608C100.841 114.803 100.013 114.544 99.0201 114.851C98.8185 114.919 98.6213 115 98.4297 115.093C97.9574 115.306 97.5119 115.174 97.2963 114.752C97.0808 114.329 97.2382 113.89 97.6998 113.642C98.3331 113.287 99.0459 113.099 99.7715 113.095Z" fill="white"/>
<path d="M118.217 116.959C119.827 116.99 120.916 117.84 121.682 119.181C121.781 119.359 121.805 119.569 121.75 119.766C121.696 119.962 121.566 120.129 121.39 120.232C121.218 120.339 121.012 120.377 120.813 120.339C120.614 120.301 120.437 120.189 120.316 120.026C120.085 119.733 119.887 119.4 119.618 119.151C118.886 118.465 118.038 118.457 117.152 118.817C117.029 118.868 116.913 118.936 116.789 118.988C116.363 119.166 115.934 119.009 115.735 118.61C115.639 118.43 115.618 118.22 115.675 118.024C115.731 117.828 115.862 117.662 116.039 117.561C116.698 117.169 117.45 116.962 118.217 116.959Z" fill="white"/>
<path d="M96.1165 103.138C97.2928 103.176 98.2401 103.65 99.0192 104.471C99.1607 104.618 99.2392 104.814 99.2378 105.018C99.2365 105.222 99.1554 105.417 99.0121 105.562C98.6945 105.897 98.2347 105.919 97.8617 105.589C97.3375 105.121 96.7748 104.772 96.036 104.792C95.4903 104.808 95.0243 105.011 94.5904 105.32C94.1119 105.66 93.6431 105.63 93.3488 105.243C93.0545 104.857 93.1458 104.376 93.6109 104.026C94.3344 103.478 95.2096 103.168 96.1165 103.138Z" fill="white"/>
<path d="M126.118 123.858C126.119 123.753 126.141 123.648 126.183 123.551C126.225 123.454 126.285 123.366 126.361 123.292C126.436 123.218 126.526 123.16 126.624 123.121C126.722 123.082 126.827 123.062 126.933 123.063C127.039 123.065 127.143 123.087 127.24 123.128C127.337 123.17 127.425 123.23 127.499 123.306C127.573 123.382 127.631 123.471 127.671 123.569C127.71 123.667 127.729 123.772 127.728 123.878C127.729 123.985 127.708 124.091 127.668 124.191C127.627 124.29 127.567 124.38 127.491 124.455C127.415 124.531 127.324 124.59 127.225 124.631C127.126 124.671 127.019 124.691 126.912 124.689C126.805 124.689 126.699 124.667 126.6 124.625C126.501 124.582 126.412 124.521 126.338 124.443C126.264 124.365 126.206 124.274 126.168 124.173C126.13 124.073 126.113 123.966 126.118 123.858Z" fill="white"/>
</g>
<defs>
<filter id="filter0_d_276_4928" x="0" y="0" width="220" height="220" filterUnits="userSpaceOnUse" color-interpolation-filters="sRGB">
<feFlood flood-opacity="0" result="BackgroundImageFix"/>
<feColorMatrix in="SourceAlpha" type="matrix" values="0 0 0 0 0 0 0 0 0 0 0 0 0 0 0 0 0 0 127 0" result="hardAlpha"/>
<feOffset dy="4"/>
<feGaussianBlur stdDeviation="20"/>
<feComposite in2="hardAlpha" operator="out"/>
<feColorMatrix type="matrix" values="0 0 0 0 0 0 0 0 0 0 0 0 0 0 0 0 0 0 0.25 0"/>
<feBlend mode="normal" in2="BackgroundImageFix" result="effect1_dropShadow_276_4928"/>
<feBlend mode="normal" in="SourceGraphic" in2="effect1_dropShadow_276_4928" result="shape"/>
</filter>
<filter id="filter1_d_276_4928" x="30" y="30" width="159.88" height="159.88" filterUnits="userSpaceOnUse" color-interpolation-filters="sRGB">
<feFlood flood-opacity="0" result="BackgroundImageFix"/>
<feColorMatrix in="SourceAlpha" type="matrix" values="0 0 0 0 0 0 0 0 0 0 0 0 0 0 0 0 0 0 127 0" result="hardAlpha"/>
<feOffset dy="4"/>
<feGaussianBlur stdDeviation="20"/>
<feComposite in2="hardAlpha" operator="out"/>
<feColorMatrix type="matrix" values="0 0 0 0 0 0 0 0 0 0 0 0 0 0 0 0 0 0 0.25 0"/>
<feBlend mode="normal" in2="BackgroundImageFix" result="effect1_dropShadow_276_4928"/>
<feBlend mode="normal" in="SourceGraphic" in2="effect1_dropShadow_276_4928" result="shape"/>
</filter>
<linearGradient id="paint0_linear_276_4928" x1="40" y1="106" x2="179.968" y2="106" gradientUnits="userSpaceOnUse">
<stop offset="0.3" stop-color="white"/>
<stop offset="0.77" stop-color="white"/>
</linearGradient>
<linearGradient id="paint1_linear_276_4928" x1="70" y1="105.94" x2="149.862" y2="105.94" gradientUnits="userSpaceOnUse">
<stop offset="0.3" stop-color="#0B327D"/>
<stop offset="0.77" stop-color="#0B327D"/>
</linearGradient>
<clipPath id="clip0_276_4928">
<rect width="41.2241" height="41.2241" fill="white" transform="translate(89 85)"/>
</clipPath>
</defs>
</svg>
