<svg width="220" height="220" viewBox="0 0 220 220" fill="none" xmlns="http://www.w3.org/2000/svg">
<g filter="url(#filter0_d_276_4899)">
<path d="M110 176C148.66 176 180 144.66 180 106C180 67.3401 148.66 36 110 36C71.3401 36 40 67.3401 40 106C40 144.66 71.3401 176 110 176Z" fill="url(#paint0_linear_276_4899)"/>
</g>
<g filter="url(#filter1_d_276_4899)">
<path d="M109.94 145.88C131.998 145.88 149.88 127.998 149.88 105.94C149.88 83.8817 131.998 66 109.94 66C87.8817 66 70 83.8817 70 105.94C70 127.998 87.8817 145.88 109.94 145.88Z" fill="url(#paint1_linear_276_4899)"/>
<path d="M148.38 105.94C148.38 127.17 131.17 144.38 109.94 144.38C88.7102 144.38 71.5 127.17 71.5 105.94C71.5 84.7102 88.7102 67.5 109.94 67.5C131.17 67.5 148.38 84.7102 148.38 105.94Z" stroke="white" stroke-width="3"/>
</g>
<g clip-path="url(#clip0_276_4899)">
<path d="M92.9219 112.424C93.1055 112.278 93.2718 112.102 93.4743 111.994C94.0971 111.661 94.7266 111.356 95.3667 111.032C93.1307 105.139 93.9003 99.6726 97.6755 94.6334C97.0097 94.129 96.3416 93.6169 95.6667 93.1154C95.4219 92.933 95.2843 92.711 95.3471 92.4011C95.4355 91.9638 95.9411 91.7905 96.3333 92.0783C97.0135 92.5766 97.6838 93.0918 98.3587 93.6001C98.4078 93.6367 98.4607 93.668 98.4841 93.684C99.1976 93.0849 99.8732 92.4789 100.59 91.9287C101.098 91.5372 101.654 91.2075 102.201 90.8755C102.634 90.6106 102.985 90.6778 103.178 91.0281C103.372 91.3784 103.243 91.6967 102.8 91.9516C99.6556 93.7451 97.4133 96.3369 96.2131 99.7743C94.6835 104.157 95.1354 108.372 97.4911 112.372C97.5667 112.499 97.6551 112.618 97.7601 112.776C97.8584 112.632 97.937 112.523 98.0095 112.411C100.277 108.864 102.542 105.316 104.804 101.767C104.908 101.613 104.969 101.434 104.981 101.248C104.993 99.0012 104.988 96.7544 104.988 94.5075C104.988 94.4457 104.981 94.3831 104.976 94.3198C102.779 94.7204 99.258 98.9394 98.791 101.759C99.3903 101.912 99.9926 102.07 100.597 102.222C101.216 102.375 101.456 102.635 101.357 103.051C101.262 103.457 100.917 103.581 100.299 103.427C99.7168 103.281 99.1348 103.13 98.4396 102.952C98.4169 103.792 98.3564 104.592 98.3836 105.394C98.4214 106.526 98.6693 107.625 99.0449 108.695C99.1908 109.111 99.0517 109.458 98.7139 109.579C98.3602 109.707 98.0504 109.519 97.8886 109.078C96.0454 104.049 97.6755 98.164 101.838 94.7998C102.717 94.0799 103.687 93.4819 104.723 93.0216C104.928 92.9315 104.997 92.8254 104.993 92.6033C104.981 91.7913 104.988 90.9793 104.988 90.1062C104.77 90.1062 104.563 90.1062 104.356 90.1062C104.12 90.105 103.887 90.0568 103.67 89.9643C103.452 89.8718 103.255 89.7369 103.09 89.5674C102.925 89.3978 102.794 89.1969 102.706 88.9762C102.618 88.7555 102.573 88.5194 102.576 88.2814C102.572 88.0432 102.615 87.8066 102.703 87.5854C102.79 87.3642 102.921 87.1628 103.086 86.9927C103.251 86.8226 103.448 86.6873 103.665 86.5946C103.882 86.502 104.116 86.4537 104.352 86.4528C107.996 86.4487 111.64 86.4487 115.285 86.4528C116.28 86.4528 117.055 87.2701 117.054 88.2882C117.055 88.5263 117.009 88.7622 116.92 88.9825C116.83 89.2027 116.699 89.403 116.532 89.5719C116.366 89.7408 116.169 89.8749 115.951 89.9665C115.734 90.0582 115.5 90.1057 115.265 90.1062C115.076 90.1062 114.887 90.1062 114.64 90.1062C114.64 90.5641 114.64 91.022 114.64 91.4692C114.64 91.9165 114.489 92.4744 114.69 92.814C114.891 93.1536 115.44 93.2505 115.824 93.4726C119.451 95.5569 121.647 98.6677 122.332 102.836C122.685 104.982 122.452 107.079 121.721 109.121C121.574 109.53 121.246 109.704 120.902 109.574C120.575 109.451 120.443 109.121 120.563 108.72C120.589 108.636 120.623 108.554 120.651 108.47C121.087 107.161 121.316 105.814 121.262 104.434C121.155 101.695 120.237 99.2653 118.465 97.1764C118.421 97.114 118.38 97.0487 118.344 96.981C117.83 97.5031 117.366 97.98 116.895 98.4502C116.802 98.5554 116.675 98.6242 116.537 98.6446C116.399 98.6649 116.258 98.6356 116.139 98.5616C116.024 98.5047 115.933 98.4083 115.882 98.2898C115.831 98.1712 115.823 98.0382 115.86 97.9144C115.909 97.7592 115.995 97.6186 116.11 97.5053C116.548 97.0535 117 96.6147 117.471 96.1446C116.637 95.3747 115.691 94.7392 114.665 94.2602C114.655 94.4213 114.641 94.5396 114.641 94.6579C114.641 96.8414 114.641 99.0249 114.646 101.208C114.647 101.381 114.694 101.552 114.783 101.701C117.083 105.316 119.389 108.929 121.7 112.538C121.745 112.609 121.797 112.675 121.872 112.779C122.456 111.914 122.938 110.982 123.308 110.003C125.905 103.252 123.178 95.5577 116.935 92.0081C116.88 91.9775 116.824 91.9493 116.769 91.9165C116.386 91.6875 116.268 91.3609 116.448 91.0304C116.628 90.6999 116.977 90.619 117.359 90.8335C119.225 91.8673 120.862 93.2743 122.171 94.9686C123.48 96.663 124.434 98.609 124.973 100.688C124.998 100.785 125.033 100.879 125.07 100.999L127.004 100.518C127.468 100.403 127.794 100.544 127.895 100.9C128.001 101.276 127.788 101.579 127.31 101.707C126.766 101.854 126.224 102.019 125.671 102.12C125.338 102.181 125.325 102.345 125.348 102.617C125.411 103.362 125.492 104.108 125.492 104.854C125.492 108.036 124.575 110.941 122.815 113.573C122.642 113.83 122.623 114.003 122.797 114.27C123.9 115.966 124.991 117.671 126.069 119.384C127.412 121.521 126.555 124.268 124.273 125.184C124.009 125.289 123.734 125.366 123.464 125.455H96.1648C96.1134 125.424 96.0593 125.399 96.003 125.379C94.4515 124.999 93.4705 124.025 93.0239 122.489C92.9929 122.382 92.9559 122.279 92.9219 122.175V120.877C93.2053 120.267 93.432 119.619 93.7812 119.046C94.7855 117.409 95.8413 115.804 96.8669 114.18C96.9349 114.073 96.99 113.875 96.9379 113.786C96.6144 113.232 96.2577 112.697 95.9033 112.14C95.2609 112.47 94.6261 112.792 93.986 113.111C93.4758 113.366 93.2801 113.322 92.9219 112.882V112.424ZM113.434 90.1062C113.227 90.1062 113.065 90.1062 112.905 90.1062C112.485 90.0993 112.236 89.8772 112.23 89.5101C112.223 89.1224 112.474 88.8927 112.919 88.8904C113.599 88.8866 114.279 88.8904 114.955 88.8904C115.522 88.8904 115.833 88.6805 115.843 88.2921C115.853 87.886 115.541 87.6708 114.942 87.6708H104.686C104.56 87.6621 104.433 87.6669 104.308 87.6853C103.99 87.7555 103.786 87.9608 103.791 88.2959C103.796 88.6095 103.994 88.808 104.297 88.8744C104.422 88.893 104.548 88.8989 104.674 88.8919C106.346 88.8919 108.018 88.8919 109.689 88.8919C110.168 88.8919 110.423 89.114 110.417 89.5124C110.41 89.894 110.156 90.1077 109.702 90.1085C108.672 90.1085 107.641 90.1085 106.611 90.1085H106.194V90.616C106.194 94.2086 106.196 97.801 106.2 101.393C106.203 101.719 106.107 102.039 105.925 102.309C102.156 108.198 98.3892 114.089 94.6261 119.98C94.0381 120.9 93.9459 121.853 94.4636 122.819C94.9813 123.785 95.8421 124.227 96.919 124.228C105.502 124.228 114.086 124.227 122.669 124.224C122.984 124.224 123.296 124.183 123.6 124.101C125.194 123.663 126.1 121.667 124.967 119.911C121.185 114.045 117.428 108.166 113.694 102.274C113.538 102.022 113.452 101.732 113.446 101.434C113.429 97.8297 113.434 94.2244 113.434 90.619V90.1062Z" fill="white"/>
<path d="M105.592 111.098C105.592 110.64 105.605 110.182 105.588 109.724C105.575 109.359 105.728 109.137 106.049 108.98C107.008 108.51 107.955 108.016 108.914 107.547C109.136 107.439 109.226 107.318 109.217 107.059C109.196 106.311 109.207 105.562 109.211 104.814C109.211 104.366 109.443 104.112 109.826 104.12C110.191 104.128 110.411 104.379 110.414 104.807C110.418 105.57 110.424 106.333 110.41 107.091C110.41 107.311 110.473 107.428 110.672 107.526C111.631 107.995 112.578 108.49 113.538 108.956C113.902 109.133 114.051 109.384 114.041 109.796C114.02 110.712 114.045 111.624 114.028 112.536C114.024 112.788 114.096 112.918 114.323 113.029C115.282 113.497 116.228 113.994 117.187 114.462C117.525 114.628 117.666 114.861 117.66 115.24C117.644 116.191 117.66 117.143 117.65 118.095C117.64 118.187 117.659 118.279 117.704 118.36C117.748 118.441 117.817 118.505 117.899 118.545C118.691 119.01 119.473 119.491 120.256 119.972C120.67 120.225 120.791 120.548 120.607 120.88C120.416 121.227 120.055 121.287 119.629 121.033C118.853 120.567 118.075 120.104 117.309 119.62C117.098 119.487 116.937 119.492 116.724 119.603C115.813 120.076 114.88 120.521 113.973 121.006C113.589 121.212 113.261 121.203 112.878 120.997C111.948 120.5 111.002 120.03 110.052 119.57C109.901 119.507 109.732 119.507 109.581 119.57C108.586 120.052 107.598 120.548 106.617 121.058C106.487 121.133 106.339 121.172 106.189 121.171C106.039 121.171 105.892 121.13 105.763 121.054C104.861 120.584 103.94 120.148 103.042 119.662C102.709 119.481 102.47 119.504 102.159 119.707C101.423 120.189 100.669 120.648 99.8975 121.069C99.7139 121.169 99.3806 121.165 99.2098 121.058C99.0587 120.962 98.9566 120.648 98.9785 120.447C98.9967 120.278 99.197 120.088 99.3632 119.981C100.139 119.489 100.927 119.018 101.717 118.551C101.801 118.512 101.87 118.448 101.916 118.368C101.961 118.287 101.981 118.195 101.973 118.102C101.961 117.163 101.986 116.223 101.959 115.285C101.947 114.851 102.121 114.61 102.494 114.43C103.444 113.972 104.384 113.482 105.327 113.017C105.522 112.921 105.601 112.807 105.593 112.582C105.579 112.088 105.592 111.592 105.592 111.098ZM103.178 116.898C103.178 117.303 103.162 117.71 103.187 118.114C103.195 118.182 103.217 118.247 103.251 118.305C103.286 118.364 103.333 118.414 103.388 118.453C104.254 118.911 105.127 119.35 106.005 119.781C106.065 119.807 106.129 119.821 106.194 119.822C106.259 119.823 106.323 119.811 106.383 119.786C107.261 119.356 108.133 118.911 108.998 118.454C109.055 118.416 109.102 118.366 109.138 118.308C109.173 118.249 109.195 118.183 109.202 118.115C109.22 117.318 109.22 116.52 109.202 115.721C109.196 115.652 109.175 115.586 109.14 115.528C109.105 115.469 109.058 115.418 109.002 115.38C108.137 114.922 107.265 114.479 106.385 114.051C106.325 114.026 106.261 114.013 106.196 114.013C106.131 114.013 106.067 114.026 106.007 114.051C105.128 114.482 104.256 114.924 103.39 115.379C103.334 115.417 103.286 115.467 103.251 115.525C103.215 115.583 103.193 115.648 103.184 115.716C103.162 116.111 103.178 116.504 103.178 116.897V116.898ZM116.415 116.924H116.451C116.451 116.542 116.44 116.161 116.451 115.784C116.46 115.569 116.4 115.442 116.197 115.343C115.344 114.924 114.502 114.485 113.641 114.066C113.577 114.039 113.508 114.025 113.438 114.025C113.368 114.025 113.299 114.039 113.235 114.066C112.367 114.487 111.504 114.923 110.648 115.374C110.586 115.414 110.534 115.467 110.494 115.53C110.455 115.592 110.43 115.663 110.421 115.737C110.402 116.522 110.421 117.308 110.405 118.093C110.402 118.309 110.486 118.404 110.664 118.492C111.507 118.907 112.341 119.344 113.19 119.748C113.353 119.81 113.534 119.806 113.694 119.738C114.198 119.513 114.685 119.252 115.176 119.001C115.588 118.789 116.166 118.67 116.363 118.33C116.575 117.973 116.415 117.401 116.415 116.927V116.924ZM112.831 111.455C112.831 111.062 112.819 110.668 112.837 110.277C112.845 110.07 112.781 109.958 112.594 109.867C111.738 109.447 110.893 109.005 110.034 108.591C109.894 108.532 109.737 108.532 109.597 108.591C108.738 109.005 107.893 109.448 107.037 109.866C106.85 109.958 106.789 110.066 106.793 110.272C106.805 111.045 106.805 111.818 106.793 112.591C106.789 112.797 106.848 112.907 107.036 112.998C107.893 113.416 108.737 113.859 109.596 114.273C109.736 114.332 109.893 114.334 110.034 114.277C110.892 113.863 111.738 113.421 112.593 113.001C112.779 112.91 112.846 112.799 112.837 112.592C112.819 112.215 112.831 111.834 112.831 111.454V111.455Z" fill="white"/>
<path d="M108.608 94.999C108.608 95.9752 108.608 96.9513 108.608 97.9274C108.608 98.3785 108.381 98.6357 108.003 98.6364C107.625 98.6372 107.398 98.3807 107.398 97.9305C107.398 95.9655 107.398 94.0005 107.398 92.0355C107.398 91.5822 107.619 91.3273 107.998 91.3265C108.378 91.3258 108.603 91.5807 108.603 92.0325C108.608 93.0208 108.608 94.0099 108.608 94.999Z" fill="white"/>
<path d="M104.385 116.891C104.385 116.701 104.379 116.51 104.385 116.322C104.4 115.94 104.641 115.697 104.995 115.701C105.333 115.705 105.576 115.94 105.586 116.301C105.598 116.718 105.599 117.136 105.586 117.553C105.587 117.632 105.571 117.71 105.54 117.783C105.51 117.856 105.465 117.921 105.408 117.976C105.352 118.03 105.285 118.073 105.211 118.1C105.138 118.128 105.06 118.14 104.982 118.136C104.645 118.136 104.406 117.896 104.39 117.536C104.375 117.322 104.385 117.106 104.385 116.891Z" fill="white"/>
<path d="M114.039 116.895C114.039 116.693 114.03 116.49 114.039 116.288C114.046 116.131 114.112 115.983 114.225 115.875C114.337 115.766 114.487 115.706 114.643 115.707C114.798 115.708 114.947 115.77 115.058 115.88C115.17 115.99 115.234 116.139 115.239 116.296C115.251 116.713 115.252 117.132 115.239 117.548C115.239 117.628 115.224 117.706 115.194 117.779C115.163 117.853 115.118 117.919 115.062 117.974C115.005 118.029 114.938 118.071 114.865 118.099C114.791 118.127 114.713 118.14 114.634 118.136C114.296 118.136 114.054 117.899 114.038 117.541C114.031 117.325 114.039 117.11 114.039 116.895Z" fill="white"/>
<path d="M110.415 110.364C110.356 110.44 110.263 110.645 110.101 110.745C109.701 110.979 109.289 111.19 108.865 111.376C108.533 111.528 108.224 111.408 108.069 111.105C108.03 111.036 108.006 110.959 107.997 110.879C107.988 110.8 107.995 110.719 108.019 110.643C108.042 110.566 108.08 110.495 108.131 110.434C108.183 110.373 108.246 110.323 108.317 110.287C108.72 110.062 109.134 109.85 109.556 109.663C109.996 109.47 110.425 109.764 110.415 110.364Z" fill="white"/>
</g>
<path d="M53.1185 93.4043C53.0078 93.8466 53.0062 94.3093 53.1139 94.7524C53.2217 95.1955 53.4355 95.6057 53.737 95.9478C54.4768 96.7081 55.448 97.2014 56.4983 97.3503C57.5153 97.608 58.5875 97.541 59.5645 97.1587C59.9755 96.9512 60.3288 96.6454 60.5932 96.2686C60.8576 95.8917 61.0249 95.4554 61.0802 94.9984C61.1769 94.5433 61.2178 94.0783 61.2021 93.6133C61.1928 93.1238 61.1549 92.6351 61.0889 92.1499L62.7614 92.4809C62.8563 92.9569 62.9001 93.4417 62.892 93.9269C62.876 94.4625 62.8148 94.9958 62.7091 95.521C62.5527 96.5124 62.1143 97.4377 61.446 98.1865C60.8315 98.8328 60.0307 99.2713 59.1551 99.4409C58.1342 99.6313 57.0853 99.6136 56.0715 99.3886C55.0566 99.2099 54.0949 98.805 53.2579 98.2039C52.5125 97.6632 51.9429 96.9149 51.6203 96.0524C51.285 95.0949 51.2277 94.062 51.4548 93.0733C51.5669 92.5207 51.7422 91.9829 51.9774 91.4705C52.201 90.9713 52.4785 90.4981 52.8049 90.0593L54.2858 91.0611C54.0304 91.4196 53.7949 91.7918 53.5802 92.1761C53.3578 92.5563 53.2017 92.9716 53.1185 93.4043Z" fill="#1D1D1B"/>
<path d="M56.037 85.5905C56.3506 85.7241 56.641 85.8634 56.9081 86.0086L57.544 86.3483L57.5875 86.2264C57.3053 85.8303 57.1421 85.3619 57.1172 84.8762C57.0921 84.374 57.1846 83.8729 57.3872 83.4128C57.6568 82.637 58.211 81.9925 58.9377 81.6096C59.3435 81.4567 59.7773 81.3924 60.21 81.4209C60.6427 81.4494 61.0643 81.5702 61.4464 81.7751L66.5597 83.9006L65.8018 85.7211L61.0544 83.7438C59.8698 83.256 59.0858 83.4912 58.6851 84.4581C58.5327 84.7353 58.4587 85.0488 58.4709 85.365C58.4832 85.6811 58.5813 85.9879 58.7548 86.2525C59.2417 86.8124 59.8662 87.2358 60.5666 87.4807L64.3994 89.0835L63.6415 90.9041L52.6572 86.3396L53.4151 84.519L56.037 85.5905Z" fill="#1D1D1B"/>
<path d="M62.2387 74.5278C62.4909 74.0991 62.8294 73.7276 63.2328 73.4366C63.6362 73.1457 64.0956 72.9418 64.5819 72.8379C65.0926 72.7587 65.6139 72.7827 66.1151 72.9084C66.6163 73.0341 67.0872 73.2589 67.5001 73.5696L68.3711 74.1271L65.2701 78.8048C65.804 79.1888 66.4658 79.3512 67.1168 79.2577C67.4222 79.1948 67.7111 79.0684 67.9646 78.8869C68.2182 78.7053 68.4309 78.4726 68.5889 78.2037C68.8656 77.7913 69.0908 77.3467 69.2596 76.8797C69.4207 76.4305 69.5374 75.9666 69.6081 75.4947L70.9234 76.3657C70.8609 76.8223 70.7439 77.2697 70.575 77.6985C70.3626 78.1955 70.1029 78.671 69.7997 79.1184C69.3908 79.7607 68.8394 80.3002 68.1882 80.695C67.5673 81.0494 66.8536 81.2074 66.1412 81.148C65.3105 81.0572 64.5164 80.7575 63.8328 80.2769C62.7819 79.6795 62.0018 78.6998 61.6551 77.5417C61.534 77.0266 61.5234 76.4917 61.624 75.9722C61.7246 75.4527 61.9341 74.9604 62.2387 74.5278ZM63.4495 75.3292C63.311 75.5238 63.214 75.7449 63.1645 75.9787C63.1151 76.2125 63.1142 76.454 63.1621 76.6881C63.3146 77.2242 63.6507 77.6898 64.1116 78.0034L66.1238 74.9546C65.697 74.6603 65.1871 74.5107 64.669 74.5278C64.4165 74.5539 64.1738 74.6404 63.9616 74.7798C63.7494 74.9193 63.5738 75.1077 63.4495 75.3292Z" fill="#1D1D1B"/>
<path d="M73.44 62.0019C73.7111 61.7157 74.0362 61.486 74.3965 61.3261C74.7568 61.1661 75.1452 61.079 75.5393 61.0698C76.3921 61.1928 77.1637 61.6426 77.6909 62.3242L81.4539 66.3921L79.9992 67.7336L76.5149 63.9444C75.6438 63.0123 74.8773 62.8817 74.1717 63.535C73.9446 63.7055 73.7668 63.9332 73.6566 64.1949C73.5464 64.4566 73.5077 64.743 73.5445 65.0245C73.7086 65.6896 74.0592 66.294 74.555 66.7667L77.5602 70.0071L76.1055 71.3486L72.6212 67.5681C71.7501 66.636 70.9749 66.5054 70.2606 67.1674C70.0234 67.3435 69.8422 67.5843 69.7387 67.8609C69.6351 68.1375 69.6137 68.4381 69.6769 68.7266C69.9125 69.4273 70.3094 70.0628 70.8355 70.582L73.6578 73.6308L72.2118 74.9723L66.4365 68.7353L67.5515 67.6988L68.5184 68.3259L68.5968 68.2562C68.4829 67.7793 68.5257 67.2784 68.7187 66.8277C68.9236 66.374 69.2202 65.9677 69.5898 65.6343C69.9838 65.2439 70.46 64.9463 70.9835 64.7632C71.4473 64.6279 71.9423 64.6463 72.3947 64.8155L72.5079 64.711C72.3856 64.2173 72.4284 63.6971 72.6299 63.2301C72.8167 62.7715 73.092 62.3541 73.44 62.0019Z" fill="#1D1D1B"/>
<path d="M78.0054 55.0506C78.2397 54.9026 78.5124 54.8269 78.7894 54.8328C78.9396 54.8559 79.0818 54.9157 79.2033 55.0068C79.3249 55.098 79.4221 55.2178 79.4863 55.3555C79.5819 55.4767 79.6461 55.6195 79.6735 55.7714C79.7008 55.9234 79.6904 56.0797 79.6431 56.2266C79.5364 56.4846 79.3463 56.6994 79.103 56.8363C78.8707 56.988 78.596 57.0613 78.319 57.0454C78.169 57.0186 78.0275 56.9565 77.9063 56.864C77.7851 56.7716 77.6877 56.6517 77.6222 56.5141C77.5252 56.3936 77.46 56.2507 77.4326 56.0985C77.4052 55.9463 77.4164 55.7897 77.4653 55.643C77.5798 55.3945 77.7685 55.1875 78.0054 55.0506ZM80.6187 57.3241L85.0873 64.5454L83.4061 65.5907L78.9375 58.3607L80.6187 57.3241Z" fill="#1D1D1B"/>
<path d="M90.1127 62.1237C89.6461 62.3692 89.1345 62.5174 88.609 62.5593C88.0834 62.6013 87.5548 62.536 87.0552 62.3676C86.5162 62.116 86.0324 61.7602 85.6318 61.3206C85.2311 60.881 84.9214 60.3665 84.7207 59.8066C84.3205 59.0222 84.1172 58.1522 84.1284 57.2717C84.1594 56.5738 84.4093 55.9033 84.8426 55.3553C85.3125 54.7888 85.9094 54.3411 86.5848 54.0487C87.0178 53.8433 87.4741 53.6912 87.9437 53.5958C88.3137 53.5225 88.6902 53.4874 89.0674 53.4912L89.1893 55.1463C88.8508 55.1663 88.5135 55.2041 88.1789 55.2595C87.8634 55.3088 87.5559 55.3996 87.2642 55.5296C86.0099 56.1103 85.7747 57.2485 86.5587 58.9442C86.8156 59.6213 87.2827 60.1983 87.8914 60.5905C88.1467 60.7293 88.4327 60.802 88.7233 60.802C89.0139 60.802 89.2999 60.7293 89.5552 60.5905C89.9459 60.422 90.3076 60.1927 90.6266 59.9111C90.9134 59.6523 91.1678 59.3598 91.3845 59.04L92.0987 60.5905C91.8821 60.9002 91.6209 61.1761 91.3235 61.4094C90.9511 61.6968 90.5443 61.9367 90.1127 62.1237Z" fill="#1D1D1B"/>
<path d="M94.7557 51.183C95.6046 50.8852 96.5325 50.9038 97.3689 51.2352C97.7327 51.4296 98.0478 51.7037 98.2907 52.0371C98.5335 52.3704 98.6979 52.7544 98.7713 53.1603L100.252 58.6742L98.902 59.0314L98.2226 58.0035H98.1616C97.9634 58.4862 97.6667 58.9223 97.2905 59.284C96.8506 59.6466 96.3313 59.9003 95.7748 60.0244C95.1138 60.2304 94.4 60.1838 93.7713 59.8938C93.4464 59.7152 93.1658 59.466 92.9502 59.1644C92.7346 58.8629 92.5895 58.5168 92.5257 58.1516C92.4043 57.7859 92.3791 57.3951 92.4523 57.0168C92.5255 56.6385 92.6948 56.2853 92.9438 55.9913C93.6688 55.2773 94.5707 54.7692 95.5571 54.5192L96.9682 54.0924L96.855 53.6829C96.8219 53.4764 96.7449 53.2793 96.6292 53.1049C96.5135 52.9306 96.3618 52.7832 96.1842 52.6725C95.8179 52.5119 95.405 52.4933 95.0257 52.6202C94.6255 52.7281 94.2438 52.8954 93.8933 53.1167C93.5449 53.3432 93.2051 53.5871 92.8741 53.8485L91.9072 52.6725C92.2911 52.3357 92.7119 52.0435 93.1616 51.8014C93.6645 51.5283 94.2002 51.3204 94.7557 51.183ZM96.3149 55.5993C95.7022 55.7275 95.1396 56.03 94.6947 56.4704C94.5715 56.6353 94.4885 56.8267 94.4522 57.0293C94.4159 57.2319 94.4273 57.4402 94.4856 57.6376C94.5109 57.7995 94.5758 57.9526 94.6746 58.0834C94.7734 58.2141 94.903 58.3183 95.0518 58.3868C95.3647 58.497 95.7059 58.497 96.0187 58.3868C96.5385 58.2646 96.9947 57.9543 97.2992 57.5157C97.4495 57.2867 97.5456 57.0265 97.5804 56.7549C97.6151 56.4832 97.5874 56.2071 97.4996 55.9477L97.3079 55.2509L96.3149 55.5993Z" fill="#1D1D1B"/>
<path d="M104.312 58.1775L102.352 58.4301L100.862 46.6008L102.822 46.3569L104.312 58.1775Z" fill="#1D1D1B"/>
<path d="M112.831 49.528L112.448 58.021L110.479 57.9339L110.854 49.4409L112.831 49.528ZM111.96 46.2179C112.238 46.2178 112.507 46.3097 112.727 46.4792C112.842 46.5786 112.929 46.7066 112.98 46.8502C113.03 46.9939 113.042 47.1483 113.014 47.298C113.023 47.4504 112.995 47.6026 112.933 47.742C112.871 47.8814 112.776 48.0039 112.657 48.0994C112.42 48.2476 112.143 48.3176 111.865 48.2997C111.59 48.2929 111.324 48.1982 111.107 48.0297C110.995 47.9254 110.911 47.7956 110.861 47.6514C110.811 47.5073 110.796 47.3531 110.819 47.2022C110.809 47.0509 110.836 46.8994 110.899 46.7612C110.961 46.6229 111.056 46.5021 111.176 46.4095C111.416 46.2533 111.702 46.1855 111.986 46.2179H111.96Z" fill="#1D1D1B"/>
<path d="M120.68 50.4076C121.488 50.5126 122.226 50.9205 122.744 51.5488C122.973 51.9168 123.122 52.3286 123.182 52.7576C123.242 53.1866 123.211 53.6234 123.093 54.0401L122.065 59.4843L120.131 59.1184L121.081 54.0575C121.316 52.8031 120.924 52.0801 119.896 51.8885C119.593 51.7961 119.271 51.7878 118.964 51.8645C118.657 51.9412 118.377 52.1001 118.154 52.324C117.704 52.9162 117.419 53.6162 117.326 54.3536L116.551 58.439L114.608 58.0731L116.185 49.7195L117.683 50.007L117.753 51.1481H117.858C118.196 50.7724 118.644 50.5132 119.138 50.4076C119.647 50.303 120.171 50.303 120.68 50.4076Z" fill="#1D1D1B"/>
<path d="M126.498 61.2439C126.068 61.0901 125.681 60.8372 125.368 60.5057C125.055 60.1743 124.824 59.7736 124.695 59.3363C124.429 58.1992 124.564 57.0051 125.078 55.9565C125.437 54.8323 126.176 53.8683 127.168 53.23C127.575 53.0063 128.028 52.8789 128.491 52.8578C128.955 52.8367 129.417 52.9223 129.843 53.108C130.35 53.2903 130.798 53.6063 131.141 54.0227C131.408 54.3714 131.601 54.7718 131.707 55.1986H131.794C131.837 54.9752 131.893 54.7542 131.959 54.5366C132.034 54.2644 132.124 53.9968 132.229 53.7352L133.344 50.9739L135.174 51.7143L130.714 62.8206L129.294 62.2457L129.372 61.0784H129.303C128.931 61.3222 128.513 61.4854 128.074 61.5575C127.53 61.605 126.983 61.4963 126.498 61.2439ZM127.648 59.9896C127.904 60.1299 128.192 60.2034 128.484 60.2034C128.776 60.2034 129.064 60.1299 129.32 59.9896C129.846 59.5848 130.24 59.0331 130.452 58.4042L130.548 58.169C130.859 57.5152 130.991 56.791 130.932 56.0697C130.861 55.7669 130.711 55.4884 130.496 55.2632C130.282 55.0381 130.011 54.8744 129.712 54.7892C129.46 54.676 129.183 54.6325 128.909 54.6632C128.634 54.6938 128.373 54.7975 128.153 54.9634C127.591 55.4199 127.166 56.0228 126.925 56.7056C126.612 57.3551 126.5 58.0828 126.602 58.7962C126.661 59.0674 126.788 59.3191 126.971 59.5279C127.154 59.7366 127.386 59.8955 127.648 59.9896Z" fill="#1D1D1B"/>
<path d="M143.493 60.7562L138.824 67.8555L137.535 66.9844L137.909 65.9217L137.831 65.8695C137.371 66.0823 136.856 66.1433 136.359 66.0437C135.848 65.9478 135.362 65.7492 134.93 65.4601C134.226 65.0567 133.702 64.3991 133.467 63.6221C133.394 63.1971 133.412 62.7613 133.52 62.3438C133.628 61.9263 133.824 61.5365 134.094 61.2005L137.143 56.5576L138.789 57.6465L135.958 61.9583C135.261 63.0123 135.357 63.8311 136.228 64.4061C136.468 64.6034 136.755 64.7333 137.061 64.7823C137.368 64.8313 137.682 64.7976 137.97 64.6848C138.615 64.3074 139.152 63.7705 139.53 63.1256L141.812 59.6412L143.493 60.7562Z" fill="#1D1D1B"/>
<path d="M146.289 71.4096C146.046 71.699 145.735 71.9232 145.383 72.0616C145.032 72.2001 144.651 72.2484 144.276 72.2023C143.37 72.02 142.544 71.5567 141.916 70.8782C141.537 70.5356 141.192 70.1563 140.888 69.7458C140.637 69.3931 140.427 69.0133 140.261 68.6134L141.411 67.3939C141.596 67.8509 141.82 68.291 142.081 68.7092C142.321 69.1232 142.614 69.5039 142.952 69.8416C143.228 70.1446 143.585 70.3623 143.98 70.4688C144.113 70.4947 144.25 70.4858 144.378 70.4431C144.506 70.4004 144.621 70.3252 144.712 70.2249C144.823 70.1113 144.893 69.9644 144.912 69.8068C144.92 69.5701 144.884 69.334 144.808 69.1099C144.712 68.8051 144.546 68.3782 144.311 67.8382C144.086 67.3894 143.905 66.9197 143.771 66.4357C143.66 66.0685 143.642 65.6793 143.719 65.3033C143.824 64.906 144.034 64.5447 144.329 64.258C144.553 63.9976 144.841 63.8008 145.165 63.6876C145.49 63.5744 145.838 63.5488 146.175 63.6134C146.996 63.8059 147.744 64.2326 148.327 64.8416C148.69 65.1826 149.014 65.5624 149.294 65.974C149.571 66.3843 149.804 66.8222 149.991 67.2807L148.536 67.9078C148.371 67.5288 148.185 67.1595 147.979 66.8016C147.783 66.4606 147.54 66.1496 147.256 65.8782C146.628 65.2859 146.141 65.1639 145.801 65.5211C145.685 65.6411 145.617 65.7989 145.609 65.9653C145.62 66.2013 145.67 66.4339 145.757 66.6535C145.862 66.9497 146.036 67.3417 146.271 67.8382C146.476 68.2728 146.651 68.721 146.794 69.1796C146.907 69.5551 146.931 69.9518 146.864 70.3382C146.778 70.743 146.579 71.1148 146.289 71.4096Z" fill="#1D1D1B"/>
<path d="M148.755 76.0783C148.903 76.2685 149.072 76.441 149.26 76.5923C149.428 76.7375 149.606 76.8713 149.791 76.993L148.642 77.9163C148.393 77.7815 148.16 77.6209 147.945 77.4372C147.67 77.2133 147.422 76.9591 147.204 76.6794C146.918 76.3295 146.702 75.9271 146.568 75.4947C146.448 75.0809 146.473 74.6383 146.638 74.2403C146.878 73.7182 147.251 73.2678 147.718 72.9337L151.203 70.1637L150.488 69.2926L151.159 68.7525L152.483 69.3013L154.286 68.6567L155.053 69.6236L153.598 70.7909L155.114 72.6811L153.947 73.6132L152.44 71.7229L148.955 74.4843C148.823 74.5758 148.711 74.6933 148.625 74.8295C148.54 74.9658 148.483 75.118 148.459 75.2769C148.453 75.5719 148.558 75.8582 148.755 76.0783Z" fill="#1D1D1B"/>
<path d="M158.928 78.5C158.998 78.622 159.076 78.7526 159.146 78.892C159.215 79.0165 159.27 79.1478 159.311 79.284L157.656 80.0854C157.61 79.9666 157.558 79.8503 157.499 79.737C157.448 79.6163 157.386 79.4998 157.317 79.3885C157.1 79.0329 156.801 78.7342 156.445 78.5174C156.109 78.2907 155.71 78.1722 155.304 78.1777C154.83 78.1846 154.368 78.3266 153.972 78.5871L150.2 80.8781L149.181 79.1882L156.445 74.7805L157.229 76.0784L156.114 77.0802L156.167 77.1673C156.69 77.1433 157.212 77.2417 157.691 77.4547C158.207 77.6574 158.642 78.0249 158.928 78.5Z" fill="#1D1D1B"/>
<path d="M159.895 80.3552L160.714 82.3413L156.934 85.7385C156.703 85.9512 156.462 86.1518 156.211 86.3395C155.969 86.5222 155.712 86.6853 155.444 86.8273V86.8883C155.706 86.8274 155.993 86.7751 156.315 86.7315C156.638 86.688 156.96 86.6531 157.282 86.6357L162.335 86.3047L163.153 88.2733L152.875 88.613C152.073 88.6644 151.273 88.499 150.558 88.134C149.903 87.772 149.399 87.1882 149.138 86.4876C149.05 86.2812 148.977 86.0687 148.92 85.8517C148.873 85.6883 148.836 85.5226 148.807 85.3552L150.253 84.7542C150.253 84.8761 150.314 85.0068 150.357 85.1636C150.402 85.3295 150.457 85.4925 150.523 85.6514C150.598 85.8549 150.715 86.0409 150.864 86.1981C151.014 86.3553 151.194 86.4805 151.394 86.566C151.789 86.7231 152.215 86.7915 152.639 86.7664H153.371L159.895 80.3552Z" fill="#1D1D1B"/>
<defs>
<filter id="filter0_d_276_4899" x="0" y="0" width="220" height="220" filterUnits="userSpaceOnUse" color-interpolation-filters="sRGB">
<feFlood flood-opacity="0" result="BackgroundImageFix"/>
<feColorMatrix in="SourceAlpha" type="matrix" values="0 0 0 0 0 0 0 0 0 0 0 0 0 0 0 0 0 0 127 0" result="hardAlpha"/>
<feOffset dy="4"/>
<feGaussianBlur stdDeviation="20"/>
<feComposite in2="hardAlpha" operator="out"/>
<feColorMatrix type="matrix" values="0 0 0 0 0 0 0 0 0 0 0 0 0 0 0 0 0 0 0.25 0"/>
<feBlend mode="normal" in2="BackgroundImageFix" result="effect1_dropShadow_276_4899"/>
<feBlend mode="normal" in="SourceGraphic" in2="effect1_dropShadow_276_4899" result="shape"/>
</filter>
<filter id="filter1_d_276_4899" x="30" y="30" width="159.88" height="159.88" filterUnits="userSpaceOnUse" color-interpolation-filters="sRGB">
<feFlood flood-opacity="0" result="BackgroundImageFix"/>
<feColorMatrix in="SourceAlpha" type="matrix" values="0 0 0 0 0 0 0 0 0 0 0 0 0 0 0 0 0 0 127 0" result="hardAlpha"/>
<feOffset dy="4"/>
<feGaussianBlur stdDeviation="20"/>
<feComposite in2="hardAlpha" operator="out"/>
<feColorMatrix type="matrix" values="0 0 0 0 0 0 0 0 0 0 0 0 0 0 0 0 0 0 0.25 0"/>
<feBlend mode="normal" in2="BackgroundImageFix" result="effect1_dropShadow_276_4899"/>
<feBlend mode="normal" in="SourceGraphic" in2="effect1_dropShadow_276_4899" result="shape"/>
</filter>
<linearGradient id="paint0_linear_276_4899" x1="40" y1="106" x2="179.968" y2="106" gradientUnits="userSpaceOnUse">
<stop offset="0.3" stop-color="white"/>
<stop offset="0.77" stop-color="white"/>
</linearGradient>
<linearGradient id="paint1_linear_276_4899" x1="70" y1="105.94" x2="149.862" y2="105.94" gradientUnits="userSpaceOnUse">
<stop offset="0.3" stop-color="#0B327D"/>
<stop offset="0.77" stop-color="#0B327D"/>
</linearGradient>
<clipPath id="clip0_276_4899">
<rect width="35" height="39" fill="white" transform="translate(92.9219 86.4497)"/>
</clipPath>
</defs>
</svg>
