<svg width="412" height="472" viewBox="0 0 412 472" fill="none" xmlns="http://www.w3.org/2000/svg">
<path d="M217.454 387.679C127.946 434.246 42.34 429.154 16.0637 393.196C3.01737 350.354 50.4247 278.898 139.932 232.331C229.44 185.765 339.385 189.538 372.171 207.93C367.473 245.824 306.961 341.113 217.454 387.679Z" fill="#716E6E"/>
<path fill-rule="evenodd" clip-rule="evenodd" d="M93.0315 410.399C127.001 410.348 169.122 400.495 212.569 377.891C255.644 355.481 292.015 321.17 318.21 287.695C331.285 270.986 341.7 254.645 349.082 240.334C354.344 230.133 357.876 221.327 359.837 214.37C353.24 211.97 344.29 209.826 333.223 208.325C317.668 206.216 298.746 205.485 277.956 206.738C236.313 209.248 187.967 219.671 144.817 242.12C101.281 264.769 68.4118 293.265 48.1363 320.767C28.2235 347.777 21.8252 371.777 25.8377 388.113C36.5088 401.152 59.6677 410.448 93.0315 410.399ZM16.0637 393.196C3.01734 350.354 50.4247 278.898 139.932 232.331C229.44 185.765 339.385 189.538 372.171 207.93C367.473 245.824 306.961 341.113 217.454 387.679C127.946 434.246 42.34 429.154 16.0637 393.196Z" fill="white"/>
<path d="M191.77 285.769C144.608 376.334 71.6234 422.299 29.8995 408.232C-4.85357 380.779 -6.16051 294.481 41.001 203.916C88.1625 113.351 180.344 52.0518 217.533 47.9162C234.97 81.7087 238.931 195.204 191.77 285.769Z" fill="#B9B9B9"/>
<path fill-rule="evenodd" clip-rule="evenodd" d="M102.612 377.248C130.409 357.312 159.378 324.572 182.27 280.611C204.966 237.028 215.485 187.621 218.138 144.858C219.463 123.514 218.814 104.029 216.822 87.9827C215.402 76.5443 213.348 67.2628 211.047 60.4151C204.295 62.3129 195.759 65.7982 185.85 71.0504C171.923 78.4324 156.013 88.9146 139.687 102.117C106.985 128.562 73.2367 165.413 50.5008 209.074C27.5621 253.123 16.6447 295.716 15.4852 330.119C14.3464 363.906 22.5869 387.312 35.0504 398.344C51.1168 402.776 75.3093 396.828 102.612 377.248ZM29.8995 408.232C-4.85358 380.779 -6.16052 294.481 41.001 203.916C88.1625 113.351 180.344 52.0518 217.533 47.9162C234.97 81.7087 238.931 195.204 191.77 285.769C144.608 376.334 71.6234 422.299 29.8995 408.232Z" fill="white"/>
<path d="M128.813 222.361C128.813 324.932 85.5052 400.502 42.1974 408.083C-1.11032 400.502 -41.9434 324.932 -41.9434 222.361C-41.9434 119.79 11.2633 21.4781 42.1974 0C73.1316 21.4781 128.813 119.79 128.813 222.361Z" fill="#F9F9F9"/>
<path fill-rule="evenodd" clip-rule="evenodd" d="M92.152 345.87C107.53 314.944 118.054 272.15 118.054 222.361C118.054 172.999 104.624 124.334 87.3053 85.3043C78.6608 65.8236 69.1289 48.93 59.9922 35.7173C53.4791 26.2985 47.3982 19.0878 42.2175 14.145C37.1283 19.0572 31.1941 26.2263 24.8602 35.6135C15.9579 48.8072 6.72937 65.6893 -1.61544 85.1723C-18.3304 124.198 -31.1841 172.913 -31.1841 222.361C-31.1841 272.25 -21.2397 315.091 -6.4454 346.023C8.0842 376.401 26.1222 393.117 42.199 396.883C58.4226 393.095 77.0482 376.246 92.152 345.87ZM42.1974 408.083C-1.11032 400.503 -41.9434 324.932 -41.9434 222.361C-41.9434 119.79 11.2633 21.4781 42.1974 0C73.1316 21.4781 128.813 119.79 128.813 222.361C128.813 324.932 85.5052 400.503 42.1974 408.083Z" fill="white"/>
<path d="M42.1975 222.361C42.1975 324.932 42.1975 348.702 42.1975 408.083C-1.11032 400.502 -41.9434 324.932 -41.9434 222.361C-41.9434 119.79 11.2633 21.4781 42.1975 0C42.1975 41.6927 42.1975 119.79 42.1975 222.361Z" fill="#D2D1D1"/>
</svg>
