<svg width="147" height="44" viewBox="0 0 147 44" fill="none" xmlns="http://www.w3.org/2000/svg">
<path d="M52.0129 36.1398C43.4933 40.4808 35.345 40.0061 32.844 36.654C31.6022 32.6603 36.1146 25.9991 44.6342 21.6582C53.1538 17.3172 63.6187 17.6689 66.7394 19.3834C66.2922 22.9159 60.5325 31.7989 52.0129 36.1398Z" fill="#716E6E"/>
<path fill-rule="evenodd" clip-rule="evenodd" d="M40.17 38.2577C43.4033 38.253 47.4126 37.3344 51.548 35.2273C55.648 33.1383 59.1099 29.9398 61.6032 26.8192C62.8478 25.2616 63.8391 23.7382 64.5417 22.4042C65.0426 21.4532 65.3787 20.6323 65.5654 19.9838C64.9375 19.7601 64.0856 19.5602 63.0322 19.4203C61.5516 19.2237 59.7506 19.1555 57.7717 19.2723C53.808 19.5064 49.2063 20.4779 45.0991 22.5706C40.9553 24.682 37.8266 27.3385 35.8967 29.9022C34.0014 32.4201 33.3924 34.6573 33.7743 36.1802C34.79 37.3958 36.9943 38.2623 40.17 38.2577ZM32.844 36.654C31.6022 32.6603 36.1146 25.9991 44.6342 21.6582C53.1538 17.3172 63.6187 17.6689 66.7394 19.3834C66.2922 22.9159 60.5325 31.7989 52.0129 36.1398C43.4933 40.4808 35.345 40.0061 32.844 36.654Z" fill="white"/>
<path d="M49.5684 26.6397C45.0794 35.0823 38.1325 39.3671 34.161 38.0558C30.8531 35.4966 30.7287 27.4519 35.2177 19.0093C39.7067 10.5668 48.4808 4.85245 52.0206 4.46693C53.6803 7.61708 54.0574 18.1972 49.5684 26.6397Z" fill="#B9B9B9"/>
<path fill-rule="evenodd" clip-rule="evenodd" d="M41.082 35.1674C43.7279 33.309 46.4852 30.257 48.6641 26.1589C50.8244 22.096 51.8256 17.4903 52.0782 13.5039C52.2043 11.5142 52.1425 9.69776 51.9529 8.20195C51.8178 7.13566 51.6223 6.27043 51.4032 5.63208C50.7605 5.80899 49.948 6.1339 49.0049 6.62351C47.6793 7.31167 46.1649 8.28882 44.6109 9.51956C41.4982 11.9848 38.286 15.4201 36.1219 19.4901C33.9386 23.5965 32.8994 27.567 32.789 30.7741C32.6807 33.9237 33.465 36.1057 34.6513 37.134C36.1806 37.5472 38.4833 36.9927 41.082 35.1674ZM34.161 38.0558C30.8531 35.4966 30.7287 27.4519 35.2177 19.0093C39.7067 10.5668 48.4808 4.85245 52.0206 4.46693C53.6803 7.61708 54.0574 18.1972 49.5684 26.6397C45.0794 35.0823 38.1325 39.3671 34.161 38.0558Z" fill="white"/>
<path d="M25.8481 21.6584C34.3677 25.9994 38.7732 32.8705 37.5314 36.8642C35.0303 40.2163 26.989 40.481 18.4693 36.1401C9.94975 31.7991 4.08315 23.1261 3.63591 19.5936C6.75662 17.8791 17.3285 17.3175 25.8481 21.6584Z" fill="#575757"/>
<path fill-rule="evenodd" clip-rule="evenodd" d="M34.5226 29.9947C32.6183 27.3817 29.5186 24.678 25.3832 22.5709C21.2832 20.4819 16.6607 19.5612 12.6705 19.3783C10.6789 19.2869 8.86381 19.3804 7.37155 19.5961C6.30778 19.7498 5.44609 19.9604 4.81166 20.1905C4.99977 20.83 5.3388 21.6367 5.8448 22.5712C6.55598 23.8845 7.55942 25.3817 8.81709 26.9139C11.3363 29.9831 14.8271 33.1349 18.9343 35.2276C23.0781 37.339 27.0662 38.3087 30.2747 38.3631C33.4257 38.4165 35.5937 37.5942 36.6012 36.3901C36.9876 34.8539 36.393 32.5612 34.5226 29.9947ZM37.5314 36.8642C35.0303 40.2163 26.989 40.481 18.4693 36.1401C9.94975 31.7991 4.08315 23.1261 3.63591 19.5936C6.75662 17.8791 17.3285 17.3175 25.8481 21.6584C34.3677 25.9994 38.7732 32.8705 37.5314 36.8642Z" fill="white"/>
<path d="M35.3878 19.0091C39.8768 27.4516 39.5444 35.607 36.2365 38.1661C32.2651 39.4774 25.5261 35.082 21.0372 26.6395C16.5482 18.1969 16.7172 7.72741 18.377 4.57726C21.9167 4.96278 30.8989 10.5665 35.3878 19.0091Z" fill="#737373"/>
<path fill-rule="evenodd" clip-rule="evenodd" d="M37.7121 30.8132C37.651 27.5805 36.6626 23.5879 34.4836 19.4899C32.3233 15.427 29.0649 12.0214 25.9012 9.58289C24.3222 8.36574 22.7818 7.40118 21.4357 6.72193C20.4761 6.23773 19.6495 5.91596 18.9977 5.74062C18.785 6.37236 18.6 7.22761 18.4786 8.2833C18.3078 9.76707 18.2711 11.569 18.4224 13.5455C18.7256 17.5046 19.7773 22.0886 21.9414 26.1587C24.1248 30.265 26.8354 33.3468 29.4325 35.2317C31.983 37.0828 34.2306 37.6527 35.7465 37.2442C36.9442 36.2075 37.7721 33.9883 37.7121 30.8132ZM36.2365 38.1661C32.2651 39.4774 25.5261 35.082 21.0372 26.6395C16.5482 18.1969 16.7172 7.72741 18.377 4.57726C21.9167 4.96278 30.8989 10.5665 35.3878 19.0091C39.8768 27.4516 39.5444 35.607 36.2365 38.1661Z" fill="white"/>
<path d="M43.5764 20.7286C43.5764 30.2904 39.4542 37.3351 35.332 38.0418C31.2099 37.3351 27.3232 30.2904 27.3232 20.7286C27.3232 11.1669 32.3876 2.0022 35.332 0C38.2764 2.0022 43.5764 11.1669 43.5764 20.7286Z" fill="#F9F9F9"/>
<path fill-rule="evenodd" clip-rule="evenodd" d="M40.0869 32.2423C41.5506 29.3592 42.5523 25.37 42.5523 20.7286C42.5523 16.1271 41.274 11.5905 39.6255 7.95213C38.8027 6.13612 37.8955 4.56128 37.0258 3.32959C36.4059 2.45156 35.8271 1.77938 35.3339 1.3186C34.8495 1.77653 34.2847 2.44484 33.6818 3.31991C32.8345 4.54984 31.9561 6.1236 31.1618 7.93982C29.5708 11.5778 28.3473 16.119 28.3473 20.7286C28.3473 25.3794 29.2939 29.373 30.7021 32.2565C32.085 35.0883 33.8019 36.6466 35.3322 36.9977C36.8764 36.6446 38.6492 35.0739 40.0869 32.2423ZM35.332 38.0418C31.2099 37.3351 27.3232 30.2904 27.3232 20.7286C27.3232 11.1669 32.3876 2.0022 35.332 0C38.2764 2.0022 43.5764 11.1669 43.5764 20.7286C43.5764 30.2904 39.4542 37.3351 35.332 38.0418Z" fill="white"/>
<path d="M35.332 20.7286C35.332 30.2904 35.332 32.5063 35.332 38.0418C31.2099 37.3351 27.3232 30.2904 27.3232 20.7286C27.3232 11.1669 32.3876 2.0022 35.332 0C35.332 3.88662 35.332 11.1669 35.332 20.7286Z" fill="#D2D1D1"/>
<path d="M75.168 7.97575V3.23621H80.1738V7.97575H75.168ZM80.0673 38.9159H75.2745V12.9283H80.0673V38.9159Z" fill="white"/>
<path d="M92.8339 12.9283H94.6978C97.9285 12.9283 99.5438 14.5082 99.5438 17.6678V38.9159H94.751V18.3601C94.751 17.7211 94.6445 17.3128 94.4315 17.1353C94.2185 16.9223 93.7925 16.8158 93.1534 16.8158H91.2896C90.6505 16.8158 90.189 16.9578 89.905 17.2418C89.6565 17.5258 89.5322 18.0051 89.5322 18.6797V38.9159H84.7394V12.9283H89.5322V15.0052C89.9937 13.6206 91.0943 12.9283 92.8339 12.9283Z" fill="white"/>
<path d="M112.87 33.6971V29.3836C112.87 28.7445 112.763 28.3363 112.55 28.1587C112.337 27.9457 111.911 27.8392 111.272 27.8392H108.556C105.254 27.8392 103.604 26.2771 103.604 23.1529V17.6678C103.604 14.5082 105.254 12.9283 108.556 12.9283H112.444C115.781 12.9283 117.449 14.5082 117.449 17.6678V20.1707H112.763V18.1471C112.763 17.5081 112.657 17.0998 112.444 16.9223C112.231 16.7093 111.805 16.6028 111.166 16.6028H109.887C109.248 16.6028 108.822 16.7093 108.609 16.9223C108.396 17.0998 108.29 17.5081 108.29 18.1471V22.6204C108.29 23.2594 108.396 23.6855 108.609 23.8985C108.822 24.076 109.248 24.1647 109.887 24.1647H112.657C115.923 24.1647 117.556 25.7446 117.556 28.9043V34.2296C117.556 37.3538 115.905 38.9159 112.603 38.9159H108.663C105.361 38.9159 103.71 37.3538 103.71 34.2296V31.6735H108.396V33.6971C108.396 34.3361 108.503 34.7621 108.716 34.9752C108.929 35.1527 109.355 35.2414 109.994 35.2414H111.272C111.911 35.2414 112.337 35.1527 112.55 34.9752C112.763 34.7621 112.87 34.3361 112.87 33.6971Z" fill="white"/>
<path d="M126.296 12.9283H131.994C135.296 12.9283 136.947 14.5082 136.947 17.6678V34.2296C136.947 37.3538 135.296 38.9159 131.994 38.9159H126.296C123.03 38.9159 121.397 37.3538 121.397 34.2296V17.6678C121.397 14.5082 123.03 12.9283 126.296 12.9283ZM132.207 33.5373V18.3069C132.207 17.6678 132.101 17.2418 131.888 17.0288C131.675 16.8158 131.249 16.7093 130.61 16.7093H127.681C127.042 16.7093 126.616 16.8158 126.403 17.0288C126.225 17.2418 126.136 17.6678 126.136 18.3069V33.5373C126.136 34.1764 126.225 34.6024 126.403 34.8154C126.616 35.0284 127.042 35.1349 127.681 35.1349H130.61C131.249 35.1349 131.675 35.0284 131.888 34.8154C132.101 34.6024 132.207 34.1764 132.207 33.5373Z" fill="white"/>
<path d="M146.166 38.9159H141.373V3.28946H146.166V38.9159Z" fill="white"/>
</svg>
