<?xml version="1.0" encoding="utf-8"?><svg viewBox="0 0 502.66 502.66" xmlns="http://www.w3.org/2000/svg" xmlns:xlink="http://www.w3.org/1999/xlink"><style>:root>svg{display:none}:root>svg:target{display:block}</style><svg viewBox="0 0 13 23" id="arrow" xmlns="http://www.w3.org/2000/svg"><path fill-rule="evenodd" clip-rule="evenodd" d="M9.985 21.652L.44 12.107a1.5 1.5 0 010-2.122L9.985.44a1.5 1.5 0 012.122 2.122L3.62 11.046l8.486 8.485a1.5 1.5 0 01-2.122 2.122z"/></svg><svg viewBox="0 0 11 11" id="cross" xmlns="http://www.w3.org/2000/svg"><path d="M2.2 1.19l3.3 3.3L8.8 1.2a.67.67 0 01.5-.2.75.75 0 01.7.7.66.66 0 01-.2.48L6.49 5.5 9.8 8.82c.13.126.202.3.2.48a.75.75 0 01-.7.7.67.67 0 01-.5-.2L5.5 6.51 2.21 9.8a.67.67 0 01-.5.2.75.75 0 01-.71-.71.66.66 0 01.2-.48L4.51 5.5 1.19 2.18A.66.66 0 011 1.7a.75.75 0 01.7-.7.67.67 0 01.5.19z"/></svg><svg viewBox="0 0 24 22" id="discord" xmlns="http://www.w3.org/2000/svg"><path d="M10.068 13.112c0 .684.6 1.224 1.332 1.224.732 0 1.332-.552 1.332-1.224 0-.684-.6-1.224-1.332-1.224-.732-.012-1.332.54-1.332 1.224zm0-4.38c0 .684.6 1.224 1.332 1.224.732 0 1.332-.552 1.332-1.224 0-.684-.6-1.224-1.332-1.224-.732 0-1.332.54-1.332 1.224z"/><path d="M0 2.9v16.08a2.466 2.466 0 002.472 2.46h16.224a2.466 2.466 0 002.472-2.46V5.37l-2.22.636 1.428-1.536 1.344-1.45L24 .44H2.472A2.466 2.466 0 000 2.9zm15.672 4.63s-.516.432-.972.792c-.444-1.572-1.428-2.172-1.428-2.172.324.492.552.96.708 1.38.252.6.42 1.176.516 1.74a8.407 8.407 0 01-.012 3.108 10.073 10.073 0 01-.516 1.764 7.11 7.11 0 01-.408.877c-.024.036-.036.072-.06.107a.166.166 0 01-.036.048 4.21 4.21 0 01-.204.336s.96-.575 1.416-2.1c.456.36.996.805.996.805-.084 2.652-1.824 3.66-1.824 3.66-3.864 0-6.996-1.729-6.996-1.729-1.296-1.727-1.26-3.371-1.26-3.371l.144-.12c.624 2.16 1.572 3.155 1.572 3.155s-.144-.264-.348-.707c-.564-1.284-.72-2.304-.756-2.724-.012-.073-.024-.133-.024-.205A9.782 9.782 0 017.308 6.14s-.9.948-1.524 2.988l-.192-.168s-.036-1.644 1.26-3.372c0 0 3.132-1.728 6.996-1.728 0 0 1.74 1.02 1.824 3.672z"/></svg><svg viewBox="0 0 23 23" id="facebook" xmlns="http://www.w3.org/2000/svg"><path d="M0 11.5C0 17.852 5.148 23 11.5 23S23 17.852 23 11.5 17.852 0 11.5 0 0 5.148 0 11.5zm6.38-3.969v.189c.008.528.011 1.055.03 1.582.016.495.286.827.756.947.116.03.235.046.354.048.599.006 1.197.004 1.796.005.038 0 .076-.008.126-.012V7.613l2.745.354v2.335h4.475c.834 0 1.667-.001 2.5-.003v2.839c-.054-.005-.108-.014-.162-.014h-6.646c-.053 0-.106.004-.167.007v2.338H9.433v-2.346c-.634 0-1.247.013-1.86-.005a7.605 7.605 0 01-1.158-.109 3.03 3.03 0 01-1.717-.93c-.576-.622-.82-1.378-.855-2.204-.02-.527.01-1.055.027-1.582.01-.257.045-.512.069-.764l2.44.002z"/></svg><svg viewBox="0 0 25 31" id="file" xmlns="http://www.w3.org/2000/svg"><path d="M.34 27.474V3.457a.383.383 0 00.054-.101C.578 2.274 1.09 1.379 1.99.76 2.457.436 3.018.249 3.536 0h13.268c.091.09.184.178.272.27 2.467 2.604 4.937 5.208 7.408 7.812a1.187 1.187 0 01.34.872c-.009 2.608-.005 5.216-.005 7.823v10.038c0 2.527-2.053 4.197-4.162 4.186-5.418-.031-10.836-.005-16.254-.015-1.515 0-2.692-.684-3.468-1.983-.277-.463-.401-1.017-.595-1.529zM15.7 1.451H4.557c-1.625 0-2.712 1.1-2.713 2.742v22.528c0 1.663 1.083 2.757 2.73 2.757h15.98c1.662 0 2.759-1.096 2.76-2.766.002-5.64.002-11.279 0-16.919v-.33h-.383c-1.377 0-2.753.009-4.13-.008-1.581-.019-3.033-1.417-3.076-3.002-.04-1.535-.018-3.072-.025-4.608v-.394zm1.514 1.165c0 1.244-.012 2.395.003 3.543.015 1.064.755 1.784 1.82 1.79.984.008 1.967 0 2.95 0 .085-.004.169-.014.252-.028l-5.026-5.305z"/><path d="M13.385 19.123l2.095-2.255c.288-.31.573-.623.864-.93.333-.35.784-.389 1.1-.101.314.287.329.77-.004 1.13a1775.5 1775.5 0 01-4.234 4.567c-.434.466-.845.454-1.287-.022a2171.057 2171.057 0 01-4.188-4.526c-.357-.386-.359-.82-.013-1.152.298-.287.754-.252 1.097.115.916.977 1.823 1.961 2.735 2.946l.244.242c.007-.14.016-.246.016-.35V11.27a1.684 1.684 0 01.053-.478c.099-.334.473-.573.789-.528a.77.77 0 01.658.718c.008.11.007.222.007.332v7.782l.068.027zm-.805 5.193h6.058c.473 0 .804.29.821.7a.772.772 0 01-.697.805c-.08.006-.16.008-.24.005H6.618c-.284 0-.539-.05-.737-.269a.688.688 0 01-.145-.76c.124-.296.348-.485.697-.485h3.646l2.502.004z"/></svg><svg viewBox="0 0 69 69" id="hero-slide-i-1" xmlns="http://www.w3.org/2000/svg"><path d="M.005 33.876C.315 15.056 16.044-.63 35.71.019c18.469.622 33.596 16.066 33.285 35.11-.31 18.698-15.952 34.627-35.935 33.843C14.759 68.254-.303 52.994.005 33.876zm21.501-2.953c1.347-1.632 3.895-2.972 6.44-3.277 4.806-.578 8.663 1.153 11.23 5.226 2.532 4.013 2.488 8.225-.057 12.25-2.227 3.535-5.599 5.217-9.742 5.285-3.603.069-7.205.016-10.81 0h-.918v3.42h29.73c.647 0 .883.183.836.83-.046.6 0 1.21 0 2.027l7.26-4.557-7.272-4.545v2.791h-8.807l-.1-.168c.256-.211.526-.407.763-.637 4.355-4.228 5.662-11.129 3.154-16.656-3.406-7.514-11.82-10.85-19.495-7.772a1.759 1.759 0 01-1.244-.015 5.822 5.822 0 01-3.324-6.16 5.818 5.818 0 015.004-4.898 5.643 5.643 0 015.331 2.093l-1.129.683 3.674 2.282.445-4.234c-.202.034-.311.019-.395.072-.622.454-.999.23-1.478-.311-1.894-2.055-4.243-2.835-7.024-2.384-4.48.72-7.435 5.704-5.91 9.963a8.223 8.223 0 003.421 4.246c-.765.684-1.555 1.287-2.211 2.005-.405.439-.672.417-1.095.115-.51-.367-1.055-.68-1.705-1.094v8.499l7.609-3.659-2.18-1.42z"/></svg><svg viewBox="0 0 29 29" id="i-fb" xmlns="http://www.w3.org/2000/svg"><path d="M14.5 0C6.491 0 0 6.491 0 14.5S6.491 29 14.5 29 29 22.509 29 14.5 22.509 0 14.5 0zm5.004 8.044h-.238c-.665.01-1.33.014-1.995.038-.624.02-1.042.36-1.194.954a1.901 1.901 0 00-.06.446c-.007.755-.005 1.51-.006 2.264 0 .048.01.096.015.16h3.375c-.15 1.16-.296 2.3-.447 3.46H16.01v5.644c0 1.05.002 2.1.005 3.15h-3.58c.006-.067.018-.136.018-.204v-8.379c0-.067-.006-.134-.01-.21H9.496v-3.473h2.957c0-.8-.016-1.573.006-2.346.009-.49.055-.977.138-1.46a3.82 3.82 0 011.173-2.165c.784-.725 1.737-1.034 2.78-1.077.663-.026 1.33.011 1.994.034.323.012.645.057.963.087l-.003 3.077z"/></svg><svg viewBox="0 0 256 256" id="i-in" xmlns="http://www.w3.org/2000/svg"><g transform="matrix(2.81 0 0 2.81 1.407 1.407)"><path d="M45 0C20.147 0 0 20.147 0 45s20.147 45 45 45 45-20.147 45-45S69.853 0 45 0zm25 55.399C70 63.463 63.463 70 55.399 70H34.601C26.537 70 20 63.463 20 55.399V34.601C20 26.537 26.537 20 34.601 20h20.798C63.463 20 70 26.537 70 34.601v20.798z"/><circle cx="45.151" cy="45.151" r="13.081"/><circle cx="60.98" cy="29.32" r="2.95"/></g></svg><svg viewBox="0 0 256 256" id="i-ins2" xmlns="http://www.w3.org/2000/svg"><g transform="matrix(2.81 0 0 2.81 1.407 1.407)"><path d="M62.263 90H27.738C12.443 90 0 77.557 0 62.263V27.738C0 12.443 12.443 0 27.738 0h34.525C77.557 0 90 12.443 90 27.738v34.525C90 77.557 77.557 90 62.263 90zM27.738 7C16.303 7 7 16.303 7 27.738v34.525C7 73.697 16.303 83 27.738 83h34.525C73.697 83 83 73.697 83 62.263V27.738C83 16.303 73.697 7 62.263 7H27.738z"/><path d="M45.255 70.47c-13.904 0-25.215-11.312-25.215-25.215S31.352 20.04 45.255 20.04 70.47 31.352 70.47 45.255 59.159 70.47 45.255 70.47zm0-43.43c-10.044 0-18.215 8.171-18.215 18.215S35.211 63.47 45.255 63.47 63.47 55.299 63.47 45.255c.001-10.044-8.17-18.215-18.215-18.215z"/><circle cx="70.557" cy="19.937" r="4.897"/></g></svg><svg viewBox="0 0 256 256" id="i-lk" xmlns="http://www.w3.org/2000/svg"><path d="M127.857 1.407c-69.837 0-126.45 56.613-126.45 126.45s56.613 126.45 126.45 126.45 126.45-56.613 126.45-126.45-56.613-126.45-126.45-126.45zM89.042 197.983H59.917v-93.682h29.125v93.682zM74.482 91.501a16.874 16.874 0 01-16.875-16.88 16.88 16.88 0 0116.874-16.89 16.888 16.888 0 0116.874 16.89 16.888 16.888 0 01-16.874 16.88zm123.625 106.482h-29.103v-45.558c0-10.866-.188-24.84-15.132-24.84-15.152 0-17.464 11.844-17.464 24.059v46.34h-29.103V104.3h27.928v12.81h.396c3.887-7.367 13.387-15.131 27.55-15.131 29.485 0 34.928 19.397 34.928 44.623v51.38z"/></svg><svg viewBox="0 0 30 30" id="i-tg" xmlns="http://www.w3.org/2000/svg"><path d="M13.938 0h2.112c.481.065.966.111 1.444.197 3.821.69 6.974 2.536 9.34 5.618 2.873 3.739 3.78 7.963 2.76 12.556-.77 3.454-2.593 6.295-5.399 8.456-3.45 2.661-7.365 3.644-11.663 2.965-2.92-.462-5.487-1.722-7.667-3.732-2.48-2.286-4.023-5.094-4.63-8.423C.139 17.11.078 16.58 0 16.05v-2.113c.063-.47.11-.946.193-1.414.604-3.374 2.135-6.262 4.672-8.587A14.656 14.656 0 0112.411.23C12.917.139 13.43.072 13.938 0zm6.54 22.335c.512-.054.844-.325.956-.818.953-4.211 1.906-8.423 2.856-12.635.05-.177.06-.362.03-.543-.128-.547-.674-.758-1.324-.525l-13.36 4.819c-1.2.43-2.397.862-3.593 1.294-.26.093-.414.276-.409.543.006.28.166.47.45.54.057.013.111.033.168.048 1.302.356 2.605.716 3.912 1.064a.474.474 0 01.368.35c.487 1.458.98 2.913 1.479 4.366.227.665.84.823 1.35.348.663-.619 1.33-1.238 1.975-1.873.17-.165.278-.157.464-.03 1.34.922 2.687 1.836 4.039 2.743.193.132.424.207.639.31z"/></svg><svg viewBox="0 0 26 21" id="i-tw" xmlns="http://www.w3.org/2000/svg"><path d="M8.18 21c9.808 0 15.175-8.08 15.175-15.085 0-.227-.005-.46-.015-.687A10.798 10.798 0 0026 2.483c-.972.43-2.005.711-3.062.833A5.337 5.337 0 0025.284.384a10.762 10.762 0 01-3.386 1.287A5.369 5.369 0 0015.489.628a5.322 5.322 0 00-2.344 2.486 5.28 5.28 0 00-.34 3.391A15.221 15.221 0 016.717 4.9 15.134 15.134 0 011.812.969a5.281 5.281 0 00-.582 3.863 5.308 5.308 0 002.233 3.213 5.365 5.365 0 01-2.417-.661v.065a5.28 5.28 0 001.206 3.36 5.338 5.338 0 003.074 1.84 5.334 5.334 0 01-2.407.09 5.314 5.314 0 001.897 2.636 5.365 5.365 0 003.084 1.05A10.739 10.739 0 010 18.618 15.199 15.199 0 008.18 21z"/></svg><svg viewBox="0 0 502.664 502.664" id="icon" xmlns="http://www.w3.org/2000/svg"><path d="M153.821 358.226L0 274.337v-46.463l153.821-83.414v54.574L46.636 250.523l107.185 53.431v54.272zm26.273 29.358L282.103 115.08h32.227L212.084 387.584h-31.99zm168.749-29.358v-54.272l107.164-52.999-107.164-52.59v-53.927l153.821 83.522v46.183l-153.821 84.083z"/></svg><svg viewBox="0 0 28 22" id="mail" xmlns="http://www.w3.org/2000/svg"><path fill-rule="evenodd" clip-rule="evenodd" d="M3.333.333A2.663 2.663 0 00.68 3L.667 19c0 1.467 1.2 2.667 2.666 2.667h21.334c1.466 0 2.666-1.2 2.666-2.667V3c0-1.467-1.2-2.667-2.666-2.667H3.332zm10.667 12L3.333 5.667V3L14 9.667 24.666 3v2.667L14 12.333z"/></svg><svg viewBox="0 0 20 28" id="marker" xmlns="http://www.w3.org/2000/svg"><path fill-rule="evenodd" clip-rule="evenodd" d="M10 .667A9.327 9.327 0 00.667 10C.667 17 10 27.333 10 27.333S19.333 17 19.333 10A9.327 9.327 0 0010 .667zm0 12.666a3.335 3.335 0 010-6.666A3.335 3.335 0 0113.333 10 3.335 3.335 0 0110 13.333z"/></svg><svg viewBox="0 0 69 69" id="note-1" xmlns="http://www.w3.org/2000/svg"><path d="M.005 33.876C.315 15.056 16.044-.63 35.71.019c18.469.622 33.596 16.066 33.285 35.11-.31 18.698-15.952 34.627-35.935 33.843C14.759 68.254-.303 52.994.005 33.876zm21.501-2.953c1.347-1.632 3.895-2.972 6.44-3.277 4.806-.578 8.663 1.153 11.23 5.226 2.532 4.013 2.488 8.225-.057 12.25-2.227 3.535-5.599 5.217-9.742 5.285-3.603.069-7.205.016-10.81 0h-.918v3.42h29.73c.647 0 .883.183.836.83-.046.6 0 1.21 0 2.027l7.26-4.557-7.272-4.545v2.791h-8.807l-.1-.168c.256-.211.526-.407.763-.637 4.355-4.228 5.662-11.129 3.154-16.656-3.406-7.514-11.82-10.85-19.495-7.772a1.759 1.759 0 01-1.244-.015 5.822 5.822 0 01-3.324-6.16 5.818 5.818 0 015.004-4.898 5.643 5.643 0 015.331 2.093l-1.129.683 3.674 2.282.445-4.234c-.202.034-.311.019-.395.072-.622.454-.999.23-1.478-.311-1.894-2.055-4.243-2.835-7.024-2.384-4.48.72-7.435 5.704-5.91 9.963a8.223 8.223 0 003.421 4.246c-.765.684-1.555 1.287-2.211 2.005-.405.439-.672.417-1.095.115-.51-.367-1.055-.68-1.705-1.094v8.499l7.609-3.659-2.18-1.42z"/></svg><svg viewBox="0 0 17 17" id="phone" xmlns="http://www.w3.org/2000/svg"><path fill-rule="evenodd" clip-rule="evenodd" d="M3.419 7.357a14.307 14.307 0 006.224 6.224l2.078-2.078a.939.939 0 01.963-.226c1.058.35 2.2.538 3.372.538.519 0 .944.425.944.944v3.297a.947.947 0 01-.944.944C7.187 17 0 9.813 0 .944 0 .425.425 0 .944 0H4.25c.52 0 .944.425.944.944 0 1.181.19 2.314.539 3.372a.948.948 0 01-.236.963L3.419 7.357z"/></svg><svg viewBox="0 0 24 24" id="twitter" xmlns="http://www.w3.org/2000/svg"><path d="M21.75 16.45c0-9.055-7.504-14.008-14.008-14.008-.211 0-.427.004-.638.014A10 10 0 004.555 0c.4.897.66 1.85.773 2.826A4.95 4.95 0 002.606.661 9.898 9.898 0 013.8 3.787a4.93 4.93 0 004.49 8.394 13.984 13.984 0 01-5.14 10.146 4.93 4.93 0 006.57-1.523 4.93 4.93 0 01-.614 2.23h.06a4.922 4.922 0 004.829-3.95 4.89 4.89 0 01.084 2.221 4.934 4.934 0 003.422-4.597A9.875 9.875 0 0119.538 24a13.969 13.969 0 002.212-7.55z"/></svg></svg>