<svg width="53" height="60" viewBox="0 0 53 60" fill="none" xmlns="http://www.w3.org/2000/svg">
<path d="M17.2421 6.35787C17.2421 5.81716 17.2421 5.35749 17.2421 4.89903C17.2505 3.95671 17.531 3.67002 18.4504 3.66881C20.2028 3.66881 21.9552 3.66881 23.7375 3.66881C23.9725 2.64182 24.4279 1.76845 25.2059 1.09104C25.919 0.47412 26.7293 0.0652577 27.6882 0.0386453C28.8437 0.00719434 30.0016 -0.0169987 31.1559 0.0144523C33.1084 0.0700963 34.6475 1.21685 35.2864 3.10149C35.4446 3.57083 35.6639 3.68938 36.1254 3.68091C37.6992 3.64946 39.2754 3.66518 40.8504 3.67002C41.6331 3.67002 41.9616 4.00994 41.9735 4.81315C41.9795 5.25467 41.9735 5.69861 41.9807 6.14376C41.9908 6.20738 42.0045 6.27038 42.0215 6.33247C42.2109 6.34094 42.4194 6.35908 42.628 6.35908C45.0253 6.35908 47.4129 6.35908 49.8054 6.35908C51.7316 6.35908 52.9914 7.60744 52.9926 9.56345C52.999 25.3035 52.999 41.0431 52.9926 56.7823C52.9926 58.754 51.77 59.9818 49.8162 59.983C36.318 59.9886 22.8206 59.9943 9.32395 59.9999C7.12086 59.9999 6.07086 58.2471 6.10322 56.7339C6.1224 55.869 6.34295 54.9025 6.0337 54.167C5.74363 53.4726 4.87223 53.0323 4.27651 52.459C-1.98755 46.4409 -1.26957 35.9617 5.76521 30.886C6.11881 30.6308 6.22908 30.3731 6.22788 29.9497C6.2151 23.2071 6.2123 16.4645 6.21949 9.72192C6.21949 7.59172 7.44569 6.35908 9.56009 6.35787H17.2421ZM8.00546 55.3016C8.00546 55.7407 8.00546 56.2427 8.00546 56.7448C8.00546 57.7778 8.38782 58.1661 9.40067 58.1661H49.8342C50.8434 58.1661 51.2078 57.8032 51.2078 56.7956C51.2078 41.0757 51.2078 25.3563 51.2078 9.63724C51.2078 8.655 50.8003 8.25824 49.8186 8.25703C47.3862 8.25703 44.9541 8.25703 42.5225 8.25703C42.3511 8.25703 42.1797 8.2788 41.9771 8.29211C41.9771 8.79895 41.9771 9.25983 41.9771 9.72071C41.9771 10.7066 41.6787 11.0054 40.685 11.0078C38.6321 11.0078 36.5785 11.0078 34.524 11.0078H18.6134C17.5166 11.0078 17.2445 10.7259 17.2421 9.60821C17.2421 9.17274 17.2421 8.73726 17.2421 8.25461H9.58885C8.24758 8.25461 7.91076 8.60299 7.91076 9.9699C7.91076 16.2294 7.91076 22.489 7.91076 28.7485V29.3933C8.06711 29.3193 8.22715 29.2535 8.39022 29.1961C9.78782 28.8211 11.1675 28.2695 12.5854 28.1171C16.855 27.6574 20.5995 28.9868 23.7783 31.8985C23.9164 32.0363 24.0808 32.1444 24.2614 32.2163C24.4421 32.2882 24.6353 32.3225 24.8295 32.317C32.0269 32.3033 39.2243 32.3013 46.4217 32.311C46.6794 32.3027 46.937 32.3295 47.1876 32.3908C47.667 32.5251 47.8468 32.9049 47.8061 33.3658C47.7653 33.8267 47.498 34.146 47.0138 34.2126C46.8145 34.229 46.6143 34.2326 46.4145 34.2234H26.0533L28.2024 39.304L28.0658 39.4249H28.767C34.6475 39.4249 40.5288 39.4249 46.4109 39.4249C46.649 39.4129 46.8877 39.4304 47.1217 39.477C47.6191 39.5979 47.8492 39.9717 47.8109 40.4665C47.7725 40.9612 47.4849 41.2769 46.9718 41.3314C46.7931 41.3429 46.6139 41.3453 46.4349 41.3386H28.4781C28.266 43.1108 28.0634 44.8103 27.856 46.5486H46.442C46.6608 46.5343 46.8804 46.5456 47.0965 46.5825C47.5891 46.7034 47.8409 47.0554 47.8157 47.5502C47.7905 48.0449 47.5124 48.3727 47.0066 48.4453C46.8073 48.463 46.6071 48.4666 46.4073 48.4562C40.1672 48.4562 33.9271 48.4659 27.687 48.4405C27.1021 48.4405 26.8228 48.6256 26.5543 49.1336C23.7975 54.3412 17.7791 57.3326 12.0245 56.3226C10.688 56.0964 9.38269 55.6597 8.00546 55.3016ZM26.5052 42.1696C26.4896 35.421 20.9135 29.8215 14.1844 29.8832C7.49963 29.9449 1.83009 35.248 1.88883 42.3051C1.94516 49.1735 7.42172 54.6533 14.2827 54.6315C21.0298 54.6109 26.5267 49.0054 26.5052 42.1696ZM40.0497 5.57523H35.0718C33.993 5.57523 33.7965 5.40225 33.655 4.33049C33.4525 2.78577 32.5103 1.9257 30.9749 1.9003C30.0591 1.88579 29.1422 1.88337 28.2264 1.9003C27.889 1.89942 27.5536 1.95459 27.2339 2.0636C26.2223 2.44344 25.6889 3.22245 25.5822 4.29178C25.4779 5.3333 25.2394 5.56797 24.1906 5.57039H19.1647V9.07233H40.0461L40.0497 5.57523Z" fill="white"/>
<path d="M34.4812 17.9115C38.5669 17.9115 42.6527 17.9115 46.7384 17.9115C47.5906 17.9115 48.0725 18.5442 47.7177 19.2301C47.5978 19.4623 47.3078 19.6438 47.0548 19.7562C46.8499 19.847 46.585 19.8131 46.3477 19.8131C38.4151 19.8131 30.4825 19.8131 22.55 19.8131C22.3705 19.8192 22.1909 19.8155 22.0118 19.8022C21.4125 19.7369 21.0457 19.3643 21.0613 18.8466C21.0769 18.3289 21.5084 17.9164 22.1041 17.9115C23.4585 17.9019 24.8142 17.9115 26.1698 17.9115H34.4812Z" fill="white"/>
<path d="M34.4405 27.0032H22.5344C22.3151 27.0032 22.0957 27.0032 21.8776 26.9826C21.3514 26.9379 21.1033 26.6052 21.0601 26.1105C21.017 25.6157 21.3298 25.2238 21.838 25.1428C22.0366 25.1159 22.237 25.105 22.4373 25.1101H46.4208C46.5215 25.1101 46.621 25.1101 46.7205 25.1101C47.4145 25.1428 47.8484 25.5371 47.8244 26.1105C47.8004 26.6839 47.4133 26.9996 46.7013 27.0008C42.6139 27.0064 38.527 27.0072 34.4405 27.0032Z" fill="white"/>
<path d="M14.1524 19.813C13.5758 19.813 12.9969 19.836 12.4215 19.807C11.7563 19.7743 11.3775 19.3703 11.4099 18.7921C11.4422 18.2139 11.797 17.9187 12.4683 17.9139C13.603 17.9066 14.7373 17.9066 15.8712 17.9139C16.546 17.9139 16.884 18.2236 16.902 18.8102C16.92 19.3969 16.5928 19.7647 15.9431 19.8022C15.3438 19.8372 14.7445 19.8094 14.1524 19.8094V19.813Z" fill="white"/>
<path d="M14.1128 26.9936C13.5135 26.9936 12.9142 27.0129 12.3233 26.9936C11.7563 26.9706 11.4231 26.6186 11.4075 26.09C11.3919 25.5613 11.7168 25.1537 12.2729 25.1392C13.5243 25.1053 14.7765 25.1053 16.0295 25.1392C16.6096 25.1537 16.9057 25.5226 16.9033 26.073C16.9033 26.6464 16.5844 26.9766 15.9611 26.9996C15.3378 27.0226 14.7289 26.9996 14.1128 26.9996V26.9936Z" fill="white"/>
<path d="M12.0762 45.0741C13.2437 43.8899 14.3536 42.7649 15.4576 41.6423C16.7793 40.3045 18.103 38.9682 19.4286 37.6335C19.5621 37.4855 19.7135 37.355 19.8793 37.2452C20.0566 37.1273 20.2711 37.0801 20.4809 37.113C20.6907 37.1459 20.8809 37.2564 21.0144 37.4231C21.3345 37.7727 21.392 38.1839 21.0935 38.5734C20.8635 38.8508 20.6161 39.1131 20.3528 39.3585C17.8916 41.8464 15.428 44.3338 12.962 46.8209C12.2548 47.5346 11.8832 47.5261 11.1736 46.8051C9.93666 45.5531 8.69008 44.3096 7.46148 43.054C7.04436 42.6258 7.05394 42.1008 7.43151 41.7149C7.80908 41.329 8.3197 41.3327 8.7644 41.7222C8.88426 41.8274 8.99333 41.946 9.10481 42.0609L12.0762 45.0741Z" fill="white"/>
<path d="M27.0208 5.50884C27.0316 4.0004 28.2039 2.80889 29.6578 2.82462C31.0614 2.84034 32.2169 4.07056 32.2145 5.54634C32.2145 7.05114 31.041 8.2608 29.5919 8.25596C28.1427 8.25112 27.0112 7.03179 27.0208 5.50884ZM29.5991 6.35559C30.1037 6.31326 30.3278 5.98302 30.3266 5.54996C30.3254 5.11691 30.1169 4.75038 29.6195 4.75038C29.122 4.75038 28.9206 5.08909 28.9159 5.54271C28.9111 5.99633 29.1352 6.29148 29.5991 6.35196V6.35559Z" fill="white"/>
</svg>
