<svg width="71" height="72" viewBox="0 0 71 72" fill="none" xmlns="http://www.w3.org/2000/svg">
<path d="M0.0163163 31.674C0.361588 31.1239 0.846154 30.9225 1.49817 30.888C2.77404 30.8339 4.04694 30.6956 5.31985 30.5874C5.61622 29.5113 5.92891 28.4637 6.1823 27.4011C6.22083 27.2403 6.04449 26.9502 5.88593 26.8314C4.94347 26.1521 3.97285 25.5103 3.01853 24.8475C2.15609 24.2463 2.02569 23.7308 2.53693 22.8275C4.01878 20.2093 5.50658 17.5952 7.00029 14.985C7.50264 14.1073 8.01091 13.9525 8.90595 14.3838C9.94324 14.8858 10.9924 15.3908 12.0178 15.9229C12.3809 16.1107 12.6106 16.1002 12.9069 15.7726C13.4641 15.1398 14.0658 14.5446 14.6852 13.969C14.9815 13.7015 15.0112 13.488 14.8334 13.1348C14.2954 12.0707 13.7872 10.9901 13.2818 9.90946C12.8758 9.03924 13.027 8.5177 13.8553 8.02924C16.4713 6.48618 19.0922 4.95215 21.718 3.42713C22.496 2.97624 23.0265 3.1085 23.5511 3.869C24.2135 4.83091 24.8655 5.80032 25.4938 6.78628C25.7279 7.1545 25.9384 7.27925 26.3829 7.12144C27.1767 6.8596 27.9846 6.64432 28.8028 6.47666C29.1821 6.39099 29.3111 6.22416 29.3303 5.82588C29.3911 4.60396 29.4948 3.38354 29.5971 2.16463C29.6697 1.29591 30.0653 0.926178 30.9307 0.924675C33.9863 0.918663 37.0424 0.918663 40.0989 0.924675C40.9673 0.924675 41.3644 1.29741 41.4326 2.16463C41.5349 3.38354 41.6401 4.60396 41.6993 5.82588C41.7201 6.22266 41.8475 6.39099 42.2269 6.47516C43.0656 6.66454 43.9058 6.86443 44.7208 7.13497C45.115 7.26572 45.2928 7.16653 45.4988 6.8479C46.1301 5.86495 46.7821 4.89403 47.4385 3.92912C48.0076 3.09347 48.5173 2.97173 49.3783 3.45719C49.9799 3.79836 50.583 4.13653 51.1654 4.50927C51.8041 4.91658 51.9834 5.59592 51.65 6.18358C51.3166 6.77125 50.6453 6.9516 49.9799 6.61193C49.6524 6.4451 49.3398 6.24971 48.9426 6.02727C48.2476 7.06433 47.5615 8.09086 46.868 9.11589C46.2886 9.97559 45.9197 10.0718 44.9298 9.78321C43.4909 9.36538 42.0402 8.98813 40.5909 8.61089C39.6929 8.37793 39.4054 8.04727 39.3551 7.11843C39.2898 5.99571 39.2157 4.87449 39.1387 3.75327C39.1191 3.61988 39.0894 3.48822 39.0498 3.35949H31.8939C31.8109 4.56187 31.7117 5.75223 31.6524 6.94409C31.5961 8.07282 31.3456 8.38244 30.2906 8.64996C28.8383 9.01869 27.3916 9.40847 25.9502 9.81928C25.0922 10.0628 24.701 9.95154 24.1912 9.19554C23.4963 8.16601 22.8102 7.13196 22.0678 6.01976L15.8203 9.67499C16.3656 10.8082 16.9035 11.9174 17.4325 13.0296C17.8993 14.0111 17.8208 14.3057 17.0532 15.0632C16.006 16.1092 14.9682 17.1723 13.9398 18.2525C13.2315 18.9934 12.9292 19.0716 11.9941 18.6132C10.8916 18.0736 9.79358 17.5265 8.66292 16.9599L5.04127 23.2949C6.043 23.9833 7.03435 24.6612 8.02127 25.345C8.96521 25.9973 9.04969 26.34 8.73998 27.4161C8.34482 28.7778 7.98817 30.149 7.67007 31.5297C7.39593 32.6946 7.0966 32.9621 5.91853 33.0222C4.76565 33.0823 3.61572 33.1815 2.42579 33.2657V40.5777C3.59497 40.6618 4.76565 40.7625 5.93928 40.8241C7.08771 40.8858 7.38259 41.1413 7.65377 42.2625C8.00497 43.7129 8.38581 45.1557 8.78294 46.5941C9.02597 47.4763 8.93113 47.8671 8.1902 48.3841C7.1529 49.1025 6.11561 49.8104 5.04572 50.5499L8.65106 56.8789C9.82468 56.3003 10.9628 55.7682 12.0742 55.1836C12.7765 54.8138 13.3115 54.9341 13.8524 55.5022C14.946 56.652 16.0648 57.7762 17.1969 58.8869C17.7274 59.4069 17.8741 59.939 17.5288 60.6258C16.9524 61.7801 16.41 62.9524 15.8336 64.1548L22.0781 67.8161L24.0045 64.9078C24.7455 63.7926 25.0329 63.728 26.2792 64.1067C27.5699 64.499 28.8798 64.8357 30.1942 65.1468C31.3234 65.4128 31.599 65.7344 31.6613 66.9293C31.7363 68.3752 31.8351 69.82 31.9576 71.2639C32.0184 71.9778 31.8213 72.5324 31.2167 72.9172H30.3276C29.7867 72.5685 29.5763 72.0725 29.5481 71.4142C29.4904 70.1201 29.3629 68.8291 29.2636 67.523C28.2752 67.2524 27.2942 67.021 26.3399 66.7069C25.922 66.5686 25.7235 66.6618 25.4997 67.0075C24.8586 68.0095 24.1982 69.0024 23.5185 69.9864C23.0176 70.7123 22.4708 70.8581 21.7403 70.4372C19.0729 68.8872 16.4125 67.3261 13.759 65.754C13.0181 65.3121 12.8699 64.771 13.2389 63.9775C13.7427 62.8968 14.2569 61.8207 14.7933 60.7551C14.9756 60.3944 14.986 60.1539 14.6555 59.8533C14.0317 59.2897 13.4449 58.6795 12.8773 58.0497C12.6165 57.7627 12.415 57.698 12.0593 57.8844C11.0561 58.4089 10.0322 58.8959 9.01412 59.3874C7.99609 59.8789 7.51892 59.7556 6.94841 58.7591C5.47841 56.1931 4.01237 53.625 2.55028 51.0549C2.00792 50.1005 2.12498 49.588 3.00817 48.9718C3.96248 48.3075 4.93457 47.6657 5.8711 46.9848C6.03114 46.8691 6.20452 46.576 6.16747 46.4152C5.91259 45.3526 5.60289 44.311 5.30504 43.2304C4.03065 43.1282 2.75773 42.9914 1.48185 42.9298C0.832801 42.9028 0.349717 42.6908 0 42.1453L0.0163163 31.674Z" fill="white"/>
<path d="M35.0725 72.9216C34.6042 72.5638 34.2041 72.1565 34.3493 71.4952C34.4946 70.8339 34.9065 70.5213 35.5659 70.5228C36.7233 70.5228 37.8791 70.5228 39.1224 70.5228C39.2083 69.2889 39.3091 68.1 39.3684 66.9157C39.4262 65.7584 39.684 65.4548 40.7909 65.1782C42.2209 64.8235 43.645 64.4373 45.0631 64.0345C45.933 63.788 46.3197 63.8932 46.8265 64.6432C47.5334 65.6953 48.2313 66.7473 48.9589 67.831L55.199 64.1742C54.6581 63.0455 54.1217 61.9378 53.5912 60.8256C53.12 59.8367 53.197 59.5481 53.9616 58.7921C55.0375 57.731 56.094 56.6473 57.1432 55.5562C57.7967 54.8768 58.1034 54.7972 58.9659 55.2135C60.0936 55.7591 61.2183 56.3137 62.3741 56.8818L65.978 50.5618C64.9689 49.8659 63.9805 49.1821 62.9891 48.5012C62.0496 47.8564 61.9696 47.5288 62.2852 46.4271C62.6745 45.0654 63.0286 43.6932 63.3477 42.3105C63.61 41.1742 63.9301 40.8887 65.1126 40.83C66.2655 40.7729 67.4169 40.6797 68.6068 40.5911V33.2656C67.4599 33.1829 66.3129 33.0777 65.163 33.0251C63.9316 32.968 63.6352 32.708 63.3551 31.5101C63.0276 30.1063 62.6586 28.7116 62.2689 27.3243C61.9963 26.3534 62.0926 25.9822 62.9076 25.4215C63.9212 24.7227 64.9363 24.0253 65.9913 23.3008L62.3889 16.9748L59.1556 18.5635C58.0694 19.0955 57.8382 19.0144 56.9831 18.1201C55.977 17.059 54.9293 16.0295 53.892 15.0029C53.2133 14.3341 53.1333 14.029 53.5438 13.1573C54.0609 12.0556 54.5914 10.9584 55.1131 9.85073C55.1329 9.79323 55.1468 9.73379 55.1545 9.67338C54.8078 9.46146 54.4373 9.26306 54.098 9.02259C53.523 8.61228 53.3778 7.94646 53.7112 7.37984C54.0446 6.81322 54.6892 6.61783 55.3146 6.95149C55.9903 7.3107 56.6482 7.70298 57.2973 8.11028C57.9893 8.55065 58.142 9.08571 57.7922 9.84021C57.2815 10.9424 56.753 12.0401 56.2067 13.1332C56.0318 13.4819 56.0585 13.6968 56.3474 13.9689C56.9654 14.5415 57.5625 15.1412 58.1257 15.7724C58.4087 16.0881 58.6295 16.1392 59.0059 15.9423C60.0536 15.3922 61.1175 14.8752 62.1844 14.3642C62.9995 13.9749 63.527 14.1282 63.9864 14.9248C65.5245 17.5971 67.0518 20.2764 68.5683 22.9627C68.9891 23.7142 68.8543 24.2582 68.14 24.7662C67.1739 25.4546 66.1943 26.1254 65.2015 26.7787C64.8607 27.0012 64.7569 27.1936 64.8948 27.6234C65.1532 28.4289 65.3655 29.2489 65.5305 30.0793C65.6179 30.5031 65.8016 30.6309 66.221 30.6504C67.3769 30.706 68.5297 30.8172 69.6841 30.9119C70.6473 30.9901 71.0178 31.3718 71.0178 32.3232C71.0178 35.3963 71.0178 38.4709 71.0178 41.547C71.0178 42.4593 70.6577 42.85 69.7404 42.9312C68.586 43.0334 67.4332 43.1401 66.2773 43.1897C65.8328 43.2092 65.6283 43.328 65.5364 43.7909C65.3733 44.6214 65.162 45.4415 64.9037 46.2468C64.7762 46.639 64.8503 46.8269 65.1733 47.0388C66.144 47.6776 67.0998 48.3389 68.0526 49.0062C68.8987 49.5984 69.0188 50.1289 68.4972 51.0397C67.0242 53.6359 65.5453 56.2285 64.0605 58.8176C63.5181 59.7645 63.0424 59.8998 62.0407 59.4188C61.039 58.9379 59.9987 58.4314 58.994 57.9053C58.6458 57.7235 58.4339 57.7641 58.1686 58.0556C57.6026 58.6794 57.0143 59.2896 56.3904 59.8592C56.0718 60.1493 56.0377 60.3777 56.2274 60.752C56.7564 61.795 57.2529 62.8561 57.7493 63.9082C58.1657 64.7935 58.0338 65.3165 57.2188 65.799C54.583 67.359 51.9409 68.9071 49.2923 70.4431C48.5514 70.8685 48.0165 70.7272 47.5141 70.0013C46.8354 69.0213 46.1725 68.0294 45.5255 67.0254C45.3032 66.6782 45.1105 66.5745 44.6882 66.7248C43.8747 66.9998 43.0197 67.1441 42.2017 67.4071C42.0849 67.4611 41.982 67.5419 41.9013 67.6431C41.8205 67.7443 41.7641 67.8632 41.7364 67.9903C41.6089 69.1566 41.5052 70.3274 41.4696 71.4997C41.4686 71.7843 41.3971 72.064 41.2617 72.3133C41.1263 72.5625 40.9313 72.7732 40.6946 72.9261L35.0725 72.9216Z" fill="white"/>
<path d="M12.9055 36.8742C13.0537 31.7746 14.5726 27.2026 17.6 23.1476C17.7284 22.9647 17.869 22.7909 18.0209 22.6275C18.5069 22.1421 19.1159 22.1015 19.6168 22.5073C19.7383 22.5952 19.8413 22.7067 19.92 22.8353C19.9987 22.9639 20.0515 23.107 20.0754 23.2564C20.0992 23.4058 20.0936 23.5585 20.0589 23.7057C20.0242 23.8529 19.9611 23.9917 19.8732 24.114C19.5768 24.5979 19.2004 25.0383 18.8789 25.5117C10.7865 37.4168 17.5704 54.184 31.5754 56.8984C42.7441 59.0626 53.1497 51.8859 55.3043 40.534C57.3329 29.8493 50.0718 18.9918 39.5537 16.9658C33.5038 15.7985 28.0318 17.1061 23.1377 20.8886C22.6516 21.2658 22.1567 21.4732 21.5818 21.102C21.1135 20.8014 20.8838 20.3265 21.0631 19.8185C21.226 19.4336 21.4881 19.1003 21.8218 18.8536C25.1293 16.2654 28.8488 14.7054 33.0231 14.2605C38.8854 13.6367 44.263 15.012 48.9338 18.6462C55.6155 23.851 58.7022 30.8202 57.8412 39.3376C56.8039 49.5248 49.4732 57.4469 39.5937 59.3753C27.6766 61.7034 15.7359 53.4986 13.479 41.3937C13.2019 39.9042 13.0937 38.3817 12.9055 36.8742Z" fill="white"/>
<path d="M32.6807 44.7544C32.8407 44.0736 32.9252 43.3942 33.1697 42.781C33.3366 42.3603 33.6376 42.0084 34.0248 41.7815C34.4886 41.5501 34.9746 41.7815 35.3258 42.2174C37.2522 44.562 39.1786 46.8961 41.0917 49.2498C41.717 50.0193 41.5229 50.8775 40.6294 51.2728C37.9265 52.4662 35.2152 53.64 32.4955 54.7943C31.4834 55.2211 30.6521 54.5132 30.7988 53.41C30.8654 52.905 31.1366 52.2903 30.9469 51.9266C30.7706 51.5929 30.0786 51.5644 29.6459 51.3374C28.6649 50.8234 27.6809 50.3079 26.7414 49.7202C26.0361 49.2799 25.9086 48.593 26.2969 47.9918C26.6851 47.3906 27.3609 47.2508 28.0396 47.7123C29.4479 48.677 31.013 49.3822 32.6629 49.7954C33.5639 50.0223 33.7002 50.2884 33.7639 51.62L38.2865 49.6661L35.0828 45.7464C35.0117 45.7809 34.9479 45.7945 34.9435 45.817C34.6471 47.5935 33.9595 47.7619 32.4006 47.2809C26.5147 45.4668 23.3228 38.8913 25.5693 33.0748C25.8153 32.436 25.7857 32.0392 25.2596 31.6154C24.8817 31.3148 24.5794 30.909 24.1897 30.4957C23.3655 31.9322 22.8371 33.5234 22.6367 35.1729C22.1996 38.5366 22.9761 41.6057 24.8299 44.4147C25.3263 45.1662 25.2359 45.8275 24.6328 46.2604C24.0297 46.6932 23.3628 46.5234 22.8219 45.7509C19.2314 40.6092 19.2284 33.2431 22.8219 28.0879C23.4651 27.1636 24.1556 27.0884 24.9647 27.8865C25.9709 28.8815 26.9593 29.8945 27.9492 30.906C28.6901 31.6575 28.7345 31.9972 28.2455 32.9561C25.9783 37.3733 27.8365 42.7344 32.2925 44.6267C32.3962 44.6657 32.5133 44.7048 32.6807 44.7544Z" fill="white"/>
<path d="M37.2583 22.2323L32.7431 24.1862L35.9617 28.1224C36.0343 28.0683 36.0936 28.0488 36.098 28.0202C36.3618 26.3565 37.0212 26.0829 38.5772 26.5594C44.5046 28.3765 47.7128 34.9249 45.4545 40.7895C45.204 41.4388 45.2766 41.8176 45.776 42.2474C46.142 42.563 46.4147 42.9884 46.8133 43.4603C48.1277 40.9969 48.6671 38.6027 48.4893 36.0567C48.3324 33.6791 47.5432 31.3891 46.2057 29.43C45.7019 28.6786 45.8042 28.0187 46.4117 27.5889C47.0193 27.159 47.6802 27.3334 48.2196 28.1089C51.8042 33.2686 51.8042 40.6152 48.2196 45.7704C47.5824 46.6872 46.8859 46.7548 46.0768 45.9537C45.0766 44.9558 44.0867 43.9443 43.0968 42.9343C42.3559 42.1723 42.307 41.8551 42.8004 40.8872C45.0647 36.4579 43.2154 31.1179 38.7639 29.2196C38.6527 29.173 38.5357 29.143 38.3653 29.0859C38.2082 29.7381 38.0348 30.3589 37.9207 30.9901C37.8125 31.5628 37.5325 32.0587 36.9723 32.0693C36.5441 32.0693 35.9706 31.8709 35.6994 31.5522C33.7523 29.2662 31.857 26.9321 29.9617 24.5995C29.3156 23.8044 29.529 22.9462 30.4699 22.5404C33.1373 21.3726 35.7898 20.1973 38.4719 19.0941C38.8528 18.9363 39.5196 18.9934 39.8056 19.2444C40.0916 19.4954 40.2428 20.1341 40.185 20.567C40.0101 21.9061 39.9805 21.8565 41.1793 22.4081C42.184 22.8752 43.1603 23.4027 44.103 23.9878C45.0099 24.5439 45.1966 25.2322 44.7357 25.898C44.2749 26.5639 43.6836 26.5083 42.7856 26.0288C41.5083 25.351 40.2057 24.6912 38.8498 24.2057C37.4524 23.7052 37.3472 23.7157 37.2583 22.2323Z" fill="white"/>
</svg>
