<svg width="76" height="77" viewBox="0 0 76 77" fill="none" xmlns="http://www.w3.org/2000/svg">
<path d="M40.7976 0.999023C41.8143 1.1477 42.84 1.25624 43.8478 1.45398C45.4666 1.77364 47.0854 2.1052 48.6804 2.52002C48.9949 2.59662 49.2905 2.73664 49.5491 2.93151C49.8076 3.12639 50.0237 3.372 50.184 3.65332C50.3443 3.93463 50.4455 4.24572 50.4814 4.56753C50.5173 4.88934 50.4872 5.21509 50.3928 5.52483C50.0316 6.76631 48.7175 7.47402 47.3886 7.10084C43.2562 5.93965 39.054 5.47428 34.7803 5.9114C27.9143 6.61763 21.796 9.166 16.5368 13.6427C10.6786 18.6339 6.87471 24.9082 5.43431 32.4775C3.435 42.9921 5.91445 52.4347 12.8295 60.6091C17.7468 66.424 24.0301 70.1246 31.5101 71.5356C41.963 73.519 51.3694 71.0658 59.5168 64.2102C65.3646 59.2993 69.005 52.9997 70.5375 45.4988C71.6004 40.295 71.364 35.1418 69.9801 30.0243C69.8315 29.4905 69.7274 28.8943 69.8136 28.362C69.9949 27.2663 70.927 26.5392 72.0002 26.4961C73.1641 26.4485 74.1452 27.0908 74.4306 28.2594C74.8765 30.0778 75.3567 31.9006 75.6094 33.7502C76.4656 40.023 75.9617 46.2095 73.6279 52.1091C68.3673 65.4145 58.7275 73.7212 44.6268 76.3603C24.4939 80.1263 4.98985 66.8849 0.790553 46.831C0.476907 45.3442 0.355023 43.8054 0.137997 42.2918C0.102868 42.1273 0.0566832 41.9654 -0.000244141 41.8071V36.1677C0.161782 35.0021 0.297043 33.8319 0.493258 32.6722C1.78352 25.2383 4.94228 18.7112 10.0914 13.1952C16.0998 6.74995 23.4534 2.79507 32.1805 1.4406C33.172 1.29192 34.1664 1.15068 35.1534 1.00497L40.7976 0.999023Z" fill="white"/>
<path d="M62.7618 0.999155C63.9509 1.49872 64.5128 2.36552 64.5797 3.68431C64.7046 6.12563 64.9617 8.55952 65.1253 10.9993C65.1639 11.5837 65.3571 11.8037 65.9547 11.8424C68.5664 12.0133 71.1752 12.223 73.784 12.4371C74.2204 12.4583 74.6413 12.6059 74.9955 12.8619C75.3496 13.118 75.6218 13.4714 75.7788 13.8793C76.1564 14.7714 76.0434 15.6411 75.3834 16.3652C74.6848 17.1309 73.9326 17.852 73.1998 18.585C71.1559 20.6323 69.0971 22.6633 67.0725 24.7284C66.4259 25.3886 65.6782 25.6889 64.7789 25.7692C61.143 26.1082 57.5056 26.4576 53.8741 26.8427C53.553 26.8768 53.2126 27.14 52.9659 27.3943C48.5857 31.7555 44.2125 36.1227 39.8462 40.4959C38.7775 41.5634 37.4069 41.663 36.408 40.768C35.936 40.358 35.6461 39.7774 35.6021 39.1536C35.558 38.5299 35.7634 37.9143 36.1731 37.442C36.3486 37.2354 36.5477 37.048 36.7395 36.8562C40.753 32.8344 44.7516 28.7859 48.8201 24.8132C49.7491 23.9077 50.2129 22.971 50.3066 21.6909C50.5489 18.4675 50.9012 15.2516 51.2103 12.0267C51.2703 11.2334 51.62 10.4898 52.1929 9.93777C54.8819 7.2779 57.5442 4.58531 60.2199 1.92543C60.5766 1.57157 61.0166 1.30097 61.418 0.990234L62.7618 0.999155ZM55.041 21.9258C57.9129 21.6285 60.703 21.3549 63.4901 21.0441C63.8197 21.0008 64.128 20.857 64.3731 20.6323C65.5132 19.538 66.6192 18.4021 67.734 17.287C67.8589 17.1606 67.957 17.0075 68.1339 16.7815C66.4229 16.6536 64.8324 16.5258 63.2389 16.4202C61.6038 16.3102 60.7119 15.4954 60.5633 13.9209C60.483 13.0615 60.4488 12.1977 60.3819 11.3369C60.318 10.5251 60.2333 9.71475 60.1485 8.71563C58.7156 10.1608 57.4253 11.4513 56.1544 12.7597C56.0176 12.9293 55.9367 13.137 55.9225 13.3544C55.6267 16.166 55.3398 18.9864 55.041 21.9258Z" fill="white"/>
<path d="M38.275 12.6082C40.258 12.9263 42.455 13.2252 44.6267 13.6489C46.1533 13.9463 46.9323 15.2279 46.5889 16.6017C46.2455 17.9755 44.9671 18.655 43.4524 18.2699C32.6011 15.5609 21.8376 21.1483 17.9118 31.5187C13.1967 43.9736 21.2192 57.9242 34.3344 60.0801C45.9289 61.9847 56.6508 54.6221 58.9935 43.0949C59.6336 39.9089 59.5272 36.6179 58.6829 33.4798C58.3098 32.0525 58.9802 30.7694 60.2466 30.3947C61.6023 29.9933 63.01 30.7441 63.2776 32.222C63.6774 34.4239 64.1353 36.6556 64.159 38.8784C64.278 49.9505 57.2023 59.9537 46.7806 63.6647C31.5933 69.0737 15.0771 59.5419 12.1978 43.7209C10.9788 37.0225 12.411 30.1126 16.1917 24.4509C19.9723 18.7892 25.8054 14.8193 32.4584 13.3798C34.2809 12.9828 36.1687 12.8788 38.275 12.6082Z" fill="white"/>
<path d="M37.9048 24.6882C38.596 24.7522 39.1951 24.7537 39.7703 24.8726C40.3688 24.9929 40.8981 25.3388 41.2487 25.8386C41.5992 26.3384 41.7442 26.9539 41.6537 27.5577C41.5426 28.1715 41.2028 28.7203 40.7028 29.0932C40.2028 29.466 39.58 29.6351 38.9602 29.5664C36.7551 29.3352 34.5389 29.8856 32.6981 31.1217C30.8573 32.3578 29.5088 34.201 28.8878 36.3298C28.5016 37.6422 28.4048 39.0228 28.6042 40.3762C28.8035 41.7296 29.2943 43.0235 30.0426 44.1687C30.7909 45.3138 31.7788 46.2828 32.9381 47.0087C34.0974 47.7345 35.4005 48.2 36.7572 48.3729C42.4698 49.0895 47.2696 44.873 47.4688 38.963C47.5104 37.7423 48.3934 36.7328 49.5275 36.6257C50.7836 36.4993 52.0382 37.2963 52.1542 38.4872C52.2459 39.4953 52.1959 40.5112 52.0055 41.5054C50.629 48.8234 44.145 53.7789 36.7483 53.2109C30.2435 52.7114 24.7079 47.46 23.8725 40.982C22.8706 33.2789 27.7715 26.4635 35.4209 24.9573C36.2682 24.7908 37.1393 24.767 37.9048 24.6882Z" fill="white"/>
</svg>
