<svg width="64" height="64" viewBox="0 0 64 64" fill="none" xmlns="http://www.w3.org/2000/svg">
<path d="M57.7982 0H63.9907V14.4405H63.1941C59.3241 14.4405 55.4541 14.4405 51.5842 14.4405C51.3436 14.4405 51.0265 14.4589 50.8733 14.6028C49.7656 15.6501 48.6916 16.7311 47.6039 17.8045C49.3298 20.5107 50.3418 23.6097 50.5454 26.8124H52.4467C54.4629 26.8124 55.7314 28.0894 55.7314 30.1167C55.7314 35.0164 55.7314 39.9162 55.7314 44.8159C55.7314 45.1421 55.6839 45.4391 56.1619 45.5065C60.8883 46.1695 64.7874 50.8059 63.8651 56.3304C63.0837 61.0066 58.2823 64.5711 53.6003 63.9173C51.3007 63.6179 49.1922 62.482 47.6779 60.7267C46.1635 58.9714 45.3495 56.7199 45.3916 54.4026C45.5034 50.1444 48.8326 46.1771 53.0519 45.531C53.5314 45.4575 53.6892 45.3151 53.6846 44.8159C53.6601 42.0874 53.6723 39.3588 53.6723 36.6287C53.6723 34.4851 53.6723 32.3323 53.6723 30.184C53.6723 29.4062 53.3491 28.9453 52.6995 28.8978C51.9993 28.8488 51.2931 28.8871 50.5837 28.8871C50.023 35.2568 47.1044 40.1566 41.7759 43.6783C42.879 44.4285 43.4735 45.4253 43.3356 46.7483C43.1946 48.1018 42.3443 48.9271 41.134 49.4278C41.6166 51.4107 40.8965 52.7658 39.0642 53.562C39.0949 53.7151 39.1163 53.8376 39.1439 53.9601C39.4396 55.2386 38.9416 56.5968 37.7972 57.2383C37.2518 57.5446 37.0634 57.8768 37.1522 58.4464C37.1622 58.5749 37.1622 58.7039 37.1522 58.8323C37.146 59.8522 36.8375 60.8475 36.2655 61.6922C35.6935 62.5369 34.8838 63.1933 33.9387 63.5782C32.9936 63.9631 31.9556 64.0594 30.9557 63.8549C29.9559 63.6503 29.0392 63.1541 28.3215 62.429C27.1586 61.2531 26.7189 59.8168 26.8384 58.1953C26.8675 57.7834 26.7496 57.5507 26.3574 57.3501C25.9407 57.1429 25.5812 56.8368 25.3103 56.4586C25.0395 56.0803 24.8656 55.6415 24.8039 55.1804C24.7196 54.6445 24.7885 54.0857 24.7885 53.4961C23.0267 52.7367 22.3878 51.3341 22.8474 49.4064C21.608 48.9195 20.8037 48.085 20.6551 46.7575C20.5065 45.4299 21.1254 44.4224 22.2285 43.6584C19.7104 42.0946 17.593 39.9642 16.0451 37.4372C15.9425 37.2703 15.6315 37.1493 15.4154 37.1463C13.8037 37.1233 12.1981 37.1279 10.5787 37.1356C9.67943 37.1356 9.29182 37.5337 9.29029 38.4447C9.29029 41.9899 9.29029 45.5351 9.29029 49.0802C9.29029 49.2043 9.30254 49.3283 9.31174 49.5136C9.98737 49.5136 10.6278 49.4891 11.2651 49.5228C11.6267 49.5411 11.8013 49.4049 11.9499 49.0925C12.3544 48.2412 12.7665 47.3914 13.2215 46.5645C13.4636 46.1158 13.849 45.761 14.3163 45.5567C14.7837 45.3525 15.306 45.3105 15.8 45.4376C16.3032 45.5659 16.7487 45.8596 17.0649 46.2714C17.3811 46.6832 17.5496 47.1893 17.5435 47.7083C17.5435 48.3024 17.5435 48.8965 17.5435 49.4799C19.5351 49.6897 20.6382 50.9023 20.6397 52.8286C20.6397 55.4714 20.6397 58.1142 20.6397 60.757C20.6397 62.6403 19.3252 63.951 17.4393 63.951C12.6879 63.951 7.9385 63.951 3.19118 63.951C2.89206 63.9505 2.59395 63.9161 2.30259 63.8484C1.09227 63.5682 0.479447 62.6648 -8.53976e-05 61.6328V51.8333C0.04128 51.7904 0.10103 51.7552 0.120947 51.7047C0.767473 50.1352 1.68824 49.5136 3.37656 49.5136H7.22048V48.7618C7.22048 45.2829 7.22048 41.8041 7.22048 38.3253C7.22048 36.3547 8.50741 35.0746 10.4868 35.0731H14.6678C14.1944 33.0075 13.7286 30.9772 13.2476 28.8825C12.6884 28.8825 12.0219 28.8825 11.3616 28.8825C10.6469 28.8941 9.95057 28.6555 9.39324 28.2081C8.83592 27.7607 8.45265 27.1327 8.30977 26.4327C8.22091 25.9993 8.25462 25.5354 8.25462 25.0868C8.25462 22.9196 8.25462 20.7525 8.25462 18.5854C8.12202 18.5347 7.98644 18.4923 7.84862 18.4583C4.78452 17.9377 2.50482 16.2963 1.06316 13.5723C0.572903 12.6444 0.344627 11.5818 -0.00927734 10.5758V8.00191C0.0424862 7.91293 0.0841108 7.81843 0.114819 7.72018C0.880845 3.92287 3.15748 1.48371 6.82828 0.315421C7.20976 0.194459 7.5943 0.110244 7.98957 0.00918667H10.5711C10.6816 0.0632871 10.7971 0.106863 10.9158 0.139337C14.9175 0.837552 17.9632 4.06833 18.5362 8.23159C19.0556 12.0059 16.851 16.0222 13.2752 17.6575C12.3559 18.0816 11.3448 18.3266 10.3183 18.6727C10.3183 21.0016 10.303 23.4055 10.329 25.8079C10.329 26.3959 10.7258 26.771 11.3126 26.8109C11.9928 26.8568 12.6792 26.8216 13.3579 26.8216C13.963 18.2133 19.9059 12.156 26.1061 10.2497C34.0728 7.7998 40.8353 9.92813 46.4441 16.0972C47.3511 15.1785 48.2826 14.2598 49.1788 13.3013C49.3823 13.0721 49.5017 12.7805 49.5174 12.4745C49.5435 9.94038 49.5327 7.40476 49.5327 4.87066V4.10508H53.6693V2.05637H57.7828L57.7982 0ZM39.2205 45.3932C39.2205 44.721 39.271 44.1177 39.2067 43.5282C39.1393 42.902 39.3768 42.5881 39.9206 42.288C46.1668 38.8658 49.5358 31.7872 48.2305 24.8969C46.5452 16.0161 38.3196 10.1976 29.4 11.5757C20.0193 13.0242 13.7133 22.3414 15.918 31.5391C17.0746 36.3776 19.8814 39.979 24.2247 42.3982C24.43 42.513 24.7349 42.7044 24.7472 42.8713C24.8008 43.6966 24.7717 44.5281 24.7717 45.384C24.4285 45.384 24.1727 45.384 23.9153 45.384C23.2105 45.407 22.7371 45.8097 22.7203 46.3915C22.7034 46.9734 23.1952 47.422 23.9337 47.4465C24.0409 47.4465 24.1481 47.4465 24.2569 47.4465H39.7307C39.9243 47.4547 40.1182 47.4506 40.3113 47.4342C40.5751 47.4215 40.8236 47.307 41.0047 47.1149C41.1857 46.9228 41.2852 46.6681 41.2823 46.4042C41.2793 46.1403 41.1741 45.8878 40.9887 45.6998C40.8034 45.5119 40.5523 45.403 40.2883 45.3962C39.9635 45.3626 39.6403 45.3932 39.2205 45.3932ZM9.28416 16.5015C13.2215 16.5015 16.52 13.2064 16.5109 9.27279C16.5017 5.3392 13.2583 2.09924 9.32706 2.06708C5.39581 2.03493 2.08351 5.3193 2.06819 9.2636C2.05287 13.2079 5.34065 16.4953 9.28416 16.5015ZM54.6866 61.887C58.6193 61.9008 61.924 58.6041 61.9224 54.6675C61.9209 50.7308 58.6791 47.4924 54.7463 47.4526C50.8135 47.4128 47.5135 50.688 47.4798 54.6384C47.4461 58.5888 50.7415 61.8732 54.6866 61.887ZM15.4828 51.5745C15.4828 50.3603 15.492 49.2073 15.4737 48.0528C15.4737 47.8737 15.3373 47.6961 15.2653 47.5169C15.1215 47.6235 14.9945 47.751 14.8884 47.8951C14.3675 48.9042 13.8451 49.9132 13.3701 50.9452C13.1557 51.4046 12.8983 51.5944 12.359 51.5898C9.37302 51.5577 6.38398 51.5715 3.39801 51.5761C2.4512 51.5761 2.06819 51.9589 2.06665 52.9051C2.06053 55.4571 2.06053 58.0126 2.06665 60.5717C2.06665 61.4827 2.4558 61.887 3.34592 61.8885C8.00949 61.8885 12.6726 61.8885 17.3351 61.8885C18.1593 61.8885 18.5725 61.4802 18.5745 60.6636C18.5847 58.0432 18.5847 55.4229 18.5745 52.8025C18.5745 51.9849 18.1593 51.5929 17.3336 51.5776C16.7376 51.5669 16.1416 51.5745 15.4828 51.5745ZM31.9861 49.512H28.3092C27.4941 49.512 26.676 49.4937 25.8579 49.512C25.2144 49.5335 24.7579 50.0051 24.7747 50.5609C24.7916 51.1167 25.2344 51.5133 25.8472 51.5638C26.0172 51.5776 26.1904 51.5638 26.362 51.5638H35.8392C36.6129 51.5638 37.3881 51.5837 38.1603 51.5531C38.4327 51.5521 38.6942 51.4459 38.89 51.2567C39.0859 51.0675 39.201 50.81 39.2113 50.5379C39.2113 50.0081 38.7731 49.5626 38.1741 49.5059C38.004 49.4891 37.8309 49.5059 37.6578 49.5059L31.9861 49.512ZM61.8841 12.3474V2.11302H59.8925V12.3474H61.8841ZM28.9236 57.7911C28.7964 59.2916 29.0492 60.5885 30.4004 61.4123C31.5143 62.0922 32.6587 62.0523 33.7281 61.325C34.9736 60.4768 35.2065 59.2136 35.0564 57.7911H28.9236ZM31.931 55.7026C33.2194 55.7026 34.5079 55.7026 35.7979 55.7026C36.6436 55.7026 37.1599 55.2937 37.1461 54.6552C37.1323 54.0168 36.6328 53.6416 35.8285 53.6401C33.2751 53.6401 30.7191 53.6401 28.1606 53.6401C27.3563 53.6401 26.8553 54.0367 26.843 54.6552C26.8308 55.2738 27.3471 55.6995 28.1928 55.7026C29.4353 55.7056 30.6854 55.7026 31.931 55.7026ZM55.7774 4.1556V12.3275H57.7691V4.1556H55.7774ZM51.6408 6.21963V12.3443H53.6233V6.21963H51.6408Z" fill="white"/>
<path d="M45.4114 24.0104C45.4114 26.4955 45.4114 28.9439 45.3976 31.3907C45.3827 31.4759 45.3483 31.5564 45.297 31.626C45.2457 31.6957 45.1789 31.7524 45.1019 31.7919C44.7087 31.9616 44.3055 32.1073 43.8947 32.2283C43.3952 32.3814 43.2681 32.6769 43.4933 33.1577C43.7185 33.6385 44.1429 34.2081 44.0662 34.6674C43.9942 35.1023 43.3906 35.4529 43.0122 35.8326C41.7528 37.0943 40.4736 38.3407 39.2403 39.6254C38.8894 39.9913 38.6091 40.0434 38.2 39.7785C37.9304 39.6054 37.6194 39.5013 37.3329 39.3543C36.8334 39.0986 36.5347 39.2579 36.3661 39.7769C36.2129 40.2654 36.0184 40.7431 35.8315 41.2576C33.371 41.2576 30.9289 41.2576 28.4776 41.2423C28.3844 41.2225 28.2968 41.1819 28.2215 41.1236C28.1461 41.0653 28.085 40.9907 28.0425 40.9054C27.8648 40.518 27.7545 40.1 27.612 39.6958C27.4481 39.2364 27.1524 39.1155 26.7096 39.3406L26.6514 39.3666C25.1898 40.0311 25.1898 40.0311 24.073 38.9072C22.7661 37.6011 21.4685 36.2859 20.1432 34.9966C19.8629 34.7225 19.8077 34.5036 20.0023 34.1667C20.1969 33.8299 20.3562 33.4333 20.5324 33.0673C20.7239 32.6723 20.5645 32.4212 20.206 32.2497C20.1478 32.2221 20.082 32.2145 20.0207 32.1915C18.5867 31.6525 18.5867 31.6525 18.5867 30.1351V24.0104L20.1279 23.4669C20.5753 23.3061 20.707 23.0244 20.5094 22.5727C20.2811 22.0536 19.8537 21.4779 19.9425 21.0078C20.0314 20.5377 20.6549 20.1963 21.0502 19.8012C22.2942 18.5533 23.5567 17.3238 24.7792 16.0529C25.1132 15.7054 25.3798 15.664 25.7705 15.8998C26.0769 16.0882 26.4262 16.2168 26.7525 16.3806C27.1417 16.5751 27.4052 16.4464 27.5798 16.0744C27.6059 16.0162 27.612 15.9503 27.635 15.8891C28.1712 14.4421 28.1727 14.4421 29.7507 14.4421H35.8299C36.0199 14.9704 36.2038 15.4711 36.3784 15.9733C36.5531 16.4755 36.8503 16.5689 37.3237 16.3515C38.8098 15.664 38.8128 15.6701 39.9512 16.8109C41.2427 18.1016 42.5265 19.4031 43.8349 20.6771C44.1321 20.9665 44.1934 21.2053 43.9881 21.5606C43.7935 21.8928 43.6526 22.2557 43.4795 22.5987C43.2665 23.0228 43.4105 23.3015 43.8272 23.4562C44.3436 23.646 44.869 23.8206 45.4114 24.0104ZM22.3157 34.13L25.6862 37.4986C26.0539 37.3255 26.4522 37.007 26.8644 36.981C27.2765 36.955 27.6763 37.275 28.0992 37.3669C28.8943 37.5399 29.3524 37.9916 29.5271 38.7878C29.5641 38.8849 29.6247 38.9714 29.7032 39.0395C29.7818 39.1076 29.876 39.1553 29.9775 39.1782C31.3318 39.2089 32.6846 39.2043 34.039 39.1782C34.1244 39.1649 34.2052 39.1307 34.2741 39.0786C34.3431 39.0265 34.3981 38.9582 34.4342 38.8797C34.5645 37.8951 35.2952 37.6088 36.0751 37.2459C36.7522 36.9305 37.3007 36.8922 37.9043 37.3087C38.2307 37.5353 38.4574 37.4388 38.7194 37.1648C39.5681 36.2828 40.4307 35.4131 41.3239 34.5709C41.6303 34.28 41.69 34.0396 41.4449 33.6997C41.0496 33.147 40.9853 32.5804 41.4097 32.0016C41.4822 31.8953 41.5313 31.7747 41.5537 31.6479C41.6992 30.9222 42.1113 30.4797 42.8605 30.3725C43.2941 30.3112 43.3707 30.0341 43.3615 29.636C43.3385 28.4554 43.3278 27.2734 43.3615 26.0944C43.3768 25.6197 43.2267 25.3655 42.7732 25.2828C42.1497 25.1711 41.8632 24.7944 41.5859 24.211C41.1262 23.2479 40.9393 22.3905 41.6732 21.5728L38.321 18.218C38.2322 18.2396 38.1466 18.273 38.0667 18.3175C37.3696 18.8244 36.671 18.858 35.9602 18.3512C35.9234 18.3278 35.8822 18.3122 35.8391 18.3053C35.1068 18.1522 34.6135 17.7525 34.5139 16.9686C34.4603 16.5598 34.1983 16.4908 33.8275 16.497C32.6019 16.5169 31.3763 16.5138 30.1506 16.497C29.8074 16.497 29.5592 16.5444 29.5026 16.9349C29.383 17.7602 28.7947 18.0465 28.0931 18.3681C27.327 18.7218 26.6866 18.8274 25.9604 18.3436C25.8379 18.2609 25.4778 18.3696 25.3369 18.4967C24.4652 19.3251 23.6516 20.2162 22.763 21.0247C22.3555 21.3937 22.3264 21.7076 22.6098 22.1072C22.786 22.3235 22.8822 22.5939 22.8822 22.8728C22.8822 23.1517 22.786 23.4221 22.6098 23.6384C22.5345 23.7437 22.4823 23.8637 22.4566 23.9905C22.3188 24.7776 21.8591 25.2323 21.0778 25.3548C20.6902 25.4161 20.6335 25.661 20.6381 25.9994C20.6549 27.2014 20.6703 28.4049 20.6381 29.6054C20.6228 30.0815 20.7744 30.3327 21.231 30.4092C21.8607 30.5164 22.1364 30.9084 22.4137 31.481C22.8642 32.4472 23.0495 33.3077 22.3157 34.13Z" fill="white"/>
<path d="M12.6287 5.48169L14.055 6.88731L7.24814 13.7026L4.53027 10.9939L5.97653 9.51021L7.17766 10.9434L12.6287 5.48169Z" fill="white"/>
<path d="M52.58 59.0649L49.9158 56.3976L51.4248 55.0441L52.4437 56.3517L58.0173 50.769L59.3839 52.265L52.58 59.0649Z" fill="white"/>
<path d="M16.4833 53.6829V55.6734H4.18091V53.6829H16.4833Z" fill="white"/>
<path d="M12.353 59.8015H4.17334V57.8003H12.353V59.8015Z" fill="white"/>
<path d="M16.4865 57.811V59.7908H14.5024V57.811H16.4865Z" fill="white"/>
<path d="M32.0397 19.6006C33.1258 19.603 34.2007 19.8202 35.2025 20.2397C36.2042 20.6592 37.1129 21.2727 37.8763 22.0449C38.6397 22.8171 39.2425 23.7326 39.6502 24.7388C40.0579 25.7449 40.2622 26.8218 40.2515 27.9072C40.2438 32.4624 36.5363 36.1112 31.9233 36.1036C27.3761 36.1036 23.7314 32.3813 23.739 27.7648C23.7482 23.2494 27.4604 19.596 32.0397 19.6006ZM38.1909 27.8582C38.1909 24.4896 35.3673 21.6585 31.9922 21.6646C28.6401 21.6646 25.8425 24.4529 25.8119 27.8107C25.7813 31.1686 28.591 34.0166 31.9723 34.0319C35.3535 34.0472 38.1786 31.2329 38.1848 27.8582H38.1909Z" fill="white"/>
<path d="M31.9845 23.7256C32.8009 23.7235 33.5996 23.9634 34.2795 24.415C34.9594 24.8665 35.4901 25.5095 35.8044 26.2625C36.1187 27.0155 36.2025 27.8448 36.0452 28.6454C35.8879 29.446 35.4966 30.182 34.9207 30.7604C34.3449 31.3387 33.6103 31.7333 32.81 31.8944C32.0097 32.0555 31.1796 31.9757 30.4246 31.6653C29.6697 31.3548 29.0238 30.8275 28.5687 30.1501C28.1136 29.4728 27.8697 28.6757 27.8679 27.8598C27.8624 27.3171 27.965 26.7786 28.1697 26.2759C28.3743 25.7731 28.677 25.3161 29.0601 24.9313C29.4432 24.5466 29.8991 24.2419 30.4011 24.0349C30.9032 23.8279 31.4414 23.7228 31.9845 23.7256ZM32.006 25.7912C31.5984 25.7891 31.1994 25.9078 30.8594 26.1323C30.5193 26.3569 30.2535 26.6771 30.0956 27.0526C29.9377 27.4281 29.8948 27.842 29.9722 28.2419C30.0496 28.6418 30.244 29.0097 30.5306 29.2992C30.8173 29.5887 31.1834 29.7868 31.5827 29.8683C31.982 29.9499 32.3966 29.9113 32.7739 29.7573C33.1512 29.6034 33.4744 29.3412 33.7026 29.0037C33.9308 28.6662 34.0537 28.2687 34.0558 27.8613C34.0421 27.3203 33.8224 26.8048 33.4415 26.4202C33.0606 26.0355 32.5472 25.8105 32.006 25.7912Z" fill="white"/>
</svg>
