<svg width="78" height="78" viewBox="0 0 78 78" fill="none" xmlns="http://www.w3.org/2000/svg">
<path d="M78.0025 39.5991C77.8224 39.9654 77.5663 40.289 77.2512 40.5484C76.9361 40.8077 76.5692 40.9968 76.1752 41.103C74.2476 41.6043 72.3025 42.0631 70.3524 42.4741C69.6833 42.5753 69.0462 42.8282 68.49 43.2136C61.4715 48.5158 54.438 53.8031 47.3895 59.0753C46.1362 60.0127 45.4995 61.1808 45.5321 62.7675C45.5797 65.0008 45.5321 67.2342 45.5472 69.4676C45.5813 70.2324 45.4037 70.9919 45.034 71.6624C44.6643 72.3328 44.1167 72.8883 43.4517 73.2676C41.2108 74.6545 38.9766 76.0515 36.749 77.4586C35.794 78.0627 34.8114 78.2231 33.8113 77.6441C32.8112 77.065 32.4728 76.1852 32.4753 75.0823C32.4753 70.9465 32.4603 66.8106 32.4904 62.6722C32.5142 61.9873 32.3661 61.3073 32.0596 60.6943C31.7531 60.0813 31.298 59.5549 30.7357 59.163C23.5544 53.7738 16.393 48.3596 9.17909 43.0181C8.54743 42.5518 7.56484 42.5594 6.74268 42.3538C5.12844 41.9477 3.48411 41.6445 1.90246 41.1181C0.280695 40.5766 0.0200073 40.0478 0.0200073 38.3433C0.0200073 35.195 0.0576018 32.0492 -4.97305e-05 28.9035C-0.0201024 27.8206 0.401014 27.0812 1.34098 26.7628C2.98531 26.2064 4.64968 25.5847 6.35416 25.3466C10.2218 24.7927 14.1095 24.4643 17.9922 24.0632C18.8721 23.973 19.7469 23.9279 20.7345 23.8527C20.7495 23.5619 20.7796 23.2712 20.7796 22.9804C20.7796 17.0172 20.8372 11.0516 20.7545 5.08838C20.7219 2.68205 21.4213 0.889839 23.7875 0H54.2425C56.6463 0.902372 57.3106 2.73469 57.2755 5.15856C57.1877 11.0917 57.2454 17.0247 57.2479 22.9553C57.2479 23.2486 57.273 23.5419 57.2855 23.7925C60.7246 24.0933 64.0909 24.2938 67.4247 24.7124C70.0992 25.0533 72.7436 25.6449 75.3856 26.2039C76.4417 26.3957 77.3809 26.9931 78.0025 27.8682V39.5991ZM2.61934 31.0767C2.61934 33.3 2.65945 35.4808 2.5993 37.659C2.57674 38.4385 2.81987 38.8446 3.56433 38.9749C6.23134 39.4361 8.88079 40.0803 11.5654 40.321C17.0172 40.8047 22.4866 41.2309 27.9559 41.3963C41.5792 41.8074 55.1975 41.6946 68.7557 40.0478C70.7609 39.7971 72.7211 39.2757 74.7038 38.8822C75.2352 38.7769 75.4558 38.5012 75.4182 37.9297C75.368 36.892 75.4031 35.8492 75.4031 34.809V31.1243C75.3256 31.1032 75.2454 31.093 75.165 31.0942C71.4678 32.142 67.6678 32.6258 63.8528 32.8488C57.3231 33.2399 50.7859 33.6008 44.2462 33.7612C34.8599 33.9857 25.4682 33.7347 16.1073 33.0093C13.0041 32.7586 9.911 32.3701 6.83291 31.959C5.43173 31.771 4.06313 31.38 2.61934 31.0692V31.0767ZM35.1473 75.348C37.6339 73.7864 39.95 72.3401 42.2635 70.8788C42.805 70.5379 42.8827 69.999 42.8801 69.4149C42.8801 67.2317 42.8801 65.0485 42.8801 62.8677C42.8651 60.3862 43.8226 58.4286 45.8404 56.9371C50.262 53.661 54.6486 50.3398 59.0476 47.0336C60.6619 45.8229 62.2711 44.6022 64.0433 43.2737C47.3957 44.532 30.6769 44.532 14.0293 43.2737C14.3527 43.5369 14.5306 43.6948 14.7287 43.8427C20.4938 48.1666 26.2239 52.5155 32.0241 56.7968C34.1848 58.3935 35.2 60.4363 35.1699 63.1008C35.1273 66.8607 35.1699 70.6206 35.1699 74.368L35.1473 75.348ZM54.5709 10.3422C54.5709 8.33691 54.5709 6.38929 54.5709 4.44167C54.5709 2.98033 54.1924 2.59933 52.731 2.59933H30.9588C28.9786 2.59933 27.0009 2.59933 25.0207 2.59933C23.9153 2.59933 23.4616 3.07308 23.4566 4.17849C23.4566 5.24378 23.4566 6.30908 23.4566 7.37438V10.3397L54.5709 10.3422ZM23.4842 20.7044H54.5132V13.0744H23.4842V20.7044ZM54.5358 23.4842H23.4867V30.8335C33.8464 31.2822 44.1735 31.2922 54.5358 30.8335V23.4842ZM57.3131 26.4921V30.6781C62.9905 30.2796 68.5927 29.9612 74.0872 28.5901C68.5902 27.2215 62.9805 26.9082 57.3131 26.4971V26.4921ZM20.7169 30.6706V26.4971C15.057 26.9032 9.43726 27.209 3.95284 28.5977C9.4523 29.9587 15.062 30.2946 20.7194 30.6756L20.7169 30.6706Z" fill="white"/>
<path d="M66.7303 7.87089e-05C67.4246 0.391106 67.6502 0.980156 67.6452 1.77224C67.6201 6.10864 67.6327 10.445 67.6327 14.9744C68.1816 14.4405 68.6203 14.0144 69.0564 13.5858C69.8084 12.8564 70.5203 12.7887 71.1168 13.3928C71.7134 13.9969 71.6056 14.7488 70.8988 15.4657C69.7557 16.6188 68.6069 17.7668 67.4522 18.9098C66.61 19.7395 65.9934 19.7344 65.1662 18.9098C63.9964 17.74 62.8267 16.5703 61.657 15.4006C60.9727 14.7112 60.905 13.9743 61.464 13.3953C62.0229 12.8163 62.7949 12.8313 63.5269 13.5582C63.953 13.9818 64.349 14.438 64.7576 14.8792L64.9707 14.7764V13.9768C64.9707 9.91865 64.9707 5.85797 64.9707 1.79981C64.9707 1.0353 65.1486 0.411162 65.8154 -0.0124512L66.7303 7.87089e-05Z" fill="white"/>
<path d="M12.207 0C12.8763 0.423613 13.0543 1.05026 13.0492 1.81227C13.0317 5.87294 13.0492 9.9311 13.0492 13.9918V14.7939L13.2999 14.9343C13.716 14.463 14.1095 13.9717 14.5532 13.5281C15.245 12.8387 15.982 12.8087 16.5585 13.4002C17.0999 13.9542 17.0598 14.7112 16.4331 15.3554C15.2216 16.5853 14.0009 17.8051 12.771 19.015C12.0742 19.6968 11.3999 19.6968 10.7056 19.015C9.47568 17.8068 8.25665 16.5869 7.04847 15.3554C6.42433 14.7212 6.38924 13.9416 6.92063 13.4002C7.49715 12.8087 8.22406 12.8538 8.9259 13.5281C9.36456 13.9492 9.79568 14.3778 10.2343 14.8014C10.2343 14.8139 10.277 14.8014 10.3697 14.8215C10.3822 14.5558 10.4048 14.2901 10.4048 14.0269C10.4048 9.94112 10.4198 5.85539 10.4048 1.76965C10.4048 0.980075 10.6279 0.391028 11.3197 0H12.207Z" fill="white"/>
<path d="M48.7605 5.18369C49.3922 5.18369 50.0138 5.16865 50.6555 5.18369C51.4776 5.20875 52.0166 5.75017 52.0065 6.50716C52.0095 6.67862 51.9772 6.84885 51.9117 7.00733C51.8462 7.1658 51.7489 7.30916 51.6258 7.42852C51.5027 7.54787 51.3564 7.6407 51.1959 7.70124C51.0355 7.76179 50.8644 7.78877 50.6931 7.78052C49.4047 7.80809 48.1113 7.80809 46.8229 7.78052C46.6516 7.78877 46.4805 7.76179 46.32 7.70124C46.1596 7.6407 46.0133 7.54787 45.8902 7.42852C45.7671 7.30916 45.6698 7.1658 45.6043 7.00733C45.5388 6.84885 45.5065 6.67862 45.5095 6.50716C45.5095 5.75519 46.0408 5.21878 46.863 5.17868H48.7605V5.18369Z" fill="white"/>
<path d="M34.4731 5.18868C34.7236 5.17506 34.9746 5.17506 35.2251 5.18868C35.5553 5.21907 35.8615 5.37365 36.0821 5.62119C36.3026 5.86872 36.421 6.19074 36.4132 6.52218C36.4182 6.84237 36.2987 7.15197 36.0798 7.38577C35.861 7.61956 35.56 7.75928 35.2402 7.77548C34.7614 7.81224 34.2807 7.81643 33.8014 7.78801C33.4565 7.7907 33.1245 7.65712 32.8776 7.41632C32.6307 7.17551 32.4888 6.84696 32.4829 6.50213C32.4829 5.78775 33.0695 5.22126 33.8615 5.18366C34.0621 5.18366 34.2651 5.18366 34.4681 5.18366L34.4731 5.18868Z" fill="white"/>
<path d="M27.9685 5.19382C28.2456 5.175 28.5236 5.175 28.8007 5.19382C29.1168 5.23383 29.4061 5.39153 29.611 5.63545C29.8159 5.87937 29.9213 6.19158 29.9061 6.50978C29.9164 6.82849 29.801 7.13846 29.5848 7.3729C29.3687 7.60733 29.0691 7.74746 28.7506 7.76307C28.2736 7.80193 27.7945 7.80695 27.3168 7.77811C26.5272 7.738 26.0209 7.22416 26.0159 6.49725C26.0109 5.77034 26.5473 5.21387 27.3644 5.17627C27.565 5.17627 27.768 5.17627 27.9685 5.17627V5.19382Z" fill="white"/>
<path d="M48.7631 15.5586C49.3697 15.5586 49.9788 15.541 50.5854 15.5586C51.4351 15.5912 51.979 16.095 52.0066 16.8344C52.0342 17.5739 51.5053 18.188 50.6155 18.2156C49.3772 18.2532 48.1339 18.2507 46.8957 18.2156C46.0485 18.188 45.5196 17.6416 45.512 16.9021C45.5045 16.1627 46.0585 15.6037 46.9408 15.5536C46.9909 15.5536 47.0411 15.5536 47.0937 15.5536L48.7631 15.5586Z" fill="white"/>
<path d="M34.5006 15.5586C34.6786 15.5586 34.8566 15.5586 35.032 15.5586C35.8592 15.6137 36.4081 16.1376 36.4182 16.8746C36.4282 17.6115 35.9344 18.1278 35.1423 18.2081C34.6636 18.2553 34.1813 18.2511 33.7035 18.1955C33.3707 18.1695 33.06 18.0182 32.8344 17.7721C32.6088 17.526 32.4849 17.2034 32.4878 16.8695C32.5037 16.5379 32.6396 16.2234 32.8702 15.9845C33.1007 15.7456 33.4103 15.5987 33.7411 15.5711C33.9916 15.5563 34.2427 15.5563 34.4931 15.5711L34.5006 15.5586Z" fill="white"/>
<path d="M27.9859 15.5684C28.213 15.5559 28.4406 15.5559 28.6677 15.5684C28.9986 15.5861 29.3104 15.7287 29.5402 15.9674C29.77 16.206 29.9007 16.523 29.906 16.8543C29.9175 17.0193 29.8963 17.1851 29.8435 17.3419C29.7907 17.4987 29.7073 17.6435 29.5983 17.7679C29.4892 17.8924 29.3566 17.994 29.2081 18.0669C29.0595 18.1398 28.898 18.1826 28.7329 18.1928C28.257 18.25 27.7763 18.2559 27.2991 18.2103C26.9536 18.2044 26.6246 18.0618 26.384 17.8137C26.1435 17.5657 26.0111 17.2324 26.0157 16.8869C26.0157 16.1349 26.5547 15.6185 27.3818 15.5609C27.5824 15.5458 27.7854 15.5609 27.9859 15.5609V15.5684Z" fill="white"/>
<path d="M48.7555 28.6203C48.1489 28.6203 47.5399 28.6353 46.9333 28.6203C46.086 28.5952 45.5421 28.0964 45.512 27.352C45.4819 26.6075 45.9858 26.0235 46.828 25.9959C48.1164 25.9558 49.4064 25.9558 50.6981 25.9959C50.8701 25.9883 51.0418 26.0161 51.2025 26.0777C51.3632 26.1394 51.5095 26.2334 51.6322 26.3541C51.755 26.4747 51.8516 26.6193 51.916 26.779C51.9804 26.9386 52.0112 27.1097 52.0066 27.2818C52.0066 28.0338 51.4752 28.5652 50.653 28.6203C50.6029 28.6203 50.5528 28.6203 50.5026 28.6203H48.7555Z" fill="white"/>
<path d="M34.428 28.668C34.0537 28.641 33.6827 28.5789 33.3201 28.4825C33.0602 28.383 32.8399 28.2013 32.6929 27.965C32.5458 27.7287 32.4801 27.4509 32.5056 27.1738C32.5312 26.8966 32.6467 26.6355 32.8344 26.4301C33.0222 26.2247 33.2719 26.0863 33.5456 26.036C34.0964 25.9709 34.6523 25.9608 35.205 26.006C35.3698 26.0111 35.532 26.0488 35.6823 26.1168C35.8325 26.1848 35.9679 26.2817 36.0806 26.4021C36.1933 26.5225 36.2811 26.6639 36.3391 26.8183C36.397 26.9727 36.4239 27.1371 36.4182 27.3019C36.4131 27.6465 36.2748 27.9757 36.0323 28.2206C35.7898 28.4655 35.4618 28.6069 35.1173 28.6153C34.8917 28.6329 34.6611 28.6153 34.4355 28.6153L34.428 28.668Z" fill="white"/>
<path d="M27.9684 28.6629C27.5947 28.6426 27.2238 28.5872 26.8605 28.4975C26.2288 28.2869 25.9632 27.7856 26.0358 27.1364C26.0442 26.8545 26.1562 26.5856 26.3505 26.3812C26.5447 26.1768 26.8075 26.0512 27.0886 26.0285C27.5876 25.9686 28.0912 25.956 28.5926 25.9909C29.4298 26.0435 29.9261 26.5824 29.901 27.3419C29.8759 28.1014 29.337 28.5802 28.4973 28.6203C28.3218 28.6203 28.1464 28.6203 27.9684 28.6203V28.6629Z" fill="white"/>
</svg>
