<svg width="61" height="61" viewBox="0 0 61 61" fill="none" xmlns="http://www.w3.org/2000/svg">
<path d="M0 0H17.2364V3.55256H3.60628V17.2805H0V0Z" fill="white"/>
<path d="M0 43.7253H3.56689V57.4127H17.2806V60.9939H0V43.7253Z" fill="white"/>
<path d="M43.7253 61V57.4367H57.4068V43.7732H61.0011V61H43.7253Z" fill="white"/>
<path d="M57.4487 3.56094H43.7554V0.0441895H60.9643V17.246H57.4487V3.56094Z" fill="white"/>
<path d="M46.502 35.774C43.9617 35.774 42.0291 34.4095 41.4418 32.225C41.2565 31.5594 41.2185 30.8615 41.3303 30.1797C41.4422 29.4979 41.7012 28.8487 42.0895 28.2772C42.4777 27.7058 42.9857 27.2257 43.5783 26.8705C44.1709 26.5153 44.8337 26.2935 45.5208 26.2205C47.4761 25.9937 49.2595 26.3661 50.575 27.9383C51.7998 29.4006 52.0075 31.0981 51.2817 32.8421C50.5488 34.6148 49.09 35.4779 47.2374 35.7334C46.9831 35.768 46.7228 35.7632 46.502 35.774ZM48.5003 30.999C48.5063 29.9091 48.0407 29.1368 47.1872 28.8133C46.7953 28.6638 46.3663 28.641 45.9607 28.7481C45.5552 28.8551 45.1934 29.0867 44.9263 29.4101C44.3055 30.1885 44.2554 31.5386 44.8153 32.3766C45.054 32.7335 45.4028 33.0026 45.8085 33.1431C46.2142 33.2836 46.6548 33.2877 47.0631 33.1549C47.9751 32.8672 48.4956 32.0913 48.5003 31.0038V30.999Z" fill="white"/>
<path d="M26.8818 26.3792H29.8972C29.9163 26.557 29.9461 26.7086 29.9473 26.8566C29.9473 28.3249 29.964 29.7932 29.9473 31.2603C29.9079 34.3509 28.2212 35.9159 25.127 35.7583C23.0129 35.6509 21.6544 34.6709 21.1602 32.8862C21.073 32.6227 21.02 32.3491 21.0027 32.0721C20.9895 30.1908 20.9955 28.3094 20.9955 26.3863H24.0849C24.0849 26.8364 24.0849 27.2673 24.0849 27.6994C24.1112 29.145 24.0992 30.5942 24.1887 32.0363C24.2401 32.8719 24.7546 33.2563 25.5245 33.242C26.2658 33.2288 26.7708 32.7895 26.8054 31.9658C26.8699 30.4211 26.8615 28.8741 26.8818 27.3282C26.8854 27.0345 26.8818 26.7397 26.8818 26.3792Z" fill="white"/>
<path d="M8.67603 35.5901C9.02221 34.7975 9.329 34.0991 9.63102 33.3996C10.586 31.2246 11.541 29.0568 12.4685 26.8711C12.6476 26.4485 12.872 26.3172 13.3041 26.3386C13.9965 26.3733 14.6937 26.3291 15.386 26.3625C15.5579 26.3709 15.811 26.5093 15.8755 26.655C17.1647 29.5665 18.4324 32.4876 19.7026 35.4075C19.7157 35.4373 19.7026 35.4803 19.6883 35.5877C18.7333 35.5877 17.7675 35.6056 16.8054 35.5686C16.6657 35.5686 16.4819 35.3299 16.4091 35.1568C15.9017 33.963 15.9089 33.963 14.6268 33.963C14.0717 33.963 13.5142 33.9917 12.9556 33.9547C12.564 33.9284 12.4017 34.0944 12.2728 34.4322C11.8299 35.5925 11.8179 35.5877 10.586 35.5877L8.67603 35.5901ZM13.3662 31.6508H15.0566L14.2126 29.471C13.9046 30.2672 13.6444 30.9369 13.3662 31.6556V31.6508Z" fill="white"/>
<path d="M39.9819 26.3911C39.9996 26.4918 40.0116 26.5934 40.0177 26.6955C40.0177 27.3676 40.0177 28.0397 40.0177 28.7798H37.3127V35.5626H34.209V28.818H31.5386V26.3911H39.9819Z" fill="white"/>
</svg>
