<svg xmlns="http://www.w3.org/2000/svg">

    <symbol id="circle-1" viewBox="0 0 221 221">
        <g>
<g filter="url(#filter0_d_276_4958)">
                <path
                  d="M40.4538 102.919C38.5462 141.534 68.3035 174.385 106.919 176.292C145.534 178.2 178.384 148.443 180.292 109.827C182.2 71.212 152.442 38.3617 113.827 36.4541C75.2118 34.5464 42.3615 64.3038 40.4538 102.919Z"
                  fill="url(#paint0_linear_276_4958)" />
              </g>
              <path
                d="M61.9337 103.335L58.8095 104.428L58.8422 108.886L61.975 109.913L61.9859 112.164L50.0468 107.902L50.0353 105.486L61.871 101.073L61.9337 103.335ZM53.9504 106.037C53.7912 106.081 53.5785 106.149 53.3211 106.241C53.0636 106.333 52.7804 106.415 52.4973 106.497C52.2141 106.579 51.984 106.646 51.7987 106.689C52.0228 106.744 52.2721 106.817 52.5649 106.893C52.8577 106.968 53.1153 107.051 53.3729 107.133C53.6305 107.216 53.8202 107.26 53.9581 107.293L57.0039 108.316L56.985 104.992L53.9504 106.037Z"
                fill="#1D1D1B" />
              <path
                d="M53.8327 95.5118C53.9223 94.9983 54.1396 94.5155 54.4645 94.1079C54.7895 93.7002 55.2117 93.3808 55.6923 93.179L55.6966 93.092L54.6014 92.6629L54.9484 90.9356L63.8066 92.7687C64.3371 92.8404 64.8462 93.0245 65.3 93.3086C65.7537 93.5927 66.1416 93.9704 66.4377 94.4163C66.9632 95.4612 67.075 96.666 66.7508 97.7898C66.6376 98.3751 66.478 98.9506 66.2733 99.5106C66.0875 100.013 65.8443 100.493 65.5485 100.94L63.8652 100.587C64.5478 99.6204 65.0156 98.5193 65.2371 97.3574C65.3146 97.0805 65.3332 96.7905 65.2917 96.506C65.2501 96.2215 65.1494 95.9489 64.996 95.7057C64.6176 95.2363 64.0744 94.9287 63.4772 94.8457L63.251 94.8345C63.0886 94.8265 62.8989 94.7823 62.6819 94.7018C62.5099 94.6601 62.3406 94.6081 62.175 94.5459L62.172 94.6068C62.5424 94.9687 62.8064 95.4252 62.9354 95.9266C63.0588 96.4336 63.0625 96.9623 62.9463 97.471C62.8678 97.961 62.6702 98.4243 62.3708 98.8201C62.0714 99.2159 61.6794 99.5321 61.2293 99.7411C60.1159 100.185 58.8898 100.262 57.7297 99.9607C56.528 99.7794 55.4176 99.2135 54.5648 98.3478C54.2159 97.9736 53.9661 97.5182 53.8383 97.0229C53.7104 96.5275 53.7085 96.0081 53.8327 95.5118ZM55.5862 95.3281C55.3229 96.5972 56.1708 97.4415 58.1221 97.8432C60.0734 98.2448 61.1425 97.7918 61.4158 96.497C61.4973 96.2105 61.5158 95.9098 61.4701 95.6155C61.4244 95.3211 61.3156 95.0402 61.1511 94.7919C60.648 94.262 59.9782 93.921 59.2538 93.8259L58.9432 93.7583C58.1762 93.5369 57.36 93.5543 56.6032 93.8084C56.3252 93.9603 56.0892 94.1787 55.9162 94.4441C55.7433 94.7095 55.6389 95.0137 55.6123 95.3294L55.5862 95.3281Z"
                fill="#1D1D1B" />
              <path
                d="M57.7231 82.988C57.777 82.8393 57.8395 82.6939 57.9103 82.5524C57.9695 82.4177 58.0431 82.2897 58.1298 82.1708L59.8308 83.0485C59.7739 83.1416 59.6983 83.26 59.6305 83.3962C59.5655 83.5181 59.5069 83.6433 59.4549 83.7713C59.2941 84.169 59.2252 84.598 59.2534 85.026C59.2768 85.4552 59.4298 85.8673 59.6922 86.2077C60.0035 86.6021 60.4219 86.8983 60.8973 87.061L65.2172 88.7746L64.4497 90.7165L56.1087 87.4175L56.6973 85.9202L58.2527 86.2151L58.2574 86.1194C57.9115 85.6919 57.6623 85.1946 57.527 84.6616C57.4058 84.0974 57.4747 83.5089 57.7231 82.988Z"
                fill="#1D1D1B" />
              <path
                d="M56.781 77.5163C56.9093 77.2548 57.1187 77.0418 57.3779 76.909C57.5271 76.8523 57.6877 76.8322 57.8462 76.8507C58.0047 76.8692 58.1564 76.9255 58.2885 77.0151C58.4375 77.0764 58.5693 77.173 58.6726 77.2967C58.7759 77.4203 58.8476 77.5672 58.8814 77.7247C58.9259 78.023 58.8678 78.3277 58.7166 78.5887C58.5842 78.853 58.3683 79.0662 58.1023 79.1951C57.9514 79.2527 57.7887 79.2724 57.6285 79.2523C57.4683 79.2322 57.3154 79.173 57.1835 79.0799C57.0359 79.0203 56.9053 78.9252 56.8033 78.803C56.7013 78.6808 56.6311 78.5353 56.5988 78.3794C56.5605 78.0794 56.6247 77.7752 56.781 77.5163ZM60.3212 78.2406L68.2134 82.5031L67.2505 84.3394L59.3496 80.0766L60.3212 78.2406Z"
                fill="#1D1D1B" />
              <path
                d="M71.6022 77.6291C71.3011 78.1038 70.9052 78.5111 70.4395 78.8258C69.9737 79.1405 69.448 79.3556 68.8953 79.4578C68.2689 79.5098 67.6385 79.4373 67.0403 79.2446C66.4421 79.0519 65.8879 78.7427 65.4096 78.3349C64.6326 77.8246 63.9929 77.1311 63.547 76.3154C63.2088 75.6607 63.0868 74.9158 63.1986 74.1874C63.3291 73.4264 63.6365 72.7067 64.096 72.0862C64.3868 71.6674 64.7278 71.2858 65.1116 70.9502C65.4145 70.6918 65.7413 70.4626 66.0874 70.2657L67.0622 71.7181C66.7555 71.9239 66.4543 72.1358 66.1586 72.3538C65.8942 72.5635 65.6617 72.8106 65.4683 73.0872C64.6163 74.2662 64.9946 75.4362 66.604 76.5798C67.1937 77.0701 67.9259 77.3571 68.6918 77.3981C68.9964 77.3847 69.2933 77.2981 69.5574 77.1457C69.8215 76.9932 70.045 76.7794 70.209 76.5224C70.4728 76.1605 70.6834 75.7626 70.8343 75.3409C70.9583 74.9537 71.0395 74.5541 71.0764 74.1492L72.5422 75.1985C72.5016 75.594 72.4091 75.9824 72.267 76.3537C72.0955 76.8031 71.8724 77.2311 71.6022 77.6291Z"
                fill="#1D1D1B" />
              <path
                d="M73.4978 62.2065L79.7112 68.6712L78.5299 69.8077L77.5233 69.1736L77.459 69.2402C77.5675 69.7659 77.5069 70.3124 77.2859 70.8016C77.064 71.3029 76.7452 71.7555 76.3479 72.1333C75.7638 72.763 74.9623 73.1474 74.1056 73.2088C73.6521 73.183 73.2092 73.0615 72.8061 72.8521C72.403 72.6428 72.0489 72.3504 71.767 71.9943L67.7275 67.7826L69.2292 66.3392L73.0041 70.2586C73.9334 71.2204 74.7918 71.3238 75.6057 70.5616C75.8711 70.357 76.0762 70.0843 76.1991 69.7725C76.322 69.4606 76.3582 69.1214 76.3037 68.7907C76.0708 68.0391 75.644 67.3622 75.0662 66.8281L72.03 63.6691L73.4978 62.2065Z"
                fill="#1D1D1B" />
              <path d="M83.2871 66.2135L81.5791 67.42L74.315 57.153L76.0143 55.9461L83.2871 66.2135Z" fill="#1D1D1B" />
              <path
                d="M87.5807 61.916C87.799 61.7881 88.0073 61.6438 88.2039 61.4845C88.3831 61.3337 88.5541 61.1732 88.716 61.0039L89.4686 62.3669C89.283 62.6041 89.0704 62.819 88.8351 63.0072C88.555 63.2447 88.2525 63.4547 87.932 63.6341C87.5145 63.8661 87.0574 64.0181 86.5841 64.0821C86.1316 64.1288 85.6765 64.0235 85.2906 63.7827C84.7906 63.4367 84.3899 62.9659 84.1283 62.417L81.8707 58.3283L80.8126 58.9127L80.3723 58.1147L81.1855 56.8379L80.8472 54.8587L81.9948 54.2264L82.939 55.9476L85.1712 54.7234L85.932 56.0955L83.6993 57.3284L85.9404 61.3989C86.0119 61.5549 86.1148 61.6945 86.2427 61.8089C86.3706 61.9232 86.5208 62.01 86.6838 62.0636C86.9908 62.1265 87.3102 62.074 87.5807 61.916Z"
                fill="#1D1D1B" />
              <path
                d="M95.3415 50.8301L98.2717 59.313L96.719 59.8468L96.0798 58.8384L95.9819 58.8772C95.8595 59.3974 95.5806 59.8677 95.1827 60.2245C94.769 60.5801 94.2906 60.8526 93.7737 61.0271C92.98 61.3572 92.0904 61.3725 91.2858 61.0699C90.8811 60.8567 90.5257 60.5607 90.2429 60.2011C89.9601 59.8415 89.7563 59.4264 89.6446 58.9828L87.7289 53.4456L89.6987 52.7667L91.4767 57.9132C91.9116 59.1733 92.657 59.62 93.6952 59.2614C94.022 59.1873 94.3227 59.0266 94.5659 58.7961C94.809 58.5657 94.9856 58.2739 95.077 57.9516C95.1817 57.1713 95.0764 56.3773 94.7719 55.6513L93.346 51.499L95.3415 50.8301Z"
                fill="#1D1D1B" />
              <path
                d="M103.65 49.1567C103.789 49.1636 103.939 49.1187 104.115 49.1012C104.263 49.0921 104.412 49.0995 104.558 49.1231L104.68 51.0654C104.547 51.0515 104.414 51.0449 104.28 51.0457C104.142 51.048 104.004 51.0617 103.868 51.0864C103.443 51.1488 103.039 51.3078 102.685 51.5512C102.33 51.7927 102.055 52.1343 101.895 52.5327C101.714 52.9999 101.67 53.5094 101.77 54.0005L102.503 58.5896L100.446 58.9241L99.0257 50.0622L100.617 49.8093L101.154 51.3011L101.249 51.3059C101.445 50.7916 101.747 50.3248 102.137 49.9367C102.54 49.5153 103.072 49.2407 103.65 49.1567Z"
                fill="#1D1D1B" />
              <path
                d="M110.435 48.8114C111.377 48.7414 112.313 49.0104 113.075 49.5698C113.392 49.8681 113.638 50.2339 113.795 50.6403C113.951 51.0466 114.014 51.483 113.979 51.9171L113.987 57.9443L112.513 57.9413L112.095 56.6995L112.025 56.6961C111.699 57.1342 111.282 57.4973 110.804 57.7609C110.253 58.0174 109.649 58.1343 109.042 58.1013C108.313 58.1306 107.598 57.8904 107.035 57.4264C106.759 57.1545 106.546 56.8245 106.414 56.4604C106.281 56.0964 106.231 55.7073 106.267 55.3214C106.238 54.9203 106.312 54.5184 106.483 54.1543C106.654 53.7901 106.915 53.4758 107.242 53.2414C108.185 52.6954 109.261 52.4197 110.351 52.4443L111.906 52.3903L111.928 51.9466C111.95 51.7257 111.924 51.5027 111.851 51.2929C111.779 51.0831 111.662 50.8914 111.508 50.7309C111.183 50.4645 110.769 50.3317 110.349 50.3597C109.911 50.3534 109.474 50.4202 109.057 50.5575C108.637 50.6875 108.225 50.8418 107.822 51.0198L107.161 49.5655C107.64 49.3171 108.147 49.1283 108.672 49.0034C109.249 48.8639 109.841 48.7993 110.435 48.8114ZM110.819 53.7408C110.151 53.7071 109.487 53.8715 108.912 54.2135C108.74 54.347 108.603 54.5196 108.511 54.7168C108.419 54.914 108.376 55.1302 108.385 55.3475C108.374 55.5149 108.402 55.6825 108.467 55.8371C108.532 55.9917 108.632 56.129 108.759 56.2382C109.051 56.4338 109.398 56.5305 109.749 56.5139C110.306 56.5246 110.85 56.3384 111.284 55.9879C111.5 55.7955 111.669 55.5557 111.778 55.2872C111.886 55.0188 111.931 54.7289 111.91 54.4401L111.947 53.6832L110.819 53.7408Z"
                fill="#1D1D1B" />
              <path d="M118.255 58.5735L116.185 58.2794L117.96 45.8423L120.021 46.136L118.255 58.5735Z"
                fill="#1D1D1B" />
              <path
                d="M129.442 48.5729C129.724 48.6575 129.972 48.8284 130.151 49.0615C130.227 49.1931 130.272 49.3407 130.281 49.4926C130.29 49.6445 130.264 49.7965 130.204 49.9363C130.17 50.0943 130.099 50.2417 129.995 50.3658C129.892 50.4899 129.76 50.5869 129.61 50.6484C129.323 50.7255 129.019 50.7105 128.74 50.6054C128.46 50.5196 128.214 50.3453 128.041 50.1086C127.957 49.9701 127.908 49.813 127.9 49.6513C127.891 49.4896 127.922 49.3283 127.991 49.1815C128.022 49.0251 128.092 48.879 128.194 48.7562C128.296 48.6334 128.427 48.5377 128.575 48.4778C128.867 48.4176 129.17 48.4509 129.442 48.5729ZM129.351 52.1793L126.532 60.701L124.558 60.0453L127.369 51.5319L129.351 52.1793Z"
                fill="#1D1D1B" />
              <path
                d="M137.129 55.3981C137.914 55.7407 138.539 56.3707 138.874 57.1589C138.995 57.5942 139.024 58.0499 138.96 58.4971C138.896 58.9443 138.74 59.3733 138.501 59.7571L135.854 64.9729L134 64.0091L136.455 59.1676C137.064 57.9678 136.879 57.1127 135.892 56.6191C135.615 56.4295 135.291 56.3204 134.956 56.3039C134.622 56.2873 134.289 56.364 133.995 56.5254C133.369 56.9963 132.876 57.6209 132.562 58.3386L130.572 62.2524L128.718 61.2886L132.777 53.2904L134.206 54.0152L133.938 55.2056L134.04 55.2542C134.495 54.9747 135.026 54.8453 135.559 54.8844C136.113 54.9426 136.648 55.1177 137.129 55.3981Z"
                fill="#1D1D1B" />
              <path
                d="M139.79 68.1064C139.402 67.8162 139.088 67.4395 138.871 67.0064C138.655 66.5732 138.543 66.0955 138.544 65.6114C138.622 64.3806 139.12 63.2138 139.954 62.3057C140.66 61.2829 141.699 60.5361 142.893 60.1919C143.371 60.084 143.868 60.0889 144.343 60.2063C144.819 60.3236 145.261 60.5502 145.633 60.868C146.091 61.2066 146.451 61.6608 146.676 62.1842C146.842 62.6183 146.914 63.0826 146.888 63.5466L146.963 63.6113C147.04 63.4669 147.164 63.2636 147.334 62.9929C147.504 62.7223 147.682 62.4781 147.85 62.2596L149.812 59.801L151.492 61.1051L143.636 70.9391L142.369 69.9258L142.81 68.7702L142.743 68.7145C142.295 68.8518 141.823 68.8909 141.359 68.8293C140.777 68.7447 140.232 68.4936 139.79 68.1064ZM141.336 67.1797C141.557 67.4006 141.831 67.5625 142.131 67.6505C142.432 67.7384 142.749 67.7497 143.055 67.6833C143.709 67.432 144.274 66.9925 144.679 66.4203L144.846 66.2193C145.359 65.649 145.712 64.9534 145.87 64.2027C145.894 63.8762 145.828 63.5494 145.679 63.2576C145.531 62.9659 145.305 62.7203 145.027 62.5475C144.804 62.3566 144.535 62.2283 144.246 62.1757C143.958 62.1232 143.66 62.1482 143.385 62.2484C142.657 62.5344 142.027 63.0242 141.571 63.6589C141.05 64.2144 140.711 64.9158 140.599 65.6693C140.579 65.9636 140.636 66.258 140.765 66.5231C140.894 66.7882 141.091 67.0147 141.336 67.1797Z"
                fill="#1D1D1B" />
              <path
                d="M157.107 72.8001L150.203 78.5644L149.157 77.3091L149.867 76.3499L149.801 76.2768C149.272 76.3473 148.734 76.2506 148.262 76.0002C147.777 75.7432 147.346 75.3929 146.996 74.9695C146.41 74.3426 146.086 73.5153 146.09 72.657C146.149 72.2063 146.302 71.7729 146.539 71.385C146.776 70.9971 147.092 70.6632 147.466 70.405L152.012 66.6611L153.345 68.2707L149.153 71.7443C148.127 72.5658 147.962 73.4298 148.667 74.3369C148.85 74.6154 149.105 74.8392 149.405 74.9845C149.705 75.1299 150.039 75.1913 150.371 75.1624C151.139 74.9852 151.847 74.6079 152.422 74.0688L155.796 71.27L157.107 72.8001Z"
                fill="#1D1D1B" />
              <path
                d="M156.576 84.4439C156.241 84.6566 155.858 84.7824 155.462 84.8101C155.066 84.8378 154.67 84.7663 154.309 84.6023C153.452 84.1338 152.764 83.407 152.344 82.5253C152.07 82.058 151.844 81.5647 151.667 81.0527C151.53 80.6168 151.438 80.168 151.393 79.7135L152.944 78.8568C152.981 79.3731 153.064 79.885 153.191 80.3867C153.314 80.886 153.502 81.3673 153.748 81.8184C153.931 82.1958 154.218 82.5127 154.576 82.7315C154.702 82.7955 154.842 82.8278 154.983 82.8257C155.124 82.8236 155.263 82.787 155.387 82.7193C155.534 82.6391 155.651 82.5131 155.719 82.3606C155.81 82.1265 155.849 81.8756 155.834 81.6249C155.826 81.1449 155.791 80.6656 155.73 80.1894C155.65 79.6656 155.618 79.1356 155.634 78.606C155.643 78.1993 155.75 77.8008 155.944 77.4438C156.171 77.0927 156.486 76.8074 156.858 76.6167C157.164 76.4237 157.517 76.316 157.88 76.3048C158.242 76.2936 158.601 76.3792 158.919 76.5529C159.688 77.0007 160.307 77.6654 160.7 78.4637C160.961 78.9224 161.168 79.4097 161.317 79.9159C161.463 80.4159 161.561 80.929 161.608 81.4479L159.942 81.6185C159.895 81.1714 159.82 80.7403 159.735 80.3349C159.651 79.9286 159.503 79.5384 159.295 79.1793C158.846 78.3838 158.397 78.1087 157.949 78.354C157.87 78.3939 157.8 78.4494 157.743 78.5169C157.685 78.5845 157.642 78.6629 157.616 78.7475C157.555 78.9892 157.543 79.2405 157.579 79.487C157.602 79.9394 157.65 80.3901 157.722 80.8373C157.788 81.3421 157.821 81.8507 157.821 82.3598C157.815 82.7735 157.715 83.1803 157.527 83.5489C157.3 83.9307 156.97 84.2409 156.576 84.4439Z"
                fill="#1D1D1B" />
              <path
                d="M157.544 89.9072C157.631 90.1442 157.743 90.3718 157.876 90.5865C158.014 90.8026 158.153 90.9926 158.284 91.1648L156.835 91.7212C156.626 91.503 156.442 91.2629 156.286 91.0051C156.087 90.6926 155.922 90.3599 155.794 90.0126C155.618 89.5702 155.528 89.0979 155.531 88.6216C155.547 88.163 155.716 87.7229 156.012 87.3719C156.426 86.9314 156.942 86.6003 157.516 86.4083L161.88 84.7487L161.448 83.6196L162.336 83.2972L163.493 84.2266L165.502 84.1688L165.974 85.3957L164.125 86.0894L165.037 88.4719L163.489 89.0845L162.577 86.702L158.23 88.3624C158.066 88.4107 157.914 88.4928 157.784 88.6036C157.654 88.7144 157.549 88.8513 157.475 89.0054C157.382 89.3038 157.407 89.6263 157.544 89.9072Z"
                fill="#1D1D1B" />
              <path
                d="M166.983 95.7028C167.021 95.8567 167.051 96.0125 167.073 96.1696C167.105 96.3133 167.118 96.4605 167.113 96.6076L165.181 96.8698L165.149 96.467C165.135 96.3308 165.112 96.1957 165.081 96.0624C164.987 95.643 164.801 95.2496 164.536 94.9104C164.272 94.5734 163.915 94.322 163.508 94.188C163.026 94.0435 162.513 94.0362 162.026 94.1671L157.5 95.2082L157.025 93.1787L165.768 91.1597L166.127 92.7213L164.682 93.3651L164.678 93.4608C165.21 93.6149 165.7 93.8865 166.113 94.2556C166.555 94.6284 166.861 95.1374 166.983 95.7028Z"
                fill="#1D1D1B" />
              <path
                d="M167.31 97.8993L167.469 100.157L162.54 102.295C162.251 102.434 161.954 102.557 161.65 102.661C161.361 102.757 161.066 102.833 160.767 102.888L160.763 102.957C161.042 102.971 161.344 103.03 161.681 103.09C162.018 103.15 162.346 103.236 162.673 103.322L167.839 104.685L167.998 106.934L157.59 103.804C156.775 103.583 156.033 103.152 155.437 102.555C154.908 101.972 154.602 101.222 154.573 100.436C154.551 100.198 154.548 99.9589 154.565 99.7205C154.564 99.5404 154.573 99.3603 154.591 99.1811L156.245 99.0709L156.223 99.5147L156.197 100.045C156.213 100.502 156.408 100.935 156.739 101.25C157.085 101.539 157.487 101.753 157.921 101.875L158.669 102.086L167.31 97.8993Z"
                fill="#1D1D1B" />
              <g filter="url(#filter1_d_276_4958)">
                <path
                  d="M92.5231 70.9374C72.8989 81.0107 65.1564 105.085 75.2296 124.709C85.3029 144.333 109.377 152.076 129.002 142.003C148.626 131.93 156.368 107.855 146.295 88.2309C136.222 68.6067 112.147 60.8642 92.5231 70.9374Z"
                  fill="url(#paint1_linear_276_4958)" />
              </g>
              <g filter="url(#filter2_d_276_4958)">
                <path fill-rule="evenodd" clip-rule="evenodd"
                  d="M93.5928 73.0214C75.1193 82.504 67.8307 105.167 77.3133 123.64C86.7959 142.114 109.459 149.402 127.932 139.92C146.406 130.437 153.694 107.774 144.212 89.3008C134.729 70.8273 112.066 63.5388 93.5928 73.0214ZM74.8893 124.885C64.7195 105.072 72.5363 80.7671 92.3485 70.5974C112.161 60.4276 136.466 68.2443 146.636 88.0566C156.806 107.869 148.989 132.174 129.177 142.344C109.364 152.514 85.0591 144.697 74.8893 124.885Z"
                  fill="white" />
              </g>
              <g clip-path="url(#clip0_276_4958)">
                <path
                  d="M89.2734 98.0712C89.5119 97.9589 89.7504 97.7594 90.0008 97.7474C92.2163 97.6435 94.0466 98.4343 95.4405 100.186C95.4861 100.227 95.5357 100.263 95.5884 100.294C95.5884 99.7114 95.6015 99.1774 95.5776 98.6458C95.5776 98.5263 95.4584 98.4069 95.3559 98.3113C92.7707 95.8778 92.6694 91.9928 95.1257 89.4231C95.3125 89.2272 95.5029 89.0356 95.6969 88.8485C95.9354 88.6095 96.1965 88.6 96.454 88.821C99.5805 91.5006 99.4839 95.7261 96.9739 98.1178C96.8208 98.2918 96.7302 98.5121 96.7164 98.7437C96.6794 99.2216 96.7056 99.6995 96.7056 100.259C96.7737 100.203 96.8386 100.143 96.9 100.079C98.35 98.3208 100.239 97.6148 102.477 97.7355C102.854 97.7558 103.038 97.9744 103.06 98.34C103.288 102.101 100.781 104.747 97.6798 105.213C97.3746 105.258 97.0634 105.256 96.7259 105.278V107.625C96.863 107.474 96.9537 107.379 97.0419 107.278C98.4728 105.642 100.313 105.008 102.443 105.106C102.831 105.124 103.028 105.345 103.056 105.73C103.295 109.031 101.213 111.838 97.991 112.523C97.5904 112.608 97.1778 112.632 96.7343 112.688V114.906C96.791 114.859 96.8447 114.809 96.8952 114.756C98.3464 112.998 100.234 112.292 102.472 112.414C102.849 112.434 103.025 112.661 103.055 113.021C103.207 114.639 102.733 116.254 101.731 117.532C100.73 118.81 99.2764 119.654 97.6715 119.89C97.3674 119.938 97.055 119.934 96.7247 119.957V122.698C100.964 121.225 105.299 120.366 109.802 120.308V115.697C109.296 115.627 108.801 115.591 108.322 115.483C106.953 115.182 105.725 114.428 104.837 113.342C103.948 112.256 103.451 110.902 103.425 109.498C103.397 108.119 103.431 108.092 104.806 108.119C106.705 108.158 108.256 108.921 109.495 110.349C109.578 110.443 109.659 110.54 109.791 110.695V108.459C109.278 108.385 108.742 108.346 108.224 108.22C106.875 107.901 105.67 107.141 104.801 106.059C103.932 104.977 103.447 103.635 103.425 102.246C103.401 100.885 103.401 100.883 104.736 100.887C106.69 100.887 108.271 101.689 109.535 103.157C109.606 103.239 109.673 103.325 109.797 103.477V101.112C109.201 101.01 108.605 100.957 108.038 100.806C106.74 100.457 105.589 99.6974 104.758 98.6394C103.927 97.5814 103.46 96.2824 103.427 94.9364C103.427 94.8169 103.427 94.7094 103.427 94.5959C103.427 93.5769 103.507 93.4992 104.5 93.4956C106.657 93.4885 108.403 94.3319 109.787 96.0187C109.714 95.2709 110.066 94.529 109.358 93.8063C107.052 91.4564 107.105 87.6729 109.389 85.298C109.606 85.0734 109.802 84.8082 110.06 84.6505C110.224 84.5501 110.561 84.5179 110.695 84.6206C112.045 85.654 112.815 87.0469 113.025 88.7266C113.289 90.8471 112.635 92.669 111.154 94.2089C111.054 94.3045 110.989 94.4305 110.969 94.5673C110.948 95.0451 110.96 95.523 110.96 96.1119C111.124 95.9292 111.225 95.8228 111.317 95.7117C112.748 94.05 114.596 93.4001 116.745 93.5004C117.131 93.5183 117.333 93.7286 117.364 94.1193C117.62 97.4201 115.499 100.261 112.262 100.929C111.85 101.014 111.427 101.031 110.98 101.084V103.434C111.073 103.344 111.142 103.291 111.197 103.225C112.672 101.454 114.573 100.738 116.827 100.889C117.193 100.913 117.352 101.143 117.372 101.478C117.611 105.307 114.996 107.986 111.826 108.374C111.548 108.39 111.27 108.39 110.992 108.374V110.683C111.111 110.552 111.194 110.466 111.272 110.376C112.724 108.663 114.596 107.987 116.8 108.119C117.164 108.142 117.344 108.348 117.366 108.689C117.638 112.771 114.639 115.524 111.333 115.64C111.223 115.64 111.113 115.656 110.962 115.667V116.626C110.962 117.708 110.974 118.789 110.955 119.869C110.949 120.212 111.042 120.313 111.398 120.347C113.219 120.496 115.046 120.625 116.855 120.872C119.158 121.188 121.397 121.811 123.598 122.561C123.742 122.61 123.891 122.647 124.075 122.699V119.992C123.539 119.92 123.013 119.897 122.51 119.777C119.618 119.084 117.713 116.641 117.676 113.609C117.662 112.467 117.718 112.414 118.869 112.414C120.914 112.414 122.577 113.222 123.877 114.803C123.927 114.866 123.983 114.923 124.083 115.033V112.692C123.654 112.642 123.217 112.621 122.794 112.536C119.773 111.924 117.751 109.479 117.686 106.375C117.661 105.147 117.737 105.071 118.975 105.102C120.961 105.152 122.597 105.924 123.858 107.474C123.91 107.538 123.969 107.594 124.075 107.713V105.295C123.696 105.258 123.301 105.249 122.918 105.176C119.788 104.578 117.734 102.132 117.686 98.954C117.668 97.7856 117.723 97.7295 118.893 97.7331C120.936 97.7402 122.597 98.5502 123.888 100.134L124.096 100.394C124.096 99.7281 124.121 99.1726 124.079 98.6207C124.069 98.4738 123.864 98.3352 123.734 98.205C122.496 96.9554 121.837 95.4501 121.85 93.6916C121.865 91.7073 122.763 90.1243 124.213 88.8246C124.463 88.5988 124.727 88.6155 124.977 88.8329C128.048 91.503 128.011 95.6902 125.454 98.1345C125.346 98.2207 125.27 98.3411 125.239 98.4761C125.216 99.0663 125.228 99.6565 125.228 100.249C125.64 99.8595 126.009 99.4713 126.42 99.1332C127.77 98.0138 129.351 97.6351 131.071 97.7379C131.419 97.7582 131.6 97.966 131.626 98.3173C131.892 101.767 129.661 104.649 126.274 105.207C125.955 105.259 125.626 105.252 125.266 105.275V107.671C125.52 107.395 125.743 107.14 125.974 106.904C127.378 105.517 129.097 105.012 131.026 105.105C131.363 105.121 131.596 105.287 131.623 105.648C131.884 109.169 129.715 111.75 126.853 112.464C126.347 112.591 125.817 112.618 125.26 112.697V114.934C125.665 114.541 126.035 114.132 126.452 113.786C127.793 112.679 129.365 112.316 131.067 112.415C131.415 112.437 131.595 112.647 131.621 112.997C131.879 116.437 129.699 119.264 126.307 119.876C125.947 119.922 125.585 119.949 125.223 119.958V121.221C125.223 121.748 125.237 122.275 125.223 122.8C125.212 123.057 125.317 123.159 125.541 123.257C127.425 124.107 129.302 124.97 131.174 125.846C131.754 126.117 131.776 126.485 131.293 126.915H130.954C130.936 126.893 130.921 126.865 130.899 126.853C125.491 123.98 119.8 122.036 113.663 121.507C110.424 121.229 107.163 121.362 103.958 121.901C100.765 122.425 97.6486 123.342 94.6798 124.631C93.0772 125.329 91.5283 126.154 89.9555 126.922H89.2734V126.148C89.4278 126.026 89.5912 125.916 89.7623 125.819C91.384 125.043 93.0033 124.266 94.6368 123.511C95.5788 123.079 95.5908 123.104 95.5908 122.044V119.957C95.419 119.944 95.3082 119.933 95.1973 119.927C93.8921 119.87 92.6383 119.401 91.615 118.587C90.5917 117.773 89.851 116.656 89.4988 115.396C89.4165 115.113 89.3486 114.826 89.2734 114.542V112.75C89.4284 112.665 89.5799 112.511 89.7397 112.505C92.0124 112.356 93.9131 113.102 95.3523 114.906C95.4071 114.975 95.4715 115.039 95.5621 115.145V112.669L95.2402 112.646C92.4703 112.465 90.2166 110.672 89.4857 108.062C89.407 107.778 89.3438 107.489 89.2734 107.202V105.41C89.4666 105.308 89.6562 105.128 89.8541 105.117C91.9361 105.007 93.7354 105.637 95.1543 107.216C95.2807 107.357 95.4012 107.504 95.5598 107.694V105.277L95.202 105.249C92.5203 105.047 90.69 103.667 89.6645 101.2C89.4881 100.775 89.4046 100.31 89.2782 99.8631L89.2734 98.0712ZM96.1571 89.9475C93.8427 92.0262 94.08 95.738 96.1643 97.4738C98.1783 95.6759 98.5884 92.1588 96.1571 89.9463V89.9475ZM124.581 89.9475C122.209 92.08 122.548 95.8228 124.602 97.4738C125.124 96.9957 125.54 96.4135 125.824 95.7647C126.109 95.1159 126.255 94.4148 126.253 93.7062C126.251 92.9976 126.101 92.2973 125.813 91.65C125.526 91.0028 125.106 90.4229 124.581 89.9475ZM130.554 98.8823C127.826 98.5036 124.604 101.785 125.295 104.206C128.165 104.344 130.691 101.8 130.554 98.8823ZM130.554 113.523C129.108 113.511 127.842 113.959 126.803 114.971C125.708 116.036 125.151 117.33 125.233 118.88C128.156 119.031 130.666 116.507 130.555 113.52L130.554 113.523ZM116.288 109.284C113.036 108.993 110.598 112.279 111.057 114.581C113.885 114.759 116.462 112.162 116.288 109.284ZM125.264 111.561C128.223 111.744 130.749 109.052 130.524 106.284C127.758 105.961 124.964 108.7 125.264 111.561ZM104.535 109.266C104.268 112.119 106.996 114.844 109.781 114.539C110.04 111.702 107.394 109.028 104.535 109.266ZM109.781 99.948C110.096 97.0593 107.238 94.3415 104.535 94.6915C104.17 97.3735 106.979 100.206 109.777 99.9468L109.781 99.948ZM111.045 99.9587C114.333 100.112 116.585 97.0223 116.261 94.6712C113.563 94.2865 110.627 97.2397 111.041 99.9575L111.045 99.9587ZM109.771 107.254C110.2 104.568 107.139 101.476 104.534 101.963C104.27 104.767 106.899 107.479 109.766 107.253L109.771 107.254ZM116.274 102.042C113.644 101.58 110.372 104.922 111.068 107.361C114.549 107.393 116.535 104.291 116.269 102.041L116.274 102.042ZM96.7772 118.863C99.9251 119.042 102.286 115.996 101.941 113.55C99.1501 113.256 96.2394 116.251 96.7772 118.863ZM124.035 104.191C124.505 101.777 122.04 98.6494 118.847 98.8847C118.468 101.546 121.258 104.418 124.035 104.191ZM118.846 106.266C118.596 109.346 121.548 111.826 124.033 111.53C124.468 108.823 121.69 105.987 118.846 106.266ZM118.834 113.554C118.616 116.447 121.233 119.049 124.023 118.865C124.531 116.208 121.682 113.272 118.834 113.551V113.554ZM101.975 106.283C98.7148 105.959 96.1548 109.41 96.8344 111.562C99.6366 111.695 102.156 109.122 101.975 106.283ZM96.7939 104.19C99.9621 104.31 102.259 101.331 101.95 98.8787C99.2061 98.5168 96.5614 101.226 96.7939 104.19ZM110.371 85.7925C107.895 88.0624 108.373 91.7777 110.351 93.375C112.346 91.4791 112.568 87.9656 110.371 85.7961V85.7925ZM90.318 98.8692C90.2083 102.214 93.1344 104.365 95.4846 104.178C95.9163 101.482 93.1642 98.6362 90.318 98.8692ZM90.318 113.548C90.2119 116.908 93.1487 119.043 95.4858 118.856C95.9067 116.149 93.1642 113.307 90.318 113.548ZM90.3347 106.26C90.027 108.974 92.9985 111.995 95.4882 111.532C95.9592 109.438 93.7521 106.094 90.3347 106.256V106.26Z"
                  fill="white" />
              </g>
              <defs>
                <filter id="filter0_d_276_4958" x="0.367188" y="0.36731" width="220.012" height="220.012"
                  filterUnits="userSpaceOnUse" color-interpolation-filters="sRGB">
                  <feFlood flood-opacity="0" result="BackgroundImageFix" />
                  <feColorMatrix in="SourceAlpha" type="matrix" values="0 0 0 0 0 0 0 0 0 0 0 0 0 0 0 0 0 0 127 0"
                    result="hardAlpha" />
                  <feOffset dy="4" />
                  <feGaussianBlur stdDeviation="20" />
                  <feComposite in2="hardAlpha" operator="out" />
                  <feColorMatrix type="matrix" values="0 0 0 0 0 0 0 0 0 0 0 0 0 0 0 0 0 0 0.25 0" />
                  <feBlend mode="normal" in2="BackgroundImageFix" result="effect1_dropShadow_276_4958" />
                  <feBlend mode="normal" in="SourceGraphic" in2="effect1_dropShadow_276_4958" result="shape" />
                </filter>
                <filter id="filter1_d_276_4958" x="30.8135" y="30.5212" width="159.897" height="159.898"
                  filterUnits="userSpaceOnUse" color-interpolation-filters="sRGB">
                  <feFlood flood-opacity="0" result="BackgroundImageFix" />
                  <feColorMatrix in="SourceAlpha" type="matrix" values="0 0 0 0 0 0 0 0 0 0 0 0 0 0 0 0 0 0 127 0"
                    result="hardAlpha" />
                  <feOffset dy="4" />
                  <feGaussianBlur stdDeviation="20" />
                  <feComposite in2="hardAlpha" operator="out" />
                  <feColorMatrix type="matrix" values="0 0 0 0 0 0 0 0 0 0 0 0 0 0 0 0 0 0 0.25 0" />
                  <feBlend mode="normal" in2="BackgroundImageFix" result="effect1_dropShadow_276_4958" />
                  <feBlend mode="normal" in="SourceGraphic" in2="effect1_dropShadow_276_4958" result="shape" />
                </filter>
                <filter id="filter2_d_276_4958" x="30.4307" y="30.1388" width="160.664" height="160.664"
                  filterUnits="userSpaceOnUse" color-interpolation-filters="sRGB">
                  <feFlood flood-opacity="0" result="BackgroundImageFix" />
                  <feColorMatrix in="SourceAlpha" type="matrix" values="0 0 0 0 0 0 0 0 0 0 0 0 0 0 0 0 0 0 127 0"
                    result="hardAlpha" />
                  <feOffset dy="4" />
                  <feGaussianBlur stdDeviation="20" />
                  <feComposite in2="hardAlpha" operator="out" />
                  <feColorMatrix type="matrix" values="0 0 0 0 0 0 0 0 0 0 0 0 0 0 0 0 0 0 0.25 0" />
                  <feBlend mode="normal" in2="BackgroundImageFix" result="effect1_dropShadow_276_4958" />
                  <feBlend mode="normal" in="SourceGraphic" in2="effect1_dropShadow_276_4958" result="shape" />
                </filter>
                <linearGradient id="paint0_linear_276_4958" x1="113.827" y1="36.4541" x2="106.92" y2="176.26"
                  gradientUnits="userSpaceOnUse">
                  <stop offset="0.3" stop-color="white" />
                  <stop offset="0.77" stop-color="white" />
                </linearGradient>
                <linearGradient id="paint1_linear_276_4958" x1="146.295" y1="88.2309" x2="75.2458" y2="124.701"
                  gradientUnits="userSpaceOnUse">
                  <stop class="svg-color" offset="0.3" stop-color="#0B327D" />
                  <stop class="svg-color" offset="0.77" stop-color="#0B327D" />
                </linearGradient>
                <clipPath id="clip0_276_4958">
                  <rect width="42.3587" height="42.3587" fill="white" transform="translate(89.2734 84.556)" />
                </clipPath>
              </defs>
	    </g>
    </symbol>

    <symbol id="fb" viewBox="0 0 512 512">
            <g>
                <path class="fb-icon" d="M288,176v-64c0-17.664,14.336-32,32-32h32V0h-64c-53.024,0-96,42.976-96,96v80h-64v80h64v256h96V256h64l32-80H288z"/>
            </g>
    </symbol>

    <symbol id="tw" viewBox="0 0 24 24">
            <g>
                <path d="m21.534 7.113c.976-.693 1.797-1.558 2.466-2.554v-.001c-.893.391-1.843.651-2.835.777 1.02-.609 1.799-1.566 2.165-2.719-.951.567-2.001.967-3.12 1.191-.903-.962-2.19-1.557-3.594-1.557-2.724 0-4.917 2.211-4.917 4.921 0 .39.033.765.114 1.122-4.09-.2-7.71-2.16-10.142-5.147-.424.737-.674 1.58-.674 2.487 0 1.704.877 3.214 2.186 4.089-.791-.015-1.566-.245-2.223-.606v.054c0 2.391 1.705 4.377 3.942 4.835-.401.11-.837.162-1.29.162-.315 0-.633-.018-.931-.084.637 1.948 2.447 3.381 4.597 3.428-1.674 1.309-3.8 2.098-6.101 2.098-.403 0-.79-.018-1.177-.067 2.18 1.405 4.762 2.208 7.548 2.208 8.683 0 14.342-7.244 13.986-14.637z"/>
            </g>
    </symbol>

    <symbol id="in" viewBox="0 0 97.395 97.395">
            <g>
                <path d="M12.501,0h72.393c6.875,0,12.5,5.09,12.5,12.5v72.395c0,7.41-5.625,12.5-12.5,12.5H12.501C5.624,97.395,0,92.305,0,84.895
                    V12.5C0,5.09,5.624,0,12.501,0L12.501,0z M70.948,10.821c-2.412,0-4.383,1.972-4.383,4.385v10.495c0,2.412,1.971,4.385,4.383,4.385
                    h11.008c2.412,0,4.385-1.973,4.385-4.385V15.206c0-2.413-1.973-4.385-4.385-4.385H70.948L70.948,10.821z M86.387,41.188h-8.572
                    c0.811,2.648,1.25,5.453,1.25,8.355c0,16.2-13.556,29.332-30.275,29.332c-16.718,0-30.272-13.132-30.272-29.332
                    c0-2.904,0.438-5.708,1.25-8.355h-8.945v41.141c0,2.129,1.742,3.872,3.872,3.872h67.822c2.13,0,3.872-1.742,3.872-3.872V41.188
                    H86.387z M48.789,29.533c-10.802,0-19.56,8.485-19.56,18.953c0,10.468,8.758,18.953,19.56,18.953
                    c10.803,0,19.562-8.485,19.562-18.953C68.351,38.018,59.593,29.533,48.789,29.533z"/>
            </g>
    </symbol>


</svg>
