<svg width="124" height="153" viewBox="0 0 124 153" fill="none" xmlns="http://www.w3.org/2000/svg">
<path d="M90.7986 62.4235C76.0829 69.9215 62.0086 69.1016 57.6886 63.3117C55.5437 56.4135 63.3378 44.9077 78.0535 37.4097C92.7691 29.9117 110.845 30.5192 116.235 33.4806C115.463 39.5822 105.514 54.9255 90.7986 62.4235Z" fill="#716E6E"/>
<path fill-rule="evenodd" clip-rule="evenodd" d="M70.3427 66.0817C75.9275 66.0736 82.8525 64.4869 89.9956 60.8474C97.0773 57.239 103.057 51.7143 107.364 46.3242C109.513 43.6338 111.226 41.0026 112.439 38.6983C113.304 37.0557 113.885 35.6378 114.207 34.5176C113.123 34.1312 111.651 33.7859 109.832 33.5443C107.275 33.2047 104.164 33.0869 100.746 33.2887C93.8992 33.6929 85.9508 35.3711 78.8565 38.9858C71.699 42.6328 66.295 47.2212 62.9616 51.6495C59.6878 55.9985 58.6358 59.8629 59.2955 62.4932C61.0499 64.5929 64.8574 66.0896 70.3427 66.0817ZM57.6886 63.3117C55.5437 56.4135 63.3378 44.9077 78.0535 37.4097C92.7691 29.9117 110.845 30.5192 116.235 33.4806C115.463 39.5822 105.514 54.9255 90.7986 62.4235C76.0829 69.9215 62.0086 69.1016 57.6886 63.3117Z" fill="white"/>
<path d="M86.5762 46.0143C78.8225 60.5968 66.8232 67.9979 59.9635 65.733C54.2499 61.3126 54.035 47.4171 61.7887 32.8345C69.5424 18.2519 84.6977 8.38171 90.8118 7.71581C93.6787 13.157 94.3299 31.4317 86.5762 46.0143Z" fill="#B9B9B9"/>
<path fill-rule="evenodd" clip-rule="evenodd" d="M71.9179 60.7439C76.4881 57.534 81.2507 52.2622 85.0144 45.1838C88.7458 38.1661 90.4751 30.2107 90.9114 23.3252C91.1291 19.8884 91.0225 16.7509 90.695 14.1672C90.4615 12.3254 90.1238 10.8309 89.7454 9.72834C88.6353 10.0339 87.232 10.5951 85.6029 11.4408C83.3133 12.6294 80.6975 14.3173 78.0133 16.4431C72.6369 20.7012 67.0885 26.6349 63.3505 33.6649C59.5792 40.7577 57.7843 47.6159 57.5937 53.1554C57.4065 58.5957 58.7613 62.3645 60.8104 64.1408C63.4518 64.8545 67.4292 63.8966 71.9179 60.7439ZM59.9635 65.733C54.2499 61.3126 54.035 47.4171 61.7887 32.8345C69.5424 18.2519 84.6977 8.38171 90.8118 7.71581C93.6787 13.157 94.3299 31.4317 86.5762 46.0143C78.8225 60.5968 66.8232 67.9979 59.9635 65.733Z" fill="white"/>
<path d="M45.6038 37.4101C60.3195 44.9081 67.9289 56.7764 65.7839 63.6746C61.4639 69.4645 47.5743 69.9219 32.8586 62.4239C18.143 54.9259 8.00975 39.9451 7.23725 33.8436C12.6276 30.8821 30.8881 29.9121 45.6038 37.4101Z" fill="#575757"/>
<path fill-rule="evenodd" clip-rule="evenodd" d="M60.587 51.8091C57.2978 47.2957 51.9438 42.6258 44.8007 38.9862C37.7189 35.3779 29.7346 33.7876 22.8425 33.4716C19.4024 33.3139 16.2673 33.4752 13.6897 33.8478C11.8523 34.1134 10.3639 34.477 9.26809 34.8746C9.59299 35.9792 10.1786 37.3726 11.0526 38.9866C12.281 41.2552 14.0142 43.8411 16.1866 46.4878C20.5378 51.7891 26.5675 57.2331 33.6617 60.8478C40.8192 64.4947 47.7077 66.1696 53.2496 66.2636C58.6924 66.3558 62.437 64.9354 64.1773 62.8557C64.8447 60.2022 63.8176 56.2421 60.587 51.8091ZM65.7839 63.6746C61.4639 69.4645 47.5743 69.9219 32.8586 62.4239C18.143 54.9259 8.00975 39.9451 7.23725 33.8436C12.6276 30.8821 30.8881 29.9121 45.6038 37.4101C60.3195 44.9081 67.9289 56.7764 65.7839 63.6746Z" fill="white"/>
<path d="M62.0828 32.8339C69.8365 47.4165 69.2624 61.503 63.5487 65.9234C56.689 68.1884 45.049 60.5963 37.2953 46.0137C29.5416 31.4311 29.8336 13.3474 32.7005 7.90626C38.8145 8.57216 54.3291 18.2514 62.0828 32.8339Z" fill="#737373"/>
<path fill-rule="evenodd" clip-rule="evenodd" d="M66.0974 53.2229C65.9919 47.6391 64.2846 40.7428 60.521 33.6644C56.7896 26.6467 51.1613 20.7644 45.6969 16.5524C42.9694 14.45 40.3087 12.7839 37.9836 11.6107C36.3261 10.7743 34.8983 10.2186 33.7726 9.91571C33.4052 11.0069 33.0857 12.4841 32.8759 14.3076C32.5809 16.8705 32.5175 19.9829 32.7789 23.3969C33.3025 30.2353 35.1192 38.1532 38.8571 45.1832C42.6284 52.276 47.3105 57.5991 51.7963 60.8548C56.2018 64.0522 60.0839 65.0365 62.7023 64.331C64.771 62.5402 66.2011 58.7072 66.0974 53.2229ZM63.5487 65.9234C56.689 68.1884 45.049 60.5963 37.2953 46.0137C29.5416 31.4311 29.8336 13.3474 32.7005 7.90626C38.8145 8.57216 54.3291 18.2514 62.0828 32.8339C69.8365 47.4165 69.2624 61.503 63.5487 65.9234Z" fill="white"/>
<path d="M76.224 35.804C76.224 52.3198 69.1039 64.4879 61.9838 65.7085C54.8636 64.4879 48.1504 52.3198 48.1504 35.804C48.1504 19.2882 56.898 3.45834 61.9838 0C67.0695 3.45834 76.224 19.2882 76.224 35.804Z" fill="#F9F9F9"/>
<path fill-rule="evenodd" clip-rule="evenodd" d="M70.1966 55.6912C72.7249 50.7114 74.4551 43.8208 74.4551 35.804C74.4551 27.8559 72.2472 20.0199 69.3998 13.7355C67.9786 10.5988 66.4115 7.87858 64.9093 5.7511C63.8385 4.23451 62.8388 3.07347 61.987 2.27759C61.1504 3.06855 60.1747 4.2229 59.1334 5.7344C57.6698 7.85882 56.1525 10.5771 54.7806 13.7142C52.0325 19.998 49.9193 27.842 49.9193 35.804C49.9193 43.8371 51.5542 50.7352 53.9865 55.7157C56.3753 60.6071 59.3409 63.2988 61.984 63.9051C64.6513 63.2952 67.7135 60.5822 70.1966 55.6912ZM61.9838 65.7085C54.8636 64.4879 48.1504 52.3198 48.1504 35.804C48.1504 19.2882 56.898 3.45834 61.9838 0C67.0695 3.45834 76.224 19.2882 76.224 35.804C76.224 52.3198 69.1039 64.4879 61.9838 65.7085Z" fill="white"/>
<path d="M61.9095 35.804C61.9095 52.3198 61.9095 56.1472 61.9095 65.7085C54.7894 64.4879 48.0762 52.3198 48.0762 35.804C48.0762 19.2882 56.8237 3.45834 61.9095 0C61.9095 6.71325 61.9095 19.2882 61.9095 35.804Z" fill="#D2D1D1"/>
<path d="M0.957031 98.6267V90.4402H9.60343V98.6267H0.957031ZM9.41947 152.069H1.141V107.181H9.41947V152.069Z" fill="white"/>
<path d="M31.4709 107.181H34.6903C40.2706 107.181 43.0608 109.91 43.0608 115.368V152.069H34.7823V116.563C34.7823 115.46 34.5984 114.754 34.2304 114.448C33.8625 114.08 33.1266 113.896 32.0228 113.896H28.8034C27.6996 113.896 26.9025 114.141 26.4119 114.632C25.9826 115.122 25.768 115.95 25.768 117.115V152.069H17.4895V107.181H25.768V110.768C26.5652 108.377 28.4662 107.181 31.4709 107.181Z" fill="white"/>
<path d="M66.0781 143.054V135.604C66.0781 134.5 65.8941 133.795 65.5262 133.488C65.1583 133.12 64.4224 132.936 63.3186 132.936H58.6275C52.9245 132.936 50.0731 130.238 50.0731 124.842V115.368C50.0731 109.91 52.9245 107.181 58.6275 107.181H65.3422C71.1065 107.181 73.9886 109.91 73.9886 115.368V119.691H65.8941V116.195C65.8941 115.092 65.7102 114.386 65.3422 114.08C64.9743 113.712 64.2384 113.528 63.1346 113.528H60.927C59.8232 113.528 59.0874 113.712 58.7195 114.08C58.3515 114.386 58.1676 115.092 58.1676 116.195V123.922C58.1676 125.026 58.3515 125.762 58.7195 126.13C59.0874 126.436 59.8232 126.589 60.927 126.589H65.7102C71.3518 126.589 74.1726 129.318 74.1726 134.776V143.974C74.1726 149.371 71.3211 152.069 65.6182 152.069H58.8114C53.1085 152.069 50.257 149.371 50.257 143.974V139.559H58.3515V143.054C58.3515 144.158 58.5355 144.894 58.9034 145.262C59.2713 145.569 60.0072 145.722 61.111 145.722H63.3186C64.4224 145.722 65.1583 145.569 65.5262 145.262C65.8941 144.894 66.0781 144.158 66.0781 143.054Z" fill="white"/>
<path d="M89.2693 107.181H99.1115C104.814 107.181 107.666 109.91 107.666 115.368V143.974C107.666 149.371 104.814 152.069 99.1115 152.069H89.2693C83.6277 152.069 80.8069 149.371 80.8069 143.974V115.368C80.8069 109.91 83.6277 107.181 89.2693 107.181ZM99.4794 142.778V116.471C99.4794 115.368 99.2954 114.632 98.9275 114.264C98.5596 113.896 97.8237 113.712 96.7199 113.712H91.6608C90.557 113.712 89.8212 113.896 89.4533 114.264C89.1466 114.632 88.9933 115.368 88.9933 116.471V142.778C88.9933 143.882 89.1466 144.618 89.4533 144.986C89.8212 145.354 90.557 145.538 91.6608 145.538H96.7199C97.8237 145.538 98.5596 145.354 98.9275 144.986C99.2954 144.618 99.4794 143.882 99.4794 142.778Z" fill="white"/>
<path d="M123.59 152.069H115.311V90.5322H123.59V152.069Z" fill="white"/>
</svg>
