<svg width="62" height="63" viewBox="0 0 62 63" fill="none" xmlns="http://www.w3.org/2000/svg">
<path d="M31.012 58.7062C27.332 58.7062 23.76 57.9862 20.4 56.5622C17.152 55.1902 14.236 53.2222 11.732 50.7182C9.22799 48.2142 7.26399 45.2982 5.88799 42.0502C4.46799 38.6902 3.74399 35.1182 3.74399 31.4382C3.74399 27.7582 4.46399 24.1862 5.88799 20.8262C7.25999 17.5782 9.22799 14.6622 11.732 12.1582C14.236 9.65417 17.152 7.69017 20.4 6.31417C23.76 4.89417 27.332 4.17017 31.012 4.17017C34.692 4.17017 38.264 4.89017 41.624 6.31417C44.872 7.68617 47.788 9.65417 50.292 12.1582C52.796 14.6622 54.76 17.5782 56.136 20.8262C57.556 24.1862 58.28 27.7582 58.28 31.4382C58.28 35.1182 57.56 38.6902 56.136 42.0502C54.764 45.2982 52.796 48.2142 50.292 50.7182C47.788 53.2222 44.872 55.1862 41.624 56.5622C38.26 57.9822 34.692 58.7062 31.012 58.7062ZM31.012 6.09417C17.036 6.09417 5.66799 17.4622 5.66799 31.4382C5.66799 45.4142 17.036 56.7822 31.012 56.7822C44.988 56.7822 56.356 45.4142 56.356 31.4382C56.356 17.4662 44.984 6.09417 31.012 6.09417Z" fill="#36C12A"/>
<path d="M31.012 54.5382C27.896 54.5382 24.868 53.9262 22.02 52.7222C19.268 51.5582 16.8 49.8942 14.68 47.7742C12.56 45.6542 10.892 43.1822 9.73198 40.4342C8.52798 37.5862 7.91599 34.5622 7.91599 31.4422C7.91599 28.3222 8.52798 25.2982 9.73198 22.4502C10.892 19.6982 12.556 17.2302 14.68 15.1102C16.804 12.9902 19.272 11.3222 22.02 10.1622C24.868 8.95819 27.892 8.34619 31.012 8.34619C34.132 8.34619 37.156 8.95819 40.004 10.1622C42.756 11.3262 45.224 12.9902 47.344 15.1102C49.464 17.2302 51.132 19.7022 52.292 22.4502C53.496 25.2982 54.108 28.3222 54.108 31.4422C54.108 34.5622 53.496 37.5862 52.292 40.4342C51.128 43.1862 49.464 45.6542 47.344 47.7742C45.224 49.8942 42.752 51.5622 40.004 52.7222C37.152 53.9262 34.128 54.5382 31.012 54.5382ZM31.012 10.2622C19.336 10.2622 9.83599 19.7622 9.83599 31.4382C9.83599 43.1142 19.336 52.6142 31.012 52.6142C42.688 52.6142 52.188 43.1142 52.188 31.4382C52.188 19.7622 42.688 10.2622 31.012 10.2622Z" fill="#36C12A"/>
<path d="M31.012 13.7302C30.48 13.7302 30.052 13.3022 30.052 12.7702V1.6702C30.052 1.13821 30.48 0.710205 31.012 0.710205C31.544 0.710205 31.972 1.13821 31.972 1.6702V12.7702C31.972 13.2982 31.54 13.7302 31.012 13.7302Z" fill="#36C12A"/>
<path d="M12.34 32.3783H1.24C0.707999 32.3783 0.279999 31.9503 0.279999 31.4183C0.279999 30.8863 0.707999 30.4583 1.24 30.4583H12.34C12.872 30.4583 13.3 30.8863 13.3 31.4183C13.3 31.9503 12.868 32.3783 12.34 32.3783Z" fill="#36C12A"/>
<path d="M30.992 62.1501C30.46 62.1501 30.032 61.7221 30.032 61.1901V50.0901C30.032 49.5581 30.46 49.1301 30.992 49.1301C31.524 49.1301 31.952 49.5581 31.952 50.0901V61.1901C31.952 61.7221 31.52 62.1501 30.992 62.1501Z" fill="#36C12A"/>
<path d="M60.76 32.4022H49.66C49.128 32.4022 48.7 31.9742 48.7 31.4422C48.7 30.9102 49.128 30.4822 49.66 30.4822H60.76C61.292 30.4822 61.72 30.9102 61.72 31.4422C61.72 31.9742 61.292 32.4022 60.76 32.4022Z" fill="#36C12A"/>
<path d="M31.012 44.0182C27.652 44.0182 24.492 42.7102 22.12 40.3342C19.744 37.9582 18.436 34.7982 18.436 31.4422C18.436 28.0862 19.744 24.9222 22.12 22.5502C24.496 20.1742 27.656 18.8662 31.012 18.8662C34.368 18.8662 37.532 20.1742 39.904 22.5502C42.28 24.9262 43.588 28.0862 43.588 31.4422C43.588 34.7982 42.28 37.9622 39.904 40.3342C37.528 42.7102 34.368 44.0182 31.012 44.0182ZM31.012 20.7822C25.136 20.7822 20.356 25.5622 20.356 31.4382C20.356 37.3142 25.136 42.0942 31.012 42.0942C36.888 42.0942 41.668 37.3142 41.668 31.4382C41.668 25.5622 36.888 20.7822 31.012 20.7822Z" fill="#36C12A"/>
<path d="M31.012 32.0543C28.848 32.0543 27.088 30.2943 27.088 28.1303C27.088 25.9663 28.848 24.2063 31.012 24.2063C33.176 24.2063 34.936 25.9663 34.936 28.1303C34.936 30.2943 33.172 32.0543 31.012 32.0543ZM31.012 26.1303C29.908 26.1303 29.008 27.0303 29.008 28.1343C29.008 29.2383 29.908 30.1383 31.012 30.1383C32.116 30.1383 33.016 29.2383 33.016 28.1343C33.016 27.0303 32.116 26.1303 31.012 26.1303Z" fill="#36C12A"/>
<path d="M36.184 37.2303H25.836C25.304 37.2303 24.876 36.8023 24.876 36.2703C24.876 32.8863 27.628 30.1343 31.012 30.1343C34.396 30.1343 37.144 32.8863 37.144 36.2703C37.144 36.8023 36.716 37.2303 36.184 37.2303ZM26.904 35.3103H35.112C34.676 33.4463 33 32.0543 31.008 32.0543C29.016 32.0543 27.34 33.4463 26.904 35.3103Z" fill="#36C12A"/>
</svg>
