<svg width="64" height="65" viewBox="0 0 64 65" fill="none" xmlns="http://www.w3.org/2000/svg">
<g clip-path="url(#clip0_46_3365)">
<path d="M24.5333 38.8301C18.6422 38.8301 13.8667 43.6056 13.8667 49.4967C13.8667 55.3879 18.6422 60.1634 24.5333 60.1634C30.4245 60.1634 35.2 55.3879 35.2 49.4967C35.1938 43.6082 30.4219 38.8363 24.5333 38.8301ZM24.5333 58.0301C19.8203 58.0301 16 54.2098 16 49.4967C16 44.7837 19.8203 40.9634 24.5333 40.9634C29.2464 40.9634 33.0667 44.7837 33.0667 49.4967C33.0615 54.2072 29.2438 58.0249 24.5333 58.0301Z" fill="#36C12A"/>
<path d="M24.5333 46.2969C25.8359 46.2969 26.6667 46.9282 26.6667 47.3636H28.8C28.8 45.848 27.4573 44.6204 25.6 44.2704V43.0969H23.4667V44.2704C21.6094 44.6178 20.2667 45.8459 20.2667 47.3636C20.2667 49.1589 22.1406 50.5636 24.5333 50.5636C25.8359 50.5636 26.6667 51.1948 26.6667 51.6303C26.6667 52.0657 25.8359 52.6969 24.5333 52.6969C23.2307 52.6969 22.4 52.0657 22.4 51.6303H20.2667C20.2667 53.1459 21.6094 54.3735 23.4667 54.7235V55.8969H25.6V54.7235C27.4573 54.3761 28.8 53.148 28.8 51.6303C28.8 49.8349 26.926 48.4303 24.5333 48.4303C23.2307 48.4303 22.4 47.799 22.4 47.3636C22.4 46.9282 23.2307 46.2969 24.5333 46.2969Z" fill="#36C12A"/>
<path d="M54.4 62.2968H9.6V36.6968H26.6667C28.4339 36.6968 29.8667 35.264 29.8667 33.4968V6.83018H41.6V19.6302H54.4V34.5635H56.5333V18.1218L43.1083 4.69684H29.8667V3.63018C29.8667 1.86299 28.4339 0.430176 26.6667 0.430176H3.2C1.43281 0.430176 0 1.86299 0 3.63018V33.4968C0 35.264 1.43281 36.6968 3.2 36.6968H7.46667V64.4302H56.5333V49.4968H54.4V62.2968ZM43.7333 8.33851L52.8917 17.4968H43.7333V8.33851ZM2.13333 33.4968V3.63018C2.13333 3.04111 2.61094 2.56351 3.2 2.56351H26.6667C27.2557 2.56351 27.7333 3.04111 27.7333 3.63018V33.4968C27.7333 34.0859 27.2557 34.5635 26.6667 34.5635H3.2C2.61094 34.5635 2.13333 34.0859 2.13333 33.4968Z" fill="#36C12A"/>
<path d="M34.1334 27.0969H36.2667V29.2303H34.1334V27.0969Z" fill="#36C12A"/>
<path d="M38.4 27.0969H51.2V29.2303H38.4V27.0969Z" fill="#36C12A"/>
<path d="M34.1334 22.8301H36.2667V24.9634H34.1334V22.8301Z" fill="#36C12A"/>
<path d="M38.4 22.8301H51.2V24.9634H38.4V22.8301Z" fill="#36C12A"/>
<path d="M34.1334 31.3635H36.2667V33.4969H34.1334V31.3635Z" fill="#36C12A"/>
<path d="M38.4 31.3635H51.2V33.4969H38.4V31.3635Z" fill="#36C12A"/>
<path d="M34.1334 35.6301H36.2667V37.7635H34.1334V35.6301Z" fill="#36C12A"/>
<path d="M38.4 35.6301H51.2V37.7635H38.4V35.6301Z" fill="#36C12A"/>
<path d="M26.6667 3.63013H3.20001V11.0968H26.6667V3.63013ZM24.5333 8.96346H5.33335V5.76346H24.5333V8.96346Z" fill="#36C12A"/>
<path d="M8.53333 12.1636H6.4C5.22187 12.1636 4.26666 13.1188 4.26666 14.2969V16.4302C4.26666 17.6084 5.22187 18.5636 6.4 18.5636H8.53333C9.71145 18.5636 10.6667 17.6084 10.6667 16.4302V14.2969C10.6667 13.1188 9.71145 12.1636 8.53333 12.1636ZM6.4 16.4302V14.2969H8.53333V16.4302H6.4Z" fill="#36C12A"/>
<path d="M16 12.1636H13.8667C12.6885 12.1636 11.7333 13.1188 11.7333 14.2969V16.4302C11.7333 17.6084 12.6885 18.5636 13.8667 18.5636H16C17.1781 18.5636 18.1333 17.6084 18.1333 16.4302V14.2969C18.1333 13.1188 17.1781 12.1636 16 12.1636ZM13.8667 16.4302V14.2969H16V16.4302H13.8667Z" fill="#36C12A"/>
<path d="M23.4667 12.1636H21.3333C20.1552 12.1636 19.2 13.1188 19.2 14.2969V16.4302C19.2 17.6084 20.1552 18.5636 21.3333 18.5636H23.4667C24.6448 18.5636 25.6 17.6084 25.6 16.4302V14.2969C25.6 13.1188 24.6448 12.1636 23.4667 12.1636ZM21.3333 16.4302V14.2969H23.4667V16.4302H21.3333Z" fill="#36C12A"/>
<path d="M8.53333 19.6301H6.4C5.22187 19.6301 4.26666 20.5853 4.26666 21.7635V23.8968C4.26666 25.0749 5.22187 26.0301 6.4 26.0301H8.53333C9.71145 26.0301 10.6667 25.0749 10.6667 23.8968V21.7635C10.6667 20.5853 9.71145 19.6301 8.53333 19.6301ZM6.4 23.8968V21.7635H8.53333V23.8968H6.4Z" fill="#36C12A"/>
<path d="M16 19.6301H13.8667C12.6885 19.6301 11.7333 20.5853 11.7333 21.7635V23.8968C11.7333 25.0749 12.6885 26.0301 13.8667 26.0301H16C17.1781 26.0301 18.1333 25.0749 18.1333 23.8968V21.7635C18.1333 20.5853 17.1781 19.6301 16 19.6301ZM13.8667 23.8968V21.7635H16V23.8968H13.8667Z" fill="#36C12A"/>
<path d="M23.4667 19.6301H21.3333C20.1552 19.6301 19.2 20.5853 19.2 21.7635V23.8968C19.2 25.0749 20.1552 26.0301 21.3333 26.0301H23.4667C24.6448 26.0301 25.6 25.0749 25.6 23.8968V21.7635C25.6 20.5853 24.6448 19.6301 23.4667 19.6301ZM21.3333 23.8968V21.7635H23.4667V23.8968H21.3333Z" fill="#36C12A"/>
<path d="M8.53333 27.0969H6.4C5.22187 27.0969 4.26666 28.0521 4.26666 29.2303V31.3636C4.26666 32.5417 5.22187 33.4969 6.4 33.4969H8.53333C9.71145 33.4969 10.6667 32.5417 10.6667 31.3636V29.2303C10.6667 28.0521 9.71145 27.0969 8.53333 27.0969ZM6.4 31.3636V29.2303H8.53333V31.3636H6.4Z" fill="#36C12A"/>
<path d="M16 27.0969H13.8667C12.6885 27.0969 11.7333 28.0521 11.7333 29.2303V31.3636C11.7333 32.5417 12.6885 33.4969 13.8667 33.4969H16C17.1781 33.4969 18.1333 32.5417 18.1333 31.3636V29.2303C18.1333 28.0521 17.1781 27.0969 16 27.0969ZM13.8667 31.3636V29.2303H16V31.3636H13.8667Z" fill="#36C12A"/>
<path d="M23.4667 27.0969H21.3333C20.1552 27.0969 19.2 28.0521 19.2 29.2303V31.3636C19.2 32.5417 20.1552 33.4969 21.3333 33.4969H23.4667C24.6448 33.4969 25.6 32.5417 25.6 31.3636V29.2303C25.6 28.0521 24.6448 27.0969 23.4667 27.0969ZM21.3333 31.3636V29.2303H23.4667V31.3636H21.3333Z" fill="#36C12A"/>
<path d="M63.0312 34.4655C61.7651 33.2566 59.7729 33.2566 58.5068 34.4655L40.2208 52.7509C40.1323 52.8405 40.0599 52.9446 40.0073 53.0592L37.4323 58.6509C37.2463 59.0561 37.3323 59.5347 37.6479 59.8498C37.963 60.1655 38.4417 60.2514 38.8469 60.0655L44.4385 57.4905C44.5531 57.4379 44.6573 57.366 44.7469 57.2769L63.0312 38.991C64.2812 37.7415 64.2812 35.715 63.0312 34.4655ZM43.3719 55.6321L40.5771 56.9196L41.8646 54.1248L55.4984 40.49L57.0068 41.9983L43.3719 55.6321ZM58.5182 40.4853L57.0099 38.9775L57.7568 38.2306L59.2651 39.7389L58.5182 40.4853ZM61.5265 37.4775L60.7724 38.2316L59.264 36.7233L60.0193 35.9691C60.4406 35.566 61.1047 35.566 61.5265 35.9691C61.9427 36.3858 61.9427 37.0608 61.5265 37.4775Z" fill="#36C12A"/>
</g>
<defs>
<clipPath id="clip0_46_3365">
<rect width="64" height="64" fill="white" transform="translate(0 0.430176)"/>
</clipPath>
</defs>
</svg>
