<svg width="62" height="63" viewBox="0 0 62 63" fill="none" xmlns="http://www.w3.org/2000/svg">
<path d="M17 24.4302H25.586L30.293 29.1372C30.488 29.3322 30.744 29.4302 31 29.4302C31.256 29.4302 31.512 29.3322 31.707 29.1372L36.414 24.4302H45C47.206 24.4302 49 22.6362 49 20.4302V4.43018C49 2.22418 47.206 0.430176 45 0.430176H17C14.794 0.430176 13 2.22418 13 4.43018V20.4302C13 22.6362 14.794 24.4302 17 24.4302ZM15 4.43018C15 3.32718 15.897 2.43018 17 2.43018H45C46.103 2.43018 47 3.32718 47 4.43018V20.4302C47 21.5332 46.103 22.4302 45 22.4302H36C35.734 22.4302 35.48 22.5352 35.293 22.7232L31 27.0162L26.707 22.7232C26.52 22.5352 26.266 22.4302 26 22.4302H17C15.897 22.4302 15 21.5332 15 20.4302V4.43018Z" fill="#36C12A"/>
<path d="M25.586 19.4302C26.232 20.0752 27.089 20.4302 28 20.4302C28.911 20.4302 29.769 20.0752 30.414 19.4302L40.707 9.13718C41.098 8.74618 41.098 8.11418 40.707 7.72318L37.707 4.72318C37.316 4.33218 36.684 4.33218 36.293 4.72318L28 13.0162L25.707 10.7232C25.316 10.3322 24.684 10.3322 24.293 10.7232L21.293 13.7232C20.902 14.1142 20.902 14.7462 21.293 15.1372L25.586 19.4302ZM25 12.8442L27.293 15.1372C27.684 15.5282 28.316 15.5282 28.707 15.1372L37 6.84418L38.586 8.43018L29 18.0152C28.465 18.5502 27.535 18.5502 27 18.0152L23.414 14.4302L25 12.8442Z" fill="#36C12A"/>
<path d="M61 32.4302H51C50.447 32.4302 50 32.8782 50 33.4302V34.4302H12V33.4302C12 32.8782 11.553 32.4302 11 32.4302H1C0.447 32.4302 0 32.8782 0 33.4302V54.4302C0 54.9822 0.447 55.4302 1 55.4302H11C11.553 55.4302 12 54.9822 12 54.4302V53.4302H15.586L23.465 61.3082C24.188 62.0322 25.148 62.4302 26.172 62.4302C27.927 62.4302 29.395 61.2352 29.845 59.6212C30.511 60.1362 31.315 60.4302 32.172 60.4302C33.927 60.4302 35.395 59.2352 35.845 57.6212C36.511 58.1362 37.315 58.4302 38.172 58.4302C39.927 58.4302 41.395 57.2352 41.845 55.6212C42.511 56.1362 43.315 56.4302 44.172 56.4302C45.997 56.4302 47.524 55.1432 47.904 53.4302H50V54.4302C50 54.9822 50.447 55.4302 51 55.4302H61C61.553 55.4302 62 54.9822 62 54.4302V33.4302C62 32.8782 61.553 32.4302 61 32.4302ZM10 53.4302H2V34.4302H10V53.4302ZM44.172 54.4302C43.691 54.4302 43.22 54.2352 42.879 53.8942L34.707 45.7232L33.293 47.1372L39.466 53.3092C39.81 53.6552 40 54.1142 40 54.6012C40 55.6102 39.18 56.4302 38.172 56.4302C37.691 56.4302 37.22 56.2352 36.879 55.8942L29.707 48.7232L28.293 50.1372L33.466 55.3092C33.81 55.6552 34 56.1142 34 56.6012C34 57.6102 33.18 58.4302 32.172 58.4302C31.691 58.4302 31.22 58.2352 30.879 57.8942L24.707 51.7232L23.293 53.1372L27.466 57.3102C27.81 57.6552 28 58.1142 28 58.6012C28 59.6102 27.18 60.4302 26.172 60.4302C25.691 60.4302 25.22 60.2352 24.879 59.8942L16.707 51.7232C16.52 51.5352 16.266 51.4302 16 51.4302H12V36.4302H26.586L22.121 40.8952C21.398 41.6182 21 42.5792 21 43.6012C21 45.7132 22.718 47.4302 24.828 47.4302C25.851 47.4302 26.812 47.0322 27.535 46.3082L32.414 41.4302H35.586L45.465 51.3082C45.81 51.6542 46 52.1132 46 52.6012C46 53.6102 45.18 54.4302 44.172 54.4302ZM47.799 51.4302C47.615 50.8602 47.314 50.3312 46.878 49.8942L36.707 39.7232C36.52 39.5352 36.266 39.4302 36 39.4302H32C31.734 39.4302 31.48 39.5352 31.293 39.7232L26.121 44.8952C25.78 45.2352 25.31 45.4302 24.828 45.4302C23.82 45.4302 23 44.6102 23 43.6012C23 43.1132 23.19 42.6532 23.535 42.3082L29.414 36.4302H50V51.4302H47.799ZM60 53.4302H52V34.4302H60V53.4302Z" fill="#36C12A"/>
</svg>
