<svg width="77" height="77" viewBox="0 0 77 77" fill="none" xmlns="http://www.w3.org/2000/svg">
<path d="M49.9 27.2002H68V31.7002H49.9V27.2002Z" fill="#F8B100"/>
<path d="M56.7 36.2998H68V40.7998H56.7V36.2998Z" fill="#F8B100"/>
<path d="M26.3 59.2L23.4 56.3L20.2 59.5L26.3 65.6L38.7 53.2L35.5 50L26.3 59.2Z" fill="#F8B100"/>
<path d="M70.2 0H6.8C3 0 0 3 0 6.8V43.1C0 46.8 3 49.9 6.8 49.9H10.2C5.4 62.9 15.6 77.3 29.4 77.1C43.2 77.3 53.4 62.9 48.6 49.9H70.2C73.9 49.9 77 46.9 77 43.1C77 42.5 77 7.8 77 6.8C77 3 74 0 70.2 0ZM4.5 13.6H72.5V18.1H4.5V13.6ZM29.5 72.5C20.8 72.5 13.6 65.4 13.6 56.6C13.6 47.4 21.4 40.2 30.5 40.8C50.8 42.9 49.8 71.8 29.5 72.5ZM72.5 43.1C72.5 44.3 71.5 45.4 70.2 45.4H46.4C39.6 35.3 25.5 33.2 16.1 41.3C14.7 42.5 13.5 43.8 12.5 45.4H6.8C5.6 45.4 4.5 44.4 4.5 43.1V22.7H72.5V43.1ZM4.5 9.1V6.8C4.5 5.6 5.5 4.5 6.8 4.5H70.3C71.5 4.5 72.6 5.5 72.6 6.8V9.1H4.5Z" fill="#F8B100"/>
</svg>
