<svg width="38" height="38" viewBox="0 0 38 38" fill="none" xmlns="http://www.w3.org/2000/svg">
<g clip-path="url(#clip0_31_6665)">
<path d="M5.62598 5.57654H7.84676V7.79732H5.62598V5.57654Z" fill="#F8B100"/>
<path d="M32.4727 5.5766C26.6987 -0.197428 18.161 -1.48055 11.2026 1.6779C6.95845 -2.1221 6.37025e-06 0.937637 0.049357 6.71166C0.049357 7.79738 0.542863 9.3766 1.62858 11.4493C-3.79999 23.4909 5.32988 38.0987 19.0494 38C35.8779 38 44.3662 17.5195 32.4727 5.5766ZM35.7299 17.8649H33.5584C32.9662 17.8649 32.4234 17.3714 32.4234 16.7298C32.4234 14.9039 30.9429 13.374 29.0675 13.374C27.2416 13.374 25.7117 11.8935 25.7117 10.0182V9.1792C25.7117 7.89608 25.0208 6.76101 23.8364 6.16881L21.813 5.18179C21.4182 4.98439 21.1714 4.58958 21.1714 4.19478V2.36881C29.0675 3.45452 35.2364 9.91945 35.7299 17.8649ZM6.7117 2.22075C9.17923 2.22075 11.2026 4.24413 11.2026 6.71166C11.2026 8.43894 8.73507 12.7818 6.7117 15.8909C4.68832 12.7818 2.22079 8.43894 2.22079 6.71166C2.27014 4.24413 4.29351 2.22075 6.7117 2.22075ZM3.0104 14.0649C4.39221 16.4831 5.77403 18.4571 5.82338 18.5065L6.76105 19.8389C6.95845 19.5428 9.17923 16.4831 11.2026 12.8311C13.6701 16.0883 13.4234 20.8259 10.4623 23.787L5.42858 28.7714C2.27014 24.3792 1.52988 18.9013 3.0104 14.0649ZM10.561 33.4597L14.7559 29.2649C15.2494 28.7714 16.0883 28.7714 16.5818 29.2649C17.9636 30.6467 20.1844 30.6467 21.5662 29.2649C23.2935 27.5376 26.0571 27.5376 27.7844 29.2649L30.1039 31.5844C24.4779 36.4701 16.6312 37.013 10.561 33.4597ZM31.6338 30.0545L29.3143 27.735C26.7481 25.1688 22.5533 25.1688 19.9377 27.735C19.4442 28.2285 18.6052 28.2285 18.1117 27.735C16.7299 26.3532 14.5091 26.3532 13.1273 27.735L8.63637 32.226C7.99481 31.7324 7.4026 31.1402 6.8104 30.548L11.9429 25.4156C15.9896 21.3688 16.0883 14.8545 12.1896 10.7091C13.5714 7.74803 13.8182 6.02075 12.5351 3.55322C14.5584 2.71426 16.7299 2.2701 18.9507 2.2701V4.24413C18.9507 5.52725 19.6416 6.66231 20.826 7.25452L22.8494 8.24153C23.2442 8.43894 23.4909 8.83374 23.4909 9.22855V10.0675C23.4909 13.1272 26.0078 15.6441 29.0675 15.6441C29.6597 15.6441 30.2026 16.1376 30.2026 16.7792C30.2026 18.6052 31.6831 20.135 33.5584 20.135H35.7792C35.4831 23.8857 34.0026 27.3402 31.6338 30.0545Z" fill="#F8B100"/>
</g>
<defs>
<clipPath id="clip0_31_6665">
<rect width="38" height="38" fill="white"/>
</clipPath>
</defs>
</svg>
