<svg width="64" height="59" viewBox="0 0 64 59" fill="none" xmlns="http://www.w3.org/2000/svg">
<path d="M62.75 47.5613H59.9599V41.8768C59.9599 41.1864 59.4001 40.6268 58.7099 40.6268C56.4389 40.6268 55.2427 40.0849 53.5871 39.3349C51.7422 38.4991 49.4461 37.459 45.0239 36.9725C42.5807 36.7036 40.5086 36.861 38.7656 37.2571C38.5827 35.3123 38.3108 33.0869 38.026 30.7588C37.4598 26.1296 36.8741 21.3429 36.8741 17.8995C36.8741 16.7339 36.9991 15.5344 37.2458 14.3344C37.5179 13.0117 37.289 11.6615 36.6201 10.5205C42.599 10.9065 47.614 11.9289 49.9744 12.477L44.5996 23.8179C44.5211 23.9837 44.4791 24.1696 44.4791 24.3532C44.4791 24.5326 44.5042 26.1541 45.3739 27.824C46.2211 29.4508 48.0164 31.3899 51.7567 31.3899C55.7374 31.3899 58.8001 28.3942 58.8001 24.3532C58.8001 24.1766 58.7609 23.9959 58.6879 23.8353L52.8961 11.1135C52.7449 10.7817 52.4445 10.5243 52.0928 10.427C51.7686 10.337 45.0754 8.50475 36.3604 7.997C36.8805 7.19137 37.1839 6.23337 37.1839 5.20512V5.16237C37.1839 2.31588 34.8681 0 32.0215 0H31.9788C29.1322 0 26.8164 2.31575 26.8164 5.16237V5.20512C26.8164 6.23337 27.1198 7.19137 27.6399 7.997C18.9248 8.50462 12.2316 10.337 11.9075 10.427C11.5559 10.5243 11.2554 10.7819 11.1041 11.1135L5.31225 23.8353C5.23913 23.9958 5.2 24.1766 5.2 24.3532C5.2 24.5315 5.224 26.1433 6.0565 27.8061C6.87488 29.4411 8.6125 31.3899 12.2434 31.3899C16.2506 31.3899 19.5211 28.4941 19.5211 24.3532C19.5211 24.1696 19.4791 23.9837 19.4006 23.8179L14.0256 12.4765C16.3875 11.9273 21.4097 10.9028 27.4062 10.5185C26.7213 11.6695 26.4829 13.022 26.7546 14.3343C27.0013 15.5339 27.1262 16.7334 27.1262 17.8995C27.1262 21.3423 26.5404 26.128 25.9739 30.7563C25.6887 33.0851 25.4166 35.3115 25.2336 37.257C23.4908 36.8609 21.419 36.7038 18.9764 36.9725C14.554 37.459 12.258 38.4991 10.4131 39.3349C8.7575 40.0849 7.56125 40.6268 5.29038 40.6268C4.60013 40.6268 4.04038 41.1864 4.04038 41.8768V47.5613H1.25C0.55975 47.5613 0 48.1209 0 48.8113V54.6665C0 55.3569 0.55975 55.9165 1.25 55.9165H26.9461C27.5741 55.9165 27.8446 56.2893 28.2045 56.7224C28.8908 57.548 30.0869 58.4303 31.3856 58.4303H32.364C33.7048 58.4303 34.966 57.7161 35.6558 56.5665C35.8635 56.2203 36.5168 55.9165 37.0537 55.9165H43.7536C44.4439 55.9165 45.0036 55.3569 45.0036 54.6665C45.0036 53.9761 44.4439 53.4165 43.7536 53.4165H37.0537C35.8866 53.4165 34.2804 53.9998 33.512 55.2804C33.2715 55.6813 32.8317 55.9303 32.364 55.9303H31.3856C31.1138 55.9303 30.5853 55.6462 30.1774 55.1831C29.4761 54.0906 28.2485 53.4165 26.946 53.4165H2.5V50.0613H61.5V53.4165H54.7347C54.0445 53.4165 53.4847 53.9761 53.4847 54.6665C53.4847 55.3569 54.0445 55.9165 54.7347 55.9165H62.75C63.4403 55.9165 64 55.3569 64 54.6665V48.8113C64 48.1209 63.4403 47.5613 62.75 47.5613ZM55.6745 26.7526C54.9266 28.1908 53.6451 28.8899 51.7566 28.8899C48.5936 28.8899 47.5238 26.9592 47.1624 25.6032H56.1089C56.0163 25.9609 55.8787 26.3602 55.6745 26.7526ZM47.7048 23.1032L51.7355 14.5983L55.6076 23.1032H47.7048ZM29.3162 5.1625C29.3162 3.6945 30.5106 2.50012 31.9786 2.50012H32.0214C33.4894 2.50012 34.6838 3.6945 34.6838 5.1625V5.20525C34.6838 6.67325 33.4895 7.86763 32.0215 7.86763C32.0141 7.86763 32.0069 7.867 31.9996 7.867C31.9925 7.867 31.9855 7.86763 31.9785 7.86763C30.5106 7.8675 29.3164 6.67325 29.3164 5.20525V5.1625H29.3162ZM16.4089 26.6691C15.6305 28.1635 14.268 28.8899 12.2432 28.8899C10.0735 28.8899 8.44312 27.7335 7.891 25.6032H16.8214C16.731 25.9347 16.5996 26.3029 16.4089 26.6691ZM8.3925 23.1032L12.2646 14.5983L16.2954 23.1032H8.3925ZM28.4552 31.0601C29.0309 26.3575 29.6261 21.4947 29.6261 17.8996C29.6261 16.5646 29.4839 15.1957 29.2029 13.8292C28.8415 12.084 30.2512 10.3676 32.0247 10.3676C33.8107 10.3833 35.1555 12.0876 34.797 13.831C34.5164 15.1965 34.3741 16.5654 34.3741 17.8996C34.3741 21.4954 34.9691 26.3589 35.5444 31.0624C35.8543 33.5959 36.1494 36.0078 36.3262 38.0364C34.2606 38.9065 32.858 40.0859 32.0001 40.9977C31.142 40.0856 29.739 38.9062 27.6728 38.036C27.8498 36.007 28.145 33.5941 28.4552 31.0601ZM6.54012 43.0742C8.61712 42.8929 9.997 42.2677 11.4444 41.6121C13.2155 40.8099 15.2229 39.9005 19.2495 39.4575C23.316 39.0103 28.1764 39.8714 30.7499 43.3889V47.5611H6.54012V43.0742ZM33.25 47.5613V43.3923C35.8556 39.8891 40.6612 39.0078 44.7504 39.4576C48.7771 39.9006 50.7844 40.8099 52.5554 41.6123C54.0029 42.268 55.3828 42.893 57.4598 43.0744V47.5614H33.25V47.5613Z" fill="#36C12A"/>
<path d="M50.4561 54.189C50.1979 53.5585 49.4531 53.2532 48.8249 53.5127C48.1951 53.7729 47.8881 54.5159 48.1486 55.1452C48.4086 55.7734 49.1535 56.082 49.7812 55.8202C50.4092 55.5584 50.7185 54.8182 50.4561 54.189Z" fill="#36C12A"/>
</svg>
