<svg width="34" height="36" viewBox="0 0 34 36" fill="none" xmlns="http://www.w3.org/2000/svg">
<path d="M16.0398 2.61646C15.7731 2.34973 15.3968 2.22217 15.0233 2.28189C14.6511 2.33755 14.327 2.56717 14.1507 2.90057L6.67779 17.0172L2.60445 21.09C1.35143 22.3441 0.968162 24.1248 1.41116 25.7217C-0.0552452 27.5841 0.0491249 30.2879 1.76543 32.0065C2.69201 32.9319 3.9085 33.3946 5.12499 33.3946C6.16406 33.3946 7.19152 33.0357 8.04968 32.3602C8.46658 32.4762 8.89218 32.555 9.32241 32.555C10.1556 32.5544 10.9825 32.3208 11.7223 31.8865L14.7816 34.9445C15.3596 35.5232 16.1198 35.812 16.88 35.812C17.6401 35.812 18.4009 35.5232 18.9796 34.9445C20.1369 33.7872 20.1369 31.9039 18.9796 30.7465L16.0404 27.8073L16.7541 27.0936L30.8708 19.6195C31.2036 19.4432 31.4332 19.1191 31.4901 18.7463C31.5457 18.374 31.4216 17.9966 31.1549 17.7304L16.0398 2.61646ZM3.44521 30.3267C2.82653 29.7075 2.63055 28.8313 2.83871 28.0404L5.73092 30.9326C4.94061 31.1408 4.06448 30.9454 3.44521 30.3267ZM7.64379 29.4871L4.28423 26.1276C3.35882 25.2021 3.35882 23.6952 4.28423 22.7692L7.64379 19.4096L14.3618 26.1276L11.0022 29.4865C10.0768 30.4131 8.57037 30.4137 7.64379 29.4871ZM17.3004 32.4257C17.4494 32.5747 17.472 32.7527 17.472 32.8455C17.472 32.9383 17.4494 33.1163 17.3009 33.2647C17.0736 33.4909 16.6892 33.4938 16.4608 33.2653L13.521 30.3267L14.3612 29.4865L17.3004 32.4257ZM16.2601 24.6681L9.10382 17.5107L15.4976 5.43271L28.3392 18.2731L16.2601 24.6681ZM20.5625 3.75061V1.37561C20.5625 0.719818 21.0936 0.18811 21.75 0.18811C22.4064 0.18811 22.9375 0.719818 22.9375 1.37561V3.75061C22.9375 4.4064 22.4064 4.93811 21.75 4.93811C21.0936 4.93811 20.5625 4.4064 20.5625 3.75061ZM33.625 12.0625C33.625 12.7183 33.0939 13.25 32.4375 13.25H30.0625C29.4061 13.25 28.875 12.7183 28.875 12.0625C28.875 11.4067 29.4061 10.875 30.0625 10.875H32.4375C33.0939 10.875 33.625 11.4067 33.625 12.0625ZM25.6604 8.15213C25.1965 7.68826 25.1965 6.9368 25.6604 6.47293L28.0354 4.09793C28.4993 3.63406 29.2507 3.63406 29.7146 4.09793C30.1785 4.5618 30.1785 5.31326 29.7146 5.77713L27.3396 8.15213C27.1077 8.38406 26.8038 8.50003 26.5 8.50003C26.1962 8.50003 25.8923 8.38406 25.6604 8.15213Z" fill="#F8B100"/>
</svg>
