<svg width="77" height="62" viewBox="0 0 77 62" fill="none" xmlns="http://www.w3.org/2000/svg">
<g clip-path="url(#clip0_31_6631)">
<path d="M77 52.1V47.6H72.5C72.5 43.2 72.5 15.8 72.5 11.4H54.4V2.2H49.9V33.9H45.4C45.4 31.3 45.4 16 45.4 13.6C45.3 6.1 39.2 0 31.7 0H11.3V25.2H0V52.4H0.1C-0.1 53.9 0.2 55.4 0.8 56.7H0V61.2H77V56.7H43.6C44.7 55.1 45.3 53.1 45.3 51.1V38.5H49.8V52.1H77ZM15.9 4.5H31.8C36.8 4.5 40.9 8.6 40.9 13.6V26.6L36.4 22.1V18.4H31.9V24L37.7 29.8H30.6L25.9 25.3H16.1L15.9 4.5ZM23.9 29.7L28.6 34.2H40.8V42.5C35.3 38.7 27.4 41.5 25.5 47.8H13.7C11.3 45.3 7.6 44.7 4.6 46.1V29.7H23.9ZM15.8 52.4H25C25.2 54 25.8 55.4 26.6 56.7H15.1C15.7 55.3 16 53.9 15.8 52.4ZM4.5 53.3C4.5 51.4 6 49.9 7.9 49.9C12.1 50 12.5 55.8 8.5 56.6H7.4C5.8 56.4 4.5 55 4.5 53.3ZM34.4 56.7C31.6 56.3 29.5 54 29.5 51.1C29.8 43.6 40.5 43.6 40.8 51.1C40.8 54 38.7 56.3 35.9 56.7H34.4ZM54.4 47.5V34H58.9V38.5H63.4V34H68V47.5H54.4ZM58.9 15.9V20.4H63.4V15.9H68V29.5H54.4V15.9H58.9Z" fill="#F8B100"/>
</g>
<defs>
<clipPath id="clip0_31_6631">
<rect width="77" height="61.2" fill="white"/>
</clipPath>
</defs>
</svg>
