<svg width="38" height="38" viewBox="0 0 38 38" fill="none" xmlns="http://www.w3.org/2000/svg">
<path d="M32.432 5.56798C25.0087 -1.8554 12.9924 -1.85659 5.56801 5.56798C-1.85545 12.9914 -1.85656 25.0075 5.56801 32.432C12.9912 39.8554 25.0075 39.8565 32.432 32.432C39.8554 25.0086 39.8565 12.9925 32.432 5.56798ZM31.638 29.7242C30.7505 28.9306 29.8011 28.2282 28.8004 27.6229C29.4619 25.3382 29.8537 22.824 29.9463 20.2105H35.5311C35.2786 23.7333 33.9251 27.0378 31.638 29.7242ZM2.46879 20.2105H8.05357C8.1462 22.824 8.53805 25.3382 9.19947 27.6229C8.19877 28.2282 7.2494 28.9306 6.36188 29.7242C4.07484 27.0378 2.72137 23.7333 2.46879 20.2105ZM6.36195 8.27579C7.24948 9.06944 8.19885 9.77179 9.19954 10.3771C8.53812 12.6618 8.14627 15.176 8.05365 17.7895H2.46879C2.72137 14.2668 4.07484 10.9623 6.36195 8.27579ZM17.7895 10.6273C15.8153 10.4861 13.9117 9.99983 12.147 9.19766C13.1733 6.55473 15.0654 3.38484 17.7895 2.59928V10.6273ZM17.7895 13.0528V17.7896H10.4757C10.5595 15.5787 10.8727 13.4558 11.3937 11.5134C13.3991 12.3901 15.5559 12.9136 17.7895 13.0528ZM17.7895 20.2105V24.9472C15.5559 25.0864 13.3991 25.61 11.3937 26.4867C10.8727 24.5443 10.5595 22.4213 10.4757 20.2105H17.7895ZM17.7895 27.3728V35.4007C15.0655 34.6152 13.1735 31.4456 12.147 28.8024C13.9117 28.0002 15.8153 27.514 17.7895 27.3728ZM20.2105 27.3728C22.1847 27.514 24.0883 28.0002 25.853 28.8024C24.8266 31.4454 22.9346 34.6152 20.2105 35.4007V27.3728ZM20.2105 24.9472V20.2105H27.5243C27.4405 22.4213 27.1273 24.5443 26.6063 26.4867C24.6009 25.61 22.444 25.0864 20.2105 24.9472ZM20.2105 17.7896V13.0528C22.444 12.9136 24.6009 12.3901 26.6063 11.5134C27.1273 13.4558 27.4405 15.5787 27.5243 17.7896H20.2105ZM20.2105 10.6273V2.59936C22.9346 3.38491 24.8267 6.55481 25.853 9.19773C24.0883 9.99982 22.1847 10.4861 20.2105 10.6273ZM25.6478 3.80791C27.1973 4.48646 28.6429 5.40654 29.9388 6.54813C29.322 7.09201 28.6711 7.58516 27.9915 8.02618C27.3879 6.53174 26.6169 5.07943 25.6478 3.80791ZM10.0085 8.02618C9.3288 7.58516 8.67798 7.09201 8.06106 6.54813C9.35698 5.40654 10.8026 4.48646 12.3522 3.80791C11.3831 5.07958 10.612 6.53189 10.0085 8.02618ZM10.0085 29.9739C10.612 31.4683 11.3832 32.9206 12.3522 34.1922C10.8027 33.5136 9.35705 32.5935 8.06114 31.4519C8.67799 30.9081 9.32887 30.4149 10.0085 29.9739ZM27.9915 29.9739C28.6711 30.4149 29.322 30.9081 29.9388 31.4519C28.6429 32.5935 27.1973 33.5135 25.6478 34.1921C26.6168 32.9207 27.3879 31.4683 27.9915 29.9739ZM29.9464 17.7896C29.8538 15.1761 29.4619 12.6618 28.8005 10.3771C29.8012 9.77186 30.7505 9.06951 31.6381 8.27587C33.9251 10.9622 35.2786 14.2668 35.5312 17.7896H29.9464Z" fill="#F8B100"/>
</svg>
