<svg width="64" height="77" viewBox="0 0 64 77" fill="none" xmlns="http://www.w3.org/2000/svg">
<g clip-path="url(#clip0_31_6619)">
<path d="M51.1 45.5L43.9 52.5L41.1 49.6L37.8 52.8L43.8 59L54.3 48.9L51.1 45.5Z" fill="#F8B100"/>
<path d="M31.7 18.1001C30.7 18.1001 10 18.1001 9 18.1001V40.8001H31.7V18.1001ZM27.2 36.3001H13.6V22.7001H18.1V27.2001H22.6V22.7001H27.1V36.3001H27.2Z" fill="#F8B100"/>
<path d="M36.3 18.1001H54.4V22.6001H36.3V18.1001Z" fill="#F8B100"/>
<path d="M36.3 27.2002H54.4V31.7002H36.3V27.2002Z" fill="#F8B100"/>
<path d="M36.3 36.2998H54.4V40.7998H36.3V36.2998Z" fill="#F8B100"/>
<path d="M9.09998 45.2998H31.8V49.7998H9.09998V45.2998Z" fill="#F8B100"/>
<path d="M9.10001 54.3999H31.8V58.8999H9.10001V54.3999Z" fill="#F8B100"/>
<path d="M9.10001 63.5H54.4V68H9.10001V63.5Z" fill="#F8B100"/>
<path d="M49.9 4.5V0H13.6V4.5H0V77H63.5V4.5H49.9ZM18.1 4.5H45.3V9H18.1V4.5ZM58.9 72.5H4.5V9.1H13.6V13.6H49.9V9.1H59V72.5H58.9Z" fill="#F8B100"/>
</g>
<defs>
<clipPath id="clip0_31_6619">
<rect width="63.5" height="77" fill="white"/>
</clipPath>
</defs>
</svg>
