<svg width="126" height="126" viewBox="0 0 126 126" fill="none" xmlns="http://www.w3.org/2000/svg">
<path d="M73.5 10.5H31.5C28.7152 10.5 26.0445 11.6062 24.0754 13.5754C22.1062 15.5445 21 18.2152 21 21V105C21 107.785 22.1062 110.455 24.0754 112.425C26.0445 114.394 28.7152 115.5 31.5 115.5H94.5C97.2848 115.5 99.9555 114.394 101.925 112.425C103.894 110.455 105 107.785 105 105V42L73.5 10.5Z" stroke="#36C12A" stroke-width="3" stroke-linecap="round" stroke-linejoin="round"/>
<path d="M73.5 10.5V42H105" stroke="#36C12A" stroke-width="3" stroke-linecap="round" stroke-linejoin="round"/>
<path d="M84 68.25H42" stroke="#36C12A" stroke-width="3" stroke-linecap="round" stroke-linejoin="round"/>
<path d="M84 89.25H42" stroke="#36C12A" stroke-width="3" stroke-linecap="round" stroke-linejoin="round"/>
<path d="M52.5 47.25H47.25H42" stroke="#36C12A" stroke-width="3" stroke-linecap="round" stroke-linejoin="round"/>
</svg>
