<svg width="93" height="20" viewBox="0 0 93 20" fill="none" xmlns="http://www.w3.org/2000/svg">
<g clip-path="url(#clip0_31_7262)">
<path d="M8.57805 6.66602C11.6444 6.66602 14.7108 6.66602 17.7771 6.66602C17.7771 11.0974 17.7771 15.568 17.7771 20.0386H0V11.2543C1.08681 11.2543 2.17362 11.2543 3.26043 11.2543C3.26043 13.0582 3.26043 14.9013 3.26043 16.7052C7.02546 16.7052 10.7905 16.7052 14.5555 16.7052C14.5555 14.4307 14.5555 12.1562 14.5555 9.8817C11.528 9.8817 8.50042 9.8817 5.47287 9.8817C6.52087 8.82288 7.56886 7.72484 8.57805 6.66602Z" fill="white"/>
<path d="M29.4603 6.62793C30.5083 6.62793 31.5951 6.62793 32.6431 6.62793C32.6431 11.0985 32.6431 15.5299 32.6431 20.0005H29.4603C29.4603 17.2162 29.4603 14.4319 29.4603 11.6475C27.7137 14.0397 25.967 16.4319 24.2204 18.7848C24.2204 17.2162 24.2204 15.6868 24.2204 14.1181C24.1815 13.8828 24.3756 13.6868 24.5309 13.4907C26.1611 11.2162 27.8301 8.94166 29.4603 6.62793Z" fill="white"/>
<path d="M34.1957 6.62793C35.3602 6.62793 36.5634 6.62793 37.7279 6.62793C39.7074 11.0985 41.7646 15.5299 43.7442 20.0005H40.212C38.2325 15.5299 36.2141 11.0985 34.1957 6.62793Z" fill="white"/>
<path d="M45.2967 6.66602C48.3631 6.66602 51.4295 6.66602 54.457 6.66602C55.505 7.76405 56.553 8.82288 57.601 9.92092C54.5735 9.96013 51.5459 9.92092 48.5184 9.92092C48.5184 12.1954 48.5184 14.4699 48.5184 16.7444C52.2834 16.7444 56.0484 16.7444 59.8134 16.7444C59.8134 14.9405 59.8134 13.1366 59.8134 11.2935C60.9003 11.2543 61.9871 11.2935 63.0351 11.2935C63.0351 14.1954 63.0351 17.0974 63.0351 19.9993H45.2579C45.2967 15.568 45.2967 11.0974 45.2967 6.66602Z" fill="white"/>
<path d="M69.2066 6.62793C72.4282 6.62793 75.611 6.62793 78.8326 6.62793C78.8326 10.4711 78.8326 14.3142 78.8326 18.1573C77.7458 17.1377 76.6978 16.0397 75.611 15.0201C75.611 13.2946 75.611 11.6083 75.611 9.88283C73.4762 9.88283 71.3802 9.88283 69.2454 9.88283C69.2066 8.82401 69.2066 7.72597 69.2066 6.62793Z" fill="white"/>
<path d="M81.7437 6.62793C85.5088 6.62793 89.235 6.62793 93 6.62793V15.9613C90.2442 15.9613 87.5271 15.9613 84.7713 15.9613C84.7713 14.9024 84.7713 13.8044 84.7713 12.7064C86.4403 12.7064 88.1093 12.7064 89.7784 12.7064C89.7784 11.726 89.7784 10.7848 89.7784 9.8044C88.2646 9.8044 86.712 9.8044 85.1982 9.8044C85.043 9.8044 84.8877 9.84362 84.7713 9.68675C83.7621 8.74558 82.7529 7.68675 81.7437 6.62793Z" fill="white"/>
<path d="M64.8594 8.43164C65.9462 9.49046 66.9942 10.5493 68.081 11.6081C68.081 13.2944 68.081 15.0199 68.081 16.7062C70.2158 16.7062 72.3506 16.7062 74.4854 16.7062C74.4854 17.8042 74.4854 18.9022 74.4854 20.0003H64.8594C64.8594 16.1571 64.8594 12.2748 64.8594 8.43164Z" fill="white"/>
<path d="M16.0693 2.54919V0.706055H17.389V0.980565H16.3798V2.50998H16.0693V2.54919Z" fill="white"/>
<path d="M18.7475 0.666016C19.2521 0.666016 19.6402 1.05817 19.6402 1.60719C19.6402 2.15621 19.2521 2.54837 18.7475 2.54837C18.3981 2.54837 18.1652 2.39151 18.0488 2.23464V3.33268H17.7383V0.705231H18.01V1.01896C18.2041 0.822878 18.3981 0.666016 18.7475 0.666016ZM18.7086 0.940525C18.3981 0.940525 18.1264 1.1366 18.0488 1.3719V1.84249C18.1652 2.07778 18.3981 2.27386 18.7086 2.27386C19.058 2.27386 19.3297 1.99935 19.3297 1.60719C19.3685 1.21504 19.058 0.940525 18.7086 0.940525Z" fill="white"/>
<path d="M21.3869 0.706055H21.7362L20.8435 2.8237C20.6494 3.25507 20.4165 3.45115 20.1448 3.45115C20.0672 3.45115 20.0284 3.45115 19.9507 3.41194V3.13743C19.9895 3.13743 20.0672 3.17664 20.106 3.17664C20.3001 3.17664 20.4553 3.01978 20.5718 2.74527L20.6494 2.58841L19.7955 0.706055H20.106L20.8047 2.19625L21.3869 0.706055Z" fill="white"/>
<path d="M22.0468 2.54919V0.706055H23.7158V2.54919H23.4053V0.980565H22.3573V2.50998H22.0468V2.54919Z" fill="white"/>
<path d="M24.2592 2.54919V0.706055H25.9282V2.54919H25.6177V0.980565H24.5697V2.50998H24.2592V2.54919Z" fill="white"/>
<path d="M28.1018 2.31307C28.1406 2.31307 28.1795 2.31307 28.2571 2.27386V2.50915C28.1795 2.54837 28.1018 2.54837 28.0242 2.54837C27.8689 2.54837 27.7525 2.46994 27.6749 2.31307C27.4808 2.46994 27.2479 2.54837 26.9762 2.54837C26.6657 2.54837 26.3552 2.39151 26.3552 1.99935C26.3552 1.52876 26.7821 1.3719 27.1703 1.3719C27.3255 1.3719 27.5196 1.41111 27.6749 1.41111C27.6749 1.1366 27.4808 0.940525 27.1703 0.940525C26.8986 0.940525 26.6657 1.01896 26.5104 1.05817V0.783663C26.6657 0.744447 26.8986 0.666016 27.2091 0.666016C27.6749 0.666016 27.9854 0.940525 27.9854 1.45033V2.15621C27.9466 2.27386 28.0242 2.31307 28.1018 2.31307ZM27.015 2.31307C27.2479 2.31307 27.4808 2.23464 27.636 2.03856V1.72484C27.5196 1.68562 27.3255 1.68562 27.1703 1.68562C26.8986 1.68562 26.6269 1.76405 26.6269 2.03856C26.6269 2.23464 26.8209 2.31307 27.015 2.31307Z" fill="white"/>
<path d="M29.4991 2.54919V0.706055H29.8097V1.45115H30.159L30.7412 0.706055H31.0905L30.3919 1.60802L31.1682 2.50998H30.8188L30.159 1.72566H29.8097V2.50998H29.4991V2.54919Z" fill="white"/>
<path d="M32.2162 0.666016C32.7208 0.666016 33.1866 1.01896 33.1866 1.60719C33.1866 2.23464 32.7208 2.54837 32.2162 2.54837C31.7116 2.54837 31.2458 2.19543 31.2458 1.60719C31.2458 1.01896 31.7116 0.666016 32.2162 0.666016ZM32.2162 0.940525C31.8281 0.940525 31.5564 1.17582 31.5564 1.60719C31.5564 2.03856 31.8669 2.27386 32.2162 2.27386C32.5655 2.27386 32.8761 2.03856 32.8761 1.60719C32.8761 1.21504 32.5655 0.940525 32.2162 0.940525Z" fill="white"/>
<path d="M33.6135 2.54919V0.706055H33.924L34.5839 1.72566L35.2437 0.706055H35.5543V2.54919H35.2826V1.17664L34.7003 2.0786H34.4675L33.8852 1.17664V2.54919H33.6135Z" fill="white"/>
<path d="M36.1365 2.54919V0.706055H37.8055V2.54919H37.495V0.980565H36.447V2.50998H36.1365V2.54919Z" fill="white"/>
<path d="M39.9791 2.31307C40.018 2.31307 40.0568 2.31307 40.1344 2.27386V2.50915C40.0568 2.54837 39.9791 2.54837 39.9015 2.54837C39.7463 2.54837 39.6298 2.46994 39.5522 2.31307C39.3581 2.46994 39.1252 2.54837 38.8535 2.54837C38.543 2.54837 38.2325 2.39151 38.2325 1.99935C38.2325 1.52876 38.6594 1.3719 39.0476 1.3719C39.2029 1.3719 39.3969 1.41111 39.5522 1.41111C39.5522 1.1366 39.3581 0.940525 39.0476 0.940525C38.7759 0.940525 38.543 1.01896 38.3877 1.05817V0.783663C38.543 0.744447 38.7759 0.666016 39.0864 0.666016C39.5522 0.666016 39.8627 0.940525 39.8627 1.45033V2.15621C39.8239 2.27386 39.9015 2.31307 39.9791 2.31307ZM38.8923 2.31307C39.1252 2.31307 39.3581 2.23464 39.5134 2.03856V1.72484C39.3969 1.68562 39.2029 1.68562 39.0476 1.68562C38.7759 1.68562 38.5042 1.76405 38.5042 2.03856C38.5042 2.23464 38.6983 2.31307 38.8923 2.31307Z" fill="white"/>
<path d="M40.4449 2.54919V0.706055H40.7554V1.49037H41.8034V0.706055H42.1139V2.54919H41.8034V1.76488H40.7554V2.54919H40.4449Z" fill="white"/>
<path d="M42.6573 2.54919V0.706055H42.9679V2.03939L44.0935 0.706055H44.3652V2.54919H44.0547V1.21586L42.9291 2.54919H42.6573Z" fill="white"/>
<path d="M44.8698 2.54902V0.705882H45.1803V2.03922L46.3059 0.705882H46.5776V2.54902H46.2671V1.21569L45.1415 2.54902H44.8698ZM45.6849 0.431373C45.4908 0.431373 45.3356 0.392157 45.1415 0.27451V0C45.3356 0.117647 45.4908 0.156863 45.6849 0.156863C45.879 0.156863 46.0342 0.117647 46.2283 0V0.27451C46.073 0.392157 45.879 0.431373 45.6849 0.431373Z" fill="white"/>
<path d="M0 0.78418C4.96828 0.78418 9.93656 0.78418 14.866 0.78418C14.866 0.862611 14.8272 1.01947 14.8272 1.09791C14.6331 1.25477 14.4779 1.41163 14.3226 1.60771C13.7016 2.35281 12.9641 3.01947 12.3431 3.76457C12.1878 3.92143 12.0714 4.15673 11.7997 4.11751C8.96619 4.11751 6.13272 4.11751 3.33806 4.11751C3.29925 4.15673 3.26043 4.19594 3.26043 4.23516C3.22162 6.03908 3.26043 7.80379 3.22162 9.60771C2.13481 9.60771 1.08681 9.60771 0 9.60771V0.78418H0Z" fill="#AAAAAA"/>
<path d="M48.1302 0.78418C53.0985 0.78418 58.0668 0.78418 63.0351 0.78418C63.0351 3.72536 63.0351 6.62732 63.0351 9.56849C61.9871 9.56849 60.9391 9.56849 59.8911 9.56849C59.7358 9.49006 59.8523 9.29398 59.8523 9.17634C59.7746 8.39202 59.8523 7.56849 59.8134 6.78418C59.8134 5.88222 59.8134 4.98026 59.8134 4.0783C56.9023 4.0783 53.9524 4.11751 51.0413 4.0783C50.7696 3.68614 50.3815 3.37241 50.071 2.98026C49.9157 2.8234 49.7604 2.5881 49.5664 2.47045C49.4499 2.27438 49.2558 2.15673 49.1394 1.99987C48.8289 1.68614 48.5184 1.29398 48.2078 0.980258C48.169 0.941042 48.169 0.823395 48.1302 0.78418Z" fill="#AAAAAA"/>
<path d="M19.5626 6.62695C20.6106 6.62695 21.6586 6.62695 22.7454 6.62695C22.7454 9.05833 22.7454 11.4505 22.7454 13.8819C22.4737 13.9211 22.1632 13.8426 21.8915 13.9603C21.4257 13.9211 20.96 13.8426 20.533 13.9603C20.3389 13.9603 20.106 13.9603 19.912 13.9603C19.7955 13.9211 19.6791 13.9211 19.6014 13.8819C19.5626 11.4897 19.5626 9.05833 19.5626 6.62695Z" fill="#AAAAAA"/>
<path d="M80.5016 12.8232C81.5496 12.8232 82.5977 12.8232 83.6845 12.8232C83.6845 15.2154 83.6845 17.6076 83.6845 19.9997H80.5016C80.5016 17.6076 80.5016 15.2154 80.5016 12.8232Z" fill="#AAAAAA"/>
</g>
<defs>
<clipPath id="clip0_31_7262">
<rect width="93" height="20" fill="white"/>
</clipPath>
</defs>
</svg>
