<svg width="64" height="64" viewBox="0 0 64 64" fill="none" xmlns="http://www.w3.org/2000/svg">
<path d="M32 0.108887L0 18.2996V63.8906H64V18.2996L32 0.108887ZM50.75 46.3906H47.625V32.6406H30.125V38.0156H17.625V46.3906H13.25V28.0156H50.75V46.3906ZM33.875 46.3906V36.3906H43.875V46.3906H33.875ZM21.375 46.3906V41.7656H30.125V46.3906H21.375ZM13.263 60.1406V50.1406H23.25V60.1406H13.263ZM27.013 60.1406V50.1406H36.9871V60.1406H27.013ZM40.75 60.1406V50.1406H50.737V60.1406H40.75ZM60.25 60.1406H54.5V24.2656H9.5V60.1406H3.75V20.4815L32 4.42239L60.25 20.4816V60.1406Z" fill="#F8B100"/>
<path d="M25.8801 16.7656H38.1199V20.5156H25.8801V16.7656Z" fill="#F8B100"/>
</svg>
