<svg width="190" height="40" viewBox="0 0 190 40" fill="none" xmlns="http://www.w3.org/2000/svg">
<path d="M17.5791 13.2778C23.8132 13.2778 30.1035 13.2778 36.3376 13.2778C36.3376 22.1667 36.3376 31.1112 36.3376 40.0001H0V22.5556C2.19036 22.5556 4.43689 22.5556 6.62725 22.5556C6.62725 26.1667 6.62725 29.8334 6.62725 33.4445C14.3216 33.4445 22.016 33.4445 29.7665 33.4445C29.7665 28.8889 29.7665 24.3334 29.7665 19.7778C23.5885 19.7778 17.4106 19.7778 11.1765 19.7778C13.3107 17.6667 15.4449 15.5001 17.5791 13.2778Z" fill="white"/>
<path d="M60.2069 13.2778C62.3973 13.2778 64.5315 13.2778 66.7219 13.2778C66.7219 22.1667 66.7219 31.1112 66.7219 40.0001H60.2631C60.2631 34.4445 60.2631 28.8334 60.2631 23.2778C56.6687 28.0556 53.1304 32.8334 49.5359 37.5556C49.5359 34.4445 49.5359 31.3334 49.5359 28.2223C49.4798 27.7223 49.8729 27.3334 50.1537 26.9445C53.4674 22.4445 56.8371 17.8889 60.2069 13.2778Z" fill="white"/>
<path d="M69.867 13.2778C72.282 13.2778 74.697 13.2778 77.1121 13.2778C81.212 22.2223 85.368 31.0556 89.4679 40.0001H82.2791C78.123 31.1112 73.9669 22.1667 69.867 13.2778Z" fill="white"/>
<path d="M92.5569 13.2778C98.791 13.2778 105.081 13.2778 111.315 13.2778C113.45 15.4445 115.584 17.6112 117.774 19.7778C111.596 19.8334 105.418 19.7778 99.1842 19.7778C99.1842 24.3334 99.1842 28.8889 99.1842 33.4445C106.879 33.4445 114.573 33.4445 122.267 33.4445C122.267 29.8334 122.267 26.1667 122.267 22.5556C124.458 22.5001 126.648 22.5556 128.894 22.5556C128.894 28.3889 128.894 34.1667 128.894 40.0001H92.5569C92.5569 31.1112 92.5569 22.2223 92.5569 13.2778Z" fill="white"/>
<path d="M141.419 13.2776C147.99 13.2776 154.561 13.2221 161.076 13.2776C161.02 20.9443 161.076 28.611 161.076 36.3332C158.829 34.2776 156.695 32.111 154.449 30.0554C154.393 26.611 154.449 23.2221 154.393 19.7776C150.068 19.7776 145.687 19.7776 141.363 19.7776C141.419 17.611 141.419 15.4443 141.419 13.2776Z" fill="white"/>
<path d="M167.029 13.2778C174.667 13.2778 182.362 13.2778 190 13.2778V31.9445C184.384 31.9445 178.824 31.9445 173.207 31.9445C173.207 29.7778 173.207 27.6112 173.207 25.4445C176.633 25.4445 180.003 25.4445 183.429 25.4445C183.429 23.5001 183.429 21.6112 183.429 19.6667C180.284 19.6667 177.195 19.6667 174.05 19.6667C173.769 19.6667 173.432 19.7223 173.207 19.4445C171.129 17.4445 169.051 15.3889 167.029 13.2778Z" fill="white"/>
<path d="M132.489 16.8887C134.679 18.9998 136.87 21.1109 139.06 23.222C139.06 26.6109 139.06 30.0553 139.06 33.4442C143.441 33.4442 147.765 33.4442 152.146 33.4442C152.146 35.6109 152.146 37.8331 152.146 39.9998H132.489C132.489 32.2776 132.489 24.5553 132.489 16.8887Z" fill="white"/>
<path d="M32.8555 5.111V1.44434H35.5513V1.99989H33.4733V5.111H32.8555Z" fill="white"/>
<path d="M38.3033 1.3335C39.3704 1.3335 40.1567 2.16683 40.1567 3.27794C40.1567 4.38905 39.3704 5.22238 38.3033 5.22238C37.5732 5.22238 37.1239 4.88905 36.8431 4.55572V6.77794H36.2253V1.44461H36.7869V2.05572C37.1801 1.66683 37.6294 1.3335 38.3033 1.3335ZM38.2472 1.88905C37.5732 1.88905 37.0677 2.3335 36.8992 2.77794V3.66683C37.1239 4.16683 37.5732 4.55572 38.2472 4.55572C38.9773 4.55572 39.5389 4.05572 39.5389 3.22238C39.5389 2.44461 38.9773 1.88905 38.2472 1.88905Z" fill="white"/>
<path d="M43.7511 1.44434H44.3689L42.5717 5.66656C42.1786 6.55545 41.7293 6.88878 41.1676 6.88878C41.0553 6.88878 40.8868 6.88878 40.7745 6.83322V6.33322C40.8868 6.38878 40.9991 6.38878 41.1115 6.38878C41.5046 6.38878 41.8416 6.111 42.0662 5.49989L42.1786 5.16656L40.4375 1.44434H41.1115L42.5155 4.38878L43.7511 1.44434Z" fill="white"/>
<path d="M45.0428 5.111V1.44434H48.4126V5.111H47.7948V1.99989H45.6606V5.111H45.0428Z" fill="white"/>
<path d="M49.5921 5.111V1.44434H52.9619V5.111H52.3441V1.99989H50.2099V5.111H49.5921Z" fill="white"/>
<path d="M57.3988 4.61089C57.5111 4.61089 57.5673 4.61089 57.6796 4.55534V5.05534C57.5111 5.11089 57.3988 5.16645 57.2303 5.16645C56.9495 5.16645 56.6686 5.05534 56.5563 4.72201C56.1632 4.99978 55.7139 5.16645 55.0961 5.16645C54.4221 5.16645 53.8043 4.83312 53.8043 4.05534C53.8043 3.11089 54.7029 2.83312 55.4892 2.83312C55.8262 2.83312 56.2193 2.88867 56.5002 2.94423V2.83312C56.5002 2.27756 56.107 1.94423 55.433 1.94423C54.8714 1.94423 54.4221 2.05534 54.0851 2.22201V1.61089C54.366 1.49978 54.8714 1.38867 55.4892 1.38867C56.5002 1.38867 57.1179 1.94423 57.1179 2.94423V4.38867C57.1179 4.55534 57.2303 4.61089 57.3988 4.61089ZM55.2084 4.66645C55.6577 4.66645 56.1632 4.49978 56.444 4.11089V3.44423C56.2193 3.38867 55.8262 3.33312 55.5454 3.33312C54.9837 3.33312 54.4221 3.49978 54.4221 3.99978C54.4221 4.44423 54.8153 4.66645 55.2084 4.66645Z" fill="white"/>
<path d="M60.2631 5.111V1.44434H60.8809V2.94434H61.611L62.7905 1.44434H63.5206L62.1165 3.27767L63.6891 5.111H62.959L61.611 3.55545H60.8809V5.111H60.2631Z" fill="white"/>
<path d="M65.8233 1.3335C66.8342 1.3335 67.789 2.00016 67.789 3.27794C67.789 4.50016 66.8342 5.22238 65.8233 5.22238C64.8123 5.22238 63.8575 4.55572 63.8575 3.27794C63.8575 2.00016 64.8123 1.3335 65.8233 1.3335ZM65.8233 1.94461C65.0931 1.94461 64.4753 2.44461 64.4753 3.27794C64.4753 4.11127 65.0931 4.61127 65.8233 4.61127C66.5534 4.61127 67.1712 4.11127 67.1712 3.27794C67.1712 2.38905 66.5534 1.94461 65.8233 1.94461Z" fill="white"/>
<path d="M68.6876 5.111V1.44434H69.3615L70.7094 3.44434L72.0574 1.44434H72.7313V5.111H72.1697V2.33322L70.9903 4.16656H70.5409L69.3615 2.33322V5.111H68.6876Z" fill="white"/>
<path d="M73.8546 5.111V1.44434H77.2244V5.111H76.6066V1.99989H74.4724V5.111H73.8546Z" fill="white"/>
<path d="M81.6613 4.61089C81.7736 4.61089 81.8298 4.61089 81.9421 4.55534V5.05534C81.7736 5.11089 81.6613 5.16645 81.4928 5.16645C81.212 5.16645 80.9311 5.05534 80.8188 4.72201C80.4257 4.99978 79.9764 5.22201 79.3586 5.22201C78.6846 5.22201 78.0668 4.88867 78.0668 4.11089C78.0668 3.16645 78.9654 2.88867 79.7517 2.88867C80.0887 2.88867 80.4818 2.94423 80.7627 2.99978V2.83312C80.7627 2.27756 80.3695 1.94423 79.6956 1.94423C79.1339 1.94423 78.6846 2.05534 78.3476 2.22201V1.61089C78.6285 1.49978 79.1339 1.38867 79.7517 1.38867C80.7627 1.38867 81.3805 1.94423 81.3805 2.94423V4.38867C81.3805 4.55534 81.4928 4.61089 81.6613 4.61089ZM79.4709 4.66645C79.9202 4.66645 80.4257 4.49978 80.7065 4.11089V3.44423C80.4257 3.38867 80.0887 3.33312 79.7517 3.33312C79.1901 3.33312 78.6285 3.49978 78.6285 3.99978C78.6846 4.44423 79.0778 4.66645 79.4709 4.66645Z" fill="white"/>
<path d="M82.616 5.111V1.44434H83.2338V2.99989H85.368V1.44434H85.9858V5.111H85.368V3.55545H83.2338V5.111H82.616Z" fill="white"/>
<path d="M87.1091 5.111V1.44434H87.7269V4.111L89.9734 1.44434H90.4789V5.111H89.8611V2.38878L87.6146 5.05545H87.1091V5.111Z" fill="white"/>
<path d="M91.6583 5.11111V1.44444H92.2761V4.11111L94.5226 1.44444H95.0281V5.11111H94.4103V2.38889L92.1638 5.05556H91.6583V5.11111ZM93.3432 0.888889C92.9501 0.888889 92.6131 0.833333 92.2761 0.555556V0C92.6693 0.277778 92.9501 0.333333 93.3432 0.333333C93.7364 0.333333 94.0172 0.222222 94.4103 0V0.555556C94.0733 0.777778 93.7364 0.888889 93.3432 0.888889Z" fill="white"/>
<path d="M0 1.55566C10.1655 1.55566 20.2749 1.55566 30.3843 1.55566C30.3843 1.72233 30.3281 2.05566 30.3281 2.22233C29.935 2.55566 29.598 2.889 29.261 3.22233C27.9693 4.72233 26.509 6.05566 25.2173 7.55566C24.9365 7.889 24.5995 8.33344 24.1502 8.22233C18.3654 8.22233 12.6367 8.22233 6.85191 8.22233C6.79574 8.27789 6.73958 8.389 6.68342 8.44455C6.62725 12.0557 6.68342 15.6112 6.62725 19.2223C4.43689 19.2223 2.24653 19.2223 0 19.2223V1.55566H0Z" fill="#F8B100"/>
<path d="M98.3417 1.55566C108.507 1.55566 118.673 1.55566 128.838 1.55566C128.838 7.44455 128.838 13.2779 128.838 19.1668C126.704 19.2223 124.514 19.1668 122.38 19.1668C122.043 19.0001 122.267 18.6112 122.267 18.3334C122.099 16.7223 122.267 15.1668 122.211 13.5557C122.211 11.7779 122.267 9.94455 122.211 8.16677C116.202 8.16677 110.248 8.22233 104.239 8.16677C103.677 7.389 102.891 6.77789 102.273 6.00011C101.936 5.66677 101.655 5.22233 101.262 5.00011C101.038 4.61122 100.644 4.389 100.364 4.05566C99.6896 3.389 99.128 2.66678 98.454 2.00011C98.454 1.889 98.3979 1.66678 98.3417 1.55566Z" fill="#F8B100"/>
<path d="M39.9882 13.2778C42.1224 13.2778 44.3127 13.2778 46.4469 13.2778C46.4469 18.1112 46.4469 22.9445 46.4469 27.7778C45.8853 27.8334 45.2675 27.7223 44.7059 27.8889C43.8073 27.8334 42.8525 27.6667 41.8977 27.8889C41.4484 27.9445 40.9991 27.9445 40.606 27.8889C40.3813 27.8334 40.1567 27.7778 39.932 27.7778C39.9882 22.9445 39.9882 18.1112 39.9882 13.2778Z" fill="#F8B100"/>
<path d="M164.502 25.6113C166.636 25.6113 168.826 25.6113 170.961 25.6113C171.017 30.3891 170.961 35.2224 170.961 40.0002H164.502C164.446 35.2224 164.446 30.3891 164.502 25.6113Z" fill="#F8B100"/>
</svg>
