<svg width="126" height="126" viewBox="0 0 126 126" fill="none" xmlns="http://www.w3.org/2000/svg">
<path d="M89.25 110.25V99.75C89.25 94.1805 87.0375 88.839 83.0992 84.9008C79.161 80.9625 73.8195 78.75 68.25 78.75H26.25C20.6805 78.75 15.339 80.9625 11.4008 84.9008C7.46249 88.839 5.25 94.1805 5.25 99.75V110.25" stroke="#36C12A" stroke-width="3" stroke-linecap="round" stroke-linejoin="round"/>
<path d="M47.25 57.75C58.848 57.75 68.25 48.348 68.25 36.75C68.25 25.152 58.848 15.75 47.25 15.75C35.652 15.75 26.25 25.152 26.25 36.75C26.25 48.348 35.652 57.75 47.25 57.75Z" stroke="#36C12A" stroke-width="3" stroke-linecap="round" stroke-linejoin="round"/>
<path d="M120.75 110.25V99.7501C120.747 95.0972 119.198 90.5772 116.347 86.8998C113.496 83.2224 109.505 80.5958 105 79.4326" stroke="#36C12A" stroke-width="3" stroke-linecap="round" stroke-linejoin="round"/>
<path d="M84 16.4326C88.5172 17.5892 92.5209 20.2163 95.3801 23.8997C98.2393 27.5832 99.7912 32.1135 99.7912 36.7764C99.7912 41.4393 98.2393 45.9695 95.3801 49.653C92.5209 53.3364 88.5172 55.9635 84 57.1201" stroke="#36C12A" stroke-width="3" stroke-linecap="round" stroke-linejoin="round"/>
</svg>
