<svg width="126" height="126" viewBox="0 0 126 126" fill="none" xmlns="http://www.w3.org/2000/svg">
<path d="M84 110.25V99.75C84 94.1805 81.7875 88.839 77.8492 84.9008C73.911 80.9625 68.5695 78.75 63 78.75H26.25C20.6805 78.75 15.339 80.9625 11.4008 84.9008C7.46249 88.839 5.25 94.1805 5.25 99.75V110.25" stroke="#36C12A" stroke-width="3" stroke-linecap="round" stroke-linejoin="round"/>
<path d="M44.625 57.75C56.223 57.75 65.625 48.348 65.625 36.75C65.625 25.152 56.223 15.75 44.625 15.75C33.027 15.75 23.625 25.152 23.625 36.75C23.625 48.348 33.027 57.75 44.625 57.75Z" stroke="#36C12A" stroke-width="3" stroke-linecap="round" stroke-linejoin="round"/>
<path d="M89.25 57.75L99.75 68.25L120.75 47.25" stroke="#36C12A" stroke-width="3" stroke-linecap="round" stroke-linejoin="round"/>
</svg>
