<svg width="23" height="32" fill="none" xmlns="http://www.w3.org/2000/svg"><g clip-path="url(#clip0)"><path d="M11.5.618A11.48 11.48 0 000 12.131c0 6.69 4.895 13.07 9.247 18.437 1.165 1.4 3.34 1.4 4.584 0C18.105 25.2 23 18.821 23 12.131A11.48 11.48 0 0011.5.618zm0 17.737c-3.419 0-6.139-2.8-6.139-6.224A6.106 6.106 0 0111.5 5.986c3.419 0 6.216 2.723 6.216 6.145 0 3.423-2.797 6.224-6.216 6.224z" fill="#fff"/></g><defs><clipPath id="clip0"><path fill="#fff" transform="translate(0 .618)" d="M0 0h23v31H0z"/></clipPath></defs></svg>