<svg width="24" height="24" fill="none" xmlns="http://www.w3.org/2000/svg"><g clip-path="url(#clip0)"><path d="M23.55 8.312L12.297 3.436a.75.75 0 00-.596 0L.45 8.312a.75.75 0 000 1.376l4.048 1.754v4.683c0 2.524 3.295 4.5 7.501 4.5s7.5-1.976 7.5-4.5v-4.683l.75-.325v8.008a.75.75 0 001.5 0v-8.658l1.8-.779a.75.75 0 000-1.376zM12 4.942L21.364 9l-.742.322-8.529-1.066a.75.75 0 00-.186 1.488l6.007.751L12 13.058 2.636 9 12 4.942zm6 11.183c0 .707-.58 1.435-1.59 1.997-2.41 1.338-6.403 1.342-8.82 0C6.58 17.56 6 16.832 6 16.125v-4.033l5.702 2.471a.75.75 0 00.596 0L18 12.093v4.032z" fill="#FF8C00" stroke="#FF8C00" stroke-width=".3"/></g><defs><clipPath id="clip0"><path fill="#fff" d="M0 0h24v24H0z"/></clipPath></defs></svg>