<svg width="70" height="53" fill="none" xmlns="http://www.w3.org/2000/svg"><path d="M9.666 26.538c1.887 0 3.398-1.517 3.322-3.336 0-1.82-1.51-3.337-3.322-3.337-1.813 0-3.323 1.517-3.323 3.337 0 1.82 1.51 3.336 3.323 3.336zm-.907-4.322a1.39 1.39 0 01.907-.38c.755 0 1.359.607 1.359 1.366 0 .758-.604 1.364-1.36 1.364-.377 0-.679-.151-.981-.379-.453-.606-.453-1.44.075-1.971zM8.004 13.876c0-.531-.453-.986-.981-.986H2.19c0-.152.075-.303.15-.455.227-.683 1.058-1.137 2.115-1.137h4.607V9.25H4.455c-1.963 0-3.549.986-4.002 2.578-.226.683-.377 1.365-.377 2.123 0 .531.377 1.062.981 1.062h.076l5.965-.076c.453 0 .906-.455.906-1.061z" fill="#0083D0"/><path d="M46.214 35.94c0 4.928 4.002 8.947 8.91 8.947s8.91-4.019 8.91-8.947c0-4.929-4.002-8.947-8.91-8.947s-8.91 4.018-8.91 8.947zm15.706 0c0 3.791-3.02 6.824-6.796 6.824-3.776 0-6.796-3.033-6.796-6.824s3.02-6.824 6.796-6.824c3.776-.076 6.796 3.033 6.796 6.824z" fill="#FF8C00"/><path d="M51.877 34.954c-.378-.379-1.057-.379-1.435 0-.377.38-.377 1.062 0 1.44l2.945 2.958c.378.38 1.057.38 1.435 0l5.21-5.004c.378-.38.453-1.062 0-1.441-.377-.38-1.057-.455-1.434 0l-4.456 4.322-2.265-2.275z" fill="#FF8C00"/><path d="M20.766 28.282c0 .607.453 1.061 1.057 1.061l13.592-.075c.604 0 1.057-.455 1.057-1.062s-.453-1.061-1.057-1.061l-13.592.075c-.604 0-1.057.531-1.057 1.062zM22.427 24.187c.604 0 1.057-.455 1.057-1.061v-2.199c0-.607-.453-1.061-1.057-1.061-.604 0-1.057.454-1.057 1.061v2.199c0 .606.453 1.061 1.057 1.061zM18.274 19.941c-.604 0-1.057.455-1.057 1.062v2.199c0 .606.453 1.061 1.057 1.061.604 0 1.057-.455 1.057-1.061v-2.2c0-.606-.453-1.136-1.057-1.06zM38.813 19.79c-.604 0-1.057.455-1.057 1.061v2.199c0 .607.453 1.062 1.057 1.062.604 0 1.058-.455 1.058-1.062v-2.199c0-.606-.454-1.061-1.058-1.061zM26.505 24.187c.604 0 1.057-.455 1.057-1.061v-2.199c0-.607-.453-1.061-1.057-1.061-.604 0-1.057.454-1.057 1.061v2.199c.075.53.528 1.061 1.057 1.061zM30.658 24.112c.604 0 1.057-.455 1.057-1.062v-2.199c0-.606-.453-1.061-1.057-1.061-.604 0-1.057.455-1.057 1.061v2.199c0 .607.453 1.062 1.057 1.062zM34.736 24.112c.604 0 1.057-.455 1.057-1.062v-2.199c0-.606-.453-1.061-1.057-1.061-.604 0-1.057.455-1.057 1.061v2.199c0 .607.528 1.062 1.057 1.062zM52.632 10.54c1.057 0 1.964.454 2.19 1.137.076.151.076.303.151.455l-4.984.075c-.604 0-1.057.455-1.057 1.062s.453 1.061 1.057 1.061l6.192-.075c.604 0 1.058-.455 1.058-1.062v-.076a9.636 9.636 0 00-.454-2.123c-.528-1.516-2.114-2.578-4.077-2.578H47.95v2.047c0 .152 3.096.076 4.682.076zM34.434 15.013c.604 0 1.057-.455 1.057-1.062 0-2.123 1.661-3.79 3.775-3.79 2.115 0 3.776 1.667 3.776 3.79 0 .607.453 1.062 1.057 1.062.604 0 1.057-.455 1.057-1.062a5.829 5.829 0 00-5.814-5.838h-.076c-3.247 0-5.814 2.654-5.814 5.914-.076.531.378.986.982.986z" fill="#0083D0"/><path d="M2.945 29.798c.076 1.517 1.133 2.881 2.643 3.185v3.26c0 1.213.982 2.2 2.19 2.2h3.549c1.208 0 2.19-.987 2.19-2.2V33.06l27.788-.228c.604 0 1.057-.455 1.057-1.061 0-.607-.453-1.062-1.057-1.062l-34.962.303c-.68 0-1.284-.606-1.284-1.288v-.152L3.625 18.88c0-.91.302-1.744.906-2.502.453-.607 1.208-.986 1.963-1.062h.151l43.797-.303c1.51 0 2.492 1.061 2.87 2.123.226.53.83.834 1.359.607.529-.228.83-.835.604-1.365-.755-1.896-2.34-3.185-4.153-3.412l-4.455-7.81C45.307 2.73 43.344 0 40.022 0L16.99.152c-2.643 0-5.059 1.895-6.645 5.231l-4.38 7.962c-1.208.151-2.265.758-3.096 1.744-.906 1.061-1.359 2.426-1.359 3.867v.151l1.435 10.691zm8.533 3.26v3.185c0 .076-.076.152-.151.152h-3.55c-.075 0-.15-.076-.15-.152V33.06h3.85zm.68-26.689c.755-1.592 2.34-4.094 4.832-4.17l23.107-.152c1.737 0 3.172 1.213 4.757 4.095l3.776 6.824-40.248.303 3.776-6.9z" fill="#0083D0"/><path d="M65.47 18.804h-3.776a3.74 3.74 0 00-3.625-2.73h-5.965c-1.662 0-3.172 1.138-3.625 2.73h-3.776c-2.492 0-4.53 2.047-4.53 4.55V48.45c0 2.502 2.038 4.55 4.53 4.55h20.69c2.493 0 4.531-2.048 4.531-4.55V23.353c.076-2.502-1.963-4.549-4.455-4.549zm-13.29-.682h5.965a1.68 1.68 0 011.66 1.668 1.68 1.68 0 01-1.66 1.668h-5.966a1.68 1.68 0 01-1.661-1.668c0-.91.68-1.668 1.661-1.668zM67.96 48.45a2.438 2.438 0 01-2.416 2.426H44.779c-1.36 0-2.417-1.137-2.417-2.426V23.353a2.438 2.438 0 012.417-2.426h3.851c.453 1.592 1.888 2.578 3.55 2.578h5.965c1.66 0 3.096-1.061 3.549-2.578h3.85c1.36 0 2.417 1.137 2.417 2.426v25.098z" fill="#0083D0"/></svg>