<svg width="70" height="74" fill="none" xmlns="http://www.w3.org/2000/svg"><path d="M5.991 39.903c0-.95.315-1.9 1.051-2.533l14.61-11.718-1.262-1.584L5.676 35.787l-.105.106a5.84 5.84 0 00-1.682 4.117V63.02H5.99V39.903zM24.595 60.488c2.732-.528 4.73-2.956 4.73-5.7v-5.912h-2.103v5.911c0 2.112-1.681 3.695-3.784 3.8-.525 0-1.05.423-1.05 1.056v3.484h2.101v-2.64h.106z" fill="#0083D0"/><path d="M27.643 71.466V64.5c0-1.372-1.157-2.533-2.523-2.533H2.523C1.156 61.966 0 63.127 0 64.499v6.968C0 72.838 1.156 74 2.523 74h22.702c1.367 0 2.418-1.161 2.418-2.534zm-25.54 0V64.5c0-.21.21-.422.42-.422h22.702c.21 0 .42.211.42.422v6.968c0 .21-.21.422-.42.422H2.523c-.21 0-.42-.211-.42-.422z" fill="#0083D0"/><path d="M6.201 65.238c-1.576 0-2.943 1.267-2.943 2.85 0 1.584 1.262 2.956 2.838 2.956 1.577 0 2.943-1.266 2.943-2.85v-.106a2.832 2.832 0 00-2.838-2.85zm0 3.695c-.42 0-.84-.317-.84-.739s.315-.844.735-.844.841.316.841.739v.105c0 .317-.315.739-.736.739zM58.544 33.57c-.526 0-1.157 0-1.682.105V13.829c0-.317-.105-.528-.316-.74L43.83.318A1.133 1.133 0 0043.093 0H24.174c-2.312 0-4.204 1.9-4.204 4.223v31.774h2.102V4.223c0-1.162.946-2.112 2.102-2.112h17.868v8.55c0 2.323 1.892 4.223 4.204 4.223h8.514v19.424c-5.57 1.9-8.724 7.812-7.463 13.512H24.174a2.113 2.113 0 01-2.102-2.111v-2.745H19.97v2.745c0 2.322 1.892 4.222 4.204 4.222h23.859c2.628 5.806 9.354 8.446 15.135 5.806 5.78-2.639 8.409-9.395 5.78-15.2-1.786-4.223-5.885-6.968-10.404-6.968zM46.245 12.772a2.113 2.113 0 01-2.102-2.111V3.589l9.25 9.29h-7.148v-.106zm12.297 41.803c-5.255 0-9.459-4.222-9.459-9.5 0-5.279 4.204-9.501 9.46-9.501 5.255 0 9.459 4.222 9.459 9.5 0 5.279-4.31 9.501-9.46 9.501z" fill="#0083D0"/><path d="M40.465 26.919h-7.147c-.525 0-1.05.422-1.05 1.055 0 .634.42 1.056 1.05 1.056h7.148c.525 0 1.05-.422 1.05-1.056 0-.633-.42-1.055-1.05-1.055z" fill="#FF8C00"/><path d="M47.508 37.58c0-.527-.42-1.055-1.052-1.055h-16.29c-.526 0-1.052.422-1.052 1.056 0 .633.42 1.055 1.051 1.055h16.397c.525-.105.946-.528.946-1.056zM40.465 42.753c0-.528-.42-1.055-1.05-1.055h-9.25c-.525 0-1.05.422-1.05 1.055 0 .528.42 1.056 1.05 1.056h9.25c.63 0 1.05-.422 1.05-1.056z" fill="#0083D0"/><path d="M39.31 23.33c.525 0 1.05-.423 1.05-1.056 0-.845.631-1.478 1.472-1.478.84 0 1.471.633 1.471 1.478 0 .528.42 1.055 1.051 1.055.526 0 1.051-.422 1.051-1.055 0-1.9-1.576-3.484-3.468-3.484s-3.468 1.584-3.468 3.484c-.21.528.21 1.055.84 1.055zM25.75 27.341a2.608 2.608 0 002.628 2.64 2.608 2.608 0 002.628-2.64 2.608 2.608 0 00-2.628-2.64 2.608 2.608 0 00-2.627 2.64zm3.154 0c0 .317-.21.528-.526.528-.315 0-.525-.211-.525-.528 0-.317.21-.528.525-.528.21 0 .526.211.526.528zM45.405 29.98a2.608 2.608 0 002.628-2.639 2.608 2.608 0 00-2.628-2.64 2.608 2.608 0 00-2.627 2.64c.105 1.478 1.261 2.64 2.627 2.64zm0-3.167c.316 0 .526.211.526.528 0 .317-.21.528-.526.528-.315 0-.525-.211-.525-.528 0-.317.315-.528.525-.528zM58.544 40.959c.84 0 1.471.633 1.471 1.478 0 .527.42 1.055 1.051 1.055.526 0 1.051-.422 1.051-1.055 0-1.584-1.05-2.956-2.522-3.484v-.528c0-.528-.42-1.055-1.051-1.055-.526 0-1.051.422-1.051 1.055v.634c-1.892.527-2.944 2.533-2.418 4.433.42 1.478 1.892 2.534 3.468 2.534.841 0 1.472.633 1.577 1.478 0 .844-.63 1.477-1.471 1.583-.841 0-1.472-.739-1.472-1.478 0-.528-.42-1.056-1.05-1.056-.526 0-1.052.423-1.052 1.056 0 1.584 1.051 2.956 2.523 3.484v.633c0 .528.42 1.056 1.05 1.056.526 0 1.052-.422 1.052-1.056v-.633c1.892-.528 2.943-2.534 2.417-4.434-.42-1.478-1.892-2.533-3.468-2.533-.841 0-1.472-.634-1.577-1.478a1.5 1.5 0 011.471-1.69z" fill="#FF8C00"/><path d="M10.826 44.02c.315.422 1.05.528 1.471.211l10.721-8.55.105.21c.946.95.946 2.64 0 3.59l-5.045 5.067c-.21.21-.315.422-.315.633l-.105 1.056v.105c0 .845.21 1.69.525 2.428.841 1.69.63 3.695-.42 5.278-.105.212-.21.423-.21.528v2.428c0 .528.42 1.056 1.05 1.056.631 0 1.052-.422 1.052-1.056v-2.111c1.26-2.111 1.471-4.856.42-7.073-.21-.528-.315-1.055-.42-1.583v-.634l4.73-4.75c1.786-1.794 1.786-4.75 0-6.545l-.841-.844c-.42-.423-.946-.423-1.367-.106l-11.456 9.079c-.21.422-.316 1.16.105 1.583z" fill="#0083D0"/><path d="M45.195 35.258h1.787c.946 0 1.682-.739 1.682-1.689v-1.372c.735-.317 1.26-1.161 1.366-2.006l.736-5.49v-.105c0-1.583-1.051-2.956-2.523-3.272l-2.102-3.906c-.736-1.372-1.892-2.956-3.784-2.956h-10.72c-1.577 0-2.943 1.056-3.89 2.956l-2.206 3.8c-1.367.422-2.418 1.795-2.418 3.484v.105l.736 5.49c0 .844.525 1.689 1.366 2.005v1.373c0 .95.736 1.689 1.682 1.689h1.787c.946 0 1.681-.74 1.681-1.69v-1.16h13.349v1.16c-.21.845.525 1.584 1.471 1.584zm1.367-2.111h-.946v-.739h.946v.739zM29.535 18.474s.105 0 0 0c.315-.74 1.05-1.9 2.102-1.9h10.615c.736 0 1.261.527 1.997 1.9l1.472 2.744H27.958l1.577-2.744zm-1.367 14.673h-.946v-.739h.946v.739zm-2.102-2.745c-.105 0-.21-.105-.21-.21v-.106l-.63-5.49c0-.633.42-1.16.945-1.267h21.337c.63 0 1.05.634 1.05 1.267l-.735 5.49v.105c0 .106-.105.211-.21.211H26.066z" fill="#FF8C00"/></svg>